<?xml version="1.0" encoding="utf-8"?>
<!-- Generator: Adobe Illustrator 19.0.0, SVG Export Plug-In . SVG Version: 6.00 Build 0)  -->
<svg version="1.1" id="Layer_1" xmlns="http://www.w3.org/2000/svg" xmlns:xlink="http://www.w3.org/1999/xlink" x="0px" y="0px"
	 viewBox="0 0 265.9 73.4" style="enable-background:new 0 0 265.9 73.4;" xml:space="preserve">
<g fill="white">
	<path d="M215.3,34.2c0,0.1,0,0.2,0,0.2l0,0c-0.1,0.2-0.2,0.4-0.4,0.8c0.5-0.2,0.7-0.3,0.9-0.3l0,0c0.1,0,0.2,0,0.2,0l0,0
		c0.2,0.3,0.5,0.2,0.7,0l0,0c0.3,0,0.7-0.1,1.1-0.1c0.4,0.2,0.6,1,1.3,0.6l0,0c0.1,0,0.3,0.1,0.4,0c0.7-0.5,1.5-0.5,2.2,0.1
		c0.1,0.1,0.3-0.1,0.5-0.1l0,0c0.5,0.1,1,0.6,1.6,0.4l0,0c0,0.1,0.1,0.2,0.1,0.4c0.1-0.3,0.1-0.4,0.1-0.4c0,0,0,0,0,0
		c0.2,0.1,0.4,0.2,0.6,0.4c0.2-0.3,0.5-0.6,1-0.3c-0.1-0.3-0.2-0.5-0.3-0.7c0,0,0.1-0.1,0.1-0.1c0.3,0.4,0.7,0.7,1,1.1
		c0.4-0.1,0.7-0.2,1.1-0.3c-0.2-0.1-0.3-0.2-0.5-0.2c0.3-0.1,0.5-0.2,0.8-0.3c0.9,0.2,1.8,0.4,2.8,0.6c0,0.1,0,0.1,0,0.2
		c-0.2,0.1-0.3,0.1-0.6,0.2c0.3,0.3,0.6,0.5,0.9,0.7c0.2-0.1,0.3-0.3,0.5-0.4c0,0,0,0,0,0c0.2,0.1,0.5,0.2,0.8,0.3
		c0-0.3-0.1-0.4-0.1-0.5l0,0c0.6-0.3,0.7,0.1,0.8,0.5c0.7,0.3,1.2,0.6,1.8,0.7c0.3,0.1,0.7-0.1,1.1-0.2c0,0.1,0,0.2,0,0.3
		c0,0,0,0-0.1,0.1c0,0,0-0.1,0-0.1c0.3,0,0.6-0.1,0.9-0.1c1.4,0.7,2.8,1.2,4.5,1.3c0.1-0.2,0.1-0.4,0.2-0.8c0.1,0.2,0.2,0.3,0.3,0.5
		c0,0,0,0,0,0c-0.1,0.1-0.1,0.2-0.2,0.4c0.4,0,0.7,0,0.9,0c0,0,0,0,0,0c-0.1,0.1-0.2,0.3-0.5,0.6c0.4-0.1,0.6-0.2,0.9-0.2
		c0,0.1,0.1,0.2,0.1,0.3c0,0,0,0-0.1,0.1c0,0,0,0,0-0.1c0.1,0,0.2,0,0.2,0c0,0,0,0,0.1,0.1c0,0-0.1,0-0.1,0c0.2,0,0.4-0.1,0.6-0.1
		c0.4,0,0.8,0.1,1.2,0.1l0,0c0.4,0.6,1,0.5,1.6,0.5l0,0c0.4,0.5,0.9,0.4,1.5,0.5c-0.1-0.2-0.2-0.3-0.3-0.6c0.4,0.1,0.7,0.2,1,0.3
		l0,0c-0.1,0.1-0.2,0.1-0.3,0.2c0.2,0.3,0.3,0.5,0.5,0.8c0.6-0.4,1,0.1,1.4,0.3c0.5,0.2,1,0.2,1.8,0.2c-0.4-0.3-0.7-0.5-0.9-0.7
		c0,0,0-0.1,0-0.1c0.9,0.3,1.8,0.6,2.9,0.9c-0.2,0.2-0.3,0.3-0.5,0.4c0.3,0.5,0.8,0.6,1.3,0.8c0.7,0.3,1.4,0.5,2,0.9
		c0.4,0.2,0.4,0.2,1.1,0c-0.2-0.2-0.3-0.4-0.5-0.7c0,0,0,0,0,0c1.6,0.4,3.9,1.5,4.8,2.4c-1.1-0.4-2.2-0.7-3.3-1.1c0-0.1,0-0.2,0-0.2
		c0,0,0,0,0.1,0c0,0,0,0,0,0.1c0,0-0.1,0-0.1,0.1c0,0.1,0,0.1,0.1,0.1c0.1,0.1,0.2,0.3,0.3,0.3c1.1,0.6,2.2,1.1,3.3,1.7
		c0.6,0.3,1.1,0.4,1.7,0.4l0,0c0.5,0.7,1-0.1,1.6,0.1c-0.1,0.2-0.2,0.3-0.3,0.6c0.2,0.1,0.5,0.2,0.7,0.3c0,0.4-0.1,0.7-0.1,0.9
		c0,0.1-0.1,0.1-0.1,0.2c-1.3,0.5-2.5,0.9-3.9,0.2c-1.8-0.8-3.6-1.4-5.5-2.1c-1.4-0.5-2.8-1.1-4.3-1.6c-1.1-0.4-2.3-0.6-3.4-0.9
		c-1.5-0.4-2.9-0.9-4.4-1.3c-2.2-0.6-4.4-1.1-6.6-1.6c-2.8-0.6-5.5-1.2-8.3-1.7c-0.9-0.2-1.9-0.3-2.8-0.4c-2.8-0.2-5.6-0.9-8.4-1.2
		c-2-0.2-4-0.2-6-0.5c-1.3-0.2-2.5-0.3-3.8-0.4c-2-0.1-4-0.2-6-0.2c-2.5-0.1-5-0.2-7.5-0.2c-3.5,0-7,0.2-10.6,0.3
		c-1,0-2,0.1-2.9,0.2c-1.3,0.2-2.4,0-3.2-1.1c-2.4,0.3-4.6,0.9-6.7,1.9c-1.9,0.9-3.9,1.9-5.5,3.3c-1.2,1-2.2,0.7-2.7-0.8
		c-0.3-0.9-0.6-1.8-0.9-2.7c0.6-0.7,1.1-1.4,1.8-2.2c-0.9-0.1-1.5,0.2-2.1,0.4c-1,0.3-1.9,0.8-2.8,1.2c-3.4,1.4-6.4,3.8-9.7,5.4
		c-0.3,0.1-0.6,0.3-0.9,0.4c-1.9-0.9-1.9-2.9-2.6-4.6c-1,0.2-2.1,0.5-3.1,0.8c-0.1,0-0.3,0.1-0.4,0.1c-1.4,0-1.8,1-2.1,2.1
		c-0.5,1.5-1.2,2.8-2.1,4c-0.4,0.5-0.7,1.1-1.1,1.6c-0.6,0.9-1.1,1.9-1.7,2.8c-0.6,0.9-1.1,1.8-1.9,2.5c-0.2,0.2-0.4,0.4-0.6,0.6
		c-1.1,1.3-2.5,2.3-3.7,3.4c-0.8,0.7-1.6,1.6-2.5,2.3c-1.2,0.9-2.5,1.8-3.8,2.5c-1.9,1-3.8,1.9-5.5,3.2c-0.6,0.5-1.4,0.8-2.1,1.2
		c-1.2,0.7-2.4,1.4-3.7,2.1c-1.5,0.8-2.8,1.8-4.4,2.3c-0.9,0.3-1.7,0.8-2.5,1.3c-0.6,0.3-1.2,0.7-1.8,1c-0.8,0.5-1.4,0.5-2-0.3
		c-0.3-0.5-0.6-1-0.9-1.5c-1-1.5-0.4-3,0.1-4.5c0.4-1.2,1-2.3,1.5-3.5c0.8-1.8,1.7-3.5,2.9-5c0.4-1.5,1.8-2.1,2.9-2.9
		c0.2-0.2,0.5-0.5,0.8,0.1c0,0.1,0.3,0.1,0.3,0.1c0.5-0.6,1.3-0.3,1.9-0.9c-0.1-0.3-0.1-0.6-0.2-1c0.2-0.1,0.4-0.2,0.6-0.4
		c0.2,0.1,0.3,0.2,0.5,0.3c0.1-0.3,0.1-0.7,0.2-1.1c0.3,0.3,0.5,0.5,0.8,0.7c0.4-0.5-0.2-0.6-0.3-0.9c0.6-0.6,1.1-1.5,2-1.8
		c0.5-0.2,0.9-0.8,1.4-1.1c0.4-0.3,1-0.5,1.4-0.7l0,0c0.1,0.1,0.2,0.1,0.2,0.2c0.1,0,0.1,0.1,0.2,0.1c0.5-0.3,0.9-0.6,1.1-1.1
		c-0.3,0.2-0.6,0.3-0.9,0.5c-0.1,0-0.2-0.1-0.4-0.1l0,0c0-0.1-0.1-0.3-0.1-0.4c0.9-0.5,1.7-0.9,2.5-1.4l0,0c0.1,0.2,0.1,0.3,0.2,0.5
		c0,0.1,0,0.1,0,0.2c0,0,0,0,0,0.1c0,0,0,0,0-0.1c0.2,0,0.3,0.1,0.5,0.1c0-0.1,0-0.1,0-0.2c-0.2,0-0.4,0-0.5-0.1
		c0.1-0.2,0.4-0.4,0-0.7l0,0c0.4-0.2,0.8-0.4,1.1-0.8c0.1-0.3,0.6-0.4,0.9-0.6c0.3-0.2,0.6-0.3,1.1-0.6c-2-0.7-2.8-2.3-3.5-4
		c-0.3,0.1-0.5,0.1-0.7,0.2c-1.2,0.9-2.6,1.5-3.9,2.3c-1,0.6-2,1.3-3,1.9c-1.6,0.9-3.2,1.9-4.9,2.5c-0.3,0.1-0.5,0.3-0.7,0.4
		c-1.3,0.8-2.5,1-3.4-1c-0.2-0.4-0.3-0.7-0.6-1.1c-0.3-0.6-0.3-1,0-1.6c1-1.6,2.5-2.8,4-3.9c0.9-0.7,1.8-1.4,2.8-2.1
		c1.2-0.9,2.4-1.8,3.7-2.6c0.4-0.2,0.9-0.2,1.3-0.3c0.6,0.7,1.1,1.3,1.7,2c0.3-0.1,0.6-0.2,0.9-0.4c1.1-0.7,2.4-1.1,3.3-2
		c0.4-0.4,1.2-0.2,1.6,0.2c0.1,0.1,0.1,0.2,0.2,0.2c1.7,0.7,1.6,2.3,1.8,3.8c0.8,0.5,1.7,0,2.5,0c0,0,0,0,0.1,0.1c0,0-0.1,0-0.1,0
		c0.6-0.2,1.2-0.4,1.7-0.6c0.5-0.2,0.9-0.4,1.4-0.6c1.1-0.4,2.1-0.9,3.1-1.4c1.7-0.8,3.4-1.6,5.1-2.4c0.8-0.4,1.5-1,2.5-0.9
		c1,0.6,1.5,1.6,2.2,2.6c0.7-0.1,1.4-0.1,2.1-0.2c0,0,0,0.1,0,0.1l-0.1,0c0.5-0.2,1-0.6,1.6-0.2c0,0,0,0-0.1,0c0,0,0,0,0-0.1
		c2-1.1,3.4-1.3,5.5,2.2c1.8-0.8,3.7-1.6,5.4-2.3c0.5,0.2,0.4,0.4,0.3,0.7c-0.2,0.1-0.3,0.1-0.5,0.2c0,0,0,0-0.1,0.1c0,0,0,0,0-0.1
		c0.1-0.1,0.3-0.1,0.4-0.2c0.2,0,0.4-0.1,0.6-0.1c-0.1-0.3-0.2-0.5-0.3-0.8c0.6-0.3,1.2-0.6,1.8-0.9c1.1-0.6,2.3-1.1,3.5-1.4
		c0.2-0.1,0.5-0.2,0.7-0.2c0.8,0,1.4-0.4,2.1-0.7c1.1-0.5,1.8-0.4,2.7,0.4c0.9,0.8,1.3,1.8,1.6,3c0.2,0,0.5,0,0.7-0.1
		c1.3-0.5,2.8-0.7,4-1.4c0.1-0.1,0.3,0,0.5,0.1c0,0,0,0-0.1,0c0,0,0,0,0-0.1c0.2-0.1,0.4-0.3,0.7-0.4c0,0,0,0,0,0
		c0.1,0.1,0.2,0.2,0.3,0.2c1.1-0.4,2.3-0.9,3.6-1.4c0.4,0.3,0.8,0.7,1.3,1c1,0.5,2.1,0.4,3.1,0.4c0.8,0,1.6-0.2,2.4,0
		c0.8,0.2,1.6,0.1,2.4-0.1c0.3,0.2,0.6,0.4,0.9,0.6c0.1,0,0.2-0.2,0.3-0.3l0,0c0.2,0.1,0.4,0.1,0.7,0.2c0.6-0.5,1.4-0.7,2.2-0.4
		c0.1,0.2,0.3,0.4,0.5,0.8c0.1-0.4,0.2-0.6,0.3-0.9c0.3,0.1,0.7,0.1,1.1,0.2c0,0,0,0,0,0.1c0,0,0-0.1,0-0.1c0.4-0.2,0.8-0.2,1.2,0.1
		c0.1,0,0,0.2,0.1,0.4c0.7-0.2,1.5,0.3,2.2-0.2l0,0c0.2,0.2,0.3,0.6,0.7,0.2l0,0c0.2,0.1,0.5,0.2,0.8,0.3c0.2-0.2,0.5-0.3,0.8-0.5
		c-0.4-0.3-0.9,0.2-1.3-0.3c1.1-0.3,1.9-0.1,2.8,0.4c0.4-0.2,0.9-0.3,1.3-0.5c0,0.1,0.1,0.1,0.1,0.2c-0.1,0.1-0.2,0.2-0.3,0.3
		c0.3,0,0.5,0.1,0.7,0.1c0,0,0,0,0,0c0,0.1,0,0.2,0,0.2c0,0-0.1,0-0.1,0c0,0,0,0,0.1-0.1c0.3,0,0.6,0,0.9,0c0,0,0,0,0.1,0.1
		c0,0-0.1,0-0.1,0c0-0.1,0-0.2,0.1-0.2c0.7-0.1,1.4-0.3,2.2-0.4c0.2,0,0.5,0.1,0.8,0.2c-0.1,0.2-0.1,0.3-0.1,0.4c0,0,0,0-0.1,0.1
		c0,0,0-0.1,0-0.1c0.2,0,0.3,0.6,0.7,0.2c0,0,0,0,0,0c0.4-0.2,0.8-0.3,1.2-0.5c0.9,0.6,1,0.6,1.8-0.2c0.2,0.1,0.4,0.1,0.6,0.2l0,0
		c0.1,0.1,0.2,0.2,0.2,0.2c0,0,0,0,0,0c0,0.1,0,0.1-0.1,0.3c0.1,0,0.1,0.1,0.2,0.1c0.1,0,0.2,0,0.4,0c0.1,0.1,0.1,0.2,0.2,0.4
		c0.1,0.1,0.1,0.2,0.2,0.4c0.2-0.1,0.5-0.2,0.7-0.2l0,0c0.6,0,1-0.4,1.3-0.8C214.6,34.1,215,34.1,215.3,34.2L215.3,34.2z
		 M116.3,49.1C116.3,49.1,116.3,49.1,116.3,49.1C116.3,49.1,116.3,49.1,116.3,49.1L116.3,49.1L116.3,49.1z M115.2,50.2
		c0.1,0,0.1,0,0.2,0c0.1-0.1,0.1-0.3,0.2-0.4c0,0-0.1,0-0.1-0.1c-0.1,0.1-0.2,0.2-0.2,0.3c0,0-0.1,0.1-0.1,0.1
		C115.2,50.1,115.2,50.1,115.2,50.2z M104.3,61.1C104.3,61.1,104.2,61.2,104.3,61.1C104.2,61.2,104.3,61.1,104.3,61.1
		C104.3,61.1,104.3,61.1,104.3,61.1C104.3,61.1,104.3,61.1,104.3,61.1z M104.1,68.8L104.1,68.8L104.1,68.8
		C104.1,68.8,104.1,68.7,104.1,68.8C104.1,68.8,104.1,68.8,104.1,68.8z M122.7,57.8c-0.1,0-0.2,0-0.2,0c-0.1-0.3,0-0.4,0.2-0.5
		c0.6-0.4,1.3-0.8,1.9-1.3c0.7-0.6,1.3-1.4,2.1-1.9c2-1.3,3.4-3.1,4.9-4.9c0.9-1.1,1.7-2.3,2.5-3.4c0.8-1.1,1.3-2.3,1.9-3.8
		c-1.5,0.6-2.8,1.2-4.1,1.7c-1.2,0.5-2.3,1.2-3.5,1.5c-1.5,0.4-2.8,1.1-3.9,2c-0.3,0.2-0.6,0.4-0.9,0.6c-0.3,0.2-0.7,0.4-1,0.6
		c-0.6,0.4-1.1,0.8-1.7,1.1c-0.4,0.2-0.7,0.5-1,0.8c-0.7,0.5-1.3,1.2-2.1,1.6c-1,0.4-1.8,1.1-2.7,1.7c-1.1,0.8-2.1,1.6-3.2,2.4
		c-0.9,0.6-1.9,1.1-2.6,1.9c-2.4,2.4-4.2,5.2-5.4,8.4c-0.2,0.5-0.6,1-0.3,1.7c0.2,0,0.5,0,0.6-0.1c0.4-0.2,0.8-0.5,1.2-0.7
		c1-0.4,2-0.8,3-1.2c0.2-0.1,0.4-0.1,0.5-0.3c0.9-1.1,2.3-1.7,3.5-2.3c1.3-0.6,2.4-1.3,3.6-2.1c1.5-0.9,3.2-1.4,4.5-2.6
		c0.1-0.1,0.3-0.1,0.4-0.2c0.4-0.2,0.7-0.4,1.1-0.5c0.3-0.1,0.6-0.3,0.9-0.4C122.5,57.8,122.6,57.8,122.7,57.8c0.1,0,0.2,0,0.2,0
		c0,0.1,0,0.2,0,0.1c0.1,0.1,0,0,0,0C122.8,57.8,122.8,57.8,122.7,57.8z M104.1,60.7c-0.1,0.1-0.1,0.1-0.2,0.2c0,0,0,0,0,0.1
		c0,0,0-0.1,0-0.1C103.9,60.8,104,60.7,104.1,60.7C104.1,60.6,104.1,60.6,104.1,60.7C104.1,60.6,104.1,60.7,104.1,60.7z M156.6,36.2
		L156.6,36.2C156.6,36.2,156.6,36.1,156.6,36.2C156.6,36.1,156.6,36.1,156.6,36.2z M228.7,35.9C228.8,35.9,228.8,36,228.7,35.9
		C228.8,36,228.7,36,228.7,35.9c-0.1,0-0.2,0-0.4,0c0,0.1,0,0.1,0,0.2C228.5,36,228.6,35.9,228.7,35.9z M112.8,51.9
		c-0.1,0.1-0.2,0.1-0.3,0.2c0,0,0,0,0.1,0.1C112.7,52.1,112.8,52,112.8,51.9C112.8,51.9,112.9,51.9,112.8,51.9
		C112.9,51.9,112.8,51.9,112.8,51.9z M191.3,33.7C191.2,33.7,191.2,33.7,191.3,33.7C191.2,33.7,191.3,33.7,191.3,33.7
		c0.4,0.2,0.4,0.2,0.5-0.2C191.6,33.6,191.4,33.7,191.3,33.7z M205.3,33.9c0.1,0.1,0.3,0.2,0.4,0.3c0.2-0.1,0.5-0.3,0.8-0.4
		C206,33.7,205.6,33.6,205.3,33.9C205.2,34,205.2,34.1,205.3,33.9C205.2,34.1,205.3,34,205.3,33.9z M252.1,41.8c0,0.1,0,0.2,0,0.3
		c0.2,0,0.4,0,0.5,0c0-0.1,0-0.1,0-0.2C252.5,41.8,252.3,41.8,252.1,41.8z M123.2,44.4c-0.1,0-0.1,0-0.2-0.1c0,0-0.1,0.1-0.1,0.1
		c0,0,0.1,0.1,0.1,0.1C123.2,44.5,123.2,44.5,123.2,44.4z M111.1,65c-0.1,0-0.1-0.1-0.2-0.1c0,0-0.1,0.1-0.1,0.1
		c0,0.1,0.1,0.1,0.1,0.1C111,65.1,111.1,65,111.1,65z M116.7,62.1c0-0.1,0-0.1-0.1-0.2c-0.1,0-0.1,0-0.2,0.1c0,0,0,0.1,0,0.2
		C116.6,62.1,116.7,62.1,116.7,62.1z M200.5,33.6c0,0-0.1,0.1-0.1,0.1c0,0,0,0.1,0,0.1C200.4,33.7,200.5,33.7,200.5,33.6
		C200.5,33.7,200.5,33.6,200.5,33.6z M241.2,39.3C241.2,39.3,241.2,39.3,241.2,39.3c0.1,0.1,0.2,0.1,0.3,0.1c0,0,0-0.1,0-0.1
		C241.4,39.3,241.3,39.3,241.2,39.3z M194.9,33.6C194.9,33.6,194.9,33.7,194.9,33.6c0,0.1,0.1,0.1,0.1,0.1
		C195,33.6,195,33.6,194.9,33.6C195,33.6,194.9,33.6,194.9,33.6z M252.7,42.4C252.7,42.5,252.7,42.5,252.7,42.4
		C252.7,42.5,252.7,42.5,252.7,42.4C252.7,42.5,252.7,42.4,252.7,42.4z M114.6,51.2C114.6,51.2,114.6,51.2,114.6,51.2
		C114.6,51.1,114.6,51.1,114.6,51.2C114.6,51.1,114.5,51.1,114.6,51.2C114.5,51.2,114.5,51.2,114.6,51.2z M201.4,34
		C201.3,34,201.3,34,201.4,34c-0.1,0.1,0,0.1,0,0.1C201.4,34.1,201.4,34.1,201.4,34C201.4,34,201.4,34,201.4,34z M210.7,33.9
		c0,0,0,0.1,0,0.1C210.7,34,210.7,34,210.7,33.9C210.7,33.9,210.7,33.9,210.7,33.9z M113.1,63.9C113.1,63.9,113.1,63.8,113.1,63.9
		c0-0.1-0.1-0.1-0.1-0.1C113,63.8,113,63.9,113.1,63.9C113.1,63.9,113.1,63.9,113.1,63.9z M102,63.7C101.9,63.7,101.9,63.8,102,63.7
		c0,0.1,0,0.1,0,0.1C102,63.8,102,63.8,102,63.7C102,63.7,102,63.7,102,63.7z M109.2,65.9L109.2,65.9L109.2,65.9L109.2,65.9z
		 M103.1,61.2c0-0.1,0-0.1,0-0.1c0,0-0.1,0-0.1,0C103,61.1,103.1,61.1,103.1,61.2z M118.8,47.8L118.8,47.8L118.8,47.8L118.8,47.8z"
		/>
	<path d="M25.6,48.4c0.1-0.2,0.3-0.3,0.5-0.5c0.1,0,0.2,0.1,0.3,0.1c0.5-0.4,0.8-0.7,1.2-0.9c1-0.5,2-1,3-1.5
		c0.8-0.4,1.7-0.7,2.7-1.2c0.3-0.6,1.1-0.9,1.8-1.3c0.8-0.5,1.8-0.8,2.5-1.6c0.3-0.3,0.7-0.5,1.1-0.7c1.4-0.8,2.9-1.4,4-2.4
		c1.7-1.4,3.4-2.7,5-4.2c1.5-1.4,2.9-2.9,3.9-4.7c0.2-0.3,0.4-0.6,0.6-0.9c0.4-0.8,0.2-1.3-0.6-1.6c-0.5-0.2-1-0.4-1.5-0.7
		c-0.3-0.2-0.5-0.4-0.7-0.7c-0.3-0.4-0.6-0.9-0.8-1.4c-0.2-0.4-0.3-0.8-0.5-1.3c-0.7,0.3-1.5,0.7-2.3,1c-1.4,0.6-2.8,1.1-4.1,1.7
		c-2.8,1.3-5.5,2.6-8.2,4.1c-2,1.2-4.1,2.2-6.1,3.4c-1.1,0.7-2.1,1.6-3.3,2.2c-1.2,0.6-2.2,1.6-3.6,2c-0.6,0.2-1.1,0.5-1.6,0.9
		c-1.9,1.2-4,2.2-5.7,3.8c-0.8,0-1.6-0.2-2.2-0.9c-0.6-0.7-1.1-1.4-1.3-2.3c0.1-0.7,0.5-1.2,1.2-1.5c1.3-0.7,2.6-1.4,3.9-2.2
		c0.8-0.5,1.7-1,2.6-1.3c0.5-0.2,1-0.6,1.5-0.9c2.2-1.3,4.5-2.6,6.7-3.9c1.6-1,3.2-2,4.8-2.9c0.2-0.1,0.5-0.1,0.9-0.2
		c0.3-0.5,0.7-1,1.5-0.7c0.1-0.2,0.1-0.4,0.1-0.4c1-0.7,1.8-1.4,2.7-2c0.4-0.3,0.8-0.5,1.4-0.8c0.2-1.1,1.9-0.7,2.5-2.1
		c-0.8,0.3-1.5,0.5-2.1,0.7c-1.6,0.6-3.2,1.1-4.8,1.7c-0.4,0.1-0.8,0.3-1.2,0.4c-2.7,0.9-5.4,1.9-8.1,2.8c-1.3,0.5-2.7,0.9-4,1.4
		c-1,0.4-2.1,0.4-3-0.2c-0.2-0.1-0.3-0.2-0.4-0.3c-0.3-0.3-0.7-0.6-1-0.8c-0.4-0.3-0.7-0.7-1-0.9c0-0.2,0-0.3,0-0.4
		c0.3-1.4,1.1-1.8,2.5-1.8c1.6-0.1,3.2-0.7,4.8-1.1c1.4-0.4,2.8-0.7,4.2-1.1c1.2-0.4,2.4-0.8,3.6-1.2c1.3-0.4,2.6-0.7,3.9-1.1
		c0.1,0,0.2,0,0.3-0.1c1-0.7,2.2-1,3.3-1.3c0.5-0.2,1-0.3,1.5-0.4c0.4-0.1,0.8,0,1-0.5c0,0,0.3,0,0.5,0.1c0,0.2,0,0.3,0.1,0.5
		c0,0,0.1,0,0.1-0.1c-0.1-0.1-0.2-0.3-0.2-0.4c0.5-0.3,1-0.8,1.6-0.9c1.3-0.4,2.5-1,3.9-1.2c0.8-0.1,1.6-0.5,2.3-1
		c0.3-0.2,0.6-0.3,0.9-0.4c0.5-0.2,1-0.3,1.6-0.4c0,0,0,0,0.1,0.1c0,0-0.1,0-0.1,0c0.4-0.1,0.7-0.3,1.1-0.4c0.1,0,0.1,0.1,0.1,0
		c0.1,0,0,0-0.1,0c0.7-0.4,1.4-0.8,2.2-1.3c0.7,0.4,1.4,0.8,2.3,1.2c0.3,0.8,0.6,1.7,0.9,2.7c-0.4,0.5-0.7,0.9-1.1,1.4
		c0.1,0.1,0.3,0.3,0.4,0.4c0.2-0.2,0.4-0.3,0.5-0.4l0,0c0,0,0.7-0.1,0.9-0.1c-0.1,0.3-0.2,0.5-0.3,0.9c0.3-0.4,0.6-0.6,0.8-0.8
		c0,0,0,0,0,0.1c0,0,0,0-0.1,0c0.2-0.1,0.5-0.2,0.8-0.3c0.2-0.4,0.2-0.4,0.9-0.4c0-0.2,0-0.3,0-0.5c0.2-0.1,0.7,0.2,0.7-0.3
		c0,0,0,0,0,0c0.1,0,0.2,0,0.2,0c0,0,0,0,0,0c0.1-0.6,0.5-0.4,0.8-0.4c-0.1,0.3-0.1,0.6-0.2,1.1c0.3-0.2,0.4-0.3,0.6-0.5
		c0.3,0.3,0.7,0.3,1.1-0.4c0-0.1-0.5-0.4-0.1-0.7c0,0,0,0,0.1,0.1c0,0-0.1,0-0.1,0c0.3-0.6,0.8-0.7,1.4-0.7c0.6,0,1.1-0.2,1.3-0.7
		c1-0.1,1.8-0.7,2.8-0.7c0.1,0,0.3-0.1,0.4-0.2c0.6-0.6,1.4-0.8,2.1-1c0.9-0.3,1.8-0.7,2.7-1c0.3-0.1,0.7-0.2,1-0.3
		c2.3,1,2.9,2.2,2.3,4.3c-0.5,0.2-1,0.5-1.5,0.8c-0.8,0.4-1.6,0.8-2.4,1.2c-1.5,0.8-3.1,1.5-4.6,2.2c-1.4,0.7-2.7,1.4-4.1,2
		c-1.6,0.8-3.3,1.4-4.9,2.3c-1.2,0.7-2.5,1.2-3.7,1.9c-0.3,0.2-0.6,0.4-0.9,0.7c0.4,0.6,0.8,1.2,1.3,1.7c0.6,0.7,0.8,1.5,0.9,2.4
		c0.1,1.4,0,2.6-1.1,3.7c-0.9,0.9-1.4,2-2.3,2.9c-1.7,1.7-3.2,3.5-5.2,4.9c-2.7,1.9-5.3,4-8.1,5.8c-1.1,0.7-2.4,1.3-3.5,1.9
		c-1.4,0.7-2.7,1.5-4.1,2.2c-1.9,1-3.9,1.9-5.8,2.9c-1.1,0.5-2.1,1.1-3.2,1.6c-1.3,0.6-2.6,1.2-3.9,1.6c-2,0.7-4.1,1.4-6.1,2
		c-2.4,0.7-5,1.2-7.5,1.4c-0.4,0-0.7,0.1-1.1,0.2c-0.8,0.3-1.4,0-2-0.5c-0.7-0.7-1.5-1.4-2.2-2.1c0.2-0.3,0.4-0.6,0.6-0.8
		c0.2-0.3,0.5-0.5,0.6-0.7c0.8,0,1.5-0.1,2.2,0c1.9,0.3,3.7,0,5.5-0.5c2-0.5,4-1.2,5.9-1.9c1.4-0.6,2.8-1.1,4.4-1.5
		c0.4-0.1,0.8-0.4,1.2-0.7c0.7-0.6,1.4-0.9,2.2-1.2c0.9-0.4,1.9-0.7,2.7-1.2l0,0c0.1,0.1,0.2,0.2,0.2,0.2l0,0
		C25.5,48.4,25.6,48.4,25.6,48.4L25.6,48.4z M45.3,14C45.4,14,45.4,13.9,45.3,14C45.4,14,45.4,14,45.3,14L45.3,14L45.3,14z
		 M25.4,49.1C25.4,49.1,25.4,49,25.4,49.1C25.4,49,25.4,49,25.4,49.1L25.4,49.1L25.4,49.1z M38.1,16.6c0.1,0,0.2,0.1,0.3,0.1
		c0-0.1,0-0.1,0-0.2C38.3,16.6,38.2,16.6,38.1,16.6C38.1,16.7,38,16.8,38.1,16.6C38.1,16.8,38.1,16.7,38.1,16.6z M11.6,54.6
		c-0.1,0-0.2-0.1-0.5-0.1c0.1,0.2,0.1,0.3,0.2,0.6C11.5,54.8,11.5,54.7,11.6,54.6c0.1-0.1,0.3-0.2,0.5-0.3
		C11.7,54.1,11.7,54.3,11.6,54.6z M54.7,15.8c-1-0.3-1.6,0.5-2.4,0.9c0.2,0.3,0.3,0.4,0.5,0.6c0.1,0.5,0.3,0.3,0.5,0
		c-0.2,0-0.3,0-0.5,0c0.1-0.2,0.1-0.4,0.2-0.6c0.3,0.2,0.6,0.4,0.9-0.1c0.4,0.1,0.8,0.2,1.1,0.2C54.8,16.4,55.3,16,54.7,15.8z
		 M49.6,18.8c-0.1-0.1-0.1-0.1-0.2-0.2c-0.1,0.1-0.2,0.2-0.3,0.4c0,0,0.1,0.1,0.1,0.1C49.4,19,49.5,18.9,49.6,18.8z M52.5,17.9
		c0-0.1,0-0.1-0.1-0.2c-0.1,0.1-0.2,0.1-0.3,0.2C52.2,17.9,52.3,17.9,52.5,17.9z M48.7,19.3C48.7,19.3,48.7,19.3,48.7,19.3
		C48.6,19.4,48.6,19.4,48.7,19.3C48.6,19.4,48.7,19.4,48.7,19.3C48.7,19.4,48.7,19.4,48.7,19.3z M68.2,11.7
		C68.2,11.7,68.1,11.7,68.2,11.7c-0.1,0-0.1,0-0.1,0C68.1,11.7,68.1,11.8,68.2,11.7C68.2,11.7,68.2,11.7,68.2,11.7z M31.9,18.7
		L31.9,18.7L31.9,18.7L31.9,18.7z M33.2,18.4L33.2,18.4L33.2,18.4L33.2,18.4z M36.5,43.3C36.6,43.3,36.6,43.3,36.5,43.3
		c0.1,0,0.1,0,0.1,0C36.6,43.2,36.6,43.2,36.5,43.3C36.6,43.2,36.5,43.3,36.5,43.3z M47.9,19.6L47.9,19.6L47.9,19.6L47.9,19.6z
		 M13.3,53.9C13.3,53.9,13.3,53.9,13.3,53.9C13.2,53.9,13.2,53.9,13.3,53.9C13.2,54,13.3,53.9,13.3,53.9z M42.4,40.1L42.4,40.1
		L42.4,40.1L42.4,40.1z M17.4,52.4L17.4,52.4L17.4,52.4L17.4,52.4z M21.4,50.7L21.4,50.7L21.4,50.7L21.4,50.7z M41.1,15.3
		c0,0.1,0,0.1,0,0.2C41.1,15.4,41.1,15.3,41.1,15.3z M59.9,14.9c0-0.1,0-0.1,0-0.1c0,0-0.1,0-0.1,0C59.9,14.9,59.9,14.9,59.9,14.9z
		 M36.8,17L36.8,17L36.8,17L36.8,17z M28.6,47.7C28.5,47.7,28.5,47.7,28.6,47.7c0,0.1,0,0.1,0,0.1C28.6,47.8,28.6,47.7,28.6,47.7
		C28.6,47.7,28.6,47.7,28.6,47.7z M51.6,18L51.6,18L51.6,18L51.6,18z"/>
	<path d="M100.6,22.1c0.5-0.1,1-0.3,1.6-0.4c0.3-0.1,0.6-0.2,0.9-0.3c0.9-0.2,1.8-0.4,2.7-0.6c0,0,0.1,0,0.1,0
		c0.8,0.5,1.6,0.8,2.3,1.4c0.5,0.4,0.5,1,0.5,1.6c0,1.7-0.8,3.1-2.1,4.3c-1,0.9-1.9,1.8-2.9,2.6c-1.6,1.3-3.3,2.5-5,3.7
		c-2.2,1.6-4.5,3.1-6.7,4.8c-2.3,1.7-4.2,3.8-5.2,6.5c-0.1,0.4-0.1,0.8-0.2,1.4c1.5-0.6,2.7-1.4,3.9-2.1c1.2-0.7,2.4-1.5,3.6-2.2
		c0,0,0,0,0.1,0.1c0,0-0.1,0-0.1,0c0.3-0.2,0.7-0.4,1-0.6c0.1-0.1,0.2-0.1,0.3-0.1c0.5-0.9,1.6-1,2.2-1.7c0,0,0,0,0.1,0.1
		c0,0,0,0-0.1,0c0.7-0.5,1.4-1.1,2.2-1.5c0.9-0.5,1.6-1.2,2.4-1.8c0.8-0.6,1.6-1.4,2.5-1.9c0.7-0.4,1.2-1.1,2.1-1.2
		c0.2,0,0.3-0.2,0.5-0.4c0,0.2,0.1,0.3,0.1,0.5c0,0,0.1-0.1,0.1-0.1c-0.2-1.2,0.9-1.3,1.5-1.9c-0.1,0.1-0.1,0.3-0.2,0.4c0,0,0,0,0,0
		c0,0,0,0,0-0.1c0.5-0.1,0.7-0.5,0.9-0.9c0.4-0.7,0.4-0.7,1.3-0.8c0.3-0.7,0.8-1.1,1.6-1.2c0,0.1,0,0.2,0,0.1c0.1,0.1,0,0,0,0
		c-0.2-0.6,0.4-0.5,0.7-0.7c0.1,0.1,0.1,0.2,0.2,0.4c0,0,0.1-0.1,0.1-0.1c-0.1-0.1-0.2-0.2-0.3-0.2c0.8-0.7,1.7-1.4,2.7-2.4
		c-0.1,0.5-0.2,0.8-0.3,1.2c0.5-0.2,0.8-0.4,1.1-0.6l0,0.1c0,0-0.1-0.1-0.1-0.1c0.1-0.2,0.3-0.4,0.4-0.7c-0.1-0.1-0.3-0.2-0.4-0.3
		c0-0.1,0-0.1,0.1-0.2c0.3-0.1,0.7-0.1,1-0.2c0.3-0.1,0.5-0.2,1-0.3c-0.3-0.2-0.4-0.3-0.7-0.5c0.5-0.3,1-0.6,1.4-0.9
		c0,0,0,0,0.1,0.1c0,0-0.1,0-0.1,0c0.1-0.2,0.2-0.5,0.4-0.6c0.8-0.6,1.6-1.1,2.5-1.6c0,0.3,0,0.6,0.4,0.7c0,0.1,0,0.2,0,0.3
		c-0.1,0.1-0.2,0.1-0.2,0.2c-0.1,0.1-0.1,0.1-0.2,0.2c-0.1,0-0.2,0-0.1,0c-0.1,0.1,0,0,0,0c0.1-0.1,0.1-0.1,0.2-0.2
		c0.1-0.1,0.2-0.1,0.2-0.2c0-0.1,0-0.1,0-0.2c-0.1-0.2-0.3-0.4-0.4-0.7c0.4-0.3,0.4-0.3,1.2-0.1c-0.1,0.1-0.3,0.3-0.4,0.4
		c0,0,0,0-0.1-0.1c0,0,0.1,0,0.1,0c0.2,0,0.4,0.1,0.4,0c0.2-0.4,0.5-0.8,0.1-1.4c0.3,0.1,0.6,0.2,0.8,0.2c0,0.2,0,0.5,0,0.7
		c-0.1,0-0.2,0-0.1,0c-0.1,0,0,0,0.1,0c0.3-0.2,0.1-0.5,0-0.7c0.3-0.3,0.7-0.6,1-0.9c0.2-0.2,0.4-0.6,0.6-0.8l0,0
		c0.1-0.1,0.2-0.2,0.2-0.2l0,0c0.4,0,0.8-0.2,0.9,0.4c0,0,0,0-0.1,0.1c0,0,0-0.1,0-0.1c0.5-0.2,1.2-0.3,1.4-0.7
		c0.3-0.6,1-0.4,1.2-0.9l0,0c0.6-0.5,1.2-0.9,1.9-1.4c0-0.1,0-0.1-0.1-0.2c-0.3,0.1-0.6,0.2-0.9,0.3c0,0,0,0,0,0c-0.1,0-0.3,0-0.4,0
		c0,0,0,0,0-0.1c0,0,0,0,0.1,0c-0.2,0.9-1.2,1-1.8,1.5l0,0c-0.2-0.2-0.4-0.4-0.7-0.6c0.5-0.3,1-0.6,1.5-0.9c0.3-0.2,0.6-0.4,0.8-0.7
		c0.9-1.2,2.3-1.8,3.4-2.8c0.1,0.2,0.2,0.3,0.4,0.6c0.1-0.2,0.2-0.3,0.2-0.4l0,0c0.6-0.1,0.3-0.9,1-0.9c0.1,0.1,0.2,0.3,0.4,0.5
		c0,0.1,0,0.2,0,0.3c-0.1,0.1-0.1,0.1-0.2,0.2c0,0,0,0-0.1,0.1c0,0,0-0.1,0-0.1c0.1-0.1,0.2-0.1,0.2-0.2c0,0,0.1,0,0.1-0.1
		c0-0.1,0-0.1-0.1-0.2c0-0.3,0.1-0.5,0.4-0.7c0.3-0.1,0.5-0.3,0.7-0.4c0,0,0,0,0,0c0.2,0,0.3,0,0.5,0c0,0.1,0,0.2,0,0.3
		c0,0,0,0-0.1,0.1c0,0,0-0.1,0-0.1c0,0,0.1,0,0.1,0c0-0.1,0-0.1-0.1-0.2c0-0.5,0.1-0.9,0.7-1.1c0,0,0,0,0.1,0c0,0-0.1,0-0.1,0
		c0.3-0.5,0.7-0.2,1.1-0.2c-0.2,0.2-0.3,0.5-0.5,0.7c-0.4,0.1-0.8,0.2-0.7,0.8c0.6,0,0.7-0.4,0.7-0.9c0.2,0.1,0.3,0.1,0.5,0.2
		c0.3-0.2,0.5-0.4,0.7-0.6c0,0,0,0,0.1,0.1c0,0-0.1,0-0.1,0c-0.2-0.1-0.4-0.1-0.6-0.2c0.2-0.2,0.4-0.5,0.5-0.7
		c0.2-0.8,0.2-0.8,1-0.5c0.4-0.2,0.7-0.4,1.1-0.6c0,0,0.1,0.1,0.1,0.1c-0.5,0.4-0.9,0.8-1.4,1.2c0,0,0,0-0.1,0.1c0,0,0-0.1,0-0.1
		c0.2,0.1,0.5,0.3,0.7,0c0,0,0,0,0,0c0.6-0.4,1.1-0.8,1.7-1.3c-0.4-0.2-0.7-0.4-1.1-0.6c0.3-0.2,0.5-0.4,0.7-0.5c0,0.1,0,0.2,0,0.2
		c0,0,0,0-0.1,0.1c0,0,0-0.1,0-0.1c0,0,0.1,0,0.1-0.1c0-0.1,0-0.1-0.1-0.1c0.3-0.2,0.5-0.4,0.8-0.6c1.7-1,3.4-2,5.4-2.5
		c0,0,0,0,0.1,0.1c0,0,0,0-0.1,0c0.6-0.4,1.1-0.6,1.8-0.2l0,0c0.5,0.5,0.9,0,1.4-0.1c0.6-0.1,1.2-0.3,1.7-0.4c0,0.1,0,0.2,0,0.4
		c0.1,0,0.1,0,0.2,0c-0.1-0.1-0.1-0.2-0.2-0.3c0-0.2,0.1-0.3,0.2-0.6c-0.4,0.1-0.7,0.2-0.9,0.2c1.5-1,3-1.5,4.7-1.8l0,0
		c-0.2,0.2-0.4,0.4-0.7,0.6l0,0c-0.6-0.5-0.7,0.1-0.9,0.5c-0.1,0-0.2,0-0.4-0.1c0,0.1,0,0.1,0,0.2c0.1,0,0.2-0.1,0.4-0.1
		c1.1,0.1,2.1-0.3,2.9-1.1l0,0c0.2,0,0.3,0,0.5,0c0.1,0.3,0.2,0.4,0.5,0.1c-0.2,0-0.4,0-0.5-0.1c0.1-0.2,0.3-0.4,0.5-0.8
		c0.2,0.4,0.4,0.7,0.6,1c0.2-0.1,0.3-0.2,0.5-0.2c0,0,0,0,0,0c0,0,0,0-0.1,0c-0.2-0.2-0.3-0.4-0.6-0.7c0.3-0.1,0.6-0.2,0.9-0.3
		c2.3-0.3,4.5-0.7,6.8-1c0.3,0,0.6,0.1,1,0.1c0.4,0,0.8,0,1.2,0c0.2,0,0.5-0.1,0.7,0c1,0.5,2.1,0.1,3.1,0.4c1,0.3,2.1,0.3,3,1.1
		c0.3,0.3,0.8,0.3,1.2,0.5c0.7,0.4,1.2,1.1,1.6,1.8c0.8,1.1,1,2.3,1,3.5c-0.1,1.9-0.9,3.5-2.6,4.5c-1.4,0-1.5-1-1.8-2
		c0.8-0.8,1.4-1.8,1.4-3.1c-1.7-1.1-3.6-1.7-5.5-2c-1.3-0.2-2.6-0.3-3.9-0.2c-1.7,0-3.3,0.2-5,0.4c-1.9,0.3-3.8,0.7-5.6,1.2
		c-2.1,0.6-4.1,1.4-6.1,1.9c-1.5,0.4-3,0.9-4.4,1.7c-0.7,0.4-1.5,0.8-2.2,1.2c-2,1.2-3.9,2.4-5.9,3.6c-1.7,1-3.2,2.3-4.8,3.4
		c-1.3,0.9-2.5,2-3.8,3c-0.5,0.4-1.2,0.7-1.7,1.1c-0.5,0.3-1,0.7-1.4,1.1c-0.9,0.7-1.7,1.4-2.6,2c-2.4,1.8-4.8,3.6-7.1,5.4
		c-2.4,1.8-4.7,3.7-7,5.5c-2.3,1.8-4.5,3.5-6.8,5.2c-1.1,0.8-2.2,1.6-3.4,2.4c-1.2,0.9-2.4,1.7-3.7,2.6c-1,0.7-1.9,1.3-2.9,1.9
		c-1.9,1.1-3.7,2.2-5.6,3.3c-0.4,0.2-0.8,0.3-1.2,0.5c-2.8-0.7-3.9-3.2-3.7-5.7c0.2-2.2,1-4.2,2.2-6.1c0.7-1.1,1.6-2.1,2.6-3
		c0.8-0.7,1.6-1.5,2.5-2c0.7-0.4,1.2-1,1.8-1.4c0.7-0.5,1.4-1,2.1-1.5c0.7-0.5,1.4-1,2-1.5c0.1-0.1,0.3-0.2,0.5-0.2c0,0,0,0,0.1,0.1
		c0,0-0.1,0-0.1,0c1.8-1.2,3.4-2.7,5.1-4.1c0-0.1-0.1-0.1-0.1-0.2c-0.6,0.1-1.3,0.2-1.9,0.4c-1,0.3-2.1,0.7-3.1,1
		c-0.4,0.1-0.9,0.1-1.3,0.2c-1.1,0.3-2.1,0.6-3.1,0.8c-0.8,0.2-1.6,0.3-2.4,0.4c-1.5,0.1-2.6-0.9-3.2-2.2c-0.1-0.1-0.1-0.3-0.1-0.4
		c-0.5-1.6-0.5-2,0.9-2.9c1.6-1.1,3.2-2.2,4.8-3.3c2.2-1.5,4.5-3,6.6-4.8c0.4-0.4,1.1-0.4,1.5,0c0.5,0.4,1,0.8,1.4,1.2
		c0.2,0.2,0.3,0.6,0.4,0.9c0.1,0.2,0,0.4,0,0.7c0,0.4,0.1,0.9-0.1,1.2c-0.4,0.6-0.8,1.1-1.5,1.3c-0.3,0.1-0.7,0.2-1,0.4
		c-0.9,0.6-1.8,1.2-2.7,1.9c1.2-0.3,2.5-0.7,3.7-1l0,0C100.4,22.1,100.5,22.1,100.6,22.1C100.6,22.1,100.6,22.1,100.6,22.1z M115,28
		c-0.1,0.1-0.1,0.1-0.2,0.2c-0.1,0.1-0.3,0.1-0.4,0.2c0,0.1,0.1,0.1,0.1,0.2c0.1-0.1,0.2-0.2,0.3-0.3C114.9,28.2,114.9,28.1,115,28
		C115,28,115,28,115,28C115.1,28,115,28,115,28z M142.6,8.1C142.6,8.1,142.6,8.2,142.6,8.1C142.6,8.1,142.6,8.1,142.6,8.1
		C142.6,8.1,142.7,8,142.6,8.1C142.7,8,142.7,8.1,142.6,8.1z M108.4,34.2L108.4,34.2L108.4,34.2L108.4,34.2L108.4,34.2z M133.2,15.1
		C133.2,15.1,133.2,15.1,133.2,15.1C133.2,15.1,133.2,15.1,133.2,15.1C133.2,15.1,133.3,15.1,133.2,15.1
		C133.3,15.1,133.2,15.1,133.2,15.1z M121.4,23.4C121.3,23.4,121.3,23.4,121.4,23.4C121.3,23.4,121.4,23.4,121.4,23.4
		C121.4,23.4,121.4,23.5,121.4,23.4C121.4,23.5,121.4,23.5,121.4,23.4z M163.9,1.1L163.9,1.1C163.8,1.1,163.9,1.1,163.9,1.1
		C163.9,1.1,163.9,1,163.9,1.1c0-0.2,0-0.2,0-0.3l-0.1-0.1l0.1,0C163.9,0.9,163.9,1,163.9,1.1z M173.3,1.5L173.3,1.5
		C173.3,1.6,173.3,1.5,173.3,1.5C173.2,1.5,173.2,1.4,173.3,1.5C173.1,1.5,173.2,1.5,173.3,1.5z M143.9,8.1c0.2-0.1,0.4-0.3,0.7-0.4
		c0.2,0,0.4,0,0.8-0.1c-0.4-0.4-0.6-0.3-0.8,0.1C144.4,7.8,144.2,8,143.9,8.1C143.9,8.1,143.9,8.1,143.9,8.1
		C143.9,8.1,143.9,8.1,143.9,8.1z M133,14.5c-0.2,0.1-0.3,0.2-0.5,0.2c0,0.1,0.1,0.1,0.1,0.2C132.7,14.7,132.8,14.6,133,14.5
		c0.1-0.1,0.2-0.2,0.3-0.2c0,0-0.1-0.1-0.1-0.1C133.1,14.2,133.1,14.3,133,14.5z M143,9.3c0.2-0.2,0.3-0.4,0.3-0.5
		c0-0.1,0-0.2,0-0.4c-0.3,0.2-0.6,0.3-0.9,0.5C142.7,9,142.8,9,143,9.3z M136.8,13c-0.5-0.1-0.5-0.1-0.8,0.3
		C136.3,13.2,136.6,13.2,136.8,13z M134.3,14.7c-0.1-0.1-0.1-0.1-0.2-0.2c-0.1,0.1-0.2,0.3-0.4,0.4c0,0,0.1,0.1,0.1,0.1
		C134,14.9,134.1,14.8,134.3,14.7z M170.7,0.9c0-0.1,0-0.2,0-0.2c-0.1,0-0.2,0.1-0.3,0.1c0,0,0,0.2,0.1,0.2
		C170.5,1,170.6,0.9,170.7,0.9z M119.7,25.3c0-0.1,0.1-0.1,0.1-0.2c0,0-0.1-0.1-0.2-0.1c0,0.1-0.1,0.1-0.1,0.2
		C119.5,25.3,119.6,25.3,119.7,25.3z M110.3,31.5c-0.1,0-0.1,0-0.2,0c0,0.1,0,0.2,0,0.4c0.1,0,0.1,0,0.2,0
		C110.3,31.7,110.3,31.6,110.3,31.5z M134.6,14.2c0,0-0.1-0.1-0.1-0.1c0,0.1,0,0.1,0,0.2c0,0,0.1,0.1,0.1,0.1
		C134.6,14.3,134.6,14.2,134.6,14.2z M112.5,30.8c0,0.1-0.1,0.1-0.1,0.2c0,0,0.1,0.1,0.2,0.1c0-0.1,0.1-0.1,0.1-0.1
		C112.7,30.9,112.6,30.8,112.5,30.8z M131.9,16.4c0,0,0-0.1,0-0.1c-0.1,0-0.2,0-0.4,0c0,0,0,0.1,0,0.1
		C131.7,16.4,131.8,16.4,131.9,16.4z M120.7,23.9L120.7,23.9L120.7,23.9L120.7,23.9z M100.5,39.7C100.5,39.7,100.5,39.6,100.5,39.7
		C100.5,39.6,100.4,39.6,100.5,39.7C100.4,39.7,100.4,39.7,100.5,39.7z M175,2C175,2,175,1.9,175,2C174.9,1.9,174.9,2,175,2
		C174.9,2,175,2,175,2z M170,0.9C169.9,0.9,169.9,0.8,170,0.9c-0.1,0-0.1,0-0.1,0C169.9,0.9,169.9,0.9,170,0.9
		C169.9,0.9,170,0.9,170,0.9z M146.6,6.7L146.6,6.7L146.6,6.7L146.6,6.7z M121.7,22.9c0,0.1,0,0.1,0,0.2
		C121.7,23,121.7,23,121.7,22.9C121.7,23,121.7,22.9,121.7,22.9z M166,0.6C166,0.6,166,0.6,166,0.6C165.9,0.6,165.9,0.6,166,0.6
		C165.9,0.7,165.9,0.7,166,0.6C166,0.7,166,0.7,166,0.6z M139.7,9.8c0,0,0,0.1,0,0.1C139.7,9.9,139.7,9.8,139.7,9.8z M113.9,29
		C113.9,29,113.8,29,113.9,29c-0.1,0.1,0,0.1,0,0.1C113.9,29,114,29,113.9,29C114,29,113.9,29,113.9,29z M115.1,28.8
		C115,28.8,115,28.8,115.1,28.8C115,28.8,115,28.8,115.1,28.8C115,28.8,115.1,28.8,115.1,28.8C115.1,28.8,115.1,28.8,115.1,28.8z
		 M110.8,31.4C110.8,31.5,110.9,31.5,110.8,31.4c0.1,0,0.1,0,0.1,0C110.9,31.4,110.9,31.4,110.8,31.4
		C110.8,31.4,110.8,31.4,110.8,31.4z"/>
	<path d="M50.9,38.6c1.6,0.2,2.3,1.2,2.7,2.4c1.5-1.1,1.5-1.1,3.1-0.4c0.8,0.4,1.5,0.9,1.4,2c0,0.3,0.1,0.6,0.1,0.8
		c-0.3,1-0.6,2-1,3c0.6,0,1-0.4,1.4-0.7c1.1-0.8,2.1-1.6,3.2-2.4c0.9-0.7,2-0.9,3.2-0.7c-0.5-0.9-0.5-1.6,0.3-2.3
		c0.6,0.2,1.1,0.5,1.4,1c0.4,0.5,0.8,0.9,1.2,1.4c0.4,0.5,0.7,1,1,1.4c0.3,0.4,0.5,0.9,0.8,1.3c0.9,0.9,0.9,2.1,0.9,3.3
		c0,0.5-0.6,1-1.2,1c-0.3,0-0.7-0.1-1.1-0.1c-0.5-0.5-1-1.1-1.6-1.6c-0.5-0.6-1.3-0.7-2-0.9c-0.6-0.2-1.1,0.1-1.5,0.4
		c-0.9,0.6-1.8,1.3-2.7,1.9c-1.1,0.8-2.1,1.7-3.2,2.4c-1.4,0.9-2.3,1.2-3.9-0.6c-0.9-1.1-1.2-2.3-1-3.6c0-0.1,0-0.2,0-0.3
		c0-0.1,0-0.2,0-0.4c-0.7,0.4-1.3,0.8-1.9,1.1c-1.2,0.8-2.3,1.6-3.5,2.3c-1.3,0.8-2.6,1.6-3.9,2.4c-1.2,0.8-2.6,0.6-3.5-0.6
		c-0.5-0.6-0.8-1.2-1.3-1.8c-0.3-0.5-0.2-1,0-1.4c0.6-1.2,1.5-2.3,2.6-3.2c1.1-0.9,2.1-1.8,3.2-2.6c1.5-1.2,3.1-2.3,4.5-3.6
		C49.6,39,50.3,38.7,50.9,38.6z"/>
	<path d="M59.2,32.4c0.2-1.4,0.7-2,2-2c2.8,0,5.6,0.1,8.4,0.1c1.5,0,3-0.1,4.4-0.1c2.5,0,5,0.3,7.4,1.1c0.3,0.1,0.7,0.3,1,0.5
		c0.5,0.4,0.9,0.8,1.3,1.1c0.9,0.8,1.4,2.6,1,3.7c-0.1,0.4-0.6,0.6-1,0.5c-0.2,0-0.4-0.1-0.5-0.2c-0.7-1-1.9-1.1-2.9-1.5
		c-0.8-0.4-1.7-0.5-2.6-0.6C75.8,35,74,35,72.2,35c-1.6,0-3.1-0.1-4.7-0.1c-1.5,0-3.1,0-4.6,0.2c-1,0.1-1.8-0.4-2.4-1
		C60.1,33.6,59.7,33,59.2,32.4z"/>
	<path d="M257.2,43.3c-0.5-0.1-1-0.1-1.5-0.2c-0.4-0.1-0.7-0.4-1-0.7C255.7,42.5,256.5,42.8,257.2,43.3L257.2,43.3z"/>
	<path d="M222.2,35.3c-0.1-0.2-0.2-0.3-0.4-0.6c0.6,0.1,1.1,0.2,1.6,0.3c0,0,0,0.1,0,0.1C222.9,35.2,222.5,35.2,222.2,35.3
		C222.1,35.3,222.2,35.3,222.2,35.3z"/>
	<path d="M264,47.1c-0.1-0.2-0.2-0.4-0.4-0.6c0.4,0.1,0.6,0.2,1.1,0.4C264.4,47,264.2,47,264,47.1C264,47.1,264,47.1,264,47.1z"/>
	<path d="M223.8,34.9c0.3,0.1,0.6,0.1,1,0.2C224.2,35.2,224.2,35.2,223.8,34.9z"/>
	<path d="M246.3,40.1c0-0.1,0-0.3,0-0.5c0.3,0,0.6,0.1,1.1,0.1C246.8,39.9,246.5,40,246.3,40.1L246.3,40.1z"/>
	<path d="M242.3,39c0-0.1-0.1-0.2-0.1-0.4c0.2,0,0.3,0.1,0.6,0.1C242.5,38.9,242.4,38.9,242.3,39L242.3,39z"/>
	<path d="M128.4,18.4c-0.2,0.1-0.4,0.3-0.8,0.5c0.1-0.3,0.1-0.4,0.1-0.5c0,0,0,0,0,0C128,18.4,128.2,18.4,128.4,18.4L128.4,18.4z"/>
	<path d="M126,19.5c-0.2,0.1-0.3,0.1-0.5,0.2c0-0.1,0-0.1-0.1-0.2c0.2-0.1,0.3-0.1,0.5-0.2l0,0C126,19.3,126,19.4,126,19.5L126,19.5
		z"/>
	<path d="M249.8,40.8c0.2,0,0.3,0,0.5,0.1C250,41.2,249.9,40.9,249.8,40.8L249.8,40.8z"/>
	<path d="M244.7,39.7c-0.1-0.2-0.3-0.5,0.3-0.3C244.9,39.5,244.8,39.5,244.7,39.7C244.7,39.6,244.7,39.7,244.7,39.7z"/>
	<path d="M231.4,36.6c0.2-0.5,0.2-0.6,0.6-0.2c0,0,0,0,0,0C231.8,36.4,231.6,36.5,231.4,36.6L231.4,36.6z"/>
	<path d="M211.4,33.7c0.2,0,0.3,0,0.5,0c0,0,0,0.1,0,0.1c-0.2,0-0.3,0-0.5,0l0,0C211.4,33.9,211.4,33.8,211.4,33.7L211.4,33.7z"/>
	<path d="M213.2,34.2c0.1,0,0.2-0.1,0.3-0.1c0,0.1,0,0.1,0,0.2C213.4,34.2,213.3,34.2,213.2,34.2C213.2,34.1,213.2,34.2,213.2,34.2z
		"/>
	<path d="M248.4,40.3c0.1,0,0.3,0.1,0.4,0.1c0,0-0.1,0.1-0.1,0.1C248.6,40.5,248.5,40.4,248.4,40.3L248.4,40.3z"/>
	<path d="M239.2,37.9C239.1,37.9,239.1,37.9,239.2,37.9c-0.1,0-0.1,0-0.2-0.1c0,0,0,0,0.1-0.1C239.1,37.8,239.1,37.8,239.2,37.9z"/>
	<path d="M234.2,36.7c-0.1,0-0.2,0-0.3,0c0,0,0,0,0-0.1c0.1,0,0.2,0,0.3,0C234.2,36.7,234.2,36.7,234.2,36.7z"/>
	<path d="M151,4.3c-0.1,0-0.2,0-0.3,0c0-0.1,0.1-0.1,0.1-0.2C150.9,4.2,150.9,4.2,151,4.3z"/>
	<path d="M157.4,2.2c-0.1,0-0.1,0.1-0.2,0.1c0,0,0-0.1,0-0.1C157.3,2.2,157.4,2.1,157.4,2.2C157.4,2.1,157.4,2.2,157.4,2.2z"/>
	<path d="M213,34.6c0.1-0.1,0.1-0.3,0.2-0.4l0,0C213.1,34.3,213,34.4,213,34.6L213,34.6z"/>
	<path d="M116.8,48.4c0.1-0.1,0.1-0.3,0.2-0.4l0,0c0,0.2,0,0.3,0,0.5C116.9,48.4,116.8,48.4,116.8,48.4L116.8,48.4z"/>
	<path d="M158.2,2C158.1,1.9,158.1,1.8,158.2,2C158.1,1.8,158.1,1.9,158.2,2L158.2,2z"/>
	<path d="M189.5,33.5C189.4,33.5,189.3,33.5,189.5,33.5C189.4,33.4,189.4,33.5,189.5,33.5C189.5,33.5,189.5,33.5,189.5,33.5z"/>
	<path d="M56.1,15.6C56.1,15.5,56.1,15.4,56.1,15.6C56.2,15.4,56.1,15.5,56.1,15.6L56.1,15.6z"/>
	<path d="M263.3,46.5C263.3,46.5,263.2,46.5,263.3,46.5C263.2,46.5,263.2,46.4,263.3,46.5C263.3,46.4,263.3,46.5,263.3,46.5z"/>
	<path d="M238.5,37.9C238.5,37.9,238.4,37.9,238.5,37.9c-0.1-0.1-0.1-0.1,0-0.1C238.5,37.8,238.5,37.8,238.5,37.9
		C238.5,37.9,238.5,37.9,238.5,37.9z"/>
	<path d="M197.8,33.5c0.1-0.2,0.3-0.2,0.4,0l0,0C198.1,33.5,198,33.5,197.8,33.5C197.8,33.5,197.8,33.5,197.8,33.5z"/>
	<path d="M203.3,33.8C203.3,33.7,203.4,33.6,203.3,33.8C203.4,33.6,203.4,33.7,203.3,33.8C203.3,33.7,203.3,33.8,203.3,33.8z"/>
	<path d="M235.1,37C235.1,37,235,37,235.1,37C235,37,235,37,235.1,37C235.1,37,235.1,37,235.1,37z"/>
	<path d="M235.1,37C235.1,37,235.1,37,235.1,37C235.1,37,235.1,37,235.1,37L235.1,37z"/>
	<path d="M156.2,2.6C156.2,2.6,156.2,2.7,156.2,2.6C156.2,2.7,156.2,2.6,156.2,2.6C156.2,2.6,156.2,2.6,156.2,2.6z"/>
	<path d="M241.6,38.6c0,0,0.1,0,0.1,0C241.7,38.6,241.7,38.6,241.6,38.6L241.6,38.6z"/>
	<polygon points="243.9,39 243.8,38.9 243.8,39 	"/>
	<path d="M243.8,39C243.9,39,243.9,39,243.8,39C243.9,39,243.9,39,243.8,39L243.8,39z"/>
	<polygon points="156.9,2 156.9,1.9 156.9,2 	"/>
	<path d="M249.8,40.7C249.7,40.7,249.7,40.7,249.8,40.7C249.7,40.7,249.7,40.7,249.8,40.7L249.8,40.7z"/>
	<path d="M25.4,48.2c0.1,0.1,0.1,0.1,0.2,0.2l0,0c-0.1,0-0.2,0-0.3,0l0,0C25.4,48.3,25.4,48.3,25.4,48.2L25.4,48.2z"/>
	<path d="M25.2,48.2c0.1,0,0.1,0,0.2,0l0,0C25.3,48.2,25.3,48.2,25.2,48.2L25.2,48.2z"/>
	<path d="M119.4,46.2c0.1-0.1,0.2-0.2,0.2-0.2c0,0,0,0,0,0C119.5,46.1,119.5,46.1,119.4,46.2L119.4,46.2z"/>
	<path d="M126,19.3c0.1,0,0.1,0,0.2,0l0,0C126.1,19.3,126,19.3,126,19.3L126,19.3z"/>
	<polygon points="127.7,18.4 127.7,18.4 127.7,18.4 	"/>
	<path d="M129.7,18.2C129.7,18.2,129.7,18.1,129.7,18.2C129.6,18.1,129.7,18.2,129.7,18.2C129.7,18.2,129.7,18.2,129.7,18.2z"/>
	<path d="M100.3,22.1c0.1,0,0.1,0,0.2,0c0,0,0,0,0,0C100.5,22.1,100.4,22.1,100.3,22.1L100.3,22.1z"/>
	<polygon points="134.1,13.6 134,13.5 134.1,13.6 	"/>
	<polygon points="57.1,14.9 57.1,15 57.2,14.9 	"/>
	<polygon points="57.2,14.9 57.2,14.8 57.1,14.9 	"/>
	<polygon points="59.8,14 59.8,14 59.8,14 	"/>
	<path d="M130.6,16.9C130.6,16.9,130.6,16.9,130.6,16.9C130.6,16.9,130.6,16.9,130.6,16.9C130.6,16.8,130.6,16.9,130.6,16.9z"/>
	<path d="M136.5,12C136.5,12,136.4,12,136.5,12C136.4,12,136.5,12,136.5,12C136.5,12.1,136.5,12,136.5,12z"/>
	<path d="M149.9,4.6C149.9,4.6,149.9,4.6,149.9,4.6C149.9,4.5,149.9,4.6,149.9,4.6C149.8,4.6,149.9,4.6,149.9,4.6z"/>
	<path d="M215.4,34.2C215.4,34.2,215.4,34.1,215.4,34.2C215.4,34.1,215.4,34.1,215.4,34.2C215.3,34.2,215.4,34.2,215.4,34.2z"/>
	<path d="M207.7,34.2C207.7,34.2,207.7,34.1,207.7,34.2C207.7,34.1,207.7,34.2,207.7,34.2C207.7,34.2,207.7,34.2,207.7,34.2z"/>
	<path d="M223.7,35.7c0.1,0,0.1,0,0.2,0l0,0C223.8,35.7,223.8,35.7,223.7,35.7L223.7,35.7z"/>
	<path d="M219.1,35.3C219.1,35.2,219,35.2,219.1,35.3C219,35.2,219.1,35.3,219.1,35.3L219.1,35.3z"/>
	<polygon points="216.7,34.8 216.6,34.8 216.7,34.8 	"/>
	<polygon points="216,34.9 216.1,34.8 216,34.8 	"/>
	<path d="M215.6,34.6c0.1,0.1,0.2,0.1,0.2,0.2c0,0,0,0,0,0C215.7,34.7,215.7,34.7,215.6,34.6C215.6,34.6,215.6,34.6,215.6,34.6z"/>
	<path d="M213,34.8c0-0.1,0-0.1,0-0.2l0,0C212.9,34.7,212.9,34.8,213,34.8L213,34.8z"/>
	<path d="M215.3,34.4c0.1,0.1,0.2,0.2,0.2,0.2l0,0C215.5,34.5,215.4,34.4,215.3,34.4L215.3,34.4z"/>
	<path d="M175.3,33.1C175.3,33.1,175.3,33,175.3,33.1C175.3,33,175.3,33,175.3,33.1L175.3,33.1z"/>
	<path d="M140.7,10.3C140.6,10.3,140.6,10.3,140.7,10.3C140.6,10.3,140.6,10.3,140.7,10.3L140.7,10.3z"/>
	<path d="M211.2,33.7c0.1,0,0.1,0,0.2,0l0,0C211.3,33.7,211.3,33.7,211.2,33.7L211.2,33.7z"/>
	<path d="M198.3,33.5c0.1,0.1,0.2,0.2,0.2,0.2c0,0,0,0,0,0C198.4,33.6,198.4,33.6,198.3,33.5C198.3,33.5,198.3,33.5,198.3,33.5z"/>
	<path d="M117,48.6c0-0.1,0-0.2,0-0.3C117,48.5,117,48.6,117,48.6z"/>
	<path d="M115.2,50.2c0-0.1,0-0.2,0-0.2c0.1,0.1,0.2,0.2,0.2,0.2C115.4,50.2,115.3,50.2,115.2,50.2z"/>
	<path d="M54.8,15.7c0,0.3,0,0.6-0.5,0.7c-0.1,0-0.3,0.2-0.4,0.2c0-0.1-0.1-0.3,0-0.4C54.2,16.1,54.5,15.9,54.8,15.7z"/>
</g>
</svg>
