
<svg id="new_blk" x="0px" y="0px" width="197.609px" height="84.495px" viewBox="0 0 197.609 84.495" style="enable-background:new 0 0 197.609 84.495;">
	<g id="blk">
		<polygon points="153.08,8.594 153.08,29.087 168.469,8.594 		"/>
		<path d="M57.741,51.959h10.375c4.402,0,6.524-2.358,6.524-6.053c0-3.693-2.044-5.973-6.917-5.973h-9.982V51.959z"/>
		<path d="M73.461,24.135c0-3.379-1.571-5.266-5.895-5.266h-9.825v10.375h9.904C71.732,29.245,73.461,27.515,73.461,24.135z"/>
		<path d="M185.999,8.595h-0.67l-17.708,22.693l20.278,32.225h-17.135l-13.283-20.671l-4.401,5.502v15.169h-15.483V8.593
			l-28.53-0.001v42.581h23.187v12.34h-38.67V8.591l-15.217,0c6.861,2.323,9.714,7.591,9.714,13.816
			c0,6.444-3.064,9.824-8.095,12.025c5.345,1.808,9.746,5.266,9.746,13.126c0,10.06-6.21,15.955-19.886,15.955H43.225l0.003,1.4
			l24.536,19.582h129.846V43.206L185.999,8.595z"/>

	</g>
	<g id="new">
		<path d="M44.148,31.04l5.912-5.825L46.54,21.64c-0.132,1.032-0.317,2.21-0.513,3.195c-0.401,2.004-0.94,3.866-1.616,5.591
			C44.322,30.646,44.235,30.837,44.148,31.04z"/>
		<path d="M25.894,29.571c0.502-0.04,0.958-0.633,1.371-1.777c0.411-1.148,0.576-2.261,0.496-3.341
			c-0.015-0.183-0.083-0.342-0.207-0.477c-0.127-0.138-0.265-0.197-0.415-0.188c-0.426,0.032-0.919,0.617-1.478,1.752
			c-0.556,1.134-0.811,2.038-0.762,2.707c0.032,0.428,0.138,0.755,0.316,0.999C25.395,29.482,25.618,29.592,25.894,29.571z"/>
		<path d="M42.616,33.764c-0.584,0.691-1.224,1.063-1.915,1.117c-0.151,0.012-0.317-0.002-0.488-0.035
			c-0.175-0.029-0.443-0.129-0.813-0.285c-0.482-0.042-0.861-0.299-1.135-0.776c-0.276-0.475-0.45-1.173-0.518-2.098
			c-0.465,1.429-1.021,2.562-1.662,3.4c-0.644,0.834-1.289,1.274-1.933,1.325c-0.661,0.051-1.301-0.227-1.919-0.834
			c-0.617-0.605-0.959-1.357-1.027-2.267c-0.012-0.157-0.013-0.33-0.016-0.499c-0.954,1.39-1.87,2.432-2.747,3.093
			c-0.935,0.705-1.959,1.099-3.07,1.181c-1.168,0.09-2.071-0.185-2.706-0.818c-0.638-0.632-1.004-1.627-1.108-2.981
			c-0.105-1.431,0.107-3.165,0.633-5.207c0.53-2.041,1.261-3.872,2.198-5.484c0.295-0.513,0.63-0.912,1-1.2
			c0.366-0.285,0.744-0.444,1.123-0.472c0.214,0,0.418,0.026,0.614,0.079c0.193,0.053,0.426,0.156,0.698,0.306
			c0.218,0.043,0.496,0.103,0.837,0.165c0.932,0.176,1.43,0.688,1.491,1.542c0.144,1.915-0.268,3.713-1.227,5.39
			c-0.962,1.677-2.019,2.56-3.178,2.644c-0.241,0.018-0.486-0.021-0.729-0.118c-0.245-0.096-0.482-0.242-0.71-0.443
			c-0.074,0.408-0.124,0.81-0.15,1.221c-0.023,0.402-0.016,0.836,0.018,1.29c0.065,0.87,0.229,1.519,0.5,1.951
			c0.269,0.432,0.631,0.629,1.088,0.595c0.85-0.063,1.819-0.672,2.903-1.821c1.084-1.154,2.001-2.573,2.745-4.265
			c0.049-0.107,0.116-0.264,0.193-0.447c0.25-1.285,0.582-2.578,1.033-3.888c0.316-0.949,0.597-1.584,0.845-1.909
			c0.246-0.32,0.541-0.491,0.881-0.517c0.381-0.028,0.76,0.094,1.128,0.37c0.369,0.275,0.616,0.617,0.74,1.026
			c-0.123,0.241-0.25,0.462-0.383,0.663c-0.129,0.205-0.262,0.382-0.39,0.531c-0.559,1.649-0.981,3.229-1.274,4.736
			c-0.288,1.508-0.408,2.633-0.351,3.373c0.016,0.211,0.051,0.376,0.105,0.488c0.057,0.11,0.129,0.166,0.222,0.157
			c0.398-0.028,0.892-0.697,1.475-2.004c0.585-1.303,1.623-4.191,3.115-8.669c0.086-0.1,0.172-0.179,0.253-0.23
			c0.079-0.049,0.159-0.081,0.235-0.086c0.508-0.038,0.998,0.06,1.474,0.299c0.473,0.236,0.72,0.492,0.743,0.767
			c0.005,0.048-0.049,0.203-0.151,0.475c-0.979,2.243-1.383,4.549-1.204,6.916c0.02,0.282,0.062,0.485,0.127,0.619
			c0.065,0.133,0.161,0.204,0.284,0.214c0.556-0.041,1.216-1.146,1.993-3.309c0.777-2.163,1.564-6.234,1.999-9.317
			c-0.016-0.07-0.05-0.147-0.082-0.224l-1.64-1.664l0.077-10.367L32.493,7.384L25.216,0l-7.384,7.275L7.462,7.199L7.387,17.565
			L0,24.844l5.926,6.014c0.622-2.812,1.281-5.518,1.975-8.105c0.885-3.275,1.674-5.855,2.369-7.735
			c0.25-0.668,0.711-1.207,1.383-1.603c0.672-0.396,1.508-0.632,2.508-0.709c0.381-0.025,0.688-0.004,0.92,0.073
			c0.233,0.074,0.354,0.182,0.365,0.325c0.009,0.122-0.023,0.322-0.103,0.589c-0.081,0.271-0.197,0.594-0.354,0.974
			c-0.137,0.819-0.221,1.687-0.252,2.602c-0.03,0.92-0.004,1.956,0.082,3.107c0.177,2.385,0.456,4.662,0.84,6.844
			c0.38,2.175,0.872,4.266,1.474,6.278c0.731-4.831,1.983-10.34,3.748-16.527l0.138-0.453c0.124-0.422,0.28-0.996,0.467-1.719
			c0.734-2.707,1.555-4.089,2.455-4.158c0.254-0.018,0.474,0.024,0.658,0.131c0.188,0.108,0.286,0.245,0.3,0.416
			c0.004,0.096-0.037,0.262-0.127,0.496c-0.087,0.236-0.218,0.54-0.386,0.923c-1.278,4.547-2.352,8.68-3.217,12.391
			c-0.861,3.72-1.484,6.858-1.861,9.425c-0.021,0.103-0.05,0.272-0.088,0.519c-0.215,1.673-0.883,2.556-1.994,2.636
			c-0.269,0.021-0.644-0.13-1.127-0.449c-0.484-0.317-0.857-0.665-1.113-1.045c-0.409-0.578-0.953-2.343-1.625-5.3
			c-0.676-2.958-1.132-6.061-1.375-9.319c-0.04-0.551-0.075-1.183-0.109-1.894c-0.03-0.715-0.06-1.509-0.081-2.39
			c-1.219,4.416-2.233,8.433-3.05,12.052c-0.657,2.916-1.151,5.434-1.502,7.591L7.2,42.597l10.368,0.076l7.278,7.387l7.386-7.277
			L42.6,42.859l0.067-9.165C42.65,33.715,42.633,33.744,42.616,33.764z"/>
	</g>
</svg>
