<?xml version="1.0" encoding="utf-8"?>
<!-- Generator: Adobe Illustrator 18.1.1, SVG Export Plug-In . SVG Version: 6.00 Build 0)  -->
<svg version="1.1" id="Layer_1" xmlns="http://www.w3.org/2000/svg" xmlns:xlink="http://www.w3.org/1999/xlink" x="0px" y="0px"
	 viewBox="0 0 300 300" enable-background="new 0 0 300 300" xml:space="preserve">
<g id="clip-group">
	<defs>
		<rect id="clip-mask" x="38.5" y="38.5" width="223" height="223"/>
	</defs>
	<clipPath id="clip-mask_1_">
		<use xlink:href="#clip_x002D_mask"  overflow="visible"/>
	</clipPath>
	<g id="poo" clip-path="url(#clip-mask_1_)">
		<path d="M90,122.4c-3.2,0-6,0.7-8.6,2.1c-1.9,1-4.1,3-6.4,5.9v-6.9H58.3v64.3h18v-22.2c1.8,1.8,3.8,3.2,6.1,4.2
			c2.3,0.9,4.8,1.4,7.5,1.4c5.7,0,10.4-2,14.1-6.1c3.7-4.1,5.6-10,5.6-17.7c0-7-1.7-12.9-5.1-17.7S96.2,122.4,90,122.4z M89.6,155.2
			c-1.4,1.7-3.1,2.6-5.2,2.6c-2.4,0-4.3-0.9-5.9-2.7c-1.5-1.8-2.3-4.5-2.3-8.2c0-4,0.8-6.9,2.3-8.7c1.5-1.8,3.4-2.7,5.7-2.7
			c2.1,0,3.9,0.9,5.4,2.7c1.5,1.8,2.2,4.5,2.2,8.3C91.7,150.6,91,153.5,89.6,155.2z"/>
		<path d="M138.5,122.4c-8.2,0-14.6,2.3-19.4,6.9s-7.2,10.5-7.2,17.6c0,7.6,2.8,13.8,8.5,18.5c4.6,3.8,10.7,5.7,18.2,5.7
			c8.4,0,15-2.3,19.7-6.9s7.1-10.4,7.1-17.6c0-6.4-1.9-11.7-5.7-16.1C154.9,125.1,147.8,122.4,138.5,122.4z M145,156.1
			c-1.7,2-3.8,2.9-6.3,2.9c-2.5,0-4.7-1-6.3-3c-1.7-2-2.5-5.1-2.5-9.2c0-4.1,0.8-7.1,2.5-9.1s3.8-3,6.4-3c2.5,0,4.5,1,6.2,3
			c1.7,2,2.5,5,2.5,9C147.5,151,146.6,154.2,145,156.1z"/>
		<path d="M194.4,122.4c-8.2,0-14.6,2.3-19.4,6.9c-4.8,4.6-7.2,10.5-7.2,17.6c0,7.6,2.8,13.8,8.5,18.5c4.6,3.8,10.7,5.7,18.2,5.7
			c8.4,0,15-2.3,19.7-6.9c4.8-4.6,7.1-10.4,7.1-17.6c0-6.4-1.9-11.7-5.7-16.1C210.8,125.1,203.8,122.4,194.4,122.4z M200.9,156.1
			c-1.7,2-3.8,2.9-6.3,2.9c-2.5,0-4.7-1-6.3-3c-1.7-2-2.5-5.1-2.5-9.2c0-4.1,0.8-7.1,2.5-9.1s3.8-3,6.4-3c2.5,0,4.5,1,6.2,3
			c1.7,2,2.5,5,2.5,9C203.4,151,202.6,154.2,200.9,156.1z"/>
		<polygon points="223,105.8 223,120.4 226.6,149.9 238.4,149.9 242,120.4 242,105.8 		"/>
		<rect x="223.6" y="154.3" width="17.8" height="15.7"/>
	</g>
</g>
</svg>
