<svg id="Layer_1" data-name="Layer 1" xmlns="http://www.w3.org/2000/svg" width="6.479in" height="0.851in" viewBox="0 0 466.506 61.294">
  <title>thenewblk</title>
  <g>
    <path d="M35.109,10.377H24.538a0.833,0.833,0,0,0-.97.97V60.325a0.833,0.833,0,0,1-.97.97H13.481a0.833,0.833,0,0,1-.97-0.97V11.347a0.833,0.833,0,0,0-.97-0.97H0.97A0.833,0.833,0,0,1,0,9.408V1.164A0.833,0.833,0,0,1,.97.194H35.109a0.87,0.87,0,0,1,.97.97V9.408A0.833,0.833,0,0,1,35.109,10.377Z" style="fill: #fff"/>
    <path d="M83.312,61.294H74.2a0.833,0.833,0,0,1-.97-0.97V36.369a0.833,0.833,0,0,0-.97-0.97H54.216a0.833,0.833,0,0,0-.97.97V60.325a0.833,0.833,0,0,1-.97.97H43.063a0.833,0.833,0,0,1-.97-0.97V1.164a0.833,0.833,0,0,1,.97-0.97h9.214a0.87,0.87,0,0,1,.97.97V24.246a0.833,0.833,0,0,0,.97.97H72.255a0.833,0.833,0,0,0,.97-0.97V1.164A0.833,0.833,0,0,1,74.2.194h9.117a0.833,0.833,0,0,1,.97.97V60.325A0.833,0.833,0,0,1,83.312,61.294Z" style="fill: #fff"/>
    <path d="M126.763,61.294H92.528a0.833,0.833,0,0,1-.97-0.97V1.164a0.833,0.833,0,0,1,.97-0.97h34.235a0.87,0.87,0,0,1,.97.97V9.408a0.833,0.833,0,0,1-.97.97H103.681a0.833,0.833,0,0,0-.97.97v12.9a0.833,0.833,0,0,0,.97.97h18.912a0.833,0.833,0,0,1,.97.97V34.43a0.833,0.833,0,0,1-.97.97H103.681a0.833,0.833,0,0,0-.97.97V50.141a0.833,0.833,0,0,0,.97.97h23.082a0.87,0.87,0,0,1,.97.971v8.243A0.833,0.833,0,0,1,126.763,61.294Z" style="fill: #fff"/>
    <path d="M194.364,61.294h-8.049l-0.873-.484L165.56,21.822l0.484,38.5a0.833,0.833,0,0,1-.97.97h-9.02a0.833,0.833,0,0,1-.97-0.97V1.164a0.833,0.833,0,0,1,.97-0.97H164.2l0.873,0.485L184.86,40.055,184.472,1.164a0.833,0.833,0,0,1,.97-0.97h8.922a0.87,0.87,0,0,1,.971.97V60.325A0.833,0.833,0,0,1,194.364,61.294Z" style="fill: #fff"/>
    <path d="M237.815,61.294H203.58a0.833,0.833,0,0,1-.97-0.97V1.164a0.833,0.833,0,0,1,.97-0.97h34.235a0.87,0.87,0,0,1,.971.97V9.408a0.833,0.833,0,0,1-.971.97H214.733a0.833,0.833,0,0,0-.97.97v12.9a0.833,0.833,0,0,0,.97.97h18.912a0.833,0.833,0,0,1,.97.97V34.43a0.833,0.833,0,0,1-.97.97H214.733a0.833,0.833,0,0,0-.97.97V50.141a0.833,0.833,0,0,0,.97.97h23.082a0.871,0.871,0,0,1,.971.971v8.243A0.833,0.833,0,0,1,237.815,61.294Z" style="fill: #fff"/>
    <path d="M295.516,60.519a0.944,0.944,0,0,1-.97.775h-7.08a0.815,0.815,0,0,1-.97-0.679l-9.8-38.406L267,60.616a0.815,0.815,0,0,1-.97.679h-7.08a0.945,0.945,0,0,1-.97-0.775L245.18,1.358c0-.1-0.1-0.291-0.1-0.388A0.87,0.87,0,0,1,246.15.194h9.893a0.944,0.944,0,0,1,.97.776l7.08,39.473,9.214-39.764A0.815,0.815,0,0,1,274.276,0h4.849a0.815,0.815,0,0,1,.97.679l9.214,39.764L296.485,0.97a0.945,0.945,0,0,1,.97-0.776h9.893a0.871,0.871,0,0,1,1.067.776c0,0.1-.1.291-0.1,0.388Z" style="fill: #fff"/>
    <path d="M355.067,61.294H333.246a0.833,0.833,0,0,1-.97-0.97V1.164a0.833,0.833,0,0,1,.97-0.97h21.821c11.057,0,18.039,6.983,18.039,18.039V19.2a11.614,11.614,0,0,1-2.133,6.595c-2.037,2.716-3.395,4.17-3.395,4.559s1.357,1.746,3.2,4.364a13.716,13.716,0,0,1,2.327,7.274v1.455C373.106,54.409,366.221,61.294,355.067,61.294Zm6.983-43.934a7.08,7.08,0,0,0-6.983-6.983H344.4a0.833,0.833,0,0,0-.97.97v12.9a0.833,0.833,0,0,0,.97.97h10.668a7.016,7.016,0,0,0,6.983-6.983V17.36Zm0,24.925a6.813,6.813,0,0,0-6.983-6.886H344.4a0.833,0.833,0,0,0-.97.97V50.141a0.833,0.833,0,0,0,.97.97h10.668a6.954,6.954,0,0,0,6.983-6.983V42.286Z" style="fill: #fff"/>
    <path d="M414.521,61.294H380.286a0.833,0.833,0,0,1-.97-0.97V1.164a0.833,0.833,0,0,1,.97-0.97H389.5a0.87,0.87,0,0,1,.97.97V50.141a0.833,0.833,0,0,0,.97.97h23.082a0.87,0.87,0,0,1,.97.971v8.243A0.833,0.833,0,0,1,414.521,61.294Z" style="fill: #fff"/>
    <path d="M466.506,60.519a0.927,0.927,0,0,1-1.066.775H454.092l-0.775-.484L438.09,36.466a1.226,1.226,0,0,0-.776-0.582,0.946,0.946,0,0,0-.873.388l-3.879,5.14V60.325a0.833,0.833,0,0,1-.97.97h-9.214a0.833,0.833,0,0,1-.97-0.97V1.164a0.833,0.833,0,0,1,.97-0.97h9.214a0.87,0.87,0,0,1,.97.97V22.694a1.025,1.025,0,0,0,.873,1.164,1.173,1.173,0,0,0,.873-0.582L451.57,0.582l0.776-.388H463.5a0.87,0.87,0,0,1,1.066.776,1.545,1.545,0,0,1-.291.776L445.46,25.022a1.648,1.648,0,0,0-.193.485,1.38,1.38,0,0,0,.193.582L466.313,59.84A1.8,1.8,0,0,1,466.506,60.519Z" style="fill: #fff"/>
  </g>
</svg>
