<svg id="Layer_1" data-name="Layer 1" xmlns="http://www.w3.org/2000/svg" width="450.667" height="50" viewBox="0 0 450.667 50">
  <defs>
    <style>

    </style>
  </defs>
  <title>agency_icon_sprite</title>
  <g>
    <path class="cls-8" d="M43.337,40.209H42.626V20.747h0.025a0.7,0.7,0,0,0,.7-0.7v-2.47a0.7,0.7,0,0,0-.7-0.7H40.684V8.391a1.572,1.572,0,0,0,.169-1,1.344,1.344,0,1,0-1.569.17v9.316H37.889a0.7,0.7,0,0,0-.7.7v0.893H33.24a2.3,2.3,0,0,0-2.186-1.606,2.279,2.279,0,0,0-.359.036l-4.013-4.5a2.253,2.253,0,0,0-.521-2.806,3.037,3.037,0,0,1,.859-2.244,2,2,0,0,1,2.087-.5c0.159-.951-0.872-1.77-2.272-1.083a3.715,3.715,0,0,0-1.849,3.012V9.048a1.849,1.849,0,0,0-.74.008V8.773a3.715,3.715,0,0,0-1.849-3.012c-1.4-.687-2.431.132-2.272,1.083a2,2,0,0,1,2.087.5,3.081,3.081,0,0,1,.859,2.306,2.259,2.259,0,0,0-.447,2.741L18.6,16.9a2.227,2.227,0,0,0-2.539,1.571H11.647V17.714a1.65,1.65,0,0,0,.768-1.389V15.517h0v-4.3a5.386,5.386,0,0,1,.652-0.051,0.527,0.527,0,0,0,.531-0.507,0.518,0.518,0,0,0-.5-0.532,5.216,5.216,0,0,0-3.147,1.038,5.5,5.5,0,0,1-.578-2.1,1.345,1.345,0,1,0-1.679,0,5.414,5.414,0,0,1-.552,2.043,5.216,5.216,0,0,0-3.1-.986,0.52,0.52,0,0,0-.5.534,0.527,0.527,0,0,0,.534.5,4.31,4.31,0,0,1,.683.051v4.3H4.773v0.808a1.649,1.649,0,0,0,.712,1.352v2.37a0.7,0.7,0,0,0,.7.7H6.211V40.209H5.462a0.7,0.7,0,0,0-.7.7V44.38a0.7,0.7,0,0,0,.7.7H43.337a0.7,0.7,0,0,0,.7-0.7V40.91A0.7,0.7,0,0,0,43.337,40.209ZM38.59,18.277h3.361v1.069H38.59V18.277Zm0.725,8.3V21.062h1.911V40.2H39.314V26.664l0.045-.04Zm-2.125-6.7v0.177a0.7,0.7,0,0,0,.7.7h0.024V25L33.34,19.87h3.849Zm-6.136-1.606a0.906,0.906,0,1,1-.906.906A0.907,0.907,0,0,1,31.053,18.263Zm-6.4-7.849a0.906,0.906,0,1,1-.907.906A0.907,0.907,0,0,1,24.652,10.414Zm-1.03,2.959a2.217,2.217,0,0,0,2.057,0l3.728,4.184a2.3,2.3,0,0,0-.54.91H20.436a2.3,2.3,0,0,0-.543-0.914ZM18.25,18.263a0.906,0.906,0,1,1-.906.906A0.907,0.907,0,0,1,18.25,18.263Zm-1.413,2.716a2.28,2.28,0,0,0,3.6-1.109h8.431a2.28,2.28,0,0,0,3.592,1.115l5.455,6.122V31.5a16.278,16.278,0,0,0-13.278-7.188,16.288,16.288,0,0,0-13.713,7.85V27.609Zm7.8,8.6c-5.747,0-10.625,4.53-11.6,10.631H10.923V35.051c0.032-.072.055-0.119,0.077-0.159,0.035-.062.077-0.135,0.152-0.29a15.133,15.133,0,0,1,13.483-8.895A15.134,15.134,0,0,1,37.914,34.2v6.014H36.238C35.267,34.122,30.355,29.579,24.64,29.579ZM34.819,40.209H14.459c0.943-5.313,5.194-9.23,10.182-9.23C29.6,30.979,33.876,34.909,34.819,40.209ZM11.647,20.046V19.87h4.3l-5.028,5.636V20.747h0.024A0.7,0.7,0,0,0,11.647,20.046ZM10,14.2A1.394,1.394,0,0,0,9.676,13.3a2.706,2.706,0,0,1,1.7-1.816v3.97H9.209A1.41,1.41,0,0,0,10,14.2ZM8.531,7.7a0.318,0.318,0,1,1-.306.317A0.312,0.312,0,0,1,8.531,7.7Zm0,2.667a7.694,7.694,0,0,0,.5,1.293l-0.5,1.105-0.5-1.105A7.623,7.623,0,0,0,8.531,10.369ZM8.966,14.2a0.387,0.387,0,0,1-.774,0A0.368,0.368,0,0,1,8.3,13.938H8.857A0.368,0.368,0,0,1,8.966,14.2ZM5.788,11.5a2.709,2.709,0,0,1,1.666,1.834,1.394,1.394,0,0,0-.3.861,1.41,1.41,0,0,0,.8,1.262H5.788V11.5Zm0.4,5.375H6.18A0.619,0.619,0,0,1,5.838,16.5H11.35a0.621,0.621,0,0,1-.358.389c-0.016,0-.029-0.009-0.046-0.009H6.185Zm0.7,2.47V18.277h3.361v1.069H6.886Zm2.637,1.591V40.208H7.611V20.937H9.522ZM42.636,43.68H6.162V41.61H42.636v2.07Z"/>
    <path class="cls-8" d="M46.432,11.716a0.5,0.5,0,0,1-.327.465,5.061,5.061,0,0,1-1.579.266,3.211,3.211,0,0,1-1.547-.359,2.212,2.212,0,0,0-1.063-.246,4.241,4.241,0,0,0-1.393.269V11.064a4.293,4.293,0,0,1,2.933.145,2.228,2.228,0,0,0,1.07.238,4.053,4.053,0,0,0,.91-0.112L45.46,8.872a4.575,4.575,0,0,1-2.546-.236,4.082,4.082,0,0,0-1.484-.263,4.967,4.967,0,0,0-.908.088V7.448a5.95,5.95,0,0,1,.908-0.074,5.063,5.063,0,0,1,1.848.331,3.645,3.645,0,0,0,1.321.268,2.181,2.181,0,0,0,1.092-.247,0.5,0.5,0,0,1,.777.421Z"/>
  </g>
  <g>
    <path class="cls-8" d="M143.337,40.208h-0.711V20.745h0.025a0.7,0.7,0,0,0,.7-0.7v-2.47a0.7,0.7,0,0,0-.7-0.7h-1.967V7.784a1.572,1.572,0,0,0,.169-1,1.344,1.344,0,1,0-1.569.17v9.922h-1.395a0.7,0.7,0,0,0-.7.7v0.893H133.24a2.3,2.3,0,0,0-2.186-1.606,2.279,2.279,0,0,0-.359.036l-4.013-4.5a2.253,2.253,0,0,0-.521-2.806,3.037,3.037,0,0,1,.859-2.244,2,2,0,0,1,2.087-.5c0.159-.951-0.872-1.77-2.272-1.083a3.715,3.715,0,0,0-1.849,3.012V9.046a1.849,1.849,0,0,0-.74.008V8.771a3.715,3.715,0,0,0-1.849-3.012c-1.4-.687-2.431.132-2.272,1.083a2,2,0,0,1,2.087.5,3.081,3.081,0,0,1,.859,2.306,2.259,2.259,0,0,0-.447,2.741L118.6,16.9a2.227,2.227,0,0,0-2.539,1.571h-4.416V17.712a1.65,1.65,0,0,0,.768-1.389V15.515h0v-4.3a5.386,5.386,0,0,1,.652-0.051,0.527,0.527,0,0,0,.531-0.507,0.518,0.518,0,0,0-.5-0.532,5.216,5.216,0,0,0-3.147,1.038,5.5,5.5,0,0,1-.578-2.1,1.345,1.345,0,1,0-1.679,0,5.414,5.414,0,0,1-.552,2.043,5.216,5.216,0,0,0-3.1-.986,0.52,0.52,0,0,0-.5.534,0.527,0.527,0,0,0,.534.5,4.31,4.31,0,0,1,.683.051v4.3h0.024v0.808a1.649,1.649,0,0,0,.712,1.352v2.37a0.7,0.7,0,0,0,.7.7h0.025V40.208h-0.749a0.7,0.7,0,0,0-.7.7v3.471a0.7,0.7,0,0,0,.7.7h37.875a0.7,0.7,0,0,0,.7-0.7V40.908A0.7,0.7,0,0,0,143.337,40.208ZM138.59,18.275h3.361v1.069H138.59V18.275Zm0.725,8.3V21.06h1.911V40.2h-1.911V26.663l0.045-.04Zm-2.125-6.7v0.177a0.7,0.7,0,0,0,.7.7h0.024V25l-4.573-5.133h3.849Zm-6.136-1.606a0.906,0.906,0,1,1-.906.906A0.907,0.907,0,0,1,131.053,18.261Zm-6.4-7.849a0.906,0.906,0,1,1-.907.906A0.907,0.907,0,0,1,124.652,10.413Zm-1.03,2.959a2.217,2.217,0,0,0,2.057,0l3.728,4.184a2.3,2.3,0,0,0-.54.91h-8.431a2.3,2.3,0,0,0-.543-0.914Zm-5.373,4.889a0.906,0.906,0,1,1-.906.906A0.907,0.907,0,0,1,118.25,18.261Zm-1.413,2.716a2.28,2.28,0,0,0,3.6-1.109h8.431a2.28,2.28,0,0,0,3.592,1.115l5.455,6.122v4.389a15.881,15.881,0,0,0-26.991.662V27.607Zm7.8,8.6c-5.747,0-10.625,4.53-11.6,10.631h-2.121V35.049c0.032-.072.055-0.119,0.077-0.159,0.035-.062.077-0.135,0.152-0.29a14.649,14.649,0,0,1,26.762-.406v6.014h-1.676C135.267,34.12,130.355,29.577,124.64,29.577Zm10.178,10.631h-20.36c0.943-5.313,5.194-9.23,10.182-9.23C129.6,30.977,133.876,34.907,134.819,40.208ZM111.647,20.044V19.868h4.3L110.923,25.5V20.745h0.024A0.7,0.7,0,0,0,111.647,20.044ZM110,14.194a1.394,1.394,0,0,0-.329-0.893,2.706,2.706,0,0,1,1.7-1.816v3.97h-2.168A1.41,1.41,0,0,0,110,14.194ZM108.531,7.7a0.318,0.318,0,1,1-.306.317A0.312,0.312,0,0,1,108.531,7.7Zm0,2.667a7.694,7.694,0,0,0,.5,1.293l-0.5,1.105-0.5-1.105A7.623,7.623,0,0,0,108.531,10.367Zm0.435,3.827a0.387,0.387,0,0,1-.774,0,0.368,0.368,0,0,1,.108-0.258h0.558A0.368,0.368,0,0,1,108.966,14.194ZM105.788,11.5a2.709,2.709,0,0,1,1.666,1.834,1.394,1.394,0,0,0-.3.861,1.41,1.41,0,0,0,.8,1.262h-2.16V11.5Zm0.4,5.375H106.18a0.619,0.619,0,0,1-.342-0.381h5.513a0.621,0.621,0,0,1-.358.389c-0.016,0-.029-0.009-0.046-0.009h-4.762Zm0.7,2.47V18.275h3.361v1.069h-3.361Zm2.637,1.591V40.2h-1.911V20.935h1.911Zm33.114,22.743H106.162v-2.07h36.475v2.07Z"/>
    <path class="cls-8" d="M146.432,7.5a0.5,0.5,0,0,0-.327-0.465,5.061,5.061,0,0,0-1.579-.266,3.211,3.211,0,0,0-1.547.359,2.212,2.212,0,0,1-1.063.246,4.241,4.241,0,0,1-1.393-.269V8.149A4.293,4.293,0,0,0,143.455,8a2.228,2.228,0,0,1,1.07-.238,4.053,4.053,0,0,1,.91.112l0.024,2.462a4.575,4.575,0,0,0-2.546.236,4.082,4.082,0,0,1-1.484.263,4.967,4.967,0,0,1-.908-0.088v1.014a5.95,5.95,0,0,0,.908.074,5.063,5.063,0,0,0,1.848-.331,3.645,3.645,0,0,1,1.321-.268,2.181,2.181,0,0,1,1.092.247,0.5,0.5,0,0,0,.777-0.421Z"/>
  </g>
  <g>
    <path class="cls-8" d="M193.337,40.206h-0.711V20.743h0.025a0.7,0.7,0,0,0,.7-0.7v-2.47a0.7,0.7,0,0,0-.7-0.7h-1.967V7.331a1.572,1.572,0,0,0,.169-1,1.344,1.344,0,1,0-1.569.17V16.873h-1.395a0.7,0.7,0,0,0-.7.7v0.893H183.24a2.3,2.3,0,0,0-2.186-1.606,2.279,2.279,0,0,0-.359.036l-4.013-4.5a2.253,2.253,0,0,0-.521-2.806,3.037,3.037,0,0,1,.859-2.244,2,2,0,0,1,2.087-.5c0.159-.951-0.872-1.77-2.272-1.083a3.715,3.715,0,0,0-1.849,3.012V9.044a1.849,1.849,0,0,0-.74.008V8.769a3.715,3.715,0,0,0-1.849-3.012c-1.4-.687-2.431.132-2.272,1.083a2,2,0,0,1,2.087.5,3.081,3.081,0,0,1,.859,2.306,2.259,2.259,0,0,0-.447,2.741L168.6,16.895a2.227,2.227,0,0,0-2.539,1.571h-4.416V17.71a1.65,1.65,0,0,0,.768-1.389V15.513h0v-4.3a5.386,5.386,0,0,1,.652-0.051,0.527,0.527,0,0,0,.531-0.507,0.518,0.518,0,0,0-.5-0.532,5.216,5.216,0,0,0-3.147,1.038,5.5,5.5,0,0,1-.578-2.1,1.345,1.345,0,1,0-1.679,0,5.414,5.414,0,0,1-.552,2.043,5.216,5.216,0,0,0-3.1-.986,0.52,0.52,0,0,0-.5.534,0.527,0.527,0,0,0,.534.5,4.31,4.31,0,0,1,.683.051v4.3h0.024v0.808a1.649,1.649,0,0,0,.712,1.352v2.37a0.7,0.7,0,0,0,.7.7h0.025V40.206h-0.749a0.7,0.7,0,0,0-.7.7v3.471a0.7,0.7,0,0,0,.7.7h37.875a0.7,0.7,0,0,0,.7-0.7V40.906A0.7,0.7,0,0,0,193.337,40.206ZM188.59,18.273h3.361v1.069H188.59V18.273Zm0.725,8.3V21.058h1.911V40.2h-1.911V26.661l0.045-.04Zm-2.125-6.7v0.177a0.7,0.7,0,0,0,.7.7h0.024V25l-4.573-5.133h3.849Zm-6.136-1.606a0.906,0.906,0,1,1-.906.906A0.907,0.907,0,0,1,181.053,18.259Zm-6.4-7.849a0.906,0.906,0,1,1-.907.906A0.907,0.907,0,0,1,174.652,10.411Zm-1.03,2.959a2.217,2.217,0,0,0,2.057,0l3.728,4.184a2.3,2.3,0,0,0-.54.91h-8.431a2.3,2.3,0,0,0-.543-0.914Zm-5.373,4.889a0.906,0.906,0,1,1-.906.906A0.907,0.907,0,0,1,168.25,18.259Zm-1.413,2.716a2.28,2.28,0,0,0,3.6-1.109h8.431a2.28,2.28,0,0,0,3.592,1.115l5.455,6.122v4.389a15.881,15.881,0,0,0-26.991.662V27.6Zm7.8,8.6c-5.747,0-10.625,4.53-11.6,10.631h-2.121V35.048c0.032-.072.055-0.119,0.077-0.159,0.035-.062.077-0.135,0.152-0.29a14.649,14.649,0,0,1,26.762-.406v6.014h-1.676C185.267,34.119,180.355,29.575,174.64,29.575Zm10.178,10.631h-20.36c0.943-5.313,5.194-9.23,10.182-9.23C179.6,30.975,183.876,34.906,184.819,40.206ZM161.647,20.043V19.866h4.3L160.923,25.5V20.743h0.024A0.7,0.7,0,0,0,161.647,20.043ZM160,14.192a1.394,1.394,0,0,0-.329-0.893,2.706,2.706,0,0,1,1.7-1.816v3.97h-2.168A1.41,1.41,0,0,0,160,14.192ZM158.531,7.7a0.318,0.318,0,1,1-.306.317A0.312,0.312,0,0,1,158.531,7.7Zm0,2.667a7.694,7.694,0,0,0,.5,1.293l-0.5,1.105-0.5-1.105A7.623,7.623,0,0,0,158.531,10.365Zm0.435,3.827a0.387,0.387,0,0,1-.774,0,0.368,0.368,0,0,1,.108-0.258h0.558A0.368,0.368,0,0,1,158.966,14.192ZM155.788,11.5a2.709,2.709,0,0,1,1.666,1.834,1.394,1.394,0,0,0-.3.861,1.41,1.41,0,0,0,.8,1.262h-2.16V11.5Zm0.4,5.375H156.18a0.619,0.619,0,0,1-.342-0.381h5.513a0.621,0.621,0,0,1-.358.389c-0.016,0-.029-0.009-0.046-0.009h-4.762Zm0.7,2.47V18.273h3.361v1.069h-3.361Zm2.637,1.591V40.2h-1.911V20.933h1.911Zm33.114,22.743H156.162v-2.07h36.475v2.07Z"/>
    <path class="cls-8" d="M196.432,10.656a0.5,0.5,0,0,1-.327.465,5.061,5.061,0,0,1-1.579.266,3.211,3.211,0,0,1-1.547-.359,2.212,2.212,0,0,0-1.063-.246,4.241,4.241,0,0,0-1.393.269V10a4.293,4.293,0,0,1,2.933.145,2.228,2.228,0,0,0,1.07.238,4.053,4.053,0,0,0,.91-0.112l0.024-2.462a4.575,4.575,0,0,1-2.546-.236,4.082,4.082,0,0,0-1.484-.263,4.967,4.967,0,0,0-.908.088V6.387a5.95,5.95,0,0,1,.908-0.074,5.063,5.063,0,0,1,1.848.331,3.645,3.645,0,0,0,1.321.268,2.181,2.181,0,0,0,1.092-.247,0.5,0.5,0,0,1,.777.421Z"/>
  </g>
  <g>
    <path class="cls-8" d="M243.337,40.216h-0.711V20.753h0.025a0.7,0.7,0,0,0,.7-0.7v-2.47a0.7,0.7,0,0,0-.7-0.7h-1.967V7.341a1.572,1.572,0,0,0,.169-1,1.344,1.344,0,1,0-1.569.17V16.883h-1.395a0.7,0.7,0,0,0-.7.7v0.893H233.24a2.3,2.3,0,0,0-2.186-1.606,2.279,2.279,0,0,0-.359.036l-4.013-4.5A2.253,2.253,0,0,0,226.16,9.6a3.037,3.037,0,0,1,.859-2.244,2,2,0,0,1,2.087-.5c0.159-.951-0.872-1.77-2.272-1.083a3.715,3.715,0,0,0-1.849,3.012V9.054a1.849,1.849,0,0,0-.74.008V8.779a3.715,3.715,0,0,0-1.849-3.012c-1.4-.687-2.431.132-2.272,1.083a2,2,0,0,1,2.087.5,3.081,3.081,0,0,1,.859,2.306,2.259,2.259,0,0,0-.447,2.741L218.6,16.905a2.227,2.227,0,0,0-2.539,1.571h-4.416V17.721a1.65,1.65,0,0,0,.768-1.389V15.524h0v-4.3a5.386,5.386,0,0,1,.652-0.051,0.527,0.527,0,0,0,.531-0.507,0.518,0.518,0,0,0-.5-0.532,5.216,5.216,0,0,0-3.147,1.038,5.5,5.5,0,0,1-.578-2.1,1.345,1.345,0,1,0-1.679,0,5.414,5.414,0,0,1-.552,2.043,5.216,5.216,0,0,0-3.1-.986,0.52,0.52,0,0,0-.5.534,0.527,0.527,0,0,0,.534.5,4.31,4.31,0,0,1,.683.051v4.3h0.024v0.808a1.649,1.649,0,0,0,.712,1.352v2.37a0.7,0.7,0,0,0,.7.7h0.025V40.216h-0.749a0.7,0.7,0,0,0-.7.7v3.471a0.7,0.7,0,0,0,.7.7h37.875a0.7,0.7,0,0,0,.7-0.7V40.916A0.7,0.7,0,0,0,243.337,40.216ZM238.59,18.284h3.361v1.069H238.59V18.284Zm0.725,8.3V21.069h1.911V40.206h-1.911V26.671l0.045-.04Zm-2.125-6.7v0.177a0.7,0.7,0,0,0,.7.7h0.024v4.256l-4.573-5.133h3.849Zm-6.136-1.606a0.906,0.906,0,1,1-.906.906A0.907,0.907,0,0,1,231.053,18.27Zm-6.4-7.849a0.906,0.906,0,1,1-.907.906A0.907,0.907,0,0,1,224.652,10.421Zm-1.03,2.959a2.217,2.217,0,0,0,2.057,0l3.728,4.184a2.3,2.3,0,0,0-.54.91h-8.431a2.3,2.3,0,0,0-.543-0.914ZM218.25,18.27a0.906,0.906,0,1,1-.906.906A0.907,0.907,0,0,1,218.25,18.27Zm-1.413,2.716a2.28,2.28,0,0,0,3.6-1.109h8.431a2.28,2.28,0,0,0,3.592,1.115l5.455,6.122V31.5a15.881,15.881,0,0,0-26.991.662V27.615Zm7.8,8.6c-5.747,0-10.625,4.53-11.6,10.631h-2.121V35.058c0.032-.072.055-0.119,0.077-0.159,0.035-.062.077-0.135,0.152-0.29a14.649,14.649,0,0,1,26.762-.406v6.014h-1.676C235.267,34.129,230.355,29.585,224.64,29.585Zm10.178,10.631h-20.36c0.943-5.313,5.194-9.23,10.182-9.23C229.6,30.986,233.876,34.916,234.819,40.216ZM211.647,20.053V19.876h4.3l-5.028,5.636V20.753h0.024A0.7,0.7,0,0,0,211.647,20.053ZM210,14.2a1.394,1.394,0,0,0-.329-0.893,2.706,2.706,0,0,1,1.7-1.816v3.97h-2.168A1.41,1.41,0,0,0,210,14.2Zm-1.474-6.494a0.318,0.318,0,1,1-.306.317A0.312,0.312,0,0,1,208.531,7.708Zm0,2.667a7.694,7.694,0,0,0,.5,1.293l-0.5,1.105-0.5-1.105A7.623,7.623,0,0,0,208.531,10.375Zm0.435,3.827a0.387,0.387,0,0,1-.774,0,0.368,0.368,0,0,1,.108-0.258h0.558A0.368,0.368,0,0,1,208.966,14.2Zm-3.178-2.695a2.709,2.709,0,0,1,1.666,1.834,1.394,1.394,0,0,0-.3.861,1.41,1.41,0,0,0,.8,1.262h-2.16V11.508Zm0.4,5.375H206.18a0.619,0.619,0,0,1-.342-0.381h5.513a0.621,0.621,0,0,1-.358.389c-0.016,0-.029-0.009-0.046-0.009h-4.762Zm0.7,2.47V18.284h3.361v1.069h-3.361Zm2.637,1.591V40.206h-1.911V20.944h1.911Zm33.114,22.743H206.162v-2.07h36.475v2.07Z"/>
    <path class="cls-8" d="M246.432,10.666a0.5,0.5,0,0,1-.327.465,5.061,5.061,0,0,1-1.579.266,3.211,3.211,0,0,1-1.547-.359,2.212,2.212,0,0,0-1.063-.246,4.241,4.241,0,0,0-1.393.269V10.014a4.293,4.293,0,0,1,2.933.145,2.228,2.228,0,0,0,1.07.238,4.053,4.053,0,0,0,.91-0.112l0.024-2.462a4.575,4.575,0,0,1-2.546-.236,4.082,4.082,0,0,0-1.484-.263,4.967,4.967,0,0,0-.908.088V6.4a5.95,5.95,0,0,1,.908-0.074,5.063,5.063,0,0,1,1.848.331,3.645,3.645,0,0,0,1.321.268,2.181,2.181,0,0,0,1.092-.247,0.5,0.5,0,0,1,.777.421Z"/>
  </g>
  <g>
    <path class="cls-8" d="M293.337,40.2h-0.711V20.741h0.025a0.7,0.7,0,0,0,.7-0.7v-2.47a0.7,0.7,0,0,0-.7-0.7h-1.967V6.863a1.572,1.572,0,0,0,.169-1,1.344,1.344,0,1,0-1.569.17V16.87h-1.395a0.7,0.7,0,0,0-.7.7v0.893H283.24a2.3,2.3,0,0,0-2.186-1.606,2.279,2.279,0,0,0-.359.036l-4.013-4.5a2.253,2.253,0,0,0-.521-2.806,3.037,3.037,0,0,1,.859-2.244,2,2,0,0,1,2.087-.5c0.159-.951-0.872-1.77-2.272-1.083a3.715,3.715,0,0,0-1.849,3.012V9.042a1.849,1.849,0,0,0-.74.008V8.767a3.715,3.715,0,0,0-1.849-3.012c-1.4-.687-2.431.132-2.272,1.083a2,2,0,0,1,2.087.5,3.081,3.081,0,0,1,.859,2.306,2.259,2.259,0,0,0-.447,2.741L268.6,16.892a2.227,2.227,0,0,0-2.539,1.571h-4.416V17.708a1.65,1.65,0,0,0,.768-1.389V15.511h0v-4.3a5.386,5.386,0,0,1,.652-0.051,0.527,0.527,0,0,0,.531-0.507,0.518,0.518,0,0,0-.5-0.532,5.216,5.216,0,0,0-3.147,1.038,5.5,5.5,0,0,1-.578-2.1,1.345,1.345,0,1,0-1.679,0,5.414,5.414,0,0,1-.552,2.043,5.216,5.216,0,0,0-3.1-.986,0.52,0.52,0,0,0-.5.534,0.527,0.527,0,0,0,.534.5,4.31,4.31,0,0,1,.683.051v4.3h0.024v0.808a1.649,1.649,0,0,0,.712,1.352v2.37a0.7,0.7,0,0,0,.7.7h0.025V40.2h-0.749a0.7,0.7,0,0,0-.7.7v3.471a0.7,0.7,0,0,0,.7.7h37.875a0.7,0.7,0,0,0,.7-0.7V40.9A0.7,0.7,0,0,0,293.337,40.2ZM288.59,18.271h3.361V19.34H288.59V18.271Zm0.725,8.3V21.056h1.911v19.15h-1.911V26.658l0.045-.04Zm-2.125-6.7V20.04a0.7,0.7,0,0,0,.7.7h0.024V25l-4.573-5.133h3.849Zm-6.136-1.606a0.906,0.906,0,1,1-.906.906A0.907,0.907,0,0,1,281.053,18.257Zm-6.4-7.849a0.906,0.906,0,1,1-.907.906A0.907,0.907,0,0,1,274.652,10.408Zm-1.03,2.959a2.217,2.217,0,0,0,2.057,0l3.728,4.184a2.3,2.3,0,0,0-.54.91h-8.431a2.3,2.3,0,0,0-.543-0.914Zm-5.373,4.889a0.906,0.906,0,1,1-.906.906A0.907,0.907,0,0,1,268.25,18.257Zm-1.413,2.716a2.28,2.28,0,0,0,3.6-1.109h8.431a2.28,2.28,0,0,0,3.592,1.115l5.455,6.122v4.389a15.881,15.881,0,0,0-26.991.662V27.6Zm7.8,8.6c-5.747,0-10.625,4.53-11.6,10.631h-2.121V35.045c0.032-.072.055-0.119,0.077-0.159,0.035-.062.077-0.135,0.152-0.29a14.649,14.649,0,0,1,26.762-.406V40.2h-1.676C285.267,34.116,280.355,29.573,274.64,29.573ZM284.819,40.2h-20.36c0.943-5.313,5.194-9.23,10.182-9.23C279.6,30.973,283.876,34.9,284.819,40.2ZM261.647,20.04V19.864h4.3L260.923,25.5V20.741h0.024A0.7,0.7,0,0,0,261.647,20.04ZM260,14.19a1.394,1.394,0,0,0-.329-0.893,2.706,2.706,0,0,1,1.7-1.816v3.97h-2.168A1.41,1.41,0,0,0,260,14.19ZM258.531,7.7a0.318,0.318,0,1,1-.306.317A0.312,0.312,0,0,1,258.531,7.7Zm0,2.667a7.694,7.694,0,0,0,.5,1.293l-0.5,1.105-0.5-1.105A7.623,7.623,0,0,0,258.531,10.363Zm0.435,3.827a0.387,0.387,0,0,1-.774,0,0.368,0.368,0,0,1,.108-0.258h0.558A0.368,0.368,0,0,1,258.966,14.19Zm-3.178-2.695a2.709,2.709,0,0,1,1.666,1.834,1.394,1.394,0,0,0-.3.861,1.41,1.41,0,0,0,.8,1.262h-2.16V11.495Zm0.4,5.375H256.18a0.619,0.619,0,0,1-.342-0.381h5.513a0.621,0.621,0,0,1-.358.389c-0.016,0-.029-0.009-0.046-0.009h-4.762Zm0.7,2.47V18.271h3.361V19.34h-3.361Zm2.637,1.591V40.2h-1.911V20.931h1.911Zm33.114,22.743H256.162V41.6h36.475v2.07Z"/>
    <path class="cls-8" d="M296.432,6.575a0.5,0.5,0,0,0-.327-0.465,5.061,5.061,0,0,0-1.579-.266,3.211,3.211,0,0,0-1.547.359,2.212,2.212,0,0,1-1.063.246,4.241,4.241,0,0,1-1.393-.269V7.228a4.293,4.293,0,0,0,2.933-.145,2.228,2.228,0,0,1,1.07-.238,4.053,4.053,0,0,1,.91.112l0.024,2.462a4.575,4.575,0,0,0-2.546.236,4.082,4.082,0,0,1-1.484.263,4.967,4.967,0,0,1-.908-0.088v1.014a5.95,5.95,0,0,0,.908.074,5.063,5.063,0,0,0,1.848-.331,3.645,3.645,0,0,1,1.321-.268,2.181,2.181,0,0,1,1.092.247,0.5,0.5,0,0,0,.777-0.421Z"/>
  </g>
  <g>
    <path class="cls-8" d="M343.337,40.209h-0.711V20.746h0.025a0.7,0.7,0,0,0,.7-0.7v-2.47a0.7,0.7,0,0,0-.7-0.7h-1.967V6.868a1.572,1.572,0,0,0,.169-1,1.344,1.344,0,1,0-1.569.17V16.876h-1.395a0.7,0.7,0,0,0-.7.7v0.893H333.24a2.3,2.3,0,0,0-2.186-1.606,2.279,2.279,0,0,0-.359.036l-4.013-4.5a2.253,2.253,0,0,0-.521-2.806,3.037,3.037,0,0,1,.859-2.244,2,2,0,0,1,2.087-.5c0.159-.951-0.872-1.77-2.272-1.083a3.715,3.715,0,0,0-1.849,3.012V9.047a1.849,1.849,0,0,0-.74.008V8.772a3.715,3.715,0,0,0-1.849-3.012c-1.4-.687-2.431.132-2.272,1.083a2,2,0,0,1,2.087.5,3.081,3.081,0,0,1,.859,2.306,2.259,2.259,0,0,0-.447,2.741L318.6,16.9a2.227,2.227,0,0,0-2.539,1.571h-4.416V17.713a1.65,1.65,0,0,0,.768-1.389V15.516h0v-4.3a5.386,5.386,0,0,1,.652-0.051,0.527,0.527,0,0,0,.531-0.507,0.518,0.518,0,0,0-.5-0.532,5.216,5.216,0,0,0-3.147,1.038,5.5,5.5,0,0,1-.578-2.1,1.345,1.345,0,1,0-1.679,0,5.414,5.414,0,0,1-.552,2.043,5.216,5.216,0,0,0-3.1-.986,0.52,0.52,0,0,0-.5.534,0.527,0.527,0,0,0,.534.5,4.31,4.31,0,0,1,.683.051v4.3h0.024v0.808a1.649,1.649,0,0,0,.712,1.352v2.37a0.7,0.7,0,0,0,.7.7h0.025V40.209h-0.749a0.7,0.7,0,0,0-.7.7V44.38a0.7,0.7,0,0,0,.7.7h37.875a0.7,0.7,0,0,0,.7-0.7V40.909A0.7,0.7,0,0,0,343.337,40.209ZM338.59,18.276h3.361v1.069H338.59V18.276Zm0.725,8.3V21.061h1.911V40.206h-1.911V26.664l0.045-.04Zm-2.125-6.7v0.177a0.7,0.7,0,0,0,.7.7h0.024V25l-4.573-5.133h3.849Zm-6.136-1.606a0.906,0.906,0,1,1-.906.906A0.907,0.907,0,0,1,331.053,18.263Zm-6.4-7.849a0.906,0.906,0,1,1-.907.906A0.907,0.907,0,0,1,324.652,10.414Zm-1.03,2.959a2.217,2.217,0,0,0,2.057,0l3.728,4.184a2.3,2.3,0,0,0-.54.91h-8.431a2.3,2.3,0,0,0-.543-0.914Zm-5.373,4.889a0.906,0.906,0,1,1-.906.906A0.907,0.907,0,0,1,318.25,18.263Zm-1.413,2.716a2.28,2.28,0,0,0,3.6-1.109h8.431a2.28,2.28,0,0,0,3.592,1.115l5.455,6.122v4.389a15.881,15.881,0,0,0-26.991.662V27.608Zm7.8,8.6c-5.747,0-10.625,4.53-11.6,10.631h-2.121V35.051c0.032-.072.055-0.119,0.077-0.159,0.035-.062.077-0.135,0.152-0.29a14.649,14.649,0,0,1,26.762-.406v6.014h-1.676C335.267,34.122,330.355,29.578,324.64,29.578Zm10.178,10.631h-20.36c0.943-5.313,5.194-9.23,10.182-9.23C329.6,30.978,333.876,34.909,334.819,40.209ZM311.647,20.046V19.869h4.3l-5.028,5.636V20.746h0.024A0.7,0.7,0,0,0,311.647,20.046ZM310,14.2a1.394,1.394,0,0,0-.329-0.893,2.706,2.706,0,0,1,1.7-1.816v3.97h-2.168A1.41,1.41,0,0,0,310,14.2ZM308.531,7.7a0.318,0.318,0,1,1-.306.317A0.312,0.312,0,0,1,308.531,7.7Zm0,2.667a7.694,7.694,0,0,0,.5,1.293l-0.5,1.105-0.5-1.105A7.623,7.623,0,0,0,308.531,10.368Zm0.435,3.827a0.387,0.387,0,0,1-.774,0,0.368,0.368,0,0,1,.108-0.258h0.558A0.368,0.368,0,0,1,308.966,14.2ZM305.788,11.5a2.709,2.709,0,0,1,1.666,1.834,1.394,1.394,0,0,0-.3.861,1.41,1.41,0,0,0,.8,1.262h-2.16V11.5Zm0.4,5.375H306.18a0.619,0.619,0,0,1-.342-0.381h5.513a0.621,0.621,0,0,1-.358.389c-0.016,0-.029-0.009-0.046-0.009h-4.762Zm0.7,2.47V18.276h3.361v1.069h-3.361Zm2.637,1.591V40.206h-1.911V20.936h1.911ZM342.636,43.68H306.162v-2.07h36.475v2.07Z"/>
    <path class="cls-8" d="M346.432,6.581a0.5,0.5,0,0,0-.327-0.465,5.061,5.061,0,0,0-1.579-.266,3.211,3.211,0,0,0-1.547.359,2.212,2.212,0,0,1-1.063.246,4.241,4.241,0,0,1-1.393-.269V7.233a4.293,4.293,0,0,0,2.933-.145,2.228,2.228,0,0,1,1.07-.238,4.053,4.053,0,0,1,.91.112l0.024,2.462a4.575,4.575,0,0,0-2.546.236,4.082,4.082,0,0,1-1.484.263,4.967,4.967,0,0,1-.908-0.088V10.85a5.95,5.95,0,0,0,.908.074,5.063,5.063,0,0,0,1.848-.331,3.645,3.645,0,0,1,1.321-.268,2.181,2.181,0,0,1,1.092.247,0.5,0.5,0,0,0,.777-0.421Z"/>
  </g>
  <g>
    <path class="cls-8" d="M393.337,40.21h-0.711V20.747h0.025a0.7,0.7,0,0,0,.7-0.7v-2.47a0.7,0.7,0,0,0-.7-0.7h-1.967V5.87a1.572,1.572,0,0,0,.169-1,1.344,1.344,0,1,0-1.569.17V16.877h-1.395a0.7,0.7,0,0,0-.7.7V18.47H383.24a2.3,2.3,0,0,0-2.186-1.606,2.279,2.279,0,0,0-.359.036l-4.013-4.5a2.253,2.253,0,0,0-.521-2.806,3.037,3.037,0,0,1,.859-2.244,2,2,0,0,1,2.087-.5c0.159-.951-0.872-1.77-2.272-1.083a3.715,3.715,0,0,0-1.849,3.012V9.048a1.849,1.849,0,0,0-.74.008V8.773a3.715,3.715,0,0,0-1.849-3.012c-1.4-.687-2.431.132-2.272,1.083a2,2,0,0,1,2.087.5,3.081,3.081,0,0,1,.859,2.306,2.259,2.259,0,0,0-.447,2.741L368.6,16.9a2.227,2.227,0,0,0-2.539,1.571h-4.416V17.714a1.65,1.65,0,0,0,.768-1.389V15.518h0v-4.3a5.386,5.386,0,0,1,.652-0.051,0.527,0.527,0,0,0,.531-0.507,0.518,0.518,0,0,0-.5-0.532,5.216,5.216,0,0,0-3.147,1.038,5.5,5.5,0,0,1-.578-2.1,1.345,1.345,0,1,0-1.679,0,5.414,5.414,0,0,1-.552,2.043,5.216,5.216,0,0,0-3.1-.986,0.52,0.52,0,0,0-.5.534,0.527,0.527,0,0,0,.534.5,4.31,4.31,0,0,1,.683.051v4.3h0.024v0.808a1.649,1.649,0,0,0,.712,1.352v2.37a0.7,0.7,0,0,0,.7.7h0.025V40.21h-0.749a0.7,0.7,0,0,0-.7.7v3.471a0.7,0.7,0,0,0,.7.7h37.875a0.7,0.7,0,0,0,.7-0.7V40.91A0.7,0.7,0,0,0,393.337,40.21ZM388.59,18.277h3.361v1.069H388.59V18.277Zm0.725,8.3V21.062h1.911V40.2h-1.911V26.665l0.045-.04Zm-2.125-6.7v0.177a0.7,0.7,0,0,0,.7.7h0.024V25L383.34,19.87h3.849Zm-6.136-1.606a0.906,0.906,0,1,1-.906.906A0.907,0.907,0,0,1,381.053,18.264Zm-6.4-7.849a0.906,0.906,0,1,1-.907.906A0.907,0.907,0,0,1,374.652,10.415Zm-1.03,2.959a2.217,2.217,0,0,0,2.057,0l3.728,4.184a2.3,2.3,0,0,0-.54.91h-8.431a2.3,2.3,0,0,0-.543-0.914Zm-5.373,4.889a0.906,0.906,0,1,1-.906.906A0.907,0.907,0,0,1,368.25,18.264Zm-1.413,2.716a2.28,2.28,0,0,0,3.6-1.109h8.431a2.28,2.28,0,0,0,3.592,1.115l5.455,6.122V31.5a15.881,15.881,0,0,0-26.991.662V27.609Zm7.8,8.6c-5.747,0-10.625,4.53-11.6,10.631h-2.121V35.052c0.032-.072.055-0.119,0.077-0.159,0.035-.062.077-0.135,0.152-0.29a14.649,14.649,0,0,1,26.762-.406V40.21h-1.676C385.267,34.123,380.355,29.579,374.64,29.579ZM384.819,40.21h-20.36c0.943-5.313,5.194-9.23,10.182-9.23C379.6,30.979,383.876,34.91,384.819,40.21ZM361.647,20.047V19.87h4.3l-5.028,5.636V20.747h0.024A0.7,0.7,0,0,0,361.647,20.047ZM360,14.2a1.394,1.394,0,0,0-.329-0.893,2.706,2.706,0,0,1,1.7-1.816v3.97h-2.168A1.41,1.41,0,0,0,360,14.2ZM358.531,7.7a0.318,0.318,0,1,1-.306.317A0.312,0.312,0,0,1,358.531,7.7Zm0,2.667a7.694,7.694,0,0,0,.5,1.293l-0.5,1.105-0.5-1.105A7.623,7.623,0,0,0,358.531,10.369Zm0.435,3.827a0.387,0.387,0,0,1-.774,0,0.368,0.368,0,0,1,.108-0.258h0.558A0.368,0.368,0,0,1,358.966,14.2ZM355.788,11.5a2.709,2.709,0,0,1,1.666,1.834,1.394,1.394,0,0,0-.3.861,1.41,1.41,0,0,0,.8,1.262h-2.16V11.5Zm0.4,5.375H356.18a0.619,0.619,0,0,1-.342-0.381h5.513a0.621,0.621,0,0,1-.358.389c-0.016,0-.029-0.009-0.046-0.009h-4.762Zm0.7,2.47V18.277h3.361v1.069h-3.361Zm2.637,1.591V40.206h-1.911V20.937h1.911Zm33.114,22.743H356.162V41.61h36.475v2.07Z"/>
    <path class="cls-8" d="M396.432,9.2a0.5,0.5,0,0,1-.327.465,5.061,5.061,0,0,1-1.579.266,3.211,3.211,0,0,1-1.547-.359,2.212,2.212,0,0,0-1.063-.246,4.241,4.241,0,0,0-1.393.269V8.543a4.293,4.293,0,0,1,2.933.145,2.228,2.228,0,0,0,1.07.238,4.053,4.053,0,0,0,.91-0.112l0.024-2.462a4.575,4.575,0,0,1-2.546-.236,4.082,4.082,0,0,0-1.484-.263,4.967,4.967,0,0,0-.908.088V4.926a5.95,5.95,0,0,1,.908-0.074,5.063,5.063,0,0,1,1.848.331,3.645,3.645,0,0,0,1.321.268,2.181,2.181,0,0,0,1.092-.247,0.5,0.5,0,0,1,.777.421Z"/>
  </g>
  <g>
    <path class="cls-8" d="M443.337,40.206h-0.711V20.743h0.025a0.7,0.7,0,0,0,.7-0.7v-2.47a0.7,0.7,0,0,0-.7-0.7h-1.967V4.887a1.572,1.572,0,0,0,.169-1,1.344,1.344,0,1,0-1.569.17V16.873h-1.395a0.7,0.7,0,0,0-.7.7v0.893H433.24a2.3,2.3,0,0,0-2.186-1.606,2.279,2.279,0,0,0-.359.036l-4.013-4.5a2.253,2.253,0,0,0-.521-2.806,3.037,3.037,0,0,1,.859-2.244,2,2,0,0,1,2.087-.5c0.159-.951-0.872-1.77-2.272-1.083a3.715,3.715,0,0,0-1.849,3.012V9.044a1.849,1.849,0,0,0-.74.008V8.769a3.715,3.715,0,0,0-1.849-3.012c-1.4-.687-2.431.132-2.272,1.083a2,2,0,0,1,2.087.5,3.081,3.081,0,0,1,.859,2.306,2.259,2.259,0,0,0-.447,2.741L418.6,16.9a2.227,2.227,0,0,0-2.539,1.571h-4.416V17.711a1.65,1.65,0,0,0,.768-1.389V15.514h0v-4.3a5.386,5.386,0,0,1,.652-0.051,0.527,0.527,0,0,0,.531-0.507,0.518,0.518,0,0,0-.5-0.532,5.216,5.216,0,0,0-3.147,1.038,5.5,5.5,0,0,1-.578-2.1,1.345,1.345,0,1,0-1.679,0,5.414,5.414,0,0,1-.552,2.043,5.216,5.216,0,0,0-3.1-.986,0.52,0.52,0,0,0-.5.534,0.527,0.527,0,0,0,.534.5,4.31,4.31,0,0,1,.683.051v4.3h0.024v0.808a1.649,1.649,0,0,0,.712,1.352v2.37a0.7,0.7,0,0,0,.7.7h0.025V40.206h-0.749a0.7,0.7,0,0,0-.7.7v3.471a0.7,0.7,0,0,0,.7.7h37.875a0.7,0.7,0,0,0,.7-0.7V40.906A0.7,0.7,0,0,0,443.337,40.206ZM438.59,18.274h3.361v1.069H438.59V18.274Zm0.725,8.3V21.059h1.911V40.2h-1.911V26.661l0.045-.04Zm-2.125-6.7v0.177a0.7,0.7,0,0,0,.7.7h0.024V25l-4.573-5.133h3.849Zm-6.136-1.606a0.906,0.906,0,1,1-.906.906A0.907,0.907,0,0,1,431.053,18.26Zm-6.4-7.849a0.906,0.906,0,1,1-.907.906A0.907,0.907,0,0,1,424.652,10.411Zm-1.03,2.959a2.217,2.217,0,0,0,2.057,0l3.728,4.184a2.3,2.3,0,0,0-.54.91h-8.431a2.3,2.3,0,0,0-.543-0.914ZM418.25,18.26a0.906,0.906,0,1,1-.906.906A0.907,0.907,0,0,1,418.25,18.26Zm-1.413,2.716a2.28,2.28,0,0,0,3.6-1.109h8.431a2.28,2.28,0,0,0,3.592,1.115l5.455,6.122v4.389a15.881,15.881,0,0,0-26.991.662V27.605Zm7.8,8.6c-5.747,0-10.625,4.53-11.6,10.631h-2.121V35.048c0.032-.072.055-0.119,0.077-0.159,0.035-.062.077-0.135,0.152-0.29a14.649,14.649,0,0,1,26.762-.406v6.014h-1.676C435.267,34.119,430.355,29.575,424.64,29.575Zm10.178,10.631h-20.36c0.943-5.313,5.194-9.23,10.182-9.23C429.6,30.976,433.876,34.906,434.819,40.206ZM411.647,20.043V19.866h4.3L410.923,25.5V20.743h0.024A0.7,0.7,0,0,0,411.647,20.043ZM410,14.193a1.394,1.394,0,0,0-.329-0.893,2.706,2.706,0,0,1,1.7-1.816v3.97h-2.168A1.41,1.41,0,0,0,410,14.193ZM408.531,7.7a0.318,0.318,0,1,1-.306.317A0.312,0.312,0,0,1,408.531,7.7Zm0,2.667a7.694,7.694,0,0,0,.5,1.293l-0.5,1.105-0.5-1.105A7.623,7.623,0,0,0,408.531,10.365Zm0.435,3.827a0.387,0.387,0,0,1-.774,0,0.368,0.368,0,0,1,.108-0.258h0.558A0.368,0.368,0,0,1,408.966,14.193ZM405.788,11.5a2.709,2.709,0,0,1,1.666,1.834,1.394,1.394,0,0,0-.3.861,1.41,1.41,0,0,0,.8,1.262h-2.16V11.5Zm0.4,5.375H406.18a0.619,0.619,0,0,1-.342-0.381h5.513a0.621,0.621,0,0,1-.358.389c-0.016,0-.029-0.009-0.046-0.009h-4.762Zm0.7,2.47V18.274h3.361v1.069h-3.361Zm2.637,1.591V40.206h-1.911V20.934h1.911Zm33.114,22.743H406.162v-2.07h36.475v2.07Z"/>
    <path class="cls-8" d="M446.432,4.6a0.5,0.5,0,0,0-.327-0.465,5.061,5.061,0,0,0-1.579-.266,3.211,3.211,0,0,0-1.547.359,2.212,2.212,0,0,1-1.063.246,4.241,4.241,0,0,1-1.393-.269V5.252a4.293,4.293,0,0,0,2.933-.145,2.228,2.228,0,0,1,1.07-.238,4.053,4.053,0,0,1,.91.112l0.024,2.462a4.575,4.575,0,0,0-2.546.236,4.082,4.082,0,0,1-1.484.263,4.967,4.967,0,0,1-.908-0.088V8.869a5.95,5.95,0,0,0,.908.074,5.063,5.063,0,0,0,1.848-.331,3.645,3.645,0,0,1,1.321-.268,2.181,2.181,0,0,1,1.092.247,0.5,0.5,0,0,0,.777-0.421Z"/>
  </g>
  <g>
    <path class="cls-8" d="M93.337,40.209H92.626V20.747h0.025a0.7,0.7,0,0,0,.7-0.7v-2.47a0.7,0.7,0,0,0-.7-0.7H90.684V8.391a1.572,1.572,0,0,0,.169-1,1.344,1.344,0,1,0-1.569.17v9.316H87.889a0.7,0.7,0,0,0-.7.7v0.893H83.24a2.3,2.3,0,0,0-2.186-1.606,2.279,2.279,0,0,0-.359.036l-4.013-4.5a2.253,2.253,0,0,0-.521-2.806,3.037,3.037,0,0,1,.859-2.244,2,2,0,0,1,2.087-.5c0.159-.951-0.872-1.77-2.272-1.083a3.715,3.715,0,0,0-1.849,3.012V9.048a1.849,1.849,0,0,0-.74.008V8.773a3.715,3.715,0,0,0-1.849-3.012c-1.4-.687-2.431.132-2.272,1.083a2,2,0,0,1,2.087.5,3.081,3.081,0,0,1,.859,2.306,2.259,2.259,0,0,0-.447,2.741L68.6,16.9a2.227,2.227,0,0,0-2.539,1.571H61.647V17.714a1.65,1.65,0,0,0,.768-1.389V15.517h0v-4.3a5.386,5.386,0,0,1,.652-0.051,0.527,0.527,0,0,0,.531-0.507,0.518,0.518,0,0,0-.5-0.532,5.216,5.216,0,0,0-3.147,1.038,5.5,5.5,0,0,1-.578-2.1,1.345,1.345,0,1,0-1.679,0,5.414,5.414,0,0,1-.552,2.043,5.216,5.216,0,0,0-3.1-.986,0.52,0.52,0,0,0-.5.534,0.527,0.527,0,0,0,.534.5,4.31,4.31,0,0,1,.683.051v4.3h0.024v0.808a1.649,1.649,0,0,0,.712,1.352v2.37a0.7,0.7,0,0,0,.7.7h0.025V40.209H55.462a0.7,0.7,0,0,0-.7.7V44.38a0.7,0.7,0,0,0,.7.7H93.337a0.7,0.7,0,0,0,.7-0.7V40.91A0.7,0.7,0,0,0,93.337,40.209ZM88.59,18.277h3.361v1.069H88.59V18.277Zm0.725,8.3V21.062h1.911V40.208H89.314V26.664l0.045-.04Zm-2.125-6.7v0.177a0.7,0.7,0,0,0,.7.7h0.024V25L83.34,19.87h3.849Zm-6.136-1.606a0.906,0.906,0,1,1-.906.906A0.907,0.907,0,0,1,81.053,18.263Zm-6.4-7.849a0.906,0.906,0,1,1-.907.906A0.907,0.907,0,0,1,74.652,10.414Zm-1.03,2.959a2.217,2.217,0,0,0,2.057,0l3.728,4.184a2.3,2.3,0,0,0-.54.91H70.436a2.3,2.3,0,0,0-.543-0.914ZM68.25,18.263a0.906,0.906,0,1,1-.906.906A0.907,0.907,0,0,1,68.25,18.263Zm-1.413,2.716a2.28,2.28,0,0,0,3.6-1.109h8.431a2.28,2.28,0,0,0,3.592,1.115l5.455,6.122V31.5a15.881,15.881,0,0,0-26.991.662V27.609Zm7.8,8.6c-5.747,0-10.625,4.53-11.6,10.631H60.923V35.051c0.032-.072.055-0.119,0.077-0.159,0.035-.062.077-0.135,0.152-0.29A14.649,14.649,0,0,1,87.914,34.2v6.014H86.238C85.267,34.122,80.355,29.579,74.64,29.579ZM84.819,40.209H64.459c0.943-5.313,5.194-9.23,10.182-9.23C79.6,30.979,83.876,34.909,84.819,40.209ZM61.647,20.046V19.87h4.3l-5.028,5.636V20.747h0.024A0.7,0.7,0,0,0,61.647,20.046ZM60,14.2a1.394,1.394,0,0,0-.329-0.893,2.706,2.706,0,0,1,1.7-1.816v3.97H59.209A1.41,1.41,0,0,0,60,14.2ZM58.531,7.7a0.318,0.318,0,1,1-.306.317A0.312,0.312,0,0,1,58.531,7.7Zm0,2.667a7.694,7.694,0,0,0,.5,1.293l-0.5,1.105-0.5-1.105A7.623,7.623,0,0,0,58.531,10.369ZM58.966,14.2a0.387,0.387,0,0,1-.774,0,0.368,0.368,0,0,1,.108-0.258h0.558A0.368,0.368,0,0,1,58.966,14.2ZM55.788,11.5a2.709,2.709,0,0,1,1.666,1.834,1.394,1.394,0,0,0-.3.861,1.41,1.41,0,0,0,.8,1.262h-2.16V11.5Zm0.4,5.375H56.18a0.619,0.619,0,0,1-.342-0.381H61.35a0.621,0.621,0,0,1-.358.389c-0.016,0-.029-0.009-0.046-0.009H56.185Zm0.7,2.47V18.277h3.361v1.069H56.886Zm2.637,1.591V40.2H57.611V20.937h1.911ZM92.636,43.68H56.162V41.61H92.636v2.07Z"/>
    <path class="cls-8" d="M96.432,8.1A0.5,0.5,0,0,0,96.1,7.639a5.061,5.061,0,0,0-1.579-.266,3.211,3.211,0,0,0-1.547.359,2.212,2.212,0,0,1-1.063.246,4.241,4.241,0,0,1-1.393-.269V8.756a4.293,4.293,0,0,0,2.933-.145,2.228,2.228,0,0,1,1.07-.238,4.053,4.053,0,0,1,.91.112l0.024,2.462a4.575,4.575,0,0,0-2.546.236,4.082,4.082,0,0,1-1.484.263,4.967,4.967,0,0,1-.908-0.088v1.014a5.95,5.95,0,0,0,.908.074,5.063,5.063,0,0,0,1.848-.331,3.645,3.645,0,0,1,1.321-.268,2.181,2.181,0,0,1,1.092.247,0.5,0.5,0,0,0,.777-0.421Z"/>
  </g>
</svg>
