<svg id="Layer_1" data-name="Layer 1" xmlns="http://www.w3.org/2000/svg" viewBox="0 0 450 100"><title>disruption_spritesheet</title><path  d="M280.81,14.85a1.4,1.4,0,0,0-.7-0.6A3.59,3.59,0,0,0,278,11.16L278,10.9a0.91,0.91,0,0,0-.37-1.23l-1-.28,1-3.44-3.77-1.08-1,3.44L272,8l-0.14,0a1,1,0,0,0-.83.87l-0.07.25a3.61,3.61,0,0,0-3.45,1.49,1.44,1.44,0,0,0-1.6,1l-8.58,30a0.7,0.7,0,0,0,.06.53,0.69,0.69,0,0,0,.33.29s0,0.06,0,.09a1.07,1.07,0,0,0,.65.51l12.34,3.53a1,1,0,0,0,.9-0.15h0.09a0.7,0.7,0,0,0,.68-0.51l8.58-30A1.41,1.41,0,0,0,280.81,14.85ZM267,12.59l0.07-.23,12.24,3.5,0.13,0-7.71,27-3.84-1.1-8.54-2.44Zm4.16,32.29-12.38-3.54L259.2,40l12.38,3.54Z"/><path  d="M274.57,26.35a0.36,0.36,0,0,0-.13-0.63l-2.28-.65,3-4.13a0.36,0.36,0,0,0-.19-0.56l-3.42-1a0.36,0.36,0,0,0-.38.12l-5.86,7.35a0.36,0.36,0,0,0,.18.57L267.51,28l-4.45,7a0.36,0.36,0,0,0,.54.47Z"/><path  d="M279.7,7.56a0.74,0.74,0,0,0,.26,0l0.8-.31a0.73,0.73,0,0,0-.52-1.36l-0.8.31A0.73,0.73,0,0,0,279.7,7.56Z"/><path  d="M283.25,8.54A0.73,0.73,0,0,0,282.38,8l-1.69.41a0.73,0.73,0,0,0,.17,1.43l0.17,0,1.69-.41A0.72,0.72,0,0,0,283.25,8.54Z"/><path  d="M330.81,14.85a1.4,1.4,0,0,0-.7-0.6A3.59,3.59,0,0,0,328,11.16L328,10.9a0.91,0.91,0,0,0-.37-1.23l-1-.28,1-3.44-3.77-1.08-1,3.44L322,8l-0.14,0a1,1,0,0,0-.83.87l-0.07.25a3.61,3.61,0,0,0-3.45,1.49,1.44,1.44,0,0,0-1.6,1l-8.58,30a0.7,0.7,0,0,0,.06.53,0.69,0.69,0,0,0,.33.29s0,0.06,0,.09a1.07,1.07,0,0,0,.65.51l12.34,3.53a1,1,0,0,0,.9-0.15h0.09a0.7,0.7,0,0,0,.68-0.51l8.58-30A1.41,1.41,0,0,0,330.81,14.85ZM317,12.59l0.07-.23,12.24,3.5,0.13,0-7.71,27-3.84-1.1-8.54-2.44Zm4.16,32.29-12.38-3.54L309.2,40l12.38,3.54Z"/><path  d="M324.57,26.35a0.36,0.36,0,0,0-.13-0.63l-2.28-.65,3-4.13a0.36,0.36,0,0,0-.19-0.56l-3.42-1a0.36,0.36,0,0,0-.38.12l-5.86,7.35a0.36,0.36,0,0,0,.18.57L317.51,28l-4.45,7a0.36,0.36,0,0,0,.54.47Z"/><path  d="M335.12,10.62l-1.74-.09a0.73,0.73,0,1,0-.07,1.45L335,12.07h0A0.73,0.73,0,0,0,335.12,10.62Z"/><path  d="M329.7,7.56a0.74,0.74,0,0,0,.26,0l0.8-.31a0.73,0.73,0,0,0-.52-1.36l-0.8.31A0.73,0.73,0,0,0,329.7,7.56Z"/><path  d="M333.25,8.54A0.73,0.73,0,0,0,332.38,8l-1.69.41a0.73,0.73,0,0,0,.17,1.43l0.17,0,1.69-.41A0.72,0.72,0,0,0,333.25,8.54Z"/><path  d="M337.86,7.42A0.73,0.73,0,0,0,337,6.89l-1.69.41a0.73,0.73,0,0,0,.17,1.43l0.17,0,1.69-.41A0.72,0.72,0,0,0,337.86,7.42Z"/><path  d="M380.81,14.85a1.4,1.4,0,0,0-.7-0.6A3.59,3.59,0,0,0,378,11.16L378,10.9a0.91,0.91,0,0,0-.37-1.23l-1-.28,1-3.44-3.77-1.08-1,3.44L372,8l-0.14,0a1,1,0,0,0-.83.87l-0.07.25a3.61,3.61,0,0,0-3.45,1.49,1.44,1.44,0,0,0-1.6,1l-8.58,30a0.7,0.7,0,0,0,.06.53,0.69,0.69,0,0,0,.33.29s0,0.06,0,.09a1.07,1.07,0,0,0,.65.51l12.34,3.53a1,1,0,0,0,.9-0.15h0.09a0.7,0.7,0,0,0,.68-0.51l8.58-30A1.41,1.41,0,0,0,380.81,14.85ZM367,12.59l0.07-.23,12.24,3.5,0.13,0-7.71,27-3.84-1.1-8.54-2.44Zm4.16,32.29-12.38-3.54L359.2,40l12.38,3.54Z"/><path  d="M374.57,26.35a0.36,0.36,0,0,0-.13-0.63l-2.28-.65,3-4.13a0.36,0.36,0,0,0-.19-0.56l-3.42-1a0.36,0.36,0,0,0-.38.12l-5.86,7.35a0.36,0.36,0,0,0,.18.57L367.51,28l-4.45,7a0.36,0.36,0,0,0,.54.47Z"/><path  d="M385.12,10.62l-1.74-.09a0.73,0.73,0,1,0-.07,1.45L385,12.07h0A0.73,0.73,0,0,0,385.12,10.62Z"/><path  d="M383.3,6.17a0.74,0.74,0,0,0,.26,0l1.63-.62a0.73,0.73,0,1,0-.52-1.36L383,4.77A0.73,0.73,0,0,0,383.3,6.17Z"/><path  d="M379.7,7.56a0.74,0.74,0,0,0,.26,0l0.8-.31a0.73,0.73,0,0,0-.52-1.36l-0.8.31A0.73,0.73,0,0,0,379.7,7.56Z"/><path  d="M392.47,6.31a0.73,0.73,0,0,0-.88-0.53l-1.69.41a0.73,0.73,0,0,0,.17,1.43l0.17,0,1.69-.41A0.72,0.72,0,0,0,392.47,6.31Z"/><path  d="M383.25,8.54A0.73,0.73,0,0,0,382.38,8l-1.69.41a0.73,0.73,0,0,0,.17,1.43l0.17,0,1.69-.41A0.72,0.72,0,0,0,383.25,8.54Z"/><path  d="M387.86,7.42A0.73,0.73,0,0,0,387,6.89l-1.69.41a0.73,0.73,0,0,0,.17,1.43l0.17,0,1.69-.41A0.72,0.72,0,0,0,387.86,7.42Z"/><path  d="M430.81,14.85a1.4,1.4,0,0,0-.7-0.6A3.59,3.59,0,0,0,428,11.16L428,10.9a0.91,0.91,0,0,0-.37-1.23l-1-.28,1-3.44-3.77-1.08-1,3.44L422,8l-0.14,0a1,1,0,0,0-.83.87l-0.07.25a3.61,3.61,0,0,0-3.45,1.49,1.44,1.44,0,0,0-1.6,1l-8.58,30a0.7,0.7,0,0,0,.06.53,0.69,0.69,0,0,0,.33.29s0,0.06,0,.09a1.07,1.07,0,0,0,.65.51l12.34,3.53a1,1,0,0,0,.9-0.15h0.09a0.7,0.7,0,0,0,.68-0.51l8.58-30A1.41,1.41,0,0,0,430.81,14.85ZM417,12.59l0.07-.23,12.24,3.5,0.13,0-7.71,27-3.84-1.1-8.54-2.44Zm4.16,32.29-12.38-3.54L409.2,40l12.38,3.54Z"/><path  d="M424.57,26.35a0.36,0.36,0,0,0-.13-0.63l-2.28-.65,3-4.13a0.36,0.36,0,0,0-.19-0.56l-3.42-1a0.36,0.36,0,0,0-.38.12l-5.86,7.35a0.36,0.36,0,0,0,.18.57L417.51,28l-4.45,7a0.36,0.36,0,0,0,.54.47Z"/><path  d="M439.85,10.86l-1.74-.09a0.74,0.74,0,0,0-.76.69,0.73,0.73,0,0,0,.69.76l1.74,0.09h0A0.73,0.73,0,0,0,439.85,10.86Z"/><path  d="M435.12,10.62l-1.74-.09a0.73,0.73,0,1,0-.07,1.45L435,12.07h0A0.73,0.73,0,0,0,435.12,10.62Z"/><path  d="M433.3,6.17a0.74,0.74,0,0,0,.26,0l1.63-.62a0.73,0.73,0,1,0-.52-1.36L433,4.77A0.73,0.73,0,0,0,433.3,6.17Z"/><path  d="M437.73,4.47a0.74,0.74,0,0,0,.26,0l1.63-.62a0.73,0.73,0,0,0-.52-1.36l-1.63.63A0.73,0.73,0,0,0,437.73,4.47Z"/><path  d="M429.7,7.56a0.74,0.74,0,0,0,.26,0l0.8-.31a0.73,0.73,0,0,0-.52-1.36l-0.8.31A0.73,0.73,0,0,0,429.7,7.56Z"/><path  d="M442.47,6.31a0.73,0.73,0,0,0-.88-0.53l-1.69.41a0.73,0.73,0,0,0,.17,1.43l0.17,0,1.69-.41A0.72,0.72,0,0,0,442.47,6.31Z"/><path  d="M433.25,8.54A0.73,0.73,0,0,0,432.38,8l-1.69.41a0.73,0.73,0,0,0,.17,1.43l0.17,0,1.69-.41A0.72,0.72,0,0,0,433.25,8.54Z"/><path  d="M437.86,7.42A0.73,0.73,0,0,0,437,6.89l-1.69.41a0.73,0.73,0,0,0,.17,1.43l0.17,0,1.69-.41A0.72,0.72,0,0,0,437.86,7.42Z"/><path  d="M30.81,64.85a1.4,1.4,0,0,0-.7-0.6A3.59,3.59,0,0,0,28,61.16L28,60.9a0.91,0.91,0,0,0-.37-1.23l-1-.28,1-3.44-3.77-1.08-1,3.44L22,58l-0.14,0a1,1,0,0,0-.83.87l-0.07.25a3.61,3.61,0,0,0-3.45,1.49,1.44,1.44,0,0,0-1.6,1l-8.58,30a0.7,0.7,0,0,0,.06.53,0.69,0.69,0,0,0,.33.29s0,0.06,0,.09a1.07,1.07,0,0,0,.65.51l12.34,3.53a1,1,0,0,0,.9-0.15h0.09a0.7,0.7,0,0,0,.68-0.51l8.58-30A1.41,1.41,0,0,0,30.81,64.85ZM17,62.59l0.07-.23,12.24,3.5,0.13,0-7.71,27-3.84-1.1L9.4,89.34ZM21.2,94.88L8.82,91.34,9.2,90l12.38,3.54Z"/><path  d="M24.57,76.35a0.36,0.36,0,0,0-.13-0.63l-2.28-.65,3-4.13a0.36,0.36,0,0,0-.19-0.56l-3.42-1a0.36,0.36,0,0,0-.38.12l-5.86,7.35a0.36,0.36,0,0,0,.18.57L17.51,78l-4.45,7a0.36,0.36,0,0,0,.54.47Z"/><path  d="M39.85,60.86l-1.74-.09a0.74,0.74,0,0,0-.76.69,0.73,0.73,0,0,0,.69.76l1.74,0.09h0A0.73,0.73,0,0,0,39.85,60.86Z"/><path  d="M35.12,60.62l-1.74-.09A0.73,0.73,0,1,0,33.31,62L35,62.07h0A0.73,0.73,0,0,0,35.12,60.62Z"/><path  d="M33.3,56.17a0.74,0.74,0,0,0,.26,0l1.63-.62a0.73,0.73,0,0,0-.52-1.36L33,54.77A0.73,0.73,0,0,0,33.3,56.17Z"/><path  d="M37.73,54.47a0.74,0.74,0,0,0,.26,0l1.63-.62a0.73,0.73,0,1,0-.52-1.36l-1.63.63A0.73,0.73,0,0,0,37.73,54.47Z"/><path  d="M29.7,57.56a0.74,0.74,0,0,0,.26,0l0.8-.31a0.73,0.73,0,1,0-.52-1.36l-0.8.31A0.73,0.73,0,0,0,29.7,57.56Z"/><path  d="M42.47,56.31a0.73,0.73,0,0,0-.88-0.53l-1.69.41a0.73,0.73,0,0,0,.17,1.43l0.17,0,1.69-.41A0.72,0.72,0,0,0,42.47,56.31Z"/><path  d="M33.25,58.54A0.73,0.73,0,0,0,32.38,58l-1.69.41a0.73,0.73,0,0,0,.17,1.43l0.17,0,1.69-.41A0.72,0.72,0,0,0,33.25,58.54Z"/><path  d="M47.08,55.19a0.73,0.73,0,0,0-.88-0.53l-1.69.41a0.73,0.73,0,0,0,.17,1.43l0.17,0,1.69-.41A0.72,0.72,0,0,0,47.08,55.19Z"/><path  d="M37.86,57.42A0.73,0.73,0,0,0,37,56.89l-1.69.41a0.73,0.73,0,0,0,.17,1.43l0.17,0,1.69-.41A0.72,0.72,0,0,0,37.86,57.42Z"/><path  d="M80.81,64.85a1.4,1.4,0,0,0-.7-0.6A3.59,3.59,0,0,0,78,61.16L78,60.9a0.91,0.91,0,0,0-.37-1.23l-1-.28,1-3.44-3.77-1.08-1,3.44L72,58l-0.14,0a1,1,0,0,0-.83.87l-0.07.25a3.61,3.61,0,0,0-3.45,1.49,1.44,1.44,0,0,0-1.6,1l-8.58,30a0.7,0.7,0,0,0,.06.53,0.69,0.69,0,0,0,.33.29s0,0.06,0,.09a1.07,1.07,0,0,0,.65.51l12.34,3.53a1,1,0,0,0,.9-0.15h0.09a0.7,0.7,0,0,0,.68-0.51l8.58-30A1.41,1.41,0,0,0,80.81,64.85ZM67,62.59l0.07-.23,12.24,3.5,0.13,0-7.71,27-3.84-1.1L59.4,89.34ZM71.2,94.88L58.82,91.34,59.2,90l12.38,3.54Z"/><path  d="M74.57,76.35a0.36,0.36,0,0,0-.13-0.63l-2.28-.65,3-4.13a0.36,0.36,0,0,0-.19-0.56l-3.42-1a0.36,0.36,0,0,0-.38.12l-5.86,7.35a0.36,0.36,0,0,0,.18.57L67.51,78l-4.45,7a0.36,0.36,0,0,0,.54.47Z"/><path  d="M93.6,61l-0.75,0a0.74,0.74,0,0,0-.76.69,0.73,0.73,0,0,0,.69.76l0.75,0h0A0.73,0.73,0,0,0,93.6,61Z"/><path  d="M89.85,60.86l-1.74-.09a0.74,0.74,0,0,0-.76.69,0.73,0.73,0,0,0,.69.76l1.74,0.09h0A0.73,0.73,0,0,0,89.85,60.86Z"/><path  d="M85.12,60.62l-1.74-.09A0.73,0.73,0,1,0,83.31,62L85,62.07h0A0.73,0.73,0,0,0,85.12,60.62Z"/><path  d="M83.3,56.17a0.74,0.74,0,0,0,.26,0l1.63-.62a0.73,0.73,0,0,0-.52-1.36L83,54.77A0.73,0.73,0,0,0,83.3,56.17Z"/><path  d="M87.73,54.47a0.74,0.74,0,0,0,.26,0l1.63-.62a0.73,0.73,0,1,0-.52-1.36l-1.63.63A0.73,0.73,0,0,0,87.73,54.47Z"/><path  d="M79.7,57.56a0.74,0.74,0,0,0,.26,0l0.8-.31a0.73,0.73,0,1,0-.52-1.36l-0.8.31A0.73,0.73,0,0,0,79.7,57.56Z"/><path  d="M92.47,56.31a0.73,0.73,0,0,0-.88-0.53l-1.69.41a0.73,0.73,0,0,0,.17,1.43l0.17,0,1.69-.41A0.72,0.72,0,0,0,92.47,56.31Z"/><path  d="M83.25,58.54A0.73,0.73,0,0,0,82.38,58l-1.69.41a0.73,0.73,0,0,0,.17,1.43l0.17,0,1.69-.41A0.72,0.72,0,0,0,83.25,58.54Z"/><path  d="M97.08,55.19a0.73,0.73,0,0,0-.88-0.53l-1.69.41a0.73,0.73,0,0,0,.17,1.43l0.17,0,1.69-.41A0.72,0.72,0,0,0,97.08,55.19Z"/><path  d="M87.86,57.42A0.73,0.73,0,0,0,87,56.89l-1.69.41a0.73,0.73,0,0,0,.17,1.43l0.17,0,1.69-.41A0.72,0.72,0,0,0,87.86,57.42Z"/><path  d="M130.81,64.85a1.4,1.4,0,0,0-.7-0.6A3.59,3.59,0,0,0,128,61.16L128,60.9a0.91,0.91,0,0,0-.37-1.23l-1-.28,1-3.44-3.77-1.08-1,3.44L122,58l-0.14,0a1,1,0,0,0-.83.87l-0.07.25a3.61,3.61,0,0,0-3.45,1.49,1.44,1.44,0,0,0-1.6,1l-8.58,30a0.7,0.7,0,0,0,.06.53,0.69,0.69,0,0,0,.33.29s0,0.06,0,.09a1.07,1.07,0,0,0,.65.51l12.34,3.53a1,1,0,0,0,.9-0.15h0.09a0.7,0.7,0,0,0,.68-0.51l8.58-30A1.41,1.41,0,0,0,130.81,64.85ZM117,62.59l0.07-.23,12.24,3.5,0.13,0-7.71,27-3.84-1.1-8.54-2.44Zm4.16,32.29-12.38-3.54L109.2,90l12.38,3.54Z"/><path  d="M124.57,76.35a0.36,0.36,0,0,0-.13-0.63l-2.28-.65,3-4.13a0.36,0.36,0,0,0-.19-0.56l-3.42-1a0.36,0.36,0,0,0-.38.12l-5.86,7.35a0.36,0.36,0,0,0,.18.57L117.51,78l-4.45,7a0.36,0.36,0,0,0,.54.47Z"/><path  d="M143.6,61l-0.75,0a0.74,0.74,0,0,0-.76.69,0.73,0.73,0,0,0,.69.76l0.75,0h0A0.73,0.73,0,0,0,143.6,61Z"/><path  d="M139.85,60.86l-1.74-.09a0.74,0.74,0,0,0-.76.69,0.73,0.73,0,0,0,.69.76l1.74,0.09h0A0.73,0.73,0,0,0,139.85,60.86Z"/><path  d="M135.12,60.62l-1.74-.09a0.73,0.73,0,1,0-.07,1.45L135,62.07h0A0.73,0.73,0,0,0,135.12,60.62Z"/><path  d="M133.3,56.17a0.74,0.74,0,0,0,.26,0l1.63-.62a0.73,0.73,0,1,0-.52-1.36l-1.63.63A0.73,0.73,0,0,0,133.3,56.17Z"/><path  d="M137.73,54.47a0.74,0.74,0,0,0,.26,0l1.63-.62a0.73,0.73,0,0,0-.52-1.36l-1.63.63A0.73,0.73,0,0,0,137.73,54.47Z"/><path  d="M129.7,57.56a0.74,0.74,0,0,0,.26,0l0.8-.31a0.73,0.73,0,0,0-.52-1.36l-0.8.31A0.73,0.73,0,0,0,129.7,57.56Z"/><path  d="M142.47,56.31a0.73,0.73,0,0,0-.88-0.53l-1.69.41a0.73,0.73,0,0,0,.17,1.43l0.17,0,1.69-.41A0.72,0.72,0,0,0,142.47,56.31Z"/><path  d="M133.25,58.54a0.73,0.73,0,0,0-.88-0.53l-1.69.41a0.73,0.73,0,0,0,.17,1.43l0.17,0,1.69-.41A0.72,0.72,0,0,0,133.25,58.54Z"/><path  d="M147.08,55.19a0.73,0.73,0,0,0-.88-0.53l-1.69.41a0.73,0.73,0,0,0,.17,1.43l0.17,0,1.69-.41A0.72,0.72,0,0,0,147.08,55.19Z"/><path  d="M137.86,57.42a0.73,0.73,0,0,0-.88-0.53l-1.69.41a0.73,0.73,0,0,0,.17,1.43l0.17,0,1.69-.41A0.72,0.72,0,0,0,137.86,57.42Z"/><path  d="M180.81,64.85a1.4,1.4,0,0,0-.7-0.6A3.59,3.59,0,0,0,178,61.16L178,60.9a0.91,0.91,0,0,0-.37-1.23l-1-.28,1-3.44-3.77-1.08-1,3.44L172,58l-0.14,0a1,1,0,0,0-.83.87l-0.07.25a3.61,3.61,0,0,0-3.45,1.49,1.44,1.44,0,0,0-1.6,1l-8.58,30a0.7,0.7,0,0,0,.06.53,0.69,0.69,0,0,0,.33.29s0,0.06,0,.09a1.07,1.07,0,0,0,.65.51l12.34,3.53a1,1,0,0,0,.9-0.15h0.09a0.7,0.7,0,0,0,.68-0.51l8.58-30A1.41,1.41,0,0,0,180.81,64.85ZM167,62.59l0.07-.23,12.24,3.5,0.13,0-7.71,27-3.84-1.1-8.54-2.44Zm4.16,32.29-12.38-3.54L159.2,90l12.38,3.54Z"/><path  d="M174.57,76.35a0.36,0.36,0,0,0-.13-0.63l-2.28-.65,3-4.13a0.36,0.36,0,0,0-.19-0.56l-3.42-1a0.36,0.36,0,0,0-.38.12l-5.86,7.35a0.36,0.36,0,0,0,.18.57L167.51,78l-4.45,7a0.36,0.36,0,0,0,.54.47Z"/><path  d="M193.6,61l-0.75,0a0.74,0.74,0,0,0-.76.69,0.73,0.73,0,0,0,.69.76l0.75,0h0A0.73,0.73,0,0,0,193.6,61Z"/><path  d="M189.85,60.86l-1.74-.09a0.74,0.74,0,0,0-.76.69,0.73,0.73,0,0,0,.69.76l1.74,0.09h0A0.73,0.73,0,0,0,189.85,60.86Z"/><path  d="M183.3,56.17a0.74,0.74,0,0,0,.26,0l1.63-.62a0.73,0.73,0,1,0-.52-1.36l-1.63.63A0.73,0.73,0,0,0,183.3,56.17Z"/><path  d="M187.73,54.47a0.74,0.74,0,0,0,.26,0l1.63-.62a0.73,0.73,0,0,0-.52-1.36l-1.63.63A0.73,0.73,0,0,0,187.73,54.47Z"/><path  d="M192.47,56.31a0.73,0.73,0,0,0-.88-0.53l-1.69.41a0.73,0.73,0,0,0,.17,1.43l0.17,0,1.69-.41A0.72,0.72,0,0,0,192.47,56.31Z"/><path  d="M183.25,58.54a0.73,0.73,0,0,0-.88-0.53l-1.69.41a0.73,0.73,0,0,0,.17,1.43l0.17,0,1.69-.41A0.72,0.72,0,0,0,183.25,58.54Z"/><path  d="M197.08,55.19a0.73,0.73,0,0,0-.88-0.53l-1.69.41a0.73,0.73,0,0,0,.17,1.43l0.17,0,1.69-.41A0.72,0.72,0,0,0,197.08,55.19Z"/><path  d="M187.86,57.42a0.73,0.73,0,0,0-.88-0.53l-1.69.41a0.73,0.73,0,0,0,.17,1.43l0.17,0,1.69-.41A0.72,0.72,0,0,0,187.86,57.42Z"/><path  d="M231,64.57a1.4,1.4,0,0,0-.75-0.54,3.59,3.59,0,0,0-2.41-2.9l0.05-.27a0.91,0.91,0,0,0-.48-1.2l-1-.2L227,56l-3.85-.75-0.68,3.52-1-.19H221.4a1,1,0,0,0-.75.94l-0.05.26a3.61,3.61,0,0,0-3.31,1.78,1.44,1.44,0,0,0-1.51,1.14l-5.94,30.63a0.7,0.7,0,0,0,.11.52,0.69,0.69,0,0,0,.36.26s0,0.06,0,.09a1.07,1.07,0,0,0,.69.46l12.6,2.44a1,1,0,0,0,.88-0.23h0.09a0.7,0.7,0,0,0,.63-0.57l5.94-30.63A1.41,1.41,0,0,0,231,64.57ZM217,63.51l0.05-.23,12.5,2.42,0.13,0-5.34,27.55-3.92-.76-8.72-1.69ZM224,95.32l-12.64-2.45,0.26-1.33L224.25,94Z"/><path  d="M225.74,76.57a0.36,0.36,0,0,0-.19-0.61l-2.32-.45,2.6-4.37a0.36,0.36,0,0,0-.24-0.54l-3.49-.68a0.36,0.36,0,0,0-.37.16l-5.2,7.83a0.36,0.36,0,0,0,.23.56l2.09,0.41L215,86.19a0.36,0.36,0,0,0,.58.43Z"/><path  d="M243.37,59.67l-0.75,0a0.74,0.74,0,0,0-.7.75,0.73,0.73,0,0,0,.75.7l0.75,0h0A0.73,0.73,0,0,0,243.37,59.67Z"/><path  d="M239.62,59.81l-1.74.06a0.74,0.74,0,0,0-.7.75,0.73,0.73,0,0,0,.75.7l1.74-.06h0A0.73,0.73,0,0,0,239.62,59.81Z"/><path  d="M236.95,53.63a0.74,0.74,0,0,0,.26-0.07l1.57-.76a0.73,0.73,0,0,0-.64-1.31l-1.57.76A0.73,0.73,0,0,0,236.95,53.63Z"/><path  d="M241.83,55a0.73,0.73,0,0,0-.92-0.46l-1.65.56a0.73,0.73,0,0,0,.29,1.41l0.17,0,1.65-.56A0.72,0.72,0,0,0,241.83,55Z"/><path  d="M246.32,53.53a0.73,0.73,0,0,0-.92-0.46l-1.65.56A0.73,0.73,0,0,0,244,55l0.17,0,1.65-.56A0.72,0.72,0,0,0,246.32,53.53Z"/><path  d="M237.34,56.56a0.73,0.73,0,0,0-.92-0.46l-1.65.56a0.73,0.73,0,0,0,.29,1.41l0.17,0,1.65-.56A0.72,0.72,0,0,0,237.34,56.56Z"/><path  d="M281.31,64.4a1.4,1.4,0,0,0-.78-0.48,3.59,3.59,0,0,0-2.59-2.73l0-.27a0.91,0.91,0,0,0-.56-1.16l-1-.13,0.45-3.55-3.89-.49-0.45,3.55-1-.12h-0.14a1,1,0,0,0-.68,1l0,0.26a3.61,3.61,0,0,0-3.18,2A1.44,1.44,0,0,0,266,63.5l-3.9,31a0.7,0.7,0,0,0,.14.52,0.69,0.69,0,0,0,.37.23s0,0.06,0,.08a1.07,1.07,0,0,0,.72.41l12.73,1.6A1,1,0,0,0,277,97h0.09a0.7,0.7,0,0,0,.59-0.61l3.9-31A1.41,1.41,0,0,0,281.31,64.4Zm-13.95-.14,0-.23L280,65.63h0.13l-3.51,27.84-4-.5-8.81-1.11Zm9,31.27-12.77-1.61,0.17-1.35,12.77,1.61Z"/><path  d="M276.9,76.72a0.36,0.36,0,0,0-.23-0.6l-2.35-.3,2.3-4.53a0.36,0.36,0,0,0-.28-0.52l-3.52-.44a0.36,0.36,0,0,0-.36.18l-4.67,8.16a0.36,0.36,0,0,0,.27.54l2.12,0.27L266.85,87a0.36,0.36,0,0,0,.6.39Z"/><path  d="M293.37,58.69l-0.75.08a0.74,0.74,0,0,0-.65.8,0.73,0.73,0,0,0,.8.65l0.75-.08h0A0.73,0.73,0,0,0,293.37,58.69Z"/><path  d="M289.64,59.08l-1.73.18a0.74,0.74,0,0,0-.65.8,0.73,0.73,0,0,0,.8.65l1.73-.18h0A0.73,0.73,0,0,0,289.64,59.08Z"/><path  d="M286.56,53.09a0.74,0.74,0,0,0,.25-0.09l1.51-.87a0.73,0.73,0,1,0-.72-1.26l-1.51.87A0.73,0.73,0,0,0,286.56,53.09Z"/><path  d="M291.53,54.18a0.73,0.73,0,0,0-.95-0.39l-1.61.66a0.73,0.73,0,0,0,.39,1.39l0.17,0,1.61-.66A0.72,0.72,0,0,0,291.53,54.18Z"/><path  d="M295.91,52.37A0.73,0.73,0,0,0,295,52l-1.61.66a0.73,0.73,0,0,0,.39,1.39l0.17,0,1.61-.66A0.72,0.72,0,0,0,295.91,52.37Z"/><path  d="M287.14,56a0.73,0.73,0,0,0-.95-0.39l-1.61.66a0.73,0.73,0,0,0,.39,1.39l0.17,0,1.61-.66A0.72,0.72,0,0,0,287.14,56Z"/><path  d="M331.44,63.77a1.4,1.4,0,0,0-.82-0.43,3.59,3.59,0,0,0-2.78-2.54l0-.27a0.91,0.91,0,0,0-.64-1.12l-1-.06,0.2-3.58-3.91-.21-0.2,3.58-1-.05h-0.14a1,1,0,0,0-.61,1v0.26a3.61,3.61,0,0,0-3,2.22,1.44,1.44,0,0,0-1.34,1.33l-1.71,31.16a0.7,0.7,0,0,0,.18.51,0.69,0.69,0,0,0,.39.21s0,0.06,0,.08a1.07,1.07,0,0,0,.75.36l12.81,0.71a1,1,0,0,0,.84-0.34h0.09a0.7,0.7,0,0,0,.55-0.65L331.8,64.8A1.41,1.41,0,0,0,331.44,63.77Zm-13.92.85,0-.24,12.71,0.7h0.13l-1.54,28-4-.22L316,92.39Zm11.21,30.56-12.85-.71,0.07-1.35,12.85,0.71Z"/><path  d="M327.91,76.37a0.36,0.36,0,0,0-.27-0.58l-2.36-.13,2-4.68a0.36,0.36,0,0,0-.31-0.5l-3.55-.19a0.36,0.36,0,0,0-.35.2L319,78.94a0.36,0.36,0,0,0,.31.52l2.13,0.12-2.8,7.78a0.36,0.36,0,0,0,.63.34Z"/><path  d="M344.37,58.69l-0.75.08a0.74,0.74,0,0,0-.65.8,0.73,0.73,0,0,0,.8.65l0.75-.08h0A0.73,0.73,0,0,0,344.37,58.69Z"/><path  d="M340.64,59.08l-1.73.18a0.74,0.74,0,0,0-.65.8,0.73,0.73,0,0,0,.8.65l1.73-.18h0A0.73,0.73,0,0,0,340.64,59.08Z"/><path  d="M342.53,54.18a0.73,0.73,0,0,0-.95-0.39l-1.61.66a0.73,0.73,0,0,0,.39,1.39l0.17,0,1.61-.66A0.72,0.72,0,0,0,342.53,54.18Z"/><path  d="M346.91,52.37A0.73,0.73,0,0,0,346,52l-1.61.66a0.73,0.73,0,0,0,.39,1.39l0.17,0,1.61-.66A0.72,0.72,0,0,0,346.91,52.37Z"/><path  d="M432.6,63.38a1.4,1.4,0,0,0-.84-0.39,3.59,3.59,0,0,0-2.9-2.4V60.32a0.91,0.91,0,0,0-.69-1.09h-1l0-3.58-3.92,0,0,3.58h-1l-0.14,0a1,1,0,0,0-.56,1.06v0.27a3.61,3.61,0,0,0-2.92,2.36,1.44,1.44,0,0,0-1.27,1.4l-0.21,31.2a0.7,0.7,0,0,0,.2.5,0.69,0.69,0,0,0,.4.19s0,0.06.05,0.08a1.07,1.07,0,0,0,.76.32l12.83,0.09a1,1,0,0,0,.82-0.38h0.09a0.7,0.7,0,0,0,.52-0.67L433,64.39A1.41,1.41,0,0,0,432.6,63.38ZM418.74,64.9V64.66l12.73,0.08h0.13L431.43,92.8l-4,0-8.88-.06Zm12.67,30-12.87-.08V93.44l12.87,0.08v1.36Z"/><path  d="M429.68,76.14a0.36,0.36,0,0,0-.3-0.57l-2.37,0,1.75-4.77a0.36,0.36,0,0,0-.34-0.49l-3.55,0a0.36,0.36,0,0,0-.34.22l-3.67,8.65a0.36,0.36,0,0,0,.33.5h2.13l-2.42,7.9a0.36,0.36,0,0,0,.65.31Z"/><path  d="M381.83,63.38A1.4,1.4,0,0,0,381,63a3.59,3.59,0,0,0-2.9-2.4V60.32a0.91,0.91,0,0,0-.69-1.09h-1l0-3.58-3.92,0,0,3.58h-1l-0.14,0a1,1,0,0,0-.56,1.06v0.27a3.61,3.61,0,0,0-2.92,2.36,1.44,1.44,0,0,0-1.27,1.4l-0.21,31.2a0.7,0.7,0,0,0,.2.5,0.69,0.69,0,0,0,.4.19s0,0.06.05,0.08a1.07,1.07,0,0,0,.76.32l12.83,0.09a1,1,0,0,0,.82-0.38h0.09a0.7,0.7,0,0,0,.52-0.67l0.21-31.2A1.41,1.41,0,0,0,381.83,63.38ZM368,64.9V64.66l12.73,0.08h0.13L380.65,92.8l-4,0-8.88-.06Zm12.67,30-12.87-.08V93.44l12.87,0.08v1.36Z"/><path  d="M378.91,76.14a0.36,0.36,0,0,0-.3-0.57l-2.37,0L378,70.78a0.36,0.36,0,0,0-.34-0.49l-3.55,0a0.36,0.36,0,0,0-.34.22l-3.67,8.65a0.36,0.36,0,0,0,.33.5h2.13l-2.42,7.9a0.36,0.36,0,0,0,.65.31Z"/><path  d="M395.37,58.69l-0.75.08a0.74,0.74,0,0,0-.65.8,0.73,0.73,0,0,0,.8.65l0.75-.08h0A0.73,0.73,0,0,0,395.37,58.69Z"/><path  d="M397.91,52.37A0.73,0.73,0,0,0,397,52l-1.61.66a0.73,0.73,0,0,0,.39,1.39l0.17,0,1.61-.66A0.72,0.72,0,0,0,397.91,52.37Z"/><path  d="M32.7,12.24a1.4,1.4,0,0,0-.84-0.39A3.59,3.59,0,0,0,29,9.45V9.18a0.91,0.91,0,0,0-.69-1.09h-1l0-3.58-3.92,0,0,3.58h-1l-0.14,0a1,1,0,0,0-.56,1.06V9.41a3.61,3.61,0,0,0-2.92,2.37,1.44,1.44,0,0,0-1.27,1.4l-0.15,31.2a0.7,0.7,0,0,0,.2.5,0.69,0.69,0,0,0,.4.19s0,0.06.05,0.08a1.07,1.07,0,0,0,.76.32l12.83,0.06a1,1,0,0,0,.82-0.38h0.09A0.7,0.7,0,0,0,33,44.45l0.15-31.2A1.41,1.41,0,0,0,32.7,12.24ZM18.84,13.78V13.54L31.58,13.6h0.13L31.57,41.66l-4,0-8.88,0Zm12.73,30-12.87-.06V42.32l12.87,0.06v1.36Z"/><path  d="M29.8,25a0.36,0.36,0,0,0-.3-0.57H27.14l1.74-4.78a0.36,0.36,0,0,0-.34-0.49l-3.55,0a0.36,0.36,0,0,0-.34.22L21,28a0.36,0.36,0,0,0,.33.5h2.13l-2.4,7.91a0.36,0.36,0,0,0,.65.31Z"/><path  d="M82.23,12.57a1.4,1.4,0,0,0-.82-0.42,3.59,3.59,0,0,0-2.8-2.52V9.35A0.91,0.91,0,0,0,78,8.24l-1,0,0.17-3.58-3.92-.19L73,8l-1,0H71.91a1,1,0,0,0-.61,1V9.27a3.61,3.61,0,0,0-3,2.24,1.44,1.44,0,0,0-1.33,1.34L65.47,44a0.7,0.7,0,0,0,.18.5,0.69,0.69,0,0,0,.39.2s0,0.06,0,.08a1.07,1.07,0,0,0,.75.35l12.82,0.61a1,1,0,0,0,.84-0.35h0.09a0.7,0.7,0,0,0,.54-0.65L82.6,13.59A1.41,1.41,0,0,0,82.23,12.57Zm-13.92,1,0-.24,12.72,0.6h0.13l-1.33,28-4-.19L67,41.3ZM79.76,44L66.9,43.38,67,42l12.86,0.61Z"/><path  d="M78.8,25.19a0.36,0.36,0,0,0-.27-0.58l-2.36-.11,1.94-4.7a0.36,0.36,0,0,0-.32-0.5l-3.55-.17a0.36,0.36,0,0,0-.34.21l-4,8.5a0.36,0.36,0,0,0,.31.52l2.13,0.1-2.74,7.8a0.36,0.36,0,0,0,.63.34Z"/><path  d="M131.72,12.9a1.4,1.4,0,0,0-.8-0.45,3.59,3.59,0,0,0-2.7-2.63l0-.27a0.91,0.91,0,0,0-.6-1.14l-1-.09,0.31-3.57L123,4.41,122.71,8l-1-.09h-0.14a1,1,0,0,0-.65,1l0,0.26a3.61,3.61,0,0,0-3.1,2.12,1.44,1.44,0,0,0-1.38,1.29l-2.69,31.09a0.7,0.7,0,0,0,.16.51,0.69,0.69,0,0,0,.38.22s0,0.06,0,.08a1.07,1.07,0,0,0,.74.38L127.85,46a1,1,0,0,0,.85-0.32h0.09a0.7,0.7,0,0,0,.57-0.63L132,13.93A1.41,1.41,0,0,0,131.72,12.9Zm-13.94.41,0-.24,12.69,1.1h0.13l-2.42,28-4-.34L115.38,41ZM128,44.2L115.2,43.09l0.12-1.35,12.82,1.11Z"/><path  d="M127.79,25.37a0.36,0.36,0,0,0-.25-0.59l-2.36-.2L127.31,20a0.36,0.36,0,0,0-.3-0.51l-3.54-.31a0.36,0.36,0,0,0-.35.19l-4.35,8.33a0.36,0.36,0,0,0,.29.53l2.13,0.18-3,7.69a0.36,0.36,0,0,0,.62.36Z"/><path  d="M181.66,13.63a1.4,1.4,0,0,0-.76-0.52,3.59,3.59,0,0,0-2.48-2.83l0-.27a0.91,0.91,0,0,0-.51-1.18l-1-.17,0.59-3.53-3.87-.64L173.07,8l-1-.16h-0.14a1,1,0,0,0-.72,1l0,0.26a3.61,3.61,0,0,0-3.26,1.87,1.44,1.44,0,0,0-1.48,1.18l-5.13,30.78a0.7,0.7,0,0,0,.12.52,0.69,0.69,0,0,0,.36.25s0,0.06,0,.09a1.07,1.07,0,0,0,.7.44l12.66,2.11a1,1,0,0,0,.87-0.25h0.09a0.7,0.7,0,0,0,.62-0.58l5.13-30.78A1.41,1.41,0,0,0,181.66,13.63Zm-13.93-.69,0-.23,12.56,2.09h0.13l-4.61,27.68-3.94-.66-8.76-1.46Zm7.78,31.61-12.7-2.12L163,41.09l12.7,2.12Z"/><path  d="M176.76,25.76a0.36,0.36,0,0,0-.2-0.61l-2.33-.39,2.48-4.44a0.36,0.36,0,0,0-.26-0.53l-3.5-.58a0.36,0.36,0,0,0-.37.17l-5,8a0.36,0.36,0,0,0,.25.55l2.1,0.35-3.63,7.42a0.36,0.36,0,0,0,.59.41Z"/><path  d="M231.33,14.38a1.4,1.4,0,0,0-.73-0.57,3.59,3.59,0,0,0-2.27-3l0.06-.27A0.91,0.91,0,0,0,228,9.33l-1-.24,0.84-3.48L224,4.68l-0.84,3.48-1-.23h-0.14a1,1,0,0,0-.79.9l-0.06.26a3.61,3.61,0,0,0-3.38,1.63,1.44,1.44,0,0,0-1.56,1.07l-7.32,30.33a0.7,0.7,0,0,0,.08.53,0.69,0.69,0,0,0,.34.27s0,0.06,0,.09a1.07,1.07,0,0,0,.67.49l12.47,3a1,1,0,0,0,.89-0.19h0.09a0.7,0.7,0,0,0,.66-0.54l7.32-30.33A1.41,1.41,0,0,0,231.33,14.38Zm-13.85-1.69,0.06-.23,12.38,3,0.13,0-6.59,27.28-3.88-.94L211,39.73ZM223,44.78l-12.51-3,0.32-1.32,12.51,3Z"/><path  d="M225.58,26.13a0.36,0.36,0,0,0-.16-0.62l-2.3-.56,2.79-4.25a0.36,0.36,0,0,0-.22-0.55l-3.45-.83a0.36,0.36,0,0,0-.38.14L216.32,27a0.36,0.36,0,0,0,.21.57l2.07,0.5-4.16,7.14a0.36,0.36,0,0,0,.56.45Z"/></svg>