<?xml version="1.0" encoding="utf-8"?>
<!-- Generator: Adobe Illustrator 19.2.0, SVG Export Plug-In . SVG Version: 6.00 Build 0)  -->
<svg version="1.0" id="Layer_1" xmlns="http://www.w3.org/2000/svg" xmlns:xlink="http://www.w3.org/1999/xlink" x="0px" y="0px"
	 width="450px" height="100px" viewBox="0 0 450 100" style="enable-background:new 0 0 450 100;" xml:space="preserve">
<g>
	<path d="M184.918,85.646c-2.225,0-4.034,1.841-4.034,4.103s1.81,4.103,4.034,4.103s4.035-1.841,4.035-4.103
		S187.143,85.646,184.918,85.646z M184.918,92.45c-1.452,0-2.634-1.212-2.634-2.702s1.182-2.702,2.634-2.702
		c1.453,0,2.635,1.212,2.635,2.702S186.371,92.45,184.918,92.45z"/>
	<path d="M165.075,85.646c-2.225,0-4.035,1.841-4.035,4.103s1.811,4.103,4.035,4.103s4.035-1.841,4.035-4.103
		S167.3,85.646,165.075,85.646z M165.075,92.45c-1.453,0-2.635-1.212-2.635-2.702s1.182-2.702,2.635-2.702s2.635,1.212,2.635,2.702
		S166.528,92.45,165.075,92.45z"/>
	<path d="M175.114,61.335c2.225,0,4.035-1.841,4.035-4.103s-1.811-4.103-4.035-4.103s-4.035,1.841-4.035,4.103
		S172.89,61.335,175.114,61.335z M175.114,54.53c1.453,0,2.635,1.212,2.635,2.702s-1.182,2.702-2.635,2.702
		s-2.635-1.212-2.635-2.702S173.661,54.53,175.114,54.53z"/>
	<path d="M192.359,66.945c-2.225,0-4.035,1.841-4.035,4.103s1.811,4.102,4.035,4.102s4.034-1.84,4.034-4.102
		S194.584,66.945,192.359,66.945z M192.359,73.748c-1.453,0-2.635-1.212-2.635-2.701c0-1.49,1.182-2.702,2.635-2.702
		c1.452,0,2.634,1.212,2.634,2.702C194.993,72.536,193.812,73.748,192.359,73.748z"/>
	<path d="M161.651,71.078c0-2.262-1.811-4.103-4.035-4.103s-4.035,1.841-4.035,4.103s1.811,4.102,4.035,4.102
		S161.651,73.34,161.651,71.078z M154.982,71.078c0-1.49,1.182-2.702,2.635-2.702s2.635,1.212,2.635,2.702
		c0,1.489-1.182,2.701-2.635,2.701S154.982,72.568,154.982,71.078z"/>
	<path d="M181.283,58.532c0.52,0.204,1.037,0.438,1.536,0.694c0.361,0.183,0.802,0.043,0.987-0.317
		c0.185-0.36,0.044-0.802-0.317-0.987c-0.543-0.279-1.104-0.532-1.669-0.755c-0.026-0.01-0.051-0.019-0.077-0.026
		c-0.356-0.097-0.735,0.089-0.873,0.44C180.722,57.958,180.907,58.384,181.283,58.532z"/>
	<path d="M186.541,61.834c0.298,0.275,0.762,0.257,1.035-0.041c0.275-0.297,0.257-0.761-0.041-1.035
		c-0.45-0.416-0.921-0.811-1.403-1.175c-0.077-0.058-0.161-0.099-0.25-0.123c-0.28-0.076-0.59,0.02-0.776,0.266
		c-0.244,0.322-0.181,0.782,0.142,1.026C185.692,61.087,186.126,61.451,186.541,61.834z"/>
	<path d="M189.433,65.343c0.215,0.346,0.665,0.449,1.009,0.237c0.344-0.214,0.45-0.666,0.237-1.009
		c-0.321-0.517-0.672-1.023-1.042-1.505c-0.102-0.133-0.24-0.221-0.388-0.261c-0.214-0.058-0.45-0.019-0.639,0.126
		c-0.321,0.247-0.382,0.707-0.135,1.028C188.816,64.401,189.138,64.867,189.433,65.343z"/>
	<path d="M168.49,57.142c-0.025,0.007-0.051,0.016-0.077,0.026c-0.565,0.222-1.127,0.476-1.669,0.755
		c-0.361,0.185-0.502,0.627-0.317,0.987c0.185,0.36,0.625,0.5,0.987,0.317c0.499-0.256,1.015-0.49,1.536-0.694
		c0.377-0.148,0.562-0.573,0.414-0.95C169.226,57.23,168.847,57.045,168.49,57.142z"/>
	<path d="M163.692,61.834c0.415-0.383,0.85-0.747,1.293-1.082c0.323-0.245,0.387-0.704,0.142-1.026
		c-0.186-0.246-0.497-0.342-0.776-0.266c-0.089,0.024-0.173,0.065-0.25,0.123c-0.482,0.365-0.953,0.76-1.403,1.175
		c-0.298,0.274-0.316,0.738-0.041,1.035C162.93,62.091,163.394,62.109,163.692,61.834z"/>
	<path d="M159.79,65.579c0.344,0.212,0.795,0.109,1.009-0.237c0.295-0.476,0.618-0.942,0.959-1.385
		c0.247-0.321,0.186-0.781-0.135-1.028c-0.189-0.145-0.425-0.184-0.639-0.126c-0.149,0.04-0.287,0.128-0.388,0.261
		c-0.37,0.482-0.721,0.988-1.042,1.505C159.34,64.913,159.446,65.365,159.79,65.579z"/>
	<path d="M192.66,77.575c-0.145-0.025-0.287-0.007-0.413,0.047c-0.221,0.094-0.391,0.295-0.435,0.549
		c-0.096,0.549-0.221,1.102-0.371,1.646c-0.108,0.39,0.121,0.794,0.511,0.902c0.39,0.107,0.795-0.121,0.902-0.511
		c0.162-0.59,0.298-1.19,0.401-1.784C193.325,78.024,193.058,77.644,192.66,77.575z"/>
	<path d="M191.421,82.16c-0.197-0.091-0.413-0.089-0.598-0.01c-0.161,0.069-0.297,0.195-0.376,0.365
		c-0.237,0.509-0.502,1.011-0.785,1.491c-0.207,0.349-0.091,0.798,0.258,1.005c0.349,0.206,0.798,0.091,1.004-0.259
		c0.307-0.522,0.594-1.066,0.851-1.617C191.946,82.767,191.787,82.331,191.421,82.16z"/>
	<path d="M158.801,79.816c-0.15-0.544-0.275-1.097-0.371-1.646c-0.044-0.253-0.214-0.454-0.435-0.549
		c-0.126-0.054-0.269-0.072-0.413-0.047c-0.398,0.069-0.665,0.449-0.596,0.848c0.103,0.594,0.239,1.195,0.401,1.784
		c0.107,0.391,0.512,0.619,0.902,0.511C158.68,80.611,158.908,80.206,158.801,79.816z"/>
	<path d="M159.795,82.514c-0.079-0.17-0.216-0.296-0.376-0.365c-0.185-0.079-0.401-0.081-0.598,0.01
		c-0.366,0.171-0.526,0.607-0.354,0.974c0.257,0.552,0.544,1.096,0.851,1.617c0.207,0.349,0.655,0.465,1.004,0.259
		c0.349-0.207,0.465-0.655,0.258-1.005C160.297,83.526,160.033,83.023,159.795,82.514z"/>
	<path d="M173.841,92.199c-0.563-0.037-1.127-0.1-1.677-0.19c-0.254-0.042-0.499,0.053-0.661,0.231
		c-0.092,0.101-0.156,0.23-0.18,0.375c-0.065,0.399,0.206,0.776,0.606,0.841c0.595,0.097,1.207,0.166,1.817,0.206
		c0.404,0.027,0.753-0.281,0.779-0.684C174.552,92.574,174.245,92.225,173.841,92.199z"/>
	<path d="M178.382,91.892c-0.546,0.11-1.108,0.195-1.667,0.252c-0.186,0.019-0.35,0.107-0.468,0.236
		c-0.135,0.149-0.208,0.352-0.187,0.568c0.041,0.402,0.401,0.696,0.804,0.654c0.605-0.062,1.214-0.155,1.807-0.273
		c0.398-0.081,0.654-0.467,0.574-0.864C179.166,92.069,178.78,91.812,178.382,91.892z"/>
</g>
<g>
</g>
<path d="M34.946,35.646c-2.225,0-4.034,1.841-4.034,4.103s1.81,4.103,4.034,4.103s4.035-1.841,4.035-4.103
	S37.171,35.646,34.946,35.646z M34.946,42.45c-1.452,0-2.634-1.212-2.634-2.702s1.182-2.702,2.634-2.702
	c1.453,0,2.635,1.212,2.635,2.702S36.399,42.45,34.946,42.45z"/>
<path d="M15.104,35.646c-2.225,0-4.035,1.841-4.035,4.103s1.811,4.103,4.035,4.103s4.035-1.841,4.035-4.103
	S17.328,35.646,15.104,35.646z M15.104,42.45c-1.453,0-2.635-1.212-2.635-2.702s1.182-2.702,2.635-2.702s2.635,1.212,2.635,2.702
	S16.557,42.45,15.104,42.45z"/>
<path d="M25.143,11.335c2.225,0,4.035-1.841,4.035-4.103S27.367,3.13,25.143,3.13s-4.035,1.841-4.035,4.103
	S22.918,11.335,25.143,11.335z M25.143,4.53c1.453,0,2.635,1.212,2.635,2.702s-1.182,2.702-2.635,2.702s-2.635-1.212-2.635-2.702
	S23.689,4.53,25.143,4.53z"/>
<path d="M42.388,16.945c-2.225,0-4.035,1.841-4.035,4.103s1.811,4.102,4.035,4.102s4.034-1.84,4.034-4.102
	S44.612,16.945,42.388,16.945z M42.388,23.748c-1.453,0-2.635-1.212-2.635-2.701c0-1.49,1.182-2.702,2.635-2.702
	c1.452,0,2.634,1.212,2.634,2.702C45.021,22.536,43.84,23.748,42.388,23.748z"/>
<path d="M11.68,21.078c0-2.262-1.811-4.103-4.035-4.103s-4.035,1.841-4.035,4.103S5.42,25.18,7.645,25.18S11.68,23.34,11.68,21.078z
	 M5.01,21.078c0-1.49,1.182-2.702,2.635-2.702s2.635,1.212,2.635,2.702c0,1.489-1.182,2.701-2.635,2.701S5.01,22.568,5.01,21.078z"
	/>
<path d="M28.615,20.348c0-2.014-1.611-3.652-3.591-3.652s-3.591,1.639-3.591,3.652c0,1.325,0.704,2.476,1.744,3.117
	c-1.01,0.351-1.744,1.314-1.744,2.458v5.134h7.182v-5.134c0-1.144-0.733-2.107-1.744-2.458
	C27.911,22.824,28.615,21.673,28.615,20.348z"/>
<path d="M31.312,8.532c0.52,0.204,1.037,0.438,1.536,0.694c0.361,0.183,0.802,0.043,0.987-0.317c0.185-0.36,0.044-0.802-0.317-0.987
	c-0.543-0.279-1.104-0.532-1.669-0.755c-0.026-0.01-0.051-0.019-0.077-0.026c-0.356-0.097-0.735,0.089-0.873,0.44
	C30.75,7.958,30.935,8.384,31.312,8.532z"/>
<path d="M36.57,11.834c0.298,0.275,0.762,0.257,1.035-0.041c0.275-0.297,0.257-0.761-0.041-1.035
	c-0.45-0.416-0.921-0.811-1.403-1.175c-0.077-0.058-0.161-0.099-0.25-0.123c-0.28-0.076-0.59,0.02-0.776,0.266
	c-0.244,0.322-0.181,0.782,0.142,1.026C35.72,11.087,36.154,11.451,36.57,11.834z"/>
<path d="M39.462,15.343c0.215,0.346,0.665,0.449,1.009,0.237c0.344-0.214,0.45-0.666,0.237-1.009
	c-0.321-0.517-0.672-1.023-1.042-1.505c-0.102-0.133-0.24-0.221-0.388-0.261c-0.214-0.058-0.45-0.019-0.639,0.126
	c-0.321,0.247-0.382,0.707-0.135,1.028C38.844,14.401,39.167,14.867,39.462,15.343z"/>
<path d="M18.519,7.142c-0.025,0.007-0.051,0.016-0.077,0.026c-0.565,0.222-1.127,0.476-1.669,0.755
	c-0.361,0.185-0.502,0.627-0.317,0.987c0.185,0.36,0.625,0.5,0.987,0.317c0.499-0.256,1.015-0.49,1.536-0.694
	c0.377-0.148,0.562-0.573,0.414-0.95C19.254,7.23,18.875,7.045,18.519,7.142z"/>
<path d="M13.72,11.834c0.415-0.383,0.85-0.747,1.293-1.082c0.323-0.245,0.387-0.704,0.142-1.026
	c-0.186-0.246-0.497-0.342-0.776-0.266c-0.089,0.024-0.173,0.065-0.25,0.123c-0.482,0.365-0.953,0.76-1.403,1.175
	c-0.298,0.274-0.316,0.738-0.041,1.035C12.958,12.091,13.422,12.109,13.72,11.834z"/>
<path d="M9.818,15.579c0.344,0.212,0.795,0.109,1.009-0.237c0.295-0.476,0.618-0.942,0.959-1.385
	c0.247-0.321,0.186-0.781-0.135-1.028c-0.189-0.145-0.425-0.184-0.639-0.126c-0.149,0.04-0.287,0.128-0.388,0.261
	c-0.37,0.482-0.721,0.988-1.042,1.505C9.369,14.913,9.474,15.365,9.818,15.579z"/>
<path d="M42.688,27.575c-0.145-0.025-0.287-0.007-0.413,0.047c-0.221,0.094-0.391,0.295-0.435,0.549
	c-0.096,0.549-0.221,1.102-0.371,1.646c-0.108,0.39,0.121,0.794,0.511,0.902c0.39,0.107,0.795-0.121,0.902-0.511
	c0.162-0.59,0.298-1.19,0.401-1.784C43.353,28.024,43.086,27.644,42.688,27.575z"/>
<path d="M41.449,32.16c-0.197-0.091-0.413-0.089-0.598-0.01c-0.161,0.069-0.297,0.195-0.376,0.365
	c-0.237,0.509-0.502,1.011-0.785,1.491c-0.207,0.349-0.091,0.798,0.258,1.005c0.349,0.206,0.798,0.091,1.004-0.259
	c0.307-0.522,0.594-1.066,0.851-1.617C41.975,32.767,41.815,32.331,41.449,32.16z"/>
<path d="M8.829,29.816c-0.15-0.544-0.275-1.097-0.371-1.646c-0.044-0.253-0.214-0.454-0.435-0.549
	c-0.126-0.054-0.269-0.072-0.413-0.047c-0.398,0.069-0.665,0.449-0.596,0.848c0.103,0.594,0.239,1.195,0.401,1.784
	c0.107,0.391,0.512,0.619,0.902,0.511C8.708,30.611,8.937,30.206,8.829,29.816z"/>
<path d="M9.824,32.514c-0.079-0.17-0.216-0.296-0.376-0.365c-0.185-0.079-0.401-0.081-0.598,0.01
	c-0.366,0.171-0.526,0.607-0.354,0.974c0.257,0.552,0.544,1.096,0.851,1.617c0.207,0.349,0.655,0.465,1.004,0.259
	c0.349-0.207,0.465-0.655,0.258-1.005C10.325,33.526,10.061,33.023,9.824,32.514z"/>
<path d="M23.869,42.199c-0.563-0.037-1.127-0.1-1.677-0.19c-0.254-0.042-0.499,0.053-0.661,0.231
	c-0.092,0.101-0.156,0.23-0.18,0.375c-0.065,0.399,0.206,0.776,0.606,0.841c0.595,0.097,1.207,0.166,1.817,0.206
	c0.404,0.027,0.753-0.281,0.779-0.684C24.58,42.574,24.273,42.225,23.869,42.199z"/>
<path d="M28.411,41.892c-0.546,0.11-1.108,0.195-1.667,0.252c-0.186,0.019-0.35,0.107-0.468,0.236
	c-0.135,0.149-0.208,0.352-0.187,0.568c0.041,0.402,0.401,0.696,0.804,0.654c0.605-0.062,1.214-0.155,1.807-0.273
	c0.398-0.081,0.654-0.467,0.574-0.864C29.194,42.069,28.808,41.812,28.411,41.892z"/>
<path d="M28.615,70.348c0-2.014-1.611-3.652-3.591-3.652s-3.591,1.639-3.591,3.652c0,1.325,0.704,2.476,1.744,3.117
	c-1.01,0.351-1.744,1.314-1.744,2.458v5.134h7.182v-5.134c0-1.144-0.733-2.107-1.744-2.458
	C27.911,72.824,28.615,71.673,28.615,70.348z"/>
<g>
	<path d="M39.465,76.781c-1.704,1.43-1.907,4.003-0.453,5.736c1.454,1.733,4.023,1.98,5.727,0.55
		c1.704-1.43,1.908-4.004,0.454-5.736C43.739,75.597,41.169,75.351,39.465,76.781z M43.839,81.993
		c-1.112,0.933-2.797,0.765-3.755-0.377c-0.958-1.142-0.832-2.83,0.281-3.763c1.113-0.934,2.797-0.765,3.755,0.376
		S44.952,81.059,43.839,81.993z"/>
	<path d="M24.265,89.535c-1.704,1.43-1.908,4.004-0.454,5.736c1.454,1.733,4.024,1.979,5.728,0.549
		c1.704-1.43,1.908-4.004,0.454-5.736C28.539,88.352,25.969,88.105,24.265,89.535z M28.639,94.748
		c-1.113,0.934-2.797,0.765-3.755-0.376c-0.958-1.142-0.832-2.83,0.281-3.764c1.113-0.934,2.797-0.765,3.755,0.376
		C29.878,92.126,29.752,93.814,28.639,94.748z"/>
	<path d="M16.328,64.459c1.704-1.43,1.908-4.004,0.454-5.736c-1.454-1.733-4.024-1.979-5.728-0.549S9.146,62.178,10.6,63.91
		C12.054,65.643,14.624,65.889,16.328,64.459z M11.954,59.247c1.113-0.934,2.797-0.765,3.755,0.376s0.832,2.83-0.281,3.764
		s-2.797,0.765-3.755-0.376C10.715,61.869,10.841,60.181,11.954,59.247z"/>
	<path d="M33.145,57.671c-1.704,1.43-1.908,4.004-0.454,5.736c1.454,1.733,4.023,1.978,5.728,0.548
		c1.704-1.43,1.908-4.003,0.454-5.735C37.418,56.488,34.849,56.241,33.145,57.671z M37.518,62.883
		c-1.113,0.934-2.797,0.765-3.755-0.376c-0.958-1.142-0.832-2.83,0.281-3.764c1.112-0.933,2.797-0.765,3.755,0.377
		C38.756,60.262,38.63,61.95,37.518,62.883z"/>
	<path d="M12.278,80.577c-1.454-1.733-4.024-1.979-5.728-0.549s-1.908,4.004-0.454,5.736c1.454,1.733,4.023,1.978,5.728,0.548
		S13.732,82.309,12.278,80.577z M7.169,84.864c-0.958-1.142-0.832-2.83,0.281-3.764s2.797-0.765,3.755,0.376
		c0.957,1.141,0.831,2.829-0.282,3.763S8.126,86.005,7.169,84.864z"/>
	<path d="M19.252,58.346c0.53-0.178,1.076-0.331,1.623-0.456c0.394-0.092,0.642-0.483,0.552-0.877
		c-0.09-0.394-0.482-0.642-0.877-0.552c-0.595,0.135-1.188,0.302-1.764,0.495c-0.026,0.009-0.052,0.018-0.076,0.03
		c-0.335,0.155-0.506,0.541-0.386,0.898C18.453,58.268,18.868,58.475,19.252,58.346z"/>
	<path d="M25.403,57.496c0.405,0.019,0.749-0.293,0.767-0.697c0.02-0.404-0.292-0.748-0.697-0.767
		c-0.612-0.029-1.227-0.029-1.83,0.002c-0.097,0.005-0.187,0.027-0.271,0.066c-0.263,0.122-0.439,0.395-0.424,0.703
		c0.02,0.404,0.364,0.715,0.769,0.695C24.272,57.47,24.838,57.47,25.403,57.496z"/>
	<path d="M29.873,58.325c0.387,0.127,0.798-0.084,0.925-0.468c0.126-0.385-0.084-0.8-0.468-0.925
		c-0.578-0.19-1.172-0.352-1.765-0.483c-0.163-0.036-0.326-0.015-0.466,0.05c-0.201,0.093-0.357,0.275-0.409,0.507
		c-0.087,0.395,0.162,0.787,0.557,0.874C28.795,58.001,29.342,58.15,29.873,58.325z"/>
	<path d="M8.559,65.505c-0.015,0.022-0.029,0.045-0.042,0.069c-0.29,0.533-0.557,1.089-0.794,1.651
		c-0.157,0.373,0.019,0.803,0.391,0.96c0.373,0.157,0.801-0.019,0.96-0.391c0.218-0.517,0.463-1.028,0.73-1.519
		c0.194-0.355,0.062-0.8-0.294-0.994C9.179,65.1,8.769,65.202,8.559,65.505z"/>
	<path d="M7.899,72.184c0.072-0.56,0.171-1.118,0.295-1.66c0.09-0.395-0.156-0.788-0.551-0.878c-0.301-0.069-0.6,0.057-0.766,0.295
		c-0.052,0.075-0.09,0.161-0.112,0.255c-0.135,0.589-0.242,1.195-0.32,1.802c-0.052,0.402,0.233,0.769,0.634,0.819
		C7.48,72.871,7.847,72.586,7.899,72.184z"/>
	<path d="M7.317,77.56c0.4-0.058,0.679-0.427,0.621-0.83c-0.08-0.554-0.132-1.118-0.156-1.677c-0.017-0.405-0.36-0.718-0.764-0.7
		c-0.238,0.011-0.444,0.132-0.571,0.314c-0.088,0.127-0.137,0.283-0.13,0.45c0.026,0.607,0.083,1.22,0.17,1.822
		C6.545,77.339,6.916,77.618,7.317,77.56z"/>
	<path d="M40.208,65.622c-0.127,0.074-0.225,0.18-0.286,0.302c-0.109,0.214-0.11,0.478,0.02,0.7
		c0.279,0.482,0.539,0.986,0.774,1.499c0.168,0.368,0.604,0.531,0.971,0.362c0.368-0.168,0.531-0.603,0.362-0.972
		c-0.255-0.556-0.537-1.103-0.84-1.625C41.006,65.538,40.557,65.419,40.208,65.622z"/>
	<path d="M42.206,69.93c-0.21,0.057-0.374,0.197-0.465,0.376c-0.079,0.156-0.102,0.34-0.054,0.521
		c0.145,0.542,0.266,1.097,0.357,1.647c0.066,0.4,0.443,0.669,0.843,0.604c0.4-0.067,0.669-0.444,0.603-0.844
		c-0.1-0.597-0.23-1.198-0.387-1.786C42.998,70.058,42.596,69.826,42.206,69.93z"/>
	<path d="M15.711,89.103c-0.465-0.32-0.916-0.664-1.342-1.022c-0.196-0.166-0.456-0.211-0.686-0.141
		c-0.131,0.04-0.252,0.117-0.347,0.23c-0.26,0.309-0.221,0.771,0.089,1.032c0.461,0.389,0.951,0.762,1.454,1.109
		c0.333,0.231,0.79,0.145,1.02-0.188C16.129,89.789,16.044,89.332,15.711,89.103z"/>
	<path d="M18.207,90.53c-0.17-0.079-0.355-0.088-0.523-0.037c-0.193,0.058-0.359,0.196-0.451,0.392
		c-0.171,0.366-0.012,0.803,0.355,0.974c0.552,0.257,1.121,0.489,1.692,0.692c0.383,0.135,0.801-0.065,0.936-0.447
		c0.134-0.383-0.065-0.801-0.448-0.936C19.241,90.983,18.716,90.768,18.207,90.53z"/>
	<path d="M35.192,88.921c-0.455,0.334-0.928,0.647-1.406,0.932c-0.221,0.131-0.349,0.361-0.358,0.602
		c-0.005,0.137,0.028,0.277,0.103,0.403c0.206,0.347,0.656,0.462,1.004,0.255c0.518-0.308,1.031-0.648,1.525-1.01
		c0.327-0.239,0.396-0.699,0.157-1.025C35.977,88.751,35.518,88.681,35.192,88.921z"/>
	<path d="M38.473,85.767c-0.348,0.436-0.723,0.862-1.114,1.264c-0.13,0.135-0.2,0.307-0.207,0.481
		c-0.008,0.201,0.067,0.403,0.222,0.555c0.29,0.281,0.754,0.275,1.037-0.016c0.424-0.437,0.83-0.899,1.209-1.371
		c0.253-0.317,0.201-0.778-0.116-1.031C39.187,85.398,38.726,85.449,38.473,85.767z"/>
</g>
<path d="M78.615,70.348c0-2.014-1.611-3.652-3.591-3.652s-3.591,1.639-3.591,3.652c0,1.325,0.704,2.476,1.744,3.117
	c-1.01,0.351-1.744,1.314-1.744,2.458v5.134h7.182v-5.134c0-1.144-0.733-2.107-1.744-2.458
	C77.911,72.824,78.615,71.673,78.615,70.348z"/>
<g>
	<path d="M89.059,78.84c-1.892,1.17-2.463,3.687-1.274,5.611c1.189,1.924,3.697,2.538,5.589,1.368
		c1.892-1.17,2.464-3.688,1.275-5.611C93.459,78.284,90.951,77.67,89.059,78.84z M92.637,84.628
		c-1.235,0.764-2.878,0.354-3.661-0.913c-0.784-1.268-0.416-2.92,0.819-3.683c1.236-0.764,2.878-0.355,3.662,0.913
		C94.241,82.211,93.873,83.863,92.637,84.628z"/>
	<path d="M72.181,89.274c-1.892,1.17-2.464,3.688-1.275,5.611c1.189,1.924,3.697,2.537,5.59,1.368
		c1.892-1.17,2.464-3.688,1.275-5.611C76.582,88.718,74.074,88.104,72.181,89.274z M75.76,95.062
		c-1.236,0.764-2.878,0.355-3.662-0.913c-0.784-1.268-0.416-2.92,0.82-3.684c1.236-0.764,2.878-0.355,3.662,0.913
		C77.363,92.646,76.996,94.298,75.76,95.062z"/>
	<path d="M67.936,63.317c1.892-1.17,2.464-3.688,1.275-5.611c-1.189-1.924-3.697-2.537-5.59-1.368
		c-1.892,1.17-2.464,3.688-1.275,5.611C63.536,63.874,66.044,64.487,67.936,63.317z M64.358,57.529
		c1.236-0.764,2.878-0.355,3.662,0.913s0.416,2.92-0.82,3.684c-1.236,0.764-2.878,0.355-3.662-0.913S63.122,58.294,64.358,57.529z"
		/>
	<path d="M85.554,59.02c-1.892,1.17-2.464,3.688-1.275,5.611c1.189,1.924,3.697,2.537,5.589,1.367
		c1.892-1.17,2.464-3.686,1.274-5.61C89.954,58.464,87.446,57.85,85.554,59.02z M89.132,64.807
		c-1.236,0.764-2.878,0.355-3.661-0.912c-0.784-1.268-0.416-2.92,0.82-3.684c1.235-0.764,2.878-0.354,3.661,0.913
		C90.735,62.391,90.367,64.043,89.132,64.807z"/>
	<path d="M61.609,78.684c-1.189-1.924-3.697-2.537-5.59-1.368c-1.892,1.17-2.464,3.688-1.275,5.611
		c1.189,1.924,3.697,2.537,5.589,1.367S62.798,80.608,61.609,78.684z M55.935,82.192c-0.784-1.268-0.416-2.92,0.82-3.684
		c1.236-0.764,2.878-0.355,3.662,0.913c0.783,1.267,0.415,2.919-0.821,3.683C58.361,83.868,56.719,83.458,55.935,82.192z"/>
	<path d="M71.709,57.689c0.55-0.1,1.112-0.172,1.671-0.217c0.403-0.034,0.705-0.386,0.672-0.789
		c-0.032-0.403-0.385-0.705-0.789-0.672c-0.608,0.048-1.219,0.128-1.817,0.236c-0.027,0.005-0.054,0.011-0.079,0.018
		c-0.354,0.105-0.579,0.462-0.511,0.833C70.93,57.496,71.311,57.761,71.709,57.689z"/>
	<path d="M77.918,57.732c0.398,0.077,0.783-0.182,0.859-0.579c0.078-0.397-0.181-0.782-0.579-0.859
		c-0.601-0.117-1.21-0.205-1.812-0.262c-0.096-0.009-0.189,0-0.277,0.026c-0.278,0.083-0.492,0.327-0.521,0.634
		c-0.038,0.403,0.257,0.76,0.661,0.798C76.803,57.544,77.364,57.625,77.918,57.732z"/>
	<path d="M82.223,59.196c0.365,0.181,0.802,0.032,0.983-0.33c0.18-0.363,0.032-0.803-0.33-0.983
		c-0.545-0.271-1.109-0.517-1.677-0.732c-0.156-0.059-0.32-0.062-0.468-0.018c-0.213,0.063-0.393,0.221-0.478,0.443
		c-0.143,0.379,0.047,0.802,0.425,0.945C81.202,58.72,81.722,58.947,82.223,59.196z"/>
	<path d="M60.097,63.234c-0.018,0.019-0.035,0.041-0.052,0.063c-0.364,0.486-0.708,0.997-1.023,1.52
		c-0.21,0.347-0.097,0.797,0.249,1.006c0.346,0.209,0.795,0.096,1.006-0.249c0.29-0.48,0.606-0.951,0.941-1.398
		c0.243-0.324,0.176-0.783-0.148-1.026C60.769,62.922,60.349,62.964,60.097,63.234z"/>
	<path d="M58.483,69.748c0.152-0.544,0.33-1.082,0.53-1.601c0.146-0.378-0.041-0.802-0.418-0.948c-0.288-0.111-0.602-0.03-0.8,0.182
		c-0.063,0.067-0.113,0.146-0.148,0.236c-0.218,0.563-0.412,1.148-0.576,1.738c-0.109,0.39,0.12,0.794,0.51,0.902
		C57.97,70.368,58.374,70.139,58.483,69.748z"/>
	<path d="M57.134,74.985c0.404,0,0.733-0.325,0.734-0.732c0.001-0.56,0.03-1.126,0.087-1.682c0.041-0.403-0.253-0.762-0.656-0.803
		c-0.237-0.024-0.459,0.067-0.61,0.229c-0.105,0.113-0.176,0.26-0.193,0.426c-0.061,0.605-0.093,1.219-0.094,1.828
		C56.401,74.655,56.728,74.985,57.134,74.985z"/>
	<path d="M91.4,67.904c-0.136,0.054-0.248,0.145-0.327,0.257c-0.138,0.196-0.177,0.457-0.081,0.695
		c0.207,0.517,0.392,1.053,0.55,1.595c0.114,0.388,0.521,0.612,0.909,0.498c0.388-0.114,0.613-0.521,0.498-0.909
		c-0.172-0.587-0.372-1.169-0.597-1.728C92.201,67.936,91.774,67.753,91.4,67.904z"/>
	<path d="M92.757,72.455c-0.216,0.026-0.398,0.141-0.514,0.306c-0.101,0.143-0.15,0.322-0.128,0.508
		c0.066,0.558,0.105,1.124,0.116,1.681c0.008,0.406,0.343,0.726,0.748,0.719c0.405-0.009,0.726-0.343,0.718-0.748
		c-0.013-0.605-0.055-1.219-0.126-1.823C93.523,72.695,93.158,72.408,92.757,72.455z"/>
	<path d="M63.779,87.615c-0.414-0.384-0.811-0.789-1.181-1.205c-0.17-0.193-0.421-0.274-0.658-0.238
		c-0.135,0.02-0.266,0.08-0.376,0.177c-0.302,0.268-0.33,0.731-0.061,1.034c0.4,0.451,0.831,0.89,1.279,1.307
		c0.297,0.276,0.761,0.257,1.036-0.039C64.094,88.355,64.076,87.891,63.779,87.615z"/>
	<path d="M66.044,89.387c-0.157-0.103-0.339-0.138-0.512-0.112c-0.199,0.03-0.383,0.142-0.503,0.323
		c-0.221,0.338-0.128,0.793,0.211,1.015c0.509,0.334,1.039,0.646,1.575,0.928c0.359,0.189,0.802,0.05,0.99-0.308
		c0.188-0.359,0.05-0.802-0.309-0.99C67.002,89.984,66.513,89.695,66.044,89.387z"/>
	<path d="M83.083,90.238c-0.498,0.265-1.011,0.507-1.526,0.72c-0.238,0.098-0.397,0.308-0.441,0.544
		c-0.025,0.134-0.012,0.278,0.044,0.413c0.154,0.373,0.583,0.551,0.957,0.397c0.557-0.23,1.114-0.493,1.654-0.78
		c0.358-0.19,0.493-0.634,0.303-0.992C83.885,90.184,83.44,90.049,83.083,90.238z"/>
	<path d="M86.785,87.59c-0.407,0.381-0.84,0.749-1.285,1.091c-0.148,0.114-0.242,0.275-0.274,0.447
		c-0.037,0.198,0.008,0.409,0.14,0.581c0.246,0.32,0.707,0.381,1.028,0.134c0.482-0.371,0.951-0.77,1.393-1.183
		c0.296-0.278,0.311-0.741,0.034-1.037C87.544,87.328,87.081,87.312,86.785,87.59z"/>
</g>
<path d="M128.615,70.348c0-2.014-1.611-3.652-3.591-3.652s-3.591,1.639-3.591,3.652c0,1.325,0.704,2.476,1.744,3.117
	c-1.01,0.351-1.744,1.314-1.744,2.458v5.134h7.182v-5.134c0-1.144-0.733-2.107-1.744-2.458
	C127.911,72.824,128.615,71.673,128.615,70.348z"/>
<g>
	<path d="M136.901,83.408c-2.178,0.452-3.576,2.622-3.116,4.837s2.606,3.649,4.784,3.197c2.178-0.452,3.577-2.622,3.117-4.837
		S139.079,82.956,136.901,83.408z M138.284,90.07c-1.422,0.295-2.825-0.651-3.128-2.11c-0.303-1.459,0.608-2.886,2.03-3.181
		c1.423-0.295,2.826,0.651,3.129,2.11C140.617,88.348,139.707,89.775,138.284,90.07z"/>
	<path d="M117.472,87.44c-2.178,0.452-3.577,2.622-3.117,4.837c0.46,2.215,2.607,3.649,4.785,3.197
		c2.178-0.452,3.577-2.622,3.117-4.837C121.797,88.423,119.65,86.988,117.472,87.44z M118.855,94.103
		c-1.423,0.295-2.826-0.651-3.129-2.11c-0.303-1.459,0.608-2.886,2.031-3.181c1.423-0.295,2.826,0.651,3.129,2.11
		S120.278,93.808,118.855,94.103z"/>
	<path d="M122.361,61.597c2.178-0.452,3.577-2.622,3.117-4.837c-0.46-2.215-2.607-3.649-4.785-3.197
		c-2.178,0.452-3.577,2.622-3.117,4.837S120.183,62.049,122.361,61.597z M120.978,54.934c1.423-0.295,2.826,0.651,3.129,2.11
		s-0.608,2.886-2.031,3.181c-1.423,0.295-2.826-0.651-3.129-2.11S119.555,55.23,120.978,54.934z"/>
	<path d="M140.386,63.584c-2.178,0.452-3.577,2.622-3.117,4.837c0.46,2.215,2.606,3.648,4.785,3.196
		c2.178-0.452,3.576-2.621,3.116-4.836C144.71,64.567,142.564,63.132,140.386,63.584z M141.769,70.246
		c-1.423,0.295-2.826-0.651-3.129-2.109c-0.303-1.459,0.608-2.886,2.031-3.181c1.422-0.295,2.825,0.651,3.128,2.11
		C144.101,68.524,143.191,69.951,141.769,70.246z"/>
	<path d="M111.159,73.873c-0.46-2.215-2.607-3.649-4.785-3.197c-2.178,0.452-3.577,2.622-3.117,4.837
		c0.46,2.215,2.606,3.648,4.785,3.196C110.22,78.257,111.619,76.087,111.159,73.873z M104.628,75.229
		c-0.303-1.459,0.608-2.886,2.031-3.181c1.423-0.295,2.826,0.651,3.129,2.11c0.303,1.458-0.608,2.885-2.031,3.18
		C106.334,77.633,104.931,76.687,104.628,75.229z"/>
	<path d="M127.831,57.598c0.551,0.094,1.104,0.218,1.645,0.367c0.391,0.106,0.794-0.121,0.902-0.511
		c0.108-0.39-0.12-0.794-0.511-0.902c-0.588-0.163-1.189-0.297-1.788-0.4c-0.027-0.005-0.054-0.008-0.081-0.01
		c-0.368-0.022-0.702,0.236-0.766,0.608C127.165,57.151,127.432,57.53,127.831,57.598z"/>
	<path d="M133.651,59.763c0.347,0.209,0.798,0.097,1.005-0.25c0.209-0.346,0.097-0.797-0.25-1.005
		c-0.525-0.315-1.067-0.606-1.613-0.865c-0.087-0.042-0.178-0.065-0.27-0.07c-0.29-0.018-0.574,0.139-0.706,0.418
		c-0.174,0.365-0.018,0.802,0.348,0.976C132.667,59.204,133.166,59.472,133.651,59.763z"/>
	<path d="M137.195,62.611c0.281,0.295,0.743,0.304,1.036,0.026c0.294-0.28,0.305-0.744,0.026-1.036
		c-0.42-0.441-0.865-0.865-1.326-1.262c-0.126-0.109-0.279-0.168-0.433-0.177c-0.221-0.013-0.445,0.073-0.6,0.253
		c-0.264,0.307-0.23,0.77,0.076,1.034C136.399,61.814,136.81,62.205,137.195,62.611z"/>
	<path d="M115.023,58.837c-0.024,0.012-0.047,0.026-0.07,0.041c-0.508,0.332-1.006,0.695-1.481,1.078
		c-0.316,0.254-0.364,0.716-0.11,1.03c0.254,0.315,0.714,0.363,1.031,0.11c0.437-0.352,0.895-0.686,1.363-0.992
		c0.339-0.221,0.434-0.676,0.212-1.015C115.761,58.775,115.352,58.67,115.023,58.837z"/>
	<path d="M111.278,64.407c0.329-0.459,0.68-0.904,1.046-1.323c0.267-0.305,0.236-0.768-0.069-1.034
		c-0.232-0.203-0.556-0.234-0.814-0.103c-0.082,0.042-0.156,0.099-0.22,0.172c-0.398,0.455-0.779,0.938-1.135,1.436
		c-0.236,0.329-0.159,0.787,0.17,1.022C110.584,64.814,111.042,64.737,111.278,64.407z"/>
	<path d="M108.219,68.867c0.38,0.138,0.8-0.055,0.94-0.437c0.192-0.526,0.413-1.048,0.657-1.551
		c0.176-0.364,0.023-0.802-0.341-0.979c-0.215-0.103-0.454-0.094-0.652,0.007c-0.138,0.07-0.255,0.184-0.327,0.335
		c-0.264,0.547-0.505,1.114-0.714,1.685C107.643,68.306,107.838,68.727,108.219,68.867z"/>
	<path d="M142.841,73.932c-0.147,0.005-0.283,0.052-0.395,0.13c-0.197,0.137-0.323,0.369-0.314,0.626
		c0.017,0.557,0.008,1.124-0.029,1.687c-0.026,0.404,0.28,0.753,0.684,0.779c0.404,0.026,0.754-0.28,0.779-0.684
		c0.039-0.61,0.05-1.226,0.03-1.828C143.583,74.236,143.244,73.919,142.841,73.932z"/>
	<path d="M142.559,78.673c-0.211-0.049-0.422-0.003-0.588,0.111c-0.143,0.1-0.251,0.251-0.294,0.433
		c-0.129,0.547-0.285,1.092-0.466,1.62c-0.131,0.384,0.073,0.8,0.457,0.931c0.384,0.13,0.8-0.074,0.931-0.458
		c0.195-0.573,0.365-1.164,0.505-1.757C143.197,79.16,142.952,78.766,142.559,78.673z"/>
	<path d="M110.144,83.008c-0.257-0.502-0.492-1.019-0.698-1.536c-0.094-0.239-0.302-0.401-0.537-0.449
		c-0.134-0.027-0.278-0.016-0.414,0.038c-0.376,0.149-0.56,0.575-0.411,0.951c0.222,0.561,0.477,1.121,0.755,1.665
		c0.184,0.361,0.627,0.502,0.987,0.317C110.187,83.81,110.329,83.368,110.144,83.008z"/>
	<path d="M111.666,85.447c-0.112-0.15-0.271-0.246-0.443-0.28c-0.197-0.04-0.409,0.002-0.583,0.132
		c-0.324,0.242-0.391,0.701-0.149,1.026c0.364,0.488,0.756,0.962,1.162,1.411c0.273,0.3,0.736,0.322,1.036,0.049
		c0.299-0.273,0.322-0.736,0.048-1.036C112.363,86.336,112.002,85.897,111.666,85.447z"/>
	<path d="M127.387,92.075c-0.559,0.078-1.124,0.131-1.68,0.155c-0.257,0.011-0.478,0.153-0.6,0.36
		c-0.07,0.118-0.106,0.257-0.1,0.404c0.017,0.404,0.359,0.718,0.764,0.7c0.602-0.026,1.215-0.082,1.821-0.167
		c0.401-0.056,0.68-0.428,0.624-0.828C128.159,92.298,127.787,92.019,127.387,92.075z"/>
	<path d="M131.771,90.852c-0.513,0.219-1.045,0.416-1.58,0.586c-0.179,0.057-0.321,0.176-0.41,0.326
		c-0.102,0.173-0.132,0.387-0.067,0.594c0.122,0.385,0.534,0.6,0.92,0.477c0.58-0.184,1.157-0.398,1.714-0.635
		c0.373-0.16,0.545-0.59,0.387-0.963C132.574,90.866,132.144,90.692,131.771,90.852z"/>
</g>
<path d="M178.615,70.348c0-2.014-1.611-3.652-3.591-3.652s-3.591,1.639-3.591,3.652c0,1.325,0.704,2.476,1.744,3.117
	c-1.01,0.351-1.744,1.314-1.744,2.458v5.134h7.182v-5.134c0-1.144-0.733-2.107-1.744-2.458
	C177.911,72.824,178.615,71.673,178.615,70.348z"/>
<g>
	<path d="M234.918,85.646c-2.225,0-4.034,1.841-4.034,4.103s1.81,4.103,4.034,4.103s4.035-1.841,4.035-4.103
		S237.143,85.646,234.918,85.646z"/>
	<path d="M215.075,85.646c-2.225,0-4.035,1.841-4.035,4.103s1.811,4.103,4.035,4.103s4.035-1.841,4.035-4.103
		S217.3,85.646,215.075,85.646z"/>
	<path d="M225.114,61.335c2.225,0,4.035-1.841,4.035-4.103s-1.811-4.103-4.035-4.103s-4.035,1.841-4.035,4.103
		S222.89,61.335,225.114,61.335z"/>
	<path d="M242.359,66.945c-2.225,0-4.035,1.841-4.035,4.103s1.811,4.102,4.035,4.102s4.034-1.84,4.034-4.102
		S244.584,66.945,242.359,66.945z"/>
	<path d="M211.651,71.078c0-2.262-1.811-4.103-4.035-4.103s-4.035,1.841-4.035,4.103s1.811,4.102,4.035,4.102
		S211.651,73.34,211.651,71.078z"/>
	<path d="M231.283,58.532c0.52,0.204,1.037,0.438,1.536,0.694c0.361,0.183,0.802,0.043,0.987-0.317
		c0.185-0.36,0.044-0.802-0.317-0.987c-0.543-0.279-1.104-0.532-1.669-0.755c-0.026-0.01-0.051-0.019-0.077-0.026
		c-0.356-0.097-0.735,0.089-0.873,0.44C230.722,57.958,230.907,58.384,231.283,58.532z"/>
	<path d="M236.541,61.834c0.298,0.275,0.762,0.257,1.035-0.041c0.275-0.297,0.257-0.761-0.041-1.035
		c-0.45-0.416-0.921-0.811-1.403-1.175c-0.077-0.058-0.161-0.099-0.25-0.123c-0.28-0.076-0.59,0.02-0.776,0.266
		c-0.244,0.322-0.181,0.782,0.142,1.026C235.692,61.087,236.126,61.451,236.541,61.834z"/>
	<path d="M239.433,65.343c0.215,0.346,0.665,0.449,1.009,0.237c0.344-0.214,0.45-0.666,0.237-1.009
		c-0.321-0.517-0.672-1.023-1.042-1.505c-0.102-0.133-0.24-0.221-0.388-0.261c-0.214-0.058-0.45-0.019-0.639,0.126
		c-0.321,0.247-0.382,0.707-0.135,1.028C238.816,64.401,239.138,64.867,239.433,65.343z"/>
	<path d="M218.49,57.142c-0.025,0.007-0.051,0.016-0.077,0.026c-0.565,0.222-1.127,0.476-1.669,0.755
		c-0.361,0.185-0.502,0.627-0.317,0.987c0.185,0.36,0.625,0.5,0.987,0.317c0.499-0.256,1.015-0.49,1.536-0.694
		c0.377-0.148,0.562-0.573,0.414-0.95C219.226,57.23,218.847,57.045,218.49,57.142z"/>
	<path d="M213.692,61.834c0.415-0.383,0.85-0.747,1.293-1.082c0.323-0.245,0.387-0.704,0.142-1.026
		c-0.186-0.246-0.497-0.342-0.776-0.266c-0.089,0.024-0.173,0.065-0.25,0.123c-0.482,0.365-0.953,0.76-1.403,1.175
		c-0.298,0.274-0.316,0.738-0.041,1.035C212.93,62.091,213.394,62.109,213.692,61.834z"/>
	<path d="M209.79,65.579c0.344,0.212,0.795,0.109,1.009-0.237c0.295-0.476,0.618-0.942,0.959-1.385
		c0.247-0.321,0.186-0.781-0.135-1.028c-0.189-0.145-0.425-0.184-0.639-0.126c-0.149,0.04-0.287,0.128-0.388,0.261
		c-0.37,0.482-0.721,0.988-1.042,1.505C209.34,64.913,209.446,65.365,209.79,65.579z"/>
	<path d="M242.66,77.575c-0.145-0.025-0.287-0.007-0.413,0.047c-0.221,0.094-0.391,0.295-0.435,0.549
		c-0.096,0.549-0.221,1.102-0.371,1.646c-0.108,0.39,0.121,0.794,0.511,0.902c0.39,0.107,0.795-0.121,0.902-0.511
		c0.162-0.59,0.298-1.19,0.401-1.784C243.325,78.024,243.058,77.644,242.66,77.575z"/>
	<path d="M241.421,82.16c-0.197-0.091-0.413-0.089-0.598-0.01c-0.161,0.069-0.297,0.195-0.376,0.365
		c-0.237,0.509-0.502,1.011-0.785,1.491c-0.207,0.349-0.091,0.798,0.258,1.005c0.349,0.206,0.798,0.091,1.004-0.259
		c0.307-0.522,0.594-1.066,0.851-1.617C241.946,82.767,241.787,82.331,241.421,82.16z"/>
	<path d="M208.801,79.816c-0.15-0.544-0.275-1.097-0.371-1.646c-0.044-0.253-0.214-0.454-0.435-0.549
		c-0.126-0.054-0.269-0.072-0.413-0.047c-0.398,0.069-0.665,0.449-0.596,0.848c0.103,0.594,0.239,1.195,0.401,1.784
		c0.107,0.391,0.512,0.619,0.902,0.511C208.68,80.611,208.908,80.206,208.801,79.816z"/>
	<path d="M209.795,82.514c-0.079-0.17-0.216-0.296-0.376-0.365c-0.185-0.079-0.401-0.081-0.598,0.01
		c-0.366,0.171-0.526,0.607-0.354,0.974c0.257,0.552,0.544,1.096,0.851,1.617c0.207,0.349,0.655,0.465,1.004,0.259
		c0.349-0.207,0.465-0.655,0.258-1.005C210.297,83.526,210.033,83.023,209.795,82.514z"/>
	<path d="M223.841,92.199c-0.563-0.037-1.127-0.1-1.677-0.19c-0.254-0.042-0.499,0.053-0.661,0.231
		c-0.092,0.101-0.156,0.23-0.18,0.375c-0.065,0.399,0.206,0.776,0.606,0.841c0.595,0.097,1.207,0.166,1.817,0.206
		c0.404,0.027,0.753-0.281,0.779-0.684C224.552,92.574,224.245,92.225,223.841,92.199z"/>
	<path d="M228.382,91.892c-0.546,0.11-1.108,0.195-1.667,0.252c-0.186,0.019-0.35,0.107-0.468,0.236
		c-0.135,0.149-0.208,0.352-0.187,0.568c0.041,0.402,0.401,0.696,0.804,0.654c0.605-0.062,1.214-0.155,1.807-0.273
		c0.398-0.081,0.654-0.467,0.574-0.864C229.166,92.069,228.78,91.812,228.382,91.892z"/>
</g>
<path d="M80.707,38.396c-2.09-0.761-4.42,0.35-5.194,2.475s0.297,4.474,2.388,5.235c2.09,0.761,4.421-0.35,5.195-2.475
	S82.798,39.157,80.707,38.396z M78.38,44.79c-1.365-0.497-2.06-2.04-1.551-3.44c0.51-1.4,2.035-2.135,3.399-1.638
	c1.365,0.497,2.061,2.04,1.552,3.44C81.27,44.553,79.745,45.287,78.38,44.79z"/>
<path d="M62.061,31.609c-2.09-0.761-4.421,0.35-5.195,2.475c-0.774,2.125,0.298,4.474,2.389,5.235
	c2.09,0.761,4.421-0.35,5.195-2.475S64.151,32.37,62.061,31.609z M59.734,38.004c-1.365-0.497-2.061-2.04-1.552-3.44
	c0.51-1.4,2.035-2.135,3.4-1.638c1.365,0.497,2.061,2.04,1.552,3.44C62.624,37.766,61.099,38.501,59.734,38.004z"/>
<path d="M79.809,12.198c2.09,0.761,4.421-0.35,5.195-2.475s-0.298-4.474-2.389-5.235s-4.421,0.35-5.195,2.475
	C76.647,9.088,77.719,11.438,79.809,12.198z M82.137,5.804c1.365,0.497,2.061,2.04,1.552,3.44s-2.035,2.135-3.4,1.638
	c-1.365-0.497-2.061-2.04-1.552-3.44S80.771,5.307,82.137,5.804z"/>
<path d="M94.096,23.368c-2.09-0.761-4.421,0.35-5.195,2.475s0.299,4.473,2.389,5.234c2.09,0.761,4.42-0.349,5.194-2.474
	S96.186,24.128,94.096,23.368z M91.769,29.761c-1.365-0.497-2.061-2.04-1.552-3.439c0.51-1.4,2.035-2.135,3.4-1.638
	c1.365,0.497,2.06,2.04,1.551,3.44C94.658,29.523,93.133,30.258,91.769,29.761z"/>
<path d="M63.826,16.749c0.774-2.125-0.298-4.474-2.389-5.235s-4.421,0.35-5.195,2.475s0.299,4.473,2.389,5.234
	C60.722,19.984,63.052,18.875,63.826,16.749z M57.558,14.468c0.51-1.4,2.035-2.135,3.4-1.638s2.061,2.04,1.552,3.44
	c-0.509,1.399-2.034,2.134-3.4,1.637S57.049,15.868,57.558,14.468z"/>
<path d="M78.615,20.348c0-2.014-1.611-3.652-3.591-3.652s-3.591,1.639-3.591,3.652c0,1.325,0.704,2.476,1.744,3.117
	c-1.01,0.351-1.744,1.314-1.744,2.458v5.134h7.182v-5.134c0-1.144-0.733-2.107-1.744-2.458
	C77.911,22.824,78.615,21.673,78.615,20.348z"/>
<path d="M86.565,11.674c0.419,0.37,0.824,0.766,1.206,1.178c0.277,0.296,0.739,0.314,1.036,0.039
	c0.297-0.275,0.315-0.739,0.039-1.036c-0.415-0.448-0.855-0.878-1.311-1.28c-0.021-0.018-0.042-0.035-0.063-0.051
	c-0.302-0.213-0.721-0.168-0.971,0.115C86.233,10.943,86.262,11.406,86.565,11.674z"/>
<path d="M90.377,16.575c0.186,0.36,0.628,0.502,0.987,0.316c0.36-0.185,0.502-0.627,0.316-0.987
	c-0.281-0.544-0.589-1.077-0.917-1.584c-0.053-0.081-0.117-0.149-0.193-0.201c-0.237-0.167-0.561-0.183-0.821-0.016
	c-0.34,0.219-0.437,0.673-0.217,1.013C89.834,15.583,90.118,16.073,90.377,16.575z"/>
<path d="M91.894,20.862c0.084,0.398,0.472,0.649,0.868,0.568c0.397-0.083,0.651-0.472,0.567-0.868
	c-0.125-0.596-0.281-1.191-0.464-1.771c-0.05-0.16-0.15-0.289-0.276-0.378c-0.181-0.128-0.417-0.172-0.644-0.1
	c-0.386,0.122-0.601,0.534-0.479,0.92C91.636,19.765,91.78,20.314,91.894,20.862z"/>
<path d="M75.019,5.992C74.993,5.99,74.966,5.99,74.938,5.99c-0.607,0.016-1.221,0.062-1.827,0.138
	c-0.402,0.05-0.686,0.418-0.635,0.819c0.051,0.401,0.417,0.684,0.819,0.635c0.557-0.07,1.122-0.113,1.681-0.127
	c0.405-0.01,0.724-0.347,0.714-0.751C75.68,6.327,75.387,6.023,75.019,5.992z"/>
<path d="M68.905,8.76c0.521-0.218,1.054-0.411,1.585-0.575c0.387-0.119,0.604-0.529,0.485-0.916
	c-0.091-0.295-0.35-0.491-0.639-0.515c-0.092-0.008-0.184,0.002-0.277,0.031c-0.578,0.178-1.156,0.388-1.721,0.624
	c-0.374,0.156-0.549,0.586-0.392,0.959C68.101,8.741,68.531,8.917,68.905,8.76z"/>
<path d="M63.958,10.945c0.251,0.317,0.709,0.374,1.029,0.123c0.44-0.346,0.903-0.674,1.375-0.974
	c0.342-0.217,0.442-0.67,0.224-1.012c-0.128-0.201-0.337-0.318-0.558-0.337c-0.154-0.013-0.314,0.023-0.454,0.113
	c-0.513,0.326-1.015,0.682-1.494,1.058C63.763,10.165,63.707,10.626,63.958,10.945z"/>
<path d="M90.742,33.459c-0.127-0.073-0.268-0.105-0.404-0.097c-0.24,0.013-0.468,0.144-0.596,0.367
	c-0.278,0.483-0.584,0.96-0.911,1.42c-0.234,0.33-0.158,0.788,0.172,1.022c0.33,0.234,0.788,0.159,1.022-0.172
	c0.354-0.498,0.687-1.016,0.987-1.539C91.214,34.109,91.093,33.661,90.742,33.459z"/>
<path d="M88.01,37.344c-0.154-0.153-0.357-0.225-0.558-0.214c-0.175,0.01-0.346,0.081-0.478,0.214
	c-0.397,0.397-0.817,0.779-1.248,1.133c-0.314,0.258-0.358,0.719-0.101,1.032c0.258,0.313,0.719,0.358,1.032,0.1
	c0.467-0.385,0.923-0.798,1.353-1.229C88.296,38.094,88.295,37.63,88.01,37.344z"/>
<path d="M58.159,23.985c0.045-0.562,0.117-1.125,0.214-1.673c0.046-0.253-0.045-0.5-0.221-0.664c-0.1-0.093-0.228-0.16-0.372-0.185
	c-0.398-0.071-0.778,0.194-0.85,0.593c-0.106,0.594-0.184,1.204-0.233,1.814c-0.033,0.404,0.269,0.757,0.673,0.789
	C57.773,24.69,58.127,24.389,58.159,23.985z"/>
<path d="M58.171,26.861c-0.016-0.187-0.101-0.352-0.229-0.471c-0.147-0.138-0.349-0.213-0.565-0.195
	c-0.402,0.035-0.702,0.391-0.666,0.794c0.053,0.606,0.137,1.216,0.247,1.811c0.075,0.399,0.457,0.661,0.855,0.587
	c0.398-0.075,0.661-0.457,0.586-0.856C58.296,27.983,58.219,27.42,58.171,26.861z"/>
<path d="M68.057,40.765c-0.517-0.227-1.024-0.48-1.511-0.752c-0.224-0.126-0.487-0.121-0.7-0.009
	c-0.121,0.064-0.226,0.163-0.297,0.291c-0.198,0.352-0.072,0.799,0.281,0.997c0.526,0.295,1.077,0.569,1.637,0.815
	c0.371,0.164,0.803-0.006,0.966-0.377C68.596,41.361,68.427,40.928,68.057,40.765z"/>
<path d="M72.429,42.03c-0.551-0.083-1.108-0.195-1.652-0.333c-0.182-0.046-0.366-0.02-0.52,0.062c-0.178,0.094-0.316,0.26-0.37,0.47
	c-0.099,0.392,0.139,0.791,0.532,0.89c0.59,0.149,1.193,0.27,1.792,0.361c0.401,0.06,0.774-0.215,0.835-0.615
	C73.105,42.464,72.83,42.091,72.429,42.03z"/>
<path d="M128.615,20.348c0-2.014-1.611-3.652-3.591-3.652s-3.591,1.639-3.591,3.652c0,1.325,0.704,2.476,1.744,3.117
	c-1.01,0.351-1.744,1.314-1.744,2.458v5.134h7.182v-5.134c0-1.144-0.733-2.107-1.744-2.458
	C127.911,22.824,128.615,21.673,128.615,20.348z"/>
<g>
	<path d="M125.783,39.53c-1.704-1.43-4.274-1.183-5.727,0.55s-1.251,4.306,0.453,5.736s4.274,1.184,5.728-0.549
		C127.691,43.534,127.487,40.96,125.783,39.53z M121.409,44.743c-1.112-0.933-1.239-2.621-0.281-3.763
		c0.958-1.142,2.642-1.31,3.755-0.377c1.113,0.934,1.239,2.622,0.281,3.764C124.206,45.508,122.522,45.677,121.409,44.743z"/>
	<path d="M110.583,26.776c-1.704-1.43-4.274-1.184-5.728,0.549c-1.454,1.733-1.25,4.307,0.454,5.736
		c1.704,1.43,4.274,1.184,5.728-0.549C112.49,30.78,112.287,28.206,110.583,26.776z M106.209,31.988
		c-1.113-0.934-1.239-2.622-0.281-3.764c0.958-1.142,2.642-1.31,3.755-0.376c1.113,0.934,1.239,2.622,0.281,3.764
		C109.006,32.754,107.322,32.922,106.209,31.988z"/>
	<path d="M133.899,14.606c1.704,1.43,4.274,1.184,5.728-0.549c1.454-1.733,1.25-4.307-0.454-5.736
		c-1.704-1.43-4.274-1.184-5.728,0.549S132.195,13.176,133.899,14.606z M138.273,9.393c1.113,0.934,1.239,2.622,0.281,3.764
		c-0.958,1.142-2.642,1.31-3.755,0.376c-1.113-0.934-1.239-2.622-0.281-3.764C135.476,8.628,137.16,8.459,138.273,9.393z"/>
	<path d="M143.504,29.988c-1.704-1.43-4.274-1.184-5.728,0.549c-1.454,1.733-1.249,4.306,0.455,5.736
		c1.704,1.43,4.273,1.184,5.727-0.549C145.411,33.991,145.208,31.418,143.504,29.988z M139.131,35.2
		c-1.113-0.934-1.239-2.622-0.282-3.763c0.958-1.142,2.642-1.31,3.755-0.376c1.112,0.933,1.239,2.621,0.281,3.763
		C141.928,35.964,140.243,36.133,139.131,35.2z"/>
	<path d="M117.323,13.416c1.454-1.733,1.25-4.307-0.454-5.736s-4.274-1.184-5.728,0.549s-1.249,4.306,0.455,5.736
		C113.3,15.394,115.87,15.148,117.323,13.416z M112.214,9.128c0.958-1.142,2.642-1.31,3.755-0.376s1.239,2.622,0.281,3.764
		c-0.957,1.141-2.641,1.31-3.755,0.376C111.383,11.957,111.257,10.269,112.214,9.128z"/>
	<path d="M140.427,16.423c0.268,0.491,0.512,1.002,0.73,1.519c0.159,0.372,0.587,0.548,0.96,0.391
		c0.373-0.157,0.549-0.586,0.391-0.96c-0.236-0.562-0.504-1.118-0.794-1.651c-0.013-0.024-0.027-0.048-0.042-0.069
		c-0.211-0.303-0.62-0.405-0.952-0.224C140.365,15.623,140.233,16.068,140.427,16.423z"/>
	<path d="M142.333,22.333c0.051,0.402,0.418,0.687,0.819,0.634c0.401-0.051,0.686-0.418,0.634-0.819
		c-0.077-0.607-0.185-1.213-0.32-1.802c-0.022-0.094-0.06-0.18-0.112-0.255c-0.166-0.238-0.465-0.364-0.766-0.295
		c-0.394,0.09-0.641,0.483-0.551,0.878C142.162,21.215,142.261,21.773,142.333,22.333z"/>
	<path d="M142.292,26.88c-0.058,0.403,0.221,0.772,0.621,0.83c0.402,0.057,0.773-0.221,0.83-0.621
		c0.086-0.603,0.143-1.215,0.17-1.822c0.007-0.167-0.042-0.323-0.13-0.45c-0.127-0.182-0.333-0.304-0.571-0.314
		c-0.405-0.017-0.747,0.296-0.764,0.7C142.425,25.761,142.372,26.326,142.292,26.88z"/>
	<path d="M131.521,7.135c-0.024-0.011-0.05-0.021-0.076-0.03c-0.576-0.193-1.169-0.36-1.764-0.495
		c-0.395-0.09-0.787,0.158-0.877,0.552c-0.09,0.394,0.158,0.785,0.552,0.877c0.547,0.125,1.093,0.277,1.623,0.456
		c0.384,0.129,0.799-0.078,0.928-0.462C132.027,7.676,131.856,7.29,131.521,7.135z"/>
	<path d="M124.829,7.645c0.564-0.026,1.131-0.026,1.686,0.002c0.405,0.02,0.749-0.291,0.769-0.695
		c0.016-0.308-0.161-0.581-0.424-0.703c-0.083-0.039-0.174-0.061-0.271-0.066c-0.603-0.031-1.219-0.031-1.83-0.002
		c-0.404,0.018-0.716,0.363-0.697,0.767C124.079,7.353,124.424,7.665,124.829,7.645z"/>
	<path d="M119.433,8.007c0.127,0.384,0.539,0.594,0.925,0.468c0.532-0.175,1.078-0.324,1.625-0.445
		c0.395-0.087,0.644-0.479,0.557-0.874c-0.052-0.233-0.208-0.414-0.409-0.507c-0.14-0.065-0.302-0.086-0.466-0.05
		c-0.593,0.131-1.187,0.294-1.765,0.483C119.516,7.207,119.306,7.621,119.433,8.007z"/>
	<path d="M136.901,38.324c-0.094-0.112-0.216-0.19-0.347-0.23c-0.23-0.07-0.489-0.025-0.686,0.141
		c-0.426,0.358-0.878,0.702-1.342,1.022c-0.333,0.23-0.418,0.687-0.188,1.02c0.23,0.333,0.686,0.419,1.02,0.188
		c0.503-0.347,0.993-0.72,1.454-1.109C137.122,39.095,137.162,38.633,136.901,38.324z"/>
	<path d="M133.005,41.04c-0.092-0.196-0.259-0.334-0.451-0.392c-0.167-0.051-0.353-0.042-0.523,0.037
		c-0.509,0.237-1.034,0.452-1.56,0.638c-0.383,0.135-0.582,0.553-0.448,0.935c0.135,0.382,0.553,0.582,0.936,0.447
		c0.571-0.202,1.14-0.435,1.692-0.692C133.017,41.843,133.176,41.406,133.005,41.04z"/>
	<path d="M109.523,18.277c0.235-0.513,0.495-1.017,0.774-1.499c0.129-0.222,0.128-0.485,0.02-0.7
		c-0.062-0.122-0.159-0.228-0.286-0.302c-0.349-0.203-0.798-0.084-1.001,0.267c-0.303,0.521-0.585,1.068-0.839,1.625
		c-0.169,0.368-0.006,0.803,0.362,0.971C108.92,18.807,109.355,18.645,109.523,18.277z"/>
	<path d="M108.551,20.983c0.048-0.181,0.025-0.365-0.054-0.521c-0.091-0.179-0.255-0.32-0.465-0.377
		c-0.39-0.104-0.793,0.127-0.898,0.519c-0.157,0.588-0.287,1.189-0.387,1.786c-0.066,0.4,0.203,0.777,0.603,0.844
		c0.4,0.065,0.777-0.204,0.843-0.604C108.285,22.08,108.405,21.525,108.551,20.983z"/>
	<path d="M113.085,37.43c-0.408-0.39-0.799-0.801-1.162-1.223c-0.167-0.195-0.417-0.281-0.655-0.248
		c-0.135,0.018-0.268,0.076-0.379,0.172c-0.306,0.263-0.341,0.726-0.077,1.033c0.393,0.457,0.817,0.903,1.259,1.326
		c0.292,0.281,0.757,0.269,1.037-0.023C113.388,38.174,113.378,37.71,113.085,37.43z"/>
	<path d="M116.761,40.114c-0.49-0.267-0.974-0.563-1.439-0.878c-0.155-0.105-0.337-0.143-0.51-0.12
		c-0.199,0.027-0.386,0.136-0.508,0.315c-0.227,0.334-0.14,0.791,0.195,1.018c0.504,0.342,1.029,0.662,1.56,0.952
		c0.356,0.194,0.801,0.063,0.995-0.293C117.248,40.753,117.118,40.308,116.761,40.114z"/>
</g>
<path d="M178.615,20.348c0-2.014-1.611-3.652-3.591-3.652s-3.591,1.639-3.591,3.652c0,1.325,0.704,2.476,1.744,3.117
	c-1.01,0.351-1.744,1.314-1.744,2.458v5.134h7.182v-5.134c0-1.144-0.733-2.107-1.744-2.458
	C177.911,22.824,178.615,21.673,178.615,20.348z"/>
<g>
	<path d="M170.768,38.912c-1.112-1.927-3.611-2.573-5.57-1.442s-2.648,3.618-1.536,5.545c1.112,1.927,3.612,2.574,5.57,1.443
		S171.88,40.839,170.768,38.912z M164.875,42.315c-0.726-1.258-0.267-2.887,1.023-3.632c1.291-0.745,2.931-0.328,3.657,0.93
		c0.727,1.258,0.268,2.888-1.023,3.633C167.242,43.99,165.601,43.573,164.875,42.315z"/>
	<path d="M160.846,21.728c-1.112-1.927-3.612-2.574-5.57-1.443s-2.648,3.619-1.535,5.546s3.612,2.574,5.57,1.443
		S161.959,23.654,160.846,21.728z M154.953,25.13c-0.727-1.258-0.268-2.888,1.023-3.633c1.291-0.745,2.931-0.328,3.658,0.931
		c0.727,1.258,0.268,2.888-1.023,3.633C157.32,26.806,155.68,26.389,154.953,25.13z"/>
	<path d="M186.919,18.267c1.112,1.927,3.612,2.574,5.57,1.443c1.959-1.131,2.648-3.619,1.535-5.546s-3.612-2.574-5.57-1.443
		C186.496,13.852,185.807,16.34,186.919,18.267z M192.813,14.864c0.727,1.258,0.268,2.888-1.023,3.633
		c-1.291,0.745-2.931,0.328-3.658-0.931s-0.268-2.888,1.023-3.633C190.446,13.188,192.086,13.606,192.813,14.864z"/>
	<path d="M190.684,36.006c-1.112-1.927-3.612-2.574-5.57-1.443c-1.959,1.131-2.647,3.619-1.534,5.545
		c1.112,1.927,3.61,2.574,5.569,1.443C191.107,40.42,191.796,37.933,190.684,36.006z M184.792,39.408
		c-0.727-1.258-0.268-2.888,1.022-3.632c1.291-0.745,2.931-0.328,3.658,0.931c0.726,1.258,0.267,2.887-1.023,3.632
		C187.158,41.083,185.518,40.665,184.792,39.408z"/>
	<path d="M171.75,11.479c1.959-1.131,2.648-3.619,1.535-5.546s-3.612-2.574-5.57-1.443s-2.647,3.619-1.534,5.545
		S169.792,12.61,171.75,11.479z M168.415,5.703c1.291-0.745,2.931-0.328,3.658,0.931s0.268,2.888-1.023,3.633
		c-1.29,0.745-2.93,0.327-3.657-0.931S167.126,6.447,168.415,5.703z"/>
	<path d="M192.432,22.207c0.084,0.553,0.139,1.117,0.167,1.677c0.022,0.404,0.364,0.716,0.768,0.696
		c0.404-0.02,0.716-0.363,0.696-0.768c-0.03-0.609-0.091-1.222-0.181-1.823c-0.004-0.027-0.009-0.054-0.016-0.08
		c-0.094-0.357-0.445-0.593-0.818-0.536C192.647,21.434,192.371,21.807,192.432,22.207z"/>
	<path d="M192.201,28.412c-0.089,0.395,0.158,0.789,0.553,0.876c0.394,0.09,0.788-0.158,0.876-0.553
		c0.135-0.597,0.241-1.203,0.316-1.803c0.012-0.096,0.006-0.189-0.018-0.278c-0.074-0.28-0.312-0.501-0.618-0.539
		c-0.401-0.05-0.767,0.234-0.818,0.636C192.423,27.303,192.325,27.861,192.201,28.412z"/>
	<path d="M190.608,32.671c-0.192,0.359-0.056,0.801,0.3,0.992c0.358,0.191,0.802,0.057,0.992-0.3
		c0.287-0.537,0.55-1.093,0.783-1.655c0.064-0.154,0.071-0.318,0.032-0.467c-0.057-0.214-0.209-0.399-0.429-0.491
		c-0.374-0.155-0.803,0.023-0.958,0.397C191.115,31.665,190.873,32.178,190.608,32.671z"/>
	<path d="M187.239,10.433c-0.019-0.019-0.039-0.036-0.061-0.054c-0.475-0.378-0.975-0.738-1.488-1.068
		c-0.34-0.22-0.794-0.121-1.013,0.219c-0.219,0.34-0.12,0.792,0.219,1.013c0.471,0.304,0.932,0.634,1.369,0.983
		c0.316,0.252,0.777,0.2,1.03-0.117C187.53,11.115,187.501,10.694,187.239,10.433z"/>
	<path d="M180.776,8.623c0.539,0.168,1.071,0.363,1.584,0.578c0.373,0.158,0.803-0.017,0.96-0.39
		c0.12-0.284,0.048-0.601-0.158-0.805c-0.065-0.065-0.143-0.117-0.232-0.155c-0.557-0.235-1.135-0.446-1.719-0.628
		c-0.386-0.121-0.797,0.096-0.917,0.482C180.172,8.092,180.389,8.503,180.776,8.623z"/>
	<path d="M175.582,7.118c-0.012,0.404,0.303,0.743,0.71,0.756c0.559,0.018,1.124,0.064,1.679,0.138
		c0.401,0.053,0.769-0.23,0.822-0.631c0.031-0.236-0.053-0.46-0.211-0.617c-0.109-0.109-0.255-0.184-0.42-0.206
		c-0.602-0.08-1.216-0.13-1.824-0.149C175.934,6.395,175.595,6.712,175.582,7.118z"/>
	<path d="M181.628,41.581c-0.05-0.138-0.138-0.252-0.247-0.334c-0.192-0.144-0.451-0.191-0.693-0.102
		c-0.523,0.191-1.065,0.36-1.611,0.502c-0.391,0.102-0.627,0.502-0.525,0.894c0.102,0.391,0.502,0.628,0.894,0.525
		c0.592-0.154,1.18-0.337,1.746-0.545C181.572,42.382,181.767,41.96,181.628,41.581z"/>
	<path d="M177.038,42.801c-0.02-0.216-0.129-0.402-0.29-0.523c-0.14-0.105-0.317-0.16-0.504-0.144
		c-0.559,0.049-1.127,0.071-1.684,0.066c-0.406-0.004-0.736,0.32-0.741,0.726c-0.004,0.405,0.321,0.736,0.726,0.74
		c0.605,0.005,1.22-0.018,1.826-0.071C176.775,43.559,177.073,43.203,177.038,42.801z"/>
	<path d="M162.758,13.379c0.396-0.402,0.813-0.787,1.24-1.144c0.198-0.165,0.287-0.412,0.258-0.651
		c-0.016-0.136-0.072-0.269-0.166-0.381c-0.259-0.31-0.721-0.352-1.032-0.092c-0.463,0.386-0.915,0.804-1.344,1.239
		c-0.285,0.288-0.28,0.753,0.008,1.037C162.009,13.671,162.474,13.667,162.758,13.379z"/>
	<path d="M160.919,15.589c0.107-0.154,0.148-0.335,0.128-0.508c-0.024-0.2-0.13-0.388-0.308-0.513
		c-0.331-0.232-0.789-0.152-1.021,0.18c-0.349,0.499-0.677,1.019-0.975,1.546c-0.199,0.354-0.075,0.8,0.278,0.999
		c0.353,0.198,0.8,0.075,0.999-0.279C160.293,16.53,160.596,16.049,160.919,15.589z"/>
	<path d="M159.554,32.596c-0.25-0.506-0.476-1.026-0.674-1.547c-0.091-0.241-0.295-0.406-0.53-0.457
		c-0.134-0.029-0.277-0.02-0.415,0.032c-0.378,0.143-0.569,0.566-0.425,0.945c0.213,0.564,0.459,1.128,0.73,1.677
		c0.179,0.364,0.619,0.511,0.982,0.333C159.585,33.399,159.733,32.958,159.554,32.596z"/>
	<path d="M162.09,36.375c-0.369-0.418-0.723-0.862-1.052-1.317c-0.11-0.152-0.267-0.25-0.438-0.287
		c-0.197-0.043-0.409-0.004-0.585,0.123c-0.327,0.237-0.402,0.695-0.165,1.024c0.356,0.493,0.741,0.974,1.14,1.428
		c0.269,0.304,0.731,0.333,1.035,0.065C162.329,37.142,162.359,36.68,162.09,36.375z"/>
</g>
<path d="M228.615,20.348c0-2.014-1.611-3.652-3.591-3.652s-3.591,1.639-3.591,3.652c0,1.325,0.704,2.476,1.744,3.117
	c-1.01,0.351-1.744,1.314-1.744,2.458v5.134h7.182v-5.134c0-1.144-0.733-2.107-1.744-2.458
	C227.911,22.824,228.615,21.673,228.615,20.348z"/>
<g>
	<path d="M216.266,36.616c-0.386-2.191-2.513-3.653-4.741-3.26c-2.227,0.393-3.726,2.494-3.34,4.685
		c0.386,2.191,2.514,3.654,4.741,3.261C215.154,40.91,216.653,38.807,216.266,36.616z M209.565,37.798
		c-0.252-1.43,0.736-2.804,2.204-3.063s2.866,0.694,3.118,2.125c0.252,1.431-0.736,2.805-2.204,3.064
		C211.216,40.182,209.818,39.229,209.565,37.798z"/>
	<path d="M212.821,17.075c-0.386-2.191-2.514-3.654-4.741-3.261c-2.227,0.393-3.726,2.495-3.34,4.686
		c0.386,2.191,2.514,3.654,4.741,3.261C211.709,21.368,213.207,19.266,212.821,17.075z M206.12,18.256
		c-0.252-1.431,0.736-2.805,2.204-3.064s2.866,0.694,3.119,2.126c0.252,1.431-0.736,2.805-2.204,3.064
		C207.771,20.641,206.372,19.687,206.12,18.256z"/>
	<path d="M238.505,22.74c0.386,2.191,2.514,3.654,4.741,3.261c2.227-0.393,3.726-2.495,3.34-4.686
		c-0.386-2.191-2.514-3.654-4.741-3.261C239.617,18.446,238.119,20.549,238.505,22.74z M245.207,21.558
		c0.252,1.431-0.736,2.805-2.204,3.064c-1.468,0.259-2.866-0.694-3.119-2.126s0.736-2.805,2.204-3.064
		C243.556,19.174,244.954,20.127,245.207,21.558z"/>
	<path d="M235.976,40.697c-0.386-2.191-2.514-3.654-4.741-3.261c-2.227,0.393-3.725,2.495-3.339,4.686
		c0.386,2.191,2.512,3.653,4.74,3.261S236.362,42.888,235.976,40.697z M229.275,41.878c-0.252-1.431,0.736-2.805,2.203-3.064
		c1.468-0.259,2.866,0.694,3.119,2.126c0.252,1.43-0.736,2.804-2.204,3.063C230.926,44.262,229.528,43.308,229.275,41.878z"/>
	<path d="M226.572,11.173c2.227-0.393,3.726-2.495,3.34-4.686c-0.386-2.191-2.514-3.654-4.741-3.261s-3.725,2.495-3.339,4.686
		C222.219,10.102,224.345,11.566,226.572,11.173z M225.414,4.605c1.468-0.259,2.866,0.694,3.119,2.126
		c0.252,1.431-0.736,2.805-2.204,3.064c-1.467,0.259-2.865-0.695-3.118-2.126S223.947,4.863,225.414,4.605z"/>
	<path d="M242.337,28.328c-0.111,0.548-0.252,1.097-0.417,1.633c-0.118,0.388,0.097,0.797,0.484,0.917
		c0.386,0.119,0.797-0.096,0.917-0.484c0.18-0.583,0.333-1.18,0.453-1.775c0.005-0.027,0.01-0.054,0.012-0.08
		c0.033-0.368-0.215-0.709-0.585-0.784C242.805,27.675,242.417,27.931,242.337,28.328z"/>
	<path d="M239.999,34.08c-0.219,0.341-0.121,0.795,0.22,1.012c0.34,0.219,0.794,0.121,1.012-0.22
		c0.331-0.515,0.638-1.048,0.914-1.586c0.044-0.086,0.07-0.176,0.078-0.267c0.026-0.289-0.122-0.578-0.397-0.718
		c-0.36-0.185-0.801-0.042-0.986,0.318C240.586,33.113,240.303,33.604,239.999,34.08z"/>
	<path d="M237.045,37.537c-0.303,0.272-0.326,0.733-0.058,1.035c0.271,0.302,0.734,0.327,1.035,0.058
		c0.454-0.406,0.891-0.839,1.301-1.287c0.113-0.123,0.176-0.274,0.19-0.428c0.02-0.221-0.059-0.447-0.235-0.608
		c-0.299-0.273-0.762-0.254-1.036,0.045C237.865,36.765,237.462,37.164,237.045,37.537z"/>
	<path d="M241.485,15.488c-0.011-0.024-0.025-0.048-0.039-0.071c-0.317-0.518-0.664-1.027-1.033-1.513
		c-0.245-0.323-0.705-0.385-1.027-0.141c-0.322,0.244-0.384,0.703-0.141,1.027c0.339,0.447,0.659,0.915,0.95,1.392
		c0.211,0.345,0.662,0.454,1.008,0.243C241.525,16.228,241.642,15.822,241.485,15.488z"/>
	<path d="M236.031,11.577c0.449,0.342,0.883,0.707,1.291,1.085c0.297,0.276,0.76,0.259,1.035-0.038
		c0.21-0.226,0.25-0.548,0.127-0.811c-0.039-0.083-0.094-0.159-0.165-0.225c-0.443-0.411-0.914-0.807-1.401-1.178
		c-0.322-0.246-0.782-0.183-1.026,0.14C235.645,10.871,235.708,11.332,236.031,11.577z"/>
	<path d="M231.665,8.385c-0.149,0.376,0.03,0.802,0.408,0.953c0.52,0.208,1.035,0.445,1.531,0.704
		c0.359,0.187,0.801,0.047,0.989-0.312c0.11-0.211,0.107-0.451,0.013-0.652c-0.066-0.14-0.176-0.26-0.325-0.337
		c-0.539-0.281-1.098-0.538-1.663-0.764C232.243,7.827,231.816,8.009,231.665,8.385z"/>
	<path d="M225.559,42.839c0-0.147-0.043-0.284-0.118-0.399c-0.131-0.201-0.359-0.334-0.616-0.333
		c-0.557,0.001-1.124-0.026-1.685-0.079c-0.403-0.038-0.761,0.258-0.799,0.66c-0.038,0.403,0.257,0.762,0.66,0.799
		c0.609,0.058,1.224,0.087,1.827,0.085C225.233,43.571,225.56,43.242,225.559,42.839z"/>
	<path d="M220.829,42.415c0.055-0.21,0.016-0.422-0.094-0.591c-0.096-0.146-0.243-0.259-0.424-0.307
		c-0.542-0.145-1.083-0.318-1.605-0.514c-0.38-0.143-0.801,0.049-0.945,0.428c-0.142,0.379,0.049,0.801,0.429,0.944
		c0.567,0.212,1.153,0.4,1.741,0.558C220.322,43.038,220.724,42.805,220.829,42.415z"/>
	<path d="M217.472,9.883c0.51-0.242,1.033-0.461,1.556-0.651c0.242-0.087,0.41-0.289,0.465-0.523
		c0.031-0.133,0.024-0.277-0.026-0.415c-0.137-0.38-0.557-0.577-0.938-0.439c-0.567,0.205-1.135,0.443-1.687,0.705
		c-0.366,0.173-0.521,0.612-0.347,0.977C216.669,9.902,217.107,10.057,217.472,9.883z"/>
	<path d="M214.988,11.331c0.153-0.108,0.254-0.264,0.294-0.434c0.046-0.196,0.01-0.409-0.114-0.587
		c-0.232-0.331-0.689-0.412-1.021-0.18c-0.498,0.349-0.984,0.726-1.445,1.119c-0.308,0.264-0.344,0.726-0.081,1.034
		c0.264,0.307,0.726,0.344,1.034,0.08C214.079,12.001,214.528,11.653,214.988,11.331z"/>
	<path d="M207.89,26.845c-0.062-0.561-0.097-1.127-0.104-1.684c-0.003-0.257-0.139-0.483-0.342-0.611
		c-0.116-0.073-0.254-0.114-0.4-0.112c-0.404,0.005-0.728,0.337-0.723,0.742c0.007,0.603,0.046,1.217,0.112,1.825
		c0.044,0.403,0.407,0.692,0.809,0.648C207.643,27.61,207.934,27.247,207.89,26.845z"/>
	<path d="M208.98,31.264c-0.204-0.519-0.385-1.057-0.538-1.597c-0.051-0.18-0.166-0.326-0.314-0.42
		c-0.17-0.107-0.383-0.144-0.592-0.085c-0.388,0.11-0.615,0.516-0.505,0.905c0.166,0.585,0.363,1.168,0.583,1.732
		c0.148,0.378,0.573,0.563,0.95,0.415C208.942,32.066,209.128,31.642,208.98,31.264z"/>
</g>
<path d="M278.615,20.348c0-2.014-1.611-3.652-3.591-3.652s-3.591,1.639-3.591,3.652c0,1.325,0.704,2.476,1.744,3.117
	c-1.01,0.351-1.744,1.314-1.744,2.458v5.134h7.182v-5.134c0-1.144-0.733-2.107-1.744-2.458
	C277.911,22.824,278.615,21.673,278.615,20.348z"/>
<g>
	<path d="M262.822,32.919c0.386-2.191-1.112-4.293-3.34-4.685c-2.227-0.393-4.354,1.07-4.741,3.26
		c-0.386,2.191,1.112,4.294,3.34,4.686S262.436,35.11,262.822,32.919z M256.121,31.737c0.252-1.43,1.651-2.383,3.118-2.125
		c1.468,0.259,2.456,1.633,2.204,3.063c-0.252,1.431-1.651,2.384-3.119,2.126C256.857,34.542,255.868,33.168,256.121,31.737z"/>
	<path d="M266.268,13.377c0.386-2.191-1.112-4.294-3.34-4.686c-2.227-0.393-4.355,1.071-4.741,3.261
		c-0.386,2.191,1.112,4.294,3.34,4.686C263.754,17.032,265.881,15.568,266.268,13.377z M259.566,12.196
		c0.252-1.431,1.651-2.384,3.119-2.126s2.456,1.633,2.204,3.064s-1.651,2.384-3.119,2.126S259.314,13.627,259.566,12.196z"/>
	<path d="M288.466,27.486c-0.386,2.191,1.112,4.294,3.34,4.686c2.227,0.393,4.355-1.071,4.741-3.261
		c0.386-2.191-1.112-4.294-3.34-4.686C290.979,23.831,288.852,25.295,288.466,27.486z M295.167,28.667
		c-0.252,1.431-1.651,2.384-3.119,2.126c-1.468-0.259-2.456-1.633-2.204-3.064c0.252-1.431,1.651-2.384,3.119-2.126
		S295.419,27.236,295.167,28.667z"/>
	<path d="M279.947,43.495c0.386-2.191-1.112-4.294-3.34-4.686c-2.227-0.393-4.354,1.071-4.74,3.262
		c-0.386,2.191,1.111,4.292,3.339,4.685S279.561,45.685,279.947,43.495z M273.246,42.313c0.252-1.431,1.651-2.384,3.118-2.126
		c1.468,0.259,2.456,1.633,2.204,3.064c-0.252,1.43-1.651,2.383-3.118,2.125C273.983,45.117,272.994,43.743,273.246,42.313z"/>
	<path d="M281.208,12.535c2.227,0.393,4.355-1.071,4.741-3.261s-1.112-4.294-3.34-4.686c-2.227-0.393-4.354,1.071-4.74,3.262
		S278.981,12.143,281.208,12.535z M282.366,5.967c1.468,0.259,2.456,1.633,2.204,3.064c-0.252,1.431-1.651,2.384-3.119,2.126
		c-1.467-0.259-2.455-1.633-2.203-3.064S280.9,5.708,282.366,5.967z"/>
	<path d="M290.155,34.048c-0.291,0.477-0.612,0.945-0.95,1.392c-0.243,0.324-0.181,0.782,0.141,1.027
		c0.322,0.244,0.782,0.182,1.027-0.141c0.369-0.486,0.716-0.995,1.033-1.513c0.014-0.023,0.028-0.047,0.039-0.071
		c0.157-0.334,0.04-0.74-0.282-0.936C290.817,33.594,290.366,33.702,290.155,34.048z"/>
	<path d="M285.99,38.652c-0.323,0.245-0.386,0.706-0.14,1.026c0.245,0.322,0.705,0.385,1.026,0.14
		c0.487-0.371,0.958-0.767,1.401-1.178c0.071-0.066,0.126-0.141,0.165-0.225c0.123-0.262,0.083-0.585-0.127-0.811
		c-0.275-0.297-0.738-0.314-1.035-0.038C286.873,37.945,286.439,38.31,285.99,38.652z"/>
	<path d="M282.033,40.891c-0.378,0.152-0.558,0.577-0.408,0.953c0.151,0.376,0.578,0.559,0.953,0.408
		c0.565-0.226,1.124-0.484,1.663-0.764c0.148-0.077,0.259-0.198,0.325-0.337c0.094-0.201,0.097-0.44-0.013-0.652
		c-0.187-0.359-0.63-0.499-0.989-0.312C283.067,40.446,282.552,40.683,282.033,40.891z"/>
	<path d="M293.746,21.69c-0.002-0.026-0.007-0.053-0.012-0.08c-0.121-0.595-0.273-1.192-0.453-1.775
		c-0.119-0.387-0.53-0.603-0.917-0.484c-0.386,0.119-0.601,0.529-0.484,0.917c0.165,0.536,0.306,1.085,0.417,1.633
		c0.08,0.397,0.467,0.653,0.864,0.573C293.531,22.399,293.779,22.058,293.746,21.69z"/>
	<path d="M289.958,16.15c0.305,0.475,0.588,0.966,0.842,1.461c0.185,0.361,0.626,0.503,0.986,0.318
		c0.275-0.141,0.423-0.43,0.397-0.718c-0.008-0.091-0.034-0.181-0.078-0.267c-0.275-0.538-0.583-1.071-0.914-1.586
		c-0.218-0.341-0.672-0.439-1.012-0.22C289.837,15.355,289.739,15.809,289.958,16.15z"/>
	<path d="M286.947,11.657c-0.269,0.302-0.246,0.764,0.058,1.035c0.417,0.373,0.82,0.772,1.198,1.185
		c0.273,0.299,0.737,0.319,1.036,0.045c0.176-0.161,0.255-0.387,0.235-0.608c-0.014-0.154-0.077-0.305-0.19-0.428
		c-0.41-0.448-0.848-0.881-1.301-1.287C287.681,11.33,287.218,11.355,286.947,11.657z"/>
	<path d="M269.426,41.944c0.05-0.138,0.057-0.282,0.026-0.415c-0.054-0.234-0.223-0.436-0.465-0.523
		c-0.523-0.19-1.047-0.409-1.556-0.651c-0.365-0.174-0.803-0.018-0.977,0.347c-0.174,0.365-0.019,0.804,0.347,0.977
		c0.552,0.262,1.12,0.5,1.687,0.705C268.868,42.521,269.289,42.324,269.426,41.944z"/>
	<path d="M265.126,39.928c0.124-0.178,0.16-0.391,0.114-0.587c-0.04-0.17-0.14-0.326-0.294-0.434
		c-0.46-0.322-0.909-0.67-1.332-1.032c-0.308-0.264-0.77-0.228-1.034,0.079c-0.263,0.308-0.228,0.77,0.081,1.034
		c0.461,0.393,0.947,0.77,1.445,1.119C264.437,40.34,264.894,40.259,265.126,39.928z"/>
	<path d="M273.098,8.211c0.562-0.053,1.128-0.08,1.685-0.08c0.257,0.001,0.485-0.132,0.616-0.333
		c0.075-0.115,0.118-0.252,0.118-0.399c0.001-0.404-0.326-0.733-0.732-0.734c-0.603-0.002-1.218,0.028-1.827,0.085
		c-0.403,0.038-0.698,0.397-0.66,0.799C272.337,7.953,272.695,8.249,273.098,8.211z"/>
	<path d="M270.269,8.722c0.181-0.049,0.329-0.161,0.424-0.307c0.11-0.169,0.149-0.381,0.094-0.591
		c-0.105-0.39-0.507-0.623-0.898-0.518c-0.588,0.158-1.173,0.346-1.741,0.558c-0.38,0.143-0.571,0.565-0.429,0.944
		c0.143,0.379,0.565,0.571,0.945,0.429C269.185,9.04,269.726,8.867,270.269,8.722z"/>
	<path d="M258.292,20.872c0.134-0.548,0.295-1.092,0.478-1.618c0.085-0.242,0.035-0.501-0.112-0.691
		c-0.084-0.108-0.199-0.194-0.338-0.242c-0.381-0.134-0.799,0.068-0.933,0.45c-0.199,0.569-0.373,1.159-0.519,1.753
		c-0.097,0.394,0.146,0.79,0.539,0.886C257.799,21.507,258.196,21.265,258.292,20.872z"/>
	<path d="M257.805,25.398c-0.014-0.557,0-1.125,0.041-1.685c0.013-0.187-0.044-0.363-0.151-0.502
		c-0.123-0.159-0.311-0.266-0.527-0.282c-0.403-0.029-0.755,0.274-0.784,0.678c-0.044,0.607-0.058,1.222-0.044,1.827
		c0.01,0.406,0.346,0.725,0.751,0.715C257.496,26.138,257.815,25.803,257.805,25.398z"/>
</g>
<path d="M328.615,20.348c0-2.014-1.611-3.652-3.591-3.652s-3.591,1.639-3.591,3.652c0,1.325,0.704,2.476,1.744,3.117
	c-1.01,0.351-1.744,1.314-1.744,2.458v5.134h7.182v-5.134c0-1.144-0.733-2.107-1.744-2.458
	C327.911,22.824,328.615,21.673,328.615,20.348z"/>
<g>
	<path d="M310.85,28.266c1.112-1.927,0.423-4.414-1.536-5.545s-4.458-0.484-5.57,1.442s-0.423,4.415,1.535,5.546
		S309.737,30.193,310.85,28.266z M304.957,24.864c0.726-1.258,2.366-1.675,3.657-0.93s1.749,2.374,1.023,3.632
		c-0.727,1.258-2.367,1.676-3.658,0.931S304.23,26.123,304.957,24.864z"/>
	<path d="M320.771,11.082c1.112-1.927,0.423-4.415-1.535-5.546s-4.458-0.483-5.57,1.443s-0.423,4.415,1.535,5.546
		S319.659,13.009,320.771,11.082z M314.878,7.68c0.727-1.258,2.367-1.676,3.658-0.931s1.749,2.374,1.023,3.633
		s-2.367,1.676-3.658,0.931S314.152,8.938,314.878,7.68z"/>
	<path d="M336.805,31.931c-1.112,1.927-0.423,4.415,1.535,5.546s4.458,0.483,5.57-1.443c1.112-1.927,0.423-4.415-1.535-5.546
		S337.917,30.005,336.805,31.931z M342.698,35.334c-0.727,1.258-2.367,1.676-3.658,0.931c-1.291-0.745-1.749-2.374-1.023-3.633
		c0.727-1.258,2.367-1.676,3.658-0.931C342.966,32.446,343.425,34.075,342.698,35.334z"/>
	<path d="M323.325,44.061c1.112-1.927,0.423-4.415-1.535-5.546s-4.457-0.483-5.57,1.444s-0.424,4.414,1.535,5.544
		S322.212,45.988,323.325,44.061z M317.433,40.66c0.727-1.258,2.367-1.676,3.657-0.931c1.291,0.745,1.749,2.374,1.023,3.633
		c-0.726,1.258-2.366,1.675-3.657,0.93C317.165,43.547,316.706,41.917,317.433,40.66z"/>
	<path d="M335.099,15.401c1.959,1.131,4.458,0.483,5.57-1.443s0.423-4.415-1.535-5.546c-1.959-1.131-4.457-0.483-5.57,1.444
		S333.14,14.27,335.099,15.401z M338.434,9.624c1.291,0.745,1.749,2.374,1.023,3.633s-2.367,1.676-3.658,0.931
		c-1.29-0.745-1.748-2.374-1.022-3.632S337.144,8.88,338.434,9.624z"/>
	<path d="M336.149,38.676c-0.437,0.349-0.898,0.679-1.369,0.983c-0.339,0.221-0.438,0.673-0.219,1.013
		c0.219,0.34,0.673,0.439,1.013,0.219c0.513-0.331,1.013-0.69,1.488-1.068c0.021-0.017,0.042-0.035,0.061-0.054
		c0.262-0.26,0.291-0.681,0.056-0.976C336.926,38.476,336.465,38.423,336.149,38.676z"/>
	<path d="M330.66,41.578c-0.387,0.12-0.604,0.531-0.482,0.917c0.12,0.386,0.53,0.603,0.917,0.482
		c0.585-0.182,1.163-0.393,1.719-0.628c0.089-0.038,0.167-0.09,0.232-0.155c0.206-0.204,0.278-0.521,0.158-0.805
		c-0.157-0.373-0.587-0.547-0.96-0.39C331.731,41.216,331.199,41.41,330.66,41.578z"/>
	<path d="M326.175,42.328c-0.407,0.013-0.721,0.352-0.71,0.756c0.013,0.405,0.352,0.723,0.756,0.71
		c0.608-0.019,1.222-0.07,1.824-0.149c0.166-0.022,0.311-0.097,0.42-0.206c0.157-0.156,0.242-0.38,0.211-0.617
		c-0.053-0.401-0.421-0.684-0.823-0.631C327.299,42.264,326.734,42.311,326.175,42.328z"/>
	<path d="M343.749,28.292c0.007-0.025,0.012-0.052,0.016-0.08c0.09-0.6,0.151-1.214,0.181-1.823c0.02-0.405-0.292-0.748-0.696-0.768
		c-0.404-0.02-0.746,0.292-0.768,0.696c-0.028,0.56-0.083,1.124-0.167,1.677c-0.06,0.4,0.216,0.773,0.616,0.834
		C343.304,28.884,343.654,28.649,343.749,28.292z"/>
	<path d="M342.085,21.79c0.124,0.551,0.222,1.109,0.291,1.661c0.05,0.402,0.416,0.687,0.818,0.636
		c0.306-0.038,0.544-0.259,0.618-0.539c0.023-0.089,0.03-0.182,0.018-0.278c-0.075-0.6-0.181-1.206-0.316-1.803
		c-0.088-0.395-0.482-0.643-0.876-0.553C342.243,21.001,341.995,21.394,342.085,21.79z"/>
	<path d="M340.792,16.538c-0.356,0.192-0.492,0.634-0.3,0.992c0.264,0.493,0.507,1.006,0.72,1.523
		c0.155,0.374,0.584,0.551,0.958,0.397c0.22-0.091,0.372-0.276,0.429-0.491c0.039-0.149,0.032-0.313-0.032-0.467
		c-0.232-0.561-0.495-1.118-0.783-1.655C341.594,16.482,341.149,16.347,340.792,16.538z"/>
	<path d="M313.969,39.006c0.094-0.113,0.15-0.246,0.166-0.381c0.029-0.238-0.06-0.486-0.258-0.651
		c-0.427-0.357-0.844-0.742-1.24-1.144c-0.284-0.288-0.749-0.292-1.037-0.008c-0.288,0.284-0.293,0.749-0.008,1.037
		c0.429,0.435,0.882,0.853,1.345,1.239C313.247,39.358,313.71,39.316,313.969,39.006z"/>
	<path d="M310.617,35.641c0.177-0.125,0.284-0.313,0.308-0.513c0.021-0.174-0.02-0.355-0.128-0.508
		c-0.322-0.46-0.625-0.94-0.899-1.426c-0.199-0.354-0.646-0.477-0.999-0.279c-0.353,0.199-0.477,0.646-0.278,0.999
		c0.298,0.527,0.626,1.047,0.975,1.546C309.829,35.793,310.286,35.872,310.617,35.641z"/>
	<path d="M328.957,8.563c0.546,0.142,1.088,0.311,1.611,0.502c0.241,0.089,0.5,0.042,0.693-0.102
		c0.109-0.082,0.197-0.197,0.247-0.334c0.139-0.379-0.056-0.8-0.437-0.94c-0.566-0.208-1.154-0.391-1.746-0.545
		c-0.392-0.103-0.792,0.134-0.894,0.525C328.329,8.061,328.565,8.461,328.957,8.563z"/>
	<path d="M326.123,8.075c0.187,0.016,0.364-0.039,0.504-0.144c0.161-0.121,0.27-0.307,0.29-0.523
		c0.035-0.402-0.263-0.759-0.667-0.794c-0.606-0.053-1.221-0.076-1.826-0.071c-0.406,0.004-0.73,0.335-0.726,0.74
		c0.005,0.405,0.335,0.73,0.741,0.726C324.996,8.004,325.564,8.026,326.123,8.075z"/>
	<path d="M310.713,15.397c0.313-0.469,0.65-0.926,1.003-1.357c0.163-0.199,0.204-0.459,0.131-0.688
		c-0.042-0.13-0.121-0.25-0.235-0.343c-0.312-0.256-0.774-0.21-1.031,0.104c-0.382,0.467-0.747,0.962-1.087,1.47
		c-0.226,0.337-0.133,0.792,0.203,1.017C310.033,15.825,310.489,15.733,310.713,15.397z"/>
	<path d="M308.708,19.483c0.178-0.528,0.385-1.057,0.615-1.569c0.077-0.171,0.083-0.357,0.03-0.523
		c-0.061-0.192-0.201-0.356-0.399-0.446c-0.369-0.165-0.803-0.001-0.969,0.369c-0.249,0.555-0.473,1.128-0.667,1.702
		c-0.129,0.385,0.077,0.8,0.461,0.929C308.164,20.073,308.579,19.868,308.708,19.483z"/>
</g>
<path d="M378.615,20.348c0-2.014-1.611-3.652-3.591-3.652s-3.591,1.639-3.591,3.652c0,1.325,0.704,2.476,1.744,3.117
	c-1.01,0.351-1.744,1.314-1.744,2.458v5.134h7.182v-5.134c0-1.144-0.733-2.107-1.744-2.458
	C377.911,22.824,378.615,21.673,378.615,20.348z"/>
<g>
	<path d="M360.588,23.22c1.704-1.43,1.907-4.003,0.453-5.736c-1.454-1.733-4.023-1.98-5.727-0.55
		c-1.704,1.43-1.908,4.004-0.454,5.736C356.313,24.404,358.883,24.65,360.588,23.22z M356.214,18.007
		c1.112-0.933,2.797-0.765,3.755,0.377c0.958,1.142,0.832,2.83-0.281,3.763c-1.113,0.934-2.797,0.765-3.755-0.376
		C354.974,20.629,355.1,18.941,356.214,18.007z"/>
	<path d="M375.788,10.465c1.704-1.43,1.908-4.004,0.454-5.736c-1.454-1.733-4.024-1.979-5.728-0.549s-1.908,4.004-0.454,5.736
		C371.514,11.649,374.084,11.895,375.788,10.465z M371.414,5.253c1.113-0.934,2.797-0.765,3.755,0.376
		c0.958,1.142,0.832,2.83-0.281,3.764c-1.113,0.934-2.797,0.765-3.755-0.376S370.301,6.187,371.414,5.253z"/>
	<path d="M383.724,35.541c-1.704,1.43-1.908,4.004-0.454,5.736c1.454,1.733,4.024,1.979,5.728,0.549
		c1.704-1.43,1.908-4.004,0.454-5.736C387.999,34.358,385.428,34.111,383.724,35.541z M388.098,40.754
		c-1.113,0.934-2.797,0.765-3.755-0.376c-0.958-1.142-0.832-2.83,0.281-3.764s2.797-0.765,3.755,0.376
		C389.337,38.132,389.211,39.82,388.098,40.754z"/>
	<path d="M366.908,42.329c1.704-1.43,1.908-4.004,0.454-5.736c-1.454-1.733-4.023-1.978-5.728-0.548
		c-1.704,1.43-1.908,4.003-0.454,5.735C362.634,43.512,365.204,43.759,366.908,42.329z M362.535,37.117
		c1.113-0.934,2.797-0.765,3.755,0.376c0.958,1.142,0.832,2.83-0.281,3.764c-1.112,0.933-2.797,0.765-3.755-0.377
		C361.296,39.739,361.422,38.051,362.535,37.117z"/>
	<path d="M387.775,19.424c1.454,1.733,4.024,1.979,5.728,0.549c1.704-1.43,1.908-4.004,0.454-5.736s-4.023-1.978-5.728-0.548
		S386.321,17.691,387.775,19.424z M392.884,15.137c0.958,1.142,0.832,2.83-0.281,3.764c-1.113,0.934-2.797,0.765-3.755-0.376
		c-0.957-1.141-0.831-2.829,0.282-3.763S391.927,13.996,392.884,15.137z"/>
	<path d="M380.801,41.654c-0.53,0.178-1.076,0.331-1.623,0.456c-0.394,0.092-0.642,0.483-0.552,0.877
		c0.09,0.394,0.482,0.642,0.877,0.552c0.595-0.135,1.188-0.302,1.764-0.495c0.026-0.009,0.052-0.018,0.076-0.03
		c0.335-0.155,0.506-0.541,0.386-0.898C381.599,41.732,381.184,41.525,380.801,41.654z"/>
	<path d="M374.65,42.505c-0.405-0.019-0.749,0.293-0.767,0.697c-0.02,0.404,0.292,0.748,0.697,0.767
		c0.612,0.029,1.227,0.029,1.83-0.002c0.097-0.005,0.187-0.027,0.271-0.066c0.263-0.122,0.439-0.395,0.424-0.703
		c-0.02-0.404-0.364-0.715-0.769-0.695C375.781,42.53,375.214,42.531,374.65,42.505z"/>
	<path d="M370.179,41.676c-0.387-0.127-0.798,0.084-0.925,0.468c-0.126,0.385,0.083,0.8,0.468,0.925
		c0.578,0.19,1.172,0.352,1.765,0.483c0.163,0.036,0.326,0.015,0.466-0.05c0.201-0.093,0.357-0.275,0.409-0.507
		c0.087-0.395-0.162-0.787-0.557-0.874C371.258,42,370.711,41.85,370.179,41.676z"/>
	<path d="M391.494,34.496c0.015-0.022,0.029-0.045,0.042-0.069c0.29-0.533,0.557-1.089,0.794-1.651
		c0.157-0.373-0.019-0.803-0.391-0.96c-0.373-0.157-0.801,0.019-0.96,0.391c-0.218,0.517-0.463,1.028-0.73,1.519
		c-0.194,0.355-0.062,0.8,0.294,0.994C390.874,34.901,391.283,34.799,391.494,34.496z"/>
	<path d="M392.154,27.817c-0.072,0.56-0.171,1.118-0.295,1.66c-0.09,0.395,0.156,0.788,0.551,0.878
		c0.301,0.069,0.6-0.057,0.766-0.295c0.052-0.075,0.09-0.161,0.112-0.255c0.135-0.589,0.242-1.195,0.32-1.802
		c0.052-0.402-0.233-0.769-0.634-0.819C392.572,27.13,392.205,27.415,392.154,27.817z"/>
	<path d="M392.735,22.44c-0.4,0.059-0.679,0.427-0.621,0.83c0.08,0.554,0.132,1.118,0.156,1.677c0.017,0.405,0.36,0.718,0.764,0.7
		c0.238-0.011,0.444-0.132,0.571-0.314c0.088-0.127,0.137-0.283,0.13-0.45c-0.026-0.607-0.083-1.22-0.17-1.822
		C393.508,22.661,393.137,22.383,392.735,22.44z"/>
	<path d="M359.845,34.379c0.127-0.074,0.225-0.18,0.286-0.302c0.109-0.214,0.11-0.478-0.02-0.7
		c-0.279-0.482-0.539-0.986-0.774-1.499c-0.168-0.368-0.604-0.531-0.971-0.362c-0.368,0.168-0.531,0.603-0.362,0.971
		c0.255,0.556,0.537,1.103,0.84,1.625C359.047,34.463,359.496,34.582,359.845,34.379z"/>
	<path d="M357.847,30.07c0.21-0.057,0.374-0.197,0.465-0.376c0.079-0.156,0.102-0.34,0.054-0.521
		c-0.145-0.542-0.266-1.097-0.357-1.647c-0.066-0.4-0.443-0.669-0.843-0.604c-0.4,0.067-0.669,0.444-0.603,0.844
		c0.1,0.597,0.23,1.198,0.387,1.786C357.054,29.943,357.457,30.175,357.847,30.07z"/>
	<path d="M384.342,10.898c0.465,0.32,0.916,0.664,1.342,1.022c0.196,0.166,0.456,0.211,0.686,0.141
		c0.131-0.04,0.252-0.117,0.347-0.23c0.26-0.309,0.221-0.771-0.089-1.032c-0.461-0.389-0.951-0.762-1.454-1.109
		c-0.333-0.231-0.79-0.145-1.02,0.188C383.924,10.211,384.009,10.668,384.342,10.898z"/>
	<path d="M381.846,9.471c0.17,0.079,0.355,0.088,0.523,0.037c0.193-0.058,0.359-0.196,0.451-0.392
		c0.171-0.366,0.012-0.803-0.355-0.974c-0.552-0.257-1.121-0.489-1.692-0.692c-0.383-0.135-0.801,0.065-0.936,0.447
		c-0.134,0.383,0.065,0.801,0.448,0.936C380.811,9.018,381.337,9.233,381.846,9.471z"/>
	<path d="M364.861,11.08c0.455-0.334,0.928-0.647,1.406-0.932c0.221-0.131,0.349-0.361,0.358-0.602
		c0.005-0.137-0.028-0.277-0.103-0.403c-0.206-0.347-0.656-0.462-1.004-0.255c-0.518,0.308-1.031,0.648-1.525,1.01
		c-0.327,0.239-0.396,0.699-0.157,1.025C364.075,11.249,364.535,11.319,364.861,11.08z"/>
	<path d="M361.579,14.234c0.348-0.436,0.723-0.862,1.114-1.264c0.13-0.135,0.2-0.307,0.207-0.481
		c0.008-0.201-0.067-0.403-0.222-0.555c-0.29-0.281-0.754-0.275-1.037,0.016c-0.424,0.437-0.83,0.899-1.209,1.371
		c-0.253,0.317-0.201,0.778,0.116,1.031C360.866,14.602,361.326,14.551,361.579,14.234z"/>
</g>
<path d="M428.615,20.348c0-2.014-1.611-3.652-3.591-3.652s-3.591,1.639-3.591,3.652c0,1.325,0.704,2.476,1.744,3.117
	c-1.01,0.351-1.744,1.314-1.744,2.458v5.134h7.182v-5.134c0-1.144-0.733-2.107-1.744-2.458
	C427.911,22.824,428.615,21.673,428.615,20.348z"/>
<g>
	<path d="M439.207,21.734c-1.112,1.927-0.423,4.414,1.536,5.545s4.458,0.484,5.57-1.442s0.423-4.415-1.535-5.546
		S440.319,19.807,439.207,21.734z M445.1,25.136c-0.726,1.258-2.366,1.675-3.657,0.93s-1.749-2.374-1.023-3.632
		c0.727-1.258,2.367-1.676,3.658-0.931S445.826,23.877,445.1,25.136z"/>
	<path d="M429.285,38.918c-1.112,1.927-0.423,4.415,1.535,5.546s4.458,0.483,5.57-1.443s0.423-4.415-1.535-5.546
		S430.398,36.991,429.285,38.918z M435.178,42.32c-0.727,1.258-2.367,1.676-3.658,0.931s-1.749-2.374-1.023-3.633
		s2.367-1.676,3.658-0.931S435.905,41.062,435.178,42.32z"/>
	<path d="M413.251,18.069c1.112-1.927,0.423-4.415-1.535-5.546s-4.458-0.483-5.57,1.443s-0.423,4.415,1.535,5.546
		S412.139,19.995,413.251,18.069z M407.358,14.666c0.727-1.258,2.367-1.676,3.658-0.931s1.749,2.374,1.023,3.633
		c-0.727,1.258-2.367,1.676-3.658,0.931S406.632,15.925,407.358,14.666z"/>
	<path d="M426.732,5.939c-1.112,1.927-0.423,4.415,1.535,5.546s4.457,0.483,5.57-1.444s0.424-4.414-1.535-5.544
		S427.844,4.012,426.732,5.939z M432.624,9.34c-0.727,1.258-2.367,1.676-3.657,0.931c-1.291-0.745-1.749-2.374-1.023-3.633
		c0.726-1.258,2.366-1.675,3.657-0.93C432.891,6.453,433.35,8.083,432.624,9.34z"/>
	<path d="M414.958,34.599c-1.959-1.131-4.458-0.483-5.57,1.443c-1.112,1.927-0.423,4.415,1.535,5.546
		c1.959,1.131,4.457,0.483,5.57-1.444C417.604,38.218,416.916,35.73,414.958,34.599z M411.623,40.376
		c-1.291-0.745-1.749-2.374-1.023-3.633c0.727-1.258,2.367-1.676,3.658-0.931c1.29,0.745,1.748,2.374,1.022,3.632
		C414.553,40.703,412.912,41.12,411.623,40.376z"/>
	<path d="M413.908,11.324c0.437-0.349,0.898-0.679,1.369-0.983c0.339-0.221,0.438-0.673,0.219-1.013
		c-0.219-0.34-0.673-0.439-1.013-0.219c-0.513,0.331-1.013,0.69-1.488,1.068c-0.021,0.017-0.042,0.035-0.061,0.054
		c-0.262,0.26-0.291,0.681-0.056,0.976C413.13,11.524,413.592,11.577,413.908,11.324z"/>
	<path d="M419.397,8.422c0.387-0.12,0.604-0.531,0.482-0.917c-0.12-0.386-0.53-0.603-0.917-0.482
		c-0.585,0.182-1.163,0.393-1.719,0.628c-0.089,0.038-0.167,0.09-0.232,0.155c-0.206,0.204-0.278,0.521-0.158,0.805
		c0.157,0.373,0.587,0.547,0.96,0.39C418.325,8.784,418.858,8.59,419.397,8.422z"/>
	<path d="M423.881,7.672c0.407-0.013,0.721-0.352,0.71-0.756c-0.013-0.405-0.352-0.723-0.756-0.71
		c-0.608,0.019-1.222,0.07-1.824,0.149c-0.166,0.022-0.311,0.097-0.42,0.206c-0.157,0.156-0.242,0.38-0.211,0.617
		c0.053,0.401,0.421,0.684,0.823,0.631C422.757,7.736,423.322,7.689,423.881,7.672z"/>
	<path d="M406.308,21.708c-0.007,0.025-0.012,0.052-0.016,0.08c-0.09,0.6-0.151,1.214-0.181,1.823
		c-0.02,0.405,0.292,0.748,0.696,0.768c0.404,0.02,0.746-0.292,0.768-0.696c0.028-0.56,0.083-1.124,0.167-1.677
		c0.06-0.4-0.216-0.773-0.616-0.834C406.752,21.116,406.402,21.351,406.308,21.708z"/>
	<path d="M407.972,28.21c-0.124-0.551-0.222-1.109-0.291-1.661c-0.05-0.402-0.416-0.687-0.818-0.636
		c-0.306,0.038-0.544,0.259-0.618,0.539c-0.023,0.089-0.03,0.182-0.018,0.278c0.075,0.6,0.181,1.206,0.316,1.803
		c0.088,0.395,0.482,0.643,0.876,0.553C407.814,28.999,408.061,28.606,407.972,28.21z"/>
	<path d="M409.265,33.462c0.356-0.192,0.492-0.634,0.3-0.992c-0.264-0.493-0.507-1.006-0.72-1.523
		c-0.155-0.374-0.584-0.551-0.958-0.397c-0.22,0.091-0.372,0.276-0.429,0.491c-0.039,0.149-0.032,0.313,0.032,0.467
		c0.232,0.561,0.495,1.118,0.783,1.655C408.463,33.518,408.907,33.653,409.265,33.462z"/>
	<path d="M436.088,10.994c-0.094,0.113-0.15,0.246-0.166,0.381c-0.029,0.238,0.06,0.486,0.258,0.651
		c0.427,0.357,0.844,0.742,1.24,1.144c0.284,0.288,0.749,0.292,1.037,0.008c0.288-0.284,0.293-0.749,0.008-1.037
		c-0.429-0.435-0.882-0.853-1.345-1.239C436.809,10.642,436.347,10.684,436.088,10.994z"/>
	<path d="M439.439,14.359c-0.177,0.125-0.284,0.313-0.308,0.513c-0.021,0.174,0.02,0.355,0.128,0.508
		c0.322,0.46,0.625,0.94,0.899,1.426c0.199,0.354,0.646,0.477,0.999,0.279c0.353-0.199,0.477-0.646,0.278-0.999
		c-0.298-0.527-0.626-1.047-0.975-1.546C440.228,14.207,439.77,14.128,439.439,14.359z"/>
	<path d="M421.1,41.437c-0.546-0.142-1.088-0.311-1.611-0.502c-0.241-0.089-0.5-0.042-0.693,0.102
		c-0.109,0.082-0.197,0.197-0.247,0.334c-0.139,0.379,0.056,0.8,0.437,0.94c0.566,0.208,1.154,0.391,1.746,0.545
		c0.392,0.103,0.792-0.134,0.894-0.525C421.727,41.939,421.491,41.539,421.1,41.437z"/>
	<path d="M423.933,41.925c-0.187-0.016-0.364,0.039-0.504,0.144c-0.161,0.121-0.27,0.307-0.29,0.523
		c-0.035,0.402,0.263,0.759,0.667,0.794c0.606,0.053,1.221,0.076,1.826,0.071c0.406-0.004,0.73-0.335,0.726-0.74
		c-0.005-0.405-0.335-0.73-0.741-0.726C425.06,41.996,424.493,41.974,423.933,41.925z"/>
	<path d="M439.343,34.603c-0.313,0.469-0.65,0.926-1.003,1.357c-0.163,0.199-0.204,0.459-0.131,0.688
		c0.042,0.13,0.121,0.25,0.235,0.343c0.312,0.256,0.774,0.21,1.031-0.104c0.382-0.467,0.747-0.962,1.087-1.47
		c0.226-0.337,0.133-0.792-0.203-1.017C440.024,34.175,439.568,34.267,439.343,34.603z"/>
	<path d="M441.348,30.517c-0.178,0.528-0.385,1.057-0.615,1.569c-0.077,0.171-0.083,0.357-0.03,0.523
		c0.061,0.192,0.201,0.356,0.399,0.446c0.369,0.165,0.803,0.001,0.969-0.369c0.249-0.555,0.473-1.128,0.667-1.702
		c0.129-0.385-0.077-0.8-0.461-0.929C441.893,29.927,441.478,30.132,441.348,30.517z"/>
</g>
<path d="M223.868,73.718v10.851h2.486v-1.968h2.035v-2.486h-2.035v-1.656h2.035v-2.486h-2.035v-2.302
	c1.337-0.528,2.289-1.826,2.289-3.349c0-1.989-1.618-3.607-3.607-3.607c-1.989,0-3.607,1.618-3.607,3.607
	C221.43,71.9,222.455,73.23,223.868,73.718z M225.037,68.519c0.995,0,1.803,0.809,1.803,1.803s-0.809,1.803-1.803,1.803
	c-0.995,0-1.803-0.809-1.803-1.803S224.042,68.519,225.037,68.519z"/>
<g>
	<path d="M284.918,85.646c-2.225,0-4.034,1.841-4.034,4.103s1.81,4.103,4.034,4.103s4.035-1.841,4.035-4.103
		S287.143,85.646,284.918,85.646z"/>
	<path d="M265.075,85.646c-2.225,0-4.035,1.841-4.035,4.103s1.811,4.103,4.035,4.103s4.035-1.841,4.035-4.103
		S267.3,85.646,265.075,85.646z"/>
	<path d="M275.114,61.335c2.225,0,4.035-1.841,4.035-4.103s-1.811-4.103-4.035-4.103s-4.035,1.841-4.035,4.103
		S272.89,61.335,275.114,61.335z"/>
	<path d="M292.359,66.945c-2.225,0-4.035,1.841-4.035,4.103s1.811,4.102,4.035,4.102s4.034-1.84,4.034-4.102
		S294.584,66.945,292.359,66.945z"/>
	<path d="M261.651,71.078c0-2.262-1.811-4.103-4.035-4.103c-2.225,0-4.035,1.841-4.035,4.103s1.811,4.102,4.035,4.102
		C259.841,75.18,261.651,73.34,261.651,71.078z"/>
	<path d="M281.283,58.532c0.52,0.204,1.037,0.438,1.536,0.694c0.361,0.183,0.802,0.043,0.987-0.317
		c0.185-0.36,0.044-0.802-0.317-0.987c-0.543-0.279-1.104-0.532-1.669-0.755c-0.026-0.01-0.051-0.019-0.077-0.026
		c-0.356-0.097-0.735,0.089-0.873,0.44C280.722,57.958,280.907,58.384,281.283,58.532z"/>
	<path d="M286.542,61.834c0.298,0.275,0.762,0.257,1.035-0.041c0.275-0.297,0.257-0.761-0.041-1.035
		c-0.45-0.416-0.921-0.811-1.403-1.175c-0.077-0.058-0.161-0.099-0.25-0.123c-0.28-0.076-0.59,0.02-0.776,0.266
		c-0.244,0.322-0.181,0.782,0.142,1.026C285.692,61.087,286.126,61.451,286.542,61.834z"/>
	<path d="M289.433,65.343c0.215,0.346,0.665,0.449,1.009,0.237c0.344-0.214,0.45-0.666,0.237-1.009
		c-0.321-0.517-0.672-1.023-1.042-1.505c-0.102-0.133-0.24-0.221-0.388-0.261c-0.214-0.058-0.45-0.019-0.639,0.126
		c-0.321,0.247-0.382,0.707-0.135,1.028C288.816,64.401,289.138,64.867,289.433,65.343z"/>
	<path d="M268.49,57.142c-0.025,0.007-0.051,0.016-0.077,0.026c-0.565,0.222-1.127,0.476-1.669,0.755
		c-0.361,0.185-0.502,0.627-0.317,0.987c0.185,0.36,0.625,0.5,0.987,0.317c0.499-0.256,1.015-0.49,1.536-0.694
		c0.377-0.148,0.562-0.573,0.414-0.95C269.226,57.23,268.847,57.045,268.49,57.142z"/>
	<path d="M263.692,61.834c0.415-0.383,0.85-0.747,1.293-1.082c0.323-0.245,0.387-0.704,0.142-1.026
		c-0.186-0.246-0.497-0.342-0.776-0.266c-0.089,0.024-0.173,0.065-0.25,0.123c-0.482,0.365-0.953,0.76-1.403,1.175
		c-0.298,0.274-0.316,0.738-0.041,1.035C262.93,62.091,263.394,62.109,263.692,61.834z"/>
	<path d="M259.79,65.579c0.344,0.212,0.795,0.109,1.009-0.237c0.295-0.476,0.618-0.942,0.959-1.385
		c0.247-0.321,0.186-0.781-0.135-1.028c-0.189-0.145-0.425-0.184-0.639-0.126c-0.149,0.04-0.287,0.128-0.388,0.261
		c-0.37,0.482-0.721,0.988-1.042,1.505C259.34,64.913,259.446,65.365,259.79,65.579z"/>
	<path d="M292.66,77.575c-0.145-0.025-0.287-0.007-0.413,0.047c-0.221,0.094-0.391,0.295-0.435,0.549
		c-0.096,0.549-0.221,1.102-0.371,1.646c-0.108,0.39,0.121,0.794,0.511,0.902c0.39,0.107,0.795-0.121,0.902-0.511
		c0.162-0.59,0.298-1.19,0.401-1.784C293.325,78.024,293.058,77.644,292.66,77.575z"/>
	<path d="M291.421,82.16c-0.197-0.091-0.413-0.089-0.598-0.01c-0.161,0.069-0.297,0.195-0.376,0.365
		c-0.237,0.509-0.502,1.011-0.785,1.491c-0.207,0.349-0.091,0.798,0.258,1.005c0.349,0.206,0.798,0.091,1.004-0.259
		c0.307-0.522,0.594-1.066,0.851-1.617C291.946,82.767,291.787,82.331,291.421,82.16z"/>
	<path d="M258.801,79.816c-0.15-0.544-0.275-1.097-0.371-1.646c-0.044-0.253-0.214-0.454-0.435-0.549
		c-0.126-0.054-0.269-0.072-0.413-0.047c-0.398,0.069-0.665,0.449-0.596,0.848c0.103,0.594,0.239,1.195,0.401,1.784
		c0.107,0.391,0.512,0.619,0.902,0.511C258.68,80.611,258.909,80.206,258.801,79.816z"/>
	<path d="M259.795,82.514c-0.079-0.17-0.216-0.296-0.376-0.365c-0.185-0.079-0.401-0.081-0.598,0.01
		c-0.366,0.171-0.526,0.607-0.354,0.974c0.257,0.552,0.544,1.096,0.851,1.617c0.207,0.349,0.655,0.465,1.004,0.259
		c0.349-0.207,0.465-0.655,0.258-1.005C260.297,83.526,260.033,83.023,259.795,82.514z"/>
	<path d="M273.841,92.199c-0.563-0.037-1.127-0.1-1.677-0.19c-0.254-0.042-0.499,0.053-0.661,0.231
		c-0.092,0.101-0.156,0.23-0.18,0.375c-0.065,0.399,0.206,0.776,0.606,0.841c0.595,0.097,1.207,0.166,1.817,0.206
		c0.404,0.027,0.753-0.281,0.779-0.684C274.552,92.574,274.245,92.225,273.841,92.199z"/>
	<path d="M278.382,91.892c-0.546,0.11-1.108,0.195-1.667,0.252c-0.186,0.019-0.35,0.107-0.468,0.236
		c-0.135,0.149-0.208,0.352-0.187,0.568c0.041,0.402,0.401,0.696,0.804,0.654c0.605-0.062,1.214-0.155,1.807-0.273
		c0.398-0.081,0.654-0.467,0.574-0.864C279.166,92.069,278.78,91.812,278.382,91.892z"/>
</g>
<path d="M273.868,73.718v10.851h2.486v-1.968h2.035v-2.486h-2.035v-1.656h2.035v-2.486h-2.035v-2.302
	c1.337-0.528,2.289-1.826,2.289-3.349c0-1.989-1.618-3.607-3.607-3.607s-3.607,1.618-3.607,3.607
	C271.43,71.9,272.455,73.23,273.868,73.718z M275.037,68.519c0.995,0,1.803,0.809,1.803,1.803s-0.809,1.803-1.803,1.803
	s-1.803-0.809-1.803-1.803S274.042,68.519,275.037,68.519z"/>
<g>
	<path d="M334.918,85.646c-2.225,0-4.034,1.841-4.034,4.103s1.81,4.103,4.034,4.103s4.035-1.841,4.035-4.103
		S337.143,85.646,334.918,85.646z"/>
	<path d="M315.075,85.646c-2.225,0-4.035,1.841-4.035,4.103s1.811,4.103,4.035,4.103s4.035-1.841,4.035-4.103
		S317.3,85.646,315.075,85.646z"/>
	<path d="M325.114,61.335c2.225,0,4.035-1.841,4.035-4.103s-1.811-4.103-4.035-4.103s-4.035,1.841-4.035,4.103
		S322.89,61.335,325.114,61.335z"/>
	<path d="M342.359,66.945c-2.225,0-4.035,1.841-4.035,4.103s1.811,4.102,4.035,4.102s4.034-1.84,4.034-4.102
		S344.584,66.945,342.359,66.945z"/>
	<path d="M311.651,71.078c0-2.262-1.811-4.103-4.035-4.103s-4.035,1.841-4.035,4.103s1.811,4.102,4.035,4.102
		S311.651,73.34,311.651,71.078z"/>
	<path d="M331.283,58.532c0.52,0.204,1.037,0.438,1.536,0.694c0.361,0.183,0.802,0.043,0.987-0.317
		c0.185-0.36,0.044-0.802-0.317-0.987c-0.543-0.279-1.104-0.532-1.669-0.755c-0.026-0.01-0.051-0.019-0.077-0.026
		c-0.356-0.097-0.735,0.089-0.873,0.44C330.722,57.958,330.907,58.384,331.283,58.532z"/>
	<path d="M336.542,61.834c0.298,0.275,0.762,0.257,1.035-0.041c0.275-0.297,0.257-0.761-0.041-1.035
		c-0.45-0.416-0.921-0.811-1.403-1.175c-0.077-0.058-0.161-0.099-0.25-0.123c-0.28-0.076-0.59,0.02-0.776,0.266
		c-0.244,0.322-0.181,0.782,0.142,1.026C335.692,61.087,336.126,61.451,336.542,61.834z"/>
	<path d="M339.433,65.343c0.215,0.346,0.665,0.449,1.009,0.237c0.344-0.214,0.45-0.666,0.237-1.009
		c-0.321-0.517-0.672-1.023-1.042-1.505c-0.102-0.133-0.24-0.221-0.388-0.261c-0.214-0.058-0.45-0.019-0.639,0.126
		c-0.321,0.247-0.382,0.707-0.135,1.028C338.816,64.401,339.138,64.867,339.433,65.343z"/>
	<path d="M318.49,57.142c-0.025,0.007-0.051,0.016-0.077,0.026c-0.565,0.222-1.127,0.476-1.669,0.755
		c-0.361,0.185-0.502,0.627-0.317,0.987c0.185,0.36,0.625,0.5,0.987,0.317c0.499-0.256,1.015-0.49,1.536-0.694
		c0.377-0.148,0.562-0.573,0.414-0.95C319.226,57.23,318.847,57.045,318.49,57.142z"/>
	<path d="M313.692,61.834c0.415-0.383,0.85-0.747,1.293-1.082c0.323-0.245,0.387-0.704,0.142-1.026
		c-0.186-0.246-0.497-0.342-0.776-0.266c-0.089,0.024-0.173,0.065-0.25,0.123c-0.482,0.365-0.953,0.76-1.403,1.175
		c-0.298,0.274-0.316,0.738-0.041,1.035C312.93,62.091,313.394,62.109,313.692,61.834z"/>
	<path d="M309.79,65.579c0.344,0.212,0.795,0.109,1.009-0.237c0.295-0.476,0.618-0.942,0.959-1.385
		c0.247-0.321,0.186-0.781-0.135-1.028c-0.189-0.145-0.425-0.184-0.639-0.126c-0.149,0.04-0.287,0.128-0.388,0.261
		c-0.37,0.482-0.721,0.988-1.042,1.505C309.34,64.913,309.446,65.365,309.79,65.579z"/>
	<path d="M342.66,77.575c-0.145-0.025-0.287-0.007-0.413,0.047c-0.221,0.094-0.391,0.295-0.435,0.549
		c-0.096,0.549-0.221,1.102-0.371,1.646c-0.108,0.39,0.121,0.794,0.511,0.902c0.39,0.107,0.795-0.121,0.902-0.511
		c0.162-0.59,0.298-1.19,0.401-1.784C343.325,78.024,343.058,77.644,342.66,77.575z"/>
	<path d="M341.421,82.16c-0.197-0.091-0.413-0.089-0.598-0.01c-0.161,0.069-0.297,0.195-0.376,0.365
		c-0.237,0.509-0.502,1.011-0.785,1.491c-0.207,0.349-0.091,0.798,0.258,1.005c0.349,0.206,0.798,0.091,1.004-0.259
		c0.307-0.522,0.594-1.066,0.851-1.617C341.946,82.767,341.787,82.331,341.421,82.16z"/>
	<path d="M308.801,79.816c-0.15-0.544-0.275-1.097-0.371-1.646c-0.044-0.253-0.214-0.454-0.435-0.549
		c-0.126-0.054-0.269-0.072-0.413-0.047c-0.398,0.069-0.665,0.449-0.596,0.848c0.103,0.594,0.239,1.195,0.401,1.784
		c0.107,0.391,0.512,0.619,0.902,0.511C308.68,80.611,308.909,80.206,308.801,79.816z"/>
	<path d="M309.795,82.514c-0.079-0.17-0.216-0.296-0.376-0.365c-0.185-0.079-0.401-0.081-0.598,0.01
		c-0.366,0.171-0.526,0.607-0.354,0.974c0.257,0.552,0.544,1.096,0.851,1.617c0.207,0.349,0.655,0.465,1.004,0.259
		c0.349-0.207,0.465-0.655,0.258-1.005C310.297,83.526,310.033,83.023,309.795,82.514z"/>
	<path d="M323.841,92.199c-0.563-0.037-1.127-0.1-1.677-0.19c-0.254-0.042-0.499,0.053-0.661,0.231
		c-0.092,0.101-0.156,0.23-0.18,0.375c-0.065,0.399,0.206,0.776,0.606,0.841c0.595,0.097,1.207,0.166,1.817,0.206
		c0.404,0.027,0.753-0.281,0.779-0.684C324.552,92.574,324.245,92.225,323.841,92.199z"/>
	<path d="M328.382,91.892c-0.546,0.11-1.108,0.195-1.667,0.252c-0.186,0.019-0.35,0.107-0.468,0.236
		c-0.135,0.149-0.208,0.352-0.187,0.568c0.041,0.402,0.401,0.696,0.804,0.654c0.605-0.062,1.214-0.155,1.807-0.273
		c0.398-0.081,0.654-0.467,0.574-0.864C329.166,92.069,328.78,91.812,328.382,91.892z"/>
</g>
<path d="M323.868,73.718v10.851h2.486v-1.968h2.035v-2.486h-2.035v-1.656h2.035v-2.486h-2.035v-2.302
	c1.337-0.528,2.289-1.826,2.289-3.349c0-1.989-1.618-3.607-3.607-3.607s-3.607,1.618-3.607,3.607
	C321.43,71.9,322.455,73.23,323.868,73.718z M325.037,68.519c0.995,0,1.803,0.809,1.803,1.803s-0.809,1.803-1.803,1.803
	s-1.803-0.809-1.803-1.803S324.042,68.519,325.037,68.519z"/>
<g>
	<path d="M384.918,85.646c-2.225,0-4.034,1.841-4.034,4.103s1.81,4.103,4.034,4.103s4.035-1.841,4.035-4.103
		S387.143,85.646,384.918,85.646z"/>
	<path d="M365.075,85.646c-2.225,0-4.035,1.841-4.035,4.103s1.811,4.103,4.035,4.103s4.035-1.841,4.035-4.103
		S367.3,85.646,365.075,85.646z"/>
	<path d="M375.114,61.335c2.225,0,4.035-1.841,4.035-4.103s-1.811-4.103-4.035-4.103s-4.035,1.841-4.035,4.103
		S372.89,61.335,375.114,61.335z"/>
	<path d="M392.359,66.945c-2.225,0-4.035,1.841-4.035,4.103s1.811,4.102,4.035,4.102s4.034-1.84,4.034-4.102
		S394.584,66.945,392.359,66.945z"/>
	<path d="M361.651,71.078c0-2.262-1.811-4.103-4.035-4.103s-4.035,1.841-4.035,4.103s1.811,4.102,4.035,4.102
		S361.651,73.34,361.651,71.078z"/>
	<path d="M381.283,58.532c0.52,0.204,1.037,0.438,1.536,0.694c0.361,0.183,0.802,0.043,0.987-0.317
		c0.185-0.36,0.044-0.802-0.317-0.987c-0.543-0.279-1.104-0.532-1.669-0.755c-0.026-0.01-0.051-0.019-0.077-0.026
		c-0.356-0.097-0.735,0.089-0.873,0.44C380.722,57.958,380.907,58.384,381.283,58.532z"/>
	<path d="M386.542,61.834c0.298,0.275,0.762,0.257,1.035-0.041c0.275-0.297,0.257-0.761-0.041-1.035
		c-0.45-0.416-0.921-0.811-1.403-1.175c-0.077-0.058-0.161-0.099-0.25-0.123c-0.28-0.076-0.59,0.02-0.776,0.266
		c-0.244,0.322-0.181,0.782,0.142,1.026C385.692,61.087,386.126,61.451,386.542,61.834z"/>
	<path d="M389.433,65.343c0.215,0.346,0.665,0.449,1.009,0.237c0.344-0.214,0.45-0.666,0.237-1.009
		c-0.321-0.517-0.672-1.023-1.042-1.505c-0.102-0.133-0.24-0.221-0.388-0.261c-0.214-0.058-0.45-0.019-0.639,0.126
		c-0.321,0.247-0.382,0.707-0.135,1.028C388.816,64.401,389.138,64.867,389.433,65.343z"/>
	<path d="M368.49,57.142c-0.025,0.007-0.051,0.016-0.077,0.026c-0.565,0.222-1.127,0.476-1.669,0.755
		c-0.361,0.185-0.502,0.627-0.317,0.987c0.185,0.36,0.625,0.5,0.987,0.317c0.499-0.256,1.015-0.49,1.536-0.694
		c0.377-0.148,0.562-0.573,0.414-0.95C369.226,57.23,368.847,57.045,368.49,57.142z"/>
	<path d="M363.692,61.834c0.415-0.383,0.85-0.747,1.293-1.082c0.323-0.245,0.387-0.704,0.142-1.026
		c-0.186-0.246-0.497-0.342-0.776-0.266c-0.089,0.024-0.173,0.065-0.25,0.123c-0.482,0.365-0.953,0.76-1.403,1.175
		c-0.298,0.274-0.316,0.738-0.041,1.035C362.93,62.091,363.394,62.109,363.692,61.834z"/>
	<path d="M359.79,65.579c0.344,0.212,0.795,0.109,1.009-0.237c0.295-0.476,0.618-0.942,0.959-1.385
		c0.247-0.321,0.186-0.781-0.135-1.028c-0.189-0.145-0.425-0.184-0.639-0.126c-0.149,0.04-0.287,0.128-0.388,0.261
		c-0.37,0.482-0.721,0.988-1.042,1.505C359.34,64.913,359.446,65.365,359.79,65.579z"/>
	<path d="M392.66,77.575c-0.145-0.025-0.287-0.007-0.413,0.047c-0.221,0.094-0.391,0.295-0.435,0.549
		c-0.096,0.549-0.221,1.102-0.371,1.646c-0.108,0.39,0.121,0.794,0.511,0.902c0.39,0.107,0.795-0.121,0.902-0.511
		c0.162-0.59,0.298-1.19,0.401-1.784C393.325,78.024,393.058,77.644,392.66,77.575z"/>
	<path d="M391.421,82.16c-0.197-0.091-0.413-0.089-0.598-0.01c-0.161,0.069-0.297,0.195-0.376,0.365
		c-0.237,0.509-0.502,1.011-0.785,1.491c-0.207,0.349-0.091,0.798,0.258,1.005c0.349,0.206,0.798,0.091,1.004-0.259
		c0.307-0.522,0.594-1.066,0.851-1.617C391.946,82.767,391.787,82.331,391.421,82.16z"/>
	<path d="M358.801,79.816c-0.15-0.544-0.275-1.097-0.371-1.646c-0.044-0.253-0.214-0.454-0.435-0.549
		c-0.126-0.054-0.269-0.072-0.413-0.047c-0.398,0.069-0.665,0.449-0.596,0.848c0.103,0.594,0.239,1.195,0.401,1.784
		c0.107,0.391,0.512,0.619,0.902,0.511C358.68,80.611,358.909,80.206,358.801,79.816z"/>
	<path d="M359.795,82.514c-0.079-0.17-0.216-0.296-0.376-0.365c-0.185-0.079-0.401-0.081-0.598,0.01
		c-0.366,0.171-0.526,0.607-0.354,0.974c0.257,0.552,0.544,1.096,0.851,1.617c0.207,0.349,0.655,0.465,1.004,0.259
		c0.349-0.207,0.465-0.655,0.258-1.005C360.297,83.526,360.033,83.023,359.795,82.514z"/>
	<path d="M373.841,92.199c-0.563-0.037-1.127-0.1-1.677-0.19c-0.254-0.042-0.499,0.053-0.661,0.231
		c-0.092,0.101-0.156,0.23-0.18,0.375c-0.065,0.399,0.206,0.776,0.606,0.841c0.595,0.097,1.207,0.166,1.817,0.206
		c0.404,0.027,0.753-0.281,0.779-0.684C374.552,92.574,374.245,92.225,373.841,92.199z"/>
	<path d="M378.382,91.892c-0.546,0.11-1.108,0.195-1.667,0.252c-0.186,0.019-0.35,0.107-0.468,0.236
		c-0.135,0.149-0.208,0.352-0.187,0.568c0.041,0.402,0.401,0.696,0.804,0.654c0.605-0.062,1.214-0.155,1.807-0.273
		c0.398-0.081,0.654-0.467,0.574-0.864C379.166,92.069,378.78,91.812,378.382,91.892z"/>
</g>
<path d="M373.868,73.718v10.851h2.486v-1.968h2.035v-2.486h-2.035v-1.656h2.035v-2.486h-2.035v-2.302
	c1.337-0.528,2.289-1.826,2.289-3.349c0-1.989-1.618-3.607-3.607-3.607s-3.607,1.618-3.607,3.607
	C371.43,71.9,372.455,73.23,373.868,73.718z M375.037,68.519c0.995,0,1.803,0.809,1.803,1.803s-0.809,1.803-1.803,1.803
	s-1.803-0.809-1.803-1.803S374.042,68.519,375.037,68.519z"/>
<g>
	<path d="M434.918,85.646c-2.225,0-4.034,1.841-4.034,4.103s1.81,4.103,4.034,4.103s4.035-1.841,4.035-4.103
		S437.143,85.646,434.918,85.646z"/>
	<path d="M415.075,85.646c-2.225,0-4.035,1.841-4.035,4.103s1.811,4.103,4.035,4.103s4.035-1.841,4.035-4.103
		S417.3,85.646,415.075,85.646z"/>
	<path d="M425.114,61.335c2.225,0,4.035-1.841,4.035-4.103s-1.811-4.103-4.035-4.103s-4.035,1.841-4.035,4.103
		S422.89,61.335,425.114,61.335z"/>
	<path d="M442.359,66.945c-2.225,0-4.035,1.841-4.035,4.103s1.811,4.102,4.035,4.102s4.034-1.84,4.034-4.102
		S444.584,66.945,442.359,66.945z"/>
	<path d="M411.651,71.078c0-2.262-1.811-4.103-4.035-4.103s-4.035,1.841-4.035,4.103s1.811,4.102,4.035,4.102
		S411.651,73.34,411.651,71.078z"/>
	<path d="M431.283,58.532c0.52,0.204,1.037,0.438,1.536,0.694c0.361,0.183,0.802,0.043,0.987-0.317
		c0.185-0.36,0.044-0.802-0.317-0.987c-0.543-0.279-1.104-0.532-1.669-0.755c-0.026-0.01-0.051-0.019-0.077-0.026
		c-0.356-0.097-0.735,0.089-0.873,0.44C430.722,57.958,430.907,58.384,431.283,58.532z"/>
	<path d="M436.542,61.834c0.298,0.275,0.762,0.257,1.035-0.041c0.275-0.297,0.257-0.761-0.041-1.035
		c-0.45-0.416-0.921-0.811-1.403-1.175c-0.077-0.058-0.161-0.099-0.25-0.123c-0.28-0.076-0.59,0.02-0.776,0.266
		c-0.244,0.322-0.181,0.782,0.142,1.026C435.692,61.087,436.126,61.451,436.542,61.834z"/>
	<path d="M439.433,65.343c0.215,0.346,0.665,0.449,1.009,0.237c0.344-0.214,0.45-0.666,0.237-1.009
		c-0.321-0.517-0.672-1.023-1.042-1.505c-0.102-0.133-0.24-0.221-0.388-0.261c-0.214-0.058-0.45-0.019-0.639,0.126
		c-0.321,0.247-0.382,0.707-0.135,1.028C438.816,64.401,439.138,64.867,439.433,65.343z"/>
	<path d="M418.49,57.142c-0.025,0.007-0.051,0.016-0.077,0.026c-0.565,0.222-1.127,0.476-1.669,0.755
		c-0.361,0.185-0.502,0.627-0.317,0.987c0.185,0.36,0.625,0.5,0.987,0.317c0.499-0.256,1.015-0.49,1.536-0.694
		c0.377-0.148,0.562-0.573,0.414-0.95C419.226,57.23,418.847,57.045,418.49,57.142z"/>
	<path d="M413.692,61.834c0.415-0.383,0.85-0.747,1.293-1.082c0.323-0.245,0.387-0.704,0.142-1.026
		c-0.186-0.246-0.497-0.342-0.776-0.266c-0.089,0.024-0.173,0.065-0.25,0.123c-0.482,0.365-0.953,0.76-1.403,1.175
		c-0.298,0.274-0.316,0.738-0.041,1.035C412.93,62.091,413.394,62.109,413.692,61.834z"/>
	<path d="M409.79,65.579c0.344,0.212,0.795,0.109,1.009-0.237c0.295-0.476,0.618-0.942,0.959-1.385
		c0.247-0.321,0.186-0.781-0.135-1.028c-0.189-0.145-0.425-0.184-0.639-0.126c-0.149,0.04-0.287,0.128-0.388,0.261
		c-0.37,0.482-0.721,0.988-1.042,1.505C409.34,64.913,409.446,65.365,409.79,65.579z"/>
	<path d="M442.66,77.575c-0.145-0.025-0.287-0.007-0.413,0.047c-0.221,0.094-0.391,0.295-0.435,0.549
		c-0.096,0.549-0.221,1.102-0.371,1.646c-0.108,0.39,0.121,0.794,0.511,0.902c0.39,0.107,0.795-0.121,0.902-0.511
		c0.162-0.59,0.298-1.19,0.401-1.784C443.325,78.024,443.058,77.644,442.66,77.575z"/>
	<path d="M441.421,82.16c-0.197-0.091-0.413-0.089-0.598-0.01c-0.161,0.069-0.297,0.195-0.376,0.365
		c-0.237,0.509-0.502,1.011-0.785,1.491c-0.207,0.349-0.091,0.798,0.258,1.005c0.349,0.206,0.798,0.091,1.004-0.259
		c0.307-0.522,0.594-1.066,0.851-1.617C441.946,82.767,441.787,82.331,441.421,82.16z"/>
	<path d="M408.801,79.816c-0.15-0.544-0.275-1.097-0.371-1.646c-0.044-0.253-0.214-0.454-0.435-0.549
		c-0.126-0.054-0.269-0.072-0.413-0.047c-0.398,0.069-0.665,0.449-0.596,0.848c0.103,0.594,0.239,1.195,0.401,1.784
		c0.107,0.391,0.512,0.619,0.902,0.511C408.68,80.611,408.909,80.206,408.801,79.816z"/>
	<path d="M409.795,82.514c-0.079-0.17-0.216-0.296-0.376-0.365c-0.185-0.079-0.401-0.081-0.598,0.01
		c-0.366,0.171-0.526,0.607-0.354,0.974c0.257,0.552,0.544,1.096,0.851,1.617c0.207,0.349,0.655,0.465,1.004,0.259
		c0.349-0.207,0.465-0.655,0.258-1.005C410.297,83.526,410.033,83.023,409.795,82.514z"/>
	<path d="M423.841,92.199c-0.563-0.037-1.127-0.1-1.677-0.19c-0.254-0.042-0.499,0.053-0.661,0.231
		c-0.092,0.101-0.156,0.23-0.18,0.375c-0.065,0.399,0.206,0.776,0.606,0.841c0.595,0.097,1.207,0.166,1.817,0.206
		c0.404,0.027,0.753-0.281,0.779-0.684C424.552,92.574,424.245,92.225,423.841,92.199z"/>
	<path d="M428.382,91.892c-0.546,0.11-1.108,0.195-1.667,0.252c-0.186,0.019-0.35,0.107-0.468,0.236
		c-0.135,0.149-0.208,0.352-0.187,0.568c0.041,0.402,0.401,0.696,0.804,0.654c0.605-0.062,1.214-0.155,1.807-0.273
		c0.398-0.081,0.654-0.467,0.574-0.864C429.166,92.069,428.78,91.812,428.382,91.892z"/>
</g>
<path d="M423.868,73.718v10.851h2.486v-1.968h2.035v-2.486h-2.035v-1.656h2.035v-2.486h-2.035v-2.302
	c1.337-0.528,2.289-1.826,2.289-3.349c0-1.989-1.618-3.607-3.607-3.607s-3.607,1.618-3.607,3.607
	C421.43,71.9,422.455,73.23,423.868,73.718z M425.037,68.519c0.995,0,1.803,0.809,1.803,1.803s-0.809,1.803-1.803,1.803
	s-1.803-0.809-1.803-1.803S424.042,68.519,425.037,68.519z"/>
</svg>
