<svg id="Layer_1" data-name="Layer 1" xmlns="http://www.w3.org/2000/svg" width="400.5" height="100" viewBox="0 0 400.5 100"><defs><style>.cls-1{fill:none;}</style></defs><title>handcrafted-sprite</title><path d="M30.481,7.213a2.591,2.591,0,0,0-2.59-2.594l-5.88,0A2.6,2.6,0,0,0,19.42,7.2l0,2.915h0.009l-0.042,25.3h0.05a0.641,0.641,0,0,0,.039.172l4.854,9.437a0.668,0.668,0,0,0,.6.364h0.044a0.669,0.669,0,0,0,.6-0.365l4.824-9.43a0.653,0.653,0,0,0,.051-0.232h0.027L30.458,10.126h0.021ZM26.175,40.882l-2.473,0-2.536-4.93L28.7,35.956Zm0.061-30.734h1.339L27.557,33.236l-1.339,0Zm-2.489,0L23.73,33.233l-1.339,0,0.017-23.087h1.339ZM22.012,5.954l5.878,0a1.251,1.251,0,0,1,1.251,1.252V8.761l-8.382-.006,0-1.55A1.253,1.253,0,0,1,22.012,5.954Z"/><path d="M85.071,10.034a2.591,2.591,0,0,0-1.8-3.2l-5.661-1.59a2.6,2.6,0,0,0-3.193,1.795L73.635,9.849l0.009,0L66.783,34.2l0.048,0.013a0.641,0.641,0,0,0-.009.176l2.13,10.4a0.668,0.668,0,0,0,.475.511l0.042,0.012a0.669,0.669,0,0,0,.673-0.191l7.187-7.78a0.653,0.653,0,0,0,.112-0.209l0.026,0.007,6.8-24.3,0.02,0.006ZM71.848,41.3l-2.381-.668L68.354,35.2,75.6,37.231Zm8.344-29.58,1.289,0.362L75.239,34.305l-1.289-.363Zm-2.4-.673L71.555,33.271l-1.289-.363,6.24-22.227Zm-0.54-4.5,5.659,1.589a1.251,1.251,0,0,1,.867,1.543l-0.419,1.493L75.292,8.9l0.42-1.492A1.253,1.253,0,0,1,77.255,6.538Z"/><path d="M73.292,43.965H72.126a0.726,0.726,0,1,0,0,1.451h1.166A0.726,0.726,0,0,0,73.292,43.965Z"/><path d="M135.787,10.9a2.591,2.591,0,0,0-1.64-3.278l-5.578-1.858a2.6,2.6,0,0,0-3.275,1.64l-0.921,2.765,0.008,0-8.016,23.992,0.048,0.016a0.641,0.641,0,0,0-.018.175l1.631,10.486a0.668,0.668,0,0,0,.45.533l0.042,0.014a0.669,0.669,0,0,0,.681-0.159L126.75,37.8a0.653,0.653,0,0,0,.122-0.2l0.026,0.008,7.949-23.948,0.02,0.007ZM121.085,41.5l-2.346-.781-0.852-5.478,7.143,2.379Zm9.748-29.148,1.27,0.423-7.3,21.9-1.27-.424Zm-2.361-.787-7.3,21.9-1.27-.424,7.3-21.9Zm-0.325-4.525L133.724,8.9a1.251,1.251,0,0,1,.793,1.583l-0.49,1.471L126.074,9.3l0.49-1.47A1.253,1.253,0,0,1,128.147,7.038Z"/><path d="M125.941,43.965h-4.315a0.726,0.726,0,0,0,0,1.451h4.315A0.726,0.726,0,1,0,125.941,43.965Z"/><path d="M181.537,10.9a2.591,2.591,0,0,0-1.64-3.278l-5.578-1.858a2.6,2.6,0,0,0-3.275,1.64l-0.921,2.765,0.008,0-8.016,23.992,0.048,0.016a0.641,0.641,0,0,0-.018.175l1.631,10.486a0.668,0.668,0,0,0,.45.533l0.042,0.014a0.669,0.669,0,0,0,.681-0.159L172.5,37.8a0.653,0.653,0,0,0,.122-0.2l0.026,0.008L180.6,13.66l0.02,0.007ZM166.835,41.5l-2.346-.781-0.852-5.478,7.143,2.379Zm9.748-29.148,1.27,0.423-7.3,21.9-1.27-.424Zm-2.361-.787-7.3,21.9-1.27-.424,7.3-21.9ZM173.9,7.038L179.474,8.9a1.251,1.251,0,0,1,.793,1.583l-0.49,1.471L171.824,9.3l0.49-1.47A1.253,1.253,0,0,1,173.9,7.038Z"/><path d="M177.333,43.965h-9.5a0.726,0.726,0,0,0,0,1.451h9.5A0.726,0.726,0,1,0,177.333,43.965Z"/><path d="M229.776,9.043a2.591,2.591,0,0,0-2.008-3.067l-5.755-1.2a2.6,2.6,0,0,0-3.064,2.007l-0.6,2.853,0.009,0-5.194,24.757,0.049,0.01a0.641,0.641,0,0,0,0,.176l2.83,10.228a0.668,0.668,0,0,0,.509.477l0.043,0.009a0.669,0.669,0,0,0,.658-0.236l6.643-8.25a0.653,0.653,0,0,0,.1-0.216l0.026,0.005,5.133-24.706,0.021,0ZM218.7,41.13l-2.42-.505L214.8,35.281l7.37,1.539Zm6.319-30.078,1.311,0.274-4.72,22.6-1.311-.274Zm-2.436-.509-4.719,22.6-1.311-.274,4.719-22.6ZM221.74,6.086l5.754,1.2a1.251,1.251,0,0,1,.97,1.481l-0.317,1.518-8.205-1.713,0.317-1.517A1.253,1.253,0,0,1,221.74,6.086Z"/><path d="M227.25,43.965h-9.417a0.726,0.726,0,0,0,0,1.451h9.417A0.726,0.726,0,0,0,227.25,43.965Z"/><path d="M276.509,7.05a2.591,2.591,0,0,0-2.566-2.618l-5.879-.059a2.6,2.6,0,0,0-2.615,2.565L265.42,9.853h0.009l-0.276,25.294h0.05a0.641,0.641,0,0,0,.037.172l4.766,9.482a0.668,0.668,0,0,0,.592.369h0.044a0.669,0.669,0,0,0,.6-0.36l4.911-9.385a0.653,0.653,0,0,0,.054-0.231h0.027l0.227-25.232h0.021Zm-4.617,33.628-2.472-.025-2.49-4.953,7.529,0.075Zm0.345-30.732,1.339,0.013-0.232,23.086-1.339-.014Zm-2.489-.025-0.231,23.086-1.339-.014,0.231-23.085Zm-1.7-4.208,5.877,0.059a1.251,1.251,0,0,1,1.24,1.264l-0.015,1.551L266.773,8.5l0.016-1.55A1.253,1.253,0,0,1,268.053,5.713Z"/><path d="M277.167,43.934h-9.333a0.726,0.726,0,0,0,0,1.451h9.333A0.726,0.726,0,0,0,277.167,43.934Z"/><path d="M323.123,6.3a2.591,2.591,0,0,0-3.007-2.1l-5.788,1.033a2.6,2.6,0,0,0-2.094,3.006l0.512,2.869,0.009,0,4.421,24.907,0.049-.009a0.641,0.641,0,0,0,.068.163l6.442,8.433a0.668,0.668,0,0,0,.65.253l0.043-.008a0.669,0.669,0,0,0,.522-0.465l3.084-10.133a0.653,0.653,0,0,0,.01-0.237l0.026,0L323.614,9.177l0.021,0Zm1.7,33.9-2.434.434-3.366-4.405,7.412-1.323ZM319.462,9.943l1.318-.235,4.056,22.729-1.318.235Zm-2.45.437,4.057,22.728-1.318.235-4.056-22.727Zm-2.447-3.82,5.786-1.032A1.251,1.251,0,0,1,321.8,6.539l0.273,1.527-8.252,1.473-0.272-1.526A1.253,1.253,0,0,1,314.565,6.56Z"/><path d="M324.917,43.934h-9.333a0.726,0.726,0,0,0,0,1.451h9.333A0.726,0.726,0,0,0,324.917,43.934Z"/><path d="M374.232,6.211a2.591,2.591,0,0,0-3.079-1.989L365.4,5.457a2.6,2.6,0,0,0-1.987,3.078l0.613,2.849,0.009,0,5.293,24.736,0.049-.011a0.641,0.641,0,0,0,.074.16l6.734,8.2a0.668,0.668,0,0,0,.659.23l0.043-.009a0.669,0.669,0,0,0,.506-0.483l2.727-10.235a0.653,0.653,0,0,0,0-.237l0.026-.006L374.823,9.064l0.021,0Zm2.891,33.82-2.417.52-3.519-4.285,7.361-1.582ZM370.7,9.975l1.309-.281,4.851,22.572-1.309.281Zm-2.433.523,4.852,22.572-1.309.281-4.852-22.571Zm-2.58-3.732,5.747-1.235a1.251,1.251,0,0,1,1.487.96l0.326,1.516-8.195,1.761-0.325-1.515A1.253,1.253,0,0,1,365.688,6.766Z"/><path d="M374.917,43.934h-9.333a0.726,0.726,0,0,0,0,1.451h9.333A0.726,0.726,0,0,0,374.917,43.934Z"/><path d="M24.232,56.211a2.591,2.591,0,0,0-3.079-1.989L15.4,55.457a2.6,2.6,0,0,0-1.987,3.078l0.613,2.849,0.009,0,5.293,24.736,0.049-.011a0.641,0.641,0,0,0,.074.16l6.734,8.2a0.668,0.668,0,0,0,.659.23l0.043-.009a0.669,0.669,0,0,0,.506-0.483l2.727-10.235a0.653,0.653,0,0,0,0-.237l0.026-.006L24.823,59.064l0.021,0Zm2.891,33.82-2.417.52-3.519-4.285,7.361-1.582ZM20.7,59.975l1.309-.281,4.851,22.572-1.309.281Zm-2.433.523L23.119,83.07l-1.309.281L16.958,60.779Zm-2.58-3.732,5.747-1.235a1.251,1.251,0,0,1,1.487.96l0.326,1.516-8.195,1.761-0.325-1.515A1.253,1.253,0,0,1,15.688,56.766Z"/><path d="M24.917,93.934H15.583a0.726,0.726,0,1,0,0,1.451h9.333A0.726,0.726,0,1,0,24.917,93.934Z"/><path d="M75.325,57.049a2.591,2.591,0,0,0-3.28-1.637l-5.576,1.864a2.6,2.6,0,0,0-1.634,3.279l0.924,2.764,0.008,0,8,24,0.047-.016a0.641,0.641,0,0,0,.091.151l7.6,7.406a0.668,0.668,0,0,0,.68.156L82.224,95a0.669,0.669,0,0,0,.449-0.536l1.578-10.474a0.653,0.653,0,0,0-.025-0.236l0.025-.009L76.228,59.819l0.02-.007ZM81.94,90.341l-2.345.784-3.971-3.869,7.141-2.387ZM72.232,61.181l1.27-.424,7.318,21.9-1.27.424Zm-2.361.789,7.319,21.9-1.27.424L68.6,62.394ZM66.9,58.546l5.575-1.863a1.251,1.251,0,0,1,1.584.79l0.492,1.471L66.6,61.6l-0.491-1.47A1.253,1.253,0,0,1,66.9,58.546Z"/><path d="M79.5,93.934H65.583a0.726,0.726,0,1,0,0,1.451H79.5A0.726,0.726,0,1,0,79.5,93.934Z"/><path d="M127.2,57.049a2.591,2.591,0,0,0-3.28-1.637l-5.576,1.864a2.6,2.6,0,0,0-1.634,3.279l0.924,2.764,0.008,0,8,24,0.047-.016a0.641,0.641,0,0,0,.091.151l7.6,7.406a0.668,0.668,0,0,0,.68.156L134.1,95a0.669,0.669,0,0,0,.449-0.536l1.578-10.474a0.653,0.653,0,0,0-.025-0.236l0.025-.009L128.1,59.819l0.02-.007Zm6.615,33.293-2.345.784L127.5,87.256l7.141-2.387Zm-9.708-29.161,1.27-.424,7.318,21.9-1.27.424Zm-2.361.789,7.319,21.9-1.27.424-7.319-21.9Zm-2.977-3.424,5.575-1.863a1.251,1.251,0,0,1,1.584.79l0.492,1.471-7.95,2.657-0.491-1.47A1.253,1.253,0,0,1,118.77,58.546Z"/><path d="M130.625,93.934H115.583a0.726,0.726,0,0,0,0,1.451h15.042A0.726,0.726,0,0,0,130.625,93.934Z"/><path d="M178.325,57.049a2.591,2.591,0,0,0-3.28-1.637l-5.576,1.864a2.6,2.6,0,0,0-1.634,3.279l0.924,2.764,0.008,0,8,24,0.047-.016a0.641,0.641,0,0,0,.091.151l7.6,7.406a0.668,0.668,0,0,0,.68.156L185.224,95a0.669,0.669,0,0,0,.449-0.536l1.578-10.474a0.653,0.653,0,0,0-.025-0.236l0.025-.009-8.024-23.923,0.02-.007Zm6.615,33.293-2.345.784-3.971-3.869,7.141-2.387Zm-9.708-29.161,1.27-.424,7.318,21.9-1.27.424Zm-2.361.789,7.319,21.9-1.27.424-7.319-21.9ZM169.9,58.546l5.575-1.863a1.251,1.251,0,0,1,1.584.79l0.492,1.471L169.6,61.6l-0.491-1.47A1.253,1.253,0,0,1,169.9,58.546Z"/><path d="M182.5,93.934H165.583a0.726,0.726,0,0,0,0,1.451H182.5A0.726,0.726,0,0,0,182.5,93.934Z"/><path d="M229.2,57.049a2.591,2.591,0,0,0-3.28-1.637l-5.576,1.864a2.6,2.6,0,0,0-1.634,3.279l0.924,2.764,0.008,0,8,24,0.047-.016a0.641,0.641,0,0,0,.091.151l7.6,7.406a0.668,0.668,0,0,0,.68.156L236.1,95a0.669,0.669,0,0,0,.449-0.536l1.578-10.474a0.653,0.653,0,0,0-.025-0.236l0.025-.009L230.1,59.819l0.02-.007Zm6.615,33.293-2.345.784L229.5,87.256l7.141-2.387Zm-9.708-29.161,1.27-.424,7.318,21.9-1.27.424Zm-2.361.789,7.319,21.9-1.27.424-7.319-21.9Zm-2.977-3.424,5.575-1.863a1.251,1.251,0,0,1,1.584.79l0.492,1.471-7.95,2.657-0.491-1.47A1.253,1.253,0,0,1,220.77,58.546Z"/><path d="M235.125,93.934H215.583a0.726,0.726,0,0,0,0,1.451h19.542A0.726,0.726,0,0,0,235.125,93.934Z"/><path d="M280.95,57.049a2.591,2.591,0,0,0-3.28-1.637l-5.576,1.864a2.6,2.6,0,0,0-1.634,3.279l0.924,2.764,0.008,0,8,24,0.047-.016a0.641,0.641,0,0,0,.091.151l7.6,7.406a0.668,0.668,0,0,0,.68.156L287.849,95a0.669,0.669,0,0,0,.449-0.536l1.578-10.474a0.653,0.653,0,0,0-.025-0.236l0.025-.009-8.024-23.923,0.02-.007Zm6.615,33.293-2.345.784-3.971-3.869,7.141-2.387Zm-9.708-29.161,1.27-.424,7.318,21.9-1.27.424Zm-2.361.789,7.319,21.9-1.27.424-7.319-21.9Zm-2.977-3.424,5.575-1.863a1.251,1.251,0,0,1,1.584.79l0.492,1.471-7.95,2.657-0.491-1.47A1.253,1.253,0,0,1,272.52,58.546Z"/><path d="M287.875,93.934H265.583a0.726,0.726,0,0,0,0,1.451h22.292A0.726,0.726,0,0,0,287.875,93.934Z"/><path d="M333.575,57.049a2.591,2.591,0,0,0-3.28-1.637l-5.576,1.864a2.6,2.6,0,0,0-1.634,3.279l0.924,2.764,0.008,0,8,24,0.047-.016a0.641,0.641,0,0,0,.091.151l7.6,7.406a0.668,0.668,0,0,0,.68.156L340.474,95a0.669,0.669,0,0,0,.449-0.536L342.5,83.987a0.653,0.653,0,0,0-.025-0.236l0.025-.009-8.024-23.923,0.02-.007Zm6.615,33.293-2.345.784-3.971-3.869,7.141-2.387Zm-9.708-29.161,1.27-.424,7.318,21.9-1.27.424Zm-2.361.789,7.319,21.9-1.27.424-7.319-21.9Zm-2.977-3.424,5.575-1.863a1.251,1.251,0,0,1,1.584.79l0.492,1.471-7.95,2.657-0.491-1.47A1.253,1.253,0,0,1,325.145,58.546Z"/><path d="M339.375,93.934H315.583a0.726,0.726,0,0,0,0,1.451h23.792A0.726,0.726,0,0,0,339.375,93.934Z"/><path d="M385.45,57.049a2.591,2.591,0,0,0-3.28-1.637l-5.576,1.864a2.6,2.6,0,0,0-1.634,3.279l0.924,2.764,0.008,0,8,24,0.047-.016a0.641,0.641,0,0,0,.091.151l7.6,7.406a0.668,0.668,0,0,0,.68.156L392.349,95a0.669,0.669,0,0,0,.449-0.536l1.578-10.474a0.653,0.653,0,0,0-.025-0.236l0.025-.009-8.024-23.923,0.02-.007Zm6.615,33.293-2.345.784-3.971-3.869,7.141-2.387Zm-9.708-29.161,1.27-.424,7.318,21.9-1.27.424ZM380,61.969l7.319,21.9-1.27.424-7.319-21.9Zm-2.977-3.424,5.575-1.863a1.251,1.251,0,0,1,1.584.79l0.492,1.471-7.95,2.657-0.491-1.47A1.253,1.253,0,0,1,377.02,58.546Z"/><path d="M390.875,93.934H365.583a0.726,0.726,0,0,0,0,1.451h25.292A0.726,0.726,0,0,0,390.875,93.934Z"/></svg>
