<?xml version="1.0" encoding="utf-8"?>
<!-- Generator: Adobe Illustrator 18.1.1, SVG Export Plug-In . SVG Version: 6.00 Build 0)  -->
<svg version="1.1" id="Layer_1" xmlns="http://www.w3.org/2000/svg" xmlns:xlink="http://www.w3.org/1999/xlink" x="0px" y="0px"
	 viewBox="0 0 612 792" enable-background="new 0 0 612 792" xml:space="preserve">
<g>
	<path fill="#939598" d="M270.1,353.3l-44.3,64.1l35.1,9.2c1.5,0,3.1,1.5,4.6,4.6c0,1.5,0,4.6-1.5,6.1L96.1,576.1
		c-1.5,1.5-3.1,1.5-3.1,1.5c-1.5,0-3.1,0-3.1-1.5c-1.5-1.5-3.1-4.6-1.5-7.6l67.2-106.8l-32-9.2c-1.5,0-3.1-1.5-3.1-3.1
		s0-3.1,1.5-4.6l88.5-112.9c1.5-1.5,3.1-3.1,6.1-1.5l51.9,13.7c1.5,0,3.1,1.5,3.1,3.1C271.7,348.7,271.7,351.7,270.1,353.3z"/>
	<path fill="#939598" d="M558.6,177.8h-12.2c-6.1,0-10.7,4.6-12.2,10.7c-1.5,6.1,4.6,10.7,10.7,12.2h12.2l0,0
		c6.1,0,10.7-4.6,10.7-10.7C569.3,183.9,564.7,179.3,558.6,177.8z"/>
	<path fill="#939598" d="M500.6,176.2l-25.9-1.5c-6.1,0-10.7,4.6-12.2,10.7c-1.5,6.1,4.6,10.7,10.7,12.2l25.9,1.5l0,0
		c6.1,0,10.7-4.6,10.7-10.7C511.3,180.8,506.7,176.2,500.6,176.2z"/>
	<path fill="#939598" d="M428.9,171.7l-25.9-1.5c-6.1,0-10.7,4.6-12.2,10.7s4.6,10.7,10.7,12.2l25.9,1.5l0,0
		c6.1,0,10.7-4.6,10.7-10.7C439.5,177.8,435,171.7,428.9,171.7z"/>
	<path fill="#939598" d="M401.4,104.5c1.5,0,3.1,0,4.6,0l24.4-9.2c6.1-1.5,9.2-9.2,6.1-13.7c-1.5-6.1-9.2-9.2-13.7-6.1l-25.9,7.6
		c-6.1,1.5-9.2,9.2-6.1,13.7C392.2,101.4,396.8,104.5,401.4,104.5z"/>
	<path fill="#939598" d="M468.5,78.6c1.5,0,3.1,0,4.6,0l24.4-9.2c6.1-3.1,9.2-10.7,6.1-15.3c-1.5-6.1-9.2-9.2-13.7-6.1l-24.4,9.2
		c-6.1,1.5-9.2,9.2-6.1,13.7C459.4,75.5,464,78.6,468.5,78.6z"/>
	<path fill="#939598" d="M346.4,125.9c1.5,0,3.1,0,4.6,0l12.2-4.6c6.1-1.5,9.2-9.2,6.1-13.7c-1.5-6.1-9.2-9.2-13.7-6.1l-12.2,4.6
		c-6.1,1.5-9.2,9.2-6.1,13.7C337.3,122.8,341.9,125.9,346.4,125.9z"/>
	<path fill="#939598" d="M541.8,106c-1.5-6.1-7.6-9.2-13.7-7.6l-25.9,6.1c-6.1,1.5-9.2,7.6-7.6,13.7c1.5,4.6,6.1,9.2,10.7,9.2
		c1.5,0,1.5,0,3.1,0l25.9-6.1C538.7,118.2,543.3,112.1,541.8,106z"/>
	<path fill="#939598" d="M399.9,139.6c-1.5-6.1-7.6-9.2-13.7-7.6l-24.4,6.1c-6.1,1.5-9.2,7.6-7.6,13.7c1.5,4.6,6.1,9.2,10.7,9.2
		c1.5,0,1.5,0,3.1,0l24.4-7.6C398.3,151.8,401.4,145.7,399.9,139.6z"/>
	<path fill="#939598" d="M612,89.2c-1.5-6.1-7.6-9.2-13.7-7.6l-25.9,6.1c-6.1,1.5-9.2,7.6-7.6,13.7c1.5,4.6,6.1,9.2,10.7,9.2
		c1.5,0,1.5,0,3.1,0l25.9-6.1C608.9,101.4,613.5,95.3,612,89.2z"/>
	<path fill="#939598" d="M470.1,122.8c-1.5-6.1-7.6-9.2-13.7-7.6l-25.9,6.1c-6.1,1.5-9.2,7.6-7.6,13.7c1.5,4.6,6.1,9.2,10.7,9.2
		c1.5,0,1.5,0,3.1,0l25.9-6.1C468.5,135,471.6,128.9,470.1,122.8z"/>
	<path fill="#939598" d="M355.6,260.2c-3.1-4.6-6.1-7.6-10.7-9.2c0-7.6-3.1-16.8-7.6-22.9c-6.1-10.7-15.3-18.3-25.9-22.9l1.5-4.6
		c3.1-9.2,0-16.8-6.1-18.3l-15.3-4.6l15.3-53.4l-58-15.3l-15.3,53.4l-15.3-4.6h-1.5c-6.1,0-10.7,4.6-12.2,13.7l-1.5,4.6
		c-3.1,0-4.6,0-7.6,0c-18.3,0-35.1,9.2-45.8,22.9c-10.7-1.5-21.4,4.6-24.4,15.3L0,670.7c0,3.1,0,6.1,1.5,7.6s3.1,3.1,4.6,4.6v1.5
		c1.5,4.6,6.1,6.1,10.7,7.6L206,744c1.5,0,3.1,0,4.6,0c3.1,0,6.1-1.5,9.2-3.1h1.5c4.6,0,9.2-3.1,10.7-7.6l126.7-457.9
		C360.2,270.9,358.7,264.7,355.6,260.2z M24.4,666.1l5.8-18.9l189.1,52.4l-5.7,20L24.4,666.1z M221.3,689l-0.2,0L32,635.6l112.9-409
		l1.5-3.1l187.7,51.9h1.5L221.3,689z"/>
	<path fill="#939598" d="M267.1,344.1l-51.9-13.7c-1.5,0-4.6,0-6.1,1.5l-88.5,112.9c-1.5,1.5-1.5,3.1-1.5,4.6s1.5,3.1,3.1,3.1
		l32,9.2L87,568.5c-1.5,3.1-1.5,4.6,1.5,7.6c1.5,1.5,3.1,1.5,3.1,1.5c1.5,0,3.1,0,3.1-1.5L261,435.7c1.5-1.5,1.5-3.1,1.5-6.1
		c0-1.5-1.5-3.1-4.6-4.6l-35.1-9.2l44.3-64.1c1.5-1.5,1.5-3.1,0-4.6C265.6,345.6,268.6,345.6,267.1,344.1z"/>
</g>
</svg>
