<?xml version="1.0" encoding="utf-8"?>
<!-- Generator: Adobe Illustrator 18.1.1, SVG Export Plug-In . SVG Version: 6.00 Build 0)  -->
<svg version="1.1" id="Layer_1" xmlns="http://www.w3.org/2000/svg" xmlns:xlink="http://www.w3.org/1999/xlink" x="0px" y="0px"
	 viewBox="0 0 612 792" enable-background="new 0 0 612 792" xml:space="preserve">
<g>
	<path fill="#939598" d="M366.3,762.3h-31.5c-7.4,0-13,5.6-13,13s5.6,13,13,13h31.5c7.4,0,13-5.6,13-13S373.7,762.3,366.3,762.3z"/>
	<path fill="#939598" d="M455.3,762.3h-31.5c-7.4,0-13,5.6-13,13s5.6,13,13,13h31.5c7.4,0,13-5.6,13-13S462.7,762.3,455.3,762.3z"/>
	<path fill="#939598" d="M542.5,762.3H511c-7.4,0-13,5.6-13,13s5.6,13,13,13h31.5c7.4,0,13-5.6,13-13S549.9,762.3,542.5,762.3z"/>
	<path fill="#939598" d="M279.1,762.3h-31.5c-7.4,0-13,5.6-13,13s5.6,13,13,13h31.5c7.4,0,13-5.6,13-13S286.5,762.3,279.1,762.3z"/>
	<path fill="#939598" d="M268,613.9L268,613.9l70.5-484.1l0,0l7.4-55.6c3.7-27.8-14.8-53.8-42.7-57.5L191.9,0
		c-27.8-3.7-53.8,16.7-57.5,42.7L127,98.3l0,0l-70.5,486h1.9c0,1.9,0,1.9,0,3.7l66.8,194.8c1.9,3.7,5.6,7.4,11.1,9.3l0,0h1.9
		c3.7,0,7.4-1.9,11.1-5.6L268,619.5C268,615.8,268,615.8,268,613.9z M282.8,122.4l-63.1,443.3l-26-3.7l64.9-443.3L282.8,122.4z
		 M188.2,26l113.1,16.7c13,1.9,22.3,14.8,20.4,27.8l-3.7,29.7L156.7,76l3.7-29.7C162.3,33.4,175.2,24.1,188.2,26z M184.5,107.6
		l26,3.7l-64.9,443.3l-26-3.7L184.5,107.6z M171.5,708.5l-48.2-7.4l-35.2-102l144.7,20.4L171.5,708.5z"/>
</g>
</svg>
