<?xml version="1.0" encoding="utf-8"?>
<!-- Generator: Adobe Illustrator 18.1.1, SVG Export Plug-In . SVG Version: 6.00 Build 0)  -->
<svg version="1.1" id="Layer_1" xmlns="http://www.w3.org/2000/svg" xmlns:xlink="http://www.w3.org/1999/xlink" x="0px" y="0px"
	 viewBox="-1263.1 158.4 757.3 468.1" enable-background="new -1263.1 158.4 757.3 468.1" xml:space="preserve">
<g>
	<polygon fill="#939598" points="-1263.1,451.8 -1239,554 -1177.6,552.2 -1209.2,427.6 	"/>
	<path fill="#939598" d="M-506.5,485.2l-72.5-303c-3.7-18.6-26-29.7-42.8-20.5l-552.2,251l35.3,137.6l102.3-3.7l7.4,63.2
		c1.9,9.3,9.3,16.7,18.6,16.7l0,0L-843,621c5.6,0,9.3-1.9,13-5.6s5.6-9.3,3.7-14.9l-7.4-61.4l295.6-13
		C-515.7,524.3-502.7,505.7-506.5,485.2z M-993.5,587.5l-3.7-40.9l130.1-5.6l3.7,40.9L-993.5,587.5z"/>
</g>
</svg>
