<?xml version="1.0" encoding="utf-8"?>
<!-- Generator: Adobe Illustrator 18.1.1, SVG Export Plug-In . SVG Version: 6.00 Build 0)  -->
<svg version="1.1" id="Layer_1" xmlns="http://www.w3.org/2000/svg" xmlns:xlink="http://www.w3.org/1999/xlink" x="0px" y="0px"
	 viewBox="0 0 612 792" enable-background="new 0 0 612 792" xml:space="preserve">
<g>
	<path fill="#939598" d="M449.9,148.7c-3.9-3.9-9.7-5.8-15.5-7.7c-3.9-9.7-9.7-19.3-17.4-27c-11.6-11.6-25.1-17.4-40.6-19.3v-5.8
		c0-11.6-5.8-21.2-13.5-21.2h-19.3V-1.9L266.4,0v69.5h-19.3h-1.9c-5.8,1.9-9.7,9.7-9.7,21.2v5.8c-3.9,0-5.8,0-9.7,0
		c-21.2,7.7-38.6,23.2-46.4,44.4c-13.5,1.9-25.1,13.5-25.1,27v602.7c0,3.9,1.9,7.7,3.9,9.7c1.9,1.9,3.9,3.9,7.7,3.9
		c0,0,0,1.9,1.9,1.9c3.9,3.9,9.7,5.8,15.5,5.8h247.3c1.9,0,3.9,0,5.8,0c3.9-1.9,7.7-3.9,9.7-7.7h1.9c5.8-1.9,9.7-7.7,9.7-13.5V168.1
		C457.6,160.3,453.8,154.5,449.9,148.7z M181.4,179.6v-3.9h245.3h1.9v542.8H293.4h-114L181.4,179.6z M430.6,757.2H181.4v-27h249.2
		V757.2z"/>
	<path fill="#939598" d="M393.9,396c1.9-1.9,1.9-5.8,0-7.7c-1.9-1.9-3.9-3.9-5.8-3.9h-46.4l32.8-92.7c0-1.9,0-3.9,0-5.8
		c-1.9-1.9-3.9-3.9-5.8-3.9h-69.5c-1.9,0-5.8,1.9-5.8,3.9L223.9,454c0,1.9,0,3.9,0,5.8c3.9,3.9,5.8,5.8,7.7,5.8h40.6l-44.4,152.6
		c-1.9,3.9,0,7.7,3.9,7.7c1.9,0,3.9,0,5.8,0c1.9,0,3.9-1.9,3.9-1.9L393.9,396z"/>
</g>
</svg>
