<?xml version="1.0" encoding="utf-8"?>
<!-- Generator: Adobe Illustrator 18.1.1, SVG Export Plug-In . SVG Version: 6.00 Build 0)  -->
<svg version="1.1" id="Layer_1" xmlns="http://www.w3.org/2000/svg" xmlns:xlink="http://www.w3.org/1999/xlink" x="0px" y="0px"
	 viewBox="0 0 612 792" enable-background="new 0 0 612 792" xml:space="preserve">
<g>
	<path fill="#939598" d="M612,130.3c0-2.8-1.4-5.7-4.2-7.1c0,0-9.9-4.2-22.6-4.2c-8.5,0-15.5,1.4-21.2,5.7
		c-4.2,2.8-9.9,2.8-15.5,2.8c-8.5,0-15.5-2.8-21.2-4.2c4.2-2.8,5.7-8.5,5.7-14.1c0-9.9-8.5-19.8-18.4-19.8
		c-9.9,0-18.4,8.5-18.4,19.8c0,7.1,4.2,12.7,9.9,17v176.7h-19.8c-5.7,0-9.9,4.2-9.9,9.9v12.7h-55.1c-4.2-12.7-17-22.6-31.1-22.6
		c-1.4,0-2.8,0-5.7,0l-56.5-63.6c2.8-4.2,4.2-9.9,4.2-15.5c0-9.9-4.2-18.4-11.3-24c1.4-18.4,7.1-26.9,12.7-31.1
		c15.5-14.1,29.7-7.1,29.7-7.1c2.8-14.1-12.7-25.4-32.5-15.5c-18.4,8.5-25.4,31.1-25.4,42.4v4.2c-1.4,0-2.8,0-4.2,0
		c-1.4,0-4.2,0-5.7,0v-4.2c0-11.3-8.5-33.9-25.4-42.4c-19.8-9.9-33.9,1.4-32.5,15.5c0,0,14.1-7.1,29.7,7.1
		c5.7,4.2,11.3,14.1,12.7,32.5c-5.7,5.7-9.9,14.1-9.9,24c0,5.7,1.4,11.3,4.2,15.5l-56.5,63.6c-1.4,0-2.8,0-5.7,0
		c-14.1,0-26.9,9.9-31.1,22.6h-66.4v-11.3c7.1-4.2,11.3-11.3,11.3-19.8v-11.3l0,0v-62.2c5.7-1.4,8.5,0,9.9-1.4
		c4.2,0,7.1-2.8,7.1-7.1c0-4.2-2.8-7.1-7.1-7.1c-11.3,0-29.7,2.8-43.8,14.1c-4.2-4.2-8.5-17-9.9-28.3c4.2-2.8,7.1-8.5,7.1-15.5
		c0-9.9-8.5-19.8-18.4-19.8s-18.4,9.9-18.4,19.8c0,5.7,2.8,11.3,7.1,15.5c0,11.3-5.7,22.6-8.5,28.3c-14.1-11.3-32.5-14.1-43.8-14.1
		c-4.2,0-7.1,4.2-7.1,7.1c0,4.2,2.8,8.5,7.1,8.5c0,0,4.2,0,9.9,1.4v60.8l0,0v11.3c0,8.5,4.2,15.5,9.9,19.8v33.9
		c0,5.7,4.2,9.9,9.9,9.9l0,0v275.6h-9.9c-5.7,0-9.9,4.2-9.9,9.9v49.5c0,5.7,4.2,9.9,9.9,9.9h535.7c5.7,0,9.9-4.2,9.9-9.9v-52.3
		c0-5.7-4.2-9.9-9.9-9.9h-9.9V356.4l0,0c5.7,0,9.9-4.2,9.9-9.9v-35.3c0-5.7-4.2-9.9-9.9-9.9h-28.3V189.6c4.2,1.4,9.9,1.4,15.5,1.4
		c9.9,0,18.4-1.4,25.4-4.2s12.7-4.2,18.4-4.2c9.9,0,15.5,2.8,15.5,2.8c2.8,1.4,5.7,1.4,7.1,0c2.8-1.4,4.2-4.2,4.2-5.7L612,130.3z
		 M506,441.2L506,441.2L506,441.2v-79.2h26.9v270H506V441.2z M486.2,509.1c-43.8-63.6-113.1-101.8-188-101.8
		c-77.7,0-149.8,42.4-193.6,110.2v-63.6l83.4-93.3c5.7,4.2,12.7,7.1,19.8,7.1c14.1,0,26.9-9.9,31.1-22.6h118.7
		c4.2,12.7,17,22.6,31.1,22.6c7.1,0,14.1-2.8,19.8-7.1l77.7,86.2V509.1z M284.1,253.2c4.2,2.8,9.9,4.2,14.1,4.2
		c5.7,0,9.9-1.4,14.1-4.2l52.3,59.4c-2.8,4.2-5.7,8.5-7.1,12.7H238.9c-1.4-4.2-4.2-9.9-7.1-12.7L284.1,253.2z M401.4,335.2
		c0,7.1-5.7,12.7-12.7,12.7c-7.1,0-12.7-5.7-12.7-12.7c0-7.1,5.7-12.7,12.7-12.7C395.8,322.5,401.4,328.2,401.4,335.2z M310.9,223.6
		c0,7.1-5.7,12.7-12.7,12.7c-7.1,0-12.7-5.7-12.7-12.7s5.7-12.7,12.7-12.7C305.3,210.8,310.9,216.5,310.9,223.6z M207.8,321.1
		c7.1,0,12.7,5.7,12.7,12.7s-5.7,12.7-12.7,12.7c-7.1,0-12.7-5.7-12.7-12.7S200.7,321.1,207.8,321.1z M32.5,297.1h77.7
		c-1.4,2.8-2.8,4.2-5.7,5.7l0,0H38.2l0,0C35.3,301.3,33.9,299.9,32.5,297.1z M70.7,244.8l-7.1-17c1.4-2.8,4.2-9.9,7.1-17
		c2.8,8.5,5.7,14.1,7.1,18.4L70.7,244.8z M67.8,260.3h8.5c1.4,1.4,1.4,2.8,1.4,4.2c0,2.8-2.8,5.7-5.7,5.7c-2.8,0-5.7-2.8-5.7-5.7
		C66.4,263.1,66.4,261.7,67.8,260.3z M48.1,322.5h48.1v15.5H48.1V322.5z M110.2,226.4v56.5H80.6c7.1-2.8,11.3-9.9,11.3-18.4
		c0-4.2-1.4-8.5-4.2-12.7C90.5,237.7,100.4,230.6,110.2,226.4z M70.7,172.7c2.8,0,4.2,1.4,4.2,4.2c0,2.8-1.4,4.2-4.2,4.2
		s-4.2-1.4-4.2-4.2S67.8,172.7,70.7,172.7z M55.1,251.8c-2.8,2.8-4.2,7.1-4.2,12.7c0,8.5,4.2,14.1,11.3,18.4H32.5v-56.5
		C42.4,230.6,52.3,237.7,55.1,251.8z M104.6,356.4c5.7,0,9.9-4.2,9.9-9.9v-1.4h60.8l-70.7,79.2L104.6,356.4L104.6,356.4z
		 M84.8,359.3v271.4H57.9V359.3H84.8z M552.6,681.5H36.7v-29.7h515.9V681.5z M154.1,632c12.7-74.9,73.5-130,144.2-130
		s130,55.1,144.2,130H154.1z M462.2,632c-14.1-86.2-83.4-149.8-164-149.8s-149.8,63.6-164,149.8h-29.7v-73.5c0-1.4,1.4-1.4,1.4-2.8
		s1.4-1.4,2.8-4.2c38.2-77.7,110.2-125.8,190.8-125.8c77.7,0,149.8,46.6,188,120.1v84.8h-25.4V632z M486.2,417.2l-65-72.1h53.7v2.8
		c0,5.7,4.2,9.9,9.9,9.9l0,0v59.4H486.2z M542.7,336.6h-48.1v-15.5h48.1V336.6z M562.5,174.1c-5.7,2.8-12.7,4.2-21.2,4.2
		c-7.1,0-12.7-1.4-15.5-1.4v-38.2c11.3,4.2,31.1,5.7,45.2-1.4c2.8-2.8,8.5-4.2,14.1-4.2c5.7,0,9.9,1.4,12.7,1.4v35.3
		C589.4,168.4,575.3,168.4,562.5,174.1z"/>
	<ellipse fill="#939598" cx="298.2" cy="119" rx="26.9" ry="26.9"/>
</g>
</svg>
