<?xml version="1.0" encoding="utf-8"?>
<!-- Generator: Adobe Illustrator 18.1.1, SVG Export Plug-In . SVG Version: 6.00 Build 0)  -->
<svg version="1.1" id="Layer_1" xmlns="http://www.w3.org/2000/svg" xmlns:xlink="http://www.w3.org/1999/xlink" x="0px" y="0px"
	 viewBox="0 0 612 792" enable-background="new 0 0 612 792" xml:space="preserve">
<path fill="#939598" d="M604.2,181.7c-4-7.9-11.9-9.9-17.8-5.9l-49.4,21.7l-31.6-67.2l47.4-21.7c7.9-4,9.9-11.9,7.9-19.8
	c-4-5.9-11.9-9.9-19.8-5.9l-47.4,21.7l-21.7-47.4c-4-7.9-11.9-9.9-17.8-5.9s-9.9,11.9-5.9,17.8l21.7,47.4l-45.4,21.7
	c-9.9-27.7-27.7-53.3-49.4-75.1C335.6,21.7,282.3,0,223,0C104.5,0,7.8,96.8,7.8,215.3c0,102.7,71.1,187.6,165.9,211.3v321.9
	c0,23.7,19.8,43.5,43.5,43.5l0,0c23.7,0,43.5-19.8,43.5-43.5v-320c81-13.8,146.2-73.1,169.9-150.1h2l21.7,47.4
	c2,5.9,7.9,7.9,11.9,7.9c2,0,4,0,5.9-2c5.9-4,9.9-11.9,5.9-17.8l-21.7-47.4l67.2-31.6l21.7,47.4c2,5.9,7.9,7.9,11.9,7.9
	c2,0,4,0,5.9-2c5.9-4,9.9-11.9,5.9-17.8L547,223.2l47.4-21.7C604.2,195.5,606.2,187.6,604.2,181.7z M337.6,229.1l-43.5-94.8l77-35.6
	c21.7,27.7,35.6,61.2,39.5,96.8L337.6,229.1z M276.4,98.8l-31.6-69.1c35.6,4,69.1,17.8,96.8,39.5L276.4,98.8z M353.4,264.7
	l57.3-25.7c-4,31.6-13.8,59.3-31.6,83L353.4,264.7z M440.3,227.1c0-4,0-7.9,0-9.9c0-17.8-2-35.6-5.9-51.4l47.4-23.7l31.6,67.2
	L446.2,241L440.3,227.1z M35.4,215.3c0-96.8,73.1-175.8,165.9-187.6l39.5,84.9l-112.6,55.3c-9.9,4-13.8,15.8-9.9,25.7
	c4,7.9,9.9,11.9,17.8,11.9c2,0,5.9,0,7.9-2l112.6-51.4l43.5,94.8l-112.6,51.4c-9.9,4-13.8,15.8-9.9,25.7c4,7.9,11.9,11.9,19.8,11.9
	c2,0,5.9,0,7.9-2l112.6-51.4l33.6,73.1c-33.6,31.6-79,51.4-128.4,51.4v7.9l0,0v-9.9C120.3,404.9,35.4,320,35.4,215.3z"/>
</svg>
