<?xml version="1.0" encoding="utf-8"?>
<!-- Generator: Adobe Illustrator 18.1.1, SVG Export Plug-In . SVG Version: 6.00 Build 0)  -->
<svg version="1.1" id="Layer_1" xmlns="http://www.w3.org/2000/svg" xmlns:xlink="http://www.w3.org/1999/xlink" x="0px" y="0px"
	 viewBox="0 0 612 792" enable-background="new 0 0 612 792" xml:space="preserve">
<path fill="#939598" d="M610.3,237.8c-3.4-6.9-10.3-8.6-15.5-5.2l-41.3,18.9L526,193.1l41.3-20.6c5.2-3.4,8.6-10.3,5.2-15.5
	c-3.4-6.9-10.3-8.6-15.5-5.2l-41.3,18.9l-18.9-41.3c-3.4-6.9-10.3-8.6-15.5-5.2c-5.2,3.4-8.6,10.3-5.2,15.5l18.9,41.3l-60.2,27.5
	L416,167.4c-3.4-6.9-10.3-8.6-15.5-5.2c-5.2,3.4-8.6,10.3-5.2,15.5l18.9,41.3l-37.8,17.2c0-8.6,0-17.2-1.7-27.5
	c-12-77.4-75.6-141-153-154.7c-67-8.6-134.1,15.5-177.1,67c-36.1,43-51.6,98-43,153c12,75.6,72.2,137.5,147.8,153v273.3
	c0,20.6,17.2,37.8,37.8,37.8l0,0c20.6,0,37.8-17.2,37.8-37.8V425.2c41.3-8.6,79.1-29.2,106.6-61.9c24.1-29.2,39.5-65.3,43-103.1h1.7
	c1.7,0,3.4,0,5.2-1.7l41.3-18.9l27.5,58.4l-41.3,18.9c-5.2,3.4-8.6,10.3-5.2,15.5c1.7,5.2,6.9,6.9,10.3,6.9c1.7,0,3.4,0,5.2-1.7
	l41.3-18.9l18.9,41.3c1.7,5.2,6.9,6.9,10.3,6.9c1.7,0,3.4,0,5.2-1.7c5.2-3.4,8.6-10.3,5.2-15.5l-18.9-41.3l58.4-27.5l18.9,41.3
	c1.7,5.2,6.9,6.9,10.3,6.9c1.7,0,3.4,0,5.2-1.7c5.2-3.4,8.6-10.3,5.2-15.5l-18.9-41.3l41.3-18.9C610.3,249.9,613.7,243,610.3,237.8z
	 M531.2,261.9l-58.4,27.5L445.2,231l58.4-27.5L531.2,261.9z M312.9,347.9c-37.8,44.7-94.6,65.3-153,55
	c-67-10.3-122.1-67-134.1-134.1c-6.9-48.1,5.2-96.3,37.8-132.4C94.6,100.3,141,78,189.1,78c8.6,0,18.9,0,27.5,1.7
	c67,10.3,122.1,67,134.1,134.1C357.6,261.9,343.8,311.8,312.9,347.9z"/>
</svg>
