<?xml version="1.0" encoding="utf-8"?>
<!-- Generator: Adobe Illustrator 18.1.1, SVG Export Plug-In . SVG Version: 6.00 Build 0)  -->
<svg version="1.1" id="Layer_1" xmlns="http://www.w3.org/2000/svg" xmlns:xlink="http://www.w3.org/1999/xlink" x="0px" y="0px"
	 viewBox="0 0 612 792" enable-background="new 0 0 612 792" xml:space="preserve">
<path fill="#939598" d="M413.8,50.2c0-13-5.6-26-14.9-35.3S376.6,0,363.6,0H248.4c-26,0-50.2,22.3-50.2,50.2V106l0,0v490.8h1.9
	c0,1.9,0,1.9,0,3.7l94.8,184.1c1.9,3.7,7.4,7.4,11.2,7.4l0,0c5.6,0,9.3-1.9,11.2-7.4l93-184.1c0-1.9,0-3.7,1.9-3.7l0,0V106l0,0
	L413.8,50.2z M330.2,704.6h-48.3l-50.2-96.7h146.9L330.2,704.6z M332,107.8h26v448.1h-26V107.8z M283.7,107.8v448.1h-26V107.8
	L283.7,107.8z M248.4,26h113.4c5.6,0,13,1.9,16.7,7.4c3.7,3.7,7.4,11.2,7.4,16.7v29.7H222.3V50.2C224.2,37.2,235.4,26,248.4,26z"/>
</svg>
