<?xml version="1.0" encoding="utf-8"?>
<!-- Generator: Adobe Illustrator 18.1.1, SVG Export Plug-In . SVG Version: 6.00 Build 0)  -->
<svg version="1.1" id="Layer_1" xmlns="http://www.w3.org/2000/svg" xmlns:xlink="http://www.w3.org/1999/xlink" x="0px" y="0px"
	 viewBox="0 0 612 792" enable-background="new 0 0 612 792" xml:space="preserve">
<path fill="#939598" d="M612,162.8c0-2.8-1.4-5.7-4.2-7.1c0,0-9.9-4.2-22.6-4.2c-8.5,0-15.5,1.4-21.2,5.7c-4.2,2.8-9.9,2.8-15.5,2.8
	c-8.5,0-15.5-2.8-21.2-4.2c4.2-2.8,5.7-8.5,5.7-14.1c0-9.9-8.5-19.8-18.4-19.8c-9.9,0-18.4,8.5-18.4,19.8c0,7.1,4.2,12.7,9.9,17
	v118.7h-19.8c-5.7,0-9.9,4.2-9.9,9.9v12.7h-55.1c-4.2-12.7-17-22.6-31.1-22.6c-1.4,0-2.8,0-5.7,0l-56.5-63.6
	c2.8-4.2,4.2-9.9,4.2-15.5c0-9.9-4.2-18.4-11.3-24c1.4-18.4,7.1-26.9,12.7-31.1c15.5-14.1,29.7-7.1,29.7-7.1
	c2.8-14.1-12.7-25.4-32.5-15.5c-18.4,8.5-25.4,31.1-25.4,42.4v4.2c-1.4,0-2.8,0-4.2,0c-1.4,0-4.2,0-5.7,0v-4.2
	c0-11.3-8.5-33.9-25.4-42.4c-19.8-9.9-33.9,1.4-32.5,15.5c0,0,14.1-7.1,29.7,7.1c5.7,4.2,11.3,14.1,12.7,32.5
	c-5.7,5.7-9.9,14.1-9.9,24c0,5.7,1.4,11.3,4.2,15.5l-56.5,63.6c-1.4,0-2.8,0-5.7,0c-14.1,0-26.9,9.9-31.1,22.6h-66.4V290
	c7.1-4.2,11.3-11.3,11.3-19.8v-12.7l0,0v-60.8c5.7-1.4,8.5,0,9.9-1.4c4.2,0,7.1-2.8,7.1-7.1s-2.8-7.1-7.1-7.1
	c-11.3,0-29.7,2.8-43.8,14.1c-4.2-4.2-8.5-17-9.9-28.3c4.2-2.8,7.1-8.5,7.1-15.5c0-9.9-8.5-19.8-18.4-19.8s-18.4,9.9-18.4,19.8
	c0,5.7,2.8,11.3,7.1,15.5c0,11.3-5.7,22.6-8.5,28.3C36.7,184,18.4,181.2,7.1,181.2c-4.2,0-7.1,4.2-7.1,8.5s2.8,7.1,7.1,7.1
	c0,0,4.2,0,9.9,1.4v59.4l0,0v11.3c0,8.5,4.2,15.5,9.9,19.8v33.9c0,5.7,4.2,9.9,9.9,9.9l0,0V608h-9.9c-5.7,0-9.9,4.2-9.9,9.9v49.5
	c0,5.7,4.2,9.9,9.9,9.9h535.7c5.7,0,9.9-4.2,9.9-9.9v-49.5c0-5.7-4.2-9.9-9.9-9.9h-9.9V331l0,0c5.7,0,9.9-4.2,9.9-9.9v-35.3
	c0-5.7-4.2-9.9-9.9-9.9h-28.3v-53.7c4.2,1.4,9.9,1.4,15.5,1.4c9.9,0,18.4-1.4,25.4-4.2c8.5-2.8,14.1-4.2,21.2-4.2
	c9.9,0,15.5,2.8,15.5,2.8c2.8,1.4,5.7,1.4,7.1,0c2.8-1.4,4.2-4.2,4.2-5.7L612,162.8z M506,415.8L506,415.8L506,415.8v-79.2h26.9v270
	H506V415.8z M486.2,483.6c-43.8-63.6-113.1-101.8-188-101.8c-77.7,0-149.8,42.4-193.6,111.7v-63.6l83.4-93.3
	c5.7,4.2,12.7,7.1,19.8,7.1c14.1,0,26.9-9.9,31.1-22.6h118.7c4.2,12.7,17,22.6,31.1,22.6c7.1,0,14.1-2.8,19.8-7.1l77.7,86.2V483.6z
	 M284.1,227.8c4.2,2.8,9.9,4.2,14.1,4.2c5.7,0,9.9-1.4,14.1-4.2l52.3,59.4c-2.8,4.2-5.7,8.5-7.1,12.7H238.9
	c-1.4-4.2-4.2-9.9-7.1-12.7L284.1,227.8z M401.4,309.8c0,7.1-5.7,12.7-12.7,12.7c-7.1,0-12.7-5.7-12.7-12.7s5.7-12.7,12.7-12.7
	C395.8,297.1,401.4,302.7,401.4,309.8z M310.9,198.1c0,7.1-5.7,12.7-12.7,12.7c-7.1,0-12.7-5.7-12.7-12.7c0-7.1,5.7-12.7,12.7-12.7
	C305.3,185.4,310.9,191.1,310.9,198.1z M207.8,297.1c7.1,0,12.7,5.7,12.7,12.7s-5.7,12.7-12.7,12.7c-7.1,0-12.7-5.7-12.7-12.7
	S200.7,297.1,207.8,297.1z M32.5,271.6h77.7c-1.4,2.8-2.8,4.2-5.7,5.7l0,0H38.2l0,0C35.3,275.9,33.9,274.4,32.5,271.6z M70.7,219.3
	l-7.1-15.5c1.4-4.2,4.2-11.3,7.1-18.4c2.8,8.5,5.7,14.1,7.1,18.4L70.7,219.3z M67.8,234.9h8.5c1.4,1.4,1.4,2.8,1.4,4.2
	c0,2.8-2.8,5.7-5.7,5.7c-2.8,0-5.7-2.8-5.7-5.7C66.4,237.7,66.4,236.3,67.8,234.9z M48.1,297.1h48.1v15.5H48.1V297.1z M110.2,201
	v56.5H80.6c7.1-2.8,11.3-9.9,11.3-18.4c0-4.2-1.4-8.5-4.2-12.7C90.5,212.3,100.4,205.2,110.2,201z M70.7,147.2
	c2.8,0,4.2,1.4,4.2,4.2c0,2.8-1.4,4.2-4.2,4.2s-4.2-1.4-4.2-4.2C66.4,148.7,67.8,147.2,70.7,147.2z M55.1,226.4
	c-2.8,4.2-4.2,8.5-4.2,12.7c0,8.5,4.2,14.1,11.3,18.4H32.5V201C42.4,205.2,52.3,212.3,55.1,226.4z M104.6,331c5.7,0,9.9-4.2,9.9-9.9
	v-2.8h60.8l-70.7,79.2L104.6,331L104.6,331z M84.8,333.8v271.4H57.9V333.8H84.8z M552.6,656.1H36.7v-29.7h515.9V656.1z M154.1,606.6
	c12.7-74.9,73.5-130,144.2-130s130,55.1,144.2,130H154.1z M462.2,606.6c-14.1-86.2-83.4-149.8-164-149.8s-149.8,63.6-164,149.8
	h-29.7v-73.5c0-1.4,1.4-1.4,1.4-2.8s1.4-1.4,2.8-4.2c38.2-77.7,110.2-125.8,190.8-125.8c77.7,0,149.8,46.6,188,120.1v84.8h-25.4
	V606.6z M486.2,391.8l-65-72.1h53.7v2.8c0,5.7,4.2,9.9,9.9,9.9l0,0v59.4H486.2z M542.7,311.2h-48.1v-15.5h48.1V311.2z M562.5,205.2
	c-5.7,2.8-12.7,4.2-21.2,4.2c-7.1,0-12.7-1.4-15.5-1.4v-38.2c11.3,4.2,31.1,5.7,45.2-1.4c4.2-2.8,9.9-2.8,15.5-2.8
	c5.7,0,9.9,1.4,12.7,1.4v35.3C589.4,199.5,575.3,201,562.5,205.2z"/>
</svg>
