<?xml version="1.0" encoding="utf-8"?>
<!-- Generator: Adobe Illustrator 18.1.1, SVG Export Plug-In . SVG Version: 6.00 Build 0)  -->
<svg version="1.1" id="Layer_1" xmlns="http://www.w3.org/2000/svg" xmlns:xlink="http://www.w3.org/1999/xlink" x="0px" y="0px"
	 viewBox="0 0 612 792" enable-background="new 0 0 612 792" xml:space="preserve">
<g>
	<path fill="#939598" d="M447.6,569.7c-31.5,0-57.2,25.7-57.2,58.6c0,32.9,25.7,58.6,57.2,58.6s57.2-25.7,57.2-58.6
		C504.8,595.5,480.4,569.7,447.6,569.7z M447.6,667c-21.4,0-37.2-17.2-37.2-38.6s17.2-38.6,37.2-38.6c21.4,0,37.2,17.2,37.2,38.6
		S469,667,447.6,667z"/>
	<path fill="#939598" d="M167.3,569.7c-31.5,0-57.2,25.7-57.2,58.6c0,32.9,25.7,58.6,57.2,58.6s57.2-25.7,57.2-58.6
		C224.5,595.5,200.2,569.7,167.3,569.7z M167.3,667c-21.4,0-37.2-17.2-37.2-38.6s17.2-38.6,37.2-38.6s37.2,17.2,37.2,38.6
		S188.7,667,167.3,667z"/>
	<path fill="#939598" d="M307.4,222.3c31.5,0,57.2-25.7,57.2-58.6S340.3,105,307.4,105s-57.2,25.7-57.2,58.6S276,222.3,307.4,222.3z
		 M307.4,125c21.4,0,37.2,17.2,37.2,38.6s-15.7,38.6-37.2,38.6c-21.4,0-37.2-17.2-37.2-38.6S287.4,125,307.4,125z"/>
	<path fill="#939598" d="M553.4,302.3c-31.5,0-57.2,25.7-57.2,58.6s25.7,58.6,57.2,58.6s57.2-25.7,57.2-58.6
		S586.3,302.3,553.4,302.3z M553.4,399.6c-21.4,0-37.2-17.2-37.2-38.6c0-21.4,17.2-38.6,37.2-38.6c21.4,0,37.2,17.2,37.2,38.6
		C592,382.4,574.8,399.6,553.4,399.6z"/>
	<path fill="#939598" d="M115.8,361c0-32.9-25.7-58.6-57.2-58.6S1.4,328.1,1.4,361s24.3,58.6,55.8,58.6S115.8,393.9,115.8,361z
		 M20,361c0-21.4,17.2-38.6,37.2-38.6s37.2,17.2,37.2,38.6c0,21.4-17.2,38.6-37.2,38.6S20,382.4,20,361z"/>
	<path fill="#939598" d="M357.5,351c0-28.6-22.9-52.9-51.5-52.9s-51.5,22.9-51.5,52.9c0,18.6,10,35.7,24.3,44.3
		c-14.3,5.7-24.3,18.6-24.3,35.7V504h103V431c0-15.7-10-30-24.3-35.7C347.5,386.7,357.5,369.5,357.5,351z"/>
	<path fill="#939598" d="M396.1,182.2c7.1,2.9,14.3,5.7,21.4,10c5.7,2.9,11.4,0,14.3-4.3c2.9-5.7,0-11.4-4.3-14.3
		c-7.1-4.3-15.7-7.1-24.3-11.4h-1.4c-5.7-1.4-10,1.4-12.9,5.7C387.5,173.6,390.4,180.8,396.1,182.2z"/>
	<path fill="#939598" d="M471.9,229.4c4.3,4.3,11.4,4.3,14.3,0c4.3-4.3,4.3-11.4,0-14.3c-5.7-5.7-12.9-11.4-20-17.2
		c-1.4-1.4-2.9-1.4-2.9-1.4c-4.3-1.4-8.6,0-11.4,4.3c-2.9,4.3-2.9,11.4,1.4,14.3C459,219.4,464.7,223.7,471.9,229.4z"/>
	<path fill="#939598" d="M513.3,279.5c2.9,4.3,10,5.7,14.3,2.9c4.3-2.9,5.7-10,2.9-14.3c-4.3-7.1-10-14.3-14.3-21.4
		c-1.4-1.4-2.9-2.9-5.7-4.3c-2.9-1.4-7.1,0-8.6,1.4c-4.3,2.9-5.7,10-1.4,14.3C503.3,266.6,509,272.3,513.3,279.5z"/>
	<path fill="#939598" d="M213.1,162.2L213.1,162.2c-8.6,2.9-17.2,7.1-24.3,11.4c-5.7,2.9-7.1,8.6-4.3,14.3c2.9,5.7,8.6,7.1,14.3,4.3
		c7.1-4.3,14.3-7.1,21.4-10c5.7-1.4,8.6-8.6,5.7-14.3C223.1,163.6,218.8,160.8,213.1,162.2z"/>
	<path fill="#939598" d="M144.4,229.4c5.7-5.7,12.9-10,18.6-15.7c4.3-2.9,5.7-10,1.4-14.3c-2.9-2.9-7.1-4.3-11.4-4.3
		c-1.4,0-2.9,1.4-2.9,1.4c-7.1,5.7-14.3,11.4-20,17.2c-4.3,4.3-4.3,10,0,14.3C133,233.7,140.1,233.7,144.4,229.4z"/>
	<path fill="#939598" d="M88.7,282.3c4.3,2.9,11.4,1.4,14.3-2.9c4.3-7.1,8.6-12.9,14.3-20c2.9-4.3,2.9-11.4-1.4-14.3
		c-2.9-1.4-7.1-2.9-10-1.4c-1.4,0-4.3,1.4-5.7,2.9c-5.7,7.1-10,14.3-14.3,21.4C82.9,273.7,84.4,279.5,88.7,282.3z"/>
	<path fill="#939598" d="M559.1,453.9c-1.4,0-4.3,0-5.7,0c-2.9,1.4-5.7,4.3-5.7,7.1c-1.4,7.1-2.9,15.7-5.7,22.9
		c-1.4,5.7,1.4,11.4,7.1,12.9c5.7,1.4,11.4-1.4,12.9-7.1c2.9-8.6,4.3-17.2,5.7-25.7C567.7,461.1,564.8,455.3,559.1,453.9z"/>
	<path fill="#939598" d="M540.5,519.7c-2.9-1.4-5.7-1.4-8.6,0c-2.9,1.4-4.3,2.9-5.7,5.7c-2.9,7.1-7.1,14.3-11.4,21.4
		c-2.9,4.3-1.4,11.4,4.3,14.3c4.3,2.9,11.4,1.4,14.3-4.3c4.3-7.1,8.6-15.7,12.9-22.9C549.1,528.3,546.2,522.5,540.5,519.7z"/>
	<path fill="#939598" d="M74.4,486.8c-2.9-7.1-4.3-15.7-5.7-22.9c0-4.3-2.9-7.1-5.7-7.1c-1.4-1.4-4.3-1.4-5.7,0
		c-5.7,1.4-10,5.7-8.6,11.4c1.4,8.6,2.9,17.2,5.7,25.7c1.4,5.7,7.1,8.6,12.9,7.1C72.9,498.2,75.8,492.5,74.4,486.8z"/>
	<path fill="#939598" d="M88.7,525.4c-1.4-2.9-2.9-4.3-5.7-5.7c-2.9-1.4-5.7-1.4-8.6,0c-5.7,2.9-7.1,8.6-5.7,14.3
		c4.3,8.6,7.1,15.7,12.9,22.9c2.9,4.3,10,7.1,14.3,4.3c4.3-2.9,7.1-10,4.3-14.3C95.8,539.7,92.9,532.6,88.7,525.4z"/>
	<path fill="#939598" d="M290.3,664.1c-8.6,0-15.7-1.4-24.3-2.9c-4.3,0-7.1,1.4-10,2.9c-1.4,1.4-2.9,2.9-2.9,5.7
		c-1.4,5.7,2.9,11.4,8.6,11.4c8.6,1.4,17.2,2.9,25.7,2.9c5.7,0,11.4-4.3,11.4-10C300.3,668.4,296,664.1,290.3,664.1z"/>
	<path fill="#939598" d="M354.6,659.8c-7.1,1.4-15.7,2.9-24.3,4.3c-2.9,0-5.7,1.4-7.1,2.9c-1.4,1.4-2.9,5.7-2.9,8.6
		c0,5.7,5.7,10,11.4,10c8.6-1.4,17.2-2.9,25.7-4.3c5.7-1.4,10-7.1,8.6-12.9C366.1,661.2,360.3,658.4,354.6,659.8z"/>
</g>
</svg>
