<?xml version="1.0" encoding="utf-8"?>
<!-- Generator: Adobe Illustrator 18.1.1, SVG Export Plug-In . SVG Version: 6.00 Build 0)  -->
<svg version="1.1" id="Layer_1" xmlns="http://www.w3.org/2000/svg" xmlns:xlink="http://www.w3.org/1999/xlink" x="0px" y="0px"
	 viewBox="0 194.9 613 402.2" enable-background="new 0 194.9 613 402.2" xml:space="preserve">
<g>
	<polygon fill="#939598" points="0,503.3 24.7,568.7 65.4,561.3 33.3,482.4 	"/>
	<path fill="#939598" d="M428.2,268.9c-4.9-12.3-19.7-17.3-30.8-9.9L55.5,470l34.5,87.6l67.9-11.1l9.9,40.7
		c1.2,6.2,6.2,9.9,12.3,9.9c1.2,0,1.2,0,2.5,0l109.8-18.5c3.7,0,6.2-2.5,8.6-4.9s2.5-6.2,1.2-9.9l-9.9-40.7L484.9,491
		c12.3-2.5,21-16,16-28.4L428.2,268.9z M188.8,571.2l-6.2-27.1l86.4-13.6l6.2,27.1L188.8,571.2z"/>
	<path fill="#939598" d="M534.3,246.7c1.2,0,2.5,0,3.7-1.2l19.7-9.9c4.9-2.5,6.2-7.4,3.7-12.3s-7.4-6.2-12.3-3.7l-18.5,11.1
		c-4.9,2.5-6.2,7.4-3.7,12.3C528.1,245.5,530.6,246.7,534.3,246.7z"/>
	<path fill="#939598" d="M612,199.8c-2.5-4.9-7.4-6.2-12.3-3.7l-17.3,8.6c-4.9,2.5-6.2,7.4-3.7,12.3c1.2,2.5,4.9,3.7,7.4,3.7
		c1.2,0,2.5,0,3.7-1.2l17.3-8.6C612,209.7,614.5,204.8,612,199.8z"/>
	<path fill="#939598" d="M482.4,272.6c1.2,0,2.5,0,3.7-1.2l19.7-9.9c4.9-2.5,6.2-7.4,3.7-12.3s-7.4-6.2-12.3-3.7l-19.7,11.1
		c-4.9,2.5-6.2,7.4-3.7,12.3C475,271.4,478.7,272.6,482.4,272.6z"/>
	<path fill="#939598" d="M546.6,352.8l-19.7,7.4c-4.9,1.2-7.4,7.4-4.9,11.1c1.2,3.7,4.9,6.2,8.6,6.2c1.2,0,2.5,0,3.7,0l19.7-7.4
		c4.9-1.2,7.4-7.4,4.9-11.1S551.5,351.6,546.6,352.8z"/>
	<path fill="#939598" d="M578.7,276.3l-19.7,8.6c-4.9,2.5-6.2,7.4-4.9,12.3c1.2,3.7,4.9,4.9,8.6,4.9c1.2,0,2.5,0,3.7-1.2l19.7-8.6
		c4.9-2.5,6.2-7.4,4.9-12.3C588.6,276.3,582.4,273.8,578.7,276.3z"/>
	<path fill="#939598" d="M536.7,303.5c-2.5-4.9-7.4-6.2-12.3-4.9l-19.7,8.6c-4.9,2.5-6.2,7.4-4.9,12.3c1.2,3.7,4.9,4.9,8.6,4.9
		c1.2,0,2.5,0,3.7-1.2l19.7-8.6C536.7,313.3,538,308.4,536.7,303.5z"/>
</g>
</svg>
