<svg id="Layer_1" data-name="Layer 1" xmlns="http://www.w3.org/2000/svg" viewBox="0 0 450 100"><title>superdfan-sprite</title><polygon points="352.368 82.974 354.184 87.808 357.181 87.303 354.875 81.431 352.368 82.974"/><path d="M384.119,65.6a1.544,1.544,0,0,0-2.255-.772L356.459,80.456l2.566,6.535,5-.844,0.731,3.065a0.917,0.917,0,0,0,1.037.691l8.181-1.328a0.916,0.916,0,0,0,.744-1.116l-0.715-2.994,14.328-2.418a1.544,1.544,0,0,0,1.189-2.066ZM366.342,87.96l-0.474-1.987,6.368-1.034,0.475,1.987Z"/><path d="M392,63.967A0.666,0.666,0,0,0,392.3,63.9l1.428-.709a0.664,0.664,0,0,0-.59-1.191l-1.428.709A0.664,0.664,0,0,0,392,63.967Z"/><path d="M397.744,60.455a0.664,0.664,0,0,0-.89-0.3l-1.258.624a0.664,0.664,0,0,0,.59,1.191l1.258-.624A0.665,0.665,0,0,0,397.744,60.455Z"/><path d="M388.116,65.9a0.666,0.666,0,0,0,.294-0.069l1.428-.709a0.664,0.664,0,0,0-.59-1.191l-1.428.709A0.664,0.664,0,0,0,388.116,65.9Z"/><path d="M392.964,71.81l-1.487.575a0.664,0.664,0,0,0,.479,1.239l1.487-.575A0.664,0.664,0,0,0,392.964,71.81Z"/><path d="M395.26,66.092l-1.459.644a0.664,0.664,0,0,0,.536,1.216l1.459-.644A0.664,0.664,0,0,0,395.26,66.092Z"/><path d="M392.165,68.185a0.665,0.665,0,0,0-.876-0.34l-1.459.644a0.664,0.664,0,0,0,.536,1.216l1.459-.644A0.665,0.665,0,0,0,392.165,68.185Z"/><polygon points="302.368 82.974 304.184 87.808 307.181 87.303 304.875 81.431 302.368 82.974"/><path d="M334.119,65.6a1.544,1.544,0,0,0-2.255-.772L306.459,80.456l2.566,6.535,5-.844,0.731,3.065a0.917,0.917,0,0,0,1.037.691l8.181-1.328a0.916,0.916,0,0,0,.744-1.116l-0.715-2.994,14.328-2.418a1.544,1.544,0,0,0,1.189-2.066ZM316.342,87.96l-0.474-1.987,6.368-1.034,0.475,1.987Z"/><path d="M342,63.967A0.666,0.666,0,0,0,342.3,63.9l1.428-.709a0.664,0.664,0,0,0-.59-1.191l-1.428.709A0.664,0.664,0,0,0,342,63.967Z"/><path d="M347.744,60.455a0.664,0.664,0,0,0-.89-0.3l-1.258.624a0.664,0.664,0,0,0,.59,1.191l1.258-.624A0.665,0.665,0,0,0,347.744,60.455Z"/><path d="M338.116,65.9a0.666,0.666,0,0,0,.294-0.069l1.428-.709a0.664,0.664,0,0,0-.59-1.191l-1.428.709A0.664,0.664,0,0,0,338.116,65.9Z"/><path d="M342.964,71.81l-1.487.575a0.664,0.664,0,0,0,.479,1.239l1.487-.575A0.664,0.664,0,0,0,342.964,71.81Z"/><path d="M345.26,66.092l-1.459.644a0.664,0.664,0,0,0,.536,1.216l1.459-.644A0.664,0.664,0,0,0,345.26,66.092Z"/><path d="M342.165,68.185a0.665,0.665,0,0,0-.876-0.34l-1.459.644a0.664,0.664,0,0,0,.536,1.216l1.459-.644A0.665,0.665,0,0,0,342.165,68.185Z"/><polygon points="252.368 82.974 254.184 87.808 257.181 87.303 254.875 81.431 252.368 82.974"/><path d="M284.119,65.6a1.544,1.544,0,0,0-2.255-.772L256.459,80.456l2.566,6.535,5-.844,0.731,3.065a0.917,0.917,0,0,0,1.037.691l8.181-1.328a0.916,0.916,0,0,0,.744-1.116l-0.715-2.994,14.328-2.418a1.544,1.544,0,0,0,1.189-2.066ZM266.342,87.96l-0.474-1.987,6.368-1.034,0.475,1.987Z"/><path d="M292,63.967A0.666,0.666,0,0,0,292.3,63.9l1.428-.709a0.664,0.664,0,0,0-.59-1.191l-1.428.709A0.664,0.664,0,0,0,292,63.967Z"/><path d="M297.744,60.455a0.664,0.664,0,0,0-.89-0.3l-1.258.624a0.664,0.664,0,0,0,.59,1.191l1.258-.624A0.665,0.665,0,0,0,297.744,60.455Z"/><path d="M288.116,65.9a0.666,0.666,0,0,0,.294-0.069l1.428-.709a0.664,0.664,0,0,0-.59-1.191l-1.428.709A0.664,0.664,0,0,0,288.116,65.9Z"/><path d="M295.26,66.092l-1.459.644a0.664,0.664,0,0,0,.536,1.216l1.459-.644A0.664,0.664,0,0,0,295.26,66.092Z"/><path d="M292.165,68.185a0.665,0.665,0,0,0-.876-0.34l-1.459.644a0.664,0.664,0,0,0,.536,1.216l1.459-.644A0.665,0.665,0,0,0,292.165,68.185Z"/><polygon points="202.368 82.974 204.184 87.808 207.181 87.303 204.875 81.431 202.368 82.974"/><path d="M234.119,65.6a1.544,1.544,0,0,0-2.255-.772L206.459,80.456l2.566,6.535,5-.844,0.731,3.065a0.917,0.917,0,0,0,1.037.691l8.181-1.328a0.916,0.916,0,0,0,.744-1.116l-0.715-2.994,14.328-2.418a1.544,1.544,0,0,0,1.189-2.066ZM216.342,87.96l-0.474-1.987,6.368-1.034,0.475,1.987Z"/><path d="M242,63.967A0.666,0.666,0,0,0,242.3,63.9l1.428-.709a0.664,0.664,0,0,0-.59-1.191l-1.428.709A0.664,0.664,0,0,0,242,63.967Z"/><path d="M247.744,60.455a0.664,0.664,0,0,0-.89-0.3l-1.258.624a0.664,0.664,0,0,0,.59,1.191l1.258-.624A0.665,0.665,0,0,0,247.744,60.455Z"/><path d="M238.116,65.9a0.666,0.666,0,0,0,.294-0.069l1.428-.709a0.664,0.664,0,0,0-.59-1.191l-1.428.709A0.664,0.664,0,0,0,238.116,65.9Z"/><path d="M242.165,68.185a0.665,0.665,0,0,0-.876-0.34l-1.459.644a0.664,0.664,0,0,0,.536,1.216l1.459-.644A0.665,0.665,0,0,0,242.165,68.185Z"/><polygon points="152.368 82.974 154.184 87.808 157.181 87.303 154.875 81.431 152.368 82.974"/><path d="M184.119,65.6a1.544,1.544,0,0,0-2.255-.772L156.459,80.456l2.566,6.535,5-.844,0.731,3.065a0.917,0.917,0,0,0,1.037.691l8.181-1.328a0.916,0.916,0,0,0,.744-1.116l-0.715-2.994,14.328-2.418a1.544,1.544,0,0,0,1.189-2.066ZM166.342,87.96l-0.474-1.987,6.368-1.034,0.475,1.987Z"/><path d="M192,63.967A0.666,0.666,0,0,0,192.3,63.9l1.428-.709a0.664,0.664,0,0,0-.59-1.191l-1.428.709A0.664,0.664,0,0,0,192,63.967Z"/><path d="M197.744,60.455a0.664,0.664,0,0,0-.89-0.3l-1.258.624a0.664,0.664,0,0,0,.59,1.191l1.258-.624A0.665,0.665,0,0,0,197.744,60.455Z"/><path d="M188.116,65.9a0.666,0.666,0,0,0,.294-0.069l1.428-.709a0.664,0.664,0,0,0-.59-1.191l-1.428.709A0.664,0.664,0,0,0,188.116,65.9Z"/><polygon points="102.368 82.974 104.184 87.808 107.181 87.303 104.875 81.431 102.368 82.974"/><path d="M134.119,65.6a1.544,1.544,0,0,0-2.255-.772L106.459,80.456l2.566,6.535,5-.844,0.731,3.065a0.917,0.917,0,0,0,1.037.691l8.181-1.328a0.916,0.916,0,0,0,.744-1.116l-0.715-2.994,14.328-2.418a1.544,1.544,0,0,0,1.189-2.066ZM116.342,87.96l-0.474-1.987,6.368-1.034,0.475,1.987Z"/><path d="M142,63.967A0.666,0.666,0,0,0,142.3,63.9l1.428-.709a0.664,0.664,0,0,0-.59-1.191l-1.428.709A0.664,0.664,0,0,0,142,63.967Z"/><path d="M138.116,65.9a0.666,0.666,0,0,0,.294-0.069l1.428-.709a0.664,0.664,0,0,0-.59-1.191l-1.428.709A0.664,0.664,0,0,0,138.116,65.9Z"/><polygon points="52.368 82.974 54.184 87.808 57.181 87.303 54.875 81.431 52.368 82.974"/><path d="M84.119,65.6a1.544,1.544,0,0,0-2.255-.772L56.459,80.456l2.566,6.535,5-.844,0.731,3.065A0.917,0.917,0,0,0,65.8,89.9l8.181-1.328a0.916,0.916,0,0,0,.744-1.116l-0.715-2.994,14.328-2.418a1.544,1.544,0,0,0,1.189-2.066ZM66.342,87.96l-0.474-1.987,6.368-1.034,0.475,1.987Z"/><path d="M88.116,65.9a0.666,0.666,0,0,0,.294-0.069l1.428-.709a0.664,0.664,0,1,0-.59-1.191l-1.428.709A0.664,0.664,0,0,0,88.116,65.9Z"/><polygon points="2.368 82.974 4.184 87.808 7.181 87.303 4.875 81.431 2.368 82.974"/><path d="M34.119,65.6a1.544,1.544,0,0,0-2.255-.772L6.459,80.456l2.566,6.535,5-.844,0.731,3.065A0.917,0.917,0,0,0,15.8,89.9l8.181-1.328a0.916,0.916,0,0,0,.744-1.116l-0.715-2.994,14.328-2.418a1.544,1.544,0,0,0,1.189-2.066ZM16.342,87.96l-0.474-1.987,6.368-1.034,0.475,1.987Z"/><polygon points="402.368 32.974 404.184 37.808 407.181 37.303 404.875 31.431 402.368 32.974"/><path d="M434.119,15.6a1.544,1.544,0,0,0-2.255-.772L406.459,30.456l2.566,6.535,5-.844,0.731,3.065a0.917,0.917,0,0,0,1.037.691l8.181-1.328a0.916,0.916,0,0,0,.744-1.116l-0.715-2.994,14.328-2.418a1.544,1.544,0,0,0,1.189-2.066ZM416.342,37.96l-0.474-1.987,6.368-1.034,0.475,1.987Z"/><polygon points="352.297 32.651 354.029 37.516 357.034 37.063 354.831 31.152 352.297 32.651"/><path d="M384.347,15.831a1.544,1.544,0,0,0-2.241-.811L356.432,30.205l2.452,6.579,5.017-.757,0.678,3.077a0.917,0.917,0,0,0,1.025.709l8.2-1.185a0.916,0.916,0,0,0,.763-1.1l-0.663-3.007,14.368-2.167a1.544,1.544,0,0,0,1.224-2.045ZM366.183,37.88l-0.439-2,6.385-.923,0.44,2Z"/><polygon points="302.232 32.326 303.879 37.222 306.891 36.821 304.792 30.872 302.232 32.326"/><path d="M334.57,16.068a1.544,1.544,0,0,0-2.226-.85L306.409,29.954l2.336,6.621,5.029-.669,0.624,3.088a0.917,0.917,0,0,0,1.012.727l8.222-1.042a0.916,0.916,0,0,0,.782-1.09l-0.61-3.018,14.4-1.916a1.544,1.544,0,0,0,1.26-2.023ZM316.024,37.8l-0.4-2,6.4-.811,0.405,2Z"/><polygon points="252.173 32.001 253.734 36.924 256.753 36.576 254.758 30.592 252.173 32.001"/><path d="M284.79,16.31a1.544,1.544,0,0,0-2.211-.889L256.39,29.7l2.22,6.661,5.04-.581,0.57,3.1a0.917,0.917,0,0,0,1,.744l8.239-.9a0.916,0.916,0,0,0,.8-1.076L273.7,34.622l14.435-1.664a1.544,1.544,0,0,0,1.3-2Zm-18.923,21.4L265.5,35.7l6.414-.7,0.37,2.009Z"/><polygon points="202.12 31.675 203.594 36.625 206.619 36.329 204.729 30.311 202.12 31.675"/><path d="M235.006,16.555a1.544,1.544,0,0,0-2.2-.928L206.376,29.449l2.1,6.7,5.05-.493,0.516,3.108a0.917,0.917,0,0,0,.986.762l8.254-.754a0.916,0.916,0,0,0,.82-1.062l-0.5-3.037,14.462-1.412a1.544,1.544,0,0,0,1.33-1.978ZM215.712,37.624l-0.334-2.015,6.425-.588,0.335,2.015Z"/><polygon points="152.072 31.348 153.46 36.323 156.489 36.08 154.704 30.03 152.072 31.348"/><path d="M185.217,16.8a1.544,1.544,0,0,0-2.179-.966L156.367,29.2l1.987,6.734,5.058-.4,0.461,3.117a0.917,0.917,0,0,0,.973.779l8.266-.61a0.916,0.916,0,0,0,.838-1.047L173.5,34.718l14.485-1.16a1.544,1.544,0,0,0,1.364-1.954ZM165.559,37.533l-0.3-2.021,6.434-.475,0.3,2.021Z"/><polygon points="102.03 31.02 103.331 36.018 106.364 35.829 104.685 29.748 102.03 31.02"/><path d="M135.423,17.057a1.544,1.544,0,0,0-2.162-1l-26.9,12.891,1.869,6.768,5.064-.317L113.7,38.52a0.917,0.917,0,0,0,.959.8l8.275-.466a0.916,0.916,0,0,0,.856-1.033l-0.4-3.053,14.5-.907a1.544,1.544,0,0,0,1.4-1.93ZM115.407,37.44l-0.263-2.026,6.441-.363,0.264,2.026Z"/><polygon points="51.963 30.363 53.089 35.403 56.127 35.319 54.661 29.184 51.963 30.363"/><path d="M85.823,17.574A1.544,1.544,0,0,0,83.7,16.5L56.365,28.439,58,35.268l5.072-.14,0.3,3.137a0.917,0.917,0,0,0,.931.829l8.286-.177a0.916,0.916,0,0,0,.892-1L73.183,34.85l14.525-.4a1.544,1.544,0,0,0,1.465-1.88ZM65.108,37.245l-0.193-2.034,6.45-.138,0.193,2.034Z"/><polygon points="1.898 29.042 2.67 34.149 5.706 34.277 4.672 28.054 1.898 29.042"/><path d="M36.568,18.646a1.544,1.544,0,0,0-2.045-1.224L6.423,27.431l1.151,6.926,5.069,0.214,0.078,3.15a0.917,0.917,0,0,0,.871.891l8.278,0.4a0.916,0.916,0,0,0,.96-0.937L22.753,35l14.518,0.614a1.544,1.544,0,0,0,1.592-1.773ZM14.531,36.825l-0.05-2.042L20.924,35.1l0.051,2.042Z"/></svg>