<?xml version="1.0" encoding="utf-8"?>
  <!-- Generator: Adobe Illustrator 19.0.0, SVG Export Plug-In . SVG Version: 6.00 Build 0)  -->
  <svg version="1.1" id="Layer_1" xmlns="http://www.w3.org/2000/svg" xmlns:xlink="http://www.w3.org/1999/xlink" x="0px" y="0px" viewBox="0 0 900 200" enable-background="new 0 0 900 200" xml:space="preserve">
    <g fill="grey">
      <path d="M23.8,163.1c-1.3-3.8-2.4-7-3.7-10.7c18.6-10.6,36.9-21.1,56.2-32.1c3.9,11.4,7.5,22.1,11.6,34
		C66.3,157.3,45.4,160.1,23.8,163.1z" />
      <path d="M86.4,57.6c-21.9,0-42.9,0-64.1,0c-0.8-4.8-1.3-8.2-2-12.1c20.1-7.2,39.9-14.3,60.8-21.8C83,35.7,84.7,46.9,86.4,57.6z" />
      <path d="M823.9,63c-1.3-3.5-2.5-6.7-3.9-10.6c18.6-10.6,36.9-21.1,56.3-32.1c3.9,11.5,7.5,22.2,11.6,34
		C866.2,57.3,845.3,60.1,823.9,63z" />
      <path d="M377.5,21.1c3.4,11.7,6.6,22.5,10,34.4c-21.7,2-42.8,3.9-64.2,5.9c-1.1-3.7-2.2-7-3.3-10.8C339,40.9,357.8,31.3,377.5,21.1
		z" />
      <path d="M222.8,59.9c-1-3.8-1.8-7.1-2.7-10.9c19.4-8.9,38.5-17.7,58.7-27c2.9,11.7,5.6,22.7,8.5,34.8
		C265.6,57.8,244.6,58.8,222.8,59.9z" />
      <path d="M776.3,20.4c3.9,11.5,7.5,22.2,11.5,33.9c-21.6,2.9-42.6,5.8-63.9,8.7c-1.3-3.6-2.4-6.8-3.8-10.6
		C738.6,41.8,756.9,31.4,776.3,20.4z" />
      <path d="M623.8,63c-1.3-3.7-2.4-7-3.7-10.6c18.6-10.6,36.9-21.1,56.1-32c3.9,11.4,7.5,22.2,11.5,34C666.2,57.3,645.4,60.1,623.8,63
		z" />
      <path d="M576.3,20.4c3.9,11.6,7.6,22.3,11.5,34c-21.7,2.9-42.6,5.8-63.9,8.7c-1.3-3.5-2.4-6.7-3.8-10.6
		C538.7,41.8,557.1,31.3,576.3,20.4z" />
      <path d="M676.3,120.4c3.9,11.6,7.6,22.3,11.5,34c-21.7,2.9-42.6,5.8-63.9,8.7c-1.3-3.5-2.4-6.7-3.9-10.6
		C638.7,141.8,657,131.3,676.3,120.4z" />
      <path d="M723.9,163c-1.3-3.6-2.4-6.8-3.8-10.6c18.5-10.6,36.8-21,56.2-32.1c3.8,11.3,7.5,22,11.5,34
		C766.2,157.3,745.3,160.1,723.9,163z" />
      <path d="M423.8,63c-1.3-3.7-2.4-7-3.7-10.6c18.6-10.6,36.9-21.1,56.1-32c3.9,11.4,7.5,22.2,11.5,34C466.2,57.3,445.4,60.1,423.8,63
		z" />
      <path d="M123.9,163c-1.3-3.5-2.4-6.8-3.8-10.6c18.5-10.6,36.8-21,56.2-32.1c3.8,11.3,7.5,22,11.5,33.9
		C166.2,157.2,145.3,160.1,123.9,163z" />
      <path d="M287.8,154.3c-21.7,2.9-42.5,5.8-63.9,8.7c-1.3-3.6-2.4-7-3.7-10.6c18.7-10.7,37-21.1,56.1-32
		C280.2,131.9,283.8,142.6,287.8,154.3z" />
      <path d="M376.3,120.3c3.9,11.6,7.6,22.3,11.5,34c-21.7,2.9-42.5,5.8-63.9,8.7c-1.3-3.6-2.4-6.9-3.7-10.6
		C338.8,141.7,357.1,131.3,376.3,120.3z" />
      <path d="M423.8,163c-1.3-3.7-2.4-6.9-3.7-10.7c18.6-10.6,36.9-21,56.1-32c3.9,11.4,7.5,22.2,11.5,34
		C466.3,157.3,445.4,160.1,423.8,163z" />
      <path d="M587.8,154.4c-21.8,2.9-42.5,5.8-63.9,8.6c-1.2-3.5-2.4-6.8-3.8-10.6c18.6-10.6,36.9-21.1,56.2-32
		C580.2,131.8,583.8,142.5,587.8,154.4z" />
      <path d="M186.9,57.8c-22.1,0-43.2,0-64.6,0c-0.7-3.5-1.4-6.8-2.2-10.6c19.8-8.1,39.3-16,59.8-24.4
		C182.3,34.7,184.6,45.8,186.9,57.8z" />
      <path d="M54.3,68.3c-6.8-0.3-13.7-0.7-20.9-1c0-2.4,0-4.2,0-6.7c4.1,0.5,7.4,3.9,11.7,3.1c2-0.4,4.3,0.9,5.7-1.8
		c0.3-0.5,2.4-0.7,2.9-0.3C55.5,63.3,54.9,65.5,54.3,68.3z" />
      <path d="M856.4,60.6c0.8,3.8,1.2,5.7,1.7,8.2c-7.2,0.9-14,1.8-21.3,2.7c-0.5-2.4-0.9-4.2-1.5-7.2C842.9,66.6,850,67.9,856.4,60.6z" />
      <path d="M36.7,171.6c-0.5-2.5-0.9-4.2-1.5-7.1c7.7,2.3,14.8,2.8,21.2-3.4c0.7,3.1,1.1,5,1.7,7.6C50.9,169.7,44.1,170.6,36.7,171.6z
		" />
      <path d="M236.7,171.5c-0.5-2.5-0.8-4.4-1.4-7.4c7.8,3.1,14.7,3,21.1-3c0.7,3.2,1.1,5.2,1.6,7.8
		C250.7,169.8,243.9,170.6,236.7,171.5z" />
      <path d="M336.6,171.6c-0.5-2.6-0.8-4.4-1.3-7.2c7.6,2.4,14.6,3.1,20.9-3.6c0.7,3.3,1.2,5.3,1.8,7.9
		C350.8,169.7,344,170.6,336.6,171.6z" />
      <path d="M456.3,160.7c0.8,3.6,1.2,5.5,1.7,8.1c-7.2,0.9-14,1.8-21.3,2.8c-0.5-2.3-0.9-4.2-1.6-7.1
		C443,166.8,450.1,167.6,456.3,160.7z" />
      <path d="M556.5,160.9c0.7,3.6,1.1,5.5,1.5,7.9c-7.3,0.9-14.1,1.8-21.3,2.7c-0.5-2.5-0.8-4.3-1.4-7.4
		C543.1,167.2,550,167.2,556.5,160.9z" />
      <path d="M658,168.8c-7.3,0.9-14.1,1.8-21.3,2.7c-0.5-2.4-0.9-4.3-1.5-7.3c7.7,2.7,14.6,3.1,21-3.3C657,164.2,657.5,166.2,658,168.8
		z" />
      <path d="M736.7,171.6c-0.5-2.5-0.8-4.3-1.4-7.2c7.7,2.6,14.7,2.8,21.1-3.3c0.7,3.1,1.1,5,1.6,7.6
		C750.9,169.7,744.1,170.6,736.7,171.6z" />
      <path d="M756.4,61.2c0.7,3.1,1.1,5,1.6,7.6c-7.1,0.9-14,1.8-21.3,2.8c-0.5-2.3-0.9-4.1-1.6-7.2C743,67,750,67.3,756.4,61.2z" />
      <path d="M458.1,68.8c-7.4,0.9-14.1,1.8-21.3,2.7c-0.5-2.3-0.9-4.1-1.6-7.1c7.8,2.6,14.8,2.9,21.2-3.2
		C457.1,64.3,457.5,66.2,458.1,68.8z" />
      <path d="M136.5,171.6c-0.4-2.7-0.7-4.5-1.2-7.3c7.7,2.9,14.6,3.1,21-3.3c0.7,3.3,1.2,5.3,1.7,7.9
		C150.8,169.7,144,170.6,136.5,171.6z" />
      <path d="M556.4,60.6c0.8,3.9,1.1,5.8,1.6,8.2c-7.3,0.9-14.1,1.8-21.3,2.7c-0.5-2.5-0.8-4.3-1.4-7.3C543,67,550,67.6,556.4,60.6z" />
      <path d="M656.4,60.5c0.8,4,1.2,5.8,1.7,8.3c-7.3,0.9-14.1,1.8-21.3,2.7c-0.5-2.5-0.8-4.3-1.4-7.3C643,67,650,67.7,656.4,60.5z" />
      <path d="M355.7,60.7c0.7,3.5,1,5.4,1.5,8c-7.3,0.6-14.1,1.2-21.4,1.8c-0.4-2.4-0.7-4.3-1.3-7.3C342.4,66.5,349.3,66.9,355.7,60.7z" />
      <path d="M255.6,61c0.2,3.2,0.4,5.1,0.6,7.6c-7.2,0-13.9,0-21.2,0c-0.3-1.4-0.6-3.2-1.3-6.5C241.5,65.6,248.5,66.1,255.6,61z" />
      <path d="M155,60.3c0.2,3.9,0.3,5.6,0.4,7.8c-7.2,0-14,0-21.3,0c0-2.2,0-4.1,0-6.9C141.1,64.6,147.8,66,155,60.3z" />
      <path d="M20.2,162.7c-4.2,2.6-5.1,0.1-6.1-2.6c-1-2.8-0.9-4.8,3.1-5.3C18.2,157.4,19.2,159.9,20.2,162.7z" />
      <path d="M817.2,54.2c1.2,3.3,2.1,5.9,3.1,8.8c-1.7,0.4-2.9,0.7-4.5,1.1C815.1,60.7,810.8,57.5,817.2,54.2z" />
      <path d="M620.2,162.4c-1.7,1.7-3,1.6-4.7,1.1c-0.4-3-4.5-6.4,1.6-9.1C618.2,157.2,619.2,159.8,620.2,162.4z" />
      <path d="M517.2,154.2c1.2,3.3,2.1,5.9,3.1,8.8c-1.7,0.4-2.8,0.7-4.4,1.1C515.2,160.7,510.8,157.5,517.2,154.2z" />
      <path d="M415.4,163.8c-0.2-3.3-4.6-6.8,1.7-9.3c1.1,2.8,2,5.3,3,7.7C419,164.1,417.5,163.9,415.4,163.8z" />
      <path d="M717.2,154.2c1.2,3.3,2.1,5.9,3.1,8.8c-1.6,0.4-2.8,0.7-4.4,1.1C715.2,160.7,710.9,157.5,717.2,154.2z" />
      <path d="M617.3,54.8c1,2.6,1.9,5.1,2.9,7.8c-2.5,1.8-4.4,2.3-5.4-1.1C614,58.9,611.8,55.8,617.3,54.8z" />
      <path d="M517.2,54.2c1.2,3.3,2.1,5.9,3.1,8.8c-1.7,0.4-2.8,0.7-4.5,1.1C515.2,60.7,510.8,57.5,517.2,54.2z" />
      <path d="M420.1,62.5c-1.6,1.5-2.9,1.7-4.7,0.8c-0.3-2.8-4.5-6.1,1.6-8.9C418.2,57.3,419.2,60,420.1,62.5z" />
      <path d="M720.2,62.7c-3.6,2.3-4.9,0.9-5.8-2.1c-0.8-2.7-1.8-5.2,2.9-5.8C718.2,57.3,719.2,59.9,720.2,62.7z" />
      <path d="M317.2,154.2c1.2,3.3,2.1,5.9,3.1,8.8c-1.7,0.4-2.9,0.7-4.4,1C315.2,160.7,310.8,157.5,317.2,154.2z" />
      <path d="M220.1,162.5c-1.6,1.5-2.9,1.7-4.7,0.8c-0.2-2.8-4.7-6.2,1.6-8.9C218.2,157.3,219.2,160,220.1,162.5z" />
      <path d="M117.3,154.6c1,2.8,1.9,5.4,2.9,8c-2.4,1.5-4.3,2.3-5.3-0.8C114.1,159.3,111.5,156.1,117.3,154.6z" />
      <path d="M312.9,54.7c1.4-0.7,2.4-1.3,4.1-2.2c1,3.1,1.8,5.9,2.8,9.1C312.8,63.1,314.6,57.5,312.9,54.7z" />
      <path d="M219.4,59.8c-2,0-3.3,0-4.9,0c-0.6-2.3-1.2-4.5-1.7-6.4c0.9-1.8,2.1-2.3,4.2-2.2C217.7,53.7,218.5,56.4,219.4,59.8z" />
      <path d="M116.8,48.8c0.7,3,1.4,5.7,2,8.2c-1.3,1.7-2.8,1.2-4.5,0.7C114.1,54.7,110.2,50.9,116.8,48.8z" />
      <path d="M18.6,55.6c-4.5,1.8-4.9-0.8-5.5-3.6c-0.6-2.9,0.1-4.7,4-4.8C17.6,50,18,52.7,18.6,55.6z" />
      <path d="M593,132.8c-1-3.5,0.8-3.3,2.6-3.3C596.6,132.3,595.2,132.7,593,132.8z" />
      <path d="M695.8,129.5c0.6,3-0.8,3.3-2.7,3.2C691.7,129.8,693.4,129.5,695.8,129.5z" />
      <path d="M793,132.7c-0.9-3.2,0.9-3.1,2.6-3.4C796.7,132.3,795.3,132.8,793,132.7z" />
      <path d="M486.3,133.8c0.6-1.6,1.6-2.4,3.2-1.3c0.4,0.3,0.5,1.7,0.2,2C488.4,135.7,487.1,135.8,486.3,133.8z" />
      <path d="M586.2,133.7c0.9-1.6,2-2.5,3.5-1.1c0.3,0.3,0.4,1.4,0.1,1.7C588.6,135.7,587.3,135.9,586.2,133.7z" />
      <path d="M686.2,133.7c1-1.6,2-2.4,3.5-1c0.3,0.3,0.3,1.4,0,1.7C688.5,135.7,687.3,135.9,686.2,133.7z" />
      <path d="M786.2,133.8c0.9-1.7,1.9-2.5,3.4-1.2c0.3,0.3,0.4,1.4,0.1,1.7C788.6,135.6,787.4,135.9,786.2,133.8z" />
      <path d="M590.1,121.9c0.7-1.3,1.5-2.5,3.2-1.1c0.4,0.3,0.5,1.8,0.1,2.1C592.1,123.9,590.8,124.2,590.1,121.9z" />
      <path d="M490,121.8c0.9-1.2,1.8-2.3,3.2-1.2c0.4,0.3,0.6,1.7,0.3,2.1C492.3,123.9,491,124.3,490,121.8z" />
      <path d="M390.1,121.9c0.7-1.3,1.6-2.5,3.2-1.2c0.4,0.3,0.5,1.8,0.1,2.1C392.1,123.9,390.8,124.2,390.1,121.9z" />
      <path d="M290,121.8c0.9-1.3,1.8-2.3,3.2-1.2c0.4,0.3,0.6,1.7,0.3,2.1C292.3,123.9,291,124.3,290,121.8z" />
      <path d="M189.9,121.6c1.4-1.3,2.6-2.5,4.2,0.5C192.6,123.4,191.3,124.9,189.9,121.6z" />
      <path d="M799.9,119.1c-0.7,1.3-1.5,2.5-3.2,1.1c-0.4-0.3-0.5-1.8-0.1-2.1C797.9,117.1,799.2,116.7,799.9,119.1z" />
      <path d="M700,119.1c-0.8,1.4-1.7,2.3-3.1,1.3c-0.4-0.3-0.7-1.7-0.4-2.1C697.6,117.1,698.9,116.6,700,119.1z" />
      <path d="M599.9,119.1c-0.7,1.3-1.5,2.5-3.2,1.1c-0.4-0.3-0.5-1.8-0.1-2.1C597.9,117.1,599.2,116.7,599.9,119.1z" />
      <path d="M500.1,119c-0.8,1.5-1.7,2.4-3.1,1.4c-0.4-0.3-0.7-1.7-0.4-2C497.6,117.1,498.9,116.7,500.1,119z" />
      <path d="M400,119.1c-1,1.4-1.8,2.6-3.4,1.1c-0.3-0.3-0.4-1.4-0.2-1.7C397.6,117.2,398.8,116.6,400,119.1z" />
      <path d="M690,121.9c0.8-1.4,1.8-2.4,3.2-1.3c0.4,0.3,0.7,1.7,0.4,2.1C692.4,123.9,691.1,124.2,690,121.9z" />
      <path d="M790.1,121.9c0.7-1.3,1.5-2.5,3.2-1.1c0.4,0.3,0.5,1.8,0.1,2.1C792.1,123.9,790.8,124.2,790.1,121.9z" />
      <path d="M283.7,124.8c1.7-2.1,2.9-2.5,4.4-0.2C286.8,126.5,285.6,127.2,283.7,124.8z" />
      <path d="M383.7,124.8c1.7-2.1,2.9-2.5,4.4-0.2C386.8,126.5,385.6,127.2,383.7,124.8z" />
      <path d="M483.8,124.9c1.4-2,2.6-2.9,4.1-0.4C487,126.5,485.9,127.3,483.8,124.9z" />
      <path d="M588,124.5c-1.1,2-2.2,2.8-4.1,0.4C585.1,122.9,586.2,122,588,124.5z" />
      <path d="M783.7,125.2c1.4-2.3,2.5-3.2,4.3-0.8C787.1,126.5,786,127,783.7,125.2z" />
      <path d="M688.1,124.6c-1.4,1.9-2.5,2.7-4.1,0.5C684.9,122.9,686,122,688.1,124.6z" />
      <path d="M789.9,141.6c1-0.4,1.8-0.7,2.7-1c0.1,0.7,0.5,1.7,0.2,2.1C792,143.5,791,143.4,789.9,141.6z" />
      <path d="M690.3,143c0-2.3,1-2.6,2-2.4c0.4,0.1,0.5,1.2,0.8,1.9C692.2,142.7,691.4,142.8,690.3,143z" />
    </g>
  </svg>
