<?xml version="1.0" encoding="utf-8"?>
<!-- Generator: Adobe Illustrator 18.1.1, SVG Export Plug-In . SVG Version: 6.00 Build 0)  -->
<svg version="1.1" id="Layer_1" xmlns="http://www.w3.org/2000/svg" xmlns:xlink="http://www.w3.org/1999/xlink" x="0px" y="0px"
	 viewBox="0 0 201.4 217" enable-background="new 0 0 201.4 217" xml:space="preserve">
<g>
	<path fill="#F47D67" d="M3.4,117.1c0,53.4,43.3,96.7,96.7,96.7c53.4,0,96.7-43.3,96.7-96.7H3.4z"/>
	<path fill="#E1D9B8" d="M154.3,46c21.5,16.2,35.4,41.9,35.4,70.9c0,48.9-39.6,88.5-88.5,88.5c-48.9,0-88.5-39.6-88.5-88.5
		c0-29,14-54.8,35.6-71"/>
	<path fill="#F47D67" d="M123.8,134.5l-10-16.9c0,0-0.9,0.9-1.3,1.4c-0.4,0.5,8.5,14.9,8.9,15.5
		C121.8,135.1,123.8,134.5,123.8,134.5z"/>
	<path fill="#F47D67" d="M77.5,145.4c0.6,0.7,1.1,1.5,1.8,2.1c0.2-0.1,0.4-0.1,0.6-0.2c0.7-0.4,1.5-0.7,2.4-0.7
		c0.8,0,1.5,0.1,2.3,0.3c0.5,0.1,0.7,0.1,0.7,0.1c1.2-1.1,2.1-2.3,3.6-3.1c0.8-0.4,1.6-0.6,2.5-0.7c0,0,0.2,0,0.5-0.1
		c0.3-0.7,0.6-1.4,1.4-1.9c0.9-0.6,2-0.7,2.8-1.2c3.8-2.5,8,3.2,4.1,5.8c-0.8,0.6-1.6,0.8-2.5,1.1c0.6-0.2,0.2,0.1-0.1,0.7
		c-0.2,0.5-0.5,0.9-0.9,1.2c0,0,0,0,0,0c12.4-7.3,23.5-14,23.5-14l-8.6-15c0,0-20.3,12.3-36.3,22C75.9,143.3,76.5,144.2,77.5,145.4z
		"/>
	<g>
		<path fill="none" d="M120.3,199.4c-0.1,0-0.1,0.1-0.2,0.1C120.2,199.5,120.3,199.4,120.3,199.4z"/>
		<path fill="#4E3527" d="M109.9,172.5c-1.2-2.7,0-8.8,0.2-10c2.8-4.1,5.5-8.4,5.7-8.7l0,0c2-4.1,2.5-7.2,1.5-9.5
			c-0.3-0.7-0.8-2.4-1.3-4.3c-0.6-2.1-0.9-4.2-1.4-5.5l-0.2-0.4c-0.9-2.2-1.9-4.1-5.2-3.7c-1.1,0.1-2.8-0.1-4.8-0.4l1.5-6.7l3.7-2.3
			c0.2-0.1,0.6-0.1,0.8-0.2c-1.1-1.9-4.2-6.1-8.5-7.1c-2-0.5-3.7-0.3-5,0.6c-1.3,0.9-2.2,2.5-2.5,4.7l0,0.1c0,0.2-0.1,1.2-0.1,2.5
			c-1.9-1.2-7.4-4.3-11,0.2l-0.1,0.1l0,0.1c0,0.2-0.8,3.5-0.7,6.6c-0.6-0.2-1.8-0.6-2.7-0.4c-1.1,0.2-4.3,2.4-4.5,3.2
			c0,0.1,0,0.2-0.1,0.3c-0.1,0.6-0.3,1.9-0.4,3c-0.6-0.4-1.7-0.9-2.5-0.7c-1.1,0.2-4.3,2.4-4.5,3.2c0,0.1,0,0.2-0.1,0.3
			c-0.2,1-0.6,3.3-0.4,4.5c0.1,0.3,0.5,1.3,1.1,2.6c-0.2,1.3,1.1,5.3,1.1,5.5l1.5,11l6.7,13.2l0,0.1c0.6,0.7,1.2,1.1,1.9,1.3l0,0
			l6.8,35.5c12.9,1.2,27.2,2.3,38.5-2.4C124.2,206,111.1,175.4,109.9,172.5z M120.1,199.5c0.1,0,0.1-0.1,0.2-0.1
			C120.3,199.4,120.2,199.5,120.1,199.5z"/>
	</g>
	<path fill="#929497" d="M118.2,134.8"/>
	<path fill="#F47D67" d="M93.4,150.5c-0.8,0-1.3-0.2-1.5,0c-1.7,1.5-2.8,3-5.1,3.5c-1.1,0.2-2.2,0.2-3.2-0.1
		c-0.3-0.1-0.5-0.1-0.6-0.1c-0.5,0.4-1.1,0.6-1.6,0.7c-2.4,1.3-4.9,0.2-7.1-2.1c-1.3-1.4-2.9-2.9-4-4.5c-0.5-0.7-0.8-1.4-1.2-2.2
		c-7.5,4.6-13,7.9-13.1,8.1c-0.3,0.5,7.9,13.3,8.2,13.8c0.2,0.3,15.6-8.8,30.2-17.4C94.1,150.4,93.8,150.4,93.4,150.5z"/>
	<path fill="#F47D67" d="M96.1,135.4l2.1,11.2l4.3-2.5c0,0-0.6-3.7-0.5-4.4C100.1,139.2,96.1,135.4,96.1,135.4z"/>
	<path fill="#E1D9B8" d="M118.3,144.2c-0.3-0.7-0.8-2.4-1.3-4.3c-0.6-2.1-1.1-4.2-1.7-5.5l-0.2-0.4c-0.9-2.2-1.6-4.1-4.9-3.7
		c-1.9,0.2-5.9-0.6-9.2-1.3c-2.1-0.4-3.8-0.8-4.5-0.7c-0.4,0-0.7,0.2-1,0.5c-0.2-2.7-1.4-7.6-1.3-9.3c-0.3,0-0.3,0.7-0.6,0.6
		c0.1,0.3,0.1,0.6,0.2,0.9c-1.2-0.8-6.8-4.2-10.7,0.6l-0.1,0.1l0,0.1c0,0.1-0.6,2.7-0.7,5.4c-0.6,0-2.4,0.2-3.3,0.3
		c-1,0.2-3.9,2.4-4.1,3.2c0,0.1,0,0.2,0,0.3c-0.2,0.9-0.6,3.1-0.4,4.3c0.2,1.1,4.8,14.7,8.3,18c-0.7,0.7-2.9,2.6-5.8,0.9
		c-1.5-0.9-6.9-7.6-8.5-10c-0.2,0.2-1.6-1.3-1.9-1.2c1.7,2.5,8.2,10.9,9.9,12c0.7,0.4,1.4,0.7,2,0.8c2.9,0.5,4.8-1.9,4.9-1.9l0-0.1
		c0,0,0,0,0,0c0.7,0.4,1.7,0.6,2.4,0.5c2.2-0.2,4.7-1.7,6-3.4c0.1,0,0.3,0.1,0.4,0.1c0.7,0.1,1.5,0.2,2.3-0.1
		c2.5-0.8,3.5-2.3,3.8-3.8c1.3-1.1,3.7-1.9,4.4-2.2c1,0.5,3.5,1.4,3.6,1.5l0.2-0.3c0,0-3-1-3.5-2c-0.5-1-0.8-2.1-0.8-4.1
		c1.1,0.3,2.2,0.5,3.6,0.5l-0.1-0.4c-8.2-0.2-10-6.8-10.2-7.5c0-1.1,0.2-3.3,1-3.3c0.6,0,2.4,0.3,4.3,0.7c3.3,0.7,7.3,1.2,9.3,0.9
		c2.6-0.3,3.3,1.3,4.1,3.5l0.2,0.4c0.5,1.2,1.1,3.4,1.6,5.4c0.5,2,1,3.7,1.3,4.4c0.9,2,0.1,4.7-1.8,8.5c-0.4,0.6-7.9,12.3-10.5,15.2
		c-2.5,2.7-4.9,3.2-6.8,2.5l-0.3,0.4c0.4,0.2,0.9,0.3,1.5,0.4c2,0.3,4.4,0,6.6-2.4c2.8-3,10.3-14.8,10.6-15.3l0,0
		C118.8,149.6,119.3,146.5,118.3,144.2z M83.6,152.7c-3-2.2-8-16.3-8.2-17.6c-0.2-1,0.2-3.2,0.4-4c0-0.1,0-0.2,0-0.3
		c0.2-0.5,2.6-2.3,3.4-2.5c0.7-0.1,2.7-0.6,3.1-0.4l0.1-0.2c0,1,0.1,2,0.3,2.9c0.8,3.4,5.2,15.9,5.4,16.4c0,0.1,1,2.5,3,3.5
		C90.1,151.9,86.4,154.7,83.6,152.7z M94.2,150.2c-0.9,0.2-1.5,0.2-2.3-0.1c-1.9-0.8-3-3.4-3-3.4c0-0.1-4.6-13-5.4-16.3
		c-0.7-3,0.2-7.6,0.4-8.3c1.6-1.9,3.8-2.6,6.6-2.1c1.6,0.3,2.9,1.3,3.5,1.8c0.7,3.8,0.9,7.9,0.8,8.5l0.1-0.1c-0.2,1-0.2,2.2-0.2,2.4
		l0,0.1c0,0.1,0.2,0.9,0.9,2c0.1,0.7,1.8,8.5,2,9.9C97.8,146.3,97.7,149.3,94.2,150.2z M101.7,139.7c0,1.4,0,3.4,0.4,4.5
		c-0.9,0.3-2.5,1.1-3.6,2.2c0.1-0.6,0-1.3-0.1-1.8c-0.2-1.2-1.5-6.4-2.1-8.7c0.2,0.2,0.3,0.4,0.5,0.7
		C97.8,137.7,99.4,138.9,101.7,139.7z"/>
	<path fill="#F47D67" d="M118,134.3"/>
	<path fill="#FFFFFF" d="M148.1,107.1c-1.3-3.2-4.1-5.6-7.7-6.2c-0.2,0-0.4-0.1-0.7-0.1c-0.9-1.2-2.4-2-4.1-2.3
		c-2.4-0.4-4.6,0.5-5.8,2.1c-0.4-0.1-0.8-0.2-1.3-0.3c-5.5-0.9-10.6,2.8-11.5,8.3c-0.1,0.8-0.2,1.7-0.1,2.5c-1.3,1.9-2.2,4-2.5,6.1
		c-0.1,0,10.4,17,10.4,17c5,0.6,10.1-0.6,14.3-2.9l-0.7,0.6c0,0-2.1,4-2.9,5.8c-0.8,1.8-1.5,6,1.2,7.4c2.6,1.4,1.2-4.6,2.4-8.7
		c0.9-3.2,3.2-6.6,4.3-8.1c1.8-1.6,3.1-3.5,4-5.5c2.1-1.5,3.5-3.8,4-6.5C152,112.7,150.6,109.3,148.1,107.1z"/>
	<path fill="#4E3527" d="M170.8,188.2c-0.7-0.7-0.7-1.8,0-2.5c0.7-0.7,1.8-0.7,2.5,0l0.2,0.2c4.2-4.4,7.9-9.1,11.3-14.2l-0.1-0.1
		c-0.8-0.5-1-1.6-0.5-2.4c0.5-0.8,1.6-1,2.4-0.5l0.1,0c1.5-2.4,2.9-4.9,4.2-7.5c1.4-2.9,2.7-5.8,3.8-8.7c-0.9-0.3-1.3-1.3-1-2.2
		c0.3-0.9,1.3-1.3,2.2-1c2-5.7,3.5-11.6,4.4-17.6c-0.9-0.2-1.5-1-1.3-1.9c0.1-0.9,0.9-1.5,1.8-1.5c0.7-6,0.9-12.1,0.5-18.1
		c-0.8-0.1-1.5-0.7-1.6-1.6c-0.1-0.9,0.5-1.6,1.3-1.8c-0.5-5.5-1.5-10.9-2.9-16.2c-0.1-0.5-0.3-1.1-0.5-1.6c-0.8,0-1.5-0.5-1.7-1.2
		c-0.2-0.8,0.1-1.6,0.8-2c-1.9-5.8-4.2-11.4-7-16.8c-0.7,0.1-1.5-0.2-1.8-0.9c-0.4-0.7-0.2-1.5,0.3-2c-3-5.3-6.5-10.3-10.5-14.9
		c-0.7,0.2-1.4,0.1-1.9-0.5c-0.5-0.6-0.5-1.3-0.2-1.9c-2.4-2.6-4.9-5.1-7.5-7.5c0.2-0.1-3.4-2.3-3.5-3c-0.3-0.8-0.2-2.5,1.2-6
		l2.1-5.1c0.5-1.1,0.6-2,0.6-2.6c0-3.5-4.9-6-7-7.9l1.9-4.5l-3-1.9c-2.1,0.7-4.7,3.2-4.7,5.7c0,1.2,0.7,2.3,1.6,3.3
		c-1.5,3.3-3.1,6.6-4.4,8.9l0,0c-2.6,4.4-5.6,6.2-8.3,6c2-3.9,3.1-8.3,3.1-11.4c0-5.3-3.1-8.1-7.8-8.1c-7.4,0-12.1,7.3-14.1,13.8
		c-3.2,5.3-6.9,6.6-10,5.2c6.4-7.4,8.3-15.2,8.9-19l-5,0.7c-2.3,11.1-8.7,17.6-13.8,21.4l4.7-21.4h-6.2l-2.9,13.1
		c-3.5,6-7.4,10.5-9.7,10.5c-1.2,0-2-1.2,0.2-6.6l6.9-17h-6.4l-1.5,3.5c0,0-0.9-4.2-5.4-4.2c-6.1,0-10.2,7.3-12.3,13.9
		c-3.5,5.9-7.3,10.4-9.7,10.4c-1,0-2-0.9,0.3-6.6L74.6,5h-6.4L58,30.4c-3.8,9.3-0.9,12.5,3.4,12.5c3.7,0,7-2.7,10.1-6.6
		c0,0.2,0,0.3,0,0.4c0,3.4,1.8,6.1,5.2,6.1c4.4,0,7.6-4.2,7.6-4.2s0.2,4.2,5.1,4.2c3.7,0,7.1-2.6,10.1-6.3l-1.2,5.7h6.2
		c5.6-3,8.3-5.7,8.3-5.7c4.6,2.1,8.5,1,11.7-1.9c0,0,0,0.1,0,0.1c0,5.3,3.2,8.2,7.8,8.2c4.1,0,7.4-2.3,9.9-5.5
		c5.2,1,9.9-2.3,12.9-7.6c0,0,0,0,0,0c1.6-2.9,3.1-5.8,4.4-8.7c1.6,1.3,2.6,2.2,2.6,3.3c0,0.2-0.1,0.7-0.5,1.8l-1.9,4.5
		c-0.9,2.1-1.3,3.9-1.5,5.4c-0.3,2.7,0.2,4.5,1.8,5.9c15.8,12.7,27.2,30.1,32.5,49.9c5.9,22.4,3.5,46.1-6.9,66.8
		c-11.4,22.7-30.9,39.7-55,47.7s-49.9,6.2-72.6-5.2c-0.1-0.1-0.2-0.1-0.3-0.1C11.2,177.5-7.3,120.7,15.6,73.6
		c11.9-24.3,28.8-31.5,31.8-39.4l4-9.9h4.8l1.3-3.2h-4.8l5-12.2c1.7-4.2,4.5-5.1,4.5-5.1l-1.2-3.7c-2.1,0-4.2,0.9-5.8,2.4
		C49.6,3.8,41.8,0,35.3,0c-7.5,0-11.1,5-11.1,9.9c0,5.1,4.1,8.7,8.9,8.7c4.3,0,6.6-2.6,6.6-2.6l-2.6-3.9c0,0-1.6,1.7-3.8,1.7
		c-2.1,0-3.9-1.5-3.9-3.8c0-2.3,1.7-4.8,5.9-4.8c4.3,0,10.8,2.6,16.5,2.8l-5.4,13.3h-4.6l-1.3,3.2h4.6l-2.4,6
		C40.9,35.2,29.1,45.7,27.5,47c-2.1,2.2-4.1,4.6-6,7c0.4,0.6,0.3,1.4-0.1,1.9c-0.4,0.6-1.2,0.8-1.8,0.6c-3.3,4.6-6.3,9.4-8.9,14.5
		c-0.2,0.4-0.3,0.7-0.5,1.1c0.5,0.5,0.7,1.3,0.4,2c-0.3,0.7-1.1,1.1-1.8,1c-2.5,5.6-4.5,11.4-5.9,17.2c0.7,0.3,1.1,1.1,0.9,1.9
		c-0.2,0.8-0.9,1.3-1.7,1.4c-1.2,6-1.9,12-2.1,18c0.8,0.1,1.4,0.9,1.4,1.7c0,0.9-0.6,1.6-1.5,1.7c0.1,6.1,0.7,12.1,1.8,18
		c0.9-0.1,1.7,0.5,1.9,1.4c0.2,0.9-0.3,1.7-1.2,2c1.3,5.9,3.2,11.7,5.6,17.2c0.9-0.3,1.8,0,2.2,0.9c0.4,0.9,0,1.9-0.8,2.3
		c2.6,5.5,5.6,10.7,9.1,15.7l0.1,0c0.8-0.6,1.9-0.4,2.4,0.4c0.6,0.8,0.4,1.9-0.4,2.4l-0.1,0.1c3.7,4.8,7.8,9.3,12.3,13.4l0.1-0.2
		c0.6-0.7,1.7-0.8,2.5-0.2c0.7,0.6,0.8,1.7,0.2,2.4l-0.1,0.2c4.6,3.9,9.5,7.4,14.9,10.4l0.1-0.2c0.5-0.8,1.5-1.1,2.4-0.7
		c0.8,0.5,1.1,1.5,0.7,2.4l-0.1,0.3c0.6,0.3,1.2,0.6,1.8,0.9c0.1,0.1,0.2,0.1,0.3,0.2c4.8,2.4,9.7,4.4,14.7,6l0.1-0.3
		c0.3-0.9,1.2-1.4,2.2-1.2c0.9,0.3,1.4,1.2,1.2,2.2l-0.1,0.4c5.9,1.7,11.9,2.8,17.9,3.3l0-0.4c0.1-1,0.9-1.7,1.9-1.6
		c1,0.1,1.7,0.9,1.6,1.9l0,0.4c6.1,0.3,12.1,0.1,18.2-0.6l-0.1-0.4c-0.1-0.9,0.5-1.8,1.5-2c0.9-0.1,1.8,0.5,2,1.5l0.1,0.4
		c5.3-0.9,10.6-2.2,15.8-3.9c0.6-0.2,1.2-0.4,1.8-0.7l-0.1-0.3c-0.3-0.9,0.1-1.9,1-2.2c0.9-0.3,1.9,0.1,2.2,1l0.1,0.3
		c5.7-2.2,11.1-5,16.3-8.2l-0.2-0.3c-0.5-0.8-0.3-1.9,0.5-2.4c0.8-0.5,1.9-0.3,2.4,0.5l0.2,0.2c5.1-3.4,9.8-7.2,14.1-11.4
		L170.8,188.2z M85,33.2c0,0-2.8,4.5-5.7,4.5c-1.1,0-1.7-0.7-1.7-2.1c0-3.8,4.3-15.7,8.9-15.7c2.5,0,2.5,3.4,2.5,3.4L85,33.2z
		 M139.9,29.1c-2.1-0.2-3.9,1.5-3.9,3.5c0,1,0.4,1.8,1,2.5c-1.4,2.1-3,3.5-4.5,3.5c-1.3,0-2.2-1.1-2.2-3c0-4.5,4.8-16.8,9.2-16.8
		c1.1,0,2.1,0.8,2.1,3C141.7,23.5,141,26.3,139.9,29.1z"/>
	<path fill="#4E3527" d="M47.1,88.8h-3.7v-8.7h3.7c1,3.7,3.1,5.6,6.1,5.6c2.4,0,4.2-1.7,4.2-3.9c0-2.1-1.5-3.1-4.5-4l-2.9-0.8
		c-4.5-1.2-6.7-3.3-6.7-7.1c0-4.2,3.3-7.3,7.7-7.3c2.4,0,4.5,0.8,5.9,2.2v-1.7h3.6v7.6h-3.6c-0.8-3-2.5-4.5-5.2-4.5
		c-2.4,0-3.8,1.5-3.8,3.2c0,1.7,1,2.5,3,3.1l3.1,0.9c5.2,1.5,7.8,3.5,7.8,7.9c0,4.8-3.1,8-8,8c-2.7,0-5-0.9-6.7-2.7V88.8z"/>
	<path fill="#4E3527" d="M77.8,66.9c-5.1,0-8.6,3.6-8.6,9.1c0,5.4,3.5,9,8.6,9c3.2,0,5.3-1.4,6.9-4.5h4.5c-1.4,5.5-5.8,8.8-11.3,8.8
		c-7.7,0-13.4-5.7-13.4-13.3c0-8,5.7-13.3,13.1-13.3c3.1,0,5.5,1,7,2.6l-0.1-2.1h3.8v8.6h-3.8C83.3,68.6,80.9,66.9,77.8,66.9z"/>
	<path fill="#4E3527" d="M91.2,85.2H94V66.7h-2.7v-3.6h19.5v7h-4v-3.4h-8.2v6.4h6.9V77h-6.9v8.2h8.1v-4h4.1v7.6H91.2V85.2z"/>
	<path fill="#4E3527" d="M123.3,85.2v3.6h-9.8v-3.6h2.7V66.7h-2.7v-3.6h7.8l9.2,16.8V66.7h-2.7v-3.6h9.8v3.6h-2.7v22.6H131
		l-10.3-19.4v15.4H123.3z"/>
	<path fill="#4E3527" d="M139.4,85.2h2.7V66.7h-2.7v-3.6H159v7h-4v-3.4h-8.2v6.4h6.9V77h-6.9v8.2h8.1v-4h4.1v7.6h-19.5V85.2z"/>
	<g>
		<g>
			<path fill="#4E3527" d="M92.3,61.4h-0.4c-1.3,0-1.9-0.6-1.9-1.9v-6.7c0-1.3,0.6-1.9,1.9-1.9h0.4c1.3,0,1.9,0.6,1.9,1.9v6.7
				C94.2,60.8,93.6,61.4,92.3,61.4z M92.2,52h-0.4c-0.5,0-0.8,0.3-0.8,0.8v6.8c0,0.5,0.3,0.8,0.8,0.8h0.4c0.5,0,0.8-0.3,0.8-0.8
				v-6.8C93,52.3,92.8,52,92.2,52z"/>
			<path fill="#4E3527" d="M98.5,51v1.1h-2v3.5h1.9v1.1h-1.9v4.7h-1.2V51H98.5z"/>
			<path fill="#4E3527" d="M102.3,61.4v-9.3h-1.6V51h4.3v1.1h-1.6v9.3H102.3z"/>
			<path fill="#4E3527" d="M108.9,55.5V51h1.2v10.3h-1.2v-4.7H107v4.7h-1.2V51h1.2v4.5H108.9z"/>
			<path fill="#4E3527" d="M114.4,51v1.1h-2.1v3.4h2v1.1h-2v3.7h2.1v1.1h-3.3V51H114.4z"/>
		</g>
	</g>
	<g>
		<g>
			<g>
				<path fill="#4E3527" d="M148.8,56.9L148.8,56.9c-0.5,0-0.8-0.4-0.8-0.8c0-0.4,0.4-0.8,0.8-0.8c0.4,0,0.8,0.4,0.8,0.8
					C149.6,56.5,149.3,56.9,148.8,56.9z"/>
			</g>
			<g>
				<path fill="#4E3527" d="M143.9,56.9L143.9,56.9c-0.5,0-0.8-0.4-0.8-0.8c0-0.4,0.4-0.8,0.8-0.8s0.8,0.4,0.8,0.8
					C144.6,56.5,144.3,56.9,143.9,56.9z M138.9,56.9L138.9,56.9c-0.5,0-0.8-0.4-0.8-0.8c0-0.4,0.4-0.8,0.8-0.8
					c0.4,0,0.8,0.4,0.8,0.8C139.7,56.5,139.3,56.9,138.9,56.9z"/>
			</g>
			<g>
				<path fill="#4E3527" d="M133.9,56.9L133.9,56.9c-0.5,0-0.8-0.4-0.8-0.8c0-0.4,0.4-0.8,0.8-0.8c0.4,0,0.8,0.4,0.8,0.8
					C134.7,56.5,134.4,56.9,133.9,56.9z M128.9,56.9L128.9,56.9c-0.5,0-0.8-0.4-0.8-0.8c0-0.4,0.4-0.8,0.8-0.8
					c0.4,0,0.8,0.4,0.8,0.8C129.7,56.5,129.4,56.9,128.9,56.9z M123.9,56.9L123.9,56.9c-0.5,0-0.8-0.4-0.8-0.8
					c0-0.4,0.4-0.8,0.8-0.8c0.4,0,0.8,0.4,0.8,0.8C124.7,56.5,124.4,56.9,123.9,56.9z"/>
			</g>
			<g>
				<path fill="#4E3527" d="M119,56.9L119,56.9c-0.5,0-0.8-0.4-0.8-0.8c0-0.4,0.4-0.8,0.8-0.8c0.4,0,0.8,0.4,0.8,0.8
					C119.7,56.5,119.4,56.9,119,56.9z"/>
			</g>
		</g>
	</g>
	<g>
		<g>
			<g>
				<path fill="#4E3527" d="M83.3,56.9L83.3,56.9c-0.5,0-0.8-0.4-0.8-0.8c0-0.4,0.4-0.8,0.8-0.8s0.8,0.4,0.8,0.8
					C84.1,56.5,83.7,56.9,83.3,56.9z"/>
			</g>
			<g>
				<path fill="#4E3527" d="M78.4,56.9L78.4,56.9c-0.5,0-0.8-0.4-0.8-0.8c0-0.4,0.4-0.8,0.8-0.8s0.8,0.4,0.8,0.8
					C79.1,56.5,78.8,56.9,78.4,56.9z M73.4,56.9L73.4,56.9c-0.5,0-0.8-0.4-0.8-0.8c0-0.4,0.4-0.8,0.8-0.8c0.4,0,0.8,0.4,0.8,0.8
					C74.1,56.5,73.8,56.9,73.4,56.9z"/>
			</g>
			<g>
				<path fill="#4E3527" d="M68.4,56.9L68.4,56.9c-0.5,0-0.8-0.4-0.8-0.8c0-0.4,0.4-0.8,0.8-0.8c0.4,0,0.8,0.4,0.8,0.8
					C69.1,56.5,68.8,56.9,68.4,56.9z M63.4,56.9L63.4,56.9c-0.5,0-0.8-0.4-0.8-0.8c0-0.4,0.4-0.8,0.8-0.8s0.8,0.4,0.8,0.8
					C64.1,56.5,63.8,56.9,63.4,56.9z M58.4,56.9L58.4,56.9c-0.5,0-0.8-0.4-0.8-0.8c0-0.4,0.4-0.8,0.8-0.8s0.8,0.4,0.8,0.8
					C59.2,56.5,58.8,56.9,58.4,56.9z"/>
			</g>
			<g>
				<path fill="#4E3527" d="M53.4,56.9L53.4,56.9c-0.5,0-0.8-0.4-0.8-0.8c0-0.4,0.4-0.8,0.8-0.8s0.8,0.4,0.8,0.8
					C54.2,56.5,53.9,56.9,53.4,56.9z"/>
			</g>
		</g>
	</g>
</g>
</svg>
