<?xml version="1.0" encoding="utf-8"?>
<!-- Generator: Adobe Illustrator 18.1.1, SVG Export Plug-In . SVG Version: 6.00 Build 0)  -->
<svg version="1.1" id="Layer_1" xmlns="http://www.w3.org/2000/svg" xmlns:xlink="http://www.w3.org/1999/xlink" x="0px" y="0px"
	 viewBox="0 0 460 152.4" enable-background="new 0 0 460 152.4" xml:space="preserve">
<g>
	<g>
		<path fill="#C7C6C5" d="M31.4,91.9h5.2V61.2h-5.2V51h23.9v10.2h-5.4v30.7h5.4v10.2H31.4V91.9z"/>
		<path fill="#C7C6C5" d="M112.7,83.4C109,95.7,98.9,103.1,86,103.1c-7.1,0-13.2-2.2-18.1-6.5c-6-5.3-9.2-12.2-9.2-20.1
			c0-8,3.2-14.8,9.2-20.1c4.9-4.3,11-6.5,18.1-6.5c5.7,0,10.5,1.9,14,5.5V51h11.9v19.7H99c-2.1-5.5-6.5-8.4-12.4-8.4
			c-8.1,0-13.8,5.9-13.8,14.3c0,8.4,5.8,14.2,13.3,14.2c5.5,0,9.6-2.4,12.4-7.4H112.7z"/>
		<path fill="#C7C6C5" d="M115,91.9h5.2V61.2H115V51h45.9v18.5H152l-3.1-8.3h-15.3v8.3h10.1v11.4h-10.1v11h15.3L152,82h8.9v20.2H115
			V91.9z"/>
		<path fill="#C7C6C5" d="M239.4,83.4c-3.7,12.3-13.8,19.7-26.6,19.7c-7.1,0-13.2-2.2-18.1-6.5c-6-5.3-9.2-12.2-9.2-20.1
			c0-8,3.2-14.8,9.2-20.1c4.9-4.3,11-6.5,18.1-6.5c5.7,0,10.5,1.9,14,5.5V51h11.9v19.7h-12.9c-2.1-5.5-6.5-8.4-12.4-8.4
			c-8.1,0-13.8,5.9-13.8,14.3c0,8.4,5.8,14.2,13.3,14.2c5.5,0,9.6-2.4,12.4-7.4H239.4z"/>
		<path fill="#C7C6C5" d="M241.9,91.9h5.1V61.2h-5.1V51h31.5c8,0,13.4,5.5,13.4,13.3c0,5.7-2.6,9.2-8.5,11.4c4.7,1.4,6.4,3,6.4,7.4
			v8.9h4.6v10.2h-17.9V90.2c0-6.7-0.4-9.8-7-9.8h-4.1v11.5h4.1v10.2h-22.6V91.9z M260.3,72h5.2c4.8,0,7.1-1.7,7.1-5.4
			c0-3.7-2.3-5.4-7.1-5.4h-5.2V72z"/>
		<path fill="#C7C6C5" d="M291.8,91.9h5.2V61.2h-5.2V51h45.8v18.5h-8.9l-3.1-8.3h-15.3v8.3h10.1v11.4h-10.1v11h15.3l3.1-9.9h8.9
			v20.2h-45.8V91.9z"/>
		<path fill="#C7C6C5" d="M341,91.9h4.3l9.5-30.7h-5V51h36v10.2h-5l9.4,30.7h4.4v10.2h-22.4V91.9h4.5l-2.1-6.9h-14l-1.9,6.9h4.5
			v10.2H341V91.9z M372.7,75.9l-5-16.2l-4.9,16.2H372.7z"/>
		<path fill="#C7C6C5" d="M396.5,91.9h5.1V61.2h-5.1V51h23.9l8,21l7.6-21h24v10.2h-5.2v30.7h5.2v10.2h-23.5V91.9h5.4V63.6
			l-10.5,27.8H425l-10.5-27.8v28.3h5.5v10.2h-23.5V91.9z"/>
	</g>
	<g>
		<path fill="#C7C6C5" d="M43.7,7.6c0-3.9-2.5-7.6-7.8-7.6c-6,0-9.9,4.8-9.9,12.7c0,3,0.5,6.4,1.1,9.8C20.3,28.9,12.5,36.2,8.7,40
			c-0.9-1.5-1.4-3.4-1.4-5.3c0-6.7,5.7-11.3,12.3-8.5l2-5c-8.8-4.6-20.2,1.6-20.2,13.6c0,3.8,1.1,7.2,3.1,9.8
			c-3.7,4.9-5.1,9.8-4.3,14.3h0c1.9,18,31.1,23.9,31.1,23.9V70.6c0,0-26.8,0-26.8-14.4l0,0c0-3.2,1.3-5.9,3.3-8.5
			c2.8,1.9,6.2,3.1,10.2,3.1c9.8,0,16.8-6.9,16.8-17.3c0-3.1-0.6-6.9-1.3-10.7C38.8,17.8,43.7,13,43.7,7.6z M17.8,45.1
			c-2.3,0-4.2-0.7-5.8-1.7c5.1-4.9,10.6-10,16-15.2c0.3,2,0.5,3.8,0.5,5.4C28.6,40.4,24.1,45.1,17.8,45.1z M32.6,17.2
			c-0.3-1.8-0.4-3.6-0.4-5c0-3.7,1.5-6.7,4-6.7c1.6,0,2.3,1.2,2.3,2.8C38.5,10.9,36.4,13.4,32.6,17.2z"/>
		<path fill="#C7C6C5" d="M143,31.2c-4.3,7.4-7.2,11.3-9.1,11.3c-0.8,0-2.2-0.8,0.3-6.9l2.2-5.3c0.5-1.2,0.7-2.1,0.7-2.8
			c0-3.6-5.1-6.2-7.3-8.3l2-4.7l-3.1-2c-2.2,0.7-4.9,3.4-4.9,6c0,1.3,0.7,2.4,1.7,3.4c-1.6,3.5-3.2,6.9-4.6,9.3c0,0,0,0,0,0
			c-4,6.9-9.7,11.3-15.1,11.3c-6.9,0-4.2-7.4-4.2-7.4c8,1,12.5-1,15.1-6.6c3.3-6.9-0.3-11.4-5.9-11.4c-7.5,0-12.8,7.6-15,14.6
			c-3.7,6.1-7.9,9.8-12.4,11.4c2.5-2.4,8-11.9,8-19.1c0-4-1.7-6.9-5.4-6.9c-3.5,0-6,2.8-6.2,3l0.9-2.3H74l-5.6,13.9
			c-3.7,6.2-7.5,10.7-10,10.7c-1.3,0-2.1-1.2,0.2-6.9l7.2-17.7H59l-5.7,14.3c-2.5,4.6-5.8,9.7-8.7,9.7c-1.1,0-1.8-0.9,0.4-6.3
			l7.2-17.7h-6.7l-6.4,15.8c-4,9.9-0.8,13.1,3.5,13.1c3.2,0,5.9-2.1,8.2-4.8c0.3,3.4,2.6,4.8,5.4,4.8c2.6,0,5.1-1.4,7.5-3.6
			l-5.5,13.6h6.7l12-29.6c1.9-2.6,4.2-4.6,6.1-4.6c1.1,0,1.7,0.8,1.7,2.3c0,5-5.9,17.5-9.3,17.5c-1,0-1.8-1.1-1.8-1.1l-2.3,2.1
			c0,0,1.8,3.4,8,3.4c6.2,0,11.4-3.4,15.4-8c0.3,5.2,3.4,8,9.4,8c9.3,0,15.6-7.1,19.2-13.6l0,0c1.7-3,3.2-6,4.6-9.1
			c1.6,1.4,2.8,2.3,2.8,3.4c0,0.2-0.1,0.8-0.5,1.8l-2,4.7c-3.9,9.4-0.7,12.7,3.6,12.7c5.4,0,9.6-6.4,13.7-13.6
			C145.2,32.2,143.9,31.3,143,31.2z M110.3,22.5c1.8,0,1.9,1.5,0.6,4.4c-1.3,2.9-3.3,5.5-8.4,4.6C102.5,31.5,105.8,22.5,110.3,22.5z
			"/>
		<path fill="#C7C6C5" d="M149.5,37.8c-2.5,0-4.4,2-4.4,4.4c0,2.5,2,4.4,4.4,4.4c2.4,0,4.4-2,4.4-4.4C154,39.7,152,37.8,149.5,37.8z
			"/>
		<path fill="#C7C6C5" d="M288.3,31.2c-3.8,6.4-7.9,11.3-10.4,11.3c-1.1,0-2.2-1,0.3-6.9l11.5-28.5h-6.7l-5.9,14.4
			c0,0-1-4.4-5.7-4.4c-6.3,0-10.7,7.7-12.9,14.5c-2.7,4.3-5.7,6.1-8.4,5.8c2.1-4.1,3.2-8.7,3.2-11.9c0-5.6-3.2-8.5-8.1-8.5
			c-7.7,0-12.7,7.6-14.8,14.4c-2.7,4.4-5.7,6.2-8.5,6c2.1-4.1,3.3-8.7,3.3-11.9c0-5.6-3.3-8.5-8.1-8.5c-7.7,0-12.7,7.6-14.8,14.4
			c-2.5,4.3-6.8,8.6-12,11.9l6-14.8l-7.4,1.9l-1.5,3.7c-2.7,3.6-7.4,7.3-10.5,7.3c-2.2,0-2.9-1.7-2.9-4.1c0-1.8,0.4-4.2,1.2-6.9
			c0.6,0.1,1.1,0.1,1.8,0.1c7.8,0,14.1-2.8,18.5-6.4c4.9-4.1,7.6-9.5,7.6-14.5c0-5-2.8-9.1-9.1-9.2c-10.8-0.1-19.4,12.5-23.5,23.8
			c-5-1.7-6.8-5.3-6.8-8.5c0-4.6,4-6.8,4.7-7.3l-3.2-4.6c-3.8,2.1-7.1,6.4-7.1,11.8c0,5.4,2.8,10.9,10.8,13.6
			c-0.8,2.9-1.1,5.6-1.1,7.8c0,4.9,2,9.3,7.2,9.3c3.5,0,6.6-2,9-4.1l-1.8,4.6c-2.3,1.1-4.9,2.1-6.3,2.8c-3,1.4-6.2,3.6-6.4,7.2
			c-0.2,3.2,1.8,6.2,6.2,6.2c7.6,0,10.1-8.8,12.5-14.9c4.3-2.2,9.1-5.3,13-9.9c0.1,5.3,3.4,8.2,8.2,8.2c4.3,0,7.8-2.4,10.4-5.7
			c3.6,0.7,6.9-0.6,9.6-3c0,0.1,0,0.1,0,0.2c0,5.6,3.3,8.6,8.2,8.6c4.3,0,7.7-2.4,10.4-5.7c3.3,0.7,6.4-0.4,9.1-2.6
			c-0.1,0.7-0.1,1.3-0.1,1.9c0,3.5,1.9,6.4,5.5,6.4c4.5,0,7.9-4.4,7.9-4.4s0.3,4.4,5.4,4.4c5.9,0,10.9-6.3,15.1-13.6
			C290.5,32.2,289.2,31.3,288.3,31.2z M193.2,7.2c2.4,0,3.3,1.5,3.3,3.5c0,3.4-2.2,7-5.3,9.6c-3.6,3.2-8.2,5.1-14.2,5.1
			C180.7,16.5,187.2,7.2,193.2,7.2z M174.8,58.5c-0.7,0-1.5-0.3-1.5-1.4c0-1.4,1.4-2.6,2.7-3.4c0.9-0.5,2.5-1.2,4.3-2
			C178.2,56.7,176.4,58.5,174.8,58.5z M217.2,32.3c-2.2-0.2-4.1,1.5-4.1,3.7c0,1,0.4,1.9,1.1,2.6c-1.5,2.2-3.1,3.7-4.7,3.7
			c-1.4,0-2.3-1.2-2.3-3.1c0-4.7,5-17.5,9.6-17.5c1.2,0,2.2,0.9,2.2,3.1C219.1,26.5,218.4,29.4,217.2,32.3z M245.4,32.3
			c-2.2-0.2-4.1,1.5-4.1,3.7c0,1,0.4,1.9,1.1,2.6c-1.5,2.2-3.1,3.7-4.7,3.7c-1.4,0-2.3-1.2-2.3-3.1c0-4.7,5-17.5,9.6-17.5
			c1.2,0,2.2,0.9,2.2,3.1C247.2,26.5,246.5,29.4,245.4,32.3z M271,36.6c0,0-2.9,4.7-6,4.7c-1.1,0-1.7-0.7-1.7-2.2
			c0-4,4.5-16.4,9.3-16.4c2.6,0,2.6,3.6,2.6,3.6L271,36.6z"/>
		<path fill="#C7C6C5" d="M294.8,37.8c-2.5,0-4.4,2-4.4,4.4c0,2.5,2,4.4,4.4,4.4c2.4,0,4.4-2,4.4-4.4
			C299.3,39.7,297.3,37.8,294.8,37.8z"/>
	</g>
	<g>
		<path fill="#C7C6C5" d="M182,122.2l2.3-0.6v3.7l-2.3,0.7v9.2l2.3-0.7v3.7l-2.3,0.6v8.7h-3.2v-7.8l-3.3,0.9v7h-3.2v-6.1L170,142
			v-3.7l2.3-0.6v-9.2l-2.3,0.6v-3.7l2.3-0.6v-8.4h3.2v7.5l3.3-0.9v-6.6h3.2V122.2z M175.5,136.9l3.3-0.9v-9.2l-3.3,0.9V136.9z"/>
		<path fill="#C7C6C5" d="M196.7,128.4c0-1.4-0.7-2-2-2h-0.6c-1.4,0-2,0.7-2,2v2.1c0,1.1,0.3,1.7,1.2,2.2l4,2.5
			c1.9,1.2,2.8,2.3,2.8,4.7v2.4c0,3.6-1.8,5.4-5.4,5.4H194c-3.5,0-5.3-1.8-5.3-5.3v-3.5h3.3v3.7c0,1.4,0.7,2,2,2h0.7
			c1.4,0,2-0.7,2-2v-2.2c0-1-0.4-1.7-1.2-2.2l-4-2.5c-1.9-1.2-2.8-2.3-2.8-4.7v-2.2c0-3.6,1.8-5.4,5.4-5.4h0.6
			c3.5,0,5.3,1.8,5.3,5.3v3.3h-3.3V128.4z"/>
		<path fill="#C7C6C5" d="M216.7,147.4h-3.3v-1.5c-1,0.9-2.2,1.8-4.2,1.8c-2.8,0-4-1.6-4-4.3v-19.8h3.3v19.1c0,1.2,0.6,1.8,1.7,1.8
			c1.1,0,2-0.4,3.2-1.2v-19.7h3.3V147.4z"/>
		<path fill="#C7C6C5" d="M229.4,147.6c-1.9,0-3.3-0.9-4.1-1.7v6.3H222v-28.6h3.3v1.5c0.8-0.8,2.2-1.8,4.1-1.8
			c2.9,0,4.3,1.9,4.3,4.7v14.9C233.7,145.7,232.3,147.6,229.4,147.6z M228.4,126.5c-1.1,0-2.2,0.4-3.1,1.2v15.5
			c0.9,0.8,2,1.2,3.1,1.2c1.2,0,1.9-0.6,1.9-1.9v-14.1C230.4,127.1,229.7,126.5,228.4,126.5z"/>
		<path fill="#C7C6C5" d="M242.1,136.7v5.7c0,1.4,0.7,2.1,2.1,2.1h0.6c1.4,0,2.1-0.7,2.1-2.1v-2.7h3.3v2.6c0,3.6-1.8,5.4-5.4,5.4
			h-0.7c-3.6,0-5.4-1.8-5.4-5.4v-13.6c0-3.6,1.8-5.4,5.4-5.4h0.7c3.6,0,5.4,1.8,5.4,5.4v8H242.1z M242.1,133.5h4.8v-5
			c0-1.4-0.7-2.1-2.1-2.1h-0.5c-1.4,0-2.1,0.7-2.1,2.1V133.5z"/>
		<path fill="#C7C6C5" d="M255.4,123.6h3.3v2.5c1-1.8,2-2.7,3.8-2.7v3.8c-1.7,0.1-2.9,0.6-3.8,1.5v18.7h-3.3V123.6z"/>
		<path fill="#C7C6C5" d="M278.1,147.2c0,3.5-1.7,5.2-5.2,5.2h-1.8c-3.2,0-4.7-1.5-4.7-4.6v-1.3h3.1v1.1c0,1.2,0.5,1.9,1.7,1.9h1.7
			c1.2,0,1.7-0.7,1.7-1.9v-4.3c-1.1,1-2.3,1.6-4.1,1.6c-2.9,0-4.3-1.9-4.3-4.7V128c0-2.8,1.4-4.7,4.3-4.7c1.9,0,3.3,0.9,4.1,1.7
			v-1.5h3.3V147.2z M274.7,127.7c-0.9-0.8-2-1.2-3.1-1.2c-1.2,0-1.9,0.6-1.9,1.9v11.4c0,1.4,0.7,1.9,1.9,1.9c1.1,0,2.2-0.4,3.1-1.1
			V127.7z"/>
		<path fill="#C7C6C5" d="M288.6,147.6c-3.6,0-5.4-1.8-5.4-5.4v-13.6c0-3.6,1.8-5.4,5.4-5.4h1c3.6,0,5.4,1.8,5.4,5.4v13.6
			c0,3.6-1.8,5.4-5.4,5.4H288.6z M288.7,126.5c-1.4,0-2.1,0.7-2.1,2.1v13.8c0,1.4,0.7,2.1,2.1,2.1h0.8c1.4,0,2.1-0.7,2.1-2.1v-13.8
			c0-1.4-0.7-2.1-2.1-2.1H288.7z"/>
		<path fill="#C7C6C5" d="M305.4,147.6c-3.6,0-5.4-1.8-5.4-5.4v-13.6c0-3.6,1.8-5.4,5.4-5.4h1c3.6,0,5.4,1.8,5.4,5.4v13.6
			c0,3.6-1.8,5.4-5.4,5.4H305.4z M305.5,126.5c-1.4,0-2.1,0.7-2.1,2.1v13.8c0,1.4,0.7,2.1,2.1,2.1h0.8c1.4,0,2.1-0.7,2.1-2.1v-13.8
			c0-1.4-0.7-2.1-2.1-2.1H305.5z"/>
		<path fill="#C7C6C5" d="M328.5,147.4h-3.3v-1.5c-0.8,0.8-2.2,1.8-4.1,1.8c-2.9,0-4.3-1.9-4.3-4.7V128c0-2.8,1.4-4.7,4.3-4.7
			c1.9,0,3.3,0.9,4.1,1.7v-8.9h3.3V147.4z M325.2,127.7c-0.9-0.8-2-1.2-3.1-1.2c-1.2,0-1.9,0.6-1.9,1.9v14.1c0,1.4,0.7,1.9,1.9,1.9
			c1.1,0,2.2-0.4,3.1-1.2V127.7z"/>
		<path fill="#C7C6C5" d="M333.8,117.4h3.5v3.7h-3.5V117.4z M333.9,123.6h3.3v23.8h-3.3V123.6z"/>
		<path fill="#C7C6C5" d="M350.8,128.6c0-1.4-0.7-2.1-2.1-2.1H348c-1.4,0-2.1,0.7-2.1,2.1v13.8c0,1.4,0.7,2.1,2.1,2.1h0.7
			c1.4,0,2.1-0.7,2.1-2.1v-4.7h3.3v4.6c0,3.6-1.8,5.4-5.4,5.4h-0.8c-3.6,0-5.4-1.8-5.4-5.4v-13.6c0-3.6,1.8-5.4,5.4-5.4h0.8
			c3.5,0,5.3,1.8,5.3,5.3v3.9h-3.3V128.6z"/>
		<path fill="#C7C6C5" d="M362.4,136.7v5.7c0,1.4,0.7,2.1,2.1,2.1h0.6c1.4,0,2.1-0.7,2.1-2.1v-2.7h3.3v2.6c0,3.6-1.8,5.4-5.4,5.4
			h-0.7c-3.6,0-5.4-1.8-5.4-5.4v-13.6c0-3.6,1.8-5.4,5.4-5.4h0.7c3.6,0,5.4,1.8,5.4,5.4v8H362.4z M362.4,133.5h4.8v-5
			c0-1.4-0.7-2.1-2.1-2.1h-0.5c-1.4,0-2.1,0.7-2.1,2.1V133.5z"/>
		<path fill="#C7C6C5" d="M383.7,128.6c0-1.4-0.7-2.1-2.1-2.1H381c-1.4,0-2.1,0.7-2.1,2.1v13.8c0,1.4,0.7,2.1,2.1,2.1h0.7
			c1.4,0,2.1-0.7,2.1-2.1v-4.7h3.3v4.6c0,3.6-1.8,5.4-5.4,5.4h-0.8c-3.6,0-5.4-1.8-5.4-5.4v-13.6c0-3.6,1.8-5.4,5.4-5.4h0.8
			c3.5,0,5.3,1.8,5.3,5.3v3.9h-3.3V128.6z"/>
		<path fill="#C7C6C5" d="M392.2,123.6h3.3v2.5c1-1.8,2-2.7,3.8-2.7v3.8c-1.7,0.1-2.9,0.6-3.8,1.5v18.7h-3.3V123.6z"/>
		<path fill="#C7C6C5" d="M406.6,136.7v5.7c0,1.4,0.7,2.1,2.1,2.1h0.6c1.4,0,2.1-0.7,2.1-2.1v-2.7h3.3v2.6c0,3.6-1.8,5.4-5.4,5.4
			h-0.7c-3.6,0-5.4-1.8-5.4-5.4v-13.6c0-3.6,1.8-5.4,5.4-5.4h0.7c3.6,0,5.4,1.8,5.4,5.4v8H406.6z M406.6,133.5h4.8v-5
			c0-1.4-0.7-2.1-2.1-2.1h-0.5c-1.4,0-2.1,0.7-2.1,2.1V133.5z"/>
		<path fill="#C7C6C5" d="M419.5,139.1c0-2.9,1-4.1,3.5-5l4.5-1.5v-4c0-1.4-0.7-2.2-2.1-2.2h-0.3c-1.4,0-2.1,0.7-2.1,2.2v3h-3.3
			v-2.8c0-3.6,1.8-5.4,5.4-5.4h0.4c3.6,0,5.4,1.8,5.4,5.4v18.7h-3.3v-1.5c-0.9,0.9-2.2,1.8-4.1,1.8c-2.7,0-3.9-1.5-3.9-4.2V139.1z
			 M427.5,143.4v-7.8l-3,1.1c-1.2,0.5-1.6,1.1-1.6,2.5v3.6c0,1.1,0.6,1.7,1.6,1.7C425.5,144.5,426.4,144.1,427.5,143.4z"/>
		<path fill="#C7C6C5" d="M447.4,147.4h-3.3v-19.2c0-1.2-0.6-1.7-1.6-1.7c-0.9,0-1.9,0.4-3.1,1.2v19.7h-3.3v-23.8h3.3v1.5
			c1-0.9,2.2-1.8,4.1-1.8c1.7,0,2.9,0.7,3.5,1.9c1.2-1,2.6-1.9,4.5-1.9c2.6,0,3.9,1.6,3.9,4.2v19.9h-3.3v-19.2
			c0-1.2-0.6-1.7-1.6-1.7c-0.9,0-1.9,0.4-3.1,1.2V147.4z"/>
	</g>
</g>
</svg>
