<?xml version="1.0" encoding="utf-8"?>
<!-- Generator: Adobe Illustrator 19.2.1, SVG Export Plug-In . SVG Version: 6.00 Build 0)  -->
<svg version="1.1" id="Layer_1" xmlns="http://www.w3.org/2000/svg" xmlns:xlink="http://www.w3.org/1999/xlink" x="0px" y="0px"
	 viewBox="0 0 450 100" style="enable-background:new 0 0 450 100;" xml:space="preserve">
<g>
	<path class="st0" d="M27.6,12.2c-0.2-0.2-0.5-0.3-0.8-0.4c-0.2-0.5-0.5-1-0.9-1.4c-0.6-0.6-1.3-0.9-2.1-1l0-0.3
		c0-0.6-0.3-1.1-0.7-1.1l-1,0l0-3.6l-3.9,0l0,3.6l-1,0l-0.1,0c-0.3,0.1-0.6,0.5-0.6,1.1l0,0.3c-0.2,0-0.3,0-0.4,0.1
		c-1.2,0.3-2.1,1.2-2.5,2.3c-0.7,0.1-1.3,0.7-1.3,1.4l-0.1,31.2c0,0.2,0.1,0.4,0.2,0.5c0.1,0.1,0.2,0.2,0.4,0.2c0,0,0,0.1,0.1,0.1
		c0.2,0.2,0.5,0.3,0.8,0.3l12.8,0.1c0.1,0,0.2,0,0.3,0c0.2-0.1,0.4-0.2,0.5-0.3c0,0,0.1,0,0.1,0c0.3-0.1,0.5-0.4,0.5-0.7L28,13.2
		C28,12.9,27.8,12.5,27.6,12.2z M13.7,13.8l0-0.2l12.7,0.1l0.1,0l-0.1,28.1l-4,0l-8.9,0L13.7,13.8z M26.4,43.7l-12.9-0.1l0-1.4
		l12.9,0.1L26.4,43.7z"/>
	<path class="st0" d="M24.7,25c0.1-0.1,0.1-0.3,0-0.4c-0.1-0.1-0.2-0.2-0.3-0.2l-2.4,0l1.7-4.8c0-0.1,0-0.2,0-0.3
		c-0.1-0.1-0.2-0.2-0.3-0.2l-3.6,0c-0.1,0-0.3,0.1-0.3,0.2L15.9,28c0,0.1,0,0.2,0,0.3c0.1,0.1,0.2,0.2,0.3,0.2l2.1,0l-2.4,7.9
		c-0.1,0.2,0,0.4,0.2,0.4c0.1,0,0.2,0,0.3,0c0.1,0,0.2-0.1,0.2-0.1L24.7,25z"/>
</g>
<g>
	<path class="st0" d="M78.1,12.6c-0.2-0.2-0.5-0.4-0.8-0.4c-0.2-0.5-0.4-1-0.8-1.4c-0.5-0.6-1.2-1-2-1.1l0-0.3
		c0-0.6-0.2-1.1-0.6-1.1l-1,0L73,4.6l-3.9-0.2L68.9,8l-1,0l-0.1,0c-0.3,0.1-0.6,0.5-0.6,1l0,0.3c-0.2,0-0.3,0-0.4,0.1
		c-1.2,0.3-2.1,1.1-2.6,2.2c-0.7,0.1-1.3,0.6-1.3,1.3L61.4,44c0,0.2,0.1,0.4,0.2,0.5c0.1,0.1,0.2,0.2,0.4,0.2c0,0,0,0.1,0,0.1
		c0.2,0.2,0.5,0.3,0.7,0.4l12.8,0.6c0.1,0,0.2,0,0.3,0c0.2,0,0.4-0.2,0.5-0.3c0,0,0.1,0,0.1,0c0.3-0.1,0.5-0.3,0.5-0.7l1.4-31.2
		C78.5,13.2,78.4,12.8,78.1,12.6z M64.2,13.5l0-0.2l12.7,0.6l0.1,0l-1.3,28l-4-0.2l-8.9-0.4L64.2,13.5z M75.7,44l-12.9-0.6l0.1-1.4
		l12.9,0.6L75.7,44z"/>
	<path class="st0" d="M74.7,25.2c0.1-0.1,0.1-0.3,0-0.4c-0.1-0.1-0.2-0.2-0.3-0.2L72,24.5l1.9-4.7c0-0.1,0-0.2,0-0.3
		s-0.2-0.2-0.3-0.2l-3.5-0.2c-0.1,0-0.3,0.1-0.3,0.2l-4,8.5c-0.1,0.1,0,0.2,0,0.3c0.1,0.1,0.2,0.2,0.3,0.2l2.1,0.1l-2.7,7.8
		c-0.1,0.2,0,0.4,0.2,0.4c0.1,0,0.2,0.1,0.3,0c0.1,0,0.2-0.1,0.2-0.1L74.7,25.2z"/>
</g>
<g>
	<path class="st0" d="M128.6,12.9c-0.2-0.2-0.5-0.4-0.8-0.5c-0.1-0.5-0.4-1-0.7-1.4c-0.5-0.6-1.2-1-2-1.2l0-0.3
		c0.1-0.6-0.2-1.1-0.6-1.1l-1-0.1l0.3-3.6l-3.9-0.3L119.6,8l-1-0.1l-0.1,0c-0.3,0.1-0.6,0.5-0.6,1l0,0.3c-0.2,0-0.3,0-0.5,0.1
		c-1.2,0.2-2.2,1-2.6,2.1c-0.7,0-1.3,0.6-1.4,1.3l-2.7,31.1c0,0.2,0,0.4,0.2,0.5c0.1,0.1,0.2,0.2,0.4,0.2c0,0,0,0.1,0,0.1
		c0.2,0.2,0.4,0.4,0.7,0.4l12.8,1.1c0.1,0,0.2,0,0.3,0c0.2,0,0.4-0.2,0.6-0.3c0,0,0.1,0,0.1,0c0.3-0.1,0.5-0.3,0.6-0.6l2.7-31.1
		C128.9,13.5,128.8,13.2,128.6,12.9z M114.6,13.3l0-0.2l12.7,1.1l0.1,0l-2.4,28l-4-0.3l-8.8-0.8L114.6,13.3z M124.9,44.2l-12.8-1.1
		l0.1-1.4l12.8,1.1L124.9,44.2z"/>
	<path class="st0" d="M124.7,25.4c0.1-0.1,0.1-0.2,0.1-0.4c-0.1-0.1-0.2-0.2-0.3-0.2l-2.4-0.2l2.1-4.6c0-0.1,0-0.2,0-0.3
		c-0.1-0.1-0.2-0.2-0.3-0.2l-3.5-0.3c-0.1,0-0.3,0.1-0.4,0.2l-4.3,8.3c-0.1,0.1-0.1,0.2,0,0.3c0.1,0.1,0.2,0.2,0.3,0.2l2.1,0.2
		l-3,7.7c-0.1,0.2,0,0.4,0.2,0.4c0.1,0,0.2,0.1,0.2,0c0.1,0,0.2-0.1,0.2-0.1L124.7,25.4z"/>
</g>
<g>
	<path class="st0" d="M179.4,13.5c-0.2-0.3-0.5-0.4-0.8-0.5c-0.1-0.5-0.3-1-0.6-1.5c-0.5-0.6-1.1-1.1-1.9-1.3l0-0.3
		c0.1-0.6-0.1-1.1-0.5-1.2l-1-0.2l0.5-3.5l-3.9-0.6L170.7,8l-1-0.1l-0.1,0c-0.3,0-0.6,0.4-0.7,1l0,0.3c-0.2,0-0.3,0-0.5,0
		c-1.2,0.1-2.2,0.9-2.8,1.9c-0.7,0-1.4,0.5-1.5,1.2L159.4,43c0,0.2,0,0.4,0.1,0.5c0.1,0.1,0.2,0.2,0.4,0.2c0,0,0,0.1,0,0.1
		c0.2,0.2,0.4,0.4,0.7,0.4l12.7,1.9c0.1,0,0.2,0,0.3,0c0.2,0,0.4-0.1,0.6-0.3c0,0,0.1,0,0.1,0c0.3,0,0.6-0.3,0.6-0.6l4.7-30.8
		C179.7,14.2,179.6,13.8,179.4,13.5z M165.4,13l0-0.2l12.6,1.9l0.1,0L174,42.4l-3.9-0.6l-8.8-1.3L165.4,13z M173.6,44.5l-12.7-1.9
		l0.2-1.3l12.7,1.9L173.6,44.5z"/>
	<path class="st0" d="M174.6,25.7c0.1-0.1,0.1-0.2,0.1-0.4c0-0.1-0.2-0.2-0.3-0.2l-2.3-0.4l2.4-4.5c0.1-0.1,0.1-0.2,0-0.3
		c-0.1-0.1-0.2-0.2-0.3-0.2l-3.5-0.5c-0.1,0-0.3,0-0.4,0.2l-4.9,8c-0.1,0.1-0.1,0.2,0,0.3c0.1,0.1,0.2,0.2,0.3,0.2l2.1,0.3l-3.5,7.5
		c-0.1,0.2,0,0.4,0.1,0.5c0.1,0.1,0.2,0.1,0.2,0.1c0.1,0,0.2,0,0.2-0.1L174.6,25.7z"/>
</g>
<g>
	<path class="st0" d="M230.2,14.3c-0.2-0.3-0.4-0.5-0.7-0.6c-0.1-0.5-0.2-1.1-0.5-1.5c-0.4-0.7-1-1.2-1.8-1.5l0.1-0.3
		c0.1-0.6,0-1.1-0.4-1.2l-1-0.2l0.8-3.5l-3.8-0.9L222,8.1l-1-0.2l-0.1,0c-0.4,0-0.7,0.4-0.8,0.9L220,9.1c-0.2,0-0.3,0-0.5,0
		c-1.2,0.1-2.3,0.7-2.9,1.7c-0.7-0.1-1.4,0.4-1.5,1.1l-7,30.4c0,0.2,0,0.4,0.1,0.5c0.1,0.1,0.2,0.2,0.3,0.3c0,0,0,0.1,0,0.1
		c0.2,0.2,0.4,0.4,0.7,0.5l12.5,2.9c0.1,0,0.2,0,0.3,0c0.2,0,0.4-0.1,0.6-0.2c0,0,0.1,0,0.1,0c0.3,0,0.6-0.2,0.7-0.5l7-30.4
		C230.5,15,230.4,14.6,230.2,14.3z M216.4,12.7l0.1-0.2l12.4,2.8l0.1,0l-6.3,27.4l-3.9-0.9l-8.7-2L216.4,12.7z M222.2,44.7
		l-12.5-2.9l0.3-1.3l12.5,2.9L222.2,44.7z"/>
	<path class="st0" d="M224.6,26.1c0.1-0.1,0.1-0.2,0.1-0.4c0-0.1-0.1-0.2-0.3-0.3l-2.3-0.5l2.7-4.3c0.1-0.1,0.1-0.2,0-0.3
		c0-0.1-0.1-0.2-0.3-0.2l-3.5-0.8c-0.1,0-0.3,0-0.4,0.1l-5.5,7.7c-0.1,0.1-0.1,0.2,0,0.3s0.1,0.2,0.3,0.2l2.1,0.5l-4.1,7.2
		c-0.1,0.2,0,0.4,0.1,0.5c0.1,0.1,0.2,0.1,0.2,0.1c0.1,0,0.2,0,0.2-0.1L224.6,26.1z"/>
</g>
<g>
	<path class="st0" d="M280.8,14.9c-0.2-0.3-0.4-0.5-0.7-0.6c0-0.5-0.2-1.1-0.4-1.6c-0.4-0.7-1-1.2-1.7-1.5l0.1-0.3
		c0.2-0.6,0-1.1-0.4-1.2l-1-0.3l1-3.4l-3.8-1.1l-1,3.4L272,8l-0.1,0c-0.4,0-0.7,0.3-0.8,0.9l-0.1,0.3c-0.2,0-0.3,0-0.5,0
		c-1.2,0-2.3,0.6-3,1.5c-0.7-0.1-1.4,0.3-1.6,1l-8.6,30c-0.1,0.2,0,0.4,0.1,0.5c0.1,0.1,0.2,0.2,0.3,0.3c0,0,0,0.1,0,0.1
		c0.1,0.3,0.4,0.4,0.6,0.5l12.3,3.5c0.1,0,0.2,0,0.3,0c0.2,0,0.4-0.1,0.6-0.2c0,0,0.1,0,0.1,0c0.3,0,0.6-0.2,0.7-0.5l8.6-30
		C281,15.6,281,15.2,280.8,14.9z M267,12.6l0.1-0.2l12.2,3.5l0.1,0l-7.7,27l-3.8-1.1l-8.5-2.4L267,12.6z M271.2,44.9l-12.4-3.5
		l0.4-1.3l12.4,3.5L271.2,44.9z"/>
	<path class="st0" d="M274.6,26.4c0.1-0.1,0.2-0.2,0.1-0.4c0-0.1-0.1-0.2-0.3-0.3l-2.3-0.7l3-4.1c0.1-0.1,0.1-0.2,0-0.3
		c0-0.1-0.1-0.2-0.2-0.2l-3.4-1c-0.1,0-0.3,0-0.4,0.1l-5.9,7.4c-0.1,0.1-0.1,0.2-0.1,0.3c0,0.1,0.1,0.2,0.2,0.2l2.1,0.6l-4.5,7
		c-0.1,0.2-0.1,0.3,0.1,0.5c0.1,0.1,0.2,0.1,0.2,0.1c0.1,0,0.2,0,0.2-0.1L274.6,26.4z"/>
</g>
<path class="st0" d="M279.7,7.6c0.1,0,0.2,0,0.3,0l0.8-0.3c0.4-0.1,0.6-0.6,0.4-0.9c-0.1-0.4-0.6-0.6-0.9-0.4l-0.8,0.3
	c-0.4,0.1-0.6,0.6-0.4,0.9C279.1,7.4,279.4,7.6,279.7,7.6z"/>
<path class="st0" d="M283.3,8.5c-0.1-0.4-0.5-0.6-0.9-0.5l-1.7,0.4c-0.4,0.1-0.6,0.5-0.5,0.9c0.1,0.3,0.4,0.6,0.7,0.6
	c0.1,0,0.1,0,0.2,0l1.7-0.4C283.1,9.3,283.3,8.9,283.3,8.5z"/>
<g>
	<path class="st0" d="M330.8,14.9c-0.2-0.3-0.4-0.5-0.7-0.6c0-0.5-0.2-1.1-0.4-1.6c-0.4-0.7-1-1.2-1.7-1.5l0.1-0.3
		c0.2-0.6,0-1.1-0.4-1.2l-1-0.3l1-3.4l-3.8-1.1l-1,3.4L322,8l-0.1,0c-0.4,0-0.7,0.3-0.8,0.9l-0.1,0.3c-0.2,0-0.3,0-0.5,0
		c-1.2,0-2.3,0.6-3,1.5c-0.7-0.1-1.4,0.3-1.6,1l-8.6,30c-0.1,0.2,0,0.4,0.1,0.5c0.1,0.1,0.2,0.2,0.3,0.3c0,0,0,0.1,0,0.1
		c0.1,0.3,0.4,0.4,0.6,0.5l12.3,3.5c0.1,0,0.2,0,0.3,0c0.2,0,0.4-0.1,0.6-0.2c0,0,0.1,0,0.1,0c0.3,0,0.6-0.2,0.7-0.5l8.6-30
		C331,15.6,331,15.2,330.8,14.9z M317,12.6l0.1-0.2l12.2,3.5l0.1,0l-7.7,27l-3.8-1.1l-8.5-2.4L317,12.6z M321.2,44.9l-12.4-3.5
		l0.4-1.3l12.4,3.5L321.2,44.9z"/>
	<path class="st0" d="M324.6,26.4c0.1-0.1,0.2-0.2,0.1-0.4c0-0.1-0.1-0.2-0.3-0.3l-2.3-0.7l3-4.1c0.1-0.1,0.1-0.2,0-0.3
		c0-0.1-0.1-0.2-0.2-0.2l-3.4-1c-0.1,0-0.3,0-0.4,0.1l-5.9,7.4c-0.1,0.1-0.1,0.2-0.1,0.3c0,0.1,0.1,0.2,0.2,0.2l2.1,0.6l-4.5,7
		c-0.1,0.2-0.1,0.3,0.1,0.5c0.1,0.1,0.2,0.1,0.2,0.1c0.1,0,0.2,0,0.2-0.1L324.6,26.4z"/>
</g>
<path class="st0" d="M335.1,10.6l-1.7-0.1c-0.4,0-0.7,0.3-0.8,0.7s0.3,0.7,0.7,0.8l1.7,0.1c0,0,0,0,0,0c0.4,0,0.7-0.3,0.7-0.7
	C335.8,11,335.5,10.6,335.1,10.6z"/>
<path class="st0" d="M329.7,7.6c0.1,0,0.2,0,0.3,0l0.8-0.3c0.4-0.1,0.6-0.6,0.4-0.9c-0.1-0.4-0.6-0.6-0.9-0.4l-0.8,0.3
	c-0.4,0.1-0.6,0.6-0.4,0.9C329.1,7.4,329.4,7.6,329.7,7.6z"/>
<path class="st0" d="M333.3,8.5c-0.1-0.4-0.5-0.6-0.9-0.5l-1.7,0.4c-0.4,0.1-0.6,0.5-0.5,0.9c0.1,0.3,0.4,0.6,0.7,0.6
	c0.1,0,0.1,0,0.2,0l1.7-0.4C333.1,9.3,333.3,8.9,333.3,8.5z"/>
<path class="st0" d="M337.9,7.4c-0.1-0.4-0.5-0.6-0.9-0.5l-1.7,0.4c-0.4,0.1-0.6,0.5-0.5,0.9c0.1,0.3,0.4,0.6,0.7,0.6
	c0.1,0,0.1,0,0.2,0l1.7-0.4C337.7,8.2,338,7.8,337.9,7.4z"/>
<g>
	<path class="st0" d="M380.8,14.9c-0.2-0.3-0.4-0.5-0.7-0.6c0-0.5-0.2-1.1-0.4-1.6c-0.4-0.7-1-1.2-1.7-1.5l0.1-0.3
		c0.2-0.6,0-1.1-0.4-1.2l-1-0.3l1-3.4l-3.8-1.1l-1,3.4L372,8l-0.1,0c-0.4,0-0.7,0.3-0.8,0.9l-0.1,0.3c-0.2,0-0.3,0-0.5,0
		c-1.2,0-2.3,0.6-3,1.5c-0.7-0.1-1.4,0.3-1.6,1l-8.6,30c-0.1,0.2,0,0.4,0.1,0.5c0.1,0.1,0.2,0.2,0.3,0.3c0,0,0,0.1,0,0.1
		c0.1,0.3,0.4,0.4,0.6,0.5l12.3,3.5c0.1,0,0.2,0,0.3,0c0.2,0,0.4-0.1,0.6-0.2c0,0,0.1,0,0.1,0c0.3,0,0.6-0.2,0.7-0.5l8.6-30
		C381,15.6,381,15.2,380.8,14.9z M367,12.6l0.1-0.2l12.2,3.5l0.1,0l-7.7,27l-3.8-1.1l-8.5-2.4L367,12.6z M371.2,44.9l-12.4-3.5
		l0.4-1.3l12.4,3.5L371.2,44.9z"/>
	<path class="st0" d="M374.6,26.4c0.1-0.1,0.2-0.2,0.1-0.4c0-0.1-0.1-0.2-0.3-0.3l-2.3-0.7l3-4.1c0.1-0.1,0.1-0.2,0-0.3
		c0-0.1-0.1-0.2-0.2-0.2l-3.4-1c-0.1,0-0.3,0-0.4,0.1l-5.9,7.4c-0.1,0.1-0.1,0.2-0.1,0.3c0,0.1,0.1,0.2,0.2,0.2l2.1,0.6l-4.5,7
		c-0.1,0.2-0.1,0.3,0.1,0.5c0.1,0.1,0.2,0.1,0.2,0.1c0.1,0,0.2,0,0.2-0.1L374.6,26.4z"/>
</g>
<path class="st0" d="M385.1,10.6l-1.7-0.1c-0.4,0-0.7,0.3-0.8,0.7s0.3,0.7,0.7,0.8l1.7,0.1c0,0,0,0,0,0c0.4,0,0.7-0.3,0.7-0.7
	C385.8,11,385.5,10.6,385.1,10.6z"/>
<path class="st0" d="M383.3,6.2c0.1,0,0.2,0,0.3,0l1.6-0.6c0.4-0.1,0.6-0.6,0.4-0.9c-0.1-0.4-0.6-0.6-0.9-0.4L383,4.8
	c-0.4,0.1-0.6,0.6-0.4,0.9C382.7,6,383,6.2,383.3,6.2z"/>
<path class="st0" d="M379.7,7.6c0.1,0,0.2,0,0.3,0l0.8-0.3c0.4-0.1,0.6-0.6,0.4-0.9c-0.1-0.4-0.6-0.6-0.9-0.4l-0.8,0.3
	c-0.4,0.1-0.6,0.6-0.4,0.9C379.1,7.4,379.4,7.6,379.7,7.6z"/>
<path class="st0" d="M392.5,6.3c-0.1-0.4-0.5-0.6-0.9-0.5l-1.7,0.4c-0.4,0.1-0.6,0.5-0.5,0.9c0.1,0.3,0.4,0.6,0.7,0.6
	c0.1,0,0.1,0,0.2,0l1.7-0.4C392.3,7.1,392.6,6.7,392.5,6.3z"/>
<path class="st0" d="M383.3,8.5c-0.1-0.4-0.5-0.6-0.9-0.5l-1.7,0.4c-0.4,0.1-0.6,0.5-0.5,0.9c0.1,0.3,0.4,0.6,0.7,0.6
	c0.1,0,0.1,0,0.2,0l1.7-0.4C383.1,9.3,383.3,8.9,383.3,8.5z"/>
<path class="st0" d="M387.9,7.4c-0.1-0.4-0.5-0.6-0.9-0.5l-1.7,0.4c-0.4,0.1-0.6,0.5-0.5,0.9c0.1,0.3,0.4,0.6,0.7,0.6
	c0.1,0,0.1,0,0.2,0l1.7-0.4C387.7,8.2,388,7.8,387.9,7.4z"/>
<g>
	<path class="st0" d="M430.8,14.9c-0.2-0.3-0.4-0.5-0.7-0.6c0-0.5-0.2-1.1-0.4-1.6c-0.4-0.7-1-1.2-1.7-1.5l0.1-0.3
		c0.2-0.6,0-1.1-0.4-1.2l-1-0.3l1-3.4l-3.8-1.1l-1,3.4L422,8l-0.1,0c-0.4,0-0.7,0.3-0.8,0.9l-0.1,0.3c-0.2,0-0.3,0-0.5,0
		c-1.2,0-2.3,0.6-3,1.5c-0.7-0.1-1.4,0.3-1.6,1l-8.6,30c-0.1,0.2,0,0.4,0.1,0.5c0.1,0.1,0.2,0.2,0.3,0.3c0,0,0,0.1,0,0.1
		c0.1,0.3,0.4,0.4,0.6,0.5l12.3,3.5c0.1,0,0.2,0,0.3,0c0.2,0,0.4-0.1,0.6-0.2c0,0,0.1,0,0.1,0c0.3,0,0.6-0.2,0.7-0.5l8.6-30
		C431,15.6,431,15.2,430.8,14.9z M417,12.6l0.1-0.2l12.2,3.5l0.1,0l-7.7,27l-3.8-1.1l-8.5-2.4L417,12.6z M421.2,44.9l-12.4-3.5
		l0.4-1.3l12.4,3.5L421.2,44.9z"/>
	<path class="st0" d="M424.6,26.4c0.1-0.1,0.2-0.2,0.1-0.4c0-0.1-0.1-0.2-0.3-0.3l-2.3-0.7l3-4.1c0.1-0.1,0.1-0.2,0-0.3
		c0-0.1-0.1-0.2-0.2-0.2l-3.4-1c-0.1,0-0.3,0-0.4,0.1l-5.9,7.4c-0.1,0.1-0.1,0.2-0.1,0.3c0,0.1,0.1,0.2,0.2,0.2l2.1,0.6l-4.5,7
		c-0.1,0.2-0.1,0.3,0.1,0.5c0.1,0.1,0.2,0.1,0.2,0.1c0.1,0,0.2,0,0.2-0.1L424.6,26.4z"/>
</g>
<path class="st0" d="M439.9,10.9l-1.7-0.1c-0.4,0-0.7,0.3-0.8,0.7s0.3,0.7,0.7,0.8l1.7,0.1c0,0,0,0,0,0c0.4,0,0.7-0.3,0.7-0.7
	C440.6,11.2,440.3,10.9,439.9,10.9z"/>
<path class="st0" d="M435.1,10.6l-1.7-0.1c-0.4,0-0.7,0.3-0.8,0.7s0.3,0.7,0.7,0.8l1.7,0.1c0,0,0,0,0,0c0.4,0,0.7-0.3,0.7-0.7
	C435.8,11,435.5,10.6,435.1,10.6z"/>
<path class="st0" d="M433.3,6.2c0.1,0,0.2,0,0.3,0l1.6-0.6c0.4-0.1,0.6-0.6,0.4-0.9c-0.1-0.4-0.6-0.6-0.9-0.4L433,4.8
	c-0.4,0.1-0.6,0.6-0.4,0.9C432.7,6,433,6.2,433.3,6.2z"/>
<path class="st0" d="M437.7,4.5c0.1,0,0.2,0,0.3,0l1.6-0.6c0.4-0.1,0.6-0.6,0.4-0.9c-0.1-0.4-0.6-0.6-0.9-0.4l-1.6,0.6
	c-0.4,0.1-0.6,0.6-0.4,0.9C437.2,4.3,437.4,4.5,437.7,4.5z"/>
<path class="st0" d="M429.7,7.6c0.1,0,0.2,0,0.3,0l0.8-0.3c0.4-0.1,0.6-0.6,0.4-0.9c-0.1-0.4-0.6-0.6-0.9-0.4l-0.8,0.3
	c-0.4,0.1-0.6,0.6-0.4,0.9C429.1,7.4,429.4,7.6,429.7,7.6z"/>
<path class="st0" d="M442.5,6.3c-0.1-0.4-0.5-0.6-0.9-0.5l-1.7,0.4c-0.4,0.1-0.6,0.5-0.5,0.9c0.1,0.3,0.4,0.6,0.7,0.6
	c0.1,0,0.1,0,0.2,0l1.7-0.4C442.3,7.1,442.6,6.7,442.5,6.3z"/>
<path class="st0" d="M433.3,8.5c-0.1-0.4-0.5-0.6-0.9-0.5l-1.7,0.4c-0.4,0.1-0.6,0.5-0.5,0.9c0.1,0.3,0.4,0.6,0.7,0.6
	c0.1,0,0.1,0,0.2,0l1.7-0.4C433.1,9.3,433.3,8.9,433.3,8.5z"/>
<path class="st0" d="M437.9,7.4c-0.1-0.4-0.5-0.6-0.9-0.5l-1.7,0.4c-0.4,0.1-0.6,0.5-0.5,0.9c0.1,0.3,0.4,0.6,0.7,0.6
	c0.1,0,0.1,0,0.2,0l1.7-0.4C437.7,8.2,438,7.8,437.9,7.4z"/>
<g>
	<path class="st0" d="M30.8,64.9c-0.2-0.3-0.4-0.5-0.7-0.6c0-0.5-0.2-1.1-0.4-1.6c-0.4-0.7-1-1.2-1.7-1.5l0.1-0.3
		c0.2-0.6,0-1.1-0.4-1.2l-1-0.3l1-3.4l-3.8-1.1l-1,3.4L22,58l-0.1,0c-0.4,0-0.7,0.3-0.8,0.9l-0.1,0.3c-0.2,0-0.3,0-0.5,0
		c-1.2,0-2.3,0.6-3,1.5c-0.7-0.1-1.4,0.3-1.6,1l-8.6,30c-0.1,0.2,0,0.4,0.1,0.5c0.1,0.1,0.2,0.2,0.3,0.3c0,0,0,0.1,0,0.1
		C7.8,92.8,8.1,93,8.4,93l12.3,3.5c0.1,0,0.2,0,0.3,0c0.2,0,0.4-0.1,0.6-0.2c0,0,0.1,0,0.1,0c0.3,0,0.6-0.2,0.7-0.5l8.6-30
		C31,65.6,31,65.2,30.8,64.9z M17,62.6l0.1-0.2l12.2,3.5l0.1,0l-7.7,27l-3.8-1.1l-8.5-2.4L17,62.6z M21.2,94.9L8.8,91.3L9.2,90
		l12.4,3.5L21.2,94.9z"/>
	<path class="st0" d="M24.6,76.4c0.1-0.1,0.2-0.2,0.1-0.4c0-0.1-0.1-0.2-0.3-0.3l-2.3-0.7l3-4.1c0.1-0.1,0.1-0.2,0-0.3
		c0-0.1-0.1-0.2-0.2-0.2l-3.4-1c-0.1,0-0.3,0-0.4,0.1l-5.9,7.4c-0.1,0.1-0.1,0.2-0.1,0.3c0,0.1,0.1,0.2,0.2,0.2l2.1,0.6l-4.5,7
		c-0.1,0.2-0.1,0.3,0.1,0.5c0.1,0.1,0.2,0.1,0.2,0.1c0.1,0,0.2,0,0.2-0.1L24.6,76.4z"/>
</g>
<path class="st0" d="M39.9,60.9l-1.7-0.1c-0.4,0-0.7,0.3-0.8,0.7s0.3,0.7,0.7,0.8l1.7,0.1c0,0,0,0,0,0c0.4,0,0.7-0.3,0.7-0.7
	C40.6,61.2,40.3,60.9,39.9,60.9z"/>
<path class="st0" d="M35.1,60.6l-1.7-0.1c-0.4,0-0.7,0.3-0.8,0.7s0.3,0.7,0.7,0.8l1.7,0.1c0,0,0,0,0,0c0.4,0,0.7-0.3,0.7-0.7
	C35.8,61,35.5,60.6,35.1,60.6z"/>
<path class="st0" d="M33.3,56.2c0.1,0,0.2,0,0.3,0l1.6-0.6c0.4-0.1,0.6-0.6,0.4-0.9c-0.1-0.4-0.6-0.6-0.9-0.4L33,54.8
	c-0.4,0.1-0.6,0.6-0.4,0.9C32.7,56,33,56.2,33.3,56.2z"/>
<path class="st0" d="M37.7,54.5c0.1,0,0.2,0,0.3,0l1.6-0.6c0.4-0.1,0.6-0.6,0.4-0.9c-0.1-0.4-0.6-0.6-0.9-0.4l-1.6,0.6
	c-0.4,0.1-0.6,0.6-0.4,0.9C37.2,54.3,37.4,54.5,37.7,54.5z"/>
<path class="st0" d="M29.7,57.6c0.1,0,0.2,0,0.3,0l0.8-0.3c0.4-0.1,0.6-0.6,0.4-0.9c-0.1-0.4-0.6-0.6-0.9-0.4l-0.8,0.3
	c-0.4,0.1-0.6,0.6-0.4,0.9C29.1,57.4,29.4,57.6,29.7,57.6z"/>
<path class="st0" d="M42.5,56.3c-0.1-0.4-0.5-0.6-0.9-0.5l-1.7,0.4c-0.4,0.1-0.6,0.5-0.5,0.9c0.1,0.3,0.4,0.6,0.7,0.6
	c0.1,0,0.1,0,0.2,0l1.7-0.4C42.3,57.1,42.6,56.7,42.5,56.3z"/>
<path class="st0" d="M33.3,58.5c-0.1-0.4-0.5-0.6-0.9-0.5l-1.7,0.4c-0.4,0.1-0.6,0.5-0.5,0.9c0.1,0.3,0.4,0.6,0.7,0.6
	c0.1,0,0.1,0,0.2,0l1.7-0.4C33.1,59.3,33.3,58.9,33.3,58.5z"/>
<path class="st0" d="M37.9,57.4c-0.1-0.4-0.5-0.6-0.9-0.5l-1.7,0.4c-0.4,0.1-0.6,0.5-0.5,0.9c0.1,0.3,0.4,0.6,0.7,0.6
	c0.1,0,0.1,0,0.2,0l1.7-0.4C37.7,58.2,38,57.8,37.9,57.4z"/>
<g>
	<path class="st0" d="M80.8,64.9c-0.2-0.3-0.4-0.5-0.7-0.6c0-0.5-0.2-1.1-0.4-1.6c-0.4-0.7-1-1.2-1.7-1.5l0.1-0.3
		c0.2-0.6,0-1.1-0.4-1.2l-1-0.3l1-3.4l-3.8-1.1l-1,3.4L72,58l-0.1,0c-0.4,0-0.7,0.3-0.8,0.9l-0.1,0.3c-0.2,0-0.3,0-0.5,0
		c-1.2,0-2.3,0.6-3,1.5c-0.7-0.1-1.4,0.3-1.6,1l-8.6,30c-0.1,0.2,0,0.4,0.1,0.5c0.1,0.1,0.2,0.2,0.3,0.3c0,0,0,0.1,0,0.1
		c0.1,0.3,0.4,0.4,0.6,0.5l12.3,3.5c0.1,0,0.2,0,0.3,0c0.2,0,0.4-0.1,0.6-0.2c0,0,0.1,0,0.1,0c0.3,0,0.6-0.2,0.7-0.5l8.6-30
		C81,65.6,81,65.2,80.8,64.9z M67,62.6l0.1-0.2l12.2,3.5l0.1,0l-7.7,27l-3.8-1.1l-8.5-2.4L67,62.6z M71.2,94.9l-12.4-3.5l0.4-1.3
		l12.4,3.5L71.2,94.9z"/>
	<path class="st0" d="M74.6,76.4c0.1-0.1,0.2-0.2,0.1-0.4c0-0.1-0.1-0.2-0.3-0.3l-2.3-0.7l3-4.1c0.1-0.1,0.1-0.2,0-0.3
		c0-0.1-0.1-0.2-0.2-0.2l-3.4-1c-0.1,0-0.3,0-0.4,0.1l-5.9,7.4c-0.1,0.1-0.1,0.2-0.1,0.3c0,0.1,0.1,0.2,0.2,0.2l2.1,0.6l-4.5,7
		c-0.1,0.2-0.1,0.3,0.1,0.5c0.1,0.1,0.2,0.1,0.2,0.1c0.1,0,0.2,0,0.2-0.1L74.6,76.4z"/>
</g>
<path class="st0" d="M93.6,61l-0.8,0c-0.4,0-0.7,0.3-0.8,0.7s0.3,0.7,0.7,0.8l0.8,0c0,0,0,0,0,0c0.4,0,0.7-0.3,0.7-0.7
	C94.3,61.4,94,61.1,93.6,61z"/>
<path class="st0" d="M89.9,60.9l-1.7-0.1c-0.4,0-0.7,0.3-0.8,0.7s0.3,0.7,0.7,0.8l1.7,0.1c0,0,0,0,0,0c0.4,0,0.7-0.3,0.7-0.7
	C90.6,61.2,90.3,60.9,89.9,60.9z"/>
<path class="st0" d="M85.1,60.6l-1.7-0.1c-0.4,0-0.7,0.3-0.8,0.7s0.3,0.7,0.7,0.8l1.7,0.1c0,0,0,0,0,0c0.4,0,0.7-0.3,0.7-0.7
	C85.8,61,85.5,60.6,85.1,60.6z"/>
<path class="st0" d="M83.3,56.2c0.1,0,0.2,0,0.3,0l1.6-0.6c0.4-0.1,0.6-0.6,0.4-0.9c-0.1-0.4-0.6-0.6-0.9-0.4L83,54.8
	c-0.4,0.1-0.6,0.6-0.4,0.9C82.7,56,83,56.2,83.3,56.2z"/>
<path class="st0" d="M87.7,54.5c0.1,0,0.2,0,0.3,0l1.6-0.6c0.4-0.1,0.6-0.6,0.4-0.9c-0.1-0.4-0.6-0.6-0.9-0.4l-1.6,0.6
	c-0.4,0.1-0.6,0.6-0.4,0.9C87.2,54.3,87.4,54.5,87.7,54.5z"/>
<path class="st0" d="M79.7,57.6c0.1,0,0.2,0,0.3,0l0.8-0.3c0.4-0.1,0.6-0.6,0.4-0.9c-0.1-0.4-0.6-0.6-0.9-0.4l-0.8,0.3
	c-0.4,0.1-0.6,0.6-0.4,0.9C79.1,57.4,79.4,57.6,79.7,57.6z"/>
<path class="st0" d="M92.5,56.3c-0.1-0.4-0.5-0.6-0.9-0.5l-1.7,0.4c-0.4,0.1-0.6,0.5-0.5,0.9c0.1,0.3,0.4,0.6,0.7,0.6
	c0.1,0,0.1,0,0.2,0l1.7-0.4C92.3,57.1,92.6,56.7,92.5,56.3z"/>
<path class="st0" d="M83.3,58.5c-0.1-0.4-0.5-0.6-0.9-0.5l-1.7,0.4c-0.4,0.1-0.6,0.5-0.5,0.9c0.1,0.3,0.4,0.6,0.7,0.6
	c0.1,0,0.1,0,0.2,0l1.7-0.4C83.1,59.3,83.3,58.9,83.3,58.5z"/>
<path class="st0" d="M97.1,55.2c-0.1-0.4-0.5-0.6-0.9-0.5l-1.7,0.4c-0.4,0.1-0.6,0.5-0.5,0.9c0.1,0.3,0.4,0.6,0.7,0.6
	c0.1,0,0.1,0,0.2,0l1.7-0.4C96.9,56,97.2,55.6,97.1,55.2z"/>
<path class="st0" d="M87.9,57.4c-0.1-0.4-0.5-0.6-0.9-0.5l-1.7,0.4c-0.4,0.1-0.6,0.5-0.5,0.9c0.1,0.3,0.4,0.6,0.7,0.6
	c0.1,0,0.1,0,0.2,0l1.7-0.4C87.7,58.2,88,57.8,87.9,57.4z"/>
<g>
	<path class="st0" d="M130.8,64.9c-0.2-0.3-0.4-0.5-0.7-0.6c0-0.5-0.2-1.1-0.4-1.6c-0.4-0.7-1-1.2-1.7-1.5l0.1-0.3
		c0.2-0.6,0-1.1-0.4-1.2l-1-0.3l1-3.4l-3.8-1.1l-1,3.4l-1-0.3l-0.1,0c-0.4,0-0.7,0.3-0.8,0.9l-0.1,0.3c-0.2,0-0.3,0-0.5,0
		c-1.2,0-2.3,0.6-3,1.5c-0.7-0.1-1.4,0.3-1.6,1l-8.6,30c-0.1,0.2,0,0.4,0.1,0.5c0.1,0.1,0.2,0.2,0.3,0.3c0,0,0,0.1,0,0.1
		c0.1,0.3,0.4,0.4,0.6,0.5l12.3,3.5c0.1,0,0.2,0,0.3,0c0.2,0,0.4-0.1,0.6-0.2c0,0,0.1,0,0.1,0c0.3,0,0.6-0.2,0.7-0.5l8.6-30
		C131,65.6,131,65.2,130.8,64.9z M117,62.6l0.1-0.2l12.2,3.5l0.1,0l-7.7,27l-3.8-1.1l-8.5-2.4L117,62.6z M121.2,94.9l-12.4-3.5
		l0.4-1.3l12.4,3.5L121.2,94.9z"/>
	<path class="st0" d="M124.6,76.4c0.1-0.1,0.2-0.2,0.1-0.4c0-0.1-0.1-0.2-0.3-0.3l-2.3-0.7l3-4.1c0.1-0.1,0.1-0.2,0-0.3
		c0-0.1-0.1-0.2-0.2-0.2l-3.4-1c-0.1,0-0.3,0-0.4,0.1l-5.9,7.4c-0.1,0.1-0.1,0.2-0.1,0.3c0,0.1,0.1,0.2,0.2,0.2l2.1,0.6l-4.5,7
		c-0.1,0.2-0.1,0.3,0.1,0.5c0.1,0.1,0.2,0.1,0.2,0.1c0.1,0,0.2,0,0.2-0.1L124.6,76.4z"/>
</g>
<path class="st0" d="M143.6,61l-0.8,0c-0.4,0-0.7,0.3-0.8,0.7s0.3,0.7,0.7,0.8l0.8,0c0,0,0,0,0,0c0.4,0,0.7-0.3,0.7-0.7
	C144.3,61.4,144,61.1,143.6,61z"/>
<path class="st0" d="M139.9,60.9l-1.7-0.1c-0.4,0-0.7,0.3-0.8,0.7s0.3,0.7,0.7,0.8l1.7,0.1c0,0,0,0,0,0c0.4,0,0.7-0.3,0.7-0.7
	C140.6,61.2,140.3,60.9,139.9,60.9z"/>
<path class="st0" d="M135.1,60.6l-1.7-0.1c-0.4,0-0.7,0.3-0.8,0.7s0.3,0.7,0.7,0.8l1.7,0.1c0,0,0,0,0,0c0.4,0,0.7-0.3,0.7-0.7
	C135.8,61,135.5,60.6,135.1,60.6z"/>
<path class="st0" d="M133.3,56.2c0.1,0,0.2,0,0.3,0l1.6-0.6c0.4-0.1,0.6-0.6,0.4-0.9c-0.1-0.4-0.6-0.6-0.9-0.4l-1.6,0.6
	c-0.4,0.1-0.6,0.6-0.4,0.9C132.7,56,133,56.2,133.3,56.2z"/>
<path class="st0" d="M137.7,54.5c0.1,0,0.2,0,0.3,0l1.6-0.6c0.4-0.1,0.6-0.6,0.4-0.9c-0.1-0.4-0.6-0.6-0.9-0.4l-1.6,0.6
	c-0.4,0.1-0.6,0.6-0.4,0.9C137.2,54.3,137.4,54.5,137.7,54.5z"/>
<path class="st0" d="M129.7,57.6c0.1,0,0.2,0,0.3,0l0.8-0.3c0.4-0.1,0.6-0.6,0.4-0.9c-0.1-0.4-0.6-0.6-0.9-0.4l-0.8,0.3
	c-0.4,0.1-0.6,0.6-0.4,0.9C129.1,57.4,129.4,57.6,129.7,57.6z"/>
<path class="st0" d="M142.5,56.3c-0.1-0.4-0.5-0.6-0.9-0.5l-1.7,0.4c-0.4,0.1-0.6,0.5-0.5,0.9c0.1,0.3,0.4,0.6,0.7,0.6
	c0.1,0,0.1,0,0.2,0l1.7-0.4C142.3,57.1,142.6,56.7,142.5,56.3z"/>
<path class="st0" d="M133.3,58.5c-0.1-0.4-0.5-0.6-0.9-0.5l-1.7,0.4c-0.4,0.1-0.6,0.5-0.5,0.9c0.1,0.3,0.4,0.6,0.7,0.6
	c0.1,0,0.1,0,0.2,0l1.7-0.4C133.1,59.3,133.3,58.9,133.3,58.5z"/>
<path class="st0" d="M147.1,55.2c-0.1-0.4-0.5-0.6-0.9-0.5l-1.7,0.4c-0.4,0.1-0.6,0.5-0.5,0.9c0.1,0.3,0.4,0.6,0.7,0.6
	c0.1,0,0.1,0,0.2,0l1.7-0.4C146.9,56,147.2,55.6,147.1,55.2z"/>
<path class="st0" d="M137.9,57.4c-0.1-0.4-0.5-0.6-0.9-0.5l-1.7,0.4c-0.4,0.1-0.6,0.5-0.5,0.9c0.1,0.3,0.4,0.6,0.7,0.6
	c0.1,0,0.1,0,0.2,0l1.7-0.4C137.7,58.2,138,57.8,137.9,57.4z"/>
<g>
	<path class="st0" d="M180.8,64.9c-0.2-0.3-0.4-0.5-0.7-0.6c0-0.5-0.2-1.1-0.4-1.6c-0.4-0.7-1-1.2-1.7-1.5l0.1-0.3
		c0.2-0.6,0-1.1-0.4-1.2l-1-0.3l1-3.4l-3.8-1.1l-1,3.4l-1-0.3l-0.1,0c-0.4,0-0.7,0.3-0.8,0.9l-0.1,0.3c-0.2,0-0.3,0-0.5,0
		c-1.2,0-2.3,0.6-3,1.5c-0.7-0.1-1.4,0.3-1.6,1l-8.6,30c-0.1,0.2,0,0.4,0.1,0.5c0.1,0.1,0.2,0.2,0.3,0.3c0,0,0,0.1,0,0.1
		c0.1,0.3,0.4,0.4,0.6,0.5l12.3,3.5c0.1,0,0.2,0,0.3,0c0.2,0,0.4-0.1,0.6-0.2c0,0,0.1,0,0.1,0c0.3,0,0.6-0.2,0.7-0.5l8.6-30
		C181,65.6,181,65.2,180.8,64.9z M167,62.6l0.1-0.2l12.2,3.5l0.1,0l-7.7,27l-3.8-1.1l-8.5-2.4L167,62.6z M171.2,94.9l-12.4-3.5
		l0.4-1.3l12.4,3.5L171.2,94.9z"/>
	<path class="st0" d="M174.6,76.4c0.1-0.1,0.2-0.2,0.1-0.4c0-0.1-0.1-0.2-0.3-0.3l-2.3-0.7l3-4.1c0.1-0.1,0.1-0.2,0-0.3
		c0-0.1-0.1-0.2-0.2-0.2l-3.4-1c-0.1,0-0.3,0-0.4,0.1l-5.9,7.4c-0.1,0.1-0.1,0.2-0.1,0.3s0.1,0.2,0.2,0.2l2.1,0.6l-4.5,7
		c-0.1,0.2-0.1,0.3,0.1,0.5c0.1,0.1,0.2,0.1,0.2,0.1c0.1,0,0.2,0,0.2-0.1L174.6,76.4z"/>
</g>
<path class="st0" d="M193.6,61l-0.8,0c-0.4,0-0.7,0.3-0.8,0.7s0.3,0.7,0.7,0.8l0.8,0c0,0,0,0,0,0c0.4,0,0.7-0.3,0.7-0.7
	C194.3,61.4,194,61.1,193.6,61z"/>
<path class="st0" d="M189.9,60.9l-1.7-0.1c-0.4,0-0.7,0.3-0.8,0.7s0.3,0.7,0.7,0.8l1.7,0.1c0,0,0,0,0,0c0.4,0,0.7-0.3,0.7-0.7
	C190.6,61.2,190.3,60.9,189.9,60.9z"/>
<path class="st0" d="M183.3,56.2c0.1,0,0.2,0,0.3,0l1.6-0.6c0.4-0.1,0.6-0.6,0.4-0.9c-0.1-0.4-0.6-0.6-0.9-0.4l-1.6,0.6
	c-0.4,0.1-0.6,0.6-0.4,0.9C182.7,56,183,56.2,183.3,56.2z"/>
<path class="st0" d="M187.7,54.5c0.1,0,0.2,0,0.3,0l1.6-0.6c0.4-0.1,0.6-0.6,0.4-0.9c-0.1-0.4-0.6-0.6-0.9-0.4l-1.6,0.6
	c-0.4,0.1-0.6,0.6-0.4,0.9C187.2,54.3,187.4,54.5,187.7,54.5z"/>
<path class="st0" d="M192.5,56.3c-0.1-0.4-0.5-0.6-0.9-0.5l-1.7,0.4c-0.4,0.1-0.6,0.5-0.5,0.9c0.1,0.3,0.4,0.6,0.7,0.6
	c0.1,0,0.1,0,0.2,0l1.7-0.4C192.3,57.1,192.6,56.7,192.5,56.3z"/>
<path class="st0" d="M183.3,58.5c-0.1-0.4-0.5-0.6-0.9-0.5l-1.7,0.4c-0.4,0.1-0.6,0.5-0.5,0.9c0.1,0.3,0.4,0.6,0.7,0.6
	c0.1,0,0.1,0,0.2,0l1.7-0.4C183.1,59.3,183.3,58.9,183.3,58.5z"/>
<path class="st0" d="M197.1,55.2c-0.1-0.4-0.5-0.6-0.9-0.5l-1.7,0.4c-0.4,0.1-0.6,0.5-0.5,0.9c0.1,0.3,0.4,0.6,0.7,0.6
	c0.1,0,0.1,0,0.2,0l1.7-0.4C196.9,56,197.2,55.6,197.1,55.2z"/>
<path class="st0" d="M187.9,57.4c-0.1-0.4-0.5-0.6-0.9-0.5l-1.7,0.4c-0.4,0.1-0.6,0.5-0.5,0.9c0.1,0.3,0.4,0.6,0.7,0.6
	c0.1,0,0.1,0,0.2,0l1.7-0.4C187.7,58.2,188,57.8,187.9,57.4z"/>
<g>
	<path class="st0" d="M230,64.6c-0.2-0.3-0.4-0.4-0.8-0.5c-0.1-0.5-0.3-1-0.6-1.5c-0.4-0.7-1.1-1.1-1.8-1.4l0.1-0.3
		c0.1-0.6-0.1-1.1-0.5-1.2l-1-0.2L226,56l-3.8-0.7l-0.7,3.5l-1-0.2l-0.1,0c-0.3,0-0.6,0.4-0.7,0.9l-0.1,0.3c-0.2,0-0.3,0-0.5,0
		c-1.2,0.1-2.3,0.8-2.9,1.8c-0.7-0.1-1.4,0.4-1.5,1.1l-5.9,30.6c0,0.2,0,0.4,0.1,0.5c0.1,0.1,0.2,0.2,0.4,0.3c0,0,0,0.1,0,0.1
		c0.2,0.2,0.4,0.4,0.7,0.5l12.6,2.4c0.1,0,0.2,0,0.3,0c0.2,0,0.4-0.1,0.6-0.2c0,0,0.1,0,0.1,0c0.3,0,0.6-0.2,0.6-0.6l5.9-30.6
		C230.2,65.3,230.2,64.9,230,64.6z M216,63.5l0.1-0.2l12.5,2.4l0.1,0l-5.3,27.6l-3.9-0.8l-8.7-1.7L216,63.5z M223,95.3l-12.6-2.4
		l0.3-1.3l12.6,2.5L223,95.3z"/>
	<path class="st0" d="M224.7,76.6c0.1-0.1,0.1-0.2,0.1-0.4c0-0.1-0.1-0.2-0.3-0.3l-2.3-0.5l2.6-4.4c0.1-0.1,0.1-0.2,0-0.3
		c0-0.1-0.1-0.2-0.3-0.2l-3.5-0.7c-0.1,0-0.3,0-0.4,0.2l-5.2,7.8c-0.1,0.1-0.1,0.2,0,0.3c0,0.1,0.1,0.2,0.3,0.2l2.1,0.4l-3.8,7.3
		c-0.1,0.2,0,0.4,0.1,0.5c0.1,0.1,0.2,0.1,0.2,0.1c0.1,0,0.2,0,0.2-0.1L224.7,76.6z"/>
</g>
<path class="st0" d="M242.4,59.7l-0.8,0c-0.4,0-0.7,0.4-0.7,0.8c0,0.4,0.4,0.7,0.8,0.7l0.8,0c0,0,0,0,0,0c0.4,0,0.7-0.4,0.7-0.7
	C243.1,60,242.8,59.7,242.4,59.7z"/>
<path class="st0" d="M238.6,59.8l-1.7,0.1c-0.4,0-0.7,0.4-0.7,0.8c0,0.4,0.4,0.7,0.8,0.7l1.7-0.1c0,0,0,0,0,0c0.4,0,0.7-0.4,0.7-0.7
	C239.4,60.1,239,59.8,238.6,59.8z"/>
<path class="st0" d="M235.9,53.6c0.1,0,0.2,0,0.3-0.1l1.6-0.8c0.4-0.2,0.5-0.6,0.3-1c-0.2-0.4-0.6-0.5-1-0.3l-1.6,0.8
	c-0.4,0.2-0.5,0.6-0.3,1C235.4,53.5,235.7,53.7,235.9,53.6z"/>
<path class="st0" d="M240.8,55c-0.1-0.4-0.5-0.6-0.9-0.5l-1.7,0.6c-0.4,0.1-0.6,0.5-0.5,0.9c0.1,0.3,0.4,0.5,0.7,0.5
	c0.1,0,0.1,0,0.2,0l1.7-0.6C240.8,55.8,241,55.4,240.8,55z"/>
<path class="st0" d="M245.3,53.5c-0.1-0.4-0.5-0.6-0.9-0.5l-1.7,0.6c-0.4,0.1-0.6,0.5-0.5,0.9c0.1,0.3,0.4,0.5,0.7,0.5
	c0.1,0,0.1,0,0.2,0l1.7-0.6C245.2,54.3,245.5,53.9,245.3,53.5z"/>
<path class="st0" d="M236.3,56.6c-0.1-0.4-0.5-0.6-0.9-0.5l-1.7,0.6c-0.4,0.1-0.6,0.5-0.5,0.9c0.1,0.3,0.4,0.5,0.7,0.5
	c0.1,0,0.1,0,0.2,0l1.7-0.6C236.3,57.4,236.5,56.9,236.3,56.6z"/>
<g>
	<path class="st0" d="M279.3,64.4c-0.2-0.3-0.5-0.4-0.8-0.5c-0.1-0.5-0.3-1-0.7-1.5c-0.5-0.6-1.2-1.1-1.9-1.3l0-0.3
		c0.1-0.6-0.1-1.1-0.6-1.2l-1-0.1l0.4-3.6l-3.9-0.5l-0.4,3.6l-1-0.1l-0.1,0c-0.3,0.1-0.6,0.4-0.7,1l0,0.3c-0.2,0-0.3,0-0.5,0
		c-1.2,0.2-2.2,0.9-2.7,2c-0.7,0-1.3,0.5-1.4,1.2l-3.9,31c0,0.2,0,0.4,0.1,0.5c0.1,0.1,0.2,0.2,0.4,0.2c0,0,0,0.1,0,0.1
		c0.2,0.2,0.4,0.4,0.7,0.4l12.7,1.6c0.1,0,0.2,0,0.3,0c0.2,0,0.4-0.1,0.6-0.3c0,0,0.1,0,0.1,0c0.3,0,0.6-0.3,0.6-0.6l3.9-31
		C279.6,65.1,279.5,64.7,279.3,64.4z M265.4,64.3l0-0.2l12.6,1.6l0.1,0l-3.5,27.8l-4-0.5l-8.8-1.1L265.4,64.3z M274.4,95.5
		l-12.8-1.6l0.2-1.3l12.8,1.6L274.4,95.5z"/>
	<path class="st0" d="M274.9,76.7c0.1-0.1,0.1-0.2,0.1-0.4c0-0.1-0.2-0.2-0.3-0.2l-2.3-0.3l2.3-4.5c0.1-0.1,0.1-0.2,0-0.3
		c-0.1-0.1-0.2-0.2-0.3-0.2l-3.5-0.4c-0.1,0-0.3,0.1-0.4,0.2l-4.7,8.2c-0.1,0.1-0.1,0.2,0,0.3s0.2,0.2,0.3,0.2l2.1,0.3l-3.3,7.6
		c-0.1,0.2,0,0.4,0.1,0.5c0.1,0,0.2,0.1,0.2,0.1c0.1,0,0.2-0.1,0.2-0.1L274.9,76.7z"/>
</g>
<path class="st0" d="M291.4,58.7l-0.7,0.1c-0.4,0.1-0.7,0.4-0.6,0.8c0,0.4,0.4,0.7,0.8,0.6l0.7-0.1c0,0,0,0,0,0
	c0.4-0.1,0.6-0.4,0.6-0.8C292.1,58.9,291.8,58.7,291.4,58.7z"/>
<path class="st0" d="M287.6,59.1l-1.7,0.2c-0.4,0-0.7,0.4-0.6,0.8c0,0.4,0.4,0.7,0.8,0.6l1.7-0.2c0,0,0,0,0,0
	c0.4-0.1,0.6-0.4,0.6-0.8C288.4,59.3,288,59,287.6,59.1z"/>
<path class="st0" d="M284.6,53.1c0.1,0,0.2,0,0.3-0.1l1.5-0.9c0.3-0.2,0.5-0.6,0.3-1c-0.2-0.3-0.6-0.5-1-0.3l-1.5,0.9
	c-0.3,0.2-0.5,0.6-0.3,1C284,53,284.3,53.1,284.6,53.1z"/>
<path class="st0" d="M289.5,54.2c-0.2-0.4-0.6-0.5-0.9-0.4l-1.6,0.7c-0.4,0.2-0.5,0.6-0.4,0.9c0.1,0.3,0.5,0.5,0.8,0.4
	c0.1,0,0.1,0,0.2,0l1.6-0.7C289.5,55,289.7,54.6,289.5,54.2z"/>
<path class="st0" d="M293.9,52.4c-0.2-0.4-0.6-0.5-0.9-0.4l-1.6,0.7c-0.4,0.2-0.5,0.6-0.4,0.9c0.1,0.3,0.5,0.5,0.8,0.4
	c0.1,0,0.1,0,0.2,0l1.6-0.7C293.9,53.2,294.1,52.7,293.9,52.4z"/>
<path class="st0" d="M285.1,56c-0.2-0.4-0.6-0.5-0.9-0.4l-1.6,0.7c-0.4,0.2-0.5,0.6-0.4,0.9c0.1,0.3,0.5,0.5,0.8,0.4
	c0.1,0,0.1,0,0.2,0l1.6-0.7C285.1,56.8,285.3,56.4,285.1,56z"/>
<g>
	<path class="st0" d="M328.4,63.8c-0.2-0.2-0.5-0.4-0.8-0.4c-0.2-0.5-0.4-1-0.8-1.4c-0.5-0.6-1.2-1-2-1.1l0-0.3
		c0-0.6-0.2-1.1-0.6-1.1l-1-0.1l0.2-3.6l-3.9-0.2l-0.2,3.6l-1-0.1l-0.1,0c-0.3,0.1-0.6,0.5-0.6,1l0,0.3c-0.2,0-0.3,0-0.4,0.1
		c-1.2,0.3-2.1,1.1-2.6,2.1c-0.7,0-1.3,0.6-1.3,1.3l-1.7,31.2c0,0.2,0.1,0.4,0.2,0.5c0.1,0.1,0.2,0.2,0.4,0.2c0,0,0,0.1,0,0.1
		c0.2,0.2,0.5,0.3,0.7,0.4l12.8,0.7c0.1,0,0.2,0,0.3,0c0.2,0,0.4-0.2,0.5-0.3c0,0,0.1,0,0.1,0c0.3-0.1,0.5-0.3,0.5-0.6l1.7-31.2
		C328.8,64.4,328.7,64.1,328.4,63.8z M314.5,64.6l0-0.2l12.7,0.7l0.1,0l-1.5,28l-4-0.2l-8.9-0.5L314.5,64.6z M325.7,95.2l-12.9-0.7
		l0.1-1.4l12.9,0.7L325.7,95.2z"/>
	<path class="st0" d="M324.9,76.4c0.1-0.1,0.1-0.3,0-0.4c-0.1-0.1-0.2-0.2-0.3-0.2l-2.4-0.1l2-4.7c0-0.1,0-0.2,0-0.3
		s-0.2-0.2-0.3-0.2l-3.5-0.2c-0.1,0-0.3,0.1-0.3,0.2l-4.1,8.5c-0.1,0.1,0,0.2,0,0.3c0.1,0.1,0.2,0.2,0.3,0.2l2.1,0.1l-2.8,7.8
		c-0.1,0.2,0,0.4,0.2,0.4c0.1,0,0.2,0.1,0.3,0c0.1,0,0.2-0.1,0.2-0.1L324.9,76.4z"/>
</g>
<path class="st0" d="M341.4,58.7l-0.7,0.1c-0.4,0.1-0.7,0.4-0.6,0.8c0,0.4,0.4,0.7,0.8,0.6l0.7-0.1c0,0,0,0,0,0
	c0.4-0.1,0.6-0.4,0.6-0.8C342.1,58.9,341.8,58.7,341.4,58.7z"/>
<path class="st0" d="M337.6,59.1l-1.7,0.2c-0.4,0-0.7,0.4-0.6,0.8c0,0.4,0.4,0.7,0.8,0.6l1.7-0.2c0,0,0,0,0,0
	c0.4-0.1,0.6-0.4,0.6-0.8C338.4,59.3,338,59,337.6,59.1z"/>
<path class="st0" d="M339.5,54.2c-0.2-0.4-0.6-0.5-0.9-0.4l-1.6,0.7c-0.4,0.2-0.5,0.6-0.4,0.9c0.1,0.3,0.5,0.5,0.8,0.4
	c0.1,0,0.1,0,0.2,0l1.6-0.7C339.5,55,339.7,54.6,339.5,54.2z"/>
<path class="st0" d="M343.9,52.4c-0.2-0.4-0.6-0.5-0.9-0.4l-1.6,0.7c-0.4,0.2-0.5,0.6-0.4,0.9c0.1,0.3,0.5,0.5,0.8,0.4
	c0.1,0,0.1,0,0.2,0l1.6-0.7C343.9,53.2,344.1,52.7,343.9,52.4z"/>
<g>
	<path class="st0" d="M377.8,63.4c-0.2-0.2-0.5-0.3-0.8-0.4c-0.2-0.5-0.5-1-0.8-1.4c-0.6-0.6-1.3-0.9-2.1-1l0-0.3
		c0-0.6-0.3-1.1-0.7-1.1l-1,0l0-3.6l-3.9,0l0,3.6l-1,0l-0.1,0c-0.3,0.1-0.6,0.5-0.6,1.1l0,0.3c-0.2,0-0.3,0-0.4,0.1
		c-1.2,0.3-2.1,1.2-2.5,2.3c-0.7,0.1-1.3,0.7-1.3,1.4l-0.2,31.2c0,0.2,0.1,0.4,0.2,0.5c0.1,0.1,0.2,0.2,0.4,0.2c0,0,0,0.1,0.1,0.1
		c0.2,0.2,0.5,0.3,0.8,0.3l12.8,0.1c0.1,0,0.2,0,0.3,0c0.2-0.1,0.4-0.2,0.5-0.3c0,0,0.1,0,0.1,0c0.3-0.1,0.5-0.3,0.5-0.7l0.2-31.2
		C378.2,64,378.1,63.7,377.8,63.4z M364,64.9l0-0.2l12.7,0.1l0.1,0l-0.2,28.1l-4,0l-8.9-0.1L364,64.9z M376.6,94.9l-12.9-0.1l0-1.4
		l12.9,0.1L376.6,94.9z"/>
	<path class="st0" d="M374.9,76.1c0.1-0.1,0.1-0.3,0-0.4c-0.1-0.1-0.2-0.2-0.3-0.2l-2.4,0l1.8-4.8c0-0.1,0-0.2,0-0.3
		s-0.2-0.2-0.3-0.2l-3.6,0c-0.1,0-0.3,0.1-0.3,0.2l-3.7,8.7c0,0.1,0,0.2,0,0.3c0.1,0.1,0.2,0.2,0.3,0.2l2.1,0l-2.4,7.9
		c-0.1,0.2,0,0.4,0.2,0.4c0.1,0,0.2,0,0.3,0c0.1,0,0.2-0.1,0.2-0.1L374.9,76.1z"/>
</g>
<path class="st0" d="M391.4,58.7l-0.7,0.1c-0.4,0.1-0.7,0.4-0.6,0.8c0,0.4,0.4,0.7,0.8,0.6l0.7-0.1c0,0,0,0,0,0
	c0.4-0.1,0.6-0.4,0.6-0.8C392.1,58.9,391.8,58.7,391.4,58.7z"/>
<path class="st0" d="M393.9,52.4c-0.2-0.4-0.6-0.5-0.9-0.4l-1.6,0.7c-0.4,0.2-0.5,0.6-0.4,0.9c0.1,0.3,0.5,0.5,0.8,0.4
	c0.1,0,0.1,0,0.2,0l1.6-0.7C393.9,53.2,394.1,52.7,393.9,52.4z"/>
<g>
	<path class="st0" d="M427.8,63.4c-0.2-0.2-0.5-0.3-0.8-0.4c-0.2-0.5-0.5-1-0.8-1.4c-0.6-0.6-1.3-0.9-2.1-1l0-0.3
		c0-0.6-0.3-1.1-0.7-1.1l-1,0l0-3.6l-3.9,0l0,3.6l-1,0l-0.1,0c-0.3,0.1-0.6,0.5-0.6,1.1l0,0.3c-0.2,0-0.3,0-0.4,0.1
		c-1.2,0.3-2.1,1.2-2.5,2.3c-0.7,0.1-1.3,0.7-1.3,1.4l-0.2,31.2c0,0.2,0.1,0.4,0.2,0.5c0.1,0.1,0.2,0.2,0.4,0.2c0,0,0,0.1,0.1,0.1
		c0.2,0.2,0.5,0.3,0.8,0.3l12.8,0.1c0.1,0,0.2,0,0.3,0c0.2-0.1,0.4-0.2,0.5-0.3c0,0,0.1,0,0.1,0c0.3-0.1,0.5-0.3,0.5-0.7l0.2-31.2
		C428.2,64,428.1,63.7,427.8,63.4z M414,64.9l0-0.2l12.7,0.1l0.1,0l-0.2,28.1l-4,0l-8.9-0.1L414,64.9z M426.6,94.9l-12.9-0.1l0-1.4
		l12.9,0.1L426.6,94.9z"/>
	<path class="st0" d="M424.9,76.1c0.1-0.1,0.1-0.3,0-0.4c-0.1-0.1-0.2-0.2-0.3-0.2l-2.4,0l1.8-4.8c0-0.1,0-0.2,0-0.3
		s-0.2-0.2-0.3-0.2l-3.6,0c-0.1,0-0.3,0.1-0.3,0.2l-3.7,8.7c0,0.1,0,0.2,0,0.3c0.1,0.1,0.2,0.2,0.3,0.2l2.1,0l-2.4,7.9
		c-0.1,0.2,0,0.4,0.2,0.4c0.1,0,0.2,0,0.3,0c0.1,0,0.2-0.1,0.2-0.1L424.9,76.1z"/>
</g>
</svg>
