<?xml version="1.0" encoding="utf-8"?>
<!-- Generator: Adobe Illustrator 19.0.0, SVG Export Plug-In . SVG Version: 6.00 Build 0)  -->
<svg version="1.1" id="Layer_1" xmlns="http://www.w3.org/2000/svg" xmlns:xlink="http://www.w3.org/1999/xlink" x="0px" y="0px"
	 viewBox="0 0 75.7 42.7" style="enable-background:new 0 0 75.7 42.7;" xml:space="preserve">
<style type="text/css">
	.st0{fill:#ADADAD;}
	.st1{fill-rule:evenodd;clip-rule:evenodd;fill:#ADADAD;}
</style>
<g id="XMLID_288_">
	<path id="XMLID_291_" class="st0" d="M0.1,20L4,20v0.2c0,0.5,0.1,0.8,0.4,1c0.2,0.2,0.7,0.3,1.5,0.3h5c0.5,0,0.8-0.1,1.1-0.2
		c0.2-0.2,0.3-0.4,0.3-0.8c0-0.4-0.1-0.7-0.4-0.8c-0.2-0.2-0.8-0.3-1.6-0.3L4,19.1c-1.6,0-2.6-0.3-3.2-0.9c-0.6-0.5-0.8-1.5-0.8-3
		c0-0.7,0.1-1.4,0.2-1.8c0.1-0.5,0.4-0.9,0.7-1.2c0.4-0.4,0.9-0.6,1.5-0.8c0.6-0.2,1.6-0.2,3-0.2h6.1c1.5,0,2.6,0.3,3.2,0.8
		c0.7,0.5,1,1.4,1,2.7c0,0.1,0,0.2,0,0.3c0,0.1,0,0.2,0,0.5h-3.8v-0.1c0-0.4-0.1-0.7-0.3-1c-0.2-0.2-0.5-0.3-1-0.3H6
		c-0.8,0-1.3,0.1-1.5,0.2c-0.2,0.2-0.4,0.4-0.4,0.8c0,0.4,0.1,0.6,0.3,0.8c0.2,0.2,0.6,0.3,1.2,0.3l6.5,0.1c1.5,0,2.5,0.4,3.2,1
		c0.6,0.6,0.9,1.7,0.9,3.2c0,0.9-0.1,1.6-0.3,2.1c-0.2,0.5-0.6,0.9-1.1,1.3c-0.3,0.2-0.8,0.4-1.4,0.5c-0.6,0.1-1.5,0.1-2.6,0.1H5.5
		c-2.2,0-3.6-0.2-4.4-0.7C0.4,23.2,0,22.3,0,21c0-0.1,0-0.2,0-0.4C0,20.5,0,20.2,0.1,20L0.1,20z M28.5,14.6h-5.9v3.3h5.9
		c0.5,0,0.9-0.1,1.1-0.4c0.2-0.3,0.3-0.7,0.3-1.4c0-0.5-0.1-0.9-0.3-1.2C29.3,14.7,29,14.6,28.5,14.6L28.5,14.6z M28.6,11.3
		c0.9,0,1.6,0,2.1,0.1c0.5,0.1,1,0.2,1.3,0.4c0.7,0.3,1.1,0.8,1.4,1.5c0.3,0.7,0.4,1.6,0.4,2.8c0,1.8-0.3,3-0.9,3.8
		c-0.6,0.7-1.6,1.1-3,1.1h-7.4v3.2h-4v-13H28.6L28.6,11.3z M40.2,24.3h-4v-13h4V24.3L40.2,24.3z M47,16.2h1.7l5.2-4.8h5.3l-7,6.4
		l8,6.6h-5.5l-5.9-4.9H47v4.9h-4v-13h4V16.2L47,16.2z M75.6,14.5H65.3v2H75v2.7h-9.7v2h10.4v3.1H61.4v-13h14.2V14.5L75.6,14.5z"/>
	<polygon id="XMLID_290_" class="st1" points="68.1,26.5 68.1,33.4 37.9,42.7 7.7,33.4 7.7,26.5 68.1,26.5 	"/>
	<polygon id="XMLID_289_" class="st1" points="7.7,0 37.9,0 68.1,0 68.1,9 7.7,9 7.7,0 	"/>
</g>
</svg>
