<?xml version="1.0" encoding="utf-8"?>
<!-- Generator: Adobe Illustrator 19.0.0, SVG Export Plug-In . SVG Version: 6.00 Build 0)  -->
<svg version="1.1" id="Layer_1" xmlns="http://www.w3.org/2000/svg" xmlns:xlink="http://www.w3.org/1999/xlink" x="0px" y="0px"
	 viewBox="0 0 72.1 38.4" style="enable-background:new 0 0 72.1 38.4;" xml:space="preserve">
<style type="text/css">
	.st0{fill-rule:evenodd;clip-rule:evenodd;fill:#ADADAD;}
	.st1{fill:#ADADAD;}
	.st2{fill:#848484;}
</style>
<g>
	<path class="st0" d="M19.1,38.4c10.6,0,19.1-8.6,19.1-19.1c0-1-0.1-1.9-0.2-2.9h-5h-5.6h-7.1V25h5.4c-1.6,1.9-4,3-6.6,3
		c-4.8,0-8.7-3.9-8.7-8.7s3.9-8.7,8.7-8.7c2.5,0,4.7,1,6.3,2.7h11.8C34.8,5.6,27.6,0.1,19.1,0.1c-3.3,0-6.4,0.8-9.1,2.3
		C4.8,5.2,1,10.5,0.2,16.8C0.1,17.6,0,18.4,0,19.2C0,29.8,8.6,38.4,19.1,38.4"/>
	<path class="st1" d="M51.7,28c-4.8,0-8.7-3.9-8.7-8.7c0-4.8,3.9-8.7,8.7-8.7c4.8,0,8.7,3.9,8.7,8.7c0,0.4,0,0.9-0.1,1.3l-0.6-0.7
		H48l6,7.9C53.3,27.9,52.5,28,51.7,28 M50.7,0c-5,0-9.5,1.9-12.9,5c-1.1,1-2.1,2-3,3.2c1.1,1.5,1.9,3.2,2.5,5h-5.1
		c-0.3,1-0.6,2.1-0.8,3.1H33h5c0.1,0.9,0.2,1.9,0.2,2.9c0,4.1-1.3,7.9-3.5,11c0.9,1.2,1.9,2.3,3,3.2c3.4,3.1,7.9,5,12.9,5
		c3.2,0,6.2-0.8,8.9-2.2l0.8,1h11.8L66.6,30c2.1-3.1,3.3-6.8,3.3-10.8C69.9,8.6,61.3,0,50.7,0"/>
	<path class="st2" d="M38.1,16.3h-5h-1.6c-0.1,0.9-0.2,1.9-0.2,2.9c0,4.1,1.3,7.9,3.6,11c2.2-3.1,3.5-6.9,3.5-11
		C38.3,18.2,38.2,17.3,38.1,16.3 M34.8,8.2c-1.1,1.5-2,3.2-2.6,5h5.1C36.7,11.4,35.9,9.7,34.8,8.2"/>
</g>
</svg>
