<?xml version="1.0" encoding="utf-8"?>
<!-- Generator: Adobe Illustrator 19.0.0, SVG Export Plug-In . SVG Version: 6.00 Build 0)  -->
<svg version="1.1" id="Layer_1" xmlns="http://www.w3.org/2000/svg" xmlns:xlink="http://www.w3.org/1999/xlink" x="0px" y="0px"
	 viewBox="0 0 432.7 376.3" style="enable-background:new 0 0 432.7 376.3;" xml:space="preserve">
<style type="text/css">
	.st0{fill:#010101;}
</style>
<g id="XMLID_110_">
	<path id="XMLID_161_" class="st0" d="M50.6,90.8c1.7,2.6,7.9,1.9,7.9,1.9s-1.6-2.7-4.9-3.9c-3.2-1.2-5.9-0.5-5.5-0.3
		C48.6,88.6,48.9,88.1,50.6,90.8z"/>
	<circle id="XMLID_160_" class="st0" cx="60.7" cy="87.3" r="2.7"/>
	<circle id="XMLID_159_" class="st0" cx="65.8" cy="94.1" r="2.7"/>
	<path id="XMLID_158_" class="st0" d="M62.7,100.9c0.1-1.5-1.1-2.8-2.6-2.9c-1.5-0.1-2.8,1.1-2.9,2.6c-0.1,1.5,1.1,2.8,2.6,2.9
		C61.4,103.6,62.7,102.4,62.7,100.9z"/>
	<circle id="XMLID_157_" class="st0" cx="69.1" cy="102" r="2.7"/>
	<circle id="XMLID_156_" class="st0" cx="69.9" cy="86.8" r="2.7"/>
	<circle id="XMLID_155_" class="st0" cx="75" cy="94.6" r="2.7"/>
	<path id="XMLID_154_" class="st0" d="M293.7,212.8c-41.3,13.7-84.3,1.5-94.8-2.8c37.3,18.1,114.2,19.6,152.1-30.6
		c18.5-28.4,8.4-50,8.4-50C360.2,169.4,335.1,199,293.7,212.8z"/>
	<path id="XMLID_153_" class="st0" d="M131.4,250.1c-10.8-3.4-25.5-3.3-30.8-2.1c-3.8,0.9,12.1-2.3,30.8,5
		c13.5,5.3,15.4,11.5,16.4,13.8v40.5c0.2,3.4-0.4,4.8-2.5,4.6c-0.9-0.1-4.1-1.6-5.9-2.3c-0.5-0.2-0.7,0-0.9,0.1
		c-0.2,0.2-0.2,1-0.2,1l0.2,9.5l56.3,22.8c0,0,0.6-8,0.1-8.9c-0.1-0.2-0.4-0.6-1-0.9c-4.1-2.3-15.4-7.2-18.1-8.7
		c-3-1.6-3.5-1.3-4.1-4.1c-0.6-2.8-0.1-51.7-0.1-63.6c0-1.7,0-2.5-0.3-3.1c-0.3-0.8-1.7-1.8-2.6-2.4c-5.1-3.8-17.9-13.3-35.8-14.8
		c6.1-0.7,14-1.8,18-3.7c5.2-2.5,8.9-4.3,9.3-14.5V185c0,0,0.1-3.2-0.4-2.9c-0.3,0.2-0.3,0.4-2,0.5c-1.9,0.2-5.1-0.3-9.8-2.9
		c-8.6-4.8-10-6.4-14.5-9c-5-2.9-17.7-9.5-32.8,1.6c-9.1,6.7-27.5,48.2-61.9,47.9C21.1,220,4.9,206.5,4.9,187.3
		c0-6.7,1.2-11.9,2.9-16.4c0-0.2-0.1-0.4-0.1-0.7c0-0.1-0.1-0.3-0.1-0.4c-0.5-2.6-0.6-5.1-0.7-7.7c-3.4,7-6.6,16-6.8,26.4
		c-0.4,23.8,17.6,35.6,35.3,38.6c0,0,19.8,3.7,37.9-10.4c20.1-15.6,27.2-31.1,34.4-35.9c4.1-2.7,10.2-7.9,21.7-3
		c10.1,4.3,11.9,15.6,11.9,15.6s1.2,27,0,31.4c0,0-11.8,11.4-26,11.8l0.4,0c-9.5,0.8-15.1,2.5-18.1,3.8c0-6.7,0-14.4,0-23.4
		c4-9.2,11.2-30.7,26.5-30.6c3.7,0,6.9,1.4,8.2,2.3c0.3-0.7-3.5-4.8-8.6-5.2c-12.2-1-22,12.3-28.2,19c0,0,0,0,0,0
		c0,0-22.6,30.5-47.5,28.8c9.4,2.5,25.2,0.9,29.2,0V277c0,0,0.2,7.3-3,5.8c-1-0.5-4-1.7-5.1-2.3c-0.7-0.3-1-0.5-1.3-0.4
		c-0.3,0.2-0.3,0.6-0.3,0.6l0,10.1l48.1,20.5c0,0,0.8-8.1,0-9.4c-0.2-0.3-0.5-0.6-0.8-0.7c-3.1-1.7-11.3-5.3-12.7-6.1
		c-3.7-2.1-4.6-2.4-4.6-6.6c0-4-0.1-4.8-0.1-44c6.5-2.3,19.6-2.9,31.6-0.3c11.3,2.4,16.9,12.8,18.3,15.9
		C146.5,258.2,143,254,131.4,250.1z"/>
	<path id="XMLID_152_" class="st0" d="M183.3,317.7c2.1,4.9,34.1,14.5,34.1,14.5c17.1-8.3,35.3-15.1,35.3-20.8
		c0-5.8,0.2-68.3,0.2-68.3c-0.2-4.8,10.8-5,10.8-5v-5v-4.6c-22.3,2.2-35-0.2-35-0.2l0.1,9.4c3.6,1.2,3.5,4.8,3.5,4.8v18.8
		c-21.5,8.9-28.1-4-28.1-4s-0.4-16.1,0-20.4c0.4-4.4,5.8-2.5,5.8-2.5l-0.1-10.1c-19-7-29.3-18.2-33.2-23.3c-1.1-1.5-1.7-1-1.8-0.6
		c-0.1,0.4-0.2,0.9-0.2,1.8c-0.2,5-0.3,13.1,0.1,13.9c0.7,1.1,6,5.6,6.5,6.8c0.3,0.6,0.4,2.3,0.5,4.6c-1.9-1.3-5.1-3.6-6.8-5.6
		c-1.5,0,4.1,5.5,6.9,8.1c0.1,6-0.1,14.3-0.2,19.9c0,1.1,0.2,1.9,0.5,2.8c0.3,0.9,0.6,1.2,1.3,2c5.4,6,24,23.6,48.7,10.9l0,4.2
		c-1.8,1.4-6,3.7-15.5,4c-18.9,0.8-32.8-13.7-35.2-15.9c0,0,11.6,18.2,35.6,18.5c6.1,0.1,11.9-1.9,15.1-3.5l-0.2,26.1
		c0,0,0.6,9.1-11.5,11.7c-15.7,3.4-16.8-5.8-16.8-5.8s-0.8-11.6,0.5-12.7c0.9-0.8,3.6-0.1,5.3,0.5c0.9,0.3,1.2,0.5,1.4,0.2
		c0.2-0.3,0.1-1.2,0.1-1.2v-2.8l-31.9-18.6c0,0-1.5,4.5,0,5.8c4.7,4.1,4.4,6.3,4.4,6.3S181.2,312.8,183.3,317.7z"/>
	<path id="XMLID_151_" class="st0" d="M265.2,314.1l-0.3,9.3c0,0,58.8-20.6,106.4-23.8l0.3-7.4c0,0-9.1-1.3-10.6-4.6
		c-1.1-2.4-0.9-14-0.2-20c0.3-2.8,0-2.9-0.3-3.1c-0.2-0.2-1-0.6-3.2-0.4c-4.4,0.3-11.7,0.9-16.2,2.3c-0.7,0.2-1.4,0.5-1.8,1
		c-0.5,0.6-0.4,2.1-0.4,2.1V280c0,0,0,1-0.4,1.4c-0.3,0.3-1.4,0.6-2.1,0.7c-9.2,2-26,6-33.4,7.9c-2.1,0.6-2.7,0.4-3.4-0.1
		c-0.7-0.6-0.6-2.4-0.6-2.4v-17.2c18.5-6.6,29.9-8.9,29.9-8.9s-13.4,0.8-29.9,6.5v-3.8c9.7-2.8,20.4-5.2,31.1-6.4c0,0,0-1.9,0-4.5
		c-6.3,0-18,0.6-31.1,3v-15.4c21.7-5.8,30.4-12.7,30.4-12.7c-13.1,5.1-14.2,5.4-30.4,9.9v-3.7c7.2-1.8,40.1-14.3,40.1-14.3
		s0,15.2,0,16.2c12.9-2.6,22-2.9,22-2.9v-7.2c0,0,0-21.8,0-22.6c-0.4-14.5-7.1-8.4-7.1-8.4c-40.5,29.6-83.5,33.2-83.5,33.2l0,9.5
		c5.4-0.2,4.8,4.5,4.8,4.5l0,20.1c-5.2,1.8-10.4,4-15.2,6.6v10c0,0,5.9-3,15.2-6.7l0,4.5c-6.1,2.4-11.9,4.9-15.2,6.7v3.3
		c5.3-2.6,10.3-5,15.2-7.1l0,20.2C275.3,299.9,274.8,309.9,265.2,314.1z"/>
	<path id="XMLID_150_" class="st0" d="M221.9,350.8c13.5-10.8,35.9-23.8,33.2-22.9c-2.3,0.8-9.9,4.4-14.6,7.2
		c-6.8,4-12.3,6.8-22.1,13.1c-7.3,4.7-14.5,10.3-20.4,15.3c0-3.9-5.1-6.8-7-7.8c-1.9-1-46.7-20-53.3-22.2c0,0,0.2,0.8,1,1.2
		c8.2,3.8,42.6,19.3,48.3,24.6c4.7,5.1,2,10.8,0,13.7c-2,2.1-2.9,3.3-2.9,3.3c2.9-1,17.6-8.2,28-13.2c12.3-4.6,20.8-4.8,22.7-5
		c89.2-7,113,8.3,113,8.3c-5.5-4.2-16.4-7.5-29.5-9.8c25.1-0.8,50.1-4.8,65.9-15.3c-31.2,17.7-107.5,11-137.4,7.5
		c123.1-46.8,186-36,186-36C363.1,296.5,258.6,334.5,221.9,350.8z"/>
	<path id="XMLID_149_" class="st0" d="M280,340.7c-4.5,1.5-1.5,3.6,1.2,3.1c2.7-0.6,7.5-3.9,7.5-3.9S284.5,339.2,280,340.7z"/>
	<path id="XMLID_148_" class="st0" d="M298,344.5c-3.2-1.1-10.3-0.6-10.3-0.6s4,3.3,9.7,4.6C303.1,349.7,301.3,345.6,298,344.5z"/>
	<path id="XMLID_147_" class="st0" d="M296.5,336.8c-5.3,2.3-8.6,6.4-8.6,6.4s7-0.9,10-2.6C300.8,338.8,301.8,334.4,296.5,336.8z"/>
	<path id="XMLID_146_" class="st0" d="M329.2,341.3c-4.7-1.7-15.1-0.8-15.1-0.8s5.8,4.9,14.2,6.7
		C336.6,348.9,333.9,342.9,329.2,341.3z"/>
	<path id="XMLID_145_" class="st0" d="M328.9,334.1c4.3-2.6,5.8-8.9-2-5.6c-7.8,3.4-12.6,9.4-12.6,9.4S324.6,336.7,328.9,334.1z"/>
	<path id="XMLID_144_" class="st0" d="M364.4,334.3c-10-2.9-18.1,0.5-18.1,0.5s8.9,2.6,17.6,5.7
		C372.4,343.6,370.5,336.1,364.4,334.3z"/>
	<path id="XMLID_143_" class="st0" d="M362.9,320c-7.1,6.4-11.5,10.8-11.5,10.8s8.6-0.1,13.8-3.9C371.6,322.3,369.6,314,362.9,320z"
		/>
	<path id="XMLID_142_" class="st0" d="M280.4,347.9c4.7,0.6,8.7-0.9,8.7-0.9s-5.3-2.4-8.1-2.4C278.2,344.6,275.7,347.3,280.4,347.9z
		"/>
	<path id="XMLID_141_" class="st0" d="M306.4,347c6.9,2.2,13.3,0.9,13.3,0.9s-7.4-4.9-11.6-5.6C303.9,341.6,299.4,344.9,306.4,347z"
		/>
	<path id="XMLID_140_" class="st0" d="M307.5,339.4c3.9-1.8,9.7-8.4,9.7-8.4s-6.5,0.5-12.6,4.3C298.4,339.2,303.6,341.2,307.5,339.4
		z"/>
	<path id="XMLID_139_" class="st0" d="M340.1,344.2c9.5,1.3,17.5-1.7,17.5-1.7s-10.6-4.8-16.2-4.8
		C335.8,337.7,330.7,342.9,340.1,344.2z"/>
	<path id="XMLID_138_" class="st0" d="M341.3,334.7c5.2-2.4,12.9-11.2,12.9-11.2s-8.6,0.6-16.8,5.8
		C329.2,334.4,336.1,337.1,341.3,334.7z"/>
	<path id="XMLID_137_" class="st0" d="M372.9,333.2c5.6-0.8,15.7-7,15.7-7s-8.4-1.9-17.8,0.6C361.4,329.4,367.2,334,372.9,333.2z"/>
	<path id="XMLID_136_" class="st0" d="M114.8,323.3l-47.6-20.3v3.5c0,0,46.7,18,47.6,17.7C115.7,323.8,114.8,323.3,114.8,323.3z"/>
	<path id="XMLID_135_" class="st0" d="M360.9,237c-13.4,0.7-21.7,2.9-21.7,2.9v1L360.9,237z"/>
	<path id="XMLID_132_" class="st0" d="M45.4,202.8c35.2,1.1,48.8-46.9,51.4-57.4c13-0.1,28.1-2.9,38.4-7.5
		c23.4-10.5,34.6-35.5,18.2-55.4c-4.2-4.5-12.1-7.4-21.5-7.1c4.1-1,10.1-3.8,11.1-10.5c0.3-2.3,0.3-8.8-6.2-12.4
		c-3.9-2.1-11-2.2-15.6-0.9l0.8-3.1C114.4,47.9,99,61.6,90.5,58c0,0-0.9,6.3,13.8,4.3l-9.9,36.1c5.7-2,13.5-3.6,15.5-3.8l3.4-13.1
		c2.7-0.9,5.4-1.7,7.8-2.3c13-3.3,27.3,6.6,27.5,22c-0.2,13.5-6.5,24.3-23.4,31.4c0,0-12.6,6.1-27,7l7.3-28.3
		c-4-1.6-10.7,0.9-15.5,2.9l-6.6,24.2c-2-0.5-4-1.3-5.9-2.2c-11.2-5.5-1.5-21.8,11.6-26.8c29-11.2,23.6,4,21,5.9
		c11.3-2.6,23.3-26.6-16.8-11.8c-22.6,8.3-35,31.1-15.7,39.1c1.3,0.5,2.7,1,4.3,1.3c-1.1,5-11.7,50.5-36.2,49.5
		c-19.1-0.8-26-17-28.1-25.6c-5.9-24.9,5-59.2,32.9-70.1c5.2-2,8.4-2.3,8.4-2.3s0.1-0.9-1.2-1c-3.3-0.1-9.3,2-9.3,2
		c-22.7,8.4-41.1,33.6-38.1,70.5C11.8,178.5,24.1,202.1,45.4,202.8z M135.2,63c0,4.9-3.7,8.5-7.4,10.2c-1.8,0.8-8.1,3-13.6,4.8
		l6.1-23.3C133.3,52.3,135.2,58.8,135.2,63z"/>
	<path id="XMLID_129_" class="st0" d="M222.8,58.6l1.3-4.8c-6.7-0.1-8.9,2.4-8.9,2.4c-0.3,3.3-3.4,16.8-7,30.1
		c-3.6,13.3-9.2,21.9-17.6,24.7c-8.7,2.9-16.8-2.8-17.5-10.7c-0.3-3.5-0.2-6.9,0.3-10.2c13.7-0.1,21.1-5.1,24.4-10.1
		c7.1-10.7,0.3-23.1-14.5-16.2c-10.7,5-17.7,25.4-17.9,31.8c-2.5,20.1,14.5,25,24.1,23.1c11.6-2.3,20.5-12,25.9-32.5l4-15.1
		C223.8,57,232,52.6,232,52.6c-4.8,7.8-0.9,16,8.3,14.3c2.4-0.6,2.7-2.4,2.7-2.4c-9,1.1-8.9-8-1.8-14.4c2.1-1.9,1.8-3.7,0.4-4.3
		C234,43.5,227.1,51.7,222.8,58.6z M182.7,70.3c8.8-7,15.8-0.7,10.9,7.6c-2,3.5-6,6.7-11,8.3c-2.9,1-6.3,1.3-8.9,1.4
		C175.1,80.7,178.2,74.6,182.7,70.3z"/>
	<path id="XMLID_128_" class="st0" d="M232.1,97c-2.5,1-5.5,0.6-3.8-3.7c0,0-0.2-0.7-1.7,0.3c-1.5,1-4.3,4.8-3.5,7.6
		c1.6,5.8,10.3,2.4,12.6,1c9.3-5.5,13.4-13.7,17.5-30.3l2.4-12.4c3.4-13.9,11-18.8,11-18.8c-4.2,8.1,0.3,16,9.4,13.7
		c2.4-0.8,2.5-2.6,2.5-2.6c-8.8,1.8-9.5-7.3-2.8-14.2c1.9-2.1,1.5-3.8,0.1-4.3c-7.7-1.8-13.9,6.6-17.7,13.7l0.8-4.3
		c-6.7,0.4-8.7,3.4-8.7,3.4c0,3.1-1.9,12.7-4.6,25.3C243,84,239,94.4,232.1,97z"/>
	<path id="XMLID_127_" class="st0" d="M42.6,148.6c-4.3-6.4-14.2-6.5-23.4-0.5c-0.2,1.4-0.2,2.7-0.2,4.1c1.9-1.8,4-3.4,6.4-4.6
		c4.2-2.1,10.8-3.6,16,1.3C41.5,148.8,44.6,151.8,42.6,148.6z"/>
	<path id="XMLID_126_" class="st0" d="M50.1,142c0.9-4.7-0.7-8.2-0.8-7.6s0.5,1-2.7,4c-3.2,3-0.7,11.2-0.7,11.2S49.2,146.7,50.1,142
		z"/>
	<path id="XMLID_125_" class="st0" d="M58.3,148.5c-0.6-2.2-2.8-3.4-4.9-2.8c-2.1,0.6-3.4,2.9-2.8,5.1c0.6,2.2,2.8,3.4,4.9,2.8
		C57.6,152.9,58.9,150.6,58.3,148.5z"/>
	<path id="XMLID_124_" class="st0" d="M43.5,161.2c0.6,2.2,2.8,3.4,4.9,2.8c2.1-0.6,3.4-2.9,2.8-5.1c-0.6-2.2-2.8-3.4-4.9-2.8
		C44.2,156.8,42.9,159,43.5,161.2z"/>
	<path id="XMLID_123_" class="st0" d="M36.6,159.2c2.1-0.6,3.4-2.9,2.8-5.1c-0.6-2.2-2.8-3.4-4.9-2.8c-2.1,0.6-3.4,2.9-2.8,5.1
		C32.3,158.6,34.5,159.8,36.6,159.2z"/>
	<path id="XMLID_122_" class="st0" d="M39.1,172.5c2.1-0.6,3.4-2.9,2.8-5.1c-0.6-2.2-2.8-3.4-4.9-2.8c-2.1,0.6-3.4,2.9-2.8,5.1
		C34.8,171.9,37,173.2,39.1,172.5z"/>
	<path id="XMLID_121_" class="st0" d="M60.4,166.2c2.1-0.6,3.4-2.9,2.8-5.1c-0.6-2.2-2.8-3.4-4.9-2.8c-2.1,0.6-3.4,2.9-2.8,5.1
		C56.1,165.6,58.3,166.8,60.4,166.2z"/>
	<path id="XMLID_120_" class="st0" d="M52,177.1c2.1-0.6,3.4-2.9,2.8-5.1c-0.6-2.2-2.8-3.4-4.9-2.8c-2.1,0.6-3.4,2.9-2.8,5.1
		C47.7,176.5,49.9,177.7,52,177.1z"/>
	<path id="XMLID_115_" class="st0" d="M278.5,62.9c-1.7,4.7-4.8,12.9-6.1,18c-1.2,4.9-0.3,9.3,3.6,9.7c12.7,1.3,34.7-18.6,39.2-23.2
		c0,0,3.4-3.4,3.8-3.7c0.1,0.2,0.6,2.1,0.9,2.7c4.7,9.4,12.5,25.4,15.5,45.1c-2.1-0.6-4.5-0.9-7.1-0.3c4.2,9.3,4.5,23.2,2.5,34.5
		c-11.9,55.2-67.5,63.1-95.1,61.9c-20.9-1-39.6-7.9-49.5-18.5c-9.3-9.9-8.1-30.5,7.8-40.3c-14.5,15.5-11.5,32.3,5.4,43.5
		c9.5,6.3,57.5,18.6,89.9-2.6c0,0,14.7-9.9,19.1-22.7c6.4-18.3-5.3-26.3-15.1-28.5c0,0-16.4-4.3-34,3c-11.2,4.7-19.5,10.2-25.2,15.9
		c-5.5-5.9-10-12.4-12.2-19c11.2-6.3,14.2-8.7,14.2-8.7c12.6-9.7,5.1-21.8-4.9-18.6c-10.7,3.4-14.9,15-14.8,23.8
		c-0.2,0.1-0.2,0.1-0.2,0.1c-13.8,4.5-23.7,11-30.7,16.1c-7.8,5.6-19.3,27.2,2.5,45.2c14.3,11.8,46.9,20.8,85.9,15
		c5-0.7,20.1-4.2,35.5-13.2c0,0,0,0,0,0c0.2-0.1,0.3-0.2,0.5-0.3c15.7-9.3,31.4-24.3,36.7-48c1.1-4.7,1.2-9.4,0.8-14
		c0.4-28.1-15.5-58-25.1-75.7c0.2-0.5,12.2-17.5,14.3-35.3c1.5-12.4-14.3-13.9-21.1-1.1c0,0-6.7,11.3-1.5,28.8
		c0.1,0.2,1.7,4.9,1.8,5.1c-5.1,10-27.9,23.1-31.6,19.1c-1.2-1.2,0.2-7.1,1-10.1c1.9-7.9,6.3-21.4,14.5-37.5c0,0-3.8,0.7-4.3,1
		c1.9-9.1-2.4-8.5-4.8-8.5c-3.4,0-9.8,4.2-9.2,4.5C291,27.4,280,57.5,278.5,62.9z M230,114.3c7.7-4.4,14.2,3.1,6.4,10.2
		c-2.9,2.7-10.1,6.3-15.1,8.4C222,119.3,230,114.3,230,114.3z M207.5,146.6c3.1-2.2,4.8-3.1,9.4-5.8c2.3,8.9,6.6,16.6,11.6,23
		c-5.5,7.4-7.1,13.3-7.1,13.3c0.7-1.1,1.1-1.9,1.9-3.1c1.6-2.5,3.7-5.6,6.3-8.7c11.9,15.1,26.6,22.3,26.6,22.3
		c13-1.7,21.1-8.2,21.1-8.2c-11.6,1.2-29.2-7.6-41.8-20.5c6.7-6.2,15-11.9,23.9-15.1c21.1-7.4,42.3-0.8,39.4,14.1
		c-3.7,19-22.5,28-22.5,28c-20.3,10.7-48.8,10.4-68.8-1.5C196.1,177.5,186.9,161.6,207.5,146.6z M321.1,22.2
		c2.7-1.9,6.7-2.9,7.7,1.9c1,5-4.5,22.2-10.1,29.1C315.1,43.6,314.4,27.6,321.1,22.2z"/>
	<path id="XMLID_114_" class="st0" d="M158.3,30.9c5.7,3.6,14.5-2.3,10.6-1.7c-3.1,0.5-6,0.1-6-2.3c0.1-3.3,11.3-10.7,24.9-16.7
		c-4.1,9.3-4.9,23.6-9.9,33c-3.2,5-9.4,5.2-9,2.9c0.4-2.1,1.4-3,2.5-3.2c-1.5,0.1-3.4,0.8-5.2,2.9c-4.2,4.5,1.1,6.7,7,5
		c0.1,0,0.3-0.1,0.5-0.1c0,0,0.1,0,0.1-0.1c2.6-0.9,5.3-2.6,7.3-5.2l0,0c7.9-9.5,6.9-26.9,10.5-36.8c9.6-3.9,20.1-6.9,28.4-7.1
		L217.9,0c-9.3,1.3-17.3,3.1-24.8,5.7c0.8-1.3,1.7-2.3,2.9-3c0,0,0.5-0.8-0.5-0.7c-2.4,0.9-4.3,2.6-5.8,4.9
		c-9.6,3.6-18.5,8.4-28.5,14.9C161.1,21.8,152.9,27.6,158.3,30.9z"/>
	<path id="XMLID_111_" class="st0" d="M214.6,33.7c-1,1.1-2.1,0.6-2.1,0.6c-3.8-1.1,5.3-14.2-2-15.7c-2.2-0.4-6.6,1.5-9.7,5.1
		c1.3-6.7,2.9-13.2,6.4-16.9C205.6,6,203,7.5,203,7.5c-8.6,5.6-6.3,34.3-14.9,36.2c0,0-1.5,3.2-2.3,3.6c-0.4,0.2,5.2-0.9,7.5-2.9
		l0,0c3.5-2.6,5-8.6,6.4-15.4c1.3-4,5-7.7,8-7.1c4.5,0.9-4.2,13.5,0.3,15.9c1.4,0.7,4.6,1.6,7.5-2.3c1.8-2.3,2.5-4.8,2.9-7
		c1.1,3.5,4.7,4.7,7.2,4.7c1.3,0,4-1.1,5.2-1.7c1.5-1,3-2.5,3.8-3.8c0.9-1.5,1-2.9,0.8-4.8c-2.1,4-4.4,6.4-7.4,6.8
		c-3.2,0.4-5.6-2.1-5.3-4.9c0.1-1.2,0.1-1.6,0.5-2.8c4.7,0.9,7.9-1.1,9.4-2.6c3.2-3.2,1.5-7-4.1-5.4c-4.7,1.3-7.7,4.8-9.2,7.6
		C217.5,24.7,216.4,31.8,214.6,33.7z M227.9,16.4c3.5-1.8,5.6-0.4,3.4,2.2c-0.9,1.1-2.5,1.9-4.4,2.1c-1.1,0.1-2.3,0-3.2-0.1
		C224.6,18.4,226,17.6,227.9,16.4z"/>
</g>
</svg>
