<svg id="Layer_1" data-name="Layer 1" xmlns="http://www.w3.org/2000/svg" width="500" height="500" viewBox="0 0 500 500">
  <defs>
    <style>
      .cls-1 {
        fill: #010101;
      }
    </style>
  </defs>
  <title>logo</title>
  <g id="_Group_" data-name="&lt;Group&gt;">
    <path id="_Path_" data-name="&lt;Path&gt;" class="cls-1" d="M84.153,152.65c1.7,2.6,7.9,1.9,7.9,1.9a10.137,10.137,0,0,0-4.9-3.9c-3.2-1.2-5.9-.5-5.5-0.3C82.153,150.45,82.453,149.95,84.153,152.65Z"/>
    <circle id="_Path_2" data-name="&lt;Path&gt;" class="cls-1" cx="94.253" cy="149.15" r="2.7"/>
    <circle id="_Path_3" data-name="&lt;Path&gt;" class="cls-1" cx="99.353" cy="155.95" r="2.7"/>
    <path id="_Path_4" data-name="&lt;Path&gt;" class="cls-1" d="M96.253,162.75a2.754,2.754,0,1,0-2.9,2.6A2.661,2.661,0,0,0,96.253,162.75Z"/>
    <circle id="_Path_5" data-name="&lt;Path&gt;" class="cls-1" cx="102.653" cy="163.85" r="2.7"/>
    <circle id="_Path_6" data-name="&lt;Path&gt;" class="cls-1" cx="103.453" cy="148.65" r="2.7"/>
    <circle id="_Path_7" data-name="&lt;Path&gt;" class="cls-1" cx="108.553" cy="156.45" r="2.7"/>
    <path id="_Path_8" data-name="&lt;Path&gt;" class="cls-1" d="M327.253,274.65c-41.3,13.7-84.3,1.5-94.8-2.8,37.3,18.1,114.2,19.6,152.1-30.6,18.5-28.4,8.4-50,8.4-50C393.753,231.25,368.653,260.85,327.253,274.65Z"/>
    <path id="_Path_9" data-name="&lt;Path&gt;" class="cls-1" d="M164.953,311.95c-10.8-3.4-25.5-3.3-30.8-2.1-3.8.9,12.1-2.3,30.8,5,13.5,5.3,15.4,11.5,16.4,13.8v40.5c0.2,3.4-.4,4.8-2.5,4.6-0.9-.1-4.1-1.6-5.9-2.3a0.853,0.853,0,0,0-.9.1,2.175,2.175,0,0,0-.2,1l0.2,9.5,56.3,22.8s0.6-8,.1-8.9a2.235,2.235,0,0,0-1-.9c-4.1-2.3-15.4-7.2-18.1-8.7-3-1.6-3.5-1.3-4.1-4.1s-0.1-51.7-.1-63.6a7.552,7.552,0,0,0-.3-3.1c-0.3-.8-1.7-1.8-2.6-2.4-5.1-3.8-17.9-13.3-35.8-14.8,6.1-.7,14-1.8,18-3.7,5.2-2.5,8.9-4.3,9.3-14.5v-33.3s0.1-3.2-.4-2.9c-0.3.2-.3,0.4-2,0.5-1.9.2-5.1-.3-9.8-2.9-8.6-4.8-10-6.4-14.5-9-5-2.9-17.7-9.5-32.8,1.6-9.1,6.7-27.5,48.2-61.9,47.9-17.7-.2-33.9-13.7-33.9-32.9a45.017,45.017,0,0,1,2.9-16.4c0-.2-0.1-0.4-0.1-0.7,0-.1-0.1-0.3-0.1-0.4a50.1,50.1,0,0,1-.7-7.7,63.217,63.217,0,0,0-6.8,26.4c-0.4,23.8,17.6,35.6,35.3,38.6a51.172,51.172,0,0,0,37.9-10.4c20.1-15.6,27.2-31.1,34.4-35.9,4.1-2.7,10.2-7.9,21.7-3,10.1,4.3,11.9,15.6,11.9,15.6s1.2,27,0,31.4c0,0-11.8,11.4-26,11.8h0.4c-9.5.8-15.1,2.5-18.1,3.8v-23.4c4-9.2,11.2-30.7,26.5-30.6a15.735,15.735,0,0,1,8.2,2.3c0.3-.7-3.5-4.8-8.6-5.2-12.2-1-22,12.3-28.2,19h0s-22.6,30.5-47.5,28.8c9.4,2.5,25.2.9,29.2,0v45.7s0.2,7.3-3,5.8c-1-.5-4-1.7-5.1-2.3a2.21,2.21,0,0,0-1.3-.4,0.778,0.778,0,0,0-.3.6v10.1l48.1,20.5s0.8-8.1,0-9.4a1.779,1.779,0,0,0-.8-0.7c-3.1-1.7-11.3-5.3-12.7-6.1-3.7-2.1-4.6-2.4-4.6-6.6,0-4-.1-4.8-0.1-44,6.5-2.3,19.6-2.9,31.6-.3,11.3,2.4,16.9,12.8,18.3,15.9C180.053,320.05,176.553,315.85,164.953,311.95Z"/>
    <path id="_Path_10" data-name="&lt;Path&gt;" class="cls-1" d="M216.853,379.55c2.1,4.9,34.1,14.5,34.1,14.5,17.1-8.3,35.3-15.1,35.3-20.8,0-5.8.2-68.3,0.2-68.3-0.2-4.8,10.8-5,10.8-5v-9.6c-22.3,2.2-35-.2-35-0.2l0.1,9.4a5.076,5.076,0,0,1,3.5,4.8v18.8c-21.5,8.9-28.1-4-28.1-4s-0.4-16.1,0-20.4c0.4-4.4,5.8-2.5,5.8-2.5l-0.1-10.1c-19-7-29.3-18.2-33.2-23.3-1.1-1.5-1.7-1-1.8-.6a6.817,6.817,0,0,0-.2,1.8c-0.2,5-.3,13.1.1,13.9,0.7,1.1,6,5.6,6.5,6.8a17.375,17.375,0,0,1,.5,4.6,38.854,38.854,0,0,1-6.8-5.6c-1.5,0,4.1,5.5,6.9,8.1,0.1,6-.1,14.3-0.2,19.9a8.21,8.21,0,0,0,.5,2.8,4.93,4.93,0,0,0,1.3,2c5.4,6,24,23.6,48.7,10.9v4.2c-1.8,1.4-6,3.7-15.5,4-18.9.8-32.8-13.7-35.2-15.9a44.458,44.458,0,0,0,35.6,18.5,34.617,34.617,0,0,0,15.1-3.5l-0.2,26.1s0.6,9.1-11.5,11.7c-15.7,3.4-16.8-5.8-16.8-5.8s-0.8-11.6.5-12.7c0.9-.8,3.6-0.1,5.3.5,0.9,0.3,1.2.5,1.4,0.2a2.7,2.7,0,0,0,.1-1.2v-2.8l-31.9-18.6s-1.5,4.5,0,5.8c4.7,4.1,4.4,6.3,4.4,6.3S214.753,374.65,216.853,379.55Z"/>
    <path id="_Path_11" data-name="&lt;Path&gt;" class="cls-1" d="M298.753,375.95l-0.3,9.3s58.8-20.6,106.4-23.8l0.3-7.4s-9.1-1.3-10.6-4.6c-1.1-2.4-.9-14-0.2-20,0.3-2.8,0-2.9-.3-3.1-0.2-.2-1-0.6-3.2-0.4-4.4.3-11.7,0.9-16.2,2.3a3.535,3.535,0,0,0-1.8,1,3.869,3.869,0,0,0-.4,2.1v10.5a2.464,2.464,0,0,1-.4,1.4,5.167,5.167,0,0,1-2.1.7c-9.2,2-26,6-33.4,7.9-2.1.6-2.7,0.4-3.4-.1-0.7-.6-0.6-2.4-0.6-2.4v-17.2c18.5-6.6,29.9-8.9,29.9-8.9a124.416,124.416,0,0,0-29.9,6.5v-3.8a190.285,190.285,0,0,1,31.1-6.4v-4.5a182.5,182.5,0,0,0-31.1,3v-15.4c21.7-5.8,30.4-12.7,30.4-12.7-13.1,5.1-14.2,5.4-30.4,9.9v-3.7c7.2-1.8,40.1-14.3,40.1-14.3v16.2a148.052,148.052,0,0,1,22-2.9v-29.8c-0.4-14.5-7.1-8.4-7.1-8.4-40.5,29.6-83.5,33.2-83.5,33.2v9.5c5.4-.2,4.8,4.5,4.8,4.5v20.1a102.652,102.652,0,0,0-15.2,6.6v10s5.9-3,15.2-6.7v4.5a156.057,156.057,0,0,0-15.2,6.7v3.3c5.3-2.6,10.3-5,15.2-7.1v20.2S308.353,371.75,298.753,375.95Z"/>
    <path id="_Path_12" data-name="&lt;Path&gt;" class="cls-1" d="M255.453,412.65c13.5-10.8,35.9-23.8,33.2-22.9a118.412,118.412,0,0,0-14.6,7.2c-6.8,4-12.3,6.8-22.1,13.1a200.744,200.744,0,0,0-20.4,15.3c0-3.9-5.1-6.8-7-7.8s-46.7-20-53.3-22.2a2.008,2.008,0,0,0,1,1.2c8.2,3.8,42.6,19.3,48.3,24.6,4.7,5.1,2,10.8,0,13.7a41.893,41.893,0,0,0-2.9,3.3c2.9-1,17.6-8.2,28-13.2a76.709,76.709,0,0,1,22.7-5c89.2-7,113,8.3,113,8.3-5.5-4.2-16.4-7.5-29.5-9.8,25.1-.8,50.1-4.8,65.9-15.3-31.2,17.7-107.5,11-137.4,7.5,123.1-46.8,186-36,186-36C396.653,358.35,292.153,396.35,255.453,412.65Z"/>
    <path id="_Path_13" data-name="&lt;Path&gt;" class="cls-1" d="M313.553,402.55c-4.5,1.5-1.5,3.6,1.2,3.1,2.7-.6,7.5-3.9,7.5-3.9A20.1,20.1,0,0,0,313.553,402.55Z"/>
    <path id="_Path_14" data-name="&lt;Path&gt;" class="cls-1" d="M331.553,406.35c-3.2-1.1-10.3-.6-10.3-0.6a25.812,25.812,0,0,0,9.7,4.6C336.653,411.55,334.853,407.45,331.553,406.35Z"/>
    <path id="_Path_15" data-name="&lt;Path&gt;" class="cls-1" d="M330.053,398.65a24.881,24.881,0,0,0-8.6,6.4s7-.9,10-2.6C334.353,400.65,335.353,396.25,330.053,398.65Z"/>
    <path id="_Path_16" data-name="&lt;Path&gt;" class="cls-1" d="M362.753,403.15c-4.7-1.7-15.1-.8-15.1-0.8a35.8,35.8,0,0,0,14.2,6.7C370.153,410.75,367.453,404.75,362.753,403.15Z"/>
    <path id="_Path_17" data-name="&lt;Path&gt;" class="cls-1" d="M362.453,395.95c4.3-2.6,5.8-8.9-2-5.6a36.343,36.343,0,0,0-12.6,9.4S358.153,398.55,362.453,395.95Z"/>
    <path id="_Path_18" data-name="&lt;Path&gt;" class="cls-1" d="M397.953,396.15a29.445,29.445,0,0,0-18.1.5s8.9,2.6,17.6,5.7C405.953,405.45,404.053,397.95,397.953,396.15Z"/>
    <path id="_Path_19" data-name="&lt;Path&gt;" class="cls-1" d="M396.453,381.85c-7.1,6.4-11.5,10.8-11.5,10.8s8.6-.1,13.8-3.9C405.153,384.15,403.153,375.85,396.453,381.85Z"/>
    <path id="_Path_20" data-name="&lt;Path&gt;" class="cls-1" d="M313.953,409.75a20.185,20.185,0,0,0,8.7-.9s-5.3-2.4-8.1-2.4S309.253,409.15,313.953,409.75Z"/>
    <path id="_Path_21" data-name="&lt;Path&gt;" class="cls-1" d="M339.953,408.85a29.336,29.336,0,0,0,13.3.9s-7.4-4.9-11.6-5.6S332.953,406.75,339.953,408.85Z"/>
    <path id="_Path_22" data-name="&lt;Path&gt;" class="cls-1" d="M341.053,401.25c3.9-1.8,9.7-8.4,9.7-8.4a31.1,31.1,0,0,0-12.6,4.3C331.953,401.05,337.153,403.05,341.053,401.25Z"/>
    <path id="_Path_23" data-name="&lt;Path&gt;" class="cls-1" d="M373.653,406.05a39.768,39.768,0,0,0,17.5-1.7s-10.6-4.8-16.2-4.8S364.253,404.75,373.653,406.05Z"/>
    <path id="_Path_24" data-name="&lt;Path&gt;" class="cls-1" d="M374.853,396.55c5.2-2.4,12.9-11.2,12.9-11.2a40.122,40.122,0,0,0-16.8,5.8C362.753,396.25,369.653,398.95,374.853,396.55Z"/>
    <path id="_Path_25" data-name="&lt;Path&gt;" class="cls-1" d="M406.453,395.05c5.6-.8,15.7-7,15.7-7a41.3,41.3,0,0,0-17.8.6C394.953,391.25,400.753,395.85,406.453,395.05Z"/>
    <path id="_Path_26" data-name="&lt;Path&gt;" class="cls-1" d="M148.353,385.15l-47.6-20.3v3.5s46.7,18,47.6,17.7C149.253,385.65,148.353,385.15,148.353,385.15Z"/>
    <path id="_Path_27" data-name="&lt;Path&gt;" class="cls-1" d="M394.453,298.85a117.06,117.06,0,0,0-21.7,2.9v1Z"/>
    <path id="_Compound_Path_" data-name="&lt;Compound Path&gt;" class="cls-1" d="M78.953,264.65c35.2,1.1,48.8-46.9,51.4-57.4,13-.1,28.1-2.9,38.4-7.5,23.4-10.5,34.6-35.5,18.2-55.4-4.2-4.5-12.1-7.4-21.5-7.1,4.1-1,10.1-3.8,11.1-10.5a12.178,12.178,0,0,0-6.2-12.4c-3.9-2.1-11-2.2-15.6-.9l0.8-3.1c-7.6-.6-23,13.1-31.5,9.5,0,0-.9,6.3,13.8,4.3l-9.9,36.1a94.572,94.572,0,0,1,15.5-3.8l3.4-13.1c2.7-.9,5.4-1.7,7.8-2.3,13-3.3,27.3,6.6,27.5,22-0.2,13.5-6.5,24.3-23.4,31.4a81.526,81.526,0,0,1-27,7l7.3-28.3c-4-1.6-10.7.9-15.5,2.9l-6.6,24.2a32.333,32.333,0,0,1-5.9-2.2c-11.2-5.5-1.5-21.8,11.6-26.8,29-11.2,23.6,4,21,5.9,11.3-2.6,23.3-26.6-16.8-11.8-22.6,8.3-35,31.1-15.7,39.1a24.191,24.191,0,0,0,4.3,1.3c-1.1,5-11.7,50.5-36.2,49.5-19.1-.8-26-17-28.1-25.6-5.9-24.9,5-59.2,32.9-70.1a35.293,35.293,0,0,1,8.4-2.3s0.1-.9-1.2-1c-3.3-.1-9.3,2-9.3,2-22.7,8.4-41.1,33.6-38.1,70.5C45.353,240.35,57.653,263.95,78.953,264.65Zm89.8-139.8c0,4.9-3.7,8.5-7.4,10.2-1.8.8-8.1,3-13.6,4.8l6.1-23.3C166.853,114.15,168.753,120.65,168.753,124.85Z"/>
    <path id="_Compound_Path_2" data-name="&lt;Compound Path&gt;" class="cls-1" d="M256.353,120.45l1.3-4.8c-6.7-.1-8.9,2.4-8.9,2.4-0.3,3.3-3.4,16.8-7,30.1s-9.2,21.9-17.6,24.7c-8.7,2.9-16.8-2.8-17.5-10.7a43.233,43.233,0,0,1,.3-10.2c13.7-.1,21.1-5.1,24.4-10.1,7.1-10.7.3-23.1-14.5-16.2-10.7,5-17.7,25.4-17.9,31.8-2.5,20.1,14.5,25,24.1,23.1,11.6-2.3,20.5-12,25.9-32.5l4-15.1c4.4-14.1,12.6-18.5,12.6-18.5-4.8,7.8-.9,16,8.3,14.3a3.327,3.327,0,0,0,2.7-2.4c-9,1.1-8.9-8-1.8-14.4,2.1-1.9,1.8-3.7.4-4.3C267.553,105.35,260.653,113.55,256.353,120.45Zm-40.1,11.7c8.8-7,15.8-.7,10.9,7.6a19.585,19.585,0,0,1-11,8.3,32.233,32.233,0,0,1-8.9,1.4A32.8,32.8,0,0,1,216.253,132.15Z"/>
    <path id="_Path_28" data-name="&lt;Path&gt;" class="cls-1" d="M265.653,158.85c-2.5,1-5.5.6-3.8-3.7,0,0-.2-0.7-1.7.3s-4.3,4.8-3.5,7.6c1.6,5.8,10.3,2.4,12.6,1,9.3-5.5,13.4-13.7,17.5-30.3l2.4-12.4c3.4-13.9,11-18.8,11-18.8-4.2,8.1.3,16,9.4,13.7a3.221,3.221,0,0,0,2.5-2.6c-8.8,1.8-9.5-7.3-2.8-14.2,1.9-2.1,1.5-3.8.1-4.3-7.7-1.8-13.9,6.6-17.7,13.7l0.8-4.3c-6.7.4-8.7,3.4-8.7,3.4,0,3.1-1.9,12.7-4.6,25.3C276.553,145.85,272.553,156.25,265.653,158.85Z"/>
    <path id="_Path_29" data-name="&lt;Path&gt;" class="cls-1" d="M76.153,210.45c-4.3-6.4-14.2-6.5-23.4-.5a28.154,28.154,0,0,0-.2,4.1,26.726,26.726,0,0,1,6.4-4.6c4.2-2.1,10.8-3.6,16,1.3C75.053,210.65,78.153,213.65,76.153,210.45Z"/>
    <path id="_Path_30" data-name="&lt;Path&gt;" class="cls-1" d="M83.653,203.85c0.9-4.7-.7-8.2-0.8-7.6s0.5,1-2.7,4-0.7,11.2-.7,11.2A14.684,14.684,0,0,0,83.653,203.85Z"/>
    <path id="_Path_31" data-name="&lt;Path&gt;" class="cls-1" d="M91.853,210.35a3.939,3.939,0,0,0-4.9-2.8,4.185,4.185,0,0,0-2.8,5.1,3.939,3.939,0,0,0,4.9,2.8A4.281,4.281,0,0,0,91.853,210.35Z"/>
    <path id="_Path_32" data-name="&lt;Path&gt;" class="cls-1" d="M77.053,223.05a3.939,3.939,0,0,0,4.9,2.8,4.185,4.185,0,0,0,2.8-5.1,3.939,3.939,0,0,0-4.9-2.8A4.232,4.232,0,0,0,77.053,223.05Z"/>
    <path id="_Path_33" data-name="&lt;Path&gt;" class="cls-1" d="M70.153,221.05a4.185,4.185,0,0,0,2.8-5.1,3.939,3.939,0,0,0-4.9-2.8,4.185,4.185,0,0,0-2.8,5.1A3.939,3.939,0,0,0,70.153,221.05Z"/>
    <path id="_Path_34" data-name="&lt;Path&gt;" class="cls-1" d="M72.653,234.35a4.185,4.185,0,0,0,2.8-5.1,3.939,3.939,0,0,0-4.9-2.8,4.185,4.185,0,0,0-2.8,5.1A3.865,3.865,0,0,0,72.653,234.35Z"/>
    <path id="_Path_35" data-name="&lt;Path&gt;" class="cls-1" d="M93.953,228.05a4.185,4.185,0,0,0,2.8-5.1,3.939,3.939,0,0,0-4.9-2.8,4.185,4.185,0,0,0-2.8,5.1A3.939,3.939,0,0,0,93.953,228.05Z"/>
    <path id="_Path_36" data-name="&lt;Path&gt;" class="cls-1" d="M85.553,238.95a4.185,4.185,0,0,0,2.8-5.1,3.939,3.939,0,0,0-4.9-2.8,4.185,4.185,0,0,0-2.8,5.1A3.939,3.939,0,0,0,85.553,238.95Z"/>
    <path id="_Compound_Path_3" data-name="&lt;Compound Path&gt;" class="cls-1" d="M312.053,124.75c-1.7,4.7-4.8,12.9-6.1,18-1.2,4.9-.3,9.3,3.6,9.7,12.7,1.3,34.7-18.6,39.2-23.2,0,0,3.4-3.4,3.8-3.7,0.1,0.2.6,2.1,0.9,2.7,4.7,9.4,12.5,25.4,15.5,45.1a14,14,0,0,0-7.1-.3c4.2,9.3,4.5,23.2,2.5,34.5-11.9,55.2-67.5,63.1-95.1,61.9-20.9-1-39.6-7.9-49.5-18.5-9.3-9.9-8.1-30.5,7.8-40.3-14.5,15.5-11.5,32.3,5.4,43.5,9.5,6.3,57.5,18.6,89.9-2.6,0,0,14.7-9.9,19.1-22.7,6.4-18.3-5.3-26.3-15.1-28.5a58.488,58.488,0,0,0-34,3c-11.2,4.7-19.5,10.2-25.2,15.9-5.5-5.9-10-12.4-12.2-19,11.2-6.3,14.2-8.7,14.2-8.7,12.6-9.7,5.1-21.8-4.9-18.6-10.7,3.4-14.9,15-14.8,23.8l-0.2.1a107.6,107.6,0,0,0-30.7,16.1c-7.8,5.6-19.3,27.2,2.5,45.2,14.3,11.8,46.9,20.8,85.9,15,5-.7,20.1-4.2,35.5-13.2h0c0.2-.1.3-0.2,0.5-0.3,15.7-9.3,31.4-24.3,36.7-48a44.211,44.211,0,0,0,.8-14c0.4-28.1-15.5-58-25.1-75.7,0.2-.5,12.2-17.5,14.3-35.3,1.5-12.4-14.3-13.9-21.1-1.1,0,0-6.7,11.3-1.5,28.8,0.1,0.2,1.7,4.9,1.8,5.1-5.1,10-27.9,23.1-31.6,19.1-1.2-1.2.2-7.1,1-10.1,1.9-7.9,6.3-21.4,14.5-37.5a36.017,36.017,0,0,0-4.3,1c1.9-9.1-2.4-8.5-4.8-8.5-3.4,0-9.8,4.2-9.2,4.5C324.553,89.25,313.553,119.35,312.053,124.75Zm-48.5,51.4c7.7-4.4,14.2,3.1,6.4,10.2-2.9,2.7-10.1,6.3-15.1,8.4C255.553,181.15,263.553,176.15,263.553,176.15Zm-22.5,32.3c3.1-2.2,4.8-3.1,9.4-5.8a63.153,63.153,0,0,0,11.6,23c-5.5,7.4-7.1,13.3-7.1,13.3,0.7-1.1,1.1-1.9,1.9-3.1a83.582,83.582,0,0,1,6.3-8.7,86.4,86.4,0,0,0,26.6,22.3,45.777,45.777,0,0,0,21.1-8.2c-11.6,1.2-29.2-7.6-41.8-20.5,6.7-6.2,15-11.9,23.9-15.1,21.1-7.4,42.3-.8,39.4,14.1-3.7,19-22.5,28-22.5,28-20.3,10.7-48.8,10.4-68.8-1.5C229.653,239.35,220.453,223.45,241.053,208.45Zm113.6-124.4c2.7-1.9,6.7-2.9,7.7,1.9,1,5-4.5,22.2-10.1,29.1C348.653,105.45,347.953,89.45,354.653,84.05Z"/>
    <path id="_Path_37" data-name="&lt;Path&gt;" class="cls-1" d="M191.853,92.75c5.7,3.6,14.5-2.3,10.6-1.7-3.1.5-6,.1-6-2.3,0.1-3.3,11.3-10.7,24.9-16.7-4.1,9.3-4.9,23.6-9.9,33-3.2,5-9.4,5.2-9,2.9,0.4-2.1,1.4-3,2.5-3.2a7.518,7.518,0,0,0-5.2,2.9c-4.2,4.5,1.1,6.7,7,5a4.332,4.332,0,0,1,.5-0.1,0.1,0.1,0,0,0,.1-0.1,15.753,15.753,0,0,0,7.3-5.2h0c7.9-9.5,6.9-26.9,10.5-36.8,9.6-3.9,20.1-6.9,28.4-7.1l-2.1-1.5a129.309,129.309,0,0,0-24.8,5.7,8.362,8.362,0,0,1,2.9-3s0.5-.8-0.5-0.7a11.949,11.949,0,0,0-5.8,4.9c-9.6,3.6-18.5,8.4-28.5,14.9C194.653,83.65,186.453,89.45,191.853,92.75Z"/>
    <path id="_Compound_Path_4" data-name="&lt;Compound Path&gt;" class="cls-1" d="M248.153,95.55a1.857,1.857,0,0,1-2.1.6c-3.8-1.1,5.3-14.2-2-15.7-2.2-.4-6.6,1.5-9.7,5.1,1.3-6.7,2.9-13.2,6.4-16.9-1.6-.8-4.2.7-4.2,0.7-8.6,5.6-6.3,34.3-14.9,36.2,0,0-1.5,3.2-2.3,3.6-0.4.2,5.2-.9,7.5-2.9h0c3.5-2.6,5-8.6,6.4-15.4,1.3-4,5-7.7,8-7.1,4.5,0.9-4.2,13.5.3,15.9,1.4,0.7,4.6,1.6,7.5-2.3a15.425,15.425,0,0,0,2.9-7c1.1,3.5,4.7,4.7,7.2,4.7a16.7,16.7,0,0,0,5.2-1.7,13.726,13.726,0,0,0,3.8-3.8,7.068,7.068,0,0,0,.8-4.8c-2.1,4-4.4,6.4-7.4,6.8a4.557,4.557,0,0,1-5.3-4.9,9.185,9.185,0,0,1,.5-2.8,10.3,10.3,0,0,0,9.4-2.6c3.2-3.2,1.5-7-4.1-5.4a15.334,15.334,0,0,0-9.2,7.6C251.053,86.55,249.953,93.65,248.153,95.55Zm13.3-17.3c3.5-1.8,5.6-.4,3.4,2.2a6.57,6.57,0,0,1-4.4,2.1,16.578,16.578,0,0,1-3.2-.1C258.153,80.25,259.553,79.45,261.453,78.25Z"/>
  </g>
</svg>
