<?xml version="1.0" encoding="utf-8"?>
<!-- Generator: Adobe Illustrator 19.0.0, SVG Export Plug-In . SVG Version: 6.00 Build 0)  -->
<svg version="1.1" id="Layer_1" xmlns="http://www.w3.org/2000/svg" xmlns:xlink="http://www.w3.org/1999/xlink" x="0px" y="0px"
	 viewBox="0 0 249.3 250.6" style="enable-background:new 0 0 249.3 250.6;" xml:space="preserve">
<style type="text/css">
	.st0{fill-rule:evenodd;clip-rule:evenodd;fill:#FFFFFF;}
</style>
<g id="XMLID_15_">
	<path id="XMLID_83_" class="st0" d="M103,239.3c2.9,1.1,2.3-1.2,0.6-2.1c-1.6-0.9-5.4-1.1-5.4-1.1S100,238.2,103,239.3z"/>
	<path id="XMLID_82_" class="st0" d="M100.4,234.5c0,0-0.6-3.4-3.1-6.3c-2.4-3-3.1-0.1-2,1.8C96.6,231.8,100.4,234.5,100.4,234.5z"
		/>
	<path id="XMLID_81_" class="st0" d="M92.9,234.5c3.7,1,7,0.3,7,0.3s-4-2.5-6.2-2.8C91.6,231.7,89.3,233.5,92.9,234.5z"/>
	<path id="XMLID_80_" class="st0" d="M85.5,225.3c0,0-0.9-4.9-4.5-9.3c-3.5-4.4-4.6-0.2-2.9,2.6C79.8,221.4,85.5,225.3,85.5,225.3z"
		/>
	<path id="XMLID_79_" class="st0" d="M74,226.1c5.4,1.5,10.3,0.4,10.3,0.4s-5.8-3.6-9-4.1C72,221.9,68.6,224.6,74,226.1z"/>
	<path id="XMLID_78_" class="st0" d="M57.2,207.5c3.9,5.6,9.4,7.2,9.4,7.2s-3.4-5-6.6-10.2C57,199.5,54.9,204.1,57.2,207.5z"/>
	<path id="XMLID_77_" class="st0" d="M52.1,215.5c6.3-0.3,10.4-0.7,10.4-0.7s-4.4-3.5-8.7-3.8C48.6,210.7,46.2,215.8,52.1,215.5z"/>
	<path id="XMLID_76_" class="st0" d="M104.1,236.9c1.4,1.2,3.8,0.9,1.7-1.4c-2.1-2.3-4.8-3.2-4.8-3.2S102.7,235.7,104.1,236.9z"/>
	<path id="XMLID_75_" class="st0" d="M85.7,219.2c0,0,1.7,5.6,3.6,7.7c1.9,2.1,5.5,2.3,2.9-1.7C89.5,221.2,85.7,219.2,85.7,219.2z"
		/>
	<path id="XMLID_74_" class="st0" d="M88.2,231.9c4.7,0.6,2.9-2.6,0.2-3.3c-2.7-0.7-8.5,0.3-8.5,0.3S83.4,231.3,88.2,231.9z"/>
	<path id="XMLID_73_" class="st0" d="M64.2,206.2c0,0,3.4,6.8,6.3,9.2c2.9,2.3,7.6,1.8,3.4-2.8C69.5,208,64.2,206.2,64.2,206.2z"/>
	<path id="XMLID_72_" class="st0" d="M69.3,216.9c-3.6-0.9-11.3,0.4-11.3,0.4s4.7,3.3,11,4C75.3,222.1,72.9,217.9,69.3,216.9z"/>
	<path id="XMLID_71_" class="st0" d="M52.5,204.6c-3.2-1.9-10.9-3-10.9-3s3.5,4.5,9.3,7.1C56.7,211.3,55.7,206.6,52.5,204.6z"/>
	<path id="XMLID_68_" class="st0" d="M58.4,101.1l3.3-12.7c2.6-0.9,5.2-1.7,7.5-2.2c10.3-2.6,21.5,4.6,25.2,15.1
		c1.8-1.8,8.5-5.6,10-6c-1.1-2-2.4-4.1-4-6c-4.1-4.3-11.7-7.1-20.7-6.9c4-1,9.8-3.6,10.7-10.1c0.3-2.3,0.2-8.5-6-12
		c-3.7-2-10.6-2.2-15.1-0.9l0.8-3c-7.2-0.5-22.1,12.8-30.4,9.3c0,0-0.8,6.1,13.3,4.2l-9.5,34.9C49,102.8,56.5,101.2,58.4,101.1z
		 M82.9,70.5c0,4.7-3.6,8.2-7.1,9.8c-1.7,0.8-7.8,2.9-13.2,4.6l5.9-22.5C81.1,60.2,82.9,66.4,82.9,70.5z"/>
	<path id="XMLID_67_" class="st0" d="M173.9,59.8c4.3-2,6.2-5.3,5.6-5c-0.6,0.3-0.5,1-4.7,0.1c-4.2-0.9-9.5,5.8-9.5,5.8
		S169.6,61.7,173.9,59.8z"/>
	<path id="XMLID_66_" class="st0" d="M165.6,70.6c1.4,1.6,3.8,1.7,5.3,0.3c1.6-1.4,1.7-3.8,0.3-5.3c-1.4-1.6-3.8-1.7-5.3-0.3
		C164.3,66.7,164.2,69.1,165.6,70.6z"/>
	<path id="XMLID_65_" class="st0" d="M154.4,63.5c-1.6,1.4-1.7,3.8-0.3,5.3c1.4,1.6,3.8,1.7,5.3,0.3c1.6-1.4,1.7-3.8,0.3-5.3
		C158.3,62.2,155.9,62.1,154.4,63.5z"/>
	<path id="XMLID_64_" class="st0" d="M153.5,51.4c-1.6,1.4-1.7,3.8-0.3,5.3c1.4,1.6,3.8,1.7,5.3,0.3c1.6-1.4,1.7-3.8,0.3-5.3
		C157.5,50.2,155.1,50,153.5,51.4z"/>
	<path id="XMLID_63_" class="st0" d="M143.1,64.4c1.4,1.6,3.8,1.7,5.3,0.3c1.6-1.4,1.7-3.8,0.3-5.3c-1.4-1.6-3.8-1.7-5.3-0.3
		C141.9,60.5,141.7,62.9,143.1,64.4z"/>
	<path id="XMLID_62_" class="st0" d="M157.1,80c1.4,1.6,3.8,1.7,5.3,0.3c1.6-1.4,1.7-3.8,0.3-5.3c-1.4-1.6-3.8-1.7-5.3-0.3
		C155.8,76.1,155.7,78.4,157.1,80z"/>
	<path id="XMLID_61_" class="st0" d="M144.9,72c-1.6,1.4-1.7,3.8-0.3,5.3c1.4,1.6,3.8,1.7,5.3,0.3c1.6-1.4,1.7-3.8,0.3-5.3
		C148.8,70.7,146.4,70.6,144.9,72z"/>
	<path id="XMLID_60_" class="st0" d="M210.1,44.4c-0.3,0.4,0.1,0.9-3,1.9c-3.1,1.1-3.8,7.5-3.8,7.5s3.2-1,5.2-4
		C210.5,46.9,210.4,44.1,210.1,44.4z"/>
	<path id="XMLID_59_" class="st0" d="M211,58.3c0.4-1.5-0.4-3.1-1.9-3.6c-1.5-0.5-3.1,0.4-3.6,1.9c-0.4,1.5,0.4,3.1,1.9,3.6
		C209,60.7,210.6,59.8,211,58.3z"/>
	<path id="XMLID_58_" class="st0" d="M202.9,61.7c0.5-1.5-0.4-3.1-1.9-3.6c-1.5-0.4-3.1,0.4-3.6,1.9c-0.5,1.5,0.4,3.1,1.9,3.6
		C200.8,64.1,202.4,63.2,202.9,61.7z"/>
	<path id="XMLID_57_" class="st0" d="M195.6,50.7c-1.5-0.5-3.1,0.4-3.6,1.9c-0.5,1.5,0.4,3.1,1.9,3.6c1.5,0.5,3.1-0.4,3.6-1.9
		C198,52.8,197.1,51.2,195.6,50.7z"/>
	<path id="XMLID_56_" class="st0" d="M188.6,61.6c-0.5,1.5,0.4,3.1,1.9,3.6c1.5,0.4,3.1-0.4,3.6-1.9c0.4-1.5-0.4-3.1-1.9-3.6
		C190.6,59.2,189,60.1,188.6,61.6z"/>
	<path id="XMLID_55_" class="st0" d="M203.8,66.1c-0.4,1.5,0.4,3.1,1.9,3.6c1.5,0.4,3.1-0.4,3.6-1.9c0.4-1.5-0.4-3.1-1.9-3.6
		C205.8,63.7,204.2,64.6,203.8,66.1z"/>
	<path id="XMLID_54_" class="st0" d="M198.2,67.4c-1.5-0.4-3.1,0.4-3.6,1.9c-0.5,1.5,0.4,3.1,1.9,3.6c1.5,0.5,3.1-0.4,3.6-1.9
		C200.6,69.4,199.7,67.8,198.2,67.4z"/>
	<path id="XMLID_49_" class="st0" d="M125.4,0C56.3,0,0,56.3,0,125.4c0,24,6.8,46.4,18.5,65.4c1.6-1.1,4.8-3.6,4.7-3.7
		c11.7-10.7,18.3-27.7,21.2-37.1c12.9,0.1,28.2-2.6,38.6-7.3c4.4-2,10.6-6.1,14-8.9c-3.9-2.3-5.4-4.7-7.2-8
		c-3.6,4.3-9.4,8.9-16.5,11.9c0,0-12.9,6.3-27.3,6.8c0.2-0.8,0.3-1.2,0.3-1.2l8.1-27.5c-2.9-1.2-13.1,2.2-13.9,2.6L33,143.4
		c-2-0.5-3.9-1.2-5.8-2.1c-10.9-5.3-1.4-21,11.2-25.9c28-10.9,22.8,3.9,20.2,5.7c10.9-2.5,22.5-25.7-16.2-11.4
		c-21.8,8-33.8,30.1-15.2,37.8c1.2,0.5,2.6,0.9,4.1,1.3c-2.2,7-6.8,19.6-13.6,28.7c-8-12.7-13.4-36.8-13.2-56.8
		C5.5,54.7,59.5,3.3,125.4,3.3c0.9,0,1.8,0,2.7,0C144,7.1,142,27.2,142,27.2s3.9-15.3-4.4-22.9c41.4,8.2,25.8,54,25.8,54
		s5.5-7.9,6-25.2c-0.1-6.7-1.6-18.4-12.8-25.5c5,1.4,9.9,3.1,14.6,5.2c32.3,15.7,29.2,42.4,29.2,42.4s3.5-8.5-2.1-22.4
		c-1.7-3.1-3.7-5.8-5.9-8.4c32.4,22.3,54.1,60,54.1,101.3c0,22.3-6.4,43-17.3,60.8c-0.1-0.2-0.3-0.5-0.7-0.5c-2.5,0-2.8,0-4.9,0
		c-2.5,0-2.9,0.2-3.2-0.8c-0.6-1.9-0.1-22.2-0.1-30.5c0-1.2,0-1.7-0.2-2.2c-0.3-0.5-1.3-1.2-1.9-1.7c-3.7-2.6-13.3-9.3-23.1-10.3
		c4.5-0.5,10.4-1.3,13.3-2.6c3.8-1.8,6.5-3,6.8-10.1v-23.3c0,0,0.1-2.2-0.3-2c-0.2,0.1-0.2,0.3-1.5,0.4c-1.4,0.1-3.7-0.2-7.2-2.1
		c-6.3-3.4-6.1-2.8-9.4-4.6c-3.7-2-14.2-6.5-23.5,1.5c-1.9,1.6-4.5,5.3-8.1,9.7c0-6.6-4.9-9.8-9.2-10.8c0,0-9-2.5-18.5,1.8
		c-6.1,2.7-10.6,5.9-13.7,9.2c-3-3.4-5.4-7.1-6.6-11c6.1-3.6,7.8-5,7.8-5c6.9-5.6,2.8-12.5-2.7-10.7c-5.8,1.9-8.1,8.6-8.1,13.7
		c-0.1,0-0.1,0.1-0.1,0.1c-7.5,2.6-12.9,6.3-16.8,9.3c-4.3,3.2-10.6,15.7,1.4,26c7.8,6.8,25.6,12,46.9,8.6c1.5-0.2,4.8-1,8.9-2.5
		c0,0,0,0.1,0,0.1c0.1,0.3,0.2,0.5,0.2,0.8c0,0,0,0,0,0v0c0,0.1,0,0.2,0,0.2V169c0,0,0.4,16.5-0.6,17.1c-0.6,0.3-6,0-6.2,0.1
		c-0.2,0.1-0.2,0.5-0.2,0.5l0,6.3l33.2-0.1c0,0,0.1-4.7,0-6.1c0-0.2,0-0.7-0.6-0.7c-0.2,0-6,0.1-7.2,0c-3.1-0.3-4.2-4-4.2-7
		c0-2.9-0.1-3.4,0-32.6c4.4-1.8,14.7-2.5,24-0.5c8.3,1.7,12.4,9,13.4,11.1c-0.7-1.2-3.3-4.2-11.8-6.9c-7.9-2.4-18.7-2.3-22.6-1.4
		c-2.8,0.6,8.9-1.6,22.6,3.5c9.9,3.7,11.3,8,12,9.7v22.5c0,1.2,0.3,1.7-1.3,1.7c-0.7,0-3.3,0-4.9,0c-0.3,0-0.5,0-0.6,0.1
		c-0.2,0.1-0.1,0.5-0.1,0.5l0.1,6.3l25.6-0.1c-6.6,9.3-14.4,17.6-23.2,24.7c0.1-0.4,0-0.7-0.3-0.6c-14.6,13-53.7,11-65.5-9
		c-6.3-20.9-3.9-27.4-3.9-27.4c-0.7,1.5-0.9,4.3-0.8,7.6c-1.5-5.9-3.8-11.7-7.1-14.9c5.8,6.5,8.2,25,8.9,32.3
		c-17.5-26.9-18.2-42.4-18.2-42.4c-0.3,19.3,17.5,45.4,21.6,50.3c2.2,2.6,4,4.1,5.2,4.9c12.1,10.2,32.5,12.7,44,10.4
		c-6.1,3.5-12.6,6.5-19.2,8.9c-31.3,2.9-50.3-22.8-50.3-22.8l0,0c-16.3-26.3-15.4-36.1-15.4-36.1c-0.4,2.4,0.3,6.4,1.7,10.9
		c-4.4-7.8-9.7-15-15.6-18.2c10.6,6.9,20.9,31.9,24.7,41.9c-34.7-31-41.6-52.5-41.6-52.5c6.1,23.7,33.4,49.4,45.2,59.1
		c17.4,15.1,28.5,20.4,34.9,22.2c-13.9,3.1-21.5,1.8-25.4-0.7c-8.2-5.3-15-10.1-20.6-14.5c-3.1-2.7-6.4-5.4-9.8-8.1
		c-13.6-12.1-16-18.5-16.2-19.1c1,3.6,4.5,8.6,9.2,13.9c-11.4-8.1-23.7-14.6-34.2-15.3c13.7,2,32.7,16,47.6,28.7
		c2.5,2.3,5,4.5,7.4,6.5c5.1,4.6,9.3,8.7,12.1,11.4c-61.9-9.8-96.1-48.9-96.1-48.9c29.5,41.5,74.6,55.1,107.5,54.4
		c2.5-0.1,5-0.2,7.4-0.5c0,0-0.1,0-0.1,0c63-6.6,110.8-60.9,110.8-125.6C249.3,55.4,194.5,0,125.4,0z M121.2,82.9
		c4.2-2.5,7.7,1.8,3.5,5.9c-1.6,1.6-5.5,3.6-8.3,4.9C116.9,85.8,121.2,82.9,121.2,82.9z M109,101.5c1.7-1.3,2.6-1.8,5.1-3.3
		c1.3,5.1,3.6,9.5,6.3,13.2c-3,4.3-3.9,7.6-3.9,7.6c0.4-0.6,0.6-1.1,1-1.8c0.9-1.5,2-3.2,3.5-5c6.5,8.7,14.5,12.8,14.5,12.8
		c7.1-1,11.5-4.7,11.5-4.7c-6.3,0.7-15.9-4.4-22.8-11.8c3.6-3.6,8.2-6.9,13-8.7c11.5-4.3,23.1-0.5,21.5,8.1
		c-2,10.9-12.3,16.1-12.3,16.1c-11.1,6.2-26.6,6-37.6-0.9C102.7,119.3,97.7,110.1,109,101.5z M168.4,143.8c0-4.3,0-9.1,0-14.6
		c2.9-6.5,9-23.6,20.3-23.5c2.7,0,5,1,6,1.6c0.2-0.5-2.6-3.4-6.3-3.7c-9-0.7-16.1,8.6-20.7,13.3v0c0,0-7.4,9.5-17.8,15.5
		c-9.3,3.7-19,4.5-25.7,4.1c-11.4-0.6-21.6-4.6-27-10.6c-5.1-5.7-4.4-17.6,4.3-23.2c-7.9,8.9-6.3,18.6,3,25.1
		c5.2,3.7,31.4,10.7,49.1-1.5c0,0,4.9-3.5,8.2-8.6c7.2-7.4,11-13.6,14.8-16c3-1.9,7.5-5.5,15.9-2.1c7.4,3,8.7,11,8.7,11
		s0.9,18.9,0,22c0,0-7.3,6.9-16.5,8.3C175.4,141.4,170.5,142.9,168.4,143.8z"/>
	<path id="XMLID_48_" class="st0" d="M137.3,18.8c-2.4-1.5-2.1-1.8-2.2-2.2c-0.2-0.4-0.8,2.1,0.4,5c1.2,2.9,3.7,4.4,3.7,4.4
		S139.8,20.3,137.3,18.8z"/>
	<path id="XMLID_47_" class="st0" d="M131.7,28.3c0.1,1.4,1.3,2.4,2.7,2.3c1.4-0.1,2.4-1.3,2.3-2.7c-0.1-1.4-1.3-2.4-2.7-2.3
		C132.7,25.7,131.6,26.9,131.7,28.3z"/>
	<path id="XMLID_46_" class="st0" d="M140.4,30c-1.4,0.1-2.4,1.3-2.3,2.7c0.1,1.4,1.3,2.4,2.7,2.3c1.4-0.1,2.4-1.3,2.3-2.7
		C143,31,141.8,29.9,140.4,30z"/>
	<path id="XMLID_45_" class="st0" d="M146.4,24.7c-1.4,0.1-2.4,1.3-2.3,2.7c0.1,1.4,1.3,2.4,2.7,2.3c1.4-0.1,2.4-1.3,2.3-2.7
		C149,25.6,147.8,24.6,146.4,24.7z"/>
	<path id="XMLID_44_" class="st0" d="M147.7,33c-1.4,0.1-2.4,1.3-2.3,2.7c0.1,1.4,1.3,2.4,2.7,2.3c1.4-0.1,2.4-1.3,2.3-2.7
		C150.3,33.9,149.1,32.9,147.7,33z"/>
	<path id="XMLID_43_" class="st0" d="M134.1,39c1.4-0.1,2.4-1.3,2.3-2.7c-0.1-1.4-1.3-2.4-2.7-2.3c-1.4,0.1-2.4,1.3-2.3,2.7
		C131.6,38.1,132.8,39.1,134.1,39z"/>
	<path id="XMLID_42_" class="st0" d="M141,38.5c-1.4,0.1-2.4,1.3-2.3,2.7c0.1,1.4,1.3,2.4,2.7,2.3c1.4-0.1,2.4-1.3,2.3-2.7
		C143.6,39.4,142.4,38.4,141,38.5z"/>
	<path id="XMLID_41_" class="st0" d="M105.6,203c-0.6-1.6-1.7-2.6-1.7-2.6s0.1,2,0.6,2.9C104.9,204.2,106.2,204.6,105.6,203z"/>
	<path id="XMLID_40_" class="st0" d="M101.7,201.7c0,0,0.5,1.4,1.7,2.6c1.2,1.2,1.4-0.1,0.8-0.9
		C103.5,202.6,101.7,201.7,101.7,201.7z"/>
	<path id="XMLID_39_" class="st0" d="M101.7,198c0.2,1.2,1.5,3.3,1.5,3.3s0.4-1.8-0.2-3.8C102.5,195.5,101.5,196.8,101.7,198z"/>
	<path id="XMLID_38_" class="st0" d="M100.4,198.7c-1-0.6-2.6-0.2-1,1.1c1.6,1.3,3.4,1.7,3.4,1.7S101.5,199.3,100.4,198.7z"/>
	<path id="XMLID_37_" class="st0" d="M95.6,188.7c0.2,1.8,2.2,4.9,2.2,4.9s0.6-2.6-0.2-5.5C96.7,185.2,95.3,187,95.6,188.7z"/>
	<path id="XMLID_36_" class="st0" d="M93.4,190c-1.5-0.9-3.7-0.4-1.4,1.5c2.3,1.9,5,2.4,5,2.4S94.9,190.9,93.4,190z"/>
	<path id="XMLID_35_" class="st0" d="M87.6,178.8c0.7,3.6,3.1,5.6,3.1,5.6s-0.6-3.2-1.1-6.4C89.2,174.8,87.2,176.6,87.6,178.8z"/>
	<path id="XMLID_34_" class="st0" d="M85.2,179.8c-2.5-1.2-4.8,0.7-1.8,1.8c3.2,1.2,5.3,1.9,5.3,1.9S87.2,180.8,85.2,179.8z"/>
	<path id="XMLID_33_" class="st0" d="M99.2,190.6c0,0-0.4,3.1,0.1,4.5c0.5,1.4,2.2,2.3,1.8-0.2C100.6,192.4,99.2,190.6,99.2,190.6z"
		/>
	<path id="XMLID_32_" class="st0" d="M98.5,195.8c-1.2-0.9-4.2-1.7-4.2-1.7s1.2,2,3.4,3.3C99.9,198.7,99.7,196.8,98.5,195.8z"/>
	<path id="XMLID_31_" class="st0" d="M91.3,179.6c0,0,0.2,4.1,1.1,5.9c0.9,1.8,3.4,2.5,2.2-0.7C93.6,181.6,91.3,179.6,91.3,179.6z"
		/>
	<path id="XMLID_30_" class="st0" d="M90.5,188.1c2.9,1.7,2.7-0.9,1.1-2.1c-1.6-1.2-5.6-2.2-5.6-2.2S87.5,186.4,90.5,188.1z"/>
	<path id="XMLID_29_" class="st0" d="M81.2,172.6c0,0,0.8,3,3.1,5.5c2.3,2.5,2.8-0.1,1.7-1.7C84.8,174.7,81.2,172.6,81.2,172.6z"/>
	<path id="XMLID_28_" class="st0" d="M129.9,197.7c-0.3-0.6-1.3-1.6-1.3-1.6s0.1,1,0.7,2C129.8,199.2,130.2,198.3,129.9,197.7z"/>
	<path id="XMLID_27_" class="st0" d="M129.2,193.7c-0.1,0.8,0.4,2.5,0.4,2.5s0.6-1.1,0.6-2.5C130.2,192.2,129.3,192.9,129.2,193.7z"
		/>
	<path id="XMLID_26_" class="st0" d="M129.4,196.2c0,0-0.6-1.6-1.1-2.2c-0.6-0.6-1.7-0.6-0.8,0.5
		C128.2,195.6,129.4,196.2,129.4,196.2z"/>
	<path id="XMLID_25_" class="st0" d="M126.8,186.4c-0.2,1.2,0.6,3.6,0.6,3.6s0.9-1.6,0.8-3.7C128.2,184.2,126.9,185.2,126.8,186.4z"
		/>
	<path id="XMLID_24_" class="st0" d="M123.9,187.6c1.2,1.7,2.9,2.5,2.9,2.5s-0.8-2.4-1.7-3.3C124.3,186,122.7,186,123.9,187.6z"/>
	<path id="XMLID_23_" class="st0" d="M124.8,178.2c0.3-2.2-1.4-1.3-1.5,0.2c-0.2,2.5,1.1,4.3,1.1,4.3S124.5,180.4,124.8,178.2z"/>
	<path id="XMLID_22_" class="st0" d="M120,179.5c1.9,1.3,3.2,2.2,3.2,2.2s-0.5-2-1.6-3.1C120.1,177.3,118.2,178.2,120,179.5z"/>
	<path id="XMLID_21_" class="st0" d="M130.9,197.7c-0.1-1.2-0.7-2-0.7-2s-0.3,1.4-0.1,2.1C130.2,198.4,131,198.9,130.9,197.7z"/>
	<path id="XMLID_20_" class="st0" d="M128.1,191.4c0,1,1.1,1.9,1.2,0.2c0.2-1.8-0.5-3.2-0.5-3.2S128.1,190.3,128.1,191.4z"/>
	<path id="XMLID_19_" class="st0" d="M127.5,191.7c-0.6-0.8-2.5-1.9-2.5-1.9s0.4,1.5,1.7,2.8C127.9,193.9,128.1,192.5,127.5,191.7z"
		/>
	<path id="XMLID_18_" class="st0" d="M125.6,179.6c0,0-0.6,2.8-0.3,4.1c0.3,1.3,1.8,2.3,1.6,0C126.7,181.3,125.6,179.6,125.6,179.6z
		"/>
	<path id="XMLID_17_" class="st0" d="M123.5,185.1c1.7,1.7,1.9-0.1,1.1-1.2c-0.8-1.1-3.4-2.5-3.4-2.5S121.9,183.4,123.5,185.1z"/>
	<path id="XMLID_16_" class="st0" d="M122.6,176.4c-0.5-1.3-2.5-3.4-2.5-3.4s0,2.1,1.1,4.2C122.3,179.4,123.1,177.7,122.6,176.4z"/>
</g>
</svg>
