<?xml version="1.0" encoding="utf-8"?>
<!-- Generator: Adobe Illustrator 19.2.1, SVG Export Plug-In . SVG Version: 6.00 Build 0)  -->
<svg version="1.1" id="Layer_1" xmlns="http://www.w3.org/2000/svg" xmlns:xlink="http://www.w3.org/1999/xlink" x="0px" y="0px"
	 viewBox="0 0 565.8 176.6" style="enable-background:new 0 0 565.8 176.6;" xml:space="preserve">
<style type="text/css">
	.st0{fill:#F15B61;}
</style>
<path class="st0" d="M298.4,44.3c0,6.3-5.1,11.4-11.4,11.4c-6.3,0-11.4-5.1-11.4-11.4s5.1-11.4,11.4-11.4
	C293.3,32.9,298.4,38,298.4,44.3z M251,67.4c0,1.1,0,2.9,0,2.9s-5.5-7.1-17.2-7.1c-19.3,0-34.2,14.7-34.2,35c0,20.1,14.9,35,34.2,35
	c11.8,0,17.2-7.2,17.2-7.2v3c0,1.4,1.1,2.5,2.5,2.5h14.4V64.9c0,0-13,0-14.4,0C252,64.9,251,66,251,67.4z M251,109.9
	c-2.7,3.8-8,7.2-14.4,7.2c-11.3,0-20-7.1-20-19.1c0-12,8.7-19.1,20-19.1c6.2,0,11.8,3.6,14.4,7.2V109.9z M278.4,64.9h16.9v66.5
	h-16.9V64.9z M531.7,63.2c-11.7,0-17.2,7.1-17.2,7.1V32.9h-16.9v98.5c0,0,13,0,14.4,0c1.5,0,2.5-1.2,2.5-2.5v-3l0,0
	c0,0,5.4,7.2,17.2,7.2c19.3,0,34.2-14.8,34.2-35C565.8,77.9,550.9,63.2,531.7,63.2z M528.9,117.1c-6.5,0-11.7-3.3-14.4-7.2V86.1
	c2.6-3.6,8.3-7.2,14.4-7.2c11.3,0,20,7.1,20,19.1C548.9,110,540.2,117.1,528.9,117.1z M488.8,91.9v39.5h-16.9V93.8
	c0-11-3.5-15.3-13.1-15.3c-5.1,0-10.5,2.7-13.7,6.6v46.3h-17V64.9l13.4,0c1.5,0,2.5,1.2,2.5,2.5v2.9c5-5.1,11.5-7.1,18-7.1
	c7.4,0,13.6,2.2,18.5,6.3C486.5,74.5,488.8,80.8,488.8,91.9z M386.9,63.2c-11.7,0-17.2,7.1-17.2,7.1V32.9h-16.9v98.5
	c0,0,13,0,14.4,0c1.5,0,2.5-1.2,2.5-2.5v-3l0,0c0,0,5.4,7.2,17.2,7.2c19.3,0,34.2-14.8,34.2-35C421.1,77.9,406.1,63.2,386.9,63.2z
	 M384.1,117.1c-6.5,0-11.7-3.3-14.4-7.2V86.1c2.6-3.6,8.3-7.2,14.4-7.2c11.3,0,20,7.1,20,19.1C404.1,110,395.4,117.1,384.1,117.1z
	 M338,63.2c5.2,0,7.7,0.8,7.7,0.8v15.7c0,0-14.1-4.7-23,5.3v46.4h-17V64.9c0,0,13,0,14.4,0c1.5,0,2.5,1.2,2.5,2.5v2.9
	C325.8,66.5,332.7,63.2,338,63.2z M161.9,125.3c-0.8-2.2-1.7-4.4-2.6-6.4c-1.4-3.1-2.8-6.1-4.1-9.1l-0.1-0.2
	c-12.2-26.5-25.3-53.4-39-79.9l-0.6-1.1c-1.4-2.7-2.8-5.5-4.3-8.3c-1.7-3.2-3.6-6.6-6.3-9.8C99,3.8,90.9,0,82.2,0
	c-8.8,0-16.8,3.8-22.6,10.6c-2.7,3.2-4.6,6.6-6.3,9.8c-1.5,2.8-2.9,5.6-4.3,8.3l-0.5,1c-13.6,26.5-26.8,53.4-39,79.9L9.1,110
	c-1.3,2.9-2.7,5.9-4.1,9c-0.9,2-1.8,4.1-2.6,6.4c-2.3,6.5-3,12.7-2.1,19c1.9,13.2,10.7,24.4,23,29.4c4.6,1.9,9.4,2.8,14.4,2.8
	c1.5,0,3.1-0.1,4.6-0.3c5.9-0.7,11.9-2.7,17.7-6c7.2-4,14.2-9.9,21.9-18.4c7.7,8.4,14.8,14.3,21.9,18.4c5.9,3.3,11.8,5.3,17.7,6
	c1.5,0.2,3.1,0.3,4.6,0.3c5,0,9.9-0.9,14.4-2.8c12.3-5,21.1-16.3,23-29.4C164.9,138,164.2,131.8,161.9,125.3z M82.2,134.5
	c-9.6-12.1-15.7-23.4-17.8-32.9c-0.9-4-1.1-7.6-0.6-10.8c0.4-2.8,1.4-5.3,2.8-7.4c3.3-4.8,9.1-7.7,15.6-7.7c6.5,0,12.3,2.9,15.6,7.7
	c1.5,2.1,2.4,4.6,2.8,7.4c0.5,3.2,0.3,6.9-0.6,10.8C97.9,111.1,91.7,122.4,82.2,134.5z M152.8,142.7c-1.3,9.2-7.5,17.1-16.1,20.6
	c-4.2,1.7-8.8,2.3-13.5,1.8c-4.5-0.5-8.9-2-13.5-4.6c-6.4-3.6-12.8-9.1-20.1-17.2c11.6-14.3,18.8-27.4,21.4-39.1
	c1.2-5.4,1.5-10.4,0.8-15.1c-0.7-4.5-2.3-8.5-4.7-12.1c-5.4-7.9-14.7-12.6-24.9-12.6C72,64.4,62.7,69.1,57.3,77
	c-2.4,3.5-4,7.6-4.7,12.1c-0.7,4.6-0.5,9.7,0.8,15.1c2.7,11.7,9.9,24.9,21.4,39.2c-7.3,8.1-13.7,13.6-20.1,17.2
	c-4.6,2.6-9,4.1-13.5,4.6c-4.7,0.5-9.3-0.1-13.5-1.8c-8.6-3.5-14.8-11.4-16.1-20.6c-0.6-4.5-0.1-8.8,1.6-13.7
	c0.6-1.8,1.4-3.5,2.3-5.6c1.3-2.9,2.7-5.9,4-8.8l0.2-0.4C31.7,88,44.8,61.2,58.3,34.9l0.5-1c1.4-2.7,2.8-5.5,4.3-8.1
	c1.5-2.8,3-5.5,5-7.8c3.7-4.3,8.6-6.6,14.1-6.6c5.5,0,10.4,2.3,14.1,6.6c2,2.3,3.5,5,5,7.8c1.4,2.7,2.8,5.4,4.2,8.1l0.6,1.1
	c13.6,26.3,26.6,53.1,38.8,79.4l0.1,0.2c1.4,2.9,2.7,6,4.1,8.9c0.9,2.1,1.7,3.8,2.3,5.6C152.9,133.9,153.4,138.2,152.8,142.7z"/>
</svg>
