<?xml version="1.0" encoding="utf-8"?>
<!-- Generator: Adobe Illustrator 18.1.1, SVG Export Plug-In . SVG Version: 6.00 Build 0)  -->
<svg version="1.1" id="Layer_1" xmlns="http://www.w3.org/2000/svg" xmlns:xlink="http://www.w3.org/1999/xlink" x="0px" y="0px"
	 viewBox="0 0 82 80.1" enable-background="new 0 0 82 80.1" xml:space="preserve">
<g>
	<g>
		<g>
			<g>
				<path fill="#FFFFFF" d="M81.1,24.1l-6.9,29.8C70.7,69,48.8,79.7,28.1,79.7C8.4,79.7-2.1,68.5,0.9,55.9l6.9-29.8
					C11.3,11.1,33.2,0.4,53.9,0.4C73.6,0.4,84.1,11.5,81.1,24.1z M54.3,25.8c1.3-6.2-4.3-7-9.6-6.9c-7.1,0.2-9.6,3.5-10.3,6
					l-6.7,29.3c-1.3,6.2,4.3,7,9.6,6.9c7.1-0.2,9.6-3.5,10.3-6L54.3,25.8z"/>
				<path fill="#8E8D8D" d="M28.1,80.1c-10.9,0-19.6-3.3-24.4-9.4c-3.3-4.2-4.5-9.4-3.2-14.8l6.9-29.8c1.7-7.2,7.7-13.9,16.9-18.8
					C32.9,2.7,43.7,0,53.9,0c10.9,0,19.6,3.3,24.4,9.4c3.3,4.2,4.5,9.4,3.2,14.8L74.6,54c-1.7,7.2-7.7,13.9-16.9,18.8
					C49.1,77.4,38.3,80.1,28.1,80.1z M53.9,0.7c-10.1,0-20.8,2.6-29.3,7.2c-9,4.8-14.8,11.3-16.5,18.3L1.2,56
					C0,61.1,1.1,66.2,4.3,70.2c4.7,5.9,13.1,9.1,23.8,9.1c10.1,0,20.8-2.6,29.3-7.2c9-4.8,14.8-11.3,16.5-18.3l6.9-29.8
					c1.2-5.1,0.1-10.2-3.1-14.2C73,4,64.6,0.7,53.9,0.7z M36.2,61.5L36.2,61.5c-4.1,0-6.8-0.8-8.1-2.4c-1-1.2-1.2-2.8-0.8-4.9
					L34,24.9c0.6-2.3,2.8-6.1,10.6-6.3c0.4,0,0.7,0,1.1,0c4.2,0,6.8,0.8,8.1,2.5c1,1.2,1.2,2.8,0.8,4.9L48,55.2
					c-0.6,2.3-2.8,6.1-10.6,6.3C37,61.5,36.6,61.5,36.2,61.5z M45.7,19.3c-0.4,0-0.7,0-1.1,0c-7.3,0.2-9.4,3.7-9.9,5.8l-6.7,29.3
					c-0.4,1.8-0.2,3.2,0.6,4.3c1.2,1.5,3.6,2.2,7.5,2.2h0c0.4,0,0.7,0,1.1,0c7.3-0.2,9.4-3.7,9.9-5.8l6.7-29.3
					c0.4-1.8,0.2-3.2-0.6-4.2C52.1,20,49.6,19.3,45.7,19.3z"/>
			</g>
		</g>
		<path fill="#231F20" d="M58.6,59.5C55.9,73,41.3,75.7,30.6,76.1C12.3,77,1.6,67.8,4.3,56.4l6.9-29.8c1-4.4,4.6-9.5,9.8-12.6
			c0.1-0.1,0.5-0.1,0.4,0.2l-9.9,43.1c-1.8,7.6,6,13.1,20.8,12.1c13.7-0.9,18-5.4,19-9.8l8-35c1.7-7.8-7.5-9.8-17-9.2
			c-0.4,0-0.5-0.3-0.1-0.5c7-2,27.1-2.4,24.8,7.8L58.6,59.5z"/>
	</g>
	<path fill="#9C9B9B" d="M15.1,57.3c-2.3,10.2,17.9,9.8,24.8,7.8c0.5-0.1,0.3-0.5-0.1-0.5c-9.5,0.7-18.7-1.4-17-9.2l8-35
		c1-4.5,5.3-8.9,19-9.8c14.8-0.9,22.5,4.6,20.8,12.1l-9.9,43.1c-0.1,0.4,0.3,0.3,0.4,0.2c5.3-3.1,8.8-8.2,9.8-12.7l6.8-29.8
		c2.6-11.3-8-20.5-26.3-19.7C40.7,4.4,26.1,7.1,23.4,20.6L15.1,57.3z"/>
</g>
</svg>
