<?xml version="1.0" encoding="utf-8"?>
<!-- Generator: Adobe Illustrator 18.1.1, SVG Export Plug-In . SVG Version: 6.00 Build 0)  -->
<svg version="1.1" id="Layer_1" xmlns="http://www.w3.org/2000/svg" xmlns:xlink="http://www.w3.org/1999/xlink" x="0px" y="0px"
	 viewBox="0 0 172.7 43.1" enable-background="new 0 0 172.7 43.1" xml:space="preserve">
<g>
	<path fill-rule="evenodd" clip-rule="evenodd" fill="#010101" d="M115.5,21.7c0-0.3,0.2-1.2-0.2-1.5c-0.4-0.3-1.8,0.1-1.8-0.6
		c0-0.7,0.1-1.3,0.8-1.9c0.7-0.6-1.1-1.2-1.8-1.6c-0.7-0.3-0.4-1.5-0.5-1.9c-0.1-0.4-1.3-0.7-1.5-1c-0.2-0.2-0.2-0.9-0.5-1.1
		c-0.3-0.2-0.9-0.3-1.2-0.6c-0.2-0.2-0.3-0.3-0.6-0.5c0-0.3,0-0.6,0-0.8c0-0.2,0.2-0.3,0.2-0.3c0.1,0,0.1,0,0.1,0s0-0.1-0.1-0.2
		c0-0.1,0-0.6,0-0.6c0.2,0.1,0.3,0.4,0.3,0.4c0-0.1,0-0.3-0.2-0.8c-0.2-0.5-0.5-1.1-0.6-1.3c-0.1-0.2-0.1-0.8-0.1-1.7
		c0-0.8,0-1.1-0.1-1.8c-0.1-0.6-0.5-1.5-0.5-1.6c-0.1-0.1-0.3-0.2-0.2-0.3c0.1-0.4,0-0.7,0-0.7c0,0.1-0.1,0.2-0.1,0.2
		c0.1-0.5-0.3-0.9-0.5-1.1c-0.3-0.4-0.6-0.3-0.5-0.2c0.1,0.1,0.2,0.3,0.2,0.3c-0.1-0.1-0.8-0.6-0.4-0.1c0.4,0.5,0.3,1,0.3,1
		c-0.1-0.2-0.2-0.2-0.2-0.2s0,0.1,0.1,0.2c0.1,0.1,0.2,0.3,0.2,0.5c0,0.2-0.1,0.4-0.2,0.4c-0.1,0-0.6,0.1-1.2,0c-0.4,0-0.9,0.1-1,0
		c-0.2-0.1-0.3-0.1-0.3-0.1c0.1,0,0.1,0.1,0.1,0.1s-0.1,0-0.1,0c-0.1,0-0.1,0-0.1-0.1c0,0-0.1-0.1-0.2-0.2c-0.1,0-0.2,0-0.3-0.3
		c-0.1-0.2,0-0.3,0-0.3c-0.3,0-0.3,0.3-0.3,0.3c-0.1-0.2-0.4-0.3-0.5-0.1c-0.1,0.2-0.1,0.5,0.2,0.9c0.3,0.5,0.4,0.7,0.4,0.7
		c-0.2,0.6-0.1,0.5-0.3,1.4c-0.1,0.9-0.1,1.3-0.1,1.6c0.1,0.4-0.2,0.5-0.3,0.6c-0.2,0.1-0.3,0.3-1,0.9c-0.7,0.6-1.2,1.3-1.7,2.1
		c-0.5,0.9-1.2,2.5-1.5,3.3c-0.3,0.7-0.2,1.4-0.2,1.4c0-0.1,0.1-0.1,0.1-0.1c0,0.2-0.4,1.2-0.6,1.8c-0.2,0.7,0,0.5,0.3,0.3
		c0.3-0.2,1.1-1.3,1.3-1.6c0.2-0.3,0.7-0.9,0.8-1.1c0.1-0.2,0.5-0.7,0.6-0.8c0.2-0.3,0.5-0.4,1-0.8c0.5-0.4,0.9-1.2,1.3-1.5
		c0.3-0.3,1.2-1.3,1.2-1.3c-0.3,0.5-0.7,1.2-1,1.5c-0.2,0.2-0.9,1.5-1.7,1.8c-0.6,0.3-1,1.2-1.2,1.5c-0.3,0.3-0.5,0.7-0.7,1
		c-0.2,0.3-0.6,0.8-1,1.2c-0.3,0.4-0.5,0.7-0.8,1.1c-0.3,0.4-0.4,0.4-0.5,1c0,0.6,0,1.1-0.1,1.6c0,0.2-0.2,0.3-0.2,0.4c0,0,0,0,0,0
		c-0.1,0.2,0,0.3,0.1,0.4c0.2,0.1,0.5,0.8,0.3,1c-0.3,0.2-0.4,0.5,0.1,0.8c0.5,0.3,0.5,0.6,0.2,0.8c-0.3,0.2,0.2,0.7,0.6,1.1
		c0.5,0.4,1.4,0.8,2.8,1.2c1.4,0.4,0.8,1.5,0.3,1.6c-0.5,0.1-1.2,0.3-1,0.7c0.1,0.2,0.1,0.7,0.3,1c0.2,0.2,0.6,0.2,1,0.5
		c0.8,0.7,0.5,1.2,0.2,1.4c-0.3,0.2,0,0.8,0.2,1.3c0.3,0.5,0.9,0.8,0.9,1c0,0.2,0.2,0.5,0.5,0.9c0.3,0.4,0.4,0.2,0.4,0.6
		c0.1,0.3,0.1,0.4,0.4,0.9c0.3,0.5,1.9,1.7,2.1,2.4c0.2,0.7-0.1,2.1-0.3,2.6c-0.1,0.4-0.8,1.6-0.5,1.6c0.4,0,0.9,0.8,0.9,0.8
		c0.1,0,0.1-0.6,0.1-0.9c0-0.3,0.3-1.6,0.3-2.3c0-0.4,0.1-0.8,0.1-1.2c0-0.2,0-0.4,0-0.5c0-0.6,0-2.2,0.1-4.4c0-4.9,0.3-9.3,0.3-9.4
		c0,0,0.1,1.3,0.1,5.5c0,0.1,1.5-0.8,3.2-0.9c-0.5,0.1-1.1,0.3-1.4,0.4c0,0,1,0.3,0.8,0.3c0,0-1.1-0.1-1.2-0.1
		c-0.9,0.3-1.3,0.6-1.5,0.8c0,3.6,0,7.4,0,7.4c0.4-0.5,1.1-1.2,1.8-1.7c0.8-0.6,1.3-1.8,2.1-3.1c0.8-1.4,1.5-1,1.5-2.1
		c0-0.4-0.9-0.5-0.9-1.2c0-0.7,0.9-1.8,1.9-1.7c0.8,0.1,1.1-1.2,0.5-1.6c-0.6-0.5-1.6-0.3-1.6-0.9c-0.1-0.6,2.8-2.3,3.3-2.5
		C115.8,22.6,115.5,22,115.5,21.7z"/>
	<polygon fill="#010101" points="5.7,19.7 5.7,21 1.5,21 1.5,24 5.3,24 5.3,25.3 1.5,25.3 1.5,30 0,30 0,19.7 	"/>
	<path fill="#010101" d="M16.7,21.1c1.1,1,1.6,2.3,1.6,3.8c0,1.5-0.5,2.7-1.6,3.8c-1,1-2.3,1.5-3.9,1.5c-1.6,0-2.8-0.5-3.9-1.5
		c-1-1-1.6-2.3-1.6-3.8c0-1.5,0.5-2.8,1.6-3.8c1-1,2.3-1.5,3.9-1.5C14.4,19.6,15.7,20.1,16.7,21.1 M15.6,27.6
		c0.8-0.8,1.2-1.7,1.2-2.8c0-1.1-0.4-2-1.2-2.8c-0.8-0.8-1.7-1.1-2.8-1.1c-1.1,0-2,0.4-2.8,1.1c-0.8,0.8-1.1,1.7-1.1,2.8
		c0,1.1,0.4,2,1.1,2.8c0.8,0.8,1.7,1.1,2.8,1.1C13.9,28.8,14.9,28.4,15.6,27.6"/>
	<path fill="#010101" d="M29.6,19.7V30h-1.1l-6.8-7.8V30h-1.5V19.7h1.2c0.7,0.8,1.3,1.6,1.9,2.3c0.6,0.7,1.2,1.4,1.8,2.1
		c0.5,0.6,1,1.1,1.5,1.7c0.5,0.6,1,1.2,1.5,1.8v-7.8H29.6z"/>
	<polygon fill="#010101" points="39.8,19.7 39.8,21 36.2,21 36.2,30 34.8,30 34.8,21 31.2,21 31.2,19.7 	"/>
	<polygon fill="#010101" points="47.5,28.7 47.5,30 41.4,30 41.4,19.7 47.4,19.7 47.4,21 42.9,21 42.9,24.2 47.3,24.2 47.3,25.5 
		42.9,25.5 42.9,28.7 	"/>
	<path fill="#010101" d="M59,19.7V30h-1.1L51,22.2V30h-1.5V19.7h1.2c0.7,0.8,1.3,1.6,1.9,2.3c0.6,0.7,1.2,1.4,1.8,2.1
		c0.5,0.6,1,1.1,1.5,1.7c0.5,0.6,1,1.2,1.5,1.8v-7.8H59z"/>
	<polygon fill="#010101" points="67.7,28.7 67.7,30 61.6,30 61.6,19.7 67.6,19.7 67.6,21 63.1,21 63.1,24.2 67.5,24.2 67.5,25.5 
		63.1,25.5 63.1,28.7 	"/>
	<polygon fill="#010101" points="76.4,28.7 76.4,30 70.2,30 70.2,19.7 71.6,19.7 71.6,28.7 	"/>
	<polygon fill="#010101" points="84.5,28.7 84.5,30 78.3,30 78.3,19.7 79.8,19.7 79.8,28.7 	"/>
	<polygon fill="#010101" points="92.2,28.7 92.2,30 86.1,30 86.1,19.7 92.1,19.7 92.1,21 87.5,21 87.5,24.2 91.9,24.2 91.9,25.5 
		87.5,25.5 87.5,28.7 	"/>
	<polygon fill="#010101" points="124.6,19.7 124.6,21 120.3,21 120.3,24 124.1,24 124.1,25.3 120.3,25.3 120.3,30 118.9,30 
		118.9,19.7 	"/>
	<path fill="#010101" d="M135.6,21.1c1.1,1,1.6,2.3,1.6,3.8c0,1.5-0.5,2.7-1.6,3.8c-1,1-2.3,1.5-3.9,1.5c-1.6,0-2.8-0.5-3.9-1.5
		c-1-1-1.6-2.3-1.6-3.8c0-1.5,0.5-2.8,1.6-3.8c1-1,2.3-1.5,3.9-1.5C133.3,19.6,134.6,20.1,135.6,21.1 M134.5,27.6
		c0.8-0.8,1.2-1.7,1.2-2.8c0-1.1-0.4-2-1.2-2.8c-0.8-0.8-1.7-1.1-2.8-1.1c-1.1,0-2,0.4-2.8,1.1c-0.8,0.8-1.1,1.7-1.1,2.8
		c0,1.1,0.4,2,1.1,2.8c0.8,0.8,1.7,1.1,2.8,1.1C132.8,28.8,133.8,28.4,134.5,27.6"/>
	<path fill="#010101" d="M145.3,26.7l2.2,3.3h-1.7l-1.8-2.8c-0.2-0.3-0.3-0.5-0.5-0.7c-0.2-0.2-0.3-0.4-0.5-0.6
		c-0.3-0.3-0.7-0.5-1.2-0.5h-1.1V30h-1.5V19.7h2.8c0.5,0,1,0.1,1.5,0.2c0.4,0.1,0.8,0.3,1.1,0.5c0.3,0.3,0.6,0.6,0.7,0.9
		c0.2,0.4,0.2,0.8,0.2,1.2c0,0.7-0.2,1.3-0.7,1.7c-0.3,0.3-0.6,0.5-0.9,0.7c0.1,0.1,0.1,0.2,0.2,0.2c0.1,0.1,0.1,0.2,0.2,0.3
		c0.2,0.2,0.3,0.4,0.4,0.6C145,26.3,145.1,26.5,145.3,26.7 M143.5,23.7c0.2-0.1,0.3-0.3,0.4-0.5c0.1-0.2,0.1-0.4,0.1-0.7
		c0-0.5-0.2-0.8-0.5-1.1c-0.4-0.3-0.9-0.4-1.6-0.4h-1.3v3.1h1.2c0.4,0,0.7,0,1-0.1C143.1,23.9,143.3,23.8,143.5,23.7"/>
	<polygon fill="#010101" points="154.9,28.7 154.9,30 148.8,30 148.8,19.7 154.8,19.7 154.8,21 150.3,21 150.3,24.2 154.7,24.2 
		154.7,25.5 150.3,25.5 150.3,28.7 	"/>
	<path fill="#010101" d="M162.3,25.3c0.4,0.5,0.6,1.1,0.6,1.9c0,0.8-0.3,1.5-0.9,2.1c-0.6,0.6-1.3,0.9-2.2,0.9
		c-0.6,0-1.1-0.1-1.7-0.3c-0.2-0.1-0.4-0.2-0.6-0.3c-0.2-0.1-0.4-0.2-0.6-0.4v-1.7c0.3,0.2,0.5,0.3,0.7,0.5c0.2,0.1,0.3,0.2,0.5,0.3
		c0.1,0.1,0.3,0.2,0.4,0.2c0.1,0.1,0.2,0.1,0.3,0.1c0.3,0.2,0.6,0.2,1,0.2c0.5,0,0.9-0.2,1.2-0.5c0.3-0.3,0.5-0.7,0.5-1.1
		c0-0.2,0-0.5-0.1-0.6c-0.1-0.2-0.2-0.3-0.3-0.4c-0.2-0.1-0.4-0.3-0.7-0.4c-0.3-0.1-0.6-0.3-1-0.4c-0.8-0.3-1.4-0.6-1.8-1
		c-0.2-0.2-0.4-0.5-0.5-0.8c-0.1-0.3-0.2-0.7-0.2-1c0-0.8,0.3-1.5,0.9-2c0.6-0.6,1.3-0.8,2.2-0.8c0.6,0,1.1,0.1,1.6,0.3
		c0.2,0.1,0.4,0.2,0.6,0.2c0.2,0.1,0.3,0.2,0.4,0.3l0,1.6c-0.2-0.1-0.4-0.2-0.5-0.3c-0.1-0.1-0.3-0.1-0.4-0.2
		c-0.1-0.1-0.2-0.1-0.3-0.1c-0.1,0-0.2-0.1-0.3-0.1c-0.3-0.2-0.7-0.2-1.1-0.2c-0.5,0-0.9,0.1-1.2,0.4c-0.3,0.3-0.5,0.6-0.5,1
		c0,0.2,0,0.4,0.1,0.6c0.1,0.1,0.2,0.3,0.3,0.4c0.3,0.2,0.8,0.5,1.5,0.8c0.5,0.2,0.9,0.4,1.3,0.6C161.8,24.9,162.1,25.1,162.3,25.3"
		/>
	<polygon fill="#010101" points="172.7,19.7 172.7,21 169.1,21 169.1,30 167.6,30 167.6,21 164,21 164,19.7 	"/>
	<path fill="#010101" d="M106.3,19.8C106.3,19.8,106.3,19.8,106.3,19.8C106.3,19.8,106.3,19.8,106.3,19.8"/>
</g>
</svg>
