<?xml version="1.0" encoding="utf-8"?>
<!-- Generator: Adobe Illustrator 18.1.1, SVG Export Plug-In . SVG Version: 6.00 Build 0)  -->
<svg version="1.1" id="Layer_1" xmlns="http://www.w3.org/2000/svg" xmlns:xlink="http://www.w3.org/1999/xlink" x="0px" y="0px"
	 viewBox="0 0 129.6 22.3" enable-background="new 0 0 129.6 22.3" xml:space="preserve">
<g>
	<polygon points="0,22.3 0,0 22.9,0 22.9,3.8 5.3,3.8 5.3,8.7 15.5,8.7 15.5,12.5 5.3,12.5 5.3,18.1 23.2,18.1 23.2,22.3 	"/>
	<polygon points="36.5,22.3 36.5,0 41.7,0 41.7,18.1 58.6,18.1 58.6,22.3 	"/>
	<polygon points="69.9,22.3 69.9,0 92.8,0 92.8,3.8 75.2,3.8 75.2,8.7 85.4,8.7 85.4,12.5 75.2,12.5 75.2,18.1 93.1,18.1 93.1,22.3 
			"/>
	<polygon points="112.7,22.3 112.7,12.4 101.1,0 108,0 115.7,8.6 123.4,0 129.6,0 118,12.2 118,22.3 	"/>
</g>
</svg>
