<?xml version="1.0" encoding="utf-8"?>
<!-- Generator: Adobe Illustrator 19.2.0, SVG Export Plug-In . SVG Version: 6.00 Build 0)  -->
<svg version="1.0" id="Layer_1" xmlns="http://www.w3.org/2000/svg" xmlns:xlink="http://www.w3.org/1999/xlink" x="0px" y="0px"
	 width="47.17px" height="47.17px" viewBox="0 0 47.17 47.17" style="enable-background:new 0 0 47.17 47.17;" xml:space="preserve"
	>

<title>close</title>
<g>
	<path class="st0" d="M47.17,47.17H0V0h47.17V47.17z M3,44.17h41.17V3H3V44.17z"/>
	<path class="st0" d="M36.076,37.223c-0.384,0-0.768-0.146-1.061-0.439l-24.5-24.5c-0.586-0.585-0.586-1.536,0-2.121
		c0.586-0.586,1.535-0.586,2.121,0l24.5,24.5c0.586,0.586,0.586,1.535,0,2.121C36.844,37.076,36.46,37.223,36.076,37.223z"/>
	<path class="st0" d="M11.576,37.223c-0.384,0-0.768-0.146-1.061-0.439c-0.586-0.586-0.586-1.535,0-2.121l24.5-24.5
		c0.586-0.586,1.535-0.586,2.121,0c0.586,0.585,0.586,1.536,0,2.121l-24.5,24.5C12.344,37.076,11.96,37.223,11.576,37.223z"/>
</g>
</svg>
