<?xml version="1.0" encoding="utf-8"?>
<!-- Generator: Adobe Illustrator 19.2.0, SVG Export Plug-In . SVG Version: 6.00 Build 0)  -->
<svg version="1.0" id="Layer_1" xmlns="http://www.w3.org/2000/svg" xmlns:xlink="http://www.w3.org/1999/xlink" x="0px" y="0px"
	 width="44.319px" height="44.319px" viewBox="0 0 44.319 44.319" style="enable-background:new 0 0 44.319 44.319;"
	 xml:space="preserve">
<style type="text/css">
	.st0{fill:#231F20;}
</style>
<title>down</title>
<g>
	<g>
		<path class="st0" d="M22.179,34.049L11.145,23.015c-0.586-0.585-0.586-1.535,0-2.121s1.535-0.586,2.121,0l8.914,8.913l8.914-8.913
			c0.586-0.586,1.535-0.586,2.121,0s0.586,1.536,0,2.121L22.179,34.049z"/>
		<path class="st0" d="M22.179,33.428c-0.829,0-1.5-0.672-1.5-1.5V12.811c0-0.829,0.671-1.5,1.5-1.5s1.5,0.671,1.5,1.5v19.117
			C23.68,32.756,23.008,33.428,22.179,33.428z"/>
	</g>
	<path class="st0" d="M22.159,44.317L0,22.159L22.159,0l22.159,22.159L22.159,44.317z M4.242,22.159l17.917,17.917l17.917-17.917
		L22.159,4.242L4.242,22.159z"/>
</g>
</svg>
