<?xml version="1.0" encoding="utf-8"?>
<!-- Generator: Adobe Illustrator 19.2.0, SVG Export Plug-In . SVG Version: 6.00 Build 0)  -->
<svg version="1.0" id="Layer_1" xmlns="http://www.w3.org/2000/svg" xmlns:xlink="http://www.w3.org/1999/xlink" x="0px" y="0px"
	 width="60.293px" height="60.293px" viewBox="0 0 60.293 60.293" style="enable-background:new 0 0 60.293 60.293;"
	 xml:space="preserve">
<title>facebook_2</title>
<g>
	<path d="M60.293,60.293H0V0h60.293V60.293z M3,57.293h54.293V3H3V57.293z"/>
	<path d="M27.783,39.009h3.545v-8.863h2.631l0.323-3.546h-2.817v-1.417c-0.056-0.411,0.231-0.79,0.642-0.846
		c0.047-0.006,0.094-0.008,0.141-0.006h1.989v-3.037L31.5,21.283c-1.903-0.157-3.574,1.258-3.731,3.162
		c-0.015,0.185-0.016,0.37-0.001,0.555v1.6H26.01v3.545h1.773V39.009L27.783,39.009z"/>
</g>
</svg>
