<?xml version="1.0" encoding="utf-8"?>
<!-- Generator: Adobe Illustrator 19.2.0, SVG Export Plug-In . SVG Version: 6.00 Build 0)  -->
<svg version="1.0" id="Layer_1" xmlns="http://www.w3.org/2000/svg" xmlns:xlink="http://www.w3.org/1999/xlink" x="0px" y="0px"
	 width="85.267px" height="85.267px" viewBox="0 0 85.267 85.267" style="enable-background:new 0 0 85.267 85.267;"
	 xml:space="preserve">
<title>facebook_1</title>
<g>
	<path d="M42.634,85.267L0,42.633L42.634,0l42.634,42.633L42.634,85.267z M4.243,42.633l38.391,38.392l38.392-38.392L42.634,4.242
		L4.243,42.633z"/>
	<g>
		<path d="M41.288,39.143H37.48c-0.074-0.014-0.146,0.035-0.16,0.109c-0.003,0.017-0.003,0.034,0,0.051v2.129
			c-0.014,0.074,0.035,0.146,0.109,0.16c0.017,0.003,0.034,0.003,0.051,0h3.12c0.075-0.013,0.147,0.037,0.16,0.112
			c0.003,0.016,0.003,0.032,0,0.048v1.36c0.013,0.075-0.037,0.147-0.112,0.16c-0.016,0.003-0.032,0.003-0.048,0h-3.12
			c-0.074-0.014-0.146,0.035-0.16,0.109c-0.003,0.017-0.003,0.034,0,0.051v3.953c0.013,0.075-0.037,0.147-0.112,0.16
			c-0.016,0.003-0.032,0.003-0.048,0h-1.522c-0.075,0.013-0.147-0.037-0.16-0.112c-0.003-0.016-0.003-0.032,0-0.048v-9.762
			c-0.013-0.075,0.037-0.147,0.112-0.16c0.016-0.003,0.032-0.003,0.048,0h5.65c0.078-0.01,0.15,0.045,0.16,0.124
			c0.002,0.012,0.002,0.024,0,0.036v1.36c0.014,0.074-0.035,0.146-0.109,0.16C41.322,39.146,41.305,39.146,41.288,39.143z"/>
		<path d="M46.5,47.547h-3.6c-0.075,0.013-0.147-0.037-0.16-0.112c-0.003-0.016-0.003-0.032,0-0.048v-9.764
			c-0.013-0.075,0.037-0.147,0.112-0.16c0.016-0.003,0.032-0.003,0.048,0h3.6c1.528-0.117,2.861,1.026,2.978,2.554
			c0.011,0.141,0.011,0.283,0,0.424V40.6c-0.004,0.39-0.127,0.77-0.353,1.088c-0.206,0.236-0.393,0.488-0.56,0.753
			c0.163,0.25,0.339,0.49,0.528,0.72c0.239,0.356,0.372,0.772,0.384,1.2V44.6c0.116,1.513-1.018,2.834-2.531,2.949
			C46.798,47.561,46.648,47.56,46.5,47.547z M47.656,40.3c-0.006-0.636-0.52-1.15-1.156-1.157h-1.76
			c-0.074-0.014-0.146,0.035-0.16,0.109c-0.003,0.017-0.003,0.034,0,0.051v2.129c-0.014,0.074,0.035,0.146,0.109,0.16
			c0.017,0.003,0.034,0.003,0.051,0h1.76c0.635-0.003,1.149-0.517,1.152-1.152V40.3H47.656z M47.656,44.414
			c0.01-0.621-0.486-1.132-1.106-1.141c-0.017,0-0.033,0-0.05,0h-1.76c-0.074-0.014-0.146,0.035-0.16,0.109
			c-0.003,0.017-0.003,0.034,0,0.051v2.272c-0.014,0.074,0.035,0.146,0.109,0.16c0.017,0.003,0.034,0.003,0.051,0h1.76
			c0.633,0.003,1.149-0.509,1.152-1.142c0-0.003,0-0.007,0-0.01v-0.3L47.656,44.414z"/>
	</g>
</g>
</svg>
