<?xml version="1.0" encoding="utf-8"?>
<!-- Generator: Adobe Illustrator 19.2.0, SVG Export Plug-In . SVG Version: 6.00 Build 0)  -->
<svg version="1.0" id="Layer_1" xmlns="http://www.w3.org/2000/svg" xmlns:xlink="http://www.w3.org/1999/xlink" x="0px" y="0px"
	 width="85.267px" height="85.267px" viewBox="0 0 85.267 85.267" style="enable-background:new 0 0 85.267 85.267;"
	 xml:space="preserve">
<title>instagram_1</title>
<g>
	<path d="M42.634,85.267L0,42.633L42.634,0l42.634,42.633L42.634,85.267z M4.243,42.633l38.391,38.392l38.392-38.392L42.634,4.242
		L4.243,42.633z"/>
	<g>
		<path d="M39.16,47.547h-1.52c-0.075,0.013-0.147-0.037-0.16-0.112c-0.003-0.016-0.003-0.032,0-0.048v-9.764
			c-0.013-0.075,0.037-0.147,0.112-0.16c0.016-0.003,0.032-0.003,0.048,0h1.52c0.078-0.01,0.15,0.045,0.16,0.124
			c0.002,0.012,0.002,0.024,0,0.036v9.764c0.014,0.074-0.035,0.146-0.109,0.16C39.194,47.55,39.177,47.55,39.16,47.547z"/>
		<path d="M46.985,37.831c0.477,0.33,0.832,0.808,1.009,1.36c-0.005,0.059-0.044,0.109-0.1,0.128l-1.393,0.688
			c-0.025,0.012-0.052,0.018-0.08,0.017c-0.117-0.046-0.202-0.149-0.225-0.272c-0.162-0.441-0.571-0.743-1.04-0.769H44.1
			c-0.634-0.002-1.15,0.51-1.152,1.144c0,0.003,0,0.005,0,0.008v4.738c-0.003,0.633,0.508,1.15,1.141,1.153c0.004,0,0.007,0,0.011,0
			h0.784c0.621,0.007,1.13-0.49,1.137-1.111c0-0.014,0-0.028,0-0.041v-0.752c0.009-0.079-0.047-0.151-0.126-0.16
			c-0.011-0.001-0.023-0.001-0.034,0h-1.5c-0.075,0.013-0.147-0.037-0.16-0.112c-0.003-0.016-0.003-0.032,0-0.048v-1.36
			c-0.013-0.075,0.037-0.147,0.112-0.16c0.016-0.003,0.032-0.003,0.048,0h3.346c0.074-0.014,0.146,0.035,0.16,0.109
			c0.003,0.017,0.003,0.034,0,0.051v2.433c0.054,1.515-1.13,2.787-2.645,2.841c-0.111,0.004-0.222,0.001-0.333-0.008H44.1
			c-1.506,0.134-2.835-0.977-2.969-2.483c-0.01-0.116-0.013-0.233-0.009-0.35v-4.739c-0.055-1.516,1.129-2.789,2.644-2.844
			c0.111-0.004,0.223-0.001,0.334,0.008h1.06C45.809,37.277,46.449,37.463,46.985,37.831z"/>
	</g>
</g>
</svg>
