<?xml version="1.0" encoding="utf-8"?>
<!-- Generator: Adobe Illustrator 19.2.0, SVG Export Plug-In . SVG Version: 6.00 Build 0)  -->
<svg version="1.0" id="Layer_1" xmlns="http://www.w3.org/2000/svg" xmlns:xlink="http://www.w3.org/1999/xlink" x="0px" y="0px"
	 width="60.293px" height="60.293px" viewBox="0 0 60.293 60.293" style="enable-background:new 0 0 60.293 60.293;"
	 xml:space="preserve">
<title>instagram_2</title>
<g>
	<path d="M60.293,60.293H0V0h60.293V60.293z M3,57.293h54.293V3H3V57.293z"/>
	<path d="M34.994,20.809H24.23c-1.872,0.002-3.388,1.518-3.39,3.39v10.765c0.002,1.872,1.518,3.388,3.39,3.39h10.764
		c1.872-0.002,3.389-1.518,3.391-3.39V24.2C38.383,22.328,36.866,20.811,34.994,20.809z M35.967,22.832h0.387V25.8l-2.963,0.01
		l-0.01-2.973L35.967,22.832z M27.109,27.781c0.998-1.379,2.925-1.688,4.304-0.69c1.379,0.998,1.688,2.925,0.69,4.304
		c-0.998,1.379-2.925,1.688-4.304,0.69c-0.803-0.581-1.278-1.513-1.275-2.504C26.526,28.935,26.73,28.305,27.109,27.781z
		 M36.677,34.964c-0.002,0.928-0.755,1.68-1.683,1.681H24.23c-0.928-0.001-1.68-0.753-1.681-1.681v-7.183h2.619
		c-1.002,2.454,0.176,5.256,2.63,6.258s5.256-0.176,6.258-2.63c0.475-1.163,0.475-2.465,0-3.628h2.62L36.677,34.964L36.677,34.964z"
		/>
</g>
</svg>
