<?xml version="1.0" encoding="utf-8"?>
<!-- Generator: Adobe Illustrator 19.2.0, SVG Export Plug-In . SVG Version: 6.00 Build 0)  -->
<svg version="1.0" id="Layer_1" xmlns="http://www.w3.org/2000/svg" xmlns:xlink="http://www.w3.org/1999/xlink" x="0px" y="0px"
	 width="44.319px" height="44.319px" viewBox="0 0 44.319 44.319" style="enable-background:new 0 0 44.319 44.319;"
	 xml:space="preserve">
<title>left</title>
<g>
	<g>
		<path class="st0" d="M22.365,33.653c-0.384,0-0.768-0.146-1.061-0.439L10.269,22.179l11.036-11.035
			c0.586-0.586,1.535-0.586,2.121,0s0.586,1.536,0,2.121l-8.914,8.914l8.914,8.914c0.586,0.586,0.586,1.535,0,2.121
			C23.133,33.507,22.749,33.653,22.365,33.653z"/>
		<path class="st0" d="M31.508,23.68H12.39c-0.829,0-1.5-0.672-1.5-1.5s0.671-1.5,1.5-1.5h19.118c0.828,0,1.5,0.671,1.5,1.5
			S32.336,23.68,31.508,23.68z"/>
	</g>
	<path class="st0" d="M22.16,44.318L0,22.159L22.16,0l22.159,22.159L22.16,44.318z M4.243,22.159L22.16,40.076l17.917-17.917
		L22.16,4.242L4.243,22.159z"/>
</g>
</svg>
