<?xml version="1.0" encoding="utf-8"?>
<!-- Generator: Adobe Illustrator 19.2.0, SVG Export Plug-In . SVG Version: 6.00 Build 0)  -->
<svg version="1.0" id="Layer_1" xmlns="http://www.w3.org/2000/svg" xmlns:xlink="http://www.w3.org/1999/xlink" x="0px" y="0px"
	 width="83.558px" height="84.261px" viewBox="0 0 83.558 84.261" style="enable-background:new 0 0 83.558 84.261;"
	 xml:space="preserve">
<title>more</title>
<g>
	<path class="st0" d="M41.779,84.26L0,42.13L41.779,0l41.779,42.13L41.779,84.26z M4.224,42.13L41.779,80l37.554-37.87L41.779,4.26
		L4.224,42.13z"/>
	<g>
		<path class="st0" d="M32.451,47.35h-1.656c-0.084,0.015-0.165-0.041-0.18-0.125c-0.003-0.019-0.003-0.038,0-0.056l0.162-7.021
			l-2.035,5.546c-0.04,0.054-0.097,0.092-0.162,0.108h-0.918c-0.071,0-0.135-0.042-0.162-0.108l-2.035-5.546l0.162,7.021
			c0.016,0.084-0.04,0.165-0.124,0.181c-0.019,0.003-0.038,0.004-0.056,0h-1.675c-0.084,0.015-0.165-0.041-0.18-0.125
			c-0.003-0.019-0.003-0.038,0-0.056V36.187c-0.015-0.084,0.041-0.165,0.125-0.18c0.018-0.003,0.037-0.003,0.055,0h1.549
			c0.062,0.023,0.117,0.06,0.162,0.108l2.628,7.13l2.629-7.13c0.045-0.048,0.101-0.085,0.162-0.108h1.549
			c0.084-0.015,0.165,0.041,0.18,0.125c0.003,0.018,0.003,0.037,0,0.055v10.982c0.016,0.084-0.04,0.165-0.124,0.181
			C32.489,47.353,32.47,47.353,32.451,47.35z"/>
		<path class="st0" d="M38.91,47.531h-0.883c-1.694,0.15-3.189-1.102-3.339-2.797c-0.011-0.13-0.015-0.26-0.01-0.39v-5.33
			c-0.061-1.704,1.271-3.135,2.976-3.196c0.124-0.004,0.249-0.001,0.373,0.009h0.883c1.7-0.145,3.196,1.115,3.341,2.815
			c0.011,0.124,0.014,0.248,0.009,0.372v5.33c0.06,1.705-1.273,3.136-2.978,3.196C39.158,47.545,39.034,47.542,38.91,47.531z
			 M40.188,39.014c0.02-0.698-0.53-1.28-1.227-1.3c-0.017,0-0.034-0.001-0.051,0h-0.883c-0.713-0.005-1.295,0.569-1.3,1.282
			c0,0.006,0,0.012,0,0.018v5.33c-0.005,0.713,0.569,1.295,1.282,1.3c0.006,0,0.012,0,0.018,0h0.883
			c0.699,0.007,1.271-0.553,1.278-1.251c0-0.016,0-0.032,0-0.049V39.014z"/>
		<path class="st0" d="M52.068,47.206c0.001,0.081-0.063,0.147-0.144,0.148c-0.013,0-0.025-0.001-0.037-0.004h-1.854
			c-0.073-0.009-0.135-0.057-0.162-0.126l-1.584-4.573l-0.145-0.108h-1.6c-0.084-0.016-0.165,0.04-0.181,0.124
			c-0.003,0.019-0.004,0.038,0,0.056v4.447c0.016,0.083-0.038,0.164-0.121,0.181c-0.019,0.004-0.039,0.004-0.059,0h-1.713
			c-0.084,0.015-0.165-0.041-0.18-0.125c-0.003-0.019-0.003-0.038,0-0.056V36.187c-0.015-0.084,0.041-0.165,0.125-0.18
			c0.018-0.003,0.037-0.003,0.055,0h4.052c1.718-0.131,3.218,1.155,3.349,2.873c0.012,0.159,0.012,0.318,0,0.476v0.18
			c-0.019,0.718-0.301,1.403-0.792,1.927c-0.285,0.182-0.535,0.413-0.737,0.684v0.018l1.71,4.951
			C52.063,47.144,52.069,47.175,52.068,47.206z M49.816,39.193c-0.008-0.715-0.585-1.292-1.3-1.3H46.54
			c-0.084-0.016-0.165,0.04-0.181,0.124c-0.004,0.019-0.004,0.038,0,0.057v2.395c-0.015,0.084,0.041,0.165,0.125,0.18
			c0.019,0.003,0.038,0.003,0.056,0h1.98c0.718,0,1.3-0.582,1.3-1.3v-0.155L49.816,39.193z"/>
		<path class="st0" d="M60.31,47.35h-6.355c-0.084,0.015-0.165-0.041-0.18-0.125c-0.003-0.019-0.003-0.038,0-0.056V36.187
			c-0.015-0.084,0.041-0.165,0.125-0.18c0.018-0.003,0.037-0.003,0.055,0h6.355c0.089-0.011,0.17,0.052,0.181,0.141
			c0.002,0.013,0.002,0.026,0,0.039v1.53c0.015,0.084-0.041,0.165-0.125,0.18c-0.019,0.003-0.038,0.003-0.056,0h-4.285
			c-0.084-0.015-0.165,0.041-0.18,0.125c-0.003,0.019-0.003,0.038,0,0.056v2.395c-0.015,0.084,0.041,0.165,0.125,0.18
			c0.018,0.003,0.037,0.003,0.055,0h3.512c0.084-0.015,0.165,0.041,0.18,0.125c0.003,0.018,0.003,0.037,0,0.055v1.531
			c0.016,0.084-0.039,0.164-0.123,0.18c-0.019,0.004-0.038,0.004-0.057,0h-3.512c-0.084-0.015-0.165,0.041-0.18,0.125
			c-0.003,0.018-0.003,0.037,0,0.055v2.556c-0.015,0.084,0.041,0.165,0.125,0.18c0.018,0.003,0.037,0.003,0.055,0h4.285
			c0.089-0.011,0.17,0.052,0.181,0.14c0.002,0.013,0.002,0.027,0,0.041v1.529c0.015,0.084-0.041,0.165-0.125,0.18
			C60.348,47.354,60.329,47.353,60.31,47.35z"/>
	</g>
</g>
</svg>
