<?xml version="1.0" encoding="utf-8"?>
<!-- Generator: Adobe Illustrator 19.2.0, SVG Export Plug-In . SVG Version: 6.00 Build 0)  -->
<svg version="1.0" id="Layer_1" xmlns="http://www.w3.org/2000/svg" xmlns:xlink="http://www.w3.org/1999/xlink" x="0px" y="0px"
	 width="104.225px" height="84.261px" viewBox="0 0 104.225 84.261" style="enable-background:new 0 0 104.225 84.261;"
	 xml:space="preserve">
<style type="text/css">
	.st0{fill:#ffffff;}
</style>
<title>play_1</title>
<g>
	<path class="st0" d="M41.779,84.26L0,42.13L41.779,0l41.779,42.13L41.779,84.26z M4.224,42.13L41.779,80l37.554-37.87L41.779,4.26
		L4.224,42.13z"/>
	<path class="st0" d="M78.018,68.453c-0.382,0-0.764-0.145-1.057-0.435c-0.588-0.584-0.592-1.533-0.009-2.122l23.049-23.241
		l-23.049-23.24c-0.583-0.588-0.579-1.538,0.009-2.121c0.589-0.583,1.537-0.58,2.122,0.009l25.143,25.352L79.083,68.01
		C78.789,68.305,78.403,68.453,78.018,68.453z"/>
	<g>
		<path class="st0" d="M33.584,39.242c0.047,1.79-1.367,3.28-3.158,3.326c-0.1,0.003-0.201,0.001-0.301-0.006H28.45
			c-0.088-0.015-0.171,0.043-0.186,0.131c-0.003,0.019-0.003,0.038,0,0.057v4.633c0.016,0.087-0.041,0.17-0.128,0.187
			c-0.019,0.004-0.038,0.004-0.057,0h-1.768c-0.087,0.016-0.17-0.042-0.186-0.129c-0.004-0.019-0.003-0.039,0-0.058V35.941
			c-0.016-0.087,0.041-0.171,0.129-0.188c0.019-0.004,0.038-0.004,0.057,0h3.813c1.794-0.118,3.344,1.24,3.462,3.034
			C33.596,38.939,33.595,39.091,33.584,39.242z M31.463,39.073c-0.001-0.741-0.598-1.343-1.339-1.35H28.45
			c-0.088-0.015-0.171,0.043-0.186,0.131c-0.003,0.019-0.003,0.038,0,0.057v2.495c-0.016,0.087,0.041,0.171,0.129,0.188
			c0.019,0.004,0.038,0.004,0.057,0h1.674c0.74,0,1.339-0.599,1.339-1.339c0-0.004,0-0.008,0-0.012L31.463,39.073L31.463,39.073z"/>
		<path class="st0" d="M41.544,47.57h-6.566c-0.087,0.015-0.17-0.043-0.185-0.13c-0.003-0.019-0.003-0.038,0-0.057V35.941
			c-0.017-0.087,0.04-0.171,0.127-0.188c0.019-0.004,0.039-0.004,0.058,0h1.767c0.092-0.011,0.176,0.055,0.186,0.148
			c0.002,0.013,0.001,0.027,0,0.04v9.473c-0.016,0.087,0.041,0.17,0.128,0.187c0.019,0.004,0.038,0.004,0.057,0h4.427
			c0.092-0.011,0.175,0.054,0.186,0.145c0.002,0.014,0.002,0.028,0,0.042v1.595c0.016,0.088-0.043,0.171-0.13,0.187
			C41.581,47.573,41.562,47.573,41.544,47.57z"/>
		<path class="st0" d="M51.015,47.4c0.001,0.093-0.074,0.17-0.167,0.171c-0.011,0-0.022-0.001-0.033-0.003h-1.884
			c-0.085,0.017-0.168-0.038-0.185-0.123c-0.001-0.003-0.001-0.005-0.001-0.008l-0.558-1.967c-0.019-0.094-0.075-0.113-0.186-0.113
			h-2.659c-0.112,0-0.168,0.018-0.186,0.113L44.6,47.439c-0.018,0.086-0.098,0.143-0.185,0.131h-1.86
			c-0.092,0.017-0.18-0.043-0.197-0.135c-0.002-0.011-0.003-0.022-0.003-0.033c0.008-0.024,0.014-0.05,0.018-0.075l3.459-11.442
			c0.018-0.086,0.099-0.143,0.186-0.131h1.34c0.085-0.006,0.162,0.049,0.185,0.131L51,47.327
			C51.003,47.352,51.008,47.376,51.015,47.4z M46.923,40.666c-0.018-0.113-0.093-0.45-0.2-1.032h-0.061
			c-0.13,0.581-0.2,0.919-0.224,1.032l-0.632,2.476c0,0.018-0.019,0.056-0.019,0.075c-0.001,0.093,0.074,0.17,0.167,0.171
			c0.011,0,0.022-0.001,0.033-0.003h1.359c0.091,0.018,0.179-0.042,0.197-0.133c0.002-0.012,0.003-0.023,0.003-0.035
			c0-0.019-0.018-0.057-0.018-0.075L46.923,40.666z"/>
		<path class="st0" d="M55.386,42.188v5.2c0.016,0.088-0.043,0.171-0.13,0.187c-0.018,0.003-0.037,0.003-0.056,0h-1.767
			c-0.088,0.015-0.171-0.044-0.186-0.131c-0.003-0.018-0.003-0.037,0-0.056v-5.2l-3.255-6.152c-0.018-0.042-0.031-0.086-0.037-0.131
			c0.008-0.092,0.088-0.16,0.18-0.153c0.007,0.001,0.013,0.002,0.02,0.003h2.064l0.168,0.113l1.767,3.676
			c0.022,0.093,0.114,0.15,0.207,0.128c0.064-0.015,0.114-0.065,0.128-0.128l1.767-3.676l0.167-0.113h2.046
			c0.09-0.019,0.179,0.04,0.197,0.13c0.001,0.007,0.002,0.013,0.003,0.02c-0.006,0.045-0.019,0.089-0.037,0.131L55.386,42.188z"/>
	</g>
</g>
</svg>
