<?xml version="1.0" encoding="utf-8"?>
<!-- Generator: Adobe Illustrator 19.2.0, SVG Export Plug-In . SVG Version: 6.00 Build 0)  -->
<svg version="1.0" id="Layer_1" xmlns="http://www.w3.org/2000/svg" xmlns:xlink="http://www.w3.org/1999/xlink" x="0px" y="0px"
	 width="44.319px" height="44.319px" viewBox="0 0 44.319 44.319" style="enable-background:new 0 0 44.319 44.319;"
	 xml:space="preserve">
<title>right</title>
<g>
	<g>
		<path class="st0" d="M21.954,33.614c-0.384,0-0.768-0.146-1.061-0.439c-0.586-0.586-0.586-1.535,0-2.121l8.913-8.915l-8.913-8.914
			c-0.586-0.586-0.586-1.536,0-2.121c0.586-0.586,1.535-0.586,2.121,0l11.034,11.035L23.015,33.175
			C22.722,33.468,22.338,33.614,21.954,33.614z"/>
		<path class="st0" d="M31.928,23.639H12.811c-0.829,0-1.5-0.671-1.5-1.5s0.671-1.5,1.5-1.5h19.117c0.828,0,1.5,0.671,1.5,1.5
			S32.756,23.639,31.928,23.639z"/>
	</g>
	<path class="st0" d="M22.159,44.318L0,22.159L22.159,0l22.159,22.159L22.159,44.318z M4.242,22.159l17.917,17.917l17.917-17.917
		L22.159,4.242L4.242,22.159z"/>
</g>
</svg>
