<svg id="Layer_1" data-name="Layer 1" xmlns="http://www.w3.org/2000/svg" width="65" height="38" viewBox="0 0 65 38">
  <defs>
    <style>
      .cls-1 {
        fill: #010101;
      }

      .cls-2 {
        fill: #1d1d1b;
      }
    </style>
  </defs>
  <title>slide-01</title>
  <g>
    <polygon class="cls-1" points="51.925 19 32.822 38 13.718 19 32.822 0 51.925 19"/>
    <path class="cls-2" d="M51.643,32.041a1.521,1.521,0,0,1-1.07-.436,1.487,1.487,0,0,1-.007-2.121L61.106,19,50.566,8.516A1.487,1.487,0,0,1,50.573,6.4a1.529,1.529,0,0,1,2.147.007L65.386,19,52.719,31.6A1.523,1.523,0,0,1,51.643,32.041Z"/>
    <path class="cls-2" d="M14.129,32.041a1.521,1.521,0,0,1-1.077-.443L0.386,19,13.052,6.4A1.531,1.531,0,0,1,15.2,6.4a1.487,1.487,0,0,1,.007,2.121L4.665,19,15.206,29.484A1.487,1.487,0,0,1,15.2,31.6,1.521,1.521,0,0,1,14.129,32.041Z"/>
  </g>
</svg>
