<svg id="Layer_1" data-name="Layer 1" xmlns="http://www.w3.org/2000/svg" width="133.011" height="85.267" viewBox="0 0 133.011 85.267">
  <defs>
    <style>
      .cls-1 {
        fill: #010101;
      }

      .cls-2 {
        fill: none;
        stroke: #fff;
        stroke-linecap: round;
        stroke-miterlimit: 10;
        stroke-width: 3px;
      }

      .cls-3 {
        fill: #ececec;
        stroke: #fff;
        stroke-linecap: round;
        stroke-miterlimit: 10;
        stroke-width: 3px;
      }
    </style>
  </defs>
  <title>slide</title>
  <g>
    <rect class="cls-3" x="37.723" y="13.987" width="57.293" height="57.293" transform="translate(-10.707 59.417) rotate(-45)" />
    <path class="cls-1" d="M50.03,39.515c0,0.847.828,1.1,2.088,1.675,1.927,0.883,2.827,1.873,2.827,3.655A3.079,3.079,0,0,1,51.6,48.032h-0.72a3.105,3.105,0,0,1-2.341-.846,2.7,2.7,0,0,1-.828-1.314,0.171,0.171,0,0,1,.108-0.126l1.566-.774a0.166,0.166,0,0,1,.09-0.018,0.822,0.822,0,0,1,.342.54,1.267,1.267,0,0,0,1.063.647H51.6a1.3,1.3,0,0,0,1.3-1.3c0-.9-0.756-1.225-1.927-1.782-1.98-.955-2.989-1.765-2.989-3.548a3.088,3.088,0,0,1,3.349-3.187H51.6a3.334,3.334,0,0,1,2.052.594A3.031,3.031,0,0,1,54.8,38.454a0.151,0.151,0,0,1-.108.144l-1.566.774a0.2,0.2,0,0,1-.09.018,0.442,0.442,0,0,1-.234-0.27,1.38,1.38,0,0,0-1.206-.9H51.326A1.29,1.29,0,0,0,50.03,39.515Z"/>
    <path class="cls-1" d="M63.027,47.852H56.671a0.154,0.154,0,0,1-.18-0.18V36.689a0.155,0.155,0,0,1,.18-0.181h1.71a0.162,0.162,0,0,1,.18.181v9.093a0.155,0.155,0,0,0,.18.18h4.285a0.161,0.161,0,0,1,.18.18v1.531A0.155,0.155,0,0,1,63.027,47.852Z"/>
    <path class="cls-1" d="M66.263,47.852h-1.71a0.154,0.154,0,0,1-.18-0.18V36.689a0.155,0.155,0,0,1,.18-0.181h1.71a0.162,0.162,0,0,1,.18.181V47.673A0.154,0.154,0,0,1,66.263,47.852Z"/>
    <path class="cls-1" d="M72.888,47.852H68.837a0.154,0.154,0,0,1-.18-0.18V36.689a0.155,0.155,0,0,1,.18-0.181h4.051a3.121,3.121,0,0,1,3.349,3.35V44.5A3.12,3.12,0,0,1,72.888,47.852Zm1.3-8.156a1.315,1.315,0,0,0-1.3-1.3h-1.98a0.155,0.155,0,0,0-.18.181v7.2a0.155,0.155,0,0,0,.18.18h1.98a1.291,1.291,0,0,0,1.3-1.3V39.7Z"/>
    <path class="cls-1" d="M84.786,47.852H78.43a0.154,0.154,0,0,1-.18-0.18V36.689a0.155,0.155,0,0,1,.18-0.181h6.356a0.162,0.162,0,0,1,.18.181v1.53a0.155,0.155,0,0,1-.18.18H80.5a0.155,0.155,0,0,0-.18.181v2.395a0.155,0.155,0,0,0,.18.18h3.511a0.155,0.155,0,0,1,.18.181v1.53a0.154,0.154,0,0,1-.18.18H80.5a0.155,0.155,0,0,0-.18.181v2.557a0.155,0.155,0,0,0,.18.18h4.285a0.161,0.161,0,0,1,.18.18v1.531A0.155,0.155,0,0,1,84.786,47.852Z"/>

    <polyline class="cls-2" points="106.282 18.026 130.89 42.633 106.282 67.241"/>
    <polyline class="cls-2" points="26.729 67.241 2.121 42.633 26.729 18.026"/>
  </g>
</svg>
