<?xml version="1.0" encoding="utf-8"?>
<!-- Generator: Adobe Illustrator 19.2.0, SVG Export Plug-In . SVG Version: 6.00 Build 0)  -->
<svg version="1.0" id="Layer_1" xmlns="http://www.w3.org/2000/svg" xmlns:xlink="http://www.w3.org/1999/xlink" x="0px" y="0px"
	 width="66.011px" height="38.866px" viewBox="0 0 66.011 38.866" style="enable-background:new 0 0 66.011 38.866;"
	 xml:space="preserve">
<style type="text/css">
	.st0{fill:#010101;}
	.st1{fill:#1D1D1B;}
</style>
<title>slide</title>
<g>
	
		<rect x="19.2" y="5.692" transform="matrix(0.7071 -0.7071 0.7071 0.7071 -4.0931 28.9846)" class="st0" width="27.483" height="27.483"/>
	<path class="st1" d="M52.086,32.737c-0.384,0-0.768-0.146-1.061-0.439c-0.586-0.586-0.586-1.535,0-2.121l10.743-10.744
		L51.025,8.689c-0.586-0.586-0.586-1.536,0-2.121c0.586-0.586,1.535-0.586,2.121,0l12.864,12.865L53.146,32.298
		C52.854,32.591,52.47,32.737,52.086,32.737z"/>
	<path class="st1" d="M13.925,32.737c-0.384,0-0.768-0.146-1.061-0.439L0,19.433L12.864,6.568c0.586-0.586,1.535-0.586,2.121,0
		c0.586,0.585,0.586,1.535,0,2.121L4.242,19.433l10.743,10.744c0.586,0.586,0.586,1.535,0,2.121
		C14.692,32.591,14.309,32.737,13.925,32.737z"/>
</g>
</svg>
