<?xml version="1.0" encoding="utf-8"?>
<!-- Generator: Adobe Illustrator 19.2.0, SVG Export Plug-In . SVG Version: 6.00 Build 0)  -->
<svg version="1.0" id="Layer_1" xmlns="http://www.w3.org/2000/svg" xmlns:xlink="http://www.w3.org/1999/xlink" x="0px" y="0px"
	 width="60.293px" height="60.293px" viewBox="0 0 60.293 60.293" style="enable-background:new 0 0 60.293 60.293;"
	 xml:space="preserve">
<title>twitter_2</title>
<g>
	<path d="M60.293,60.293H0V0h60.293V60.293z M3,57.293h54.293V3H3V57.293z"/>
	<path d="M41.509,22.031c-0.896,0.523-1.873,0.892-2.892,1.089c-0.866-0.909-2.068-1.423-3.324-1.42
		c-2.477-0.036-4.515,1.943-4.551,4.42c-0.005,0.363,0.034,0.726,0.116,1.08c-3.647-0.174-7.052-1.874-9.384-4.683
		c-0.405,0.682-0.618,1.461-0.617,2.254c0.003,1.505,0.765,2.908,2.026,3.73c-0.722-0.022-1.428-0.214-2.062-0.56V28
		c0.009,2.151,1.54,3.995,3.653,4.4c-0.671,0.179-1.374,0.206-2.057,0.077c0.612,1.836,2.318,3.085,4.253,3.113
		c-1.621,1.248-3.61,1.923-5.656,1.918c-0.363,0-0.726-0.021-1.086-0.063c2.089,1.318,4.51,2.016,6.98,2.013
		c7.045,0.108,12.844-5.515,12.952-12.56c0.001-0.064,0.001-0.128,0.002-0.192c0-0.194,0-0.388-0.012-0.58
		c0.889-0.632,1.658-1.418,2.271-2.32c-0.832,0.363-1.713,0.601-2.615,0.705C40.454,23.956,41.166,23.074,41.509,22.031z"/>
</g>
</svg>
