<?xml version="1.0" encoding="utf-8"?>
<!-- Generator: Adobe Illustrator 19.2.0, SVG Export Plug-In . SVG Version: 6.00 Build 0)  -->
<svg version="1.0" id="Layer_1" xmlns="http://www.w3.org/2000/svg" xmlns:xlink="http://www.w3.org/1999/xlink" x="0px" y="0px"
	 width="85.267px" height="85.267px" viewBox="0 0 85.267 85.267" style="enable-background:new 0 0 85.267 85.267;"
	 xml:space="preserve">
<title>twitter_1</title>
<g>
	<path d="M42.634,85.267L0,42.633L42.634,0l42.634,42.633L42.634,85.267z M4.243,42.633l38.391,38.392l38.392-38.392L42.634,4.242
		L4.243,42.633z"/>
	<path d="M45.445,39.143H43.7c-0.074-0.013-0.146,0.036-0.159,0.11c-0.003,0.016-0.003,0.033,0,0.05v8.083
		c0.013,0.075-0.037,0.147-0.112,0.16c-0.016,0.003-0.032,0.003-0.048,0h-1.507c-0.075,0.013-0.147-0.037-0.16-0.112
		c-0.003-0.016-0.003-0.032,0-0.048V39.3c0.014-0.074-0.035-0.146-0.109-0.16c-0.016-0.003-0.033-0.003-0.05,0H39.81
		c-0.075,0.013-0.147-0.037-0.16-0.112c-0.003-0.016-0.003-0.032,0-0.048v-1.36c-0.013-0.075,0.037-0.147,0.112-0.16
		c0.016-0.003,0.032-0.003,0.048,0h5.635c0.079-0.009,0.151,0.047,0.16,0.126c0.001,0.011,0.001,0.023,0,0.034v1.36
		c0.015,0.075-0.033,0.147-0.108,0.163C45.48,39.146,45.462,39.146,45.445,39.143z"/>
</g>
</svg>
