<?xml version="1.0" encoding="utf-8"?>
<!-- Generator: Adobe Illustrator 19.0.0, SVG Export Plug-In . SVG Version: 6.00 Build 0)  -->
<svg version="1.1" id="Layer_1" xmlns="http://www.w3.org/2000/svg" xmlns:xlink="http://www.w3.org/1999/xlink" x="0px" y="0px"
	 viewBox="0 0 1119.4 5.1" style="enable-background:new 0 0 1119.4 5.1;" xml:space="preserve">
<style type="text/css">
	.st0{fill:#D2D3D4;}
</style>
<path id="XMLID_4773_" class="st0" d="M1114.6,1.2c-7.3,0-85.8,0.8-90.9,0.7l-2.6-0.7c-0.4,0-1,0-1.3,0.1c-0.9,0.2-1.8,0.5-2.8,0.8
	l-63.5-1.4c-1.6-0.6-6.5,0.2-8.8-0.6c-27.1,0-54.3,0.1-81.4,0.1c-1.3,0.4-2.2,0.6-3.2,0.9c-1.1-0.3-2.3-0.6-3.6-0.9
	c-51.3,0.1-102.7,0.1-154,0.2c-48.7,0.1-97.3,0.5-145.9,1l-21.1,0c-1.4-0.4-2.7-0.7-4.1-1.1l-7.2,0c-1.3,0.3-2.6,0.7-3.8,1
	c-1.4-0.4-2.7-0.7-4-1c-2.8-0.4-4,0.3-5.6,0.7c-0.8,0-1.7,0-2.7,0c-0.6-0.2-1.3-0.4-2-0.6c-0.6,0.1-1.2,0.3-1.8,0.4
	c-0.4-0.1-0.7-0.1-1-0.2c-15.9,0-31.7,0.1-47.6,0.1c-4.7-0.1-8-0.2-8.3-0.3l-5,0c-0.2,0.1-0.4,0.2-0.5,0.3c-6.7,0-13.3,0-20,0
	c-1.3,0.4-2.2,0.6-3.2,0.9c-1.1-0.3-2.3-0.6-3.6-0.9c-51.3,0.1-102.7,0.1-154,0.2C212.6,1,164,1.4,115.4,1.9l-21.1,0
	c-1.4-0.4-2.7-0.7-4.1-1.1l-7.2,0c-1.3,0.3-2.6,0.7-3.8,1c-1.4-0.4-2.7-0.7-4-1c-3.8-0.6-4.5,1-7.4,0.9c-0.9-0.3-1.8-0.5-2.8-0.8
	c-1.2,0.3-2.5,0.6-4,1c0,0-53.4-0.6-54.8-1l-5,0C0.7,1.2,0.5,1.3,0,1.6l0,3.5C2.3,5.1,60.4,4,60.4,4c0.7-0.2,1.3-0.4,2-0.5
	c2.4,0,4.8-0.1,7.2-0.1c0.7,0.2,1.4,0.4,2.1,0.5l54.7,0c1.6-0.4,7.1,1.4,8.3,1.1c36.2,0,68-2.1,103.9-2.2c0.5,0,1.1,0.1,1.6,0.1
	c0.9,0.2,1.7,0.5,2.6,0.7c2.7-0.1,3.9-1.3,7.8-0.9c1,0.3,2.3,0.6,3.8,1l10.8,0c1.3-0.3,2.6-0.7,3.8-1c1.3,0.3,2.6,0.7,4,1l98.1-0.1
	c1.5,0.4,2.7,0.6,3.9,0.9c1.2-0.3,2-0.6,3.4-1c13.4,0,27.3,0,41.3,0c1.1,0,2.2,0.1,3.3,0.2c0.9,0.2,1.7,0.5,2.7,0.8
	c1.3-0.3,2.5-0.6,3.8-1c1.2,0.3,2.5,0.6,3.7,1c1.3-0.3,2.5-0.6,3.8-0.9c1,0.3,1.9,0.5,2.7,0.8c0.5,0.1,1,0.2,1.5,0.2
	c20.1,0,40.2,0,60.3,0c0.5,0,1.1-0.1,1.6-0.2c0.9-0.2,1.7-0.5,2.9-0.8c1.2,0.3,2.4,0.6,3.9,0.9l168.1-0.6c-3.3-0.5-2.1-1.1-3.1-1.8
	c1.7,0,3.3,0,5,0c0.5,0,1.1,0.1,1.6,0.1c0.9,0.2,1.7,0.5,2.6,0.7c2.7-0.1,3.9-1.3,7.8-0.9c1,0.3,2.3,0.6,3.8,1l10.8,0
	c1.3-0.3,2.6-0.7,3.8-1c1.3,0.3,2.6,0.7,4,1l98.1-0.1c1.5,0.4,2.7,0.6,3.9,0.9c1.2-0.3,2-0.6,3.4-1c13.4,0,27.3,0,41.3,0
	c1.1,0,2.2,0.1,3.3,0.2c0.9,0.2,1.7,0.5,2.7,0.8c1.3-0.3,2.5-0.6,3.8-1c1.2,0.3,2.5,0.6,3.7,1c1.3-0.3,2.5-0.6,3.8-0.9
	c1,0.3,1.9,0.5,2.7,0.8c0.5,0.1,1,0.2,1.5,0.2c20.1,0,40.2,0,60.3,0c0.5,0,1.1-0.1,1.6-0.2c0.9-0.2,1.7-0.5,2.9-0.8
	c1.2,0.3,2.4,0.6,3.9,0.9l168.1-0.6C1115.2,2.9,1118.3,2,1114.6,1.2z"/>
</svg>
