<svg id="Layer_1" data-name="Layer 1" xmlns="http://www.w3.org/2000/svg" width="3.937in" height="2.128in" viewBox="0 0 283.489 153.193">
  <defs>
    <style>
      .cls-1 {
        fill: #fff;
      }
    </style>
  </defs>
  <title>koenig_sig</title>
  <g>
    <path class="cls-1" d="M279.785,144.934a8.012,8.012,0,0,1-1.817-1.64,13.628,13.628,0,0,0-5.584-5.533,4.418,4.418,0,0,1-1.024-1,17.131,17.131,0,0,0-5.226-4.2c-1.564-.751-2.764-2.076-4.444-2.592-0.426-.131-0.843-0.293-1.48-0.517l-1.122-1.122a37.375,37.375,0,0,1-3.344-1.948,7.526,7.526,0,0,0-2.2-1.087,7.342,7.342,0,0,1-2.731-1.467c-1.654-1.57-3.685-1.665-5.739-1.909-1.5-1.255-3.551-1.88-4.629-3.742h-2.057c-0.712-.532-1.321-0.989-1.936-1.439a0.359,0.359,0,0,0-.221-0.04c-1.263.091-2.3-.64-3.448-0.939a6.687,6.687,0,0,0-1.647-.023l-1.382-1.382c-3.034-.059-5.624-1.391-8.582-2.938-0.13,0-.682-0.01-1.234,0a4.665,4.665,0,0,1-3.061-.752c-1.091-.783-2.524-0.847-3.823-1.17a31.754,31.754,0,0,1-5.376-1.92,11.015,11.015,0,0,1-6.576-1.78l-7.045-.725-0.632-.7a2.074,2.074,0,0,0-.5-0.149c-2.31.019-4.477-.734-6.693-1.227-1.167-.26-2.252-0.779-3.373-1.108a14.324,14.324,0,0,0-3.754-.071l-0.773-1.038c-0.837.2-1.706,0.71-2.26,0.474-0.685-.291-1.56-0.1-1.945-0.452-0.854-.78-1.888-0.048-2.661-0.591-0.878-.616-1.837-0.239-2.754-0.3-1.2-.073-2.4.044-3.6-0.037-0.98-.066-1.944-0.362-2.924-0.444a14.238,14.238,0,0,1-2.865-.062c-2.089-.645-4.271-0.032-6.277-0.511-2.759-.659-5.492-0.132-8.432-0.5l-0.683-.893a11.85,11.85,0,0,0-2.631.393,3.5,3.5,0,0,1-3.181-.224,2.21,2.21,0,0,0-1.135-.136c-2.553-.01-5.106-0.005-7.89-0.005,0.207,1.487-.336,2.958.567,4.405l-0.612.8c1.265,1.114.177,2.341,0.045,3.638-0.667,1.1-2.063,1.608-2.754,2.808a1.052,1.052,0,0,1-.569.339,18.847,18.847,0,0,0-3.468,2.1,7.784,7.784,0,0,1-4.018,1.269c-1.039-.028-2.081-0.039-3.119.011a5.375,5.375,0,0,0-1.2.326l-3.468-.509-0.881-1.348-0.928.507-0.837-.837c1.565-.366,2.985-0.755,4.429-1.012a5.512,5.512,0,0,0,1.973-.476A21.19,21.19,0,0,1,118.179,108a34.224,34.224,0,0,0,4.993-2.413,3.65,3.65,0,0,0,.686-0.9c0.376-.427.787-0.824,1.422-1.481,0.542-1.685,1.128-3.758-.646-5.71h-6.66q-13.679,0-27.359.013c-1.063,0-2.179-.284-3.17.454-0.517.385-.969-0.6-1.591-0.169a1.006,1.006,0,0,1-1.462-.158A0.391,0.391,0,0,0,84.21,97.5c-1.113-.244-2.1.378-3.162,0.455-0.987.071-1.962-1.165-2.992-.041a0.812,0.812,0,0,1-.448.061c-2.414.161-4.829,0.3-7.24,0.492-0.824.065-1.666-.274-2.487,0.415a2.682,2.682,0,0,1-1.869.03,8.318,8.318,0,0,0-4.891.011,7.679,7.679,0,0,1-1.437.013c-2.4,0-4.8-.033-7.2.016-0.983.02-2.043-.343-2.936,0.448a0.879,0.879,0,0,1-.7.007c-2.613-.9-5.316-0.245-7.962-0.5a17.73,17.73,0,0,1-2.877-.773l-0.233.207-3-1.813c-0.5-1.466-1.141-2.94-.224-4.527a0.951,0.951,0,0,0-.136-0.646,1.314,1.314,0,0,0-.331-0.335c1.484-2.326,2.293-2.533,5.119-1.712a26.713,26.713,0,0,1,4.905,1.945c1.093,0,2.375-.044,3.651.016a4.459,4.459,0,0,1,2.492.383c0.591,0.363,1.658-.03,2.509-0.117a5.056,5.056,0,0,1,2.023-.234c2.318,0.936,4.693.172,7.02,0.433a5.028,5.028,0,0,1,3.16-.459,5.167,5.167,0,0,1,1.312.419,4.993,4.993,0,0,1,1.411-.42c7.92-.028,15.84-0.066,23.758.027a4.612,4.612,0,0,1,3.9,1.486l0.506-.858c1.512-.271,2.628-0.55,3.76-0.653,1.11-.1,2.237-0.022,3.256-0.022,1.347,0.772.828,1.7,0.226,2.549l0.79,0.734,1.73-1.222c-0.012-1.154-1.127-.239-1.417-0.838-0.01-.144-0.022-0.3-0.032-0.455,2.2-1.018,4.545-.732,6.927-0.772a4.02,4.02,0,0,0,3.413,1.459,24.712,24.712,0,0,1,2.5-.015l-0.42,1.39c1.841-.448,1.841-0.448,3.316.123,0.038-.729.086-1.4,0.1-2.076,0.017-.639,0-1.28,0-1.85l-1.97-1.86a4.081,4.081,0,0,1-3.384-2.05,23.028,23.028,0,0,1-2.237-3.89A15.42,15.42,0,0,0,111.4,80.7V79.556c-0.168-.181-0.323-0.358-0.488-0.524a7.454,7.454,0,0,0-1.721-1.647c-0.722-.347-0.324-1.307-1.24-1.557A4.24,4.24,0,0,1,106.2,74.3a22.034,22.034,0,0,0-3.052-3,23.413,23.413,0,0,0-2.183-1.414c-0.3,1.859-.25,3.322.992,4.545a2.069,2.069,0,0,1,.294.83,14.871,14.871,0,0,0,.862,2.3c-0.171,2.59.575,5.284-.318,7.924L100.806,83.4l-0.634-3.539a9.757,9.757,0,0,1-2.339-5.316l-0.7-.145a17.65,17.65,0,0,0-3-5.9,3.314,3.314,0,0,1-.807-1.329,3.4,3.4,0,0,0-1.4-2.316,2.9,2.9,0,0,1-.762-1.369,9.727,9.727,0,0,0-6.086-6.368,21.827,21.827,0,0,0-.1,3.546c-0.026,1.119-.006,2.24-0.006,3.3l1.273,1.86,0.692,6.977,1.42,0.828c-0.23,2.184.384,4.394-.439,6.623-1.653-.833-3.29-1.306-3.906-3.1a26.763,26.763,0,0,0-.024-2.859,21.348,21.348,0,0,0-.646-2.657l-0.619-.559a1.985,1.985,0,0,1-.145-0.509,27.911,27.911,0,0,0-.868-6.1c-0.26-1.426-.873-2.741-1.025-4.148-0.153-1.423.048-2.882-.058-4.314-0.1-1.29-.4-2.564-0.639-4.042l-0.427-.427c-1.395-.6-2.734.528-4.2,0.409-1.354-.109-2.505.874-3.913,0.993A7.034,7.034,0,0,0,67.4,54.3c-0.886,0-2.047-.339-2.751.083-0.959.575-1.842,0.213-2.73,0.4s-1.761.4-2.79,0.639l-0.7.7c-1.393.2-2.754,0.4-4.118,0.576a4.347,4.347,0,0,0-1.759.412c-1.389.767-2.883,1.543-4.466,0.925l-1.2,1.323c-1.658.3-2.964,0.211-3.857,0.775-1.186.749-2.329,0.114-3.168,0.38a21.377,21.377,0,0,1-5,1.959,3.147,3.147,0,0,0-1.233.483c-1.943,1.473-4.656,1.182-6.5,2.866-1.93-.089-3.309.939-4.628,2.183a4.351,4.351,0,0,1-1.446.534,9.611,9.611,0,0,0-2.708,1.588c-0.712.578-1.768,0.74-2.1,1.775-1.605.329-2.5,1.7-3.727,2.578-0.681.484-1.113,1.219-1.866,1.725a4.465,4.465,0,0,0-2.116,1.9,8.2,8.2,0,0,1-1.657,2.189c-1.062,1.189-1.1,2.751-1.583,4.147A2.788,2.788,0,0,0,5.93,86.8a17.81,17.81,0,0,0,2.182,2.7A8.656,8.656,0,0,0,11.23,91.8c1.14,0.464,1.88,1.79,3.312,1.852,0.927,1.792,3.463,1.452,4.249,3.371h1.727l1.172,1.838h2.577c2.04,0.961,3.955,2.141,6.209,2.488A18.37,18.37,0,0,1,32.6,102a26.1,26.1,0,0,0,2.792.82,7.057,7.057,0,0,1,4.556,2.667c1.867-.114,3.484-0.3,5.1-0.285,1.537,0.017,3.022.557,4.6,0.524,0.625-.013,1.267.76,2.146,1.335-0.153-.04-0.008.034,0.135,0.03a36.4,36.4,0,0,1,7.056.88,24.35,24.35,0,0,0,6.749.586,5.07,5.07,0,0,1,3.163.45c1.364,0.768,2.887.407,4.016,0.485l2.508,1.129,0.128-.22,1.9,1.885,0.682-1.422,2.158,1.112c0.449,0.147,1.565-.584,2.214.71a2.123,2.123,0,0,1-.949.611c-1.535-.142-3.086.388-4.639-0.371-0.6-.294-1.6.215-2.477,0.37l-2.023-1.1-1.467,1.518a2.663,2.663,0,0,1-.485.1c-2.56.006-5.121-.034-7.679,0.015a20.412,20.412,0,0,1-7.167-1.245,8.03,8.03,0,0,0-2.317-.2c-1.231-.042-2.514.188-3.633-0.5a4.876,4.876,0,0,0-2.64-.464l-2.872-1.478-0.579.324a9.208,9.208,0,0,0-1.842-.271,17.41,17.41,0,0,1-7.7-1.7,40.793,40.793,0,0,0-5.224-1.442l-1.2-1.2c-0.422,0-.894,0-1.367,0a16.869,16.869,0,0,1-8.478-2.695,9.437,9.437,0,0,0-2.159-1.183,2.663,2.663,0,0,1-1.312-.841,4.053,4.053,0,0,0-2.346-1.322,8.507,8.507,0,0,1-3.644-2.22A17.4,17.4,0,0,0,5.828,95.3,7.122,7.122,0,0,1,3.4,92.507c-0.509-1-1.139-1.947-1.919-3.257,0.189-1.4-.547-2.962-1.467-4.611A4.81,4.81,0,0,1,.65,81.688c0.3-.48.14-1.224,0.392-1.75A39.472,39.472,0,0,1,4.027,73.96c0.634-.9,1.95-1.19,2.157-2.158,0.293-1.373,1.792-1.139,2.277-2.134a3.681,3.681,0,0,1,.78-0.377c1.36-1.16,2.7-2.347,3.968-3.459l0.847-.038a37.774,37.774,0,0,1,3.758-3.068,10.42,10.42,0,0,1,3.328-1.2c1.273-.275,2.178-1.274,3.472-1.5,1.168-.2,2.558-0.311,3.381-1.011,1.046-.89,2.449-0.841,3.478-1.837,2.224-.2,4.485,1,6.875.322l0.057-.7-1.388-.208V55.376l4.074-.726,1,1.623a8.607,8.607,0,0,0,2.711-.586,8.693,8.693,0,0,1,4.882-.906l0.918-.918h1.514l0.625-.931a15.119,15.119,0,0,0,3.45-.471c0.85-.339,1.958-0.12,2.924-0.842l-1.478-1.048H61.8l0.862-1.965a0.9,0.9,0,0,1,.465-0.058c0.716,0.192,1.417.437,2.124,0.661l-0.668,1.142,2.383,0.114,0.994-.994c1.314,0.233,2.772-.422,4.057.5,2.09-.969,2.09-0.969,2.953-2.035L73.5,46.979V45.55a15.157,15.157,0,0,0-2.016-2.523A16.046,16.046,0,0,1,67.939,39a13.469,13.469,0,0,0-2.151-2.2c0.09-1.649-1.171-2.618-1.93-3.784-0.615-.945-0.827-2.16-1.822-2.856-0.167-1.936-1.309-3.837-.168-5.829a3.786,3.786,0,0,0,.147-1.282,3.756,3.756,0,0,1,1.325.293,23.317,23.317,0,0,1,2.688,2.2c0.779,0.754,1.361,1.72,2.166,2.439a5.839,5.839,0,0,1,1.9,2.547c1.929,1,2.494,3.088,3.714,4.654a3.145,3.145,0,0,0,.986.56c0.61,1.706,1.838,3.188,2.193,5.048,1.555,1.094,1.71,3.176,3.144,4.591L81.4,44.218h2.827l1.29,1.2a19.037,19.037,0,0,0,2.852-7.859,9.32,9.32,0,0,1,1.142-3.35c1.07-1.876,1.966-3.84,3.075-5.7a44.027,44.027,0,0,1,4.688-6.93c1.961-2.209,3.98-4.388,5.714-6.769,0.657-.9,1.6-1.294,2.283-2.095a6.188,6.188,0,0,1,2.447-2.142,5.831,5.831,0,0,0,1.564-1.425h0.944a8.943,8.943,0,0,1,3.5-2.6A8.975,8.975,0,0,0,115.41,5.38a4.51,4.51,0,0,1,2.221-1.033,6.057,6.057,0,0,0,2.9-1.129c1.211-.828,2.7-1.2,3.954-2.039a3.134,3.134,0,0,1,1.84-.146,8.05,8.05,0,0,0,3.394-.523c1.585-.545,1.548-0.525,3.472-0.038a3.591,3.591,0,0,0,2.349.01c2.122-1.187,4.032.177,6.031,0.263a17.164,17.164,0,0,1,2.308.445c0.542,1.153,2.589,1.151,3.019,2.886,1.54,0.613,1.9,2.219,2.813,3.354a9.938,9.938,0,0,1-1.176,6.183,14.335,14.335,0,0,0-.873,3.5l-2.575,4.026a4.213,4.213,0,0,0-.968.681,16.313,16.313,0,0,0-1.206,1.651,14.717,14.717,0,0,1-1.374,1.821,13.642,13.642,0,0,0-1.785,1.4,23.826,23.826,0,0,1-3.391,3.35,3.552,3.552,0,0,1-2.147,1.178,1.408,1.408,0,0,0-1.3,1.223c-1.051.571-2.033,1.093-3,1.637a10.353,10.353,0,0,1-2.331,1.307,9.647,9.647,0,0,0-3.126,1.744,3.382,3.382,0,0,1-2.73.81L120.3,39.373c-1.7-.117-2.956.887-4.542,1.92h-1.358c-1.878.82-3.337,1.566-4.87,2.094a14.97,14.97,0,0,1-4.456.869c-1.242.459-1.942,1.515-3.19,1.55-0.2.005-.394,0.328-0.576,0.313-2.356-.2-4.444.777-6.613,1.431a6.66,6.66,0,0,1-1.861.026c-0.883,1.186-1.525,2.179-.731,3.776,0.585,1.177.482,2.7,0.687,4.074C93.356,56.248,93.97,57.121,94.57,58a4.962,4.962,0,0,0,.6.946c1.574,1.415,2.782,3.222,4.7,4.283a5.181,5.181,0,0,1,.958,1.258c0.4,0.467.858,1.258,1.294,1.261,1.494,0.01,2.184,1.186,2.711,2.057a8.62,8.62,0,0,0,2.627,2.432l0.118,1,2.237,1.736h1.335l1.785,2.129,0.2-.3L115.5,75.44c0.475,1.286,1.822,2.125,1.7,3.412l1.884,1.79h3.6l1.859,2.454c0.808,0,1.755.069,2.687-.021,0.833-.08,1.683.315,2.519-0.3,0.73-.535,1.721-0.147,2.646-0.548,1.252-.543,2.626.505,3.973,0.623,1.7,0.149,3.424.11,5.137,0.1,0.351,0,.7-0.329,1.052-0.32a9.83,9.83,0,0,0,3.718-.884c2.424-.893,4.874-1.775,7.356-2.543A31.007,31.007,0,0,0,158.1,77l-0.747-1.027c-2.315-.037-4.566-0.815-6.936-0.59a4.807,4.807,0,0,1-2.189-.466c-1.427-.6-2.9-0.421-4.515-0.468L143,73.479a6.444,6.444,0,0,1-4.109-.943c-2.379.176-4.3-1.179-6.4-1.945a25.292,25.292,0,0,1-2.537-1.405,20.878,20.878,0,0,1-2.8-1.323,17.773,17.773,0,0,0-2.453-1.626,7.65,7.65,0,0,1-2.248-2.087c-0.868-1.049-1.6-2.208-2.392-3.316-0.134-2.927-1.512-5.706-.973-8.534,0.707-1.289,1.313-2.491,2.013-3.636,0.41-.67.6-1.5,1.639-1.738,0.513-.116.883-0.87,1.4-1.2,3.932-1.933,8.074-3.351,12.319-5.265l1.155,0.408,1.937-1.939,0.19,0.19c0.49-.17.977-0.347,1.47-0.507a10,10,0,0,1,2.37-.7,11.824,11.824,0,0,0,2.727-.9,11.406,11.406,0,0,1,4.88-.945,2.443,2.443,0,0,1,.784.42l0.869-.869h1.07l0.422,1.039,1.485-1.009a1.1,1.1,0,0,0,1.582.212,3.462,3.462,0,0,1,2.633-.734L161.2,33.67a17.119,17.119,0,0,0,3.751-.414c1.011-.252,2.032-0.518,3.051-0.775a16.789,16.789,0,0,1,5.93-.725,1.258,1.258,0,0,1,.568.388l3.446-.728a10.16,10.16,0,0,0,2.2.766c1.216,0.149,2.483-.1,3.637.514,2.289-.343,4.481.593,6.762,0.519a5.543,5.543,0,0,1,2.351.653,3.261,3.261,0,0,1,.816,1.154c2.145,0.555.974-.417,7.413,6.062v5.009l-1.388,1.115a9.928,9.928,0,0,1-2.169,5.084,25.857,25.857,0,0,1-3.388,3.868c-0.929.88-1.277,2.077-2.038,3-0.717.871-2.131,0.848-2.8,1.889-0.369.574-.892,1-1.259,1.627a7.277,7.277,0,0,1-3.463,2.522,5.408,5.408,0,0,0-1.973,1.06,1.741,1.741,0,0,1-.921.024c-0.9,1.83-2.64,2.881-3.849,4.334h-0.807a12.3,12.3,0,0,1-4.437,3.683,19.635,19.635,0,0,0-3.908,2.67,17.858,17.858,0,0,1-3.628,2.3c-0.744.354-1.422,0.847-2.336,1.4h-0.691c-1.84,1.095-3.272,2.088-4.83,2.811a1.825,1.825,0,0,0-1.305,1.379c-1.628.507-2.926,2.019-4.586,1.613-1.078.547-1.919,1.305-2.8,1.357-2.116.125-3.359,1.638-5.106,2.585l0.611,3.095-0.3.131-1.332-1.881c-0.838.157-1.866-.579-2.588,0.58l-2.262-1.515a5.57,5.57,0,0,1-4.412,1.38c-0.76-1.082-1.323-2.423-2.911-2.753L126.589,91l1.182,2.169h1.066l1.969,1.8,0.338-1.713,1.211-.118,1.756,2.132,4.869-1.808,0.3,1,2.478,0.51,1.932-.432,1.075,1.075,0.754-1.056c1.247,0.848,2.232,1.4,3.689.6,0.985-.541,1.974.477,2.928,0.9,1.781-1.009,3.716-.2,5.518-0.526a2.86,2.86,0,0,0,2.524,1c1.417-.141,2.678.492,4.013,0.751a1.977,1.977,0,0,0,.86.194c1.885-.836,3.742.477,5.522-0.055l0.931,0.931c1.191,0.228,2.562.162,3.515,0.761,1.1,0.69,2.437-.366,3.264.746a1.824,1.824,0,0,1,.784-0.41c0.585,0.073,1.145.32,1.726,0.443a12.738,12.738,0,0,1,1.584.238,3.383,3.383,0,0,0,3.308-.232c0.907,0.289,1.639,1.106,2.71.962,0.831,0.984,1.961.225,2.713,0.471l1.72,1.167c2.726,0.838,5.338.468,7.774,1.73,1.228-1.37,2.616.611,4.022-.117l1.246,1.487,3.787,0.69a2.939,2.939,0,0,0,2.669,1.2c1.806-.158,3.238.851,4.889,1.052,0.493,0.769,1.295.358,2.013,0.524l0.241,0.81,3.746,0.821c0.786,0.525,1.744,2.01,3.426.63l3.731,2.5H232.3l0.971,0.971,1.715-.883c0.449,0.545,1.667.342,1.691,1.51a0.864,0.864,0,0,0,.524.308,37.212,37.212,0,0,1,4.628,2.152c0.979,0.434,1.883-.073,3.082.539l1.479,1.152h1.354l4,3.337h2.417l1.53,1.7,2.283,0.753,0.888,1.4h3.435c0.1,0.127.2,0.238,0.276,0.362a2.428,2.428,0,0,0,.6.927c1.117,0.515,1.464,1.982,2.931,2.128a2.264,2.264,0,0,1,2.355,1.823L270,132.092l1.363,2.16,4.976,1.807-0.413,1.44,3.236,2.584,1.6-1.174-0.533,3.658,3.261,1.131c-1.749,2.056.116,4.017-.309,5.9-0.932,1.08-1.246,2.453-2.087,3.514a1.389,1.389,0,0,1-.6.077C279.924,150.453,280.938,147.564,279.785,144.934ZM127.454,61.976a1.447,1.447,0,0,1,.554.009c1.882,1.041,3.57,2.448,5.739,2.948,0.381,0.088.121,0.7,0.763,0.948,2.428,0.952,5.278.546,7.434,2.325a0.872,0.872,0,0,0,.471.009c3.407-.127,6.682.735,9.943,1.5a35.493,35.493,0,0,0,4.37.449c1.828,0.2,3.514-.646,5.136-0.545l1.844-1.652-0.063-1.152a9.385,9.385,0,0,1-7.459-4.315c-0.732-1.78,1.23-3.338-.215-4.812l0.741-1.459h3.077c3.233,1.984,6.844,3.158,8.695,6.8a8.7,8.7,0,0,0,.258.87c0.5,1.3,1.163,2.729.626,3.988-0.478,1.121-.236,2.086-0.461,3.336l3.872-.744,0.76-1.3c0.715-.59,1.832-0.243,2.451-1.026a9.523,9.523,0,0,1,3.73-2.4,7.106,7.106,0,0,1,4.211-3.231,2.179,2.179,0,0,0,1.473-.968c0.328-1.242,1.525-1.416,2.211-2.128l0.189-1.206,2.88-2.062c0.637-.938,1.087-1.718,1.65-2.406,1.035-1.266,2.15-2.466,3.2-3.719a2.611,2.611,0,0,0,.662-1.155c0.232-1.569,1.526-2.558,2.049-4.281V43.064c-1.077-2.636-3.7-2.82-5.046-4.594-0.059-.078-0.338.045-0.46-0.023-1.229-.685-2.574-0.4-3.677-0.47-1.377-.72-2.517-1.6-3.966-0.561a1,1,0,0,1-.906.058c-1.661-1.127-3.727.165-5.377-.934a0.268,0.268,0,0,0-.234,0c-1.542.9-3.229,0.3-4.841,0.471a2.652,2.652,0,0,0-1.162.055c-0.839.819-1.82,0.281-2.718,0.421a10.515,10.515,0,0,1-2.68.518,14.83,14.83,0,0,0-6.322.913,5.481,5.481,0,0,1-2.426.448c-1.157-.156-2.106.422-3.157,0.587a15.366,15.366,0,0,0-3.241,1.377,3.3,3.3,0,0,0-2.974.962h-2.394c-1.591,1.628-4.286,1.033-5.785,2.9a8.1,8.1,0,0,0-3.083.584c-1.562.507-2.822,1.671-4.531,1.853A3.435,3.435,0,0,0,131.6,48.74a8.261,8.261,0,0,1-3.8,1.85c-1.449,1.5-3.166,2.786-3.934,5.443,0.016,0.756-.264,2.2,1.436,2.841v0.758ZM105.3,20.141c-0.52.731-1.015,1.483-1.57,2.186a6.944,6.944,0,0,0-1.147,1.207c-0.655,1.566-2.529,2.3-2.742,4.139-1.2.818-1.537,2.259-2.391,3.319a6.348,6.348,0,0,0-1.5,2.515,9.463,9.463,0,0,1-1.535,2.471,1.2,1.2,0,0,0-.3.584,4.34,4.34,0,0,1-.483,1.967c-0.647,1.8-.5,3.752-0.961,5.595a2.018,2.018,0,0,0,.259.759l1.612-1.208c1.356,1.171,2.606-.132,3.949-0.234a11.355,11.355,0,0,0,4.066-1.53l0.575,0.437a5.02,5.02,0,0,1,4.075-.865l1-1.572,0.736,0.559c1.317-.677,2.51-1.746,4.141-1.565,1.2-.951,2.713-1.17,4.194-1.621a2.751,2.751,0,0,1,2.338-2.188l0.95,0.563a8.861,8.861,0,0,0,1.723-1.213,8.253,8.253,0,0,0,.928-1.834l3,0.322a5.565,5.565,0,0,1,3.16-2.166,1.756,1.756,0,0,0,.956-0.515c0.521-1.509,1.775-1.411,2.683-1.4l2.332-2.726,0.06-.732c0.983-.495,1.766-0.9,2.555-1.285,1.006-.5.462-1.964,1.533-2.421l0.464,0.931c1.211-.011,1.044-1.2,1.608-1.731l-0.251-.251-1.141.484c-0.034-1.078.821-1.346,1.194-1.812l1.707-.15a5.28,5.28,0,0,1,1.546-4.068,4.144,4.144,0,0,0,1.325-3.064,2.486,2.486,0,0,1,.178-0.879A6.879,6.879,0,0,0,145.9,6.1L143.41,4.5a37.57,37.57,0,0,0-4.6-.569,51.906,51.906,0,0,0-5.316.447,36.846,36.846,0,0,0-3.872.505,10.6,10.6,0,0,0-2.009.925c-0.4.182-.85,0.278-1.233,0.492-1.317.736-2.841,0.875-4.192,1.46-1.967.851-3.873,1.855-5.763,2.871a18.652,18.652,0,0,0-2.019,1.5c-0.487.355-1.355,0.624-1.42,1.032a1.471,1.471,0,0,1-1.249,1.109,8.17,8.17,0,0,0-3.246,2.919C108.214,17.584,105.851,19.531,105.3,20.141ZM31.844,58.7l0.57,0.984,1.675-.833V58.2l-1.67-.075Zm32.5-8.56a1.332,1.332,0,0,0-1.939.719A1.552,1.552,0,0,0,64.349,50.145ZM150.778,37.85h1.454l-0.206-1.019Z"/>
    <path class="cls-1" d="M96.949,113.183c0.771-1.207,1.89-.512,2.68-0.853a7.148,7.148,0,0,1,2.913-.432c0.949-.009,1.9,0,2.83,0l0.751-.751,1.438,1.229a2.3,2.3,0,0,1-2.207,1.408c-2.454.1-4.915,0.055-7.372,0.008A2.867,2.867,0,0,1,96.949,113.183Z"/>
    <path class="cls-1" d="M52.512,50.745l0.419,0.92c-1.482.492-2.746,1.512-4.919,0.97C49.908,52.189,51.347,51.851,52.512,50.745Z"/>
    <path class="cls-1" d="M48.293,52.627c-1.071,1.656-2.131,1.008-3.208,1.257C45.834,52.294,46.992,53.113,48.293,52.627Z"/>
    <path class="cls-1" d="M54.336,51.014H55.61l0.023,0.251-1.271.178Z"/>
    <path class="cls-1" d="M42.733,54.416h0.96v0.24h-0.96v-0.24Z"/>
    <path class="cls-1" d="M270.657,130.534h-0.8l-0.037-.228,0.781-.186Z"/>
    <path class="cls-1" d="M31.844,58.7l0.576-.576L34.09,58.2v0.652l-1.675.833Z"/>
    <path class="cls-1" d="M64.349,50.145a1.552,1.552,0,0,1-1.939.719A1.332,1.332,0,0,1,64.349,50.145Z"/>
    <path class="cls-1" d="M150.778,37.85l1.248-1.019,0.206,1.019h-1.454Z"/>
  </g>
</svg>
