<?xml version="1.0" encoding="utf-8"?>
<!-- Generator: Adobe Illustrator 19.0.0, SVG Export Plug-In . SVG Version: 6.00 Build 0)  -->
<svg version="1.1" id="Layer_1" xmlns="http://www.w3.org/2000/svg" xmlns:xlink="http://www.w3.org/1999/xlink" x="0px" y="0px"
	 viewBox="0 0 148 196.3" style="enable-background:new 0 0 148 196.3;" xml:space="preserve">
<style type="text/css">
	.st0{fill-rule:evenodd;clip-rule:evenodd;fill:#FFFFFF;}
	.st1{fill:#FFFFFF;}
</style>
<g id="XMLID_395_">
	<path id="XMLID_659_" class="st0" d="M74.1,98.2c-0.1,0.1-0.1,0.1-0.2,0.2c0-0.1-0.1-0.2-0.2-0.3c0,0,0.1-0.1,0.1-0.1
		c0,0,0.1-0.1,0.1,0C74,98.1,74.1,98.1,74.1,98.2"/>
	<path id="XMLID_658_" class="st0" d="M73.8,97.4c0.1,0.4,0.3,0.9,0.4,1.3l0,0C74.1,98.3,74.2,97.8,73.8,97.4L73.8,97.4z"/>
	<path id="XMLID_657_" class="st0" d="M74,98.2C74,98.1,74,98,74,98.2C73.9,98,74,98.1,74,98.2L74,98.2z"/>
	<path id="XMLID_656_" class="st0" d="M73.9,97.9c0.1,0.1,0.1,0.3,0.2,0.4l0,0C74,98.2,73.9,98.1,73.9,97.9L73.9,97.9z"/>
	<polygon id="XMLID_655_" class="st0" points="74,98.2 74,98.1 74,98.1 	"/>
	<path id="XMLID_654_" class="st1" d="M35.9,38.5c0,0-3.2,2.7-3.3,5.2c0,0,0.3-0.5,1.2-1.3C34.6,41.7,35.6,40.9,35.9,38.5"/>
	<path id="XMLID_653_" class="st1" d="M98.1,41.4c2.5,1.7,4.9,3.4,7.1,5c1.9,1.4,3.4,2.6,4.7,3.6c0.1,0,0.2,0.1,0.3,0.1
		c1,0.6,1.9,1.2,2.9,1.7c1.3-1.4,3.2-4.2,2.9-8.9c-0.1,0-0.3-0.1-0.4-0.1c-2.2-0.7-2.5-2,0.9-0.9c3.4,1.1,5.1,2.2,6.8,5.1
		c0,0,1.6,2.5-0.7,5.5c-0.5,0.9-1.2,1.9-2.2,3c-1.7,1.9,8-3.1,6.2-8.2c-1-2.8-2.6-4.5-4.9-6.3c-0.4-0.3-0.6-1.1-0.8-1.2
		c-0.5-0.4-5.9-3.3-6.7-4.5c0.1-0.1,0.1-0.2,0-0.3c-0.9-0.5-1.9-1.1-3.1-1.7c-0.8,1.7-2.2,3.8-4,3.4c-3-0.7-1.1,0.6-2.7,3.5
		c-1.4,2.5-3.7-5.6-4.4,0.4c-0.1,0.6-1.4-0.2-1.8,0.7C98.2,41.3,98.2,41.4,98.1,41.4"/>
	<path id="XMLID_652_" class="st1" d="M69.4,49.5c-0.2-0.1-0.4-0.1-0.6-0.1c0.8,1.8,1.8,2.8,2.3,3.2c0.2-0.6,0.5-1.1,0.8-1.6
		C71.7,50.6,71,49.9,69.4,49.5"/>
	<path id="XMLID_651_" class="st1" d="M74.9,48L74.9,48c0.3,0.1,0.5,0.4,0.5,0.4c0,0.1,0.6,1.6,0.6,1.8c0,0,0,0,0.1,0
		c0.3-0.3,1.6-1.4,4-2c0.2,0,0.3-0.1,0.5-0.1c0.1-0.8,0.2-3-2.3-4c-1.2-0.5-2.4-0.6-3.5-0.6v4.1C74.7,47.9,74.9,48,74.9,48"/>
	<path id="XMLID_650_" class="st1" d="M80.2,49.3c-0.2,0-0.4,0.1-0.7,0.1c-1.8,0.4-2.4,1.3-2.6,1.7c0.3,0.5,0.6,1,0.8,1.6v0
		C77.7,52.7,79.4,51.2,80.2,49.3"/>
	<path id="XMLID_649_" class="st1" d="M78,56.9L78,56.9c-0.2,1.2-0.6,2.2-1.2,2.9c0,0,0.5,1.1,2.7,1.7c0.2,0,3.1,0.8,4.3-2.2
		c0.4-1,0.6-2.1,0.6-3h-5.5C78.9,56.2,78.1,56.3,78,56.9"/>
	<path id="XMLID_648_" class="st1" d="M77.9,53.7c0.1,0.4,0.1,0.8,0.2,1.2l0,0c0,0.5,0.7,0.5,0.7,0.5h0h5.6c0-1.6-0.4-3-0.6-3.8
		c-0.2-0.6-0.8-2-2.5-2.3C80.3,51.4,78.4,53.2,77.9,53.7"/>
	<path id="XMLID_647_" class="st1" d="M68.8,48.2c2.2,0.5,3.5,1.5,3.9,1.9c0.1-0.2,0.5-1.3,0.6-1.5c0.1-0.2,0.1-0.5,0.5-0.7
		c0,0,0.1-0.1,0.2-0.4c0,0,0,0,0,0v-4c-1.5,0.1-2.7,0.4-3.4,0.6c-0.8,0.3-2.8,1.1-2.3,4C68.5,48.2,68.6,48.2,68.8,48.2"/>
	<path id="XMLID_646_" class="st1" d="M75.2,60c1.2-0.5,2.1-2,2.1-4.2c0-2.2-0.9-4.1-2.2-4.6c-0.4,0-0.4,0.6-0.4,0.6v7.7
		C74.7,59.4,74.8,60.1,75.2,60"/>
	<path id="XMLID_645_" class="st1" d="M69.9,55.4c0,0,0.7-0.1,0.7-0.5v0c0-0.4,0.1-0.8,0.1-1.1c-0.3-0.3-2.2-2.2-3.2-4.3
		c-1.7,0.3-2.3,1.7-2.5,2.3c-0.3,0.8-0.6,2.1-0.6,3.7H69.9L69.9,55.4z"/>
	<path id="XMLID_644_" class="st1" d="M73.3,62.6c-0.1-0.1-0.5-1.5-0.6-1.7c-0.2,0.2-0.7,0.5-1.3,0.9c-0.1,0.3-0.1,0.6-0.1,0.9
		c0,1.7,1.4,2.9,3.1,2.9c1.7,0,3.1-1.2,3.1-2.9c0-0.4-0.1-0.7-0.2-1c-0.6-0.4-1.1-0.7-1.3-0.9c0,0,0,0,0,0s-0.5,1.4-0.6,1.6
		c-0.1,0.2-0.2,0.7-1.1,0.7h0C73.6,63.1,73.4,62.7,73.3,62.6"/>
	<path id="XMLID_643_" class="st1" d="M73.6,60c0.3,0,0.4-0.4,0.4-0.5v-7.8c0-0.1-0.1-0.5-0.4-0.5c-1.2,0.5-2.2,2.4-2.2,4.6
		C71.5,58,72.4,59.5,73.6,60"/>
	<path id="XMLID_642_" class="st1" d="M72,59.9c-0.6-0.8-1.1-1.9-1.3-3.1l0,0c0-0.4-0.6-0.5-0.7-0.5h-5.6c0.1,1,0.2,2,0.6,3.1
		c1.2,3,4.2,2.2,4.3,2.2C71.2,61,71.9,60.1,72,59.9"/>
	<path id="XMLID_641_" class="st1" d="M105.8,89.2C105.8,89.3,105.8,89.1,105.8,89.2"/>
	<polyline id="XMLID_640_" class="st1" points="44,132.7 44,132.7 44,132.7 44,132.7 	"/>
	<path id="XMLID_406_" class="st1" d="M145.5,76.9c-0.6,1.7-1.2,3.8-2,5.4c-1.8,4-8.7,11.6-9.6,2.1c0-6,2-12,4.5-17.2
		c4.2-8.1,9.5-14.9,9.5-14.9c-0.1,0-8,2.9-19.1,2.4c0.3-0.6,0.6-1.2,0.8-2c0,0,2-4.9-2.2-9.5c-0.3-0.4-2.4-2.4-4.7-4.4l-0.8-0.7
		c-2-1.7-3.8-3.2-5.5-4.5c-0.6-0.6-1.4-1.3-1.4-1.3c0.6-0.2,1-0.6,1-1.1c0.2-1.3-1.7-1.8-2.6-2c-1.5-0.4-2.6-1.1-3.9-2
		c0.1-0.3,0.1-0.7-0.1-1c-0.1-0.2-0.2-0.7-0.8-1c-0.2-0.1-0.5-0.1-0.7-0.1c0.1-0.1,0.2-0.3,0.3-0.6c0.1-0.9-0.6-1.2-1.1-1.3
		c-0.6-0.2-1.8-0.7-2.8-1.6l-0.1-0.1c-0.2-0.2-0.5-0.4-0.7-0.5c-0.6-0.5-1.3-1-2-1.4l-0.2-0.2c-0.4-0.4-1.3-1.4-2.4-2.5
		c-2.1-2.1-5.3-5.4-5.9-6.3c-0.2-0.3-0.6-0.8-0.9-1.2L92.1,9c-0.1-0.1-0.2-0.2-0.3-0.2l-0.1-0.1c-0.9-0.6-1.9-1.2-2.9-1.9l-0.4-0.2
		c-0.9-0.4-2.8-1.7-3.8-2.4c-0.6-0.4-0.9-0.6-1-0.7c-1.4-0.7-5.8-2.3-8.1-2.7c-7.8-1.8-9.6,0.2-9.7,0.2c-0.8-0.3-2.3-0.9-4-0.9
		c-1.2,0-2.4,0.3-3.4,0.9c-0.3,0.2-0.7,0.5-1.1,0.8L56.8,2c-1.9,0.6-3.5,2.7-3.9,3.7c-3.6,1.9-7.2,5.4-8.2,8.5
		c-1,0.9-2.1,1.7-2.4,4.7c-0.1,0.5-0.4,1.1-1.1,0.9c0,0-1.2-0.3-1.6-0.6c-9.1-5.7-17.4-3.3-23.3,2.4c-1,0.9-1.5,2.2-0.3,3.6
		c0.1,0.1,0.2,0.2,0.4,0.3c-0.4,0.3-0.9,0.8-1,1.5c-1.4,6.4,6.1,11.3,6.1,11.5c-0.3,2.8,2.5,4.6,4,5c0.2,0.7,0.6,2.2,1,3.5
		c0.8,2.3,2.1,4.4,2.7,5.6c-0.1,0.6-0.2,1.1-0.3,1.6c-13.5,2-28.8-1.7-28.9-1.7c0,0,14.1,16.1,14.1,31.9c-0.9,9.5-7.8,1.9-9.6-2.1
		c-0.8-1.6-1.4-3.7-2-5.4c0,0.1-0.5,0.8-0.6,0.9c0,0,0.2,4.5,0.5,10.5c0,0,0,0,0,0c0.5,10.6,1.1,25.6,1.4,27.4
		c0.1,0.8,0.3,1.7,0.4,2.5c0.3,2,0.5,3.8,1,4.8c5.9,14.7,52.8,57.4,67.1,71.4c0.6,0.6,1.2,1.2,1.8,1.8l0,0l0,0
		c0.6-0.6,1.2-1.2,1.8-1.8c14.3-13.9,61.2-56.7,67.1-71.4c0.4-1,0.7-2.8,1-4.8c0.2-0.9,0.3-1.7,0.4-2.5c0.3-1.9,0.9-16.9,1.4-27.4
		c0,0,0,0,0,0c0.3-6,0.5-10.5,0.5-10.5C146,77.7,145.5,77.1,145.5,76.9 M133.8,66.8c0-0.4,0.6-1.2,0.3-1.3c-0.1-0.1,0.4-4.7,0.8-6.3
		c0.8-0.4,0.3,0,0.3,0.1c-0.5,2-0.6,5.6-1,9c-0.4,1-0.8,2.1-1.1,3.1C133.4,70.2,133.7,68.6,133.8,66.8 M136.2,106
		c0.2-2,0.3-3.9,0.5-5.9c0-0.2,0-0.5,0-0.7c0.1-0.4,0.2-0.4,0.2-0.8c0.1,0,0.2,0,0.3,0c-0.2,4.1-0.6,9.4-1,13.8
		c-0.1-1.2-0.2-2.5-0.2-3.7c0-0.2,0-0.3,0-0.5c-0.6-2.8-1.5-5.1-1.9-5.1c-1.5-0.1-1.5,2.1-1.7,2.7c-0.2,0.6-0.6,1.7-1.7,2.7
		c-4.4,2.9-6.4,20.3-7,26.1c-0.5,0.5-1,1.1-1.6,1.6c0.9-7.2,3.9-24.7,6.8-27.4c0.6-0.5,1.9-1.9,2.2-2.7c0.4-1,0.6-2.1,1-3.1
		c0.2-0.6,0.5-1.3,1.3-1.9c0.9-0.6,1.6,1.3,1.8,1.5c0.4,0.7,0.8,1.4,0.7,2.2C135.8,105.5,136.2,106.3,136.2,106 M130.8,123
		c-0.3,0.6-0.7,1-1,1.9c-0.1,0.4-0.4,1.2-0.7,1.5c-0.2,0-0.2-0.2-0.2-0.5c0.4-1.3,0.7-2.5,0.7-3.3c0-2.9,0.4-1.5,0.9-1.3
		c0.5,0.2,1.1-2.5,2.1-3.3c1-0.8,1.7-2.9,2.5-2.1c0.2,0.2,0.4,0.8,0.5,1.5c-0.1,0.6-0.2,1.1-0.3,1.6c-0.1-0.5-0.3-0.9-0.6-1
		C133.3,117.5,131.5,121.7,130.8,123 M131.9,125.1L131.9,125.1L131.9,125.1L131.9,125.1z M133.2,111.8c-1.9,0-6.5,15.4-8.2,21.3
		c-0.4,0.5-0.9,1-1.4,1.4c2.6-8.9,7.9-26.2,10.1-24.6c0.4,0.3,1.7,2.2,2.3,3.5c0,0.2,0,0.4-0.1,0.6
		C135.2,113.1,133.7,111.6,133.2,111.8 M128.3,129.5c-0.4,0.4-0.7,0.8-1.1,1.2c0.2-0.5,0.3-1,0.5-1.2c0.6-0.4,0.5-1.4,0.9-2.2
		C128.9,126.9,128.6,128.4,128.3,129.5 M124.6,127c0-0.1,0-0.2,0-0.2l0,0C124.6,126.9,124.6,127,124.6,127 M128.8,114
		C128.9,113.9,128.9,113.9,128.8,114c0.1-0.1,0.1-0.1,0.1,0C129,113.9,128.9,114,128.8,114C128.9,114,128.9,114,128.8,114
		 M121.1,118.2c0.2-1.6,0.3-5.2,0.5-6.8c0.2-1.6,0.2-3,0.3-4.6c0.1-1.6-0.5-15.2-0.3-16.9c0.2-1.6-0.3-3.1,0.1-4.9
		c1.6,3.9,0.6,43.2-2.4,51.4C119.5,134.9,120.9,119.8,121.1,118.2 M119.9,78.4L119.9,78.4c0.1-0.2,0.1-0.3,0.1-0.4l0,0
		C119.9,78.1,119.9,78.3,119.9,78.4L119.9,78.4z M122.3,113.9c0-0.2,0-0.4,0.1-0.7C122.9,113.5,122.9,113.7,122.3,113.9
		 M122.5,125.3c0.2,0.8,0.2,1.7-0.3,2.5c-0.1-0.9-0.2-1.8-0.4-2.9C122.2,125.2,122.5,125.2,122.5,125.3 M125,62.1
		c0-0.1,0-0.3-0.1-0.4c0,0,0,0,0-0.1l0,0c0,0,0,0.1,0,0.1c0.1,0.1,0.1,0.2,0.2,0.3C125.1,62,125.1,62,125,62.1 M125.2,92.4
		C125.3,92.4,125.3,92.5,125.2,92.4c0,0.1,0,0.1-0.1,0.1c0,0,0,0-0.1-0.1C125.2,92.4,125.2,92.4,125.2,92.4 M125,102.1
		c0.1,0.1,0.1,0.2,0.2,0.3c-0.1,0-0.1,0.1-0.2,0.1c0.1,1.7,0.1,3,0.1,3.5c0,1.8,0,5.7-0.7,7.9c-0.1,0.1-0.2-2-0.4-1.9
		c0.1-0.9,0.2-2,0.3-3.4c0.3-3.6-0.6-25.5-1-29.5C123.5,79.4,124.6,94.6,125,102.1 M125.6,105.3L125.6,105.3L125.6,105.3
		L125.6,105.3z M127.4,106.2C127.4,106.2,127.4,106.2,127.4,106.2L127.4,106.2C127.4,106.2,127.4,106.2,127.4,106.2
		c0.4,0.5,0.2,1,0.1,1.6C126.6,107.3,127.2,106.7,127.4,106.2 M126.9,98.1c0-0.2-0.1-0.4-0.1-0.6c0.1,0,0.2,0,0.3,0
		c0,0.2,0,0.4,0,0.6C127,98.1,127,98.1,126.9,98.1 M127.7,99.9c0.1,0.2,0.1,0.4,0.2,0.6c0,0,0,0,0,0l0,0c0,0,0,0,0,0
		C127.2,100.6,127.4,100.2,127.7,99.9 M127.5,67.6C127.5,67.6,127.5,67.6,127.5,67.6c-0.4-0.5-1-1.9-1-2.6c0,0,0,0,0,0l0,0
		c0,0,0,0,0,0.1c0.1,0.2,0.3,0.3,0.4,0.5C127.1,66.2,127.3,66.9,127.5,67.6C127.5,67.6,127.5,67.6,127.5,67.6L127.5,67.6z M126.5,61
		c-0.1-0.4-0.2-0.8-0.3-1.2c0,0,0-0.1-0.1-0.1l0,0c0,0,0,0.1,0,0.1c0.7,1.3,0.9,1.9,0.9,2.5C126.9,61.8,126.7,61.4,126.5,61
		 M128.4,90.2c0.3,0.5,1.4,6.8,1.4,9.6c0,1.8,0,4.2-1,5.8c-0.1,0.1-0.3,0.1-0.4,0.2c0.1-0.9,0.6-2.4,0.7-3.8
		C129.4,98.3,128.8,94.2,128.4,90.2 M130.2,96.6v-0.1c0,0,0.1,0,0.1,0C130.3,96.6,130.2,96.6,130.2,96.6 M132,102.1L132,102.1
		L132,102.1L132,102.1z M131.8,99.5c0-0.1-0.1-0.2-0.1-0.2c0.1,0,0.1-0.1,0.2,0c0,0,0.1,0.1,0.1,0.2
		C131.9,99.4,131.9,99.4,131.8,99.5 M130.6,75.1c-0.1-0.1-0.2-0.3-0.3-0.4c-1-1.6-1.1-3.5-1.7-5.2c0.4,0.8,0.9,1.9,1.2,2.7
		c0.3,0.7,0.9,2,1.6,2.2c0.5,0.1,0.9-0.5,1.3-1.5c-0.3,0.9-0.5,1.8-0.7,2.7C131.5,75.8,131,75.6,130.6,75.1 M132.4,59.2
		c-0.1,1-0.6,11.4-3.2,7.1c-0.5-1.2-1.2-2-1.7-3.1c0.1,0,0.1-0.1,0.2-0.1c0.4,0.5,0.7,1.3,1.1,1.8c0.4,0.6,0.5,1.4,1.6,1.5
		C131.6,66.3,132,58.4,132.4,59.2 M128.8,60.2c0.7,0.6,1.1-0.7,1.4-2c0.1,0,0.1,0,0.2,0c-0.1,0.7-0.2,1.3-0.3,2
		c-0.1,0.8-1.1,0.8-1.7,0.3c-0.4-0.4-0.7-0.7-1-1.2c-0.2-0.4-0.4-0.8-0.6-1.2c0.1,0,0.3,0,0.4,0C127.7,58.7,127.8,59.3,128.8,60.2
		 M28.1,46c-0.7-1.9-1.2-3.8-1.2-3.8c-1.9-0.2-2.7-1.5-2.7-1.5c-1-1.2-1.1-2.6-1.1-3.4c0-0.4-1.4-1.3-2.8-2.5
		c-1.4-1.2-2.6-3.1-3.1-4.2c-0.6-1.4-0.7-3.7,0.3-4c0.8-0.2,0.7,0.4,2,2c1.1,1.3,2.9,1.2,4.1,1c1.1-0.2,1.9-0.7,2.4-1.5
		c0.8-1.2,1.6-2,2.1-2.4c0.1-0.1,0.1-0.3-0.1-0.5c-1.1-0.9-5.1-2.7-9.5-0.7c-0.7,0.3-1.2-0.1-1.5-0.3c-0.4-0.4-0.5-1.4,0.4-2.1
		c9.5-7.9,17.9-4.4,22.3-1.6c0.5,0.3,1,0.6,1.9,0.7c1.2,0.3,2.1-0.3,2.3-1.6c0.4-3.3,0.9-4.3,1.7-5c-0.3,0,1.2-2.8,2.4-2.9
		c-0.8,1.2-1.8,4-1.9,5.4c0,0.1,0.3,0.6,0.8,0.1c0.4-0.3,4-9.8,12.3-11.2c0.9,0-0.8,0.6-1.2,0.8c-3.7,2.7-4.9,3.9-6.2,7
		c-0.1,0.3,0.1,0.3,0.2,0c0.7-1.2,4.8-6,11.4-6.1c0.1,0.5-2,0.4-6,3.4c-0.8,0.6-0.8,0.9-0.5,0.7c1.6-0.7,4.8-0.7,3.8-0.5
		c-1,0.2-3.2,1.3-4.4,2.8c-4.7,5.4-7.2,5.4-7.7,5.7c0.2,0.4,2.6-0.2,3.8-0.9c2.5-1.4,4-3.3,4-3.3c0.1-0.1,0.3-0.2,0.4-0.3
		c0.5,0.1,0.3,0.6,0.5,0.8c0.1,0.2,0.3,0.2,0.6,0.1c0.1-0.1,0.2-0.2,0.4-0.3c0.2-0.3,0.4-0.9,0.6-1.2c0.6-1.2,4.1-2.4,7.2-2.6
		c0.9,0,1.2,0.2-0.3,0.6c-1.7,0.5-3.7,1.2-4.3,1.8c-0.2,0.2,0.1,0.1,0.3,0.1c1.3-0.2,2.6-0.2,1.5,0.3c-0.4,0.3-5.4,2.3-6.8,3.5
		c-1.4,1.2-1.3,1.6-0.6,1c2.8-2.2,7.1-3.2,7.7-3.2c0.4,0,1.6-0.3,1.9-0.4c6.8-2,15.2,0.3,14.5,1.5c-8.4-1.7-12.6,0.3-12.8,0.6
		c-0.5,0.6,3.8-1.7,8.9,0.4c0.4,0.2-3,0-2.7,0.7c0.8-0.1,2.2-0.1,3.7,0.3c2,0.4,3,0.8,6,2.4c1.3,0.7,2.5,1.9,3.6,2.8
		c-0.7-1.4-3.9-3.8-5.8-4.7c1.8-0.3,2.9,0.6,3.1,0.5c0.3-0.1,0.1-0.1,0-0.4c-0.1-0.2-0.6-1-1.5-1.3c1.6-0.4,3.6,0.8,4.5,1.2
		c0.9,0.4-0.9-1.2-2.1-1.9c0-0.2,0-0.4,0.1-0.6c-3.3-2.6-12.5-3.6-11.1-3.7c5.6-0.5,11.4,2,13.3,3.1c0.2,0.1,0.4,0.3,0.6,0.5
		c1,0.6,1.7,1,0.9-0.5c3.5,0.5,9.6,6.8,8.9,5.2c-0.5-1.2-6.4-5.3-9.8-6.6c-4.7-1.8-10.3-3.1-15.7-3.2c-0.9,0,0.1-0.6,0.8-0.7
		c7.9-0.9,15.1,2.7,15.1,2.5c-0.4-1.7-12-5.5-23.3-4.1c-0.1,0-0.3,0-0.4-0.1c0,0,0.3-0.2,0.6-0.3c2.9-1.3,10.5-0.8,10.4-0.9
		C75.1,8,72,7.8,73.5,7.4c3.4-0.5,10.3,1,14,2.9c2.3,1.2,0.5-0.2-0.6-0.9c-1.2-0.7-2.7-1.4-4.2-1.8c-0.6-0.2-1.1-0.3-1.7-0.5
		c-0.1-0.1-0.2-0.3-0.4-0.4c-0.7-0.1-1.4-0.3-2.2-0.3c-0.5-0.1-0.9-0.1-1.4-0.1c-1.3-0.1-5.5-0.7-11.7,0.3c0.1,0,0.1-0.1,0.2-0.2
		c0.5-0.3,1.9-1.6,7-1.4c0.6,0,1.2,0.2,1.9,0c0.7-0.2,1.4-0.1,2.1,0c0.3,0.1,0.6,0.1,0.9,0.1c0.1,0,0.2-0.1,0.3-0.1
		c-0.9-0.7-3.3-1.5-7.2-1.6c-2.4,0.1-4.6,0.8-5,0.9c-0.4-0.1-2.2-0.9-2.7-1c-2.8-0.2-5.9,1.4-8.8,2.8C54,5.5,55.7,4,57.5,3.4
		c0.5-0.4,1.1-0.8,1.6-1.1c3.2-1.9,6.7,0.3,7.1,0.3C68.1,1,73.3,2,74.8,2.3c1.5,0.3,6.8,1.5,8,2.2c0.4,0.2,3.5,2.5,4.9,3.1
		c0.1,0.1,0.2,0.1,0.2,0.2c1,0.6,1.9,1.2,2.9,1.8c0.1,0.1,0.3,0.2,0.5,0.4c0.3,0.3,0.7,0.8,0.9,1.1c1,1.5,7.2,7.6,8.4,8.9
		c0.1,0.1,0.2,0.2,0.3,0.4c1,0.5,1.8,1.2,2.7,1.9c1.2,1,2.4,1.5,3.1,1.8c0.4,0.2,0.5,0.2,0.5,0.3c0,0.1-0.1,0.1-0.4,0.1
		c-0.1,0-0.3,0-0.5,0c-0.6-0.1-1.4-0.3-2.1-0.6c0.2,0.2,0.3,0.4,0.5,0.5c0,0,0.2,0.3,0.4,0.5c0.3,0.3,0.5,0.5,0.7,0.7
		c0.3,0.2,0.5,0.3,0.8,0.5c0.4,0.2,0.8,0,1.1-0.1c0.2-0.1,0.4-0.1,0.6-0.1c0.1,0.1,0.2,0.2,0.3,0.4c0.1,0.4,0,0.7-0.3,1
		c1.5,1.1,2.9,2.2,4.8,2.7c2.9,0.7,1.9,1.4,0.4,1.3c-1.5-0.1-0.4,0.5,0.8,1.6c0.3,0.2,0.7,0.7,1.3,1.3c1.8,1.4,3.7,3,5.4,4.4
		c0.3,0.2,0.5,0.5,0.8,0.7c2.5,2.2,4.3,4,4.5,4.3c2.6,3.4,2.3,4.6,1.5,8c-3.4,7.1-6.2,6.7-7.6,10.6c-0.8,2.1,0.1,4.4-0.5,6.4
		c-0.6,1.9-0.5-0.6-1.6-1.8c-0.2,7.6-5.7,7-6,6.4c-0.2-0.6,0.5-0.5,0.5-0.5c2.1-0.8,2.6-2.6,1.7-6.2c-0.4-1.3-0.8-2.5-0.9-3.7l0,0.1
		c-1,0.5-1.7,2-1.9,1.3c-1-3.7,1.4-7,1.4-7l-1.5,0.8c0-1,0.6-2,1.6-2.9c-0.3-0.2-0.6-0.3-0.9-0.5c-1.3-2.2-8-6.4-10.9-8.2
		c-5.4-3.5-9.5-7.4-16.3-9.4c-1-0.4-2-0.8-2.8-1c-0.5-0.1-1-0.3-1.5-0.4c-0.4-0.1-0.8-0.2-1.3-0.3c-0.1,0-0.2,0-0.3-0.1
		c-0.1,0-0.2,0-0.2,0c-1.4-0.2-2.8-0.3-4.1-0.3c-4,0-7.8,1-11.4,2.6c-4.7,2-7.9,5.1-9.9,8.1c-2.3,3.1-4,6.8-4.6,10.9
		c-0.2,1-0.2,2,0,2.9c-0.7-0.1-1.3-0.3-1.3-0.3s0.5,1.3,0.4,1.8c-0.1,0.4-0.5,0.6-0.6,0.1c-0.2-0.5-0.5-0.5-0.5-0.5
		c0.9,1.6,0.5,2.5,0.5,2.5s0.4,0,0.7,0.9c0.3,0.9,1.2,2.7,0.3,3.3c-1,0.6-0.9-0.4-0.8-0.7c0.1-0.2-0.1-0.5-1.1-2.1
		c-1-1.6-2.3-2-2.3-2c0.8,1,1.1,2.1,2,4.2c0.8,2.1,0.3,2.9,0.3,2.9s0.4,1.4,0.8,3.3c0.4,1.9-0.5,2-1,1.8c-0.5-0.2-0.7-0.5-0.3-0.7
		c0.3-0.3,0.1-1.1-0.4-2c-0.4-0.9-1.8-2.2-1.8-2.2s-0.2-0.1-1.6-1.1c-2.6-1.9-3.5-1.9-4.8-2.8c-1.3-0.9-4.4-2.8-5.1-6.6
		c-0.7-3.8,0.7-6.1,1.1-6.7c0.3-0.6,0.4-0.5,0.9-0.4c0.6,0.1,0-0.7-0.2-1.2c-0.2-0.6-0.7-0.6-1.4,0.1c-0.7,0.7-1.6,0.7-2.3-0.2
		C29.7,49.7,28.8,47.9,28.1,46 M18.5,25.8C18.6,25.8,18.6,25.8,18.5,25.8c1.3-0.5,2.5-1,3.8-1c1.8,0,3.4,0.4,4.3,0.8
		c-0.5,0.5-1,1.1-1.6,2c-0.4,0.6-1,1-1.8,1.1c-1.6,0.3-2.5-0.1-3.1-0.8c-0.4-0.5-1.2-1.5-1.4-1.8C18.7,26.1,18.6,26,18.5,25.8
		 M118.9,119.6C118.9,119.6,118.9,119.6,118.9,119.6c-0.1,0.1-0.1,0.1-0.1,0.1C118.8,119.6,118.8,119.5,118.9,119.6
		C118.9,119.5,118.9,119.6,118.9,119.6 M117.6,140.6c-1,0.9-1.9,1.9-2.5,2.5c0-0.7,0-1.4,0-2.1c-0.1-1.7-0.2-3.4-0.3-5.1
		c0-0.8,0.1-1.5,0.2-2.3c0.1-1-0.3-15.7-0.3-15.7c-0.1-0.2,0-13.3,0.3-13.9c0.2,0.8,0.4,1.5,0.4,2.1c0,1.2,0.2,2.4,0,3.6
		c-0.2,0.9,0.1,1.9,0.1,2.8c0,1.9-0.1,3.8,0,5.7c0.1,1.2,0.1,13,0.2,15.2c0.1,1,0,1.9-0.1,2.8c-0.1,1.8,0.5,3.4,0.8,5.1
		c0,0.1,0,0.1,0,0.2c0.1-0.4,0.1-0.8,0.2-1.2c0.1-1.2,0.2-2.5,0.3-3.7c0.1-1.3,0.1-2.6,0.2-3.9c0.1-1.9,1.1-12.1,0.9-13.8
		c-0.1-1.6,0.1-8.7,0.2-8.9c0.9,0.9,0.5,11,0.4,13.4C118.4,124.1,117.4,137.8,117.6,140.6 M112.9,96.3c-0.2-2.3-0.4-10.2-0.4-11
		c0.2-1.2-0.2-2.3,0.2-1.8c1.3,1.8,0.3,9.7,0.6,12.7c0.1,0.3,0.4,0.7,0.3,1c-0.3,0.9,1.2,3.3,1.2,4.1
		C114.8,102.1,113.1,99.1,112.9,96.3 M114.4,129.3L114.4,129.3c-0.1,0-0.2,0-0.3,0l0,0H114.4z M113.5,126.6
		c-0.2-1.5-0.2-1.9,0.5-2.5v3.1C113.8,126.8,113.6,126.7,113.5,126.6 M113.3,128.8c0.1-0.4,0.2-0.6,0.3-1
		C113.9,128.5,113.9,128.5,113.3,128.8 M110.9,135.2c-0.1-2.1-0.7-3.9-0.7-6c0-2.1-0.1-4.1-0.1-6.2c0-2.1-0.1-4.1-0.1-6.2
		c0-0.6,0-1.2,0.6-1.7c0.2,0.4,0.2,1.5,0,2.1c-0.2,0.6,0.4,14.3,1,15c0.4-1.9-0.4-17.2,0.4-19.1c0.1,1.3,0.2,2.3,0.2,3.2
		c0,0.8,0.2,14.7,0.1,16.4l0,0l0,0c0,0.1,0,0.1,0,0.2c-0.1,0-0.9,7.4-0.4,9.9c0,0,0.2,1.7,1,2.4c-0.5,0.5-1.1,1-1.8,1.6
		c-0.2-1.4-0.4-6.1-0.2-8C110.9,138,111,136.1,110.9,135.2 M109.4,89.3c0-0.6,0.1-1.1,0.1-1.6c0-0.2,0.3-0.4,0.4-0.6
		c0,2.4-0.1,4.9-0.1,7.3c0,2.2,0.2,2.8,0.3,4.9c-0.4-0.1-1.1-2.3-1-4.2c0.1-1.3,0.1-2.6,0.2-4c0-0.4,0-0.8,0.1-1.3
		C109.3,89.6,109.2,89.5,109.4,89.3 M110,84.8C110,84.7,110,84.7,110,84.8c-0.1-0.2-0.1-0.3-0.2-0.4c0,0,0.1,0,0.1,0
		C109.9,84.5,109.9,84.6,110,84.8C110,84.7,110,84.7,110,84.8c0,0.1,0,0.2,0,0.3l-0.1,0l0,0C110,85,110,84.9,110,84.8 M112.6,137.4
		c0,0.1,0,0.2,0.1,0.2c-0.1,0-0.1,0-0.2,0c0-0.1-0.1-0.2,0-0.2C112.4,137.4,112.5,137.4,112.6,137.4 M112.5,111.6
		c0.1-0.2,0.1-0.3,0.2-0.5c0.1,0,0.1,0,0.2,0.1c-0.1,0.2-0.1,0.3-0.2,0.5C112.6,111.6,112.5,111.6,112.5,111.6 M112.5,141.2
		C112.5,141.2,112.5,141.2,112.5,141.2l-0.1,0C112.5,141.2,112.5,141.2,112.5,141.2 M112.9,80.1L112.9,80.1L112.9,80.1L112.9,80.1z
		 M114,80.3C114,80.3,114,80.4,114,80.3c0.1,0.2,0.3,0.3,0.4,0.4c-0.1,0-0.1,0.1-0.2,0.1C114.1,80.7,114,80.6,114,80.3
		C114,80.4,114,80.4,114,80.3L114,80.3L114,80.3z M113.9,78.5h0.1v0.3h-0.1V78.5z M114,82.4L114,82.4L114,82.4L114,82.4z
		 M117.9,94.6c-0.1-1.2,0-11,0.1-12.2c0.1-0.9,0.2-1.9,0.2-2.8c0.2,0.4,0.3,13.8,0.2,15.3c-0.1,1.2,0,2.4-0.1,3.6
		c-0.1,1.8-0.1,3.6-0.2,5.4c0,0.5,0,1,0,1.5c-0.6-0.7-0.8-1.6-0.7-2.9C117.8,100,118.1,97.3,117.9,94.6 M117.5,106
		c0,0.4,0,2.1,0,2.4c0,0-0.1,0.8-0.1,0.8c0-0.4-0.1-1-0.1-1.5C117.4,107.3,117.5,106,117.5,106 M117.6,109.4L117.6,109.4
		L117.6,109.4L117.6,109.4z M108.1,136c0,1.7-0.3,3.6-0.4,5.2c-0.2,2.6,0.7,5.4,0.7,7.9c-0.5,0.4-0.9,0.8-1.4,1.2
		c-0.1-1.1-0.1-2.3-0.1-3c0-0.3,0.2-0.5,0.3-0.8c-0.6-1.1-0.3-2.4-0.2-3.6c0-0.3,0.1-0.5,0.1-0.8c0-0.9-0.2-1.7-0.1-2.6
		c0.4-3.2,0.5-6.4,0.5-9.7c0-0.7,0-1.5,0-2.2c0-0.4,0.6-5.6,0.9-5.8c0.1,2-0.4,7.4-0.4,9.4C108,132.9,108.1,134.5,108.1,136
		 M106.2,115.9c0,0.1,0.1,0.1,0.1,0.2c-0.1,0.1-0.2,0.1-0.3,0.2c0,0-0.1-0.1-0.1-0.2C106,116,106.1,115.9,106.2,115.9 M105.9,115.2
		v-1.8C106.3,114.1,106.3,114.1,105.9,115.2 M98.2,126.1c-2.6,2.8-5.8,5.1-9.2,6.9v2.7c-0.1,0-0.2,0-0.3,0c-0.1-0.8-0.2-1.6-0.1-2.5
		c-1.8,0.9-3.6,1.7-5.4,2.4c-0.4,0.3-0.8,0.6-1.1,0.9c0,0,0,0,0,0.1l0,0c0,0,0,0,0,0c0-0.2,0-0.3,0-0.5c-3.7,1.3-7.3,2-10.1,2.3
		c-7.2,0.8-14.7-0.7-23.1-8c-8.3-7.4-5.7-19.3-2.8-23.3c4.2-5.6,5.6-5.7,5.6-5.7s-7.5,6.1-7.1,13.8c0.4,7.7,4,12,6.1,14
		c0,0,6.4-3.4,6.4-13.8v-14.1c-0.2-1.6-1.3-2.8-2.5-2.9h-0.1v-0.5h0.3c1.1-0.2,2.1-1.4,2.3-2.9V80.1c0,0-4.6,2.8-10.7,2.2
		c-6-0.6-1.7-3.2-1.7-3.2s-4.3,3.5,4.6,2.6c8.9-0.9,16.4-13.2,17.1-14.4v27.9c0.3,1.4,1.2,2.4,2.2,2.5H69v0.5h-0.1
		c-1.1,0.1-2.1,1.1-2.4,2.6v4.9c0,2.8,0.5,9.2,3.2,10.3c0.9,0.4,2,0.6,3.2,0.8v-10.4c-0.4-0.2-0.6-0.2-1.1-0.4
		c0.5-0.1,0.7-0.2,0.9-0.2c0,0,0,0,0,0c0,0,0,0,0.1,0c0.1-0.1,0-0.1,0,0c0,0,0,0,0,0.1c0,0,0,0,0,0c0,0.1,0.1,0.3,0.2,0.6V94.2
		c1.2-1.2,2-1.7,3.2-2.3l0.1,25c1.1-0.2,2.1-0.5,2.5-1.1c1.2-1.7,0.1-3.1,0.1-3.1s2.9,1.9,1,4.7c-0.8,1.1-2,2-3.5,2.6l0,12.2
		c-1.1,0.4-2.2,0.7-3.3,1v-12.4c-3.2,0.4-6.8-0.3-9.3-2.2c0,0-4.6,6.7-11.3,11.9c0,0,6.6,6.3,17.9,4.8v-0.2
		c-0.1-0.4-0.1-0.8-0.2-1.2c0.1,0,0.1,0,0.2,0v1.2c0,0.1,0,0.1,0,0.2c2.2-0.3,4.5-0.8,7-1.8c15.5-5.9,14.6-18.7,14.1-20.5
		c-0.5-1.8-0.7-2.4-2.1-2.8c0,0,2.7-0.6,4.6,3.8c0,0,4.3-9.9-0.7-18.4c-3.6-6.1-8.5-7.9-13.4-6.6c-4.8,1.4-8.3,3.8-9.8,6
		c0,0,0.3-2.4,3-6.2v-9.2c0-0.8,3.2-2.7,3.2-2.7V85c5.2-5.5,7.2-9.8,7.3-12.6c0,0-1,0.1-2.6,0.6c0,0.6-0.2,1.1-0.3,1.6
		c-0.4-0.4-0.6-0.9-0.5-1.4c-3,1-7.6,3-11.2,7.1c0,0-0.2-2.2,4.7-6.7c4.8-4.5,9.3-4,13.1-8.8c3.8-4.7,4.9-8.1,4.6-9.9
		c0,0,4.4,5.4,1.7,13.9c-2.6,8.4-7.3,11.9-9.1,13.4c-1.8,1.5-5.2,4.4-6.7,5.4c0,0,9.6-4.8,18.6-0.9
		C107.3,92.4,112.4,111.9,98.2,126.1 M104.6,147.6c0.1,1.2,0.2,3.1,0.1,4.6c-1.4,1.2-3,2.5-4.5,3.8c0.1-0.1,0.1-0.2,0.1-0.3
		c0.1-1.5,0-16.9-0.2-18.4c-0.1-1.2-0.1-4,0-5.1c0.4-0.3,0.3,2.3,0.3,3.1c0,1.9,0.6,10.1,0.5,10.7c0,0.5,0,5.6,0.6,6
		c0.2-1,0.5-1.4,0.7-2.7c0.4-2.9,0.7-6.8,1-7.2c0.5,1-0.5,9.1-0.2,10.3c0.5-0.5,0.7-1,0.7-1.6c0.1-1.2,0.5-9.5,0.5-10.8
		c0-1.4-0.1-2.9-0.1-4.3c0-0.7,0-1.5,0.5-2.3C104.9,133.9,104.6,147.2,104.6,147.6 M102.2,137.6L102.2,137.6L102.2,137.6
		L102.2,137.6z M103.3,138.9c-0.2,1.1-0.1,0-0.2,0c0-0.7-0.2-4.4-0.3-5.1C103.1,134.1,103.4,137.8,103.3,138.9 M103.4,140.2
		c0,0.3,0,1.1-0.1,1.3c-0.1,0.2-0.1-1.1-0.1-1.3C103.3,140,103.4,140.2,103.4,140.2 M103.9,122.8c0-0.1,0-0.3,0-0.4
		c0.1,0,0.2,0,0.2,0.1c0,0.1-0.1,0.3-0.1,0.4C104,122.8,103.9,122.8,103.9,122.8 M98.1,141.6c0-1.2-0.2-2.4-0.2-3.6
		c0-1,0.5-3.5,0.8-3.6c-0.9,3.9,0.3,21.1,0.4,22.2c0,0.1,0,0.2,0.1,0.3c-0.4,0.3-0.8,0.7-1.2,1c-0.1-1.8,0-4.6,0-5.1
		C98,150.7,98.1,143.6,98.1,141.6 M93.9,159.8c0.2-0.1,0-1.7,0.2-1.8c0.1,0.6,0.5,1.2,0.8,1.8c-0.1-4.4,0.1-16.8,0.4-16.7
		c-0.2,1.8,0.6,11.7,0.7,16.4c-0.6,0.5-1.3,1-1.9,1.5c0,0,0,0,0,0C93.9,160.2,94.1,160.7,93.9,159.8 M94.5,129.8L94.5,129.8
		L94.5,129.8L94.5,129.8z M93.7,161.4c-0.5,0.4-0.9,0.7-1.4,1.1c-0.3-4.1-0.7-15.2-0.7-16.4c-0.1-1.9-0.3-3.7-0.4-5.6
		c0-0.7-0.1-1.4-0.1-2.1c0.2-0.1,0.6,3.1,0.6,4.3c0.1,2.2,0.7,8.1,0.8,10.3c0,0.2,0.3,4.4,0.8,7.6C93.5,161.1,93.6,161.3,93.7,161.4
		 M89.8,149.5C89.8,149.6,89.8,149.7,89.8,149.5L89.8,149.5c0-0.1,0-0.2,0-0.1C89.9,149.4,89.9,149.5,89.8,149.5 M89,150.4L89,150.4
		L89,150.4C89,150.5,89,150.4,89,150.4c-0.1-0.4-0.1-0.8-0.2-1.2C89.5,149.6,89.3,150,89,150.4C89,150.4,89,150.4,89,150.4
		 M88.9,148.4c0.3-1.3-0.1-2.9,0-2.8C89.1,145.6,89.5,147.4,88.9,148.4 M89,144.8c0,0,0.1,0,0.1,0.1C89,144.9,89,144.9,89,144.8
		C89,144.9,89,144.9,89,144.8 M89.1,144.1c0,0.1-0.1,0.1-0.2,0.1c0-0.3,0-0.6-0.1-0.9c-0.1-0.3,0.1,0,0.2,0
		C89.1,143.6,89.1,144,89.1,144.1 M88.9,160.2c0-0.4,0-3,0.1-3.8c0-0.4-0.4-4.3,0.3-4.6c0.2,0.5,0.3,6.6,0,6.7
		c0.2,0.4,0.2,4,0.3,6.3c-0.3,0.3-0.7,0.5-1,0.8C89,163.4,88.8,160.6,88.9,160.2 M85.5,154.1c-0.1-1.4-0.2-2.8-0.3-4.3
		c0-0.1,0-0.2,0-0.3c0-1.6,0-3.1,0-4.7c0-0.1,0-0.2,0-0.4c0.1,0,0.2,0,0.2,0.1c0.2,1.7,0.7,3.4,0.5,5.1c-0.1,1.1,0,2.3,0.1,3.4
		c0,0.4,0.5,5,0.6,9.1c0,0.5-0.3,0.8-0.3,1.3c0.1,2.8,1.1,1.6,1.8,2.5c-0.9,0.8-1.9,1.5-2.8,2.2C86.3,165.2,85.5,154.6,85.5,154.1
		 M83.5,151.1c-0.1,0.5-0.2,1-0.3,1.5h-0.1v-1.5C83.3,151.1,83.4,151.1,83.5,151.1 M83.2,150.2v-0.9c0.1,0,0.1,0,0.2,0
		c0,0.3,0,0.6,0.1,0.9C83.4,150.2,83.3,150.2,83.2,150.2 M83.3,160.7L83.3,160.7C83.3,160.7,83.3,160.7,83.3,160.7
		c-0.1-0.4-0.1-0.8-0.2-1.2C83.7,159.9,83.5,160.3,83.3,160.7C83.3,160.7,83.3,160.7,83.3,160.7 M83.2,158.6v-2.8
		C83.5,156.7,83.8,157.7,83.2,158.6 M83.2,155.1c0,0,0.1,0,0.1,0.1C83.3,155.2,83.3,155.2,83.2,155.1
		C83.3,155.1,83.2,155.1,83.2,155.1 M83.3,153.6c0.1,0.3,0.1,0.6,0.2,0.9c-0.1,0-0.2,0-0.3,0c0-0.3-0.1-0.6-0.1-0.9
		C83.2,153.6,83.2,153.6,83.3,153.6 M83.4,168l0-1.8l0-4.7l0.2,0.5l0.3,1.4c0,0-0.5,4.4,1.1,4.8c0.1,0,0.2,0,0.3,0
		c-1,0.8-1.9,1.5-2.8,2.3C83.6,169.2,83.4,168,83.4,168 M83.9,158.3v-0.5c0,0,0.1,0,0.1,0L83.9,158.3
		C84,158.3,83.9,158.3,83.9,158.3 M84.1,159.8L84.1,159.8c0-0.1,0.1-0.2,0-0.2C84.1,159.6,84.1,159.7,84.1,159.8
		C84.1,159.9,84,159.9,84.1,159.8 M79.4,159.1c0,0.9,0.7,10.2,0.4,13.5c-0.2,0.1-0.3,0.3-0.5,0.4C79.4,170.2,79.1,160,79.4,159.1
		 M79.9,145.1c0,1.8,0.5,3.6,0,5.5C79.5,149.7,79.5,148.4,79.9,145.1 M78.5,148.5c0-0.1,0-0.2,0-0.3c0.1,0,0.1,0.1,0.2,0.1
		C78.6,148.3,78.6,148.4,78.5,148.5 M78.5,150.5c0,0.1-0.1,0.2-0.3,0.4c0-0.4,0.1-0.6,0.1-0.7c0.1,0,0.1,0,0.2,0
		C78.4,150.3,78.5,150.4,78.5,150.5 M72.7,160.3v-2.3v-0.1h-4.3v1.6c0,0,0.1,0.6-0.6,0.6h-0.8c-0.7,0-0.6-0.6-0.6-0.6v-1.6l0-3.1
		v-1.6c0,0-0.1-0.6,0.6-0.6h3.2v-4.6h-3.2c-0.7,0-0.6-0.6-0.6-0.6v-1.6l0-3.1V141c0,0-0.1-0.5,0.6-0.5h0.2c0.4,0,0.7,0,1,0
		c0.3,0.1,0.2,0.7,0.2,0.7v1.4h4.5V140c1.3-0.1,2.2-0.3,3.4-0.7l0.1,24.6c0,0-2,0.3-2-1.3v-0.8C74.3,161.8,72.7,162,72.7,160.3
		 M70.7,174.5c-0.2-0.1-0.3-0.3-0.5-0.4c-0.4-2.7-0.3-10-0.3-10.9C70.1,164.2,70.4,172.5,70.7,174.5 M58.1,161.5
		c0.5,1.3,0.1,3,1.3,4.2c0.1,0,0.2,0,0.3,0c0-0.4,0.1-0.8,0.1-1.1c-0.2-1.8-0.4-3.5-0.6-5.3c-0.1-1-0.8-17-0.8-18.1
		c0-0.2,0.1-0.4,0.4-0.5c0.1,0.6,0.8,16.2,0.9,16.8c0,0,0,0.1,0,0.1c0.4,1.8,0.1,3.6,0.3,5.4c0.1,0.9,0.4,1.8,0.6,2.8
		c0.2,1.6,0.8,1.9,1.4,2.1c-0.2-5.1-0.1-14-0.2-17.2c0-0.3,0.1-0.5,0.3-1c0.3,0.6,0.1,1.7,0.1,2.2c0.1,1.8,0,12,0.6,13.7
		c0.2,0.7,0.8,0.7,1,1.4c0.2,1.1,0.8,2,1.6,2.7c0.3,0.3,1.7,2.4,2.2,2.8c0,0,0,0,0,0c-2.9-2.2-6.7-5.1-11-8.6
		c0.1-0.3,0.1-0.5,0.3-0.8c0.3,0.5,0.6,0.8,0.8,1.3C58.4,163.3,58,162.3,58.1,161.5 M58.3,144.7v-0.2c0,0,0.1,0.1,0.1,0.1
		C58.4,144.7,58.4,144.7,58.3,144.7 M64.8,138.8C64.8,138.8,64.9,138.7,64.8,138.8c0.1,0,0.1,0,0.2,0.1c0,0-0.1,0-0.1,0.1
		C64.9,138.8,64.9,138.8,64.8,138.8 M54.8,145.3L54.8,145.3C54.8,145.2,54.8,145.2,54.8,145.3c-0.1-0.3-0.2-0.6-0.3-0.9
		C54.9,144.6,54.9,144.9,54.8,145.3C54.8,145.2,54.8,145.3,54.8,145.3 M54.7,162.1c-0.2-0.2-0.4-0.3-0.6-0.5
		c-0.1-1.7,0.1-4.1,0.2-4.9C54.5,157.6,54.6,160.4,54.7,162.1 M52.8,158.9c0,0.1,0,0.9-0.1,1.6c-0.3-0.3-0.7-0.5-1-0.8
		c0.9-3.3-0.1-18.4,0.5-19.5l0.5,12.9c0.1,0.4-0.1,2.2,0,2.5C52.9,156.7,52.6,157.9,52.8,158.9 M49.5,157.8
		c-0.2-0.2-0.4-0.4-0.7-0.6c-0.1-4.2,0.7-13.5,0.6-13.9c-0.2-0.6,1.1-7,1.5-6.7c0,0.9-0.1,0.4-0.1,1.3c0,0.5-0.3,1.7-0.4,2.2
		c-0.3,1.5-0.5,3.1-0.5,4.7C50,146.2,49.3,154,49.5,157.8 M49,145.8c0-0.1,0.1-0.1,0.1-0.2c0,0,0.1,0.1,0.1,0.2
		C49.2,145.8,49.2,145.9,49,145.8C49.1,145.9,49,145.8,49,145.8 M48.5,143.8C48.5,143.8,48.5,143.9,48.5,143.8
		C48.5,143.9,48.5,143.8,48.5,143.8L48.5,143.8z M38.8,144L38.8,144C38.8,144,38.8,144,38.8,144c0.1,0.2,0.1,0.3,0.2,0.4
		c-0.1,0-0.1,0-0.2,0C38.8,144.3,38.8,144.2,38.8,144C38.8,144.1,38.8,144,38.8,144 M38.8,143.1c-0.1,0-0.2-0.1-0.2-0.1
		c0-0.1,0.1-0.3,0.1-0.4c0.1,0,0.1,0,0.2,0C38.8,142.8,38.8,143,38.8,143.1 M37,127.6c0-0.4,0.1-0.7,0.1-1.1c0.5,0.1,0.4,2,0.5,2.4
		c0.3,1.5,0.7,3,0.8,4.6c0.1,2,0.6,3.8,1,5.8c0.4,1.8,0.4,3.8,1,5.6c0.3,0.8,0.9,5,1.1,5.8c0.7,0.1,0.8-0.2,0.7-0.6
		c-0.1-1.3-0.5-6-0.6-7.3c0-0.5-0.1-1.1-0.1-1.6c0.3,1,0.6,2,0.8,3.1c0.2,1.2,0.4,4.2,0.8,5.4c0.1,0.2,0.3,1.5,0.7,1.5
		c0-0.4,0.5-4.6,0.5-4.9c0.3-1.4-0.3-2.7-0.5-4.1c-0.1-0.5,0-1.1,0-1.6c0.2-1.5-0.1-2.2-0.2-3.7c-0.1-1.3,0.1-2.7,0.2-4
		c0.5,0.9,0.1,2.7,0.2,3.7c0.1,1.1,0.4,3.4,0.3,4.7c-0.1,0.9,0.5,2.7,0.6,4.8c-0.1,2.4,0.2,4.8,0.1,7.2c0,0.2,0.7-0.3,1-1.5
		c0.2-0.7,0.8-4.5,0.5-7.2c-0.5-4.7-0.7-8.9-0.5-10.5c0.3,1.2,0.3,4.5,0.5,5.7c0.3,1.7,0.3,2.9,0.6,4.6c0.1,0.3,0,1.4,0,4.3
		c-0.2,2.2-0.8,4.4-0.9,6.6c-2-1.7-4-3.5-6.1-5.3c0-1,0.1-2.1-0.3-2.6C39.5,140.7,37.3,134.2,37,127.6 M30.2,137.6
		C30.1,137.6,30.1,137.5,30.2,137.6c-0.1-0.1-0.1-0.1-0.1-0.2c0-0.1,0-0.1,0,0c0-0.1,0-0.1,0,0l0,0l0,0
		C30.1,137.4,30.1,137.5,30.2,137.6C30.1,137.5,30.1,137.6,30.2,137.6L30.2,137.6L30.2,137.6C30.2,137.7,30.2,137.6,30.2,137.6
		C30.2,137.7,30.2,137.6,30.2,137.6 M28.8,98.9c0.2-2.4,0.8-4.2,0.7-6.5c0-1.9,0.2-3.8-0.1-5.7c-0.2-1.4,0.1-3,0.2-4.4
		c0-0.2,0.2-0.4,0.2-0.6c0.4-1.4,0.8-2,0.6-3.3c0.4-1.2,0.4-2.7,1.2-3.9c0.4,0.3,0.2,1,0.1,1.6c-2.3,9.7-1.7,14-1.6,16.7
		c2-0.6,2.4-4.3,2.5-5.9c0.1-0.9-0.1-1.9,0.6-2.6c0,1.2,0,2.4-0.1,3.6c-0.1,2.8-0.7,3.2-1.5,5c-1.1,2.5-2.8,4.3-1.4,23.8
		c0.3,5.9,1.1,11.6,2.5,17.3c0.5,2,2.4,8.5,2.6,9.7c0.2,1,0.6,1.9,1.2,2.7c-0.7-0.6-1.4-1.3-2.1-1.9c-0.1-0.5-0.2-1.1-0.3-1.6
		c-0.4-2.2-0.9-4.3-1.4-6.4c-0.7-3.2-1.9-6.1-2.2-9.4c-0.1-1-0.1-2-0.3-3C30.2,122.6,28.3,104.4,28.8,98.9 M29.8,136.2
		c-0.1,0-0.2,0.1-0.3,0.1c-0.2-0.4-0.5-0.9-0.7-1.3C29.5,135.2,29.6,135.7,29.8,136.2 M28.8,134.4c0-0.2-0.1-0.3-0.1-0.5
		c0.1,0,0.1,0,0.2,0c0,0.2,0.1,0.3,0.1,0.5C28.9,134.3,28.8,134.4,28.8,134.4 M34,77.5C34,77.5,34,77.5,34,77.5
		c0.2-1.8,0.3-3.6,0.4-5.4c0.1-1.3,0-2.7,1.2-4c-0.1,0.4-0.1,0.6-0.2,0.8c-0.2,0.5-0.4,1.1-0.3,1.7c0.1,0.5-0.1,1.1-0.2,1.6
		c-0.1,1.3-0.2,2.7-0.3,4C34.6,76.7,34.7,77.3,34,77.5C34.1,77.5,34.1,77.5,34,77.5C34.1,77.6,34.1,77.6,34,77.5
		c0.5,0.6,0.2,1.2,0.2,1.8c0,1-0.2,2-0.3,2.9c0,0.3-0.2,0.6-0.5,0.8c-0.3-1,0.3-1.8,0.3-2.7C33.8,79.4,33.9,78.5,34,77.5
		C34,77.6,34,77.5,34,77.5 M37.4,92.7c0.1-0.8,0.2-1.6,0.2-2.5c0.1-2.6,0.1-5.2,0.3-7.8c0.1-1.6,0.4-3.1,0.6-4.7
		c0.1-0.6,0.1-1.2,0.2-1.8c0.4-2.2,0.6-3.5,1-5.7c0-0.2,0.2-0.5,0.2-0.5c0.3-0.3-0.8,6.9-1.3,10.2c-0.2,1.8-0.2,3.7-0.2,5.5
		c0,0.6-0.1,1.2-0.1,1.7c0,1-0.1,2.1-0.1,3.1c0.1,2.2-0.1,5.4-0.7,7.6c0,0.2,0,0.3,0,0.5c0.1,2.1-0.2,2.3-0.1,4.5
		c0,0.8,0.6,3.6-0.1,6.1c0-0.3,0-0.7,0-1c-0.1-2.1-0.4-4.3-0.6-6.4c-0.1-1.3,0-0.6,0.1-1.8C36.9,97.4,37.2,95,37.4,92.7 M37,73.8
		c0-0.6,0.2-3.2,0.3-4C37.8,70.6,37.1,73.8,37,73.8 M42.3,73.6C42.3,73.6,42.3,73.6,42.3,73.6L42.3,73.6L42.3,73.6
		C42.3,73.6,42.3,73.6,42.3,73.6c-0.1,0.2-0.1,0.3-0.2,0.5l0,0c0.1,0.3-0.1,3.7-0.3,5.3c-0.2-0.2-0.4-0.3-0.5-0.5
		c0-1.8-0.3-3.3,0.4-6.3C42.2,72.8,41.6,73.5,42.3,73.6 M41.4,79.6c0.4,0.4,0.4,0.2,0.4,0.4c-0.8,2.8,0,3.5-0.7,4.5
		C40.8,82.9,41.5,81.6,41.4,79.6 M41.6,110.9L41.6,110.9L41.6,110.9L41.6,110.9z M41.1,86.2c0-0.1,0.1-0.2,0.2-0.4
		c0,1.4,0,2.8,0,4.1c0,2-0.1,4-0.2,6.1c0,0.9-0.1,1.9-0.1,2.8v0c-0.4,0.6-0.7-4-0.6-6.7c0-0.2,0-0.4,0.1-0.6
		C41.4,90,41,88,41.1,86.2 M40.4,129.4c0.1,1.1,0.2,2.2,0.3,3.3c0.2,1.2,0.4,2.4,0.7,3.5c0.4,1.4-0.3,3.6-0.2,3.4
		c0.2-1.8-0.5-3.5-0.7-5.3c-0.2-2.2-0.7-4.3-0.9-6.5c-0.3-2.4-0.7-7.4-1-9.8c-0.1-0.8,1.1,5.7,1.2,6.4
		C40.2,126.1,40.3,127.7,40.4,129.4 M36.6,128.7C36.6,128.7,36.6,128.6,36.6,128.7c0.1,0,0.1,0,0.2,0
		C36.7,128.7,36.7,128.7,36.6,128.7C36.7,128.7,36.6,128.7,36.6,128.7 M36.6,130.1L36.6,130.1L36.6,130.1L36.6,130.1z M36.2,81.6
		c-0.4,1.6-0.3,3.3-0.5,4.9c-0.1,0.7-0.2,1.4-0.4,2.3c0,0.1,0.2,0.4,0.3,0.7c0,0.1,0,0.2,0,0.3c-0.2,1.9-0.3,3.7-0.5,5.5
		c-0.1,1.3-0.3,2.6-0.4,3.9c-0.1,1.2-0.2,2.5-0.2,3.7c0,1.2,0,2.5-0.1,3.7c-0.3-1.5-0.9-3-0.8-4.6c0.2-2.5,0.4-4.9,0.9-7.4
		c0.1-0.5,0.1-1,0-1.5c-0.1-1.8,0.3-6.6,0.4-7.3c0.2-2.4,1.6-9.7,1.7-9.7C36.8,76.5,36.6,80.1,36.2,81.6 M34.5,108.2
		c-0.1-0.4,0.4-1,0.5-1c0.1,0-0.2,0.9-0.1,1.4c0.6,1.4,0.5,2.9,0.2,4.4C34.9,111.5,34.7,109.8,34.5,108.2 M34.7,122.5
		c0,0-0.1,0-0.1,0c0-0.1-0.1-0.2-0.1-0.3c0,0,0.1,0,0.1,0C34.7,122.4,34.7,122.4,34.7,122.5 M32,116.5c0-0.2-0.1-0.3-0.1-0.4
		c0-1-0.1-2-0.2-3c-0.1-0.9,0-1.7,0-2.6c0.3,0.5,0.6,1.7,0.7,2.3c0.7,6,1.5,12.7,2.9,18.1c0,0.2,0.1,0.3,0.2,0.3
		c0.3,1.9,1.6,8.8,2.6,13.3C36.8,141.6,32.3,122.8,32,116.5 M43.5,128.9c0-0.1-0.1-0.1-0.1-0.2C43.5,128.7,43.5,128.8,43.5,128.9
		C43.5,128.9,43.5,128.9,43.5,128.9c0,0.2,0.1,0.3,0.1,0.4c-0.1,0-0.1,0-0.2,0C43.4,129.2,43.5,129,43.5,128.9
		C43.5,128.9,43.5,128.9,43.5,128.9 M43.8,130.5L43.8,130.5c0.1,0.1,0.1,0.2,0.1,0.2C43.9,130.7,43.8,130.6,43.8,130.5L43.8,130.5z
		 M44,132.8L44,132.8C44,132.8,44,132.8,44,132.8C44,132.7,44,132.7,44,132.8L44,132.8C44,132.8,44,132.8,44,132.8 M44.6,86.5
		L44.6,86.5c-0.4,2-0.1,2.4-0.1,4.5c0,0.3,0.3,1.9,0.3,2.3c-0.1,0.1-0.1,0.2-0.2,0.2c-0.4,0.6-0.9-1.8-0.9-3.4
		c0-1.7,0.2-3.4,0.3-5.1c0-0.1,0-0.2,0-0.2c0.1,0.1,0.2,0.2,0.4,0.3C44.3,85.6,44.4,86.1,44.6,86.5 M45,86.8L45,86.8L45,86.8
		L45,86.8z M45.1,98.4c0-0.4,0-0.6,0-0.9C45.4,97.9,45.4,97.9,45.1,98.4 M47,102.9C47,102.9,47,102.9,47,102.9L47,102.9
		C47,102.9,47,102.9,47,102.9c-0.2,0.2-0.5,0.4-0.8-0.1C46.5,102.6,46.8,102.8,47,102.9 M46.1,97.5c0.4-0.3,0.6-0.1,0.9,0.2
		C46.6,97.8,46.3,98,46.1,97.5 M46.3,91.8c0-0.1,0.1-1.8,0.1-2.6c0.1-1,0.2-1.9,0.5-2.8C47.3,86.5,46.8,91.4,46.3,91.8 M46.5,95
		C46.5,95,46.5,95,46.5,95L46.5,95C46.5,95,46.5,95,46.5,95c-0.2,0-0.3,0-0.5,0.1c0-0.1,0-0.1,0-0.2C46.1,94.9,46.3,94.9,46.5,95
		 M47.9,82.6C47.9,82.5,48,82.5,47.9,82.6c0.1,0,0.1,0,0.1,0.1C48,82.6,47.9,82.7,47.9,82.6C47.9,82.6,47.9,82.6,47.9,82.6
		 M50.1,110.4c0-0.2,0.1-0.4,0.1-0.6C50.5,110.1,50.5,110.1,50.1,110.4 M48.2,114.7c-0.1-0.7-0.2-1.3,0-2c0.1-0.2,0-0.4,0-0.6
		c-0.1-0.5-0.1-1.1-0.2-1.6c0.2-0.8,0.6,0.9,0.6,1.3c0,0.4,0,0.9,0,1.3c0.2,1.7,0.2,3.5,0.1,5.2c0,0.5,0.2,1,0.2,1.5
		c0,0.6,0,1.1,0,1.7c-0.3-0.7-0.6-3.1-0.6-3.5c0-0.4,0-0.9-0.1-1.3c-0.1-0.5-0.2-0.9-0.1-1.4C48.3,115.1,48.3,114.9,48.2,114.7
		 M46.6,115.5c0,0,0,0.1,0,0.1c-0.1,0-0.2,0-0.5-0.1C46.4,115.5,46.5,115.5,46.6,115.5 M45.4,115.4c0.6,0.4,0.6,0.9,0.6,1.4
		c0,0,0,0,0,0l0,0c0,0,0,0,0,0C45.6,116.5,45.1,116.2,45.4,115.4 M45.7,117.4C45.7,117.5,45.7,117.5,45.7,117.4c0,0.1,0,0.1-0.1,0.2
		c0,0,0-0.1,0-0.1C45.6,117.5,45.7,117.5,45.7,117.4 M45.7,112.8C45.7,112.9,45.7,112.9,45.7,112.8L45.7,112.8
		C45.7,112.9,45.7,112.9,45.7,112.8L45.7,112.8L45.7,112.8C45.6,112.8,45.6,112.8,45.7,112.8C45.6,112.8,45.6,112.8,45.7,112.8
		 M45.8,113.9c-0.1,0-0.1,0.1-0.2,0.1c-0.1-0.1-0.1-0.2-0.2-0.3c0,0,0.1-0.1,0.1-0.1C45.7,113.7,45.7,113.8,45.8,113.9 M52.2,117.7
		c-0.1-0.9,0.1-1.7,0.1-2.6c-0.1-2.6-0.1-5.1-0.2-7.7c0.1,0,0.1,0,0.2,0c0.1,0.5,0.1,1,0,1.4c0,0.6,0.1,1,0.4,1.3
		c0.1,1.7,0.2,6.8,0.2,7c-0.1,2.1-0.1,3.1-0.2,5.2c0,0.2,0,0.5,0,0.7c0,0-0.1,0-0.1,0.1c-0.1-0.3-0.2-0.6-0.5-0.9
		c-0.1-0.7-0.1-0.2,0-0.9C52.2,120.1,52.4,118.8,52.2,117.7 M56.6,117.1C56.6,117,56.6,117,56.6,117.1l0.1,0.5
		C56.6,117.2,56.6,117.1,56.6,117.1 M57,112.9L57,112.9L57,112.9c-0.1-0.2-0.1-0.3,0-0.5v0l0,0c0,0,0,0,0,0L57,112.9
		C57,112.9,57,112.9,57,112.9 M48.8,69.3L48.8,69.3L48.8,69.3L48.8,69.3z M49.2,68.7C49.3,68.7,49.3,68.6,49.2,68.7
		c0.1-0.1,0.1-0.1,0.2-0.1c0,0,0,0.1,0,0.1C49.3,68.8,49.3,68.7,49.2,68.7 M51.6,74.2c0.6,0.9,0.1,1.7-0.1,2.6
		C50.9,76.1,51,75.5,51.6,74.2 M53.7,68.8C53.7,68.8,53.7,68.8,53.7,68.8C53.7,68.8,53.7,68.8,53.7,68.8
		C53.6,68.8,53.7,68.8,53.7,68.8C53.7,68.7,53.7,68.7,53.7,68.8L53.7,68.8C53.7,68.7,53.7,68.7,53.7,68.8L53.7,68.8L53.7,68.8
		 M53.7,74.8c0,0.2,0,0.4,0,0.7c-0.1,0-0.2,0-0.2,0c0-0.2,0.1-0.4,0.1-0.6C53.6,74.8,53.6,74.8,53.7,74.8 M69.8,42.5
		c0.9-0.3,2.4-0.7,4.2-0.8v-1.9c0-0.4,0.7-0.4,0.7,0v1.9c1.3,0,2.8,0.2,4.3,0.8c3.6,1.6,2.8,5.1,2.7,5.5c2.7,0.1,3.6,2.1,3.9,2.9
		c0.3,0.9,0.7,2.4,0.8,4.1c0.3,0.1,0.6,0.2,0.7,0.2c0.2,0,0.5,0.1,0.5,0.6v0c0,0.4-0.3,0.5-0.4,0.5c0,0-0.5,0.2-0.9,0.2
		c-0.1,1.1-0.3,2.3-0.8,3.5c-1.6,3.7-5.3,2.7-5.5,2.7c-0.3-0.1-0.7-0.2-1-0.3c-0.1,1.8-1.2,3.4-2.7,4.1c0,0-0.3,0.1-0.4,0.5l0,2.6
		c-0.8,0.6-2.1,1.6-3.1,2.6v-5.2c-0.2-0.4-0.6-0.6-0.6-0.6l0,0c-1.5-0.7-2.5-2.3-2.6-4c-0.3,0.1-0.6,0.2-0.9,0.3
		c-0.2,0-3.9,1-5.5-2.7c-0.5-1.2-0.7-2.4-0.8-3.5c-0.3-0.1-0.6-0.2-0.7-0.2c-0.2,0-0.5-0.1-0.5-0.6v0c0-0.4,0.3-0.5,0.4-0.5
		c0,0,0.5-0.1,0.8-0.2c0.1-1.8,0.5-3.3,0.8-4.2c0.3-0.8,1.2-2.8,3.9-2.9C66.3,44.1,68.9,42.9,69.8,42.5 M70.2,110
		c0.1,0,0.3-0.1,0.4-0.1c0,0,0,0,0,0c0.1,0,0.2,0,0.3,0l0,0c-0.1,0-0.2,0-0.3,0c0,0,0,0,0,0c0,0.1,0,0.2-0.1,0.3
		C70.4,110.2,70.3,110.1,70.2,110 M72.7,105.6C72.8,105.6,72.8,105.6,72.7,105.6 M76.5,95.7L76.5,95.7L76.5,95.7L76.5,95.7z
		 M77.9,113.7c0,0.2,0,0.4,0,0.6c-0.1,0.2-0.2,0.5-0.4,0.7c-0.2-7.6-0.3-21.7,0.4-22.5C77.8,93.8,77.9,106.2,77.9,113.7 M78.2,102.2
		L78.2,102.2L78.2,102.2L78.2,102.2z M78.4,107.7c0,0.2,0,0.4,0,0.6c0,0-0.1,0-0.1,0v-0.6C78.3,107.7,78.3,107.7,78.4,107.7
		 M78.4,110.5c0,0.2,0.1,0.4,0.1,0.6c-0.1,0-0.2,0-0.3,0.1c0-0.2,0-0.4,0-0.6C78.3,110.6,78.3,110.6,78.4,110.5 M78.2,125.8
		c0-0.1,0-0.1,0-0.2c0,0,0.1,0,0.1,0C78.2,125.7,78.2,125.7,78.2,125.8 M78.2,129.1c0,0-0.1,0-0.2,0.1
		C78.1,129.1,78.1,129.1,78.2,129.1C78.1,129,78.2,129.1,78.2,129.1 M76.8,120.1v2.1c0,0-0.1,0-0.1,0L76.8,120.1
		C76.7,120.1,76.7,120.1,76.8,120.1 M70.7,134.8L70.7,134.8C70.7,134.8,70.7,134.8,70.7,134.8c0-0.1,0-0.2,0-0.2c0,0,0,0,0-0.1l0,0
		c0,0,0,0,0,0C70.7,134.6,70.7,134.7,70.7,134.8C70.7,134.8,70.7,134.8,70.7,134.8 M70.6,134.1L70.6,134.1c0-0.1,0-0.2,0-0.3
		c0-0.1,0-0.2,0-0.3l0,0c0,0.1,0,0.2,0,0.3C70.7,133.9,70.7,134,70.6,134.1 M64.4,127.8v-0.1c-0.1-0.2-0.1-0.4-0.2-0.7
		c0.1,0,0.1,0,0.2,0v0.7C64.4,127.7,64.4,127.8,64.4,127.8L64.4,127.8L64.4,127.8z M64.4,128.5L64.4,128.5c0,0.1-0.1,0.1-0.1,0.1
		c0,0,0-0.1,0-0.1C64.3,128.5,64.4,128.5,64.4,128.5 M64.4,124.1C64.4,124.1,64.4,124.1,64.4,124.1c0-0.1,0-0.1,0-0.2
		c-0.1-0.4-0.1-0.8-0.2-1.2c0.1,0,0.2,0,0.2,0c0,0.4,0,0.8-0.1,1.2C64.4,124,64.4,124,64.4,124.1C64.4,124.1,64.4,124.1,64.4,124.1
		c0,0.3,0.1,0.7,0.1,1C64.2,124.8,64.2,124.5,64.4,124.1 M64.3,121.2v-0.7c0.1,0,0.1,0,0.2,0c0,0.2,0,0.5,0.1,0.7
		C64.4,121.2,64.4,121.2,64.3,121.2 M64.6,126C64.6,126,64.6,126.1,64.6,126c0,0.1,0,0.1-0.1,0.1C64.5,126.1,64.5,126,64.6,126
		 M57.1,130.4L57.1,130.4L57.1,130.4L57.1,130.4z M57.1,128.5L57.1,128.5l0,0.5h0V128.5z M80.3,126.1c0.1-0.1,0.2-0.2,0.3-0.3
		c0-0.1,0.1-0.1,0.1-0.1c0,0,0,0.1,0,0.2C80.5,125.9,80.4,126,80.3,126.1L80.3,126.1z M83.7,109c-0.3-0.5-0.4-1.1,0-1.8
		C84.3,107.9,83.8,108.4,83.7,109 M83.7,110.4C83.7,110.5,83.7,110.5,83.7,110.4c-0.1,0.1-0.1,0.1-0.1,0
		C83.6,110.4,83.6,110.4,83.7,110.4C83.6,110.4,83.7,110.4,83.7,110.4 M86.3,117c0-0.1,0-0.1,0-0.2l0,0
		C86.3,116.9,86.3,117,86.3,117 M86.7,100.7c0-0.2,0-0.3,0-0.5c0.1,0,0.1,0,0.2,0c0,0.2,0,0.4,0,0.5
		C86.9,100.7,86.8,100.7,86.7,100.7 M86.8,101.4L86.8,101.4c0,0.1-0.1,0.1-0.1,0.1c0,0,0-0.1-0.1-0.1
		C86.7,101.4,86.8,101.4,86.8,101.4 M89.2,102.7c0,0,0,0.1,0,0.1c0,0,0,0-0.1,0c0-0.1,0-0.1,0-0.2C89.2,102.6,89.2,102.6,89.2,102.7
		 M89.2,101v-1c0.1,0,0.1,0,0.2,0C89.3,100.4,89.3,100.7,89.2,101C89.2,101,89.2,101,89.2,101 M89.1,99.1C89.1,99,89,99,89.1,99.1
		c0-0.1,0-0.1,0.1-0.1C89.1,99,89.2,99,89.1,99.1C89.1,99.1,89.1,99.1,89.1,99.1 M91.2,109.9C91.1,109.8,91.2,109.8,91.2,109.9
		 M93.2,80.9c-0.1-1.1-0.2-2.3-0.3-3.4c0-0.3,0.2-0.6,0.2-0.8c0.1,0,0.2,0,0.2,0c0,0.3,0,0.6,0.1,0.9c0.1,1.7,0.2,2.3,0.3,3.9
		c0,0.3-0.2,1-0.4,0.9C93.4,81.7,93.3,81.7,93.2,80.9 M97.9,78.7C97.9,78.6,97.9,78.6,97.9,78.7c0-0.3,0-0.6,0-0.8
		c0,0,0.1,0,0.1-0.1c0,0.1,0.1,0.2,0,0.3C98,78.3,98,78.5,97.9,78.7 M98.2,79.8c0,0.2,0,0.4,0,0.6c0,0-0.1,0-0.1,0
		c-0.1-0.2-0.1-0.5-0.2-0.7c0,0,0-0.1,0.1-0.1C98.1,79.6,98.2,79.7,98.2,79.8 M97.8,77v-0.5c0,0,0.1,0,0.1,0L97.8,77
		C97.9,77,97.9,77,97.8,77 M97.9,75.5h-0.1v-0.6c0,0,0.1,0,0.1,0V75.5z M100,55.9L100,55.9L100,55.9L100,55.9z M100.5,71.5
		C100.5,71.4,100.4,71.4,100.5,71.5c0-0.1,0-0.1,0.1-0.2C100.6,71.3,100.6,71.4,100.5,71.5C100.6,71.4,100.5,71.4,100.5,71.5
		 M100.6,72.2v0.4c0,0-0.1,0-0.1,0v-0.4C100.6,72.2,100.6,72.2,100.6,72.2 M100.5,75c0,0.3,0,0.5,0,0.8c-0.1,0-0.1,0-0.2,0V75
		C100.4,75,100.5,75,100.5,75 M100.5,76.6c0.1,0.1,0.1,0.2,0.2,0.4c-0.1,0-0.1,0-0.2,0.1c0-0.1-0.1-0.3-0.1-0.4
		C100.4,76.6,100.4,76.6,100.5,76.6 M100.4,85.6l0,0.1L100.4,85.6L100.4,85.6z M100.4,86.9c-0.1,0.2-0.1,0.4-0.2,0.5v0.1l0,0
		c0,0,0-0.1,0-0.1v-0.6C100.3,86.9,100.4,86.9,100.4,86.9 M103.1,83.4c-0.1-0.7-0.5-1.3,0.1-2.2C103.4,82.1,103.5,82.7,103.1,83.4
		 M103.2,86.7c0,0.1,0,0.2-0.1,0.3c0,0-0.1,0-0.1,0C103.1,86.8,103.1,86.7,103.2,86.7C103.1,86.6,103.2,86.7,103.2,86.7 M105.1,70.1
		c-0.1-0.7-0.1-1.3-0.2-2h0.3c0,0.7,0.1,1.3,0.1,2C105.2,70,105.2,70.1,105.1,70.1 M105.6,72c-0.1,0-0.1,0.1-0.2,0.1
		c-0.2-0.3-0.3-0.6-0.5-0.9c0.1,0,0.2-0.1,0.3-0.1C105.4,71.4,105.5,71.7,105.6,72 M104.9,67.3c0-0.2,0-0.5-0.1-0.7
		c0.1,0,0.1,0,0.2,0c0,0.2,0.1,0.5,0.1,0.7C105.1,67.2,105,67.2,104.9,67.3 M104.9,65.8c0-0.1-0.1-0.3-0.1-0.4c0.1,0,0.1,0,0.2,0
		c0,0.1,0.1,0.3,0.1,0.4C105,65.8,105,65.8,104.9,65.8 M104.8,64.5L104.8,64.5c0-0.1,0-0.1,0-0.2C104.8,64.4,104.8,64.5,104.8,64.5
		 M106.6,76.5c0,0.4-0.3,6-0.3,6.5c0,1.2,0.4,2.9,0.4,4.1c0,1.5-0.4,3.1-0.8,2.7c0-0.3,0-0.4,0-0.5c0,0,0-0.2,0-0.5c0-1,0-2,0-2.9
		c0-0.3,0-0.5-0.1-0.8C105.6,84,106.2,76.3,106.6,76.5 M106.2,72.5L106.2,72.5c0,0.3,0.1,0.6,0.1,0.8l0,0
		C106.3,73,106.2,72.8,106.2,72.5L106.2,72.5z M107.6,61.4C107.5,61.4,107.5,61.4,107.6,61.4c-0.1,0-0.1,0-0.1,0
		C107.5,61.3,107.5,61.3,107.6,61.4L107.6,61.4z M107.7,62.1c0,0,0,0.1,0,0.1c0,0-0.1,0-0.1,0c0,0,0-0.1,0-0.1
		C107.6,62.1,107.6,62.1,107.7,62.1 M107.5,63c0.1,0.1,0.1,0.2,0.2,0.3c-0.1,0-0.1,0.1-0.2,0.1c0,0-0.1-0.1-0.1-0.2
		C107.4,63.1,107.4,63.1,107.5,63 M107.5,65.6c0,0,0,0.1,0,0.1c0,0-0.1,0-0.1,0c0,0,0-0.1,0-0.1C107.4,65.6,107.4,65.6,107.5,65.6
		 M28.3,60.8c0,0,0-0.1,0-0.1c0,0,0,0,0,0c0-0.1,0-0.1,0,0c0.1-0.1,0,0,0,0C28.4,60.6,28.4,60.7,28.3,60.8
		C28.4,60.7,28.4,60.7,28.3,60.8c0,0.2-0.1,0.3-0.1,0.5c-0.1,0-0.1,0-0.2-0.1C28.2,61,28.3,60.9,28.3,60.8 M27.9,75.2
		c0.1-0.3,0.2-0.6,0.2-1c0.1-2.1,1.1-4,1.7-6c0,0,0-0.1,0-0.1l0,0c0,0,0,0,0,0.1c0.1,1.5-0.3,2.9-0.8,4.4c-0.8,2.3-1.4,4.7-1.6,7.1
		c-0.1,0.7-0.3,1.3-0.8,1.9c0.2-1.3,0.3-2.6,0.6-3.8C27.3,77,27.6,76.1,27.9,75.2 M27.7,132.3c-0.2-0.8-0.3-1.6-0.5-2.3
		c-0.6-1.5-1.3-3-1.9-4.5c-0.5-1.2-0.9-2.4-1.8-3.4c-0.4-0.4-0.9-0.6-1.3-0.9c-0.8-0.6-1.9-0.2-2.2,0.7c-0.3,0.9-0.6,1.9-0.9,2.8
		c-0.4,1.1-0.5,2.2-0.6,3.4c-0.1-0.2-0.3-0.3-0.4-0.5c0.1-1.5,0.3-2.9,0.6-4.4c0-0.1,0-0.1,0-0.2c0-0.1,0-0.1,0.1-0.2
		c0.2-0.6,0.3-1.2,0.5-1.8c0.4-0.8,0.9-1.4,1.6-1.9c1.7-1.2,2.7-0.1,3.4,1.5c0,0,0,0,0,0c0,0,0,0.1,0,0.1c0.3,1.6,3.3,8.1,3.6,9.7
		c0.2,0.8,0.4,1.5,0.6,2.3c0.1,0.2,0.1,0.5,0.1,0.7C27.8,133.4,27.8,132.6,27.7,132.3 M28.2,138.4c-0.6-0.6-1.2-1.2-1.6-1.6
		c-0.3-0.7-0.5-1.3-0.8-2c-3.3-8.9-4.1-8.6-4.9-5.9c-0.2,0.5-0.4,0.9-0.6,1.4c-0.4-0.4-0.7-0.8-1-1.1c0.3-1.1,0.5-2.2,0.8-3.3
		c0.2-0.7,0.3-0.8,1.3-1.5c1.4,0.3,2.2,1.3,2.5,2.4c0.8,3,2.1,5.8,3.2,8.7C27.6,136.5,27.9,137.4,28.2,138.4 M17.3,93.6
		c0-0.4,0-0.8,0-1.1c0-0.1,0-0.3-0.1-0.4c0.4-2,0.4-4.7,0-7.6c0.3,0.5,0.4,1,0.5,1.6c0.1,0.4-0.2,0.6,0.7,1.9
		c0.2,0.4,0.4,0.7,0.4,1.1l0,0v0c0,0.1,0,0.2,0,0.3c0,0.7-0.1,2.4,0,3.6c0.3,2.9,0.6,5.6,1.6,7.3c0.5,0.9,1.5,0.6,1.9-0.3
		c0.6-1.1,0.9-2.4,1.2-3.6c0.3-1.1,0.7-2.2,1.1-3.2c0.1,0.5-0.3,2.6-0.8,5.9c0,0,0,0,0,0c-0.8,4-2,8.2-2.1,11.8
		c-0.1,1.4,0.3,2.9,0.3,3.8c-0.1-0.1-0.2-0.2-0.4-0.2c-0.8-1.6-0.6-4-0.4-5.8c0.2-1.9,1.1-5.6,1.8-7.8c-0.6,1-1.5,1.4-2,1.3
		c-1.2-0.3-1.6-1.3-1.9-2.9c-0.5-2.1-0.9-6.2-1-7.8c0-0.1,0-0.2,0-0.4c-0.6,2.3-0.2,9.4-0.1,10.6c0,0,0.4,7.4,0.6,11
		c0.5-3,0.4-8.6,0.4-10.4c0.1,0.1,0.3,0.9,0.3,1.6c0.3,3.3,0.3,12.1-2.4,20.5c0-1.3,0.7-4.2,0.7-5.5c0.1-2.4,0.2-4.9,0.3-7.3
		C18,104.5,17.2,97.2,17.3,93.6 M24,113.8c0,1.4,0.5,2.9,0.7,3.8c-0.1-0.1-0.2-0.1-0.4-0.2c-1-1.5-0.9-3.9-1-5.8
		c0-2.7,1.1-9.1,1.4-9.6C24.3,106.2,23.7,110.2,24,113.8 M24.4,90.4c-0.5-0.2-0.7-0.5-0.6-0.9c0.3-1.3,0.6-2.6,0.9-4
		c0.1-0.4,0.3-0.8,0.5-1.3c0.1,0.6,0.4,1.1,0.3,1.5c0,1.2-0.1,2.5-0.3,3.7C25.1,89.8,24.7,90.1,24.4,90.4 M26.5,99.8
		c0.4,1.8-0.4,3.3-0.2,4.9c0.2,1.6,0,6,0.1,7.7c0.1,1.6,0.4,3.3,0.6,4.9c0.2,1.6,0.5,3.3,0.7,4.9c0.2,1.6,0.5,3.1,0.6,4.7
		C25.7,120.8,25,103.6,26.5,99.8 M26.5,79L26.5,79L26.5,79L26.5,79z M26.9,97.9c-0.7-1.9,0.2-3.6,0.2-5.4
		C27.7,94.3,27.1,96.1,26.9,97.9 M27.2,91.1c0-1,0.2-2.1,0.2-3.1c0-0.8,0.2-1.5,0.7-2.2c0,1.9-0.1,3.9-0.7,5.8
		C27.3,91.5,27.2,91.3,27.2,91.1 M26.9,64.2c-0.1,0.2-0.2,0.3-0.2,0.5c0,0,0,0,0,0c-0.1,0.9-0.7,2.5-1.2,3c0,0,0,0.1,0,0.1
		c0,0,0,0-0.1,0.1c-0.1,0.4-0.3,0.9-0.4,1.4c0,0.1,0,0.1,0,0.2l0,0c0,0,0-0.1,0-0.1c0-0.5,0-1,0.4-1.4c0,0,0-0.1,0-0.1
		c0,0,0-0.1,0.1-0.1c0.2-0.8,0.5-1.6,0.7-2.4c0.1-0.2,0.3-0.4,0.5-0.6c0,0,0-0.1,0-0.1C26.7,64.5,26.8,64.3,26.9,64.2L26.9,64.2
		L26.9,64.2z M26.9,58.5c0,0,0-0.1,0-0.1l0,0C26.9,58.5,26.9,58.5,26.9,58.5c-0.1,0.5-0.2,1-0.4,1.5c-0.2,0.5-0.4,1-0.7,1.4
		C25.8,60.7,26.1,60,26.9,58.5 M22.4,57.8c0.3,1,0.8,1.8,1.4,1.2c0.7-0.6,1.1-1.1,1.3-1.6c0.2,0,0.3,0,0.5-0.1
		c-0.1,0.2-0.1,0.3-0.2,0.5c-0.3,0.6-0.6,1-1.1,1.5c-0.7,0.7-1.8,0.6-2-0.3c-0.1-0.4-0.1-0.8-0.2-1.1C22.1,57.8,22.3,57.8,22.4,57.8
		 M19.7,58c0.4,1.4,1,8.3,2.2,8.3c1.2,0,1.4-1.1,1.9-1.7c0.4-0.6,0.9-1.5,1.3-2.2c0.1,0,0.2,0.1,0.2,0.1c-0.6,1.4-1.4,2.3-2,3.7
		c-3,4.9-3.6-6.3-3.7-8.2C19.6,58,19.7,58,19.7,58 M17.4,58.2c0.4,2.2,1,6.7,0.8,6.8c-0.4,0.2,0.3,1.1,0.3,1.6
		c0.5,5,1.6,9.2,2.9,8.8c0.9-0.2,1.6-1.8,1.9-2.6c0.4-0.9,0.9-2.3,1.4-3.2c-0.7,2.1-0.8,4.3-2,6.2c-0.1,0.2-0.2,0.4-0.3,0.5
		c-0.7,0.9-1.8,0.9-2.4-0.1c-0.3-0.5-0.4-1.1-0.6-1.6c-1.8-4.9-1.7-12.6-2.4-16.5C17.2,58.2,17.3,58.2,17.4,58.2 M15,58.3
		c0.2,0,0.4,0,0.6,0c-0.1,1.4-0.2,7.5,0,8.9c0,7.6,2,16.7,5.4,17.5c1.2,0.3,2-2.2,2.3-3.4c0.4-2,1.1-4,1.6-6c0.3-0.9,0.6-1.9,1-3
		c0.1-0.1,0.4-0.3,0.8-0.7c-0.3,0.9-0.6,1.6-0.8,2.3c-0.2,0.6-0.3,1.3-0.4,1.9c-0.2,0.7-0.4,1.4-0.6,2.1c-0.4,1.6-0.9,3.2-1.3,4.8
		c-0.3,1.3-0.8,2.5-1.5,3.7c-0.3,0.5-0.7,0.7-1.2,0.7c-0.5,0-0.7-0.5-1-0.8c-1.6-2.2-2.7-4.1-3.4-6.3c0-0.1,0-0.2,0-0.2
		c-0.2-2.1-0.6-4.2-1.2-6.3c-0.2-1.5-0.3-3.2-0.4-5.2C15,67.5,14.7,61,15,58.3 M16.1,125.3c-0.5-0.6-0.9-1.2-1.3-1.7
		c0-0.2,0.1-0.3,0.1-0.5c0-0.6,0.2-1.3,0.2-1.9c0.2-1.3,0.2-2.7,0.3-4c0.1-1,0.1-2.1,0.1-3.1c0.1-2.5,0.2-5,0.3-7.6
		c0-0.4,0-3.9-0.1-5.2c0-1.7-0.1-3.4-0.2-5.1c0.2-0.2,0.3-0.5,0.5-0.8c0,0.5,0.1,1,0.1,1.6c0.1,2.1,0.1,4.2,0.1,6.3
		c0.1,2.4,0.2,4.9,0.1,7.3c-0.1,2.9-0.1,5.7-0.3,8.5C16,121.1,16,123.2,16.1,125.3 M4.1,84.9c5.3,10.1,9.6,5.9,10.2,5
		c0.9-1.3,1.5-2.7,1.8-4.3c0.4,9.2-2.8,11.2-4.2,11.6c-2.6,0.8-5.9-0.9-7.2-4.7C4.4,88.1,4.1,84.9,4.1,84.9 M13.1,98.4
		c0.2-0.1,0.4-0.2,0.5-0.3c-0.2,3.1,0,9.5,0.2,12.8c0.2,3.4,0.4,7.1,0.2,9.5c0,0.6-0.1,1.2-0.2,1.8c-0.2-0.3-0.3-0.6-0.4-0.8
		c0-1-0.1-2-0.1-3c0-0.1-0.1-0.3,0-0.4C13.7,116,12.7,103.2,13.1,98.4 M140.2,119.9c0,0.1,0,0.2-0.1,0.3
		c-2.1,6.5-17.8,21.4-21.3,24.9c-9.6,10-36.7,32.7-44.1,37.2c0,0,0,0-0.1,0c0,0,0,0,0,0c-0.2,0.1-0.4,0.2-0.6,0.3
		c-0.2-0.1-0.4-0.2-0.6-0.3l0,0c0,0,0,0-0.1,0c-7.5-4.5-34.5-27.2-44.1-37.2c-3.5-3.5-19.2-18.3-21.3-24.9c0-0.1,0-0.2-0.1-0.3
		c-0.9-3.3-2-15.4-2.8-24.4c1,1.5,2.4,2.5,4,3c0.2,3,1.4,19.4,3.2,23.3c1.4,3,11.8,14.8,13.6,16.4C42.3,154.6,73.5,179,74.1,179
		c0.6,0,28-21.4,48-40.7c6.7-6.9,12.3-13.6,13.7-16.5c1.4-3,2.2-15.5,2.7-23.4c1.8-0.4,3.4-1.5,4.5-3.2
		C142.2,104.3,141.1,116.5,140.2,119.9 M143.3,92.2c-1.2,3.6-4.2,5.4-6.7,5c0,0-0.1,0-0.1,0c-0.1,0-0.3-0.1-0.4-0.1
		c-1.4-0.4-4.6-2.4-4.2-11.6c0.4,1.6,1,3.1,1.9,4.4c0.6,0.9,4.9,5.1,10.2-5C143.8,84.9,143.6,87.9,143.3,92.2"/>
	<path id="XMLID_405_" class="st1" d="M31.2,31.6c0,0-0.5,2.2,1.3,4c0.2,0.2,0.4,0.3,0.6,0.4c4.2-7.2,2.8-11.1,0.4-12.8
		c-3.8-2.7-10.7-1.9-14.1,0c0.7-0.2,1.7-0.5,2.7-0.6c1.4-0.1,3.7,0,6.3,1.1C33,26.3,32.7,30,31.2,31.6"/>
	<path id="XMLID_404_" class="st1" d="M34.5,22.4c2.8,2,4.8,6.4,0.4,14.3c1.4,0.2,2.6,0,2.6,0s1.2-2.8,4.1-3.4c0,0,1.4-2.8,0.2-6.7
		c-1.3-4.3-4.8-6.6-9.6-7.7c-8.1-1.7-14,3.9-14,3.9c-0.3,0.3-0.2,0.7,0,0.8C21.2,21,30,19.3,34.5,22.4"/>
	<path id="XMLID_403_" class="st1" d="M18.4,29C18.4,29,18.3,28.9,18.4,29c-0.5-0.8-0.5-1.5-0.7-1c-0.2,0.3-0.3,1.5,1.1,3.7
		c2.1,2.9,4.5,3.2,4.5,3.2c0.4-2.2,1.2-3.8,1.2-3.8C20.4,31.8,18.9,29.7,18.4,29"/>
	<path id="XMLID_402_" class="st1" d="M89.6,12.7c-0.6-0.3-0.4,0,0.1,0.4c0.5,0.4,0.8,0.6,1.2,0.8c0.5,0.2,1,0.4,1.5,0.6
		C92.4,14.5,90.9,13,89.6,12.7"/>
	<path id="XMLID_401_" class="st1" d="M86,21.4c0.1,0.3,0.1,0.5,0.4,0.4c0.1,0,0.2-0.1,0.2-0.2C86.6,21.4,86.4,21.4,86,21.4"/>
	<path id="XMLID_400_" class="st1" d="M96.1,23.3c-0.2-0.1-1.1-0.7-1.5-0.6c1.4,0.8,1.7,1.4,2.3,1.5C96.8,23.7,96.5,23.4,96.1,23.3"
		/>
	<path id="XMLID_397_" class="st1" d="M118,44c0,0,0,0.1,0,0.1s0.2,5.5-3.9,8.5c0.7,0.3,1.5,0.6,2.2,0.8c1.7-0.6,3.3-1.2,4.3-2.8
		C121.7,48.6,122,46,118,44 M120.1,50.2c-1.2,2-3.5,2.2-3.8,2.2c2.1-1.7,2.7-5,2.9-6.7c0.7,0.5,1.1,1.2,1.3,1.8
		C120.8,48.4,120.7,49.2,120.1,50.2"/>
	<path id="XMLID_396_" class="st1" d="M92.7,23.8c2.9,1.3,5.2,3.7,5.5,3.9c0.5,0.4-0.5-1.7-4.8-4.2c-1.9-1.1-2.8-1.7-3.5-1.9
		C89.8,21.6,91.3,23,92.7,23.8"/>
</g>
</svg>
