<?xml version="1.0" encoding="utf-8"?>
<!-- Generator: Adobe Illustrator 19.0.0, SVG Export Plug-In . SVG Version: 6.00 Build 0)  -->
<svg version="1.1" id="Layer_1" xmlns="http://www.w3.org/2000/svg" xmlns:xlink="http://www.w3.org/1999/xlink" x="0px" y="0px"
	 viewBox="0 0 82.9 24.4" style="enable-background:new 0 0 82.9 24.4;" xml:space="preserve">
<style type="text/css">
	.st0{fill:#B3B2B3;}
</style>
<path id="XMLID_614_" class="st0" d="M31.6,8.4c-0.2,0-0.5-0.1-0.7-0.2c-0.5-0.1-1,0-1.5,0c-0.5-0.1-1-0.1-1.4-0.1
	c-1.3,0-2.5-0.3-3.7-0.6c-0.2-0.1-0.4-0.3-0.6-0.4c-0.1-0.1-0.1-0.3,0-0.4c0-0.1,0.1-0.3,0.2-0.3c0.2,0,0.4-0.1,0.6,0
	c0.6,0.1,1.2,0.2,1.8,0.3c0.5,0.1,1,0.1,1.4,0C29,6.4,30.2,6,31.4,5.5c0.4-0.2,0.8-0.2,1.2-0.2c1.2-0.2,2.4-0.4,3.5-0.8
	C36.9,4.2,37.6,4,38.4,4c1,0,1.9-0.2,2.9-0.3c0.9-0.1,1.9-0.1,2.8,0.1c0.8,0.2,1.6,0.3,2.4,0.4c0,0,0.1,0,0.1,0
	c0.6-0.3,1.2,0.1,1.8,0.2c1,0.2,2,0.6,3,0.8c0.3,0.1,0.5,0.2,0.8,0.3c1.4,0.6,2.8,1.2,4.1,1.7c0.3,0.1,0.5,0.3,0.7,0.4
	c0.9,0.4,1.7,0.7,2.6,1.1c0.1,0,0.2,0,0.2,0.1c0.9,0.7,1.9,0.9,2.8,1.2c0.2,0.1,0.4,0.2,0.6,0.2c0.3,0.1,0.7,0.2,1,0.4
	c0,0,0.1,0,0.1-0.1c0-0.1,0-0.1-0.1-0.2c-0.1-0.2-0.3-0.5-0.4-0.7c-0.5-0.6-0.7-1.5-0.9-2.4c-0.2-1.3-0.4-2.5-0.3-3.9
	c0-0.2,0-0.4,0-0.6c-0.1-0.9,0.1-1.7,0.3-2.6C63,0.2,63.1,0,63.1,0c0.2,0,0.2,0.2,0.3,0.4c0,0.1,0.1,0.3,0,0.4c-0.1,0.4,0,0.7,0.1,1
	c0.2,1.1,0.4,2,0.9,2.9c0.6,1.1,1.3,1.9,2.3,2.2c0.9,0.3,1.7,0.6,2.6,1c0.2,0.1,0.5,0.2,0.7,0.2c0.9,0.1,1.7,0.5,2.4,1.2
	c0.2,0.1,0.3,0.3,0.5,0.4c0.8,0.5,1.6,1.1,2.3,1.8c0.5,0.4,0.9,0.7,1.4,1.2c0.8,0.7,1.4,1.7,2.2,2.4c0.3,0.3,0.4,0.7,0.8,0.7
	c0.3,0.4,0.6,0.7,0.9,1.1c0.3,0.5,0.6,0.7,1.1,0.6c0.1,0,0.2-0.1,0.2,0c0.3,0.4,0.7,0.5,1.1,0.6c0.1,0,0.2,0.3,0.1,0.5
	c-0.1,0.2-0.3,0.3-0.5,0.3c-0.3,0-0.5,0-0.8,0.2c-0.1,0.1-0.2,0.1-0.3,0C81,19,80.8,19,80.6,19.1c-1,0.1-2-0.2-2.9-0.5
	c-0.6-0.2-1.2-0.4-1.8-0.2c-0.8-0.2-1.7,0.1-2.5-0.3c-0.5-0.2-1-0.3-1.5-0.5c-0.4-0.2-0.9-0.2-1.3-0.2c-0.9-0.1-1.8-0.2-2.7-0.5
	c-0.1,0-0.3-0.1-0.4-0.1c-0.7,0-1.4,0-2.2,0.1c-0.1,0-0.2,0-0.2,0.2c0,0.2-0.1,0.3-0.2,0.2c-0.1,0-0.2-0.1-0.2-0.1
	c-0.3-0.2-0.5-0.2-0.8-0.1c-0.4,0.2-0.9,0.2-1.3,0.3c-0.7,0.3-1.5,0.4-2.2,0.7c-0.8,0.4-1.6,0.6-2.4,0.8C56.9,19,56,19.4,55,20
	c-0.6,0.4-1.3,0.7-2,1c0,0-0.1,0-0.1,0c-0.7,0.1-1.5,0.2-2.2,0.3c-0.1,0-0.3-0.1-0.5-0.2c-0.1-0.1-0.1-0.4,0-0.5
	c0.2-0.1,0.3-0.2,0.5-0.3c0.4-0.1,0.7-0.4,1.1-0.8c0.2-0.3,0.3-0.6,0.2-0.9c0-0.1-0.1-0.3-0.1-0.4c-0.3-0.3-0.5-0.5-0.8-0.7
	c-0.2-0.2-0.4-0.1-0.6-0.1c-0.4,0.1-0.7,0.1-1.1,0.2c-0.1,0-0.3,0.1-0.4,0.1c-0.3,0.1-0.6,0.3-0.9,0.2c-0.3,0-0.6,0.1-0.9,0.2
	c-0.5,0.1-1.1,0.2-1.6,0.2c-0.2,0-0.4,0-0.6,0.1c-0.4,0.1-0.8,0.3-1.2,0.3c-1,0.2-1.9,0.6-2.8,0.8c-1,0.2-1.9,0.5-2.9,0.5
	c-0.3,0-0.5,0.2-0.8,0.2c-0.7,0.2-1.3,0.2-2,0.5c-0.5,0.2-1.1,0.4-1.6,0.6c-0.2,0.1-0.5,0.2-0.7,0.2c-0.4,0-0.8,0-1.1,0.2
	c0,0-0.1,0-0.2,0c-0.6-0.1-1.1-0.2-1.7-0.4c-0.1,0-0.2-0.2-0.2-0.3c0-0.1,0.1-0.2,0.1-0.3c0.1-0.1,0.3-0.2,0.4-0.1
	c0.7,0.3,1.3,0,1.9-0.4c0.6-0.4,1.3-0.8,1.9-1.1c0.2-0.1,0.3-0.2,0.2-0.5c-0.1-0.2,0.1-0.2,0.1-0.3c0.2-0.3,0.2-0.5,0.1-0.8
	c-0.2-0.5-0.5-0.9-0.9-1.1c-0.3-0.2-0.7-0.3-1-0.5c-0.6-0.3-1.2-0.3-1.9-0.2c-0.4-0.1-0.9,0.1-1.4,0.3c-1,0.4-1.9,0.5-2.9,0.7
	c-1.3,0.4-2.6,0.6-4,0.7c-0.3,0-0.7,0.1-1,0.3c-0.4,0.2-0.8,0.4-1.2,0.5c-0.2,0.1-0.5,0.2-0.7,0.3c-0.6,0.3-1.2,0.7-1.9,0.8
	c-0.3,0-0.6,0.2-0.9,0.3c-0.6,0.2-1.2,0.4-1.9,0.6c-0.1,0-0.2,0-0.3,0.1c-0.3,0.2-0.6,0.4-0.9,0.5c-0.3,0.1-0.7,0.2-1,0.2
	c-0.2,0-0.3,0.1-0.5,0.2c-0.1,0.1-0.2,0.2-0.3,0.2c-0.8,0.3-1.6,0.5-2.3,0.7c-0.4,0.1-0.7,0.2-1.1,0.4c-0.4,0.2-0.8,0.4-1.2,0.6
	C6.8,24,6,24.2,5.2,24.2c-0.2,0-0.4,0-0.6,0.1c-0.4,0.2-0.7,0.1-1-0.1c-0.1-0.1-0.2-0.1-0.3-0.1c-0.5,0.2-1-0.3-1.5-0.1
	c-0.5,0.2-1.1-0.1-1.6-0.2C0,23.7-0.1,23.3,0.1,23c0.2-0.4,0.5-0.6,0.8-0.5c0.7,0.2,1.4,0,2.2,0.1c0.4,0.1,0.8-0.2,1.2-0.4
	c0.7-0.3,1.3-0.7,2-1c0,0,0.1,0,0.1,0c0.9-0.9,2-1.4,2.9-2.3c0.6-1.1,1.6-1.3,2.4-2.1c0.2-0.2,0.5-0.4,0.7-0.6
	c0.6-0.5,1.2-0.9,1.8-1.4c0.5-0.3,0.8-0.8,1.3-1c0.2-0.1,0.3-0.2,0.5-0.2c0.5,0,0.9-0.3,1.2-0.7c0.2-0.3,0.5-0.4,0.8-0.5
	c0.2,0,0.3-0.1,0.5-0.2c0.6-0.4,1.3-0.6,2-0.8c1.1-0.4,2.3-0.7,3.5-0.9c0.4-0.1,0.9-0.2,1.3-0.2c0.7-0.1,1.3-0.2,2-0.3
	c1.1-0.3,2.2-0.3,3.4-0.3c0.4,0,0.9,0.1,1.3,0.3c0.7,0.2,1.4,0,2.2,0c0,0,0.1-0.1,0.1-0.1"/>
</svg>
