<?xml version="1.0" encoding="utf-8"?>
<!-- Generator: Adobe Illustrator 19.0.0, SVG Export Plug-In . SVG Version: 6.00 Build 0)  -->
<svg version="1.1" id="Layer_1" xmlns="http://www.w3.org/2000/svg" xmlns:xlink="http://www.w3.org/1999/xlink" x="0px" y="0px"
	 viewBox="0 0 461.7 17.4" style="enable-background:new 0 0 461.7 17.4;" xml:space="preserve">
<style type="text/css">
	.st0{fill-rule:evenodd;clip-rule:evenodd;fill:#C7C6C5;}
	.st1{fill:#C7C6C5;}
</style>
<g id="XMLID_51_">
	<g id="XMLID_53_">
		<g id="XMLID_77_">
			<path id="XMLID_34_" class="st0" d="M172.2,7.5c0.6,0.1,1-0.1,1.1-0.5c1-0.3,1.4,0,1.8,0.4c0.3,0.4,0.7,0.8,1.5,0.7
				c0,0.5,0,1.1,0,1.6c0,0.5,0,1.1,0,1.6c-0.8,0-1.5-0.1-1.6,0.6c0.2-1.2-0.5-1.3-1.2-1.6c-0.4-0.1-0.8-0.3-1.1-0.7
				S172.2,8.6,172.2,7.5z"/>
			<path id="XMLID_49_" class="st0" d="M161.5,7.6c0.6,0.1,0.9-0.1,1-0.5c1-0.3,1.3,0,1.7,0.4c0.4,0.4,0.6,0.8,1.5,0.7
				c0,0.5,0,1,0,1.6c0,0.5,0,1,0,1.5c-0.7,0-1.5-0.1-1.5,0.5c0.2-0.8-0.2-1.1-0.7-1.2c-0.2-0.1-0.4-0.1-0.6-0.2
				c-0.1,0-0.1-0.1-0.2-0.1c-0.3-0.1-0.6-0.3-0.8-0.7C161.6,9.2,161.5,8.6,161.5,7.6z"/>
			<path id="XMLID_48_" class="st0" d="M150.8,7.7c0.6,0.1,0.9-0.1,1-0.5c0.9-0.3,1.3,0,1.6,0.3c0.4,0.3,0.6,0.8,1.5,0.7
				c0,0.5,0,1,0,1.5c0,0.5,0,1,0,1.5c-0.7,0-1.4,0-1.5,0.5c0.1-0.7-0.2-0.9-0.7-1.1c-0.2-0.1-0.4-0.1-0.6-0.2c-0.1,0-0.1,0-0.2-0.1
				c-0.3-0.2-0.5-0.4-0.7-0.7C150.9,9.2,150.7,8.6,150.8,7.7z"/>
			<path id="XMLID_47_" class="st0" d="M140,7.8c0.5,0,0.8-0.1,1-0.5c0.9-0.3,1.2,0,1.5,0.3c0.4,0.3,0.6,0.9,1.4,0.7
				c0,0.5,0,0.9-0.1,1.4c0,0.5,0,0.9-0.1,1.4c-0.6,0-1.3,0-1.4,0.5c0.1-0.7-0.2-0.8-0.7-1c-0.1-0.1-0.3-0.1-0.5-0.2
				c-0.1,0-0.1,0-0.2-0.1c-0.3-0.2-0.5-0.4-0.7-0.7C140.1,9.2,140,8.7,140,7.8z"/>
			<path id="XMLID_46_" class="st0" d="M129.2,8c0.5,0,0.8-0.1,0.9-0.5c0.8-0.3,1.2,0,1.5,0.2c0.4,0.3,0.5,0.9,1.4,0.7
				c0,0.4-0.1,0.9-0.1,1.3c0,0.4,0,0.9-0.1,1.3c-0.6,0-1.2,0-1.3,0.5c0.1-0.6-0.2-0.7-0.8-0.8c-0.1-0.1-0.3-0.2-0.5-0.2
				c-0.1,0-0.1,0-0.2-0.1c-0.2-0.2-0.5-0.4-0.6-0.7C129.3,9.3,129.2,8.8,129.2,8z"/>
			<path id="XMLID_45_" class="st0" d="M118.5,8.1c0.5,0,0.7-0.2,0.9-0.5c0.8-0.2,1.1-0.1,1.4,0.2c0.4,0.3,0.5,0.9,1.4,0.7
				c0,0.4-0.1,0.8-0.1,1.2c0,0.4-0.1,0.8-0.1,1.2c-0.6,0-1.1,0-1.2,0.5c0-0.5-0.3-0.6-0.8-0.7c-0.1-0.1-0.3-0.2-0.5-0.2
				c-0.1,0-0.1,0-0.2-0.1c-0.2-0.2-0.4-0.4-0.6-0.7C118.5,9.3,118.4,8.9,118.5,8.1z"/>
			<path id="XMLID_44_" class="st0" d="M107.7,8.2c0.4,0,0.7-0.2,0.8-0.5c0.7-0.2,1-0.1,1.3,0.1c0.4,0.3,0.5,0.9,1.4,0.7
				c-0.1,0.4-0.1,0.7-0.1,1.1c0,0.4-0.1,0.8-0.1,1.1c-0.5,0-1,0.1-1.1,0.5c0-0.4-0.3-0.5-0.8-0.6c-0.1-0.1-0.3-0.2-0.5-0.2
				c-0.1,0-0.1,0-0.2-0.1c-0.2-0.2-0.4-0.4-0.5-0.7C107.8,9.4,107.7,8.9,107.7,8.2z"/>
			<path id="XMLID_43_" class="st0" d="M97,8.3c0.4,0,0.7-0.2,0.8-0.5c0.7-0.2,1-0.1,1.3,0c0.4,0.3,0.5,0.9,1.4,0.7
				c-0.1,0.3-0.1,0.7-0.2,1c0,0.3-0.1,0.7-0.1,1.1c-0.5,0-0.9,0.1-1,0.5c0-0.3-0.3-0.3-0.9-0.4c-0.1-0.1-0.3-0.2-0.5-0.2
				c-0.1,0-0.1,0-0.2-0.1c-0.2-0.2-0.4-0.5-0.5-0.8C97,9.4,96.9,9,97,8.3z"/>
			<path id="XMLID_42_" class="st0" d="M86.2,8.4c0.4,0,0.6-0.2,0.8-0.5c0.6-0.2,0.9-0.1,1.2,0c0.5,0.2,0.4,1,1.3,0.8
				c-0.1,0.3-0.1,0.6-0.2,0.9c-0.1,0.3-0.1,0.6-0.1,1c-0.4,0-0.9,0.1-1,0.5c0-0.3-0.3-0.2-0.9-0.3c-0.1-0.1-0.3-0.2-0.5-0.2
				c-0.1,0-0.1,0-0.2-0.1c-0.2-0.2-0.3-0.5-0.4-0.8C86.2,9.4,86.2,9,86.2,8.4z"/>
			<path id="XMLID_41_" class="st0" d="M75.5,8.6c0.3,0,0.6-0.2,0.7-0.4C76.8,7.9,77.1,8,77.4,8c0.5,0.2,0.4,1,1.3,0.8
				c-0.1,0.3-0.1,0.6-0.2,0.8c-0.1,0.3-0.1,0.6-0.2,0.9c-0.4,0.1-0.8,0.1-0.9,0.5c-0.1-0.2-0.4-0.1-0.9-0.2
				c-0.1-0.1-0.3-0.2-0.5-0.2c-0.1,0-0.1,0-0.2-0.1c-0.2-0.3-0.3-0.5-0.3-0.8C75.4,9.5,75.4,9.1,75.5,8.6z"/>
			<path id="XMLID_40_" class="st0" d="M64.8,8.7c0.3-0.1,0.5-0.2,0.7-0.4c0.5-0.2,0.8-0.2,1.1-0.1c0.5,0.2,0.4,1,1.3,0.8
				c-0.1,0.2-0.2,0.5-0.2,0.8c-0.1,0.3-0.1,0.5-0.2,0.8c-0.3,0.1-0.7,0.1-0.8,0.5c-0.1-0.1-0.4,0-0.9,0c-0.1-0.2-0.3-0.2-0.5-0.2
				c-0.1,0-0.1,0-0.2-0.1c-0.1-0.3-0.2-0.5-0.3-0.8C64.7,9.5,64.7,9.2,64.8,8.7z"/>
			<path id="XMLID_39_" class="st0" d="M54,8.7c0.3-0.1,0.5-0.2,0.6-0.4c0.5-0.2,0.7-0.2,1-0.2c0.5,0.2,0.4,1,1.3,0.8
				c-0.1,0.2-0.2,0.4-0.3,0.7c-0.1,0.2-0.1,0.5-0.2,0.7c-0.3,0.1-0.6,0.2-0.7,0.5c-0.1,0-0.4,0.1-1,0.1c-0.1-0.2-0.2-0.2-0.4-0.2
				c-0.1,0-0.1,0-0.2,0c-0.1-0.3-0.2-0.6-0.2-0.8C53.9,9.5,53.9,9.2,54,8.7z"/>
			<path id="XMLID_38_" class="st0" d="M43.3,8.8c0.2-0.1,0.4-0.2,0.6-0.4c0.4-0.2,0.7-0.2,0.9-0.2c0.5,0.2,0.3,1,1.3,0.8
				c-0.1,0.2-0.2,0.4-0.3,0.6c-0.1,0.2-0.1,0.4-0.2,0.7c-0.3,0.1-0.5,0.2-0.6,0.5c-0.1,0.1-0.4,0.3-1,0.2c0-0.2-0.2-0.2-0.4-0.2
				c-0.1,0-0.1,0-0.2,0c-0.1-0.3-0.2-0.6-0.2-0.8C43.1,9.5,43.2,9.2,43.3,8.8z"/>
			<path id="XMLID_37_" class="st0" d="M32.6,8.9c0.2-0.1,0.4-0.2,0.5-0.4c0.4-0.2,0.6-0.2,0.9-0.3c0.5,0.2,0.3,1.1,1.2,0.8
				c-0.1,0.1-0.2,0.3-0.3,0.5c-0.1,0.2-0.2,0.4-0.2,0.6c-0.2,0.1-0.4,0.2-0.5,0.5c-0.2,0.1-0.5,0.4-1,0.4c0-0.2-0.2-0.2-0.4-0.2
				c-0.1,0-0.1,0-0.2,0c-0.1-0.3-0.1-0.6-0.1-0.9C32.4,9.5,32.4,9.2,32.6,8.9z"/>
			<path id="XMLID_36_" class="st0" d="M21.8,9c0.2-0.1,0.4-0.2,0.5-0.4c0.3-0.2,0.6-0.2,0.8-0.3c0.5,0.1,0.3,1.1,1.2,0.8
				c-0.1,0.1-0.2,0.3-0.3,0.4c-0.1,0.2-0.2,0.3-0.2,0.5c-0.2,0.1-0.3,0.2-0.4,0.4c-0.2,0.2-0.5,0.5-1.1,0.5c0-0.2-0.2-0.2-0.4-0.2
				c-0.1,0-0.1,0-0.2,0c-0.1-0.3-0.1-0.6-0.1-0.9C21.6,9.5,21.7,9.2,21.8,9z"/>
			<path id="XMLID_35_" class="st0" d="M11.1,9c0.2-0.1,0.3-0.2,0.5-0.4c0.3-0.2,0.5-0.3,0.7-0.4c0.6,0.1,0.3,1.1,1.2,0.8
				c-0.1,0.1-0.2,0.2-0.3,0.3c-0.1,0.1-0.2,0.3-0.3,0.4c-0.1,0.1-0.3,0.3-0.4,0.4c-0.2,0.3-0.5,0.6-1.1,0.6c0-0.2-0.2-0.2-0.4-0.2
				c-0.1,0-0.1,0-0.2,0c-0.1-0.4-0.1-0.6,0-0.9C10.9,9.4,11,9.2,11.1,9z"/>
			<path id="XMLID_33_" class="st0" d="M0,10.6c0-0.4,0-0.7,0-0.9c0.1-0.2,0.2-0.4,0.3-0.6c0.3-0.3,0.7-0.5,1.1-0.8
				C2,8.4,1.7,9.4,2.6,9.2c-0.5,0.2-0.7,0.6-0.9,1s-0.5,0.7-1.1,0.8C0.6,10.6,0.3,10.7,0,10.6z"/>
		</g>
		<g id="XMLID_54_">
			<path id="XMLID_17_" class="st0" d="M274.7,11.2c-0.6-0.1-1,0.1-1.1,0.6c-1,0.3-1.4,0-1.8-0.4c-0.3-0.4-0.7-0.8-1.5-0.7
				c0-0.5,0-1.1,0-1.6c0-0.5,0-1.1,0-1.6c0.8,0,1.5,0.1,1.6-0.6c-0.2,1.2,0.5,1.3,1.2,1.6c0.4,0.1,0.8,0.3,1.1,0.7
				C274.6,9.6,274.7,10.2,274.7,11.2z"/>
			<path id="XMLID_32_" class="st0" d="M283.7,7c-0.2,0.8,0.2,1,0.7,1.2c0.2,0.1,0.4,0.1,0.6,0.2c0.1,0,0.1,0.1,0.2,0.1
				c0.3,0.1,0.6,0.3,0.8,0.7c0.3,0.4,0.4,1,0.4,2c-0.6-0.1-0.9,0.1-1,0.5c-1,0.3-1.3,0-1.7-0.4c-0.4-0.4-0.6-0.8-1.5-0.7
				c0-0.5,0-1,0-1.6c0-0.5,0-1,0-1.5C282.9,7.6,283.7,7.6,283.7,7z"/>
			<path id="XMLID_31_" class="st0" d="M295.5,7.1c-0.1,0.7,0.2,0.9,0.7,1.1c0.2,0.1,0.4,0.1,0.5,0.2c0.1,0,0.1,0,0.2,0.1
				c0.3,0.2,0.5,0.4,0.7,0.7c0.2,0.4,0.4,1,0.4,1.9c-0.6-0.1-0.9,0.1-1,0.5c-0.9,0.3-1.3,0-1.6-0.3c-0.4-0.3-0.6-0.8-1.5-0.7
				c0-0.5,0-1,0-1.5c0-0.5,0-1,0-1.5C294.7,7.7,295.4,7.7,295.5,7.1z"/>
			<path id="XMLID_30_" class="st0" d="M307.2,7.2c-0.1,0.7,0.2,0.8,0.7,1c0.1,0.1,0.3,0.1,0.5,0.2c0.1,0,0.1,0,0.2,0.1
				c0.3,0.2,0.5,0.4,0.7,0.7c0.2,0.4,0.4,0.9,0.3,1.8c-0.5,0-0.8,0.1-1,0.5c-0.9,0.3-1.2,0-1.5-0.3c-0.4-0.3-0.6-0.9-1.4-0.7
				c0-0.5,0-0.9,0.1-1.4c0-0.5,0-0.9,0.1-1.4C306.5,7.8,307.2,7.8,307.2,7.2z"/>
			<path id="XMLID_29_" class="st0" d="M319,7.3c-0.1,0.6,0.2,0.7,0.8,0.8c0.1,0.1,0.3,0.2,0.5,0.2c0.1,0,0.1,0,0.2,0.1
				c0.2,0.2,0.5,0.4,0.6,0.7c0.2,0.4,0.3,0.9,0.3,1.7c-0.5,0-0.8,0.2-0.9,0.5c-0.8,0.3-1.2,0-1.5-0.2c-0.4-0.3-0.5-0.9-1.4-0.7
				c0-0.4,0.1-0.9,0.1-1.3c0-0.4,0-0.9,0.1-1.3C318.4,7.8,319,7.8,319,7.3z"/>
			<path id="XMLID_28_" class="st0" d="M330.8,7.4c0,0.5,0.3,0.6,0.8,0.7c0.1,0.1,0.3,0.2,0.5,0.2c0.1,0,0.1,0,0.2,0.1
				c0.2,0.2,0.4,0.4,0.6,0.7c0.2,0.4,0.3,0.9,0.2,1.6c-0.5,0-0.8,0.2-0.9,0.5c-0.8,0.2-1.1,0.1-1.4-0.2c-0.4-0.3-0.5-0.9-1.4-0.7
				c0-0.4,0.1-0.8,0.1-1.2c0-0.4,0.1-0.8,0.1-1.2C330.2,7.9,330.7,7.8,330.8,7.4z"/>
			<path id="XMLID_27_" class="st0" d="M342.6,7.5c0,0.4,0.3,0.5,0.8,0.6c0.1,0.1,0.3,0.2,0.5,0.2c0.1,0,0.1,0,0.2,0.1
				c0.2,0.2,0.4,0.4,0.5,0.7c0.1,0.4,0.2,0.8,0.2,1.5c-0.4,0-0.7,0.2-0.8,0.5c-0.7,0.2-1,0.1-1.3-0.1c-0.4-0.3-0.5-0.9-1.4-0.7
				c0.1-0.4,0.1-0.7,0.1-1.1c0-0.4,0.1-0.8,0.1-1.1C342,7.9,342.5,7.9,342.6,7.5z"/>
			<path id="XMLID_26_" class="st0" d="M354.3,7.6c0,0.3,0.3,0.3,0.9,0.4c0.1,0.1,0.3,0.2,0.5,0.2c0.1,0,0.1,0,0.2,0.1
				c0.2,0.2,0.3,0.5,0.5,0.8c0.1,0.3,0.2,0.8,0.1,1.4c-0.4,0-0.7,0.2-0.8,0.5c-0.7,0.2-1,0.1-1.3,0c-0.4-0.3-0.5-0.9-1.4-0.8
				c0.1-0.3,0.1-0.7,0.2-1c0-0.3,0.1-0.7,0.1-1.1C353.8,8,354.2,8,354.3,7.6z"/>
			<path id="XMLID_25_" class="st0" d="M366.1,7.6c0,0.3,0.3,0.2,0.9,0.3c0.1,0.1,0.3,0.2,0.5,0.2c0.1,0,0.1,0,0.2,0.1
				c0.2,0.2,0.3,0.5,0.4,0.8c0.1,0.3,0.1,0.7,0.1,1.3c-0.4,0-0.6,0.2-0.7,0.5c-0.6,0.2-0.9,0.1-1.2,0c-0.5-0.2-0.4-1-1.3-0.8
				c0.1-0.3,0.1-0.6,0.2-0.9c0.1-0.3,0.1-0.6,0.1-1C365.6,8.1,366,8,366.1,7.6z"/>
			<path id="XMLID_24_" class="st0" d="M377.8,7.7c0.1,0.2,0.4,0.1,0.9,0.2c0.1,0.1,0.3,0.2,0.5,0.2c0.1,0,0.1,0,0.2,0.1
				c0.2,0.3,0.3,0.5,0.3,0.8c0.1,0.3,0.1,0.7,0,1.2c-0.3,0-0.6,0.2-0.7,0.4c-0.6,0.2-0.9,0.1-1.1,0.1c-0.5-0.2-0.4-1-1.3-0.8
				c0.1-0.3,0.1-0.6,0.2-0.8c0.1-0.3,0.1-0.6,0.2-0.9C377.4,8.2,377.7,8.1,377.8,7.7z"/>
			<path id="XMLID_23_" class="st0" d="M389.6,7.8c0.1,0.1,0.4,0,0.9,0c0.1,0.2,0.3,0.2,0.4,0.2c0.1,0,0.1,0,0.2,0.1
				c0.1,0.3,0.2,0.5,0.3,0.8c0.1,0.3,0.1,0.7,0,1.2c-0.3,0.1-0.5,0.2-0.7,0.4c-0.5,0.2-0.8,0.2-1.1,0.1c-0.5-0.2-0.4-1-1.3-0.8
				c0.1-0.2,0.2-0.5,0.2-0.8c0.1-0.3,0.1-0.5,0.2-0.8C389.2,8.2,389.5,8.2,389.6,7.8z"/>
			<path id="XMLID_22_" class="st0" d="M401.3,8c0.1,0,0.4-0.1,1-0.1c0.1,0.2,0.2,0.2,0.4,0.2c0.1,0,0.1,0,0.2,0.1
				c0.1,0.3,0.2,0.6,0.2,0.8c0,0.3,0,0.6-0.1,1.1c-0.3,0.1-0.5,0.2-0.6,0.4c-0.5,0.2-0.7,0.2-1,0.2c-0.5-0.2-0.4-1-1.3-0.8
				c0.1-0.2,0.2-0.4,0.3-0.7c0.1-0.2,0.1-0.5,0.2-0.7C401,8.3,401.3,8.3,401.3,8z"/>
			<path id="XMLID_21_" class="st0" d="M413.1,8.1c0.1-0.1,0.4-0.3,1-0.2c0.1,0.2,0.2,0.2,0.4,0.2c0.1,0,0.1,0,0.2,0
				c0.1,0.3,0.2,0.6,0.2,0.8c0,0.3,0,0.6-0.1,1c-0.2,0.1-0.4,0.2-0.6,0.4c-0.4,0.2-0.7,0.2-0.9,0.2c-0.5-0.2-0.3-1-1.2-0.8
				c0.1-0.2,0.2-0.4,0.3-0.6c0.1-0.2,0.1-0.4,0.2-0.6C412.7,8.5,413,8.4,413.1,8.1z"/>
			<path id="XMLID_20_" class="st0" d="M424.8,8.2c0.2-0.1,0.5-0.4,1-0.4c0,0.2,0.2,0.2,0.4,0.2c0.1,0,0.1,0,0.2,0
				c0.1,0.3,0.1,0.6,0.1,0.9c0,0.3-0.1,0.6-0.2,0.9c-0.2,0.1-0.4,0.2-0.5,0.4c-0.4,0.2-0.6,0.2-0.9,0.3c-0.5-0.2-0.3-1.1-1.2-0.8
				c0.1-0.1,0.2-0.3,0.3-0.5c0.1-0.2,0.2-0.4,0.2-0.6C424.5,8.6,424.7,8.5,424.8,8.2z"/>
			<path id="XMLID_19_" class="st0" d="M436.6,8.4c0.2-0.2,0.5-0.5,1.1-0.5c0,0.2,0.2,0.2,0.4,0.2c0.1,0,0.1,0,0.2,0
				c0.1,0.3,0.1,0.6,0.1,0.9c0,0.3-0.1,0.5-0.2,0.8c-0.2,0.1-0.4,0.2-0.5,0.4c-0.3,0.2-0.6,0.3-0.8,0.3c-0.5-0.1-0.3-1.1-1.2-0.8
				c0.1-0.1,0.2-0.3,0.3-0.4c0.1-0.2,0.2-0.3,0.2-0.5C436.3,8.7,436.5,8.6,436.6,8.4z"/>
			<path id="XMLID_18_" class="st0" d="M448.3,8.5c0.2-0.3,0.5-0.6,1.1-0.6c0,0.2,0.2,0.2,0.4,0.3c0.1,0,0.1,0,0.2,0
				c0.1,0.3,0.1,0.6,0,0.9c0,0.3-0.1,0.5-0.3,0.7c-0.2,0.1-0.3,0.2-0.5,0.4c-0.3,0.2-0.5,0.3-0.7,0.4c-0.5-0.1-0.3-1.1-1.2-0.9
				c0.1-0.1,0.2-0.2,0.3-0.3c0.1-0.1,0.2-0.3,0.3-0.4C448,8.8,448.2,8.7,448.3,8.5z"/>
			<path id="XMLID_16_" class="st0" d="M461.7,8.2c0,0.4,0,0.7,0,0.9c-0.1,0.2-0.2,0.4-0.3,0.6c-0.3,0.3-0.7,0.6-1.1,0.8
				c-0.6-0.1-0.2-1.1-1.2-0.9c0.5-0.2,0.7-0.6,0.9-1s0.5-0.7,1.1-0.8C461.1,8.2,461.5,8.1,461.7,8.2z"/>
		</g>
	</g>
	<polygon id="XMLID_52_" class="st1" points="229.9,17.4 224.2,13.3 218.6,17.4 220.7,10.8 215.1,6.6 222.1,6.6 224.2,0 226.4,6.6 
		233.4,6.6 227.7,10.8 	"/>
</g>
</svg>
